<?xml version="1.0" encoding="iso-8859-1"?>
<!-- Generator: Adobe Illustrator 21.1.0, SVG Export Plug-In . SVG Version: 6.00 Build 0)  -->
<svg version="1.1" id="Layer_1" xmlns="http://www.w3.org/2000/svg" xmlns:xlink="http://www.w3.org/1999/xlink" x="0px" y="0px"
	 viewBox="0 0 200 200" style="enable-background:new 0 0 200 200;" xml:space="preserve">
<g>
	<path style="fill:#FCDF54;" d="M48.67,47.671c1.041-8.164,3.361-16.228,6.984-23.036c0.141-0.311,0.3-0.598,0.477-0.855
		c0.483-0.866,0.99-1.708,1.516-2.528C34.059,35.58,18.3,61.515,18.3,91.131c0,41.823,31.426,76.299,71.951,81.119
		c-10.785-24.602-38.529-88.34-40.38-98.626C47.93,65.902,47.516,56.725,48.67,47.671z"/>
	<path style="fill:#FCDF54;" d="M181.7,91.131c0-23.909-10.272-45.418-26.642-60.358c3.179,8.206,4.064,17.887,4.232,26.408
		c0.034,0.931-0.007,1.982-0.11,3.134c-1.882,20.963-25.584,76.836-42.299,110.766C153.902,163.302,181.7,130.465,181.7,91.131z"/>
	<path style="fill:#515E42;" d="M60.438,23.072c0,0,0,0,0.304,0c0.305-2.436-0.304-5.177,2.132-7.004
		c2.436-1.828,6.395-2.132,7.308,1.218c0.609-2.741,3.046-5.177,6.091-5.177c3.35,0,3.959,2.131,5.177,4.568
		c3.045-2.436,10.049-6.395,10.049,1.218c3.35-0.305,6.396-1.827,8.223,2.132c0.25,0.624,0.391,1.3,0.444,1.995
		c1.679-1.527,3.609-2.908,5.342-2.908c0.558,0,1.092,0.047,1.611,0.12c2.691-1.587,7.162-3.284,8.135-0.12
		c3.045-1.523,8.527-5.786,9.44,0.914c2.437-0.305,5.178-2.741,7.918-1.828c3.046,1.218,2.437,4.264,2.437,7.005
		c2.437,0.304,4.264-0.609,6.396,0.913c2.131,1.828,1.827,4.568,0.913,6.7c1.828,0.609,3.959-0.305,5.177,0.914
		c1.828,1.827,0.609,4.568-0.609,5.786c2.132,0,6.091,0.609,6.7,3.35c0.609,2.132-2.132,4.872-3.655,6.091
		c1.828-0.305,4.568,0.609,4.873,2.741c0.305,2.436-2.132,2.741-3.045,4.568c1.828,0.305,2.132,2.131,1.828,3.654
		c-0.609,1.827-1.828,2.436-3.655,3.045c-0.904,0.259-2.248,0.57-3.634,0.729c3.805,2.424,4.509,4.885,3.175,7.734
		c3.382-3.323,6.648-7.096,9.668-11.115c0.103-1.152,0.143-2.202,0.11-3.134c-0.168-8.521-1.053-18.202-4.232-26.408
		c-0.801-2.069-1.741-4.048-2.861-5.886c-6.468-9.034-16.97-12.783-26.666-17.588c-19.187-7.688-46.043-9.705-61.778,6.54
		c-2.293,2.123-4.322,4.631-6.106,7.414c-0.526,0.82-1.033,1.662-1.516,2.528C57.059,22.426,58.48,21.897,60.438,23.072z"/>
	<path style="fill:#515E42;" d="M53.129,55.048c-1.885-3.141-0.526-8.545,2.314-12.462c-0.527-0.865-0.994-1.783-1.401-2.46
		c-1.828-2.741-1.522-4.873,2.437-4.873c-1.88-1.88-2.249-7.471-0.825-10.617c-3.624,6.808-5.943,14.871-6.984,23.036
		c0.718,2.145,1.582,4.208,2.632,6.159c0.325,0.679,0.669,1.348,1.021,2.014c0.05-0.443,0.114-0.91,0.197-1.406L53.129,55.048z"/>
	<path style="fill:#F9F0CB;" d="M114.646,27.64c1.841-4.603,9.243-5.028,11.964-0.758c0.805-0.778,1.605-1.4,2.349-1.678
		c0,2.394-0.877,4.496-0.618,6.88c4.793-1.648,18.004,1.008,10.058,8.955c7.918,0,15.227,2.436,7.918,10.963
		c7.919-1.218,3.654,9.136-1.218,10.963c0.445,0.243,0.856,0.486,1.238,0.729c1.387-0.159,2.73-0.47,3.634-0.729
		c1.828-0.609,3.046-1.218,3.655-3.045c0.304-1.523,0-3.35-1.828-3.654c0.914-1.827,3.35-2.132,3.045-4.568
		c-0.304-2.132-3.045-3.046-4.873-2.741c1.523-1.218,4.264-3.959,3.655-6.091c-0.609-2.741-4.568-3.35-6.7-3.35
		c1.218-1.218,2.437-3.959,0.609-5.786c-1.218-1.218-3.349-0.305-5.177-0.914c0.914-2.131,1.218-4.872-0.913-6.7
		c-2.132-1.522-3.959-0.609-6.396-0.913c0-2.741,0.609-5.786-2.437-7.005c-2.741-0.914-5.481,1.523-7.918,1.828
		c-0.913-6.7-6.395-2.437-9.44-0.914c-0.973-3.163-5.444-1.466-8.135,0.12C111.692,19.879,114.646,23.263,114.646,27.64z"/>
	<path style="fill:#FAF0CB;" d="M56.479,35.253c-3.959,0-4.264,2.132-2.437,4.873c0.406,0.678,0.874,1.596,1.401,2.46
		c1.48-2.041,3.36-3.679,5.398-4.379c-0.611-1.543-1.455-3.813-1.012-4.477c0.358-0.538,3.674,0.191,6.713,1.007
		c2.019-6.103,8.265-14.415,12.168-7.097c2.437-3.655,4.264-6.7,9.137-7.918c4.115-0.748,5.632,2.477,6.799,4.471
		c0.701,0.357,1.436,0.739,2.185,1.146c0.051-0.043,0.1-0.083,0.153-0.136c0.787-0.787,1.915-2.027,3.185-3.183
		c-0.053-0.695-0.195-1.371-0.444-1.995c-1.828-3.959-4.873-2.437-8.223-2.132c0-7.614-7.004-3.655-10.049-1.218
		c-1.218-2.436-1.828-4.568-5.177-4.568c-3.045,0-5.482,2.436-6.091,5.177c-0.913-3.35-4.872-3.046-7.308-1.218
		c-2.436,1.827-1.827,4.568-2.132,7.004c-0.304,0-0.304,0-0.304,0c-1.958-1.175-3.379-0.646-4.307,0.709
		c-0.177,0.258-0.336,0.544-0.477,0.855C54.23,27.782,54.599,33.373,56.479,35.253z"/>
	<path style="fill:#FEF9E4;" d="M66.225,69.057c-2.325-2.841-4.428-5.025-2.599-7.667c-0.833-0.876-1.672-1.781-2.578-2.687
		c-1.523-1.523-6.091-4.568-2.437-5.481c3.487-0.82,7.111,1.12,10.687,2.29c-0.079-1.06-0.149-2.116-0.216-3.162
		c0.098,0.026,0.197,0.053,0.295,0.079c-0.921-1.165-1.555-2.273-1.547-3.153c-0.98-1.227-1.92-2.463-2.823-3.668
		c-1.523-1.828-2.741-3.655-3.655-6.091c-0.084-0.25-0.281-0.729-0.511-1.309c-2.038,0.7-3.918,2.337-5.398,4.379
		c-2.84,3.917-4.199,9.321-2.314,12.462l-0.609-0.609c-0.083,0.496-0.147,0.962-0.197,1.406
		c5.032,9.521,12.703,17.694,21.917,22.948c-0.162-0.49-0.321-0.979-0.482-1.467C71.227,74.599,68.577,72.052,66.225,69.057z"/>
	<path style="fill:#FEF9E4;" d="M146.338,63.695c-0.382-0.243-0.792-0.487-1.238-0.729c4.872-1.827,9.136-12.181,1.218-10.963
		c7.309-8.527,0-10.963-7.918-10.963c7.946-7.947-5.265-10.603-10.058-8.955c0.005,0.041,0.003,0.082,0.009,0.124
		c0.589,2.746,0.922,5.243,1.086,7.891c3.522-2.378,7.321-2.157,11.4-3.323c-1.828,3.045-3.655,5.482-4.264,9.136
		c-0.913,4.873-0.304,10.05-0.609,14.922c-0.305,5.177-1.828,12.791-5.787,16.445c-0.112,0.094-0.23,0.182-0.351,0.265
		c-0.384,2.31-0.796,4.635-1.392,6.898c3.297-0.922,6.446-2.168,9.356-3.813c3.933-2.268,7.901-5.445,11.722-9.2
		C150.847,68.581,150.142,66.12,146.338,63.695z"/>
	<path style="fill:#FEF9E4;" d="M90.864,30.123c0.562-2.287,1.282-4.99,2.159-6.747c0.509,0.254,1.055,0.528,1.622,0.817
		c-1.166-1.994-2.684-5.219-6.799-4.471c-4.873,1.218-6.7,4.264-9.137,7.918c-3.903-7.318-10.149,0.994-12.168,7.097
		c2.121,0.569,4.108,1.179,4.859,1.43c1.541,0.482,2.929,1.055,4.234,1.71c-0.694-3.303-0.276-6.146,3.379-5.669
		c1.386,0.198,2.643,0.656,3.855,1.286c-0.34-2.628-1.418-5.371-1.418-7.681C84.832,25.813,88.019,28.109,90.864,30.123z"/>
	<path style="fill:#FEF9E4;" d="M96.983,25.204c-0.052,0.053-0.102,0.093-0.153,0.136c2.996,1.63,6.183,3.648,8.071,5.955
		c0.603,0.776,1.155,1.527,1.64,2.281c0.217-0.585,0.471-1.15,0.796-1.672c0.914-1.827,4.568-6.09,6.396-6.395
		c0.609,1.827,1.828,3.959,2.437,5.786c0.19,1.046,0.253,2.155,0.262,3.291c0.412,0.393,0.832,0.997,1.26,1.886
		c0.189,0.4,0.352,0.798,0.501,1.196c0.893-1.787,1.942-3.47,3.458-5.155c1.269-1.269,3.127-3.859,4.96-5.63
		c-2.721-4.27-10.123-3.845-11.964,0.758c0-4.377-2.954-7.761-7.526-8.407c-0.519-0.073-1.053-0.12-1.611-0.12
		c-1.733,0-3.663,1.382-5.342,2.908C98.898,23.177,97.77,24.416,96.983,25.204z"/>
	<path style="fill:#BFD24A;" d="M58.611,53.221c-3.654,0.914,0.914,3.959,2.437,5.481c0.906,0.906,1.745,1.811,2.578,2.687
		c0.328-0.473,0.779-0.96,1.381-1.469c1.556-1.298,3.058-1.488,4.552-1.352c-0.099-1.02-0.184-2.041-0.26-3.058
		C65.721,54.342,62.098,52.401,58.611,53.221z"/>
	<path style="fill:#BFD24A;" d="M116.431,34.586c-0.009-1.137-0.072-2.246-0.262-3.291c-0.609-1.827-1.828-3.959-2.437-5.786
		c-1.828,0.305-5.482,4.568-6.396,6.395c-0.326,0.522-0.58,1.087-0.796,1.672c1.23,1.912,2.015,3.844,2.015,6.246
		c0,1.411-0.178,3.002-0.121,4.496c0.193,0.166,0.387,0.33,0.581,0.495C110.69,41.414,113.327,31.628,116.431,34.586z"/>
	<path style="fill:#BFD24A;" d="M90.283,32.512c0.17-0.68,0.365-1.504,0.582-2.389c-2.845-2.014-6.033-4.31-9.413-4.31
		c0,2.31,1.079,5.053,1.418,7.681c0.652,0.338,1.293,0.724,1.932,1.15c1.723,1.231,3.054,3.053,4.625,4.513
		c0.487-0.189,0.97-0.389,1.455-0.582C90.848,36.72,90.055,34.106,90.283,32.512z"/>
	<path style="fill:#BFD24A;" d="M128.96,25.204c-0.744,0.279-1.545,0.901-2.349,1.678c-1.833,1.771-3.691,4.361-4.96,5.63
		c-1.516,1.684-2.565,3.368-3.458,5.155c1.998,5.35,0.518,10.473,1.935,15.859c1.218-1.827,1.522-3.959,2.741-5.787
		c1.218-2.741,3.654-5.482,6.091-7.309c0.158-0.119,0.317-0.224,0.477-0.332c-0.164-2.648-0.498-5.144-1.086-7.891
		c-0.006-0.042-0.004-0.082-0.009-0.124C128.083,29.7,128.96,27.598,128.96,25.204z"/>
	<path style="fill:#BFD24A;" d="M66.542,34.737c-3.039-0.815-6.354-1.545-6.713-1.007c-0.443,0.664,0.401,2.934,1.012,4.477
		c0.23,0.58,0.427,1.059,0.511,1.309c0.914,2.436,2.132,4.263,3.655,6.091c0.903,1.204,1.844,2.441,2.823,3.668
		c0.01-0.984,0.822-1.682,2.962-1.841c3.35-0.305,4.568,0.914,7.309,2.132c3.046,1.218,1.828-1.523,0.609-3.654
		c-0.873-1.601-2.44-5.011-3.075-8.035c-1.305-0.655-2.693-1.228-4.234-1.71C70.65,35.917,68.663,35.306,66.542,34.737z"/>
	<path style="fill:#CFE281;" d="M91.805,75.757c-2.741-7.614-3.959-16.141-4.872-23.754c-0.518-3.8-0.736-7.698-0.777-11.582
		c0.166-0.065,0.33-0.131,0.497-0.194c0.924-0.356,1.85-0.71,2.774-1.069c-1.571-1.46-2.901-3.282-4.625-4.513
		c-0.639-0.426-1.279-0.812-1.932-1.15c-1.212-0.63-2.469-1.088-3.855-1.286c-3.656-0.477-4.074,2.366-3.379,5.669
		c0.635,3.024,2.201,6.434,3.075,8.035c1.218,2.132,2.437,4.873-0.609,3.654c-2.741-1.218-3.959-2.437-7.309-2.132
		c-2.14,0.159-2.952,0.857-2.962,1.841c-0.008,0.88,0.626,1.988,1.547,3.153c4.684,1.235,9.301,2.725,14.021,3.834
		c0.024,0.005,0.048,0.01,0.071,0.015c2.921,5.189,4.4,11.077,4.988,17.347c0.323,3.561,0.479,7.122,0.733,10.683
		c1.633,0.324,3.315,0.627,5.033,0.901c0.009-0.323,0.02-0.636,0.02-0.925C93.633,81.239,92.719,78.498,91.805,75.757z"/>
	<path style="fill:#CFE281;" d="M108.555,39.821c0-2.402-0.785-4.334-2.015-6.246c-0.485-0.754-1.037-1.505-1.64-2.281
		c-1.887-2.307-5.075-4.325-8.071-5.955c-0.748-0.407-1.483-0.789-2.185-1.146c-0.567-0.289-1.113-0.563-1.622-0.817
		c-0.878,1.756-1.597,4.46-2.159,6.747c-0.217,0.885-0.412,1.71-0.582,2.389c-0.228,1.594,0.565,4.208,0.598,6.063
		c0.59-0.235,1.182-0.466,1.768-0.712c3.248-1.361,6.273-2.727,9.129-4.408c2.092,5.103,2.962,11.27,3.274,16.372
		c0.829-2.183,1.844-4.231,3.082-5.767c0.099,0.086,0.2,0.17,0.3,0.256C108.377,42.823,108.555,41.232,108.555,39.821z"/>
	<path style="fill:#CFE281;" d="M65.007,59.921c-0.602,0.509-1.053,0.996-1.381,1.469c-1.829,2.642,0.274,4.826,2.599,7.667
		c2.352,2.994,5.003,5.542,7.534,8.268c-1.296-3.963-2.514-7.924-3.271-11.923c-0.419-2.233-0.708-4.53-0.929-6.833
		C68.064,58.433,66.563,58.623,65.007,59.921z"/>
	<path style="fill:#CFE281;" d="M122.869,47.739c-1.218,1.828-1.523,3.959-2.741,5.787c-1.418-5.386,0.063-10.509-1.935-15.859
		c-0.149-0.397-0.313-0.795-0.501-1.196c-0.428-0.888-0.848-1.493-1.26-1.886c-3.104-2.957-5.741,6.829-7.417,10.226
		c2.133,1.821,4.319,3.581,6.518,5.329c0.017,0.414,0.028,0.831,0.028,1.253c0,6.511,0.283,13.022,0.019,19.532
		c0.093-0.422,0.184-0.847,0.285-1.26c1.522-5.479,3.044-11.263,5.479-16.438c4.204-0.474,8.405-1.247,12.504-2.343
		c0.154,2.248-0.053,4.49-0.32,5.687c-0.914,5.786-2.132,11.267-3.045,17.054c-0.228,1.292-0.437,2.603-0.656,3.919
		c0.121-0.083,0.239-0.171,0.351-0.265c3.959-3.655,5.482-11.268,5.787-16.445c0.305-4.873-0.305-10.05,0.609-14.922
		c0.609-3.655,2.437-6.091,4.264-9.136c-4.079,1.165-7.878,0.945-11.4,3.323c-0.16,0.108-0.319,0.213-0.477,0.332
		C126.523,42.258,124.087,44.999,122.869,47.739z"/>
	<path style="fill:#FDC168;" d="M130.482,73.625c0.914-5.786,2.132-11.268,3.045-17.054c0.266-1.197,0.474-3.439,0.32-5.687
		c-4.099,1.096-8.3,1.869-12.504,2.343c-2.434,5.175-3.957,10.959-5.479,16.438c-0.1,0.413-0.191,0.838-0.285,1.26
		c-0.008,0.189-0.011,0.378-0.019,0.567c-0.218,4.785-1.061,10.033-2.077,15.086c5.12-0.158,10.19-0.805,14.951-2.137
		c0.596-2.263,1.008-4.588,1.392-6.898C130.045,76.228,130.254,74.917,130.482,73.625z M127.658,59.924
		c-0.013,0.023-0.036,0.041-0.053,0.063c0.519,2.34-1.438,6.228-1.954,7.935c-1.608,5.324-4.186,10.777-4.541,16.363
		c-0.055,0.864-1.36,0.881-1.356,0c0.022-5.408,2.496-10.337,3.889-15.461c0.467-1.719,1.123-3.38,1.656-5.079
		c0.331-1.057,1.008-2.493,1.216-3.755c-2.278-1.196-3.143-3.699-5.31-5.006c-0.281-0.17-0.088-0.566,0.215-0.509
		c2.356,0.446,3.064,3.058,5.011,4.136c0.626,0.348,2.393-2.128,2.922-2.598c1.071-0.952,2.145-1.881,3.111-2.942
		c0.56-0.614,1.465,0.297,0.909,0.909C131.515,56.021,129.053,57.488,127.658,59.924z"/>
	<path style="fill:#FDC168;" d="M105.053,49.828c-0.313-5.102-1.182-11.269-3.274-16.372c-2.857,1.68-5.881,3.046-9.129,4.408
		c-0.586,0.246-1.177,0.477-1.768,0.712c-0.485,0.193-0.968,0.393-1.455,0.582c-0.924,0.359-1.849,0.713-2.774,1.069
		c-0.166,0.064-0.331,0.129-0.497,0.194c0.041,3.884,0.259,7.782,0.777,11.582c0.914,7.614,2.132,16.141,4.872,23.754
		c0.914,2.741,1.828,5.481,2.437,8.527c0,0.289-0.011,0.601-0.02,0.925c1.46,0.233,2.946,0.443,4.452,0.627
		c0.716-8.102,2.099-16.16,3.486-24.088C102.46,59.351,103.354,54.304,105.053,49.828z M97.351,42.128
		c-0.799,0.88-2.272,2.699-3.698,3.331c0.942,2.224,0.952,4.732,0.974,7.132c0.029,3.346,0.269,6.653,0.528,9.988
		c0.267,3.453,0.352,6.909,0.688,10.356c0.328,3.352,0.829,6.759,0.751,10.13c-0.006,0.246-0.373,0.306-0.435,0.059
		c-1.55-6.228-1.976-13.044-2.692-19.412c-0.682-6.066-0.641-12.149-1.343-18.198c-0.725-0.343-1.584-1.128-2.111-1.428
		c-0.91-0.517-1.628-0.905-2.355-1.643c-0.186-0.189,0-0.51,0.257-0.441c1.072,0.288,4.202,2.629,5.058,2.115
		c1.558-0.937,2.768-2.237,3.95-3.599c0.977-1.124,1.826-2.312,2.75-3.472c0.319-0.401,0.634-0.802,0.967-1.192
		c0.062-0.072,0.105-0.123,0.145-0.171c-0.092-0.115-0.09-0.298,0.097-0.341c0.083-0.019,0.167-0.038,0.249-0.057
		c0.087-0.02,0.2-0.005,0.26,0.069C102.551,36.781,98.166,41.231,97.351,42.128z"/>
	<path style="fill:#FF9343;" d="M83.468,56.278c-0.023-0.005-0.047-0.01-0.071-0.015c-4.719-1.109-9.336-2.599-14.021-3.834
		c-0.098-0.026-0.197-0.054-0.295-0.079c0.067,1.046,0.138,2.101,0.216,3.162c0.076,1.017,0.161,2.038,0.26,3.058
		c0.221,2.303,0.51,4.6,0.929,6.833c0.756,3.999,1.975,7.96,3.271,11.923c0.161,0.489,0.32,0.978,0.482,1.467
		c2.311,1.318,4.719,2.453,7.207,3.378c-1.184-2.396-1.395-5.152-2.538-7.583c-1.213-2.578-2.298-5.119-3.283-7.787
		c-1.39-3.761-1.769-10.28-5.293-12.705c-0.323-0.223-0.043-0.72,0.309-0.53c3.539,1.906,4.477,7.308,5.564,10.777
		c1.037,3.305,2.478,6.393,3.91,9.539c1.21,2.656,1.452,5.664,2.84,8.23c0.119,0.219,0.109,0.429,0.028,0.603
		c1.983,0.659,4.013,1.187,6.08,1.571c0.041,0.008,0.083,0.016,0.124,0.024c-0.254-3.561-0.409-7.122-0.733-10.683
		C87.868,67.355,86.389,61.467,83.468,56.278z"/>
	<path style="fill:#FF9343;" d="M115.579,70.926c0.264-6.511-0.019-13.021-0.019-19.532c0-0.422-0.011-0.839-0.028-1.253
		c-2.199-1.748-4.386-3.508-6.518-5.329c-0.193-0.165-0.387-0.329-0.581-0.495c-0.1-0.086-0.2-0.17-0.3-0.256
		c-1.237,1.536-2.253,3.584-3.082,5.767c-1.698,4.476-2.593,9.523-2.893,11.921c-1.387,7.928-2.77,15.985-3.486,24.088
		c4.822,0.588,9.838,0.895,14.81,0.743c1.016-5.053,1.858-10.3,2.077-15.086C115.568,71.304,115.572,71.115,115.579,70.926z
		 M108.819,85.807c0.457-6.963-0.094-14.039-0.24-21.009c-0.131-6.242-0.707-12.72,0.157-18.919c0.017-0.124,0.23-0.123,0.247,0
		c0.937,6.585,0.578,13.453,0.742,20.096c0.161,6.597-0.056,13.25,0.393,19.833C110.176,86.644,108.764,86.645,108.819,85.807z"/>
	<path style="fill:#717C66;" d="M149.513,71.429c-3.82,3.755-7.789,6.932-11.722,9.2c-2.911,1.645-6.059,2.891-9.356,3.813
		c-4.761,1.332-9.831,1.979-14.951,2.137c-4.972,0.152-9.988-0.156-14.81-0.743c-1.506-0.184-2.992-0.394-4.452-0.627
		c-1.718-0.273-3.4-0.576-5.033-0.901c-0.042-0.008-0.083-0.016-0.124-0.024c-2.067-0.384-4.096-0.912-6.08-1.571
		c-0.205,0.44-0.889,0.636-1.212,0.09c-0.121-0.207-0.221-0.42-0.326-0.633c-2.487-0.925-4.896-2.06-7.207-3.378
		c-9.214-5.254-16.885-13.427-21.917-22.948c-0.351-0.666-0.695-1.336-1.021-2.014c-1.05-1.951-1.914-4.014-2.632-6.159
		c-1.154,9.054-0.741,18.23,1.201,25.952c1.852,10.286,29.595,74.024,40.38,98.626c2.215,5.052,3.715,8.455,4.128,9.405
		c1.214,2.787,3.547,16.147,6.375,16.82c1.499,0.456,7.984-10.866,16.127-27.393c16.716-33.931,40.417-89.803,42.299-110.766
		C156.161,64.333,152.895,68.106,149.513,71.429z M55.167,76.938c-0.12-0.501,0.629-0.709,0.771-0.213
		c1.501,5.207,8.087,7.941,12.7,9.578c2.498,0.887,5.024,1.685,7.613,2.266c1.774,0.399,3.614,0.535,5.254,1.33
		c0.558,0.271,0.436,1.227-0.176,1.343c-2.279,0.435-4.753-0.395-6.958-0.987c-2.925-0.785-5.821-1.715-8.565-3.008
		C61.288,85.118,56.4,82.116,55.167,76.938z M74.872,127.763c3.487,2.584,7.278,4.756,11.269,6.466
		c4.441,1.902,8.735,2.381,13.423,3.24c0.62,0.114,0.507,0.969,0,1.143c-9.047,3.102-18.956-4.631-25.011-10.434
		C74.339,127.974,74.627,127.582,74.872,127.763z M86.38,110.12c-0.393-0.204-0.23-0.916,0.234-0.865
		c3.888,0.425,7.659,1.561,11.57,1.932c4.151,0.393,8.338,0.509,12.498,0.181c8.453-0.667,16.581-2.764,24.247-6.395
		c0.238-0.113,0.444,0.224,0.209,0.357c-7.396,4.223-16.021,6.37-24.456,7.168C103.134,113.212,93.344,113.734,86.38,110.12z
		 M105.03,149.526c-2.528,1.02-6.22,0.437-8.838,0.02c-2.701-0.43-5.146-1.074-7.028-3.092c-0.202-0.216,0.069-0.611,0.329-0.426
		c4.497,3.214,10.789,0.532,15.537,2.452C105.544,148.688,105.544,149.319,105.03,149.526z M88.302,157.465
		c-0.285-0.215-0.049-0.635,0.28-0.48c1.294,0.606,2.32,1.412,3.401,2.331c1.82,1.545,3.829,2.464,6.178,2.941
		c3.792,0.77,7.721-0.11,11.451,0.792c0.574,0.139,0.559,0.996,0,1.143c-3.635,0.953-8.343,1.035-11.99,0.022
		c-1.628-0.452-3.636-1.026-4.922-2.173C91.122,160.635,89.988,158.739,88.302,157.465z M136.186,117.265
		c-4.98,5.008-12.997,5.054-19.535,3.824c-0.401-0.076-0.406-0.74,0-0.813c6.113-1.078,13.926,0.833,19.059-3.485
		C136.037,116.516,136.495,116.954,136.186,117.265z M142.907,95.668c-4.758,4.465-12.846,6.479-19.065,7.693
		c-6.901,1.347-13.896,1.688-20.889,0.914c-6.827-0.757-13.703-2.139-20.119-4.64c-6.139-2.394-11.272-5.853-16.373-9.958
		c-0.079-0.063,0.032-0.174,0.111-0.111c10.34,8.319,25.063,12.644,38.175,12.8c6.711,0.08,13.548-0.546,20.083-2.109
		c3.152-0.753,6.235-1.705,9.274-2.83c2.658-0.984,5.286-2.387,8.027-3.094C142.884,94.137,143.506,95.106,142.907,95.668z"/>
	<path style="fill:#F79247;" d="M101.132,35.287c-0.082,0.019-0.166,0.038-0.249,0.057c-0.187,0.043-0.188,0.226-0.097,0.341
		c-0.041,0.047-0.084,0.098-0.145,0.171c-0.332,0.39-0.648,0.791-0.967,1.192c-0.924,1.16-1.773,2.348-2.75,3.472
		c-1.182,1.362-2.391,2.661-3.95,3.599c-0.856,0.514-3.987-1.827-5.058-2.115c-0.257-0.069-0.442,0.253-0.257,0.441
		c0.727,0.737,1.444,1.126,2.355,1.643c0.527,0.299,1.385,1.084,2.111,1.428c0.701,6.049,0.66,12.132,1.343,18.198
		c0.717,6.368,1.142,13.184,2.692,19.412c0.062,0.247,0.429,0.187,0.435-0.059c0.078-3.371-0.423-6.778-0.751-10.13
		c-0.336-3.448-0.421-6.903-0.688-10.356c-0.259-3.335-0.499-6.642-0.528-9.988c-0.021-2.4-0.032-4.909-0.974-7.132
		c1.425-0.633,2.899-2.452,3.698-3.331c0.815-0.897,5.2-5.347,4.041-6.772C101.332,35.282,101.219,35.268,101.132,35.287z"/>
	<path style="fill:#F79247;" d="M133.372,53.98c0.556-0.612-0.349-1.523-0.909-0.909c-0.965,1.061-2.04,1.99-3.111,2.942
		c-0.529,0.47-2.296,2.946-2.922,2.598c-1.947-1.078-2.655-3.69-5.011-4.136c-0.303-0.058-0.496,0.339-0.215,0.509
		c2.168,1.307,3.032,3.809,5.31,5.006c-0.208,1.262-0.885,2.698-1.216,3.755c-0.533,1.699-1.189,3.36-1.656,5.079
		c-1.393,5.123-3.867,10.053-3.889,15.461c-0.004,0.881,1.301,0.864,1.356,0c0.355-5.586,2.933-11.04,4.541-16.363
		c0.516-1.707,2.473-5.594,1.954-7.935c0.017-0.021,0.039-0.04,0.053-0.063C129.053,57.488,131.515,56.021,133.372,53.98z"/>
	<path style="fill:#EE7023;" d="M108.983,45.878c-0.017-0.123-0.23-0.124-0.247,0c-0.865,6.199-0.288,12.678-0.157,18.919
		c0.147,6.971,0.698,14.047,0.24,21.009c-0.055,0.838,1.356,0.837,1.299,0c-0.449-6.583-0.232-13.237-0.393-19.833
		C109.561,59.331,109.92,52.463,108.983,45.878z"/>
	<path style="fill:#EE7023;" d="M82.957,82.111c-1.388-2.566-1.631-5.574-2.84-8.23c-1.432-3.146-2.872-6.234-3.91-9.539
		c-1.088-3.469-2.026-8.871-5.564-10.777c-0.352-0.19-0.633,0.307-0.309,0.53c3.524,2.425,3.903,8.943,5.293,12.705
		c0.985,2.668,2.07,5.209,3.283,7.787c1.143,2.432,1.354,5.187,2.538,7.583c0.105,0.212,0.205,0.426,0.326,0.633
		c0.323,0.547,1.007,0.351,1.212-0.09C83.065,82.54,83.075,82.33,82.957,82.111z"/>
	<path style="fill:#525E43;" d="M142.13,94.332c-2.741,0.707-5.369,2.111-8.027,3.094c-3.039,1.125-6.122,2.077-9.274,2.83
		c-6.535,1.563-13.372,2.189-20.083,2.109c-13.112-0.156-27.835-4.481-38.175-12.8c-0.079-0.063-0.19,0.047-0.111,0.111
		c5.101,4.105,10.234,7.564,16.373,9.958c6.416,2.501,13.292,3.883,20.119,4.64c6.994,0.775,13.989,0.433,20.889-0.914
		c6.219-1.214,14.306-3.228,19.065-7.693C143.506,95.106,142.884,94.137,142.13,94.332z"/>
	<path style="fill:#525E43;" d="M135.139,105.33c0.235-0.134,0.029-0.47-0.209-0.357c-7.666,3.632-15.794,5.728-24.247,6.395
		c-4.16,0.328-8.347,0.212-12.498-0.181c-3.912-0.371-7.683-1.507-11.57-1.932c-0.463-0.051-0.627,0.66-0.234,0.865
		c6.964,3.614,16.754,3.092,24.302,2.378C119.118,111.7,127.743,109.553,135.139,105.33z"/>
	<path style="fill:#525E43;" d="M135.71,116.792c-5.133,4.318-12.946,2.407-19.059,3.485c-0.406,0.073-0.401,0.737,0,0.813
		c6.538,1.231,14.555,1.184,19.535-3.824C136.495,116.954,136.037,116.516,135.71,116.792z"/>
	<path style="fill:#525E43;" d="M99.563,138.612c0.507-0.174,0.62-1.029,0-1.143c-4.687-0.859-8.982-1.338-13.423-3.24
		c-3.991-1.71-7.781-3.882-11.269-6.466c-0.244-0.181-0.532,0.212-0.32,0.415C80.607,133.981,90.515,141.713,99.563,138.612z"/>
	<path style="fill:#525E43;" d="M89.493,146.028c-0.26-0.186-0.531,0.21-0.329,0.426c1.882,2.018,4.327,2.663,7.028,3.092
		c2.619,0.417,6.311,1,8.838-0.02c0.514-0.207,0.514-0.838,0-1.046C100.281,146.561,93.99,149.243,89.493,146.028z"/>
	<path style="fill:#525E43;" d="M92.7,162.04c1.287,1.147,3.294,1.721,4.922,2.173c3.647,1.013,8.355,0.932,11.99-0.022
		c0.559-0.147,0.574-1.004,0-1.143c-3.729-0.902-7.659-0.022-11.451-0.792c-2.349-0.477-4.358-1.395-6.178-2.941
		c-1.081-0.919-2.108-1.724-3.401-2.331c-0.329-0.155-0.566,0.266-0.28,0.48C89.988,158.739,91.122,160.635,92.7,162.04z"/>
	<path style="fill:#525E43;" d="M81.329,91.243c0.612-0.116,0.733-1.073,0.176-1.343c-1.64-0.795-3.479-0.932-5.254-1.33
		c-2.589-0.581-5.114-1.38-7.613-2.266c-4.613-1.638-11.198-4.372-12.7-9.578c-0.142-0.496-0.891-0.288-0.771,0.213
		c1.232,5.178,6.12,8.18,10.638,10.31c2.745,1.293,5.64,2.223,8.565,3.008C76.575,90.848,79.05,91.678,81.329,91.243z"/>
</g>
</svg>
