<?xml version="1.0" encoding="iso-8859-1"?>
<!-- Generator: Adobe Illustrator 21.1.0, SVG Export Plug-In . SVG Version: 6.00 Build 0)  -->
<svg version="1.1" id="Layer_1" xmlns="http://www.w3.org/2000/svg" xmlns:xlink="http://www.w3.org/1999/xlink" x="0px" y="0px"
	 viewBox="0 0 200 200" style="enable-background:new 0 0 200 200;" xml:space="preserve">
<path d="M-29.833-5.833"/>
<path style="fill:none;stroke:#231F20;stroke-miterlimit:10;" d="M-32.25,57.031"/>
<g>
	<path style="fill:#ACD4E2;" d="M99.999,3.5c-53.294,0-96.5,43.205-96.5,96.501c0,53.295,43.205,96.499,96.5,96.499
		c53.296,0,96.501-43.204,96.501-96.499C196.5,46.705,153.295,3.5,99.999,3.5z M14.403,75.75c-0.056,0-0.056-0.087,0-0.087
		C14.46,75.664,14.46,75.75,14.403,75.75z M171.26,137.25l-0.024,0.542l-0.022,0.527l-0.292,6.79l-0.018,0.392l-0.019,0.433
		l-0.497,11.48c0,0-23.157,9.175-61.17,9.612c-38.014,0.436-72.968-9.612-72.968-9.612l-4.718-67.139L30.57,76.581
		c1.759-9.086,6.449-16.027,12.668-21.334c0-0.025,0.003-0.054,0.003-0.075c0.279-0.374,0.56-0.768,0.844-1.168
		c0.677-2.804,2.887-5.061,5.558-6.199c1.435-0.611,3.299-0.95,4.804-0.351c0.215,0.086,0.396,0.173,0.562,0.263
		c0.138-0.068,0.279-0.136,0.419-0.202c0.015-0.167,0.02-0.332,0.048-0.501v0.437v0.042c1.774-0.839,3.586-1.605,5.42-2.301
		c1.928-1.528,4.082-2.802,6.171-3.582c1.247-0.667,2.665-1.107,4.122-1.367c1.49-0.267,3.372-0.081,4.874,0.628
		c4.431-0.912,8.687-1.526,12.507-1.938c4.272-1.856,8.477-2.84,10.529-0.75c3.584-0.122,5.75-0.052,5.75-0.052
		c3.913,0.22,7.606,0.577,11.104,1.047c3.863-0.528,7.224-0.242,8.525,1.447c38.255,7.936,48.27,30.651,49.407,35.956l-0.561,12.966
		L171.26,137.25z"/>
	<path style="fill:#3A3628;" d="M144.609,108.477c-9.175,2.622-19.662,2.185-29.274,2.185c-8.754,0-16.953-0.845-25.485-1.853
		c-1.239,0.08-2.505-0.097-3.779-0.452c-0.876-0.106-1.747-0.21-2.632-0.317c-7.738-0.967-15.948-2.653-23.759-5.049
		c-1.725,0.299-3.445,0.35-5.078-0.195c-2.194-0.731-3.613-1.773-4.534-3.179c-5.558-2.133-10.783-4.934-16.002-7.745
		c-0.918-0.524-1.748-1.051-2.533-1.598l4.718,67.139c0,0,34.954,10.048,72.968,9.612c38.012-0.437,61.17-9.612,61.17-9.612
		l0.497-11.48c-8.232,3.821-16.661,6.961-25.749,8.939c-13.637,2.969-27.49,5.024-41.218,1.437
		c-0.275-0.071-0.152-0.456,0.114-0.414c13.938,2.218,28.409-0.342,42.034-3.469c8.233-1.89,16.76-4.215,24.856-7.317l0.292-6.79
		c-8.04,4.663-17.413,5.507-26.583,6.94c-0.102,0.015-0.148-0.134-0.045-0.158c8.783-1.966,18.332-4.069,26.674-7.851l2.063-47.703
		c-1.953,1.838-3.968,3.537-5.557,4.948C161.65,100.175,152.911,105.855,144.609,108.477z M43.583,112.828
		c2.429,3.677,5.093,5.9,9.654,5.905c3.158,0.004,6.304-0.326,9.429,0.347c7.375,1.587,14.93,4.272,22.521,4.422
		c0.294,0.006,0.371,0.452,0.071,0.523c-4.23,0.984-8.211,1.787-12.456,0.365c-4.539-1.52-9.613-3.949-14.453-4.134
		c-3.287-0.125-6.988,0.614-10.121-0.742c-2.764-1.198-4.531-3.341-6.204-5.777C41.369,112.78,42.943,111.861,43.583,112.828z
		 M111.839,148.037c-5.167,0.435-10.785-0.444-15.882-1.43c-5.117-0.992-10.255-1.491-15.402-2.266
		c-5.049-0.761-9.954-2.264-14.992-3.089c-5.317-0.873-10.341-2.878-15.767-3.081c-0.554-0.02-0.527-0.778,0-0.839
		c5.115-0.59,9.639,1.579,14.592,2.412c5.058,0.852,9.707,3.204,14.767,3.987c10.838,1.679,21.799,2.638,32.684,3.835
		C112.14,147.6,112.145,148.012,111.839,148.037z M158.591,132.153c-6.131,0.226-12.081,2.908-18.122,3.912
		c-6.101,1.012-12.215,2.149-18.324,3.074c-4.814,0.729-10.154,1.127-14.971,0.187c-4.761-0.929-8.713-3.6-13.202-5.293
		c-6.125-2.309-12.668-1.635-19.062-1.265c-4.623,0.269-10.439,0.528-14.914-0.867c-4.668-1.454-9.123-4-13.303-6.511
		c-3.069-1.844-6.754-3.989-7.779-7.628c-0.133-0.471,0.489-0.68,0.749-0.316c3.35,4.699,8.938,6.645,13.829,9.362
		c4.879,2.712,9.364,4.867,15.14,4.137c9.223-1.168,20.076-2.547,28.533,2.229c5.288,2.987,9.942,4.733,16.104,4.813
		c5.627,0.075,11.048-0.903,16.593-1.739c9.482-1.429,19.14-3.984,28.729-4.258C158.697,131.986,158.696,132.15,158.591,132.153z
		 M159.152,122.235c-5.283,3.525-10.751,2.146-16.558,3.898c-6.865,2.071-13.865,3.182-20.911,4.393
		c-5.501,0.945-9.444-0.517-14.632-2.158c-3.121-0.987-6.367-1.427-9.512-2.355c-3.138-0.929-6.402-2.271-9.731-2.192
		c-0.068,0.001-0.067-0.1,0-0.102c5.989-0.253,11.087,1.564,16.89,2.803c2.652,0.565,5.16,1.514,7.763,2.25
		c3.75,1.061,6.393,0.385,10.08-0.121c6.64-0.914,13.17-2.301,19.712-3.748c5.655-1.251,11.325-0.25,16.65-3.093
		C159.185,121.659,159.414,122.059,159.152,122.235z"/>
	<path style="fill:#514E43;" d="M100.126,45.469c2.229-2.536,9.651-5.447,15.827-6.291c-3.498-0.47-7.19-0.828-11.104-1.047
		c0,0-2.166-0.07-5.75,0.052c0.797,0.813,1.262,2.096,1.281,3.973C100.426,43.088,100.338,44.198,100.126,45.469z"/>
	<path style="fill:#514E43;" d="M59.679,102.991c7.811,2.395,16.021,4.081,23.759,5.049c0.885,0.106,1.756,0.211,2.632,0.317
		c-5.515-1.529-11.209-6.3-15.738-7.307C67.323,100.447,63.487,102.33,59.679,102.991z"/>
	<path style="fill:#514E43;" d="M50.068,99.618c-1.28-1.957-1.584-4.622-1.584-8.182c-9.769,4.627-14.687-2.237-14.596-8.495
		c-0.04-1.742,0.308-3.457,1.041-4.89c-0.119-0.726-0.176-1.459-0.16-2.187c-0.038-2.329,0.615-4.597,1.972-6.205
		c-0.458-1.087-0.703-2.222-0.653-3.312c-0.012-0.533,0.035-1.059,0.162-1.565c0.301-0.908,0.92-1.498,1.635-1.959
		c1.348-0.869,3.036-1.268,3.608-2.411c0.851-0.852,1.702-4.194,1.744-5.168C37.02,60.553,32.329,67.494,30.57,76.581l0.962,13.694
		c0.785,0.547,1.615,1.074,2.533,1.598C39.285,94.684,44.51,97.486,50.068,99.618z"/>
	<path style="fill:#514E43;" d="M55.428,47.515c-0.14,0.066-0.281,0.134-0.419,0.202c0.138,0.075,0.267,0.152,0.378,0.232
		C55.391,47.806,55.415,47.66,55.428,47.515z"/>
	<path style="fill:#514E43;" d="M124.477,40.625c0.173,0.225,0.32,0.467,0.416,0.743c1.212,0.819,1.851,2.178,1.794,3.878
		c0.005,0.15,0.005,0.302-0.001,0.457c7.475-1.831,16.392-3.769,17.923,7.72c5.272,0.753,15.076-0.434,14.893,5.374
		c0.053,0.925-0.177,2.051-0.747,3.411c5.19,1.342,10.346,4.801,12.399,8.478c0.609,1.09,0.93,2.198,0.91,3.276
		c0.061,0.897-0.12,1.775-0.568,2.611c0.094,0.408,0.133,0.844,0.117,1.304c0.06,1.416-0.435,3.072-1.341,4.743
		c0.356,0.654,0.507,1.426,0.473,2.273c0.217,6.01-9.532,16.4-17.545,13.003c-0.177,0.2-0.363,0.392-0.555,0.577
		c0,0.081-0.006,0.161-0.008,0.24c0.389,9.697-25.503,14.144-25.503,3.211c-2.601,8.668-30.122,12.174-29.723,2.001
		c-0.003-0.074-0.008-0.147-0.008-0.224c-2.281,3.532-4.854,4.932-7.552,5.109c8.532,1.008,16.731,1.853,25.485,1.853
		c9.612,0,20.099,0.437,29.274-2.185c8.302-2.622,17.041-8.302,23.157-13.982c1.589-1.411,3.603-3.111,5.557-4.948l0.561-12.966
		C172.748,71.276,162.732,48.561,124.477,40.625z"/>
	<path style="fill:#514E43;" d="M56.669,49.511c1.114-1.543,2.591-3.021,4.227-4.319c-1.834,0.696-3.646,1.462-5.42,2.301v0.52
		C56.011,48.419,56.28,48.896,56.669,49.511z"/>
	<path style="fill:#514E43;" d="M78.628,44.292c2.421-1.457,6.204-3.736,9.942-5.359c-3.82,0.413-8.077,1.027-12.507,1.938
		C77.462,41.533,78.53,42.648,78.628,44.292z"/>
	<path style="fill:#514E43;" d="M54.602,54.005c0.177-1.074,0.639-2.184,1.287-3.285c-0.383-0.165-0.813-0.263-1.287-0.273V54.005z"
		/>
	<path style="fill:#FEFAE7;" d="M37.886,62.825c-0.715,0.461-1.334,1.051-1.635,1.959c-0.127,0.506-0.174,1.032-0.162,1.565
		c-0.051,1.09,0.195,2.225,0.653,3.312c-1.356,1.608-2.01,3.876-1.972,6.205c-0.015,0.727,0.041,1.46,0.16,2.187
		c-0.733,1.433-1.081,3.148-1.041,4.89c0.024-1.63,0.382-3.22,1.091-4.555c0.934,4.792,4.833,9.006,11.625,7.1
		c-0.063-0.728-0.016-1.476,0.157-2.209c0.388-1.65,1.127-3.444,2.415-4.604c1.088-0.981,1.852-1.193,3.17-1.476
		c0.212-0.045,0.438,0.184,0.301,0.391c-0.896,1.341-1.5,3.909-1.719,5.504c-0.28,2.047,0.358,2.773,2.113,3.46
		c2.191,0.858,2.185,4.042-0.044,4.537c-0.028,0.94,0.358,2.138,0.716,2.641c0.718,1.014,2.07,1.525,2.982,2.363
		c2.617,0.429,5.393-0.383,8.027-1.133c-0.512-0.685-0.942-1.452-1.264-2.307c-0.674-1.79-0.851-4.672-0.223-7.133
		c-3.43-2.938-6.048-6.598-6.672-11.144c-0.023-0.05-0.048-0.097-0.069-0.146c-2.516-5.733,0.121-11.722,3.508-16.474
		c3.999-5.611,11.533-7.61,18.098-6.104c2.711,0.196,5.317,1.092,7.412,2.903c2.817-2.706,6.063-5.196,9.312-6.17
		c0.282-0.076,0.546-0.129,0.802-0.172c-0.099-0.154-0.184-0.322-0.24-0.528c-0.411-1.51-0.084-3.139-1.94-3.426
		c-2.932-0.455-6.675,0.039-8.538,2.702c-0.136,0.195-0.425,0.029-0.319-0.186c1.605-3.275,5.644-5.055,9.215-5.169
		c3.772-0.121,4.115,2.075,5.215,5.078c0.303,0.824-0.018,1.492-0.57,1.897c2.844,1.755,1.416,8.105,0.279,11.516
		c3.416-3.416,9.272-8.296,14.641-7.808c5.857,0.976,2.927,8.296,0.976,12.2c2.382-3.175,6.376-4.414,10.149-5.29
		c-0.112-0.008-0.106-0.185,0.015-0.2c0.339-0.04,0.701-0.057,1.073-0.045c0.492-0.109,0.977-0.216,1.451-0.321
		c4.88-0.488,8.785-1.464,7.809,4.881c-0.515,2.744-2.006,5.301-3.982,7.599c0.369-0.104,0.741-0.209,1.106-0.304
		c6.424-1.562,11.685-1.681,16.972,2.59c0.551,0.5,1.071,1.014,1.557,1.537c0.14-0.432,0.508-0.807,1.104-0.888
		c1.018-0.136,2.15-0.483,2.515-1.593c0.354-1.076,0.318-2.232-0.512-3.124c-0.169-0.182-0.006-0.504,0.249-0.427
		c0.993,0.299,1.624,0.607,2.166,1.543c0.411,0.713,0.512,1.826,0.245,2.601c-0.641,1.873-2.422,3.466-4.486,3.432
		c2,2.742,2.578,5.672-0.289,8.511c-4.249,4.637-11.212,7.077-18.065,8.493c-0.031,0.05-0.057,0.099-0.092,0.151
		c-0.516,0.733-1.461,1.354-2.27,1.707c-0.533,0.231-1.06,0.424-1.585,0.595c1.892,3.336,6.628,4.364,10.246,3.983
		c3.171-0.334,5.749-1.486,7.533-3.705c-1.42,0.199-2.816,0.093-3.968-0.551c-2.705-1.509-0.332-5.241,2.37-4.054
		c-0.337-0.148-0.112-0.057,0.317-0.07c0.482-0.014,0.945-0.048,1.368-0.129c1.104-0.214,2.305-0.477,3.326-0.967
		c2.248-1.08,2.644-2.074,3.293-4.324c0.042-0.145,0.185-0.217,0.329-0.186c1.665,0.363,2.425,2.327,2.077,3.895
		c-0.123,0.557-0.362,1.085-0.668,1.581c5.634,1.123,11.72-3.709,14.456-8.573c0.377,0.587,0.558,1.285,0.587,2.053
		c0.034-0.847-0.116-1.618-0.473-2.273c0.905-1.671,1.401-3.327,1.341-4.743c0.016-0.46-0.023-0.896-0.117-1.304
		c0.448-0.836,0.629-1.714,0.568-2.611c0.02-1.078-0.301-2.185-0.91-3.276c-2.053-3.676-7.209-7.136-12.399-8.478
		c0.571-1.36,0.8-2.486,0.747-3.411c0.183-5.808-9.621-4.62-14.893-5.374c-1.531-11.489-10.449-9.551-17.923-7.72
		c-0.006,0.146-0.007,0.291-0.023,0.442c-0.054,0.526-0.169,1.077-0.355,1.657c-0.748,2.321-4.491,1.19-3.595-0.991
		c0.328-0.795,1.159-2.476-0.105-2.87c-1.318-0.41-2.734-0.371-4.094-0.195c-2.538,0.329-6.274,0.809-8.366,2.346
		c-0.102,0.076-0.232-0.093-0.136-0.176c3.053-2.683,6.811-4.624,10.932-4.957c1.634-0.131,2.973,0.186,3.95,0.845
		c1.108,0.748,1.735,1.946,1.794,3.441c0.057-1.7-0.582-3.059-1.794-3.878c-0.096-0.277-0.243-0.518-0.416-0.743
		c-1.3-1.689-4.662-1.975-8.525-1.447c-6.176,0.844-13.598,3.755-15.827,6.291c0.212-1.271,0.301-2.381,0.255-3.313
		c-0.019-1.877-0.485-3.16-1.281-3.973c-2.052-2.09-6.257-1.105-10.529,0.75c-3.739,1.623-7.521,3.902-9.942,5.359
		c-0.098-1.644-1.166-2.759-2.565-3.421c-1.502-0.709-3.384-0.895-4.874-0.628c-1.457,0.26-2.875,0.699-4.122,1.367
		c-2.089,0.78-4.242,2.054-6.171,3.582c-1.636,1.298-3.113,2.775-4.227,4.319c-0.388-0.615-0.658-1.092-1.193-1.498v-0.52v-0.042
		v-0.437c-0.028,0.169-0.033,0.334-0.048,0.501c-0.013,0.144-0.037,0.29-0.04,0.433c-0.112-0.08-0.24-0.157-0.378-0.232
		c-0.166-0.09-0.347-0.178-0.562-0.263c-1.505-0.599-3.369-0.26-4.804,0.351c-2.671,1.138-4.881,3.395-5.558,6.199
		c-0.284,0.4-0.565,0.794-0.844,1.168c0,0.021-0.003,0.05-0.003,0.075c-0.042,0.973-0.893,4.315-1.744,5.168
		C40.922,61.557,39.234,61.955,37.886,62.825z M143.821,60.357c-0.841,1.601-3.675,0.456-2.956-1.247
		c0.701-1.661,1.301-3.437-0.667-4.414c-1.741-0.865-3.741-0.989-5.638-1.15c-0.127-0.01-0.162-0.155-0.063-0.229
		c2.15-1.583,5.502-1.977,7.873-0.661C145.293,54.279,145.229,57.681,143.821,60.357z M154.504,62.043
		c-0.233,1.347-2.393,1.012-2.355-0.318c0.021-0.695,0.424-2.191-0.346-2.66c-0.942-0.575-2.17-1.008-3.263-1.129
		c-0.185-0.021-0.185-0.266,0-0.287c1.48-0.163,3.207-1.095,4.616-0.095C154.572,58.559,154.782,60.435,154.504,62.043z
		 M165.458,84.789c-1.673,2.213-4.646,2.978-7.28,2.469c-1.712-0.331-1.332-3.261,0.414-3.058c1.898,0.221,3.474,0.076,4.839-1.384
		c1.174-1.253,1.03-2.851,1.852-4.226c0.087-0.147,0.324-0.242,0.477-0.124C167.63,79.909,166.658,83.199,165.458,84.789z
		 M46.896,64.492c-2.118,0.315-2.889,2.539-2.777,4.476c0.035,0.613,0.157,1.56,0.628,2.005c0.595,0.56,1.374,0.79,1.899,1.507
		c0.258,0.354,0.218,0.933,0,1.29c-1.025,1.679-3.501,1.303-4.661-0.035c-1.18-1.362-1.591-2.985-1.412-4.767
		c0.325-3.21,2.765-6.479,6.323-5.642C47.449,63.457,47.501,64.403,46.896,64.492z M71.189,40.68c1.265-0.226,2.813-0.13,4.17,0.338
		c1.734,0.597,3.156,1.8,3.269,3.711c0.016,0.264,0.014,0.539-0.023,0.83c-0.245,1.945-2.643,2.321-3.38,0.457
		c-0.91-2.307-2.911-2.383-5.246-1.819c-1.899,0.46-5.184,1.266-6.451,2.86c-0.172,0.217-0.513-0.019-0.445-0.259
		c0.33-1.172,0.902-2.142,1.634-2.949c0.666-0.729,1.463-1.326,2.35-1.802C68.314,41.38,69.732,40.94,71.189,40.68z M49.643,48.242
		c1.435-0.611,3.299-0.95,4.804-0.35c0.038,0.015,0.066,0.03,0.102,0.045c0.339,0.143,0.615,0.29,0.839,0.448
		c0.031,0.021,0.058,0.043,0.088,0.065c0.535,0.407,0.804,0.883,1.193,1.498c0.131,0.205,0.271,0.423,0.445,0.663
		c0.262,0.362-0.294,0.74-0.596,0.459c-0.123-0.113-0.27-0.193-0.42-0.273c-0.065-0.034-0.142-0.048-0.209-0.076
		c-0.648,1.101-1.11,2.211-1.287,3.285v-3.558c-1.331-0.027-2.849,0.454-3.668,0.963c-1.658,1.033-2.946,2.594-3.112,4.596
		c-0.207,2.504-4.028,2.577-3.953,0c0.015-0.5,0.087-0.985,0.198-1.457c0.007-0.036,0.012-0.073,0.019-0.109
		C44.762,51.635,46.972,49.379,49.643,48.242z"/>
	<path style="fill:#FEFAE7;" d="M67.056,88.33c0.225,1.023,0.547,1.929,0.832,2.456c0.77,1.426,1.571,2.215,2.959,2.132
		c1.042-0.061,2.012-0.548,2.986-1.04c-0.49-0.215-0.99-0.42-1.47-0.647C70.584,90.388,68.78,89.426,67.056,88.33z"/>
	<path style="fill:#FEFAE7;" d="M115.333,96.153c0.342,3.736-5.137,4.288-7.542,3.094c-1.425-0.708-2.564-2.21-2.923-3.823
		c-5.953,0.433-11.806,1.81-17.812,0.62c-2.669-0.529-5.371-1.253-8.018-2.142c-0.138,0.186-0.275,0.375-0.406,0.592
		c-0.011-0.018-0.021-0.037-0.033-0.055c-0.464,0.747-1.153,1.393-1.974,1.92c7.114,3.873,15.476,9.956,21.669,0.32
		c-0.794,9.536,22.251,7.509,28.41,0.492c-0.086-0.174-0.173-0.349-0.25-0.531c-0.911,0.134-1.844,0.212-2.818,0.256
		c-0.854,0.039-1.687-0.626-1.893-1.442c-0.016-0.092-0.045-0.181-0.068-0.27c-2.112,0.208-4.288,0.336-6.503,0.359
		C115.253,95.725,115.313,95.925,115.333,96.153z"/>
	<path style="fill:#FEFAE7;" d="M111.59,95.481c-0.984-0.039-1.97-0.097-2.957-0.179c0.271,0.196,0.587,0.358,0.965,0.474
		C110.441,96.03,111.021,95.8,111.59,95.481z"/>
	<path style="fill:#FEFAE7;" d="M150.095,95.462c-0.007,0.072-0.012,0.146-0.02,0.218c0.125-0.114,0.248-0.232,0.364-0.353
		C150.326,95.374,150.211,95.417,150.095,95.462z"/>
	<path style="fill:#FFF4C5;" d="M155.702,91.411c0.306-0.496,0.546-1.024,0.668-1.581c0.347-1.568-0.413-3.532-2.077-3.895
		c-0.143-0.031-0.286,0.041-0.329,0.186c-0.649,2.25-1.046,3.244-3.293,4.324c-1.021,0.49-2.222,0.753-3.326,0.967
		c-0.423,0.082-0.886,0.116-1.368,0.129c-0.429,0.013-0.655-0.079-0.317,0.07c-2.703-1.187-5.076,2.545-2.37,4.054
		c1.152,0.644,2.547,0.75,3.968,0.551c-1.785,2.219-4.363,3.371-7.533,3.705c-3.618,0.381-8.353-0.648-10.246-3.983
		c0.525-0.171,1.052-0.364,1.585-0.595c0.809-0.353,1.754-0.974,2.27-1.707c0.035-0.052,0.061-0.101,0.092-0.151
		c-3.94,0.813-7.844,1.291-11.176,1.645c-0.189,0.02-0.384,0.033-0.574,0.052c0.023,0.089,0.052,0.178,0.068,0.27
		c0.207,0.816,1.04,1.481,1.893,1.442c0.975-0.044,1.907-0.122,2.818-0.256c0.076,0.181,0.164,0.356,0.25,0.531
		c-6.159,7.017-29.203,9.044-28.41-0.492c-6.193,9.636-14.555,3.554-21.669-0.32c0.821-0.527,1.51-1.173,1.974-1.92
		c-0.186-0.285-0.361-0.574-0.523-0.866c-1.446-0.511-2.858-1.087-4.244-1.695c-0.974,0.492-1.943,0.979-2.986,1.04
		c-1.387,0.083-2.188-0.706-2.959-2.132c-0.285-0.527-0.607-1.433-0.832-2.456c-1.339-0.852-2.628-1.788-3.82-2.81
		c-0.628,2.461-0.451,5.344,0.223,7.133c0.322,0.854,0.752,1.622,1.264,2.307c-2.635,0.751-5.411,1.562-8.027,1.133
		c-0.912-0.838-2.264-1.349-2.982-2.363c-0.358-0.503-0.745-1.701-0.716-2.641c2.229-0.495,2.235-3.679,0.044-4.537
		c-1.755-0.687-2.393-1.413-2.113-3.46c0.219-1.595,0.823-4.163,1.719-5.504c0.138-0.208-0.088-0.437-0.301-0.391
		c-1.318,0.284-2.082,0.496-3.17,1.476c-1.288,1.16-2.027,2.954-2.415,4.604c-0.173,0.734-0.219,1.481-0.157,2.209
		c-6.792,1.906-10.691-2.308-11.625-7.1c-0.708,1.335-1.067,2.925-1.091,4.555c-0.092,6.258,4.826,13.122,14.596,8.495
		c0,3.56,0.304,6.225,1.584,8.182c0.921,1.406,2.34,2.448,4.534,3.179c1.633,0.545,3.352,0.494,5.078,0.195
		c3.808-0.661,7.643-2.545,10.653-1.942c4.53,1.007,10.223,5.778,15.738,7.307c1.274,0.354,2.54,0.531,3.779,0.452
		c2.698-0.176,5.271-1.576,7.552-5.109c0,0.076,0.005,0.15,0.008,0.224c-0.399,10.173,27.122,6.667,29.723-2.001
		c0,10.934,25.893,6.487,25.503-3.211c0.003-0.08,0.008-0.159,0.008-0.24c0.192-0.185,0.378-0.378,0.555-0.577
		c8.013,3.397,17.763-6.993,17.545-13.003c-0.029-0.767-0.21-1.466-0.587-2.053C167.422,87.703,161.336,92.534,155.702,91.411z
		 M150.095,95.462c0.116-0.045,0.231-0.088,0.344-0.135c-0.117,0.122-0.239,0.239-0.364,0.353
		C150.083,95.608,150.088,95.535,150.095,95.462z"/>
	<path style="fill:#FFF4C5;" d="M107.791,99.248c2.405,1.193,7.883,0.641,7.542-3.094c-0.02-0.228-0.08-0.428-0.162-0.611
		c-1.186,0.012-2.381-0.015-3.581-0.062c-0.569,0.319-1.149,0.549-1.992,0.295c-0.378-0.116-0.694-0.278-0.965-0.474
		c-0.158-0.014-0.317-0.022-0.475-0.037c-0.051,0.022-0.128,0.035-0.25,0.035c-1.017,0.002-2.029,0.051-3.039,0.125
		C105.227,97.038,106.366,98.54,107.791,99.248z"/>
	<path style="fill:#FFF4C5;" d="M46.896,63.327c-3.558-0.838-5.998,2.431-6.323,5.642c-0.179,1.782,0.232,3.404,1.412,4.767
		c1.16,1.338,3.635,1.714,4.661,0.035c0.218-0.357,0.258-0.937,0-1.29c-0.526-0.717-1.305-0.947-1.899-1.507
		c-0.471-0.445-0.593-1.392-0.628-2.005c-0.112-1.937,0.659-4.161,2.777-4.476C47.501,64.403,47.449,63.457,46.896,63.327z"/>
	<path style="fill:#FFF4C5;" d="M43.868,56.006c-0.075,2.577,3.746,2.504,3.953,0c0.166-2.002,1.454-3.564,3.112-4.596
		c0.819-0.509,2.337-0.989,3.668-0.963c0.474,0.01,0.904,0.108,1.287,0.273c0.066,0.028,0.144,0.042,0.209,0.076
		c0.15,0.08,0.298,0.16,0.42,0.273c0.303,0.281,0.858-0.097,0.596-0.459c-0.174-0.241-0.314-0.458-0.445-0.663
		c-0.388-0.615-0.658-1.091-1.193-1.498c-0.03-0.021-0.058-0.044-0.088-0.065c-0.224-0.158-0.5-0.305-0.839-0.448
		c-0.035-0.015-0.064-0.031-0.102-0.045c-1.505-0.6-3.369-0.26-4.804,0.35c-2.671,1.138-4.881,3.394-5.558,6.199
		c-0.007,0.035-0.012,0.073-0.019,0.109C43.955,55.022,43.883,55.506,43.868,56.006z"/>
	<path style="fill:#FFF4C5;" d="M63.083,46.799c-0.068,0.24,0.274,0.476,0.445,0.259c1.267-1.594,4.552-2.401,6.451-2.86
		c2.335-0.565,4.335-0.488,5.246,1.819c0.737,1.864,3.135,1.488,3.38-0.457c0.037-0.292,0.039-0.566,0.023-0.83
		c-0.113-1.911-1.535-3.114-3.269-3.711c-1.358-0.468-2.906-0.564-4.17-0.338c-1.457,0.26-2.875,0.7-4.122,1.367
		c-0.888,0.476-1.684,1.073-2.35,1.802C63.984,44.657,63.413,45.627,63.083,46.799z"/>
	<path style="fill:#FFF4C5;" d="M98.45,48.582c0.553-0.405,0.873-1.073,0.57-1.897c-1.1-3.003-1.443-5.199-5.215-5.078
		c-3.571,0.115-7.61,1.895-9.215,5.169c-0.106,0.215,0.183,0.381,0.319,0.186c1.863-2.663,5.606-3.157,8.538-2.702
		c1.856,0.287,1.529,1.916,1.94,3.426c0.056,0.205,0.142,0.374,0.24,0.528C96.85,48.009,97.773,48.164,98.45,48.582z"/>
	<path style="fill:#FFF4C5;" d="M124.894,41.805c-0.977-0.659-2.315-0.976-3.95-0.845c-4.121,0.332-7.879,2.274-10.932,4.957
		c-0.095,0.083,0.034,0.252,0.136,0.176c2.091-1.537,5.828-2.017,8.366-2.346c1.36-0.176,2.776-0.216,4.094,0.195
		c1.264,0.394,0.433,2.075,0.105,2.87c-0.896,2.181,2.847,3.312,3.595,0.991c0.186-0.579,0.301-1.131,0.355-1.657
		c0.016-0.151,0.018-0.296,0.023-0.442c0.006-0.155,0.006-0.307,0.001-0.457C126.629,43.75,126.001,42.553,124.894,41.805z"/>
	<path style="fill:#FFF4C5;" d="M142.369,52.656c-2.37-1.316-5.723-0.922-7.873,0.661c-0.099,0.074-0.064,0.219,0.063,0.229
		c1.897,0.161,3.897,0.286,5.638,1.15c1.969,0.977,1.368,2.753,0.667,4.414c-0.719,1.702,2.115,2.848,2.956,1.247
		C145.229,57.681,145.293,54.279,142.369,52.656z"/>
	<path style="fill:#FFF4C5;" d="M153.157,57.555c-1.409-1-3.136-0.069-4.616,0.095c-0.185,0.021-0.185,0.266,0,0.287
		c1.092,0.121,2.321,0.554,3.263,1.129c0.77,0.47,0.366,1.965,0.346,2.66c-0.038,1.33,2.122,1.665,2.355,0.318
		C154.782,60.435,154.572,58.559,153.157,57.555z"/>
	<path style="fill:#FFF4C5;" d="M124.51,59.001c-0.121,0.014-0.127,0.192-0.015,0.2c0.365-0.085,0.727-0.166,1.088-0.245
		C125.211,58.944,124.849,58.961,124.51,59.001z"/>
	<path style="fill:#FFF4C5;" d="M156.264,73.05c0.267-0.776,0.166-1.888-0.245-2.601c-0.542-0.936-1.174-1.244-2.166-1.543
		c-0.255-0.077-0.418,0.246-0.249,0.427c0.83,0.892,0.866,2.048,0.512,3.124c-0.365,1.11-1.496,1.457-2.515,1.593
		c-0.596,0.08-0.964,0.455-1.104,0.888c0.47,0.506,0.9,1.021,1.281,1.543C153.842,76.516,155.623,74.923,156.264,73.05z"/>
	<path style="fill:#FFF4C5;" d="M165.759,78.465c-0.153-0.118-0.39-0.022-0.477,0.124c-0.822,1.375-0.678,2.972-1.852,4.226
		c-1.365,1.46-2.941,1.605-4.839,1.384c-1.746-0.203-2.125,2.727-0.414,3.058c2.635,0.509,5.607-0.256,7.28-2.469
		C166.658,83.199,167.63,79.909,165.759,78.465z"/>
	<path style="fill:#514E44;" d="M14.403,75.75c0.057,0,0.057-0.087,0-0.087C14.347,75.664,14.347,75.75,14.403,75.75z"/>
	<path style="fill:#C5D898;" d="M86.437,55.447c3.4,3.691,4.245,8.278,5.01,12.951c0.232,1.062,0.463,2.127,0.711,3.187
		c0.349-1.296,1.287-2.623,1.921-3.516c1.427-2.012,3.618-4.324,4.186-6.788c0.008-0.036,0.057-0.024,0.061,0.008
		c0.243,2.28-0.639,4.108-1.78,6.056c-1.185,2.026-2.068,3.805-2.744,6.028c-0.155,0.515-0.631,0.688-1.041,0.57
		c0.429,1.519,0.937,3.015,1.616,4.459c0.9,1.913,1.933,3.721,3.136,5.352c0.1,0.628,0.275,1.228,0.498,1.807
		c2.646-0.756,5.068-2.052,7.46-3.586c0.199-0.109,0.406-0.22,0.607-0.33c0.865-0.472,1.753-0.946,2.66-1.419
		c4.745-2.468,10.025-4.897,15.182-6.826c-0.253,0.037-0.498,0.069-0.72,0.092c-5.324,0.549-10.73-5.315-5.275-9.199
		c0.042-0.03,0.109,0.02,0.09,0.069c-2.636,6.573,8.013,8.257,11.742,4.786c1.615-1.502,1.076-2.889-0.154-3.825
		c-0.554-0.422-1.247-0.748-1.951-0.956c-0.215-0.064-0.43-0.12-0.644-0.161c-1.236-0.231-2.802-0.49-4.034-0.065
		c-0.654,0.226-1.614,1.634-1.075,2.373c0.282,0.387,1.084,0.74,1.502,0.982c0.282,0.163,0.231,0.515,0,0.689
		c-1.574,1.186-3.834,0.18-3.771-1.929c0.06-2.102,1.19-3.789,3.277-4.212c1.43-0.289,3.218-0.228,4.875,0.217
		c0.791,0.213,1.553,0.511,2.232,0.904c1.617,0.939,2.757,2.406,2.678,4.457c-0.061,1.593-1.122,2.798-2.56,3.696
		c0.246-0.071,0.488-0.138,0.73-0.205c1.976-2.298,3.467-4.856,3.982-7.599c0.976-6.345-2.929-5.369-7.809-4.881
		c-0.474,0.105-0.96,0.211-1.451,0.321c-0.361,0.08-0.723,0.16-1.088,0.245c-3.773,0.877-7.767,2.115-10.149,5.29
		c1.951-3.904,4.881-11.224-0.976-12.2c-5.369-0.488-11.225,4.392-14.641,7.808c1.137-3.411,2.565-9.761-0.279-11.516
		c-0.677-0.418-1.6-0.573-2.822-0.368c-0.257,0.044-0.521,0.097-0.802,0.172c-3.249,0.974-6.495,3.464-9.312,6.17
		C85.833,54.832,86.144,55.127,86.437,55.447z M111.092,71.719c-0.651,1.336-1.258,2.7-1.995,3.991
		c-0.844,1.481-2.247,4.39-4.248,4.363c-0.715-0.01-1.013-0.719-0.753-1.31c0.443-1.001,1.588-1.673,2.211-2.606
		c0.686-1.023,1.296-2.089,1.909-3.159c1.322-2.309,2.47-3.93,4.482-5.608c0.018-0.014,0.044,0.004,0.033,0.025
		C112.029,68.743,111.761,70.344,111.092,71.719z M109.656,55.557c0.064,0.005,0.066,0.106,0,0.103
		c-2.755-0.163-8.377,5.104-6.47,8.068c1.559,2.424,5.718,1.336,7.671,0.018c1.41-0.951,3.918-4.766,0.531-4.427
		c-1.985,0.199-2.502,1.16-2.916,2.562c-0.116,0.388-0.516,0.506-0.858,0.349c-1.581-0.724-1.152-2.697,0.027-3.642
		c1.183-0.947,2.783-1.609,4.328-1.483c4.52,0.368,3.959,5.655,1.051,7.941c-3.203,2.517-9.803,4.177-11.955-0.566
		C98.979,59.88,105.628,55.248,109.656,55.557z M93.739,51.774c0.202-0.489,0.612-0.69,0.995-1.037
		c0.066-0.061,0.179-0.003,0.154,0.09c-0.121,0.441,0.073,0.677,0.166,1.113c0.078,0.367,0.195,0.58,0.394,0.885
		c0.141,0.215,0.331,0.487,0.536,0.643c0.206,0.155,0.437,0.353,0.498,0.622c0.016,0.021,0.026,0.034,0.046,0.06
		c0.026,0.043,0.052,0.085,0.078,0.127c0.274,0.44,0.009,1.03-0.474,1.166c-0.685,0.193-1.269,0.067-1.789-0.434
		c-0.415-0.399-0.851-1.052-0.818-1.664C93.551,52.815,93.532,52.278,93.739,51.774z M89.229,53.078
		c0.581-1.448,2.026-2.136,3.364-2.749c0.047-0.021,0.089,0.048,0.042,0.072c-2.921,1.406-2.547,4.727-0.414,6.677
		c0.625,0.572,1.629,1.257,2.538,0.992c0.689-0.201,1.816-0.984,2.29,0.015c0.209,0.438,0.179,0.896-0.164,1.262
		c-2.147,2.297-5.996,0.316-7.261-1.989C88.882,56.003,88.645,54.533,89.229,53.078z"/>
	<path style="fill:#EE7E7E;" d="M123.921,73.4c-5.157,1.928-10.436,4.358-15.182,6.826c-0.908,0.472-1.796,0.947-2.66,1.419
		c-0.202,0.11-0.408,0.221-0.607,0.33c-2.392,1.533-4.814,2.829-7.46,3.586c0.107,0.274,0.224,0.545,0.354,0.808
		c1.467,2.956,4.341,5.179,6.611,6.668c2.022,1.326,3.553,2.069,3.182,2.228c0.158,0.014,0.317,0.023,0.475,0.037
		c0.988,0.082,1.973,0.14,2.957,0.179c1.2,0.047,2.395,0.074,3.581,0.062c2.215-0.022,4.391-0.151,6.503-0.359
		c0.19-0.019,0.385-0.032,0.574-0.052c3.332-0.354,7.235-0.832,11.176-1.645c6.853-1.416,13.816-3.857,18.065-8.493
		c2.866-2.839,2.289-5.769,0.289-8.511c-0.381-0.523-0.811-1.037-1.281-1.543c-0.486-0.523-1.006-1.037-1.557-1.537
		c-5.287-4.272-10.548-4.152-16.972-2.59c-0.365,0.095-0.737,0.2-1.106,0.304c-0.242,0.067-0.483,0.134-0.73,0.205
		C128.26,72.491,125.745,73.134,123.921,73.4z M135.055,90.183c-0.065,0.063-0.186-0.022-0.13-0.099
		c0.749-0.998,1.626-1.799,2.669-2.39c0.426-0.242,0.873-0.459,1.36-0.624c1.18-0.401,3.633-1.391,4.59-0.249
		c0.132,0.157,0.128,0.336,0,0.493c-0.805,0.985-2.47,0.385-3.613,0.507c-0.734,0.078-1.415,0.244-2.053,0.494
		C136.839,88.72,135.912,89.347,135.055,90.183z M146.08,78.619c0.262,0.068,0.444,0.317,0.445,0.583c0,0.127,0,0.255,0,0.382
		c0.001,0.453-0.332,0.975-0.805,1.058c-3.129,0.547-4.812,3.268-8.157,3.243c-3.81-0.029-4.886,1.671-7.441,3.822
		c-0.754,0.635-2.2,1.544-3.242,1.526c-2.163-0.038-4.563-1.733-6.229,0.495c-0.5,0.667-1.075,1.575-1.858,1.933
		c-3.524,1.612-5.555-0.659-9.138-0.967c-0.136-0.011-0.179-0.169-0.068-0.248c1.109-0.793,2.05-1.123,3.441-0.817
		c2.89,0.638,4.599-0.027,6.13-2.411c1.535-2.387,4.663-2.568,7.017-1.555c1.838,0.79,4.548-2.774,6.051-3.749
		c1.557-1.012,3.62-0.556,5.337-0.624C141.009,81.154,142.351,77.66,146.08,78.619z M136.951,75.692
		c1.462-0.662,2.549-1.146,4.163-1.197c0.35-0.011,0.443,0.456,0.171,0.63c-2.226,1.428-7.505,4.693-10.411,3.894
		c-0.927-0.255-1.951-1.36-3.024-0.547c-0.554,0.42-1.108,0.84-1.662,1.26c-1.109,0.557-2.17,0.831-3.424,0.967
		c-2.377,0.258-3.147,0.732-4.704,2.58c-0.391,0.464-0.916,1.285-1.566,1.479c-1.26,0.375-2.616,0.15-3.898,0.476
		c-1.727,0.438-3.305,1.572-4.616,2.78c-0.099,0.091-0.229-0.045-0.145-0.145c1.941-2.294,2.47-3.69,5.752-4.059
		c3.272-0.367,3.728-3.12,6.5-4.102c2.132-0.754,4.282-0.213,6.284-1.715c0.566-0.426,1.435-1.297,2.24-1.152
		C131.78,77.41,134.023,77.018,136.951,75.692z"/>
	<path style="fill:#FFA87D;" d="M72.363,91.232c0.48,0.227,0.979,0.432,1.47,0.647c1.386,0.608,2.798,1.184,4.244,1.695
		c0.162,0.292,0.337,0.581,0.523,0.866c0.012,0.018,0.021,0.038,0.033,0.055c0.131-0.217,0.268-0.406,0.406-0.592
		c2.647,0.888,5.349,1.613,8.018,2.142c6.006,1.19,11.859-0.187,17.812-0.62c1.01-0.074,2.022-0.123,3.039-0.125
		c0.122,0,0.2-0.014,0.25-0.035c0.371-0.159-1.16-0.902-3.182-2.228c-2.27-1.489-5.144-3.712-6.611-6.668
		c-0.13-0.263-0.246-0.534-0.354-0.808c-0.223-0.578-0.399-1.178-0.498-1.807c-1.202-1.631-2.235-3.44-3.136-5.352
		c-0.679-1.445-1.187-2.94-1.616-4.459c-0.26-0.075-0.495-0.266-0.603-0.57c-0.2-0.555-0.167-1.168,0-1.787
		c-0.248-1.06-0.479-2.125-0.711-3.187c-0.765-4.672-1.61-9.26-5.01-12.951c-0.293-0.32-0.603-0.615-0.924-0.891
		c-2.095-1.811-4.701-2.707-7.412-2.903c-6.566-1.506-14.099,0.493-18.098,6.104c-3.387,4.752-6.025,10.741-3.508,16.474
		c0.021,0.049,0.046,0.096,0.069,0.146c0.624,4.546,3.242,8.207,6.672,11.144c1.193,1.022,2.482,1.957,3.82,2.81
		C68.78,89.426,70.584,90.388,72.363,91.232z M88.457,79.078c0.154,0.243-0.187,0.484-0.387,0.298
		c-4.017-3.75-7.202-10.231-3.365-15.074c0.044-0.055,0.133,0.017,0.097,0.075C82.067,68.855,86.054,75.279,88.457,79.078z
		 M79.497,57.79c0.001-0.007,0.004,0.001,0.009,0.002c0.006,0.002,0.013-0.004,0.01,0.003c-1.805,5.769-1.586,15.492,1.861,20.718
		c2.123,3.216,5.031,5.616,8.099,7.839c1.495,1.085,3.027,2.131,4.527,3.203c0.159,0.115,0.023,0.358-0.155,0.266
		c-1.773-0.918-3.752-1.917-5.68-3.059c-3.614-2.138-7.064-4.785-8.71-8.404C76.359,71.552,77.166,64.601,79.497,57.79z
		 M75.976,52.95c0.039-0.048,0.104,0.013,0.079,0.062c-3.412,7.16-3.705,17.432,0.794,24.275c2.665,4.054,5.788,7.374,9.38,10.082
		c0.167,0.127,0.339,0.25,0.51,0.374c0.489,0.356,0.984,0.701,1.49,1.034c1.372,0.908,2.804,1.739,4.302,2.494
		c1.198,0.604,2.44,1.159,3.719,1.673c0.229,0.091,0.452,0.186,0.683,0.274c0.606,0.233,1.22,0.459,1.845,0.673
		c0.214,0.074,0.128,0.378-0.093,0.337c-0.689-0.134-1.382-0.29-2.075-0.462c-3.769-0.933-7.56-2.439-11.015-4.488
		c-5.118-3.038-9.498-7.262-11.963-12.588C70.328,69.547,70.892,59.136,75.976,52.95z M68.535,57.342
		c0.022-0.061,0.121-0.035,0.097,0.027c-5.144,14.037,4.296,29.368,17.174,35.168c1.104,0.497,2.23,0.933,3.378,1.283
		c0.255,0.078,0.221,0.519-0.064,0.483c-0.766-0.096-1.519-0.236-2.267-0.397c-7.361-1.584-13.699-6.248-17.259-13.085
		C65.547,73.058,65.475,65.419,68.535,57.342z M62.318,74.12c-0.862-4.685,1.154-8.658,1.012-13.269c0-0.007,0.006,0,0.009,0
		c0.006,0,0.011-0.006,0.011,0c0.006,0.108,0.006,0.219,0.011,0.328c0.033,0.916-0.01,1.877-0.086,2.862
		c-0.26,3.306-0.851,6.86,0.212,9.758c0.93,2.533,2.163,4.923,3.497,7.262c0.347,0.609,0.701,1.215,1.059,1.818
		c0.813,1.369,1.645,2.728,2.456,4.091c0.113,0.189-0.152,0.397-0.306,0.236c-0.998-1.043-2.014-2.184-2.975-3.396
		c-0.554-0.701-1.088-1.425-1.59-2.171C64.056,79.305,62.804,76.764,62.318,74.12z"/>
	<path style="fill:#AEC470;" d="M132.692,67.624c0.079-2.051-1.061-3.517-2.678-4.457c-0.679-0.393-1.441-0.692-2.232-0.904
		c-1.657-0.445-3.445-0.506-4.875-0.217c-2.087,0.423-3.217,2.11-3.277,4.212c-0.063,2.109,2.197,3.115,3.771,1.929
		c0.231-0.174,0.282-0.526,0-0.689c-0.418-0.243-1.219-0.595-1.502-0.982c-0.539-0.739,0.421-2.147,1.075-2.373
		c1.232-0.425,2.798-0.166,4.034,0.065c0.214,0.04,0.429,0.097,0.644,0.161c0.704,0.208,1.397,0.534,1.951,0.956
		c1.229,0.937,1.768,2.323,0.154,3.825c-3.729,3.471-14.378,1.787-11.742-4.786c0.019-0.049-0.047-0.099-0.09-0.069
		c-5.455,3.883-0.049,9.748,5.275,9.199c0.222-0.023,0.467-0.055,0.72-0.092c1.825-0.266,4.339-0.909,6.211-2.08
		C131.57,70.422,132.631,69.217,132.692,67.624z"/>
	<path style="fill:#AEC470;" d="M113.02,65.045c2.908-2.286,3.469-7.574-1.051-7.941c-1.545-0.126-3.145,0.536-4.328,1.483
		c-1.179,0.945-1.608,2.918-0.027,3.642c0.342,0.157,0.742,0.039,0.858-0.349c0.414-1.402,0.931-2.363,2.916-2.562
		c3.386-0.339,0.878,3.475-0.531,4.427c-1.952,1.318-6.112,2.406-7.671-0.018c-1.907-2.964,3.716-8.231,6.47-8.068
		c0.066,0.003,0.064-0.098,0-0.103c-4.028-0.309-10.677,4.323-8.59,8.922C103.216,69.223,109.817,67.562,113.02,65.045z"/>
	<path style="fill:#AEC470;" d="M96.887,59.346c0.343-0.366,0.373-0.824,0.164-1.262c-0.474-0.998-1.602-0.216-2.29-0.015
		c-0.909,0.265-1.913-0.419-2.538-0.992c-2.134-1.95-2.507-5.271,0.414-6.677c0.046-0.023,0.005-0.093-0.042-0.072
		c-1.339,0.613-2.783,1.301-3.364,2.749c-0.584,1.455-0.347,2.925,0.396,4.28C90.89,59.662,94.74,61.643,96.887,59.346z"/>
	<path style="fill:#AEC470;" d="M96.132,55.444c0.483-0.136,0.747-0.726,0.474-1.166c-0.026-0.042-0.052-0.084-0.078-0.127
		c-0.02-0.026-0.03-0.039-0.046-0.06c-0.061-0.27-0.293-0.467-0.498-0.622c-0.205-0.155-0.395-0.427-0.536-0.643
		c-0.198-0.305-0.316-0.518-0.394-0.885c-0.094-0.436-0.288-0.672-0.166-1.113c0.026-0.093-0.087-0.151-0.154-0.09
		c-0.383,0.347-0.793,0.549-0.995,1.037c-0.207,0.504-0.188,1.041-0.214,1.572c-0.033,0.612,0.403,1.265,0.818,1.664
		C94.864,55.511,95.447,55.637,96.132,55.444z"/>
	<path style="fill:#AEC470;" d="M93.802,73.372c0.677-2.222,1.56-4.001,2.744-6.028c1.141-1.948,2.022-3.776,1.78-6.056
		c-0.004-0.032-0.053-0.044-0.061-0.008c-0.568,2.464-2.758,4.776-4.186,6.788c-0.634,0.894-1.572,2.22-1.921,3.516
		c-0.167,0.619-0.2,1.232,0,1.787c0.108,0.304,0.343,0.495,0.603,0.57C93.171,74.06,93.646,73.887,93.802,73.372z"/>
	<path style="fill:#AEC470;" d="M112.698,67.39c-2.012,1.677-3.16,3.299-4.482,5.608c-0.613,1.07-1.223,2.135-1.909,3.159
		c-0.624,0.933-1.768,1.604-2.211,2.606c-0.26,0.591,0.039,1.3,0.753,1.31c2.002,0.027,3.404-2.882,4.248-4.363
		c0.737-1.291,1.344-2.655,1.995-3.991c0.67-1.375,0.937-2.975,1.64-4.303C112.742,67.394,112.716,67.376,112.698,67.39z"/>
	<path style="fill:#F29064;" d="M85.595,89.277c3.455,2.049,7.246,3.555,11.015,4.488c0.693,0.172,1.386,0.328,2.075,0.462
		c0.22,0.041,0.306-0.263,0.093-0.337c-0.625-0.214-1.24-0.44-1.845-0.673c-0.231-0.088-0.454-0.183-0.683-0.274
		c-1.279-0.513-2.521-1.069-3.719-1.673c-1.498-0.755-2.93-1.585-4.302-2.494c-0.505-0.334-1.001-0.678-1.49-1.034
		c-0.172-0.124-0.343-0.247-0.51-0.374c-3.592-2.708-6.715-6.028-9.38-10.082c-4.498-6.843-4.206-17.114-0.794-24.275
		c0.025-0.049-0.04-0.11-0.079-0.062c-5.084,6.186-5.648,16.597-2.343,23.738C76.097,82.014,80.477,86.239,85.595,89.277z"/>
	<path style="fill:#F29064;" d="M88.167,86.763c1.929,1.142,3.908,2.14,5.68,3.059c0.178,0.093,0.315-0.151,0.155-0.266
		c-1.501-1.072-3.033-2.118-4.527-3.203c-3.068-2.224-5.976-4.623-8.099-7.839c-3.448-5.226-3.666-14.949-1.861-20.718
		c0.003-0.006-0.004-0.001-0.01-0.003c-0.005-0.001-0.008-0.009-0.009-0.002c-2.331,6.811-3.138,13.762-0.039,20.568
		C81.103,81.977,84.553,84.625,88.167,86.763z"/>
	<path style="fill:#F29064;" d="M86.852,93.907c0.747,0.161,1.501,0.301,2.267,0.397c0.285,0.035,0.319-0.406,0.064-0.483
		c-1.147-0.351-2.273-0.786-3.378-1.283c-12.878-5.8-22.318-21.131-17.174-35.168c0.025-0.063-0.075-0.088-0.097-0.027
		c-3.059,8.077-2.987,15.716,1.058,23.48C73.153,87.659,79.491,92.323,86.852,93.907z"/>
	<path style="fill:#F29064;" d="M70.193,87.204c0.154,0.161,0.42-0.046,0.306-0.236c-0.811-1.363-1.643-2.722-2.456-4.091
		c-0.358-0.603-0.712-1.209-1.059-1.818c-1.334-2.339-2.567-4.729-3.497-7.262c-1.063-2.897-0.472-6.452-0.212-9.758
		c0.076-0.985,0.119-1.945,0.086-2.862c-0.004-0.109-0.004-0.22-0.011-0.328c0-0.006-0.006,0-0.011,0c-0.004,0-0.009-0.007-0.009,0
		c0.142,4.612-1.873,8.584-1.012,13.269c0.486,2.644,1.739,5.185,3.31,7.517c0.502,0.746,1.036,1.47,1.59,2.171
		C68.179,85.02,69.195,86.161,70.193,87.204z"/>
	<path style="fill:#F29064;" d="M84.803,64.378c0.035-0.058-0.053-0.13-0.097-0.075c-3.837,4.843-0.652,11.323,3.365,15.074
		c0.2,0.186,0.54-0.055,0.387-0.298C86.054,75.279,82.067,68.855,84.803,64.378z"/>
	<path style="fill:#D65151;" d="M132.226,81.915c-1.504,0.975-4.213,4.539-6.051,3.749c-2.354-1.013-5.483-0.833-7.017,1.555
		c-1.53,2.384-3.239,3.049-6.13,2.411c-1.391-0.306-2.331,0.025-3.441,0.817c-0.111,0.079-0.068,0.237,0.068,0.248
		c3.582,0.308,5.613,2.579,9.138,0.967c0.783-0.358,1.358-1.266,1.858-1.933c1.667-2.228,4.067-0.533,6.229-0.495
		c1.042,0.018,2.487-0.891,3.242-1.526c2.556-2.151,3.632-3.852,7.441-3.822c3.345,0.025,5.028-2.696,8.157-3.243
		c0.473-0.083,0.806-0.606,0.805-1.058c0-0.127,0-0.255,0-0.382c-0.002-0.266-0.184-0.515-0.445-0.583
		c-3.729-0.959-5.071,2.535-8.516,2.672C135.846,81.36,133.784,80.903,132.226,81.915z"/>
	<path style="fill:#D65151;" d="M128.611,76.841c-0.805-0.145-1.674,0.726-2.24,1.152c-2.002,1.502-4.151,0.96-6.284,1.715
		c-2.772,0.982-3.228,3.735-6.5,4.102c-3.282,0.369-3.811,1.765-5.752,4.059c-0.084,0.1,0.046,0.236,0.145,0.145
		c1.311-1.208,2.889-2.342,4.616-2.78c1.283-0.326,2.638-0.101,3.898-0.476c0.649-0.194,1.175-1.016,1.566-1.479
		c1.557-1.849,2.327-2.322,4.704-2.58c1.254-0.136,2.315-0.409,3.424-0.967c0.554-0.42,1.108-0.84,1.662-1.26
		c1.073-0.813,2.097,0.293,3.024,0.547c2.906,0.799,8.184-2.466,10.411-3.894c0.272-0.174,0.179-0.641-0.171-0.63
		c-1.615,0.051-2.702,0.536-4.163,1.197C134.023,77.018,131.78,77.41,128.611,76.841z"/>
	<path style="fill:#D65151;" d="M143.545,87.313c0.128-0.157,0.132-0.336,0-0.493c-0.957-1.142-3.41-0.152-4.59,0.249
		c-0.487,0.166-0.934,0.383-1.36,0.624c-1.043,0.591-1.919,1.392-2.669,2.39c-0.057,0.077,0.064,0.162,0.13,0.099
		c0.857-0.836,1.784-1.464,2.823-1.869c0.638-0.25,1.319-0.416,2.053-0.494C141.075,87.699,142.74,88.298,143.545,87.313z"/>
	<path style="fill:#514E44;" d="M48.228,119.516c3.133,1.356,6.834,0.617,10.121,0.742c4.84,0.186,9.913,2.614,14.453,4.134
		c4.244,1.422,8.225,0.619,12.456-0.365c0.3-0.071,0.224-0.517-0.071-0.523c-7.591-0.15-15.146-2.835-22.521-4.422
		c-3.125-0.674-6.27-0.344-9.429-0.347c-4.56-0.005-7.224-2.228-9.654-5.905c-0.64-0.968-2.214-0.048-1.558,0.91
		C43.697,116.175,45.464,118.318,48.228,119.516z"/>
	<path style="fill:#514E44;" d="M158.905,121.809c-5.324,2.843-10.995,1.842-16.65,3.093c-6.542,1.447-13.072,2.834-19.712,3.748
		c-3.687,0.507-6.33,1.183-10.08,0.121c-2.603-0.737-5.111-1.686-7.763-2.25c-5.803-1.238-10.901-3.055-16.89-2.803
		c-0.067,0.003-0.068,0.104,0,0.102c3.329-0.078,6.593,1.264,9.731,2.192c3.146,0.929,6.391,1.368,9.512,2.355
		c5.188,1.641,9.131,3.103,14.632,2.158c7.046-1.212,14.046-2.322,20.911-4.393c5.807-1.753,11.275-0.373,16.558-3.898
		C159.414,122.059,159.185,121.659,158.905,121.809z"/>
	<path style="fill:#514E44;" d="M158.591,131.99c-9.589,0.274-19.247,2.829-28.729,4.258c-5.545,0.835-10.966,1.813-16.593,1.739
		c-6.162-0.08-10.816-1.826-16.104-4.813c-8.457-4.776-19.31-3.396-28.533-2.229c-5.776,0.73-10.261-1.425-15.14-4.137
		c-4.891-2.717-10.479-4.663-13.829-9.362c-0.26-0.364-0.882-0.155-0.749,0.316c1.024,3.639,4.71,5.785,7.779,7.628
		c4.18,2.511,8.635,5.057,13.303,6.511c4.475,1.395,10.291,1.136,14.914,0.867c6.394-0.37,12.938-1.044,19.062,1.265
		c4.489,1.693,8.441,4.364,13.202,5.293c4.817,0.94,10.157,0.542,14.971-0.187c6.109-0.925,12.223-2.062,18.324-3.074
		c6.041-1.005,11.991-3.686,18.122-3.912C158.696,132.15,158.697,131.986,158.591,131.99z"/>
	<path style="fill:#514E44;" d="M111.839,147.566c-10.886-1.197-21.846-2.156-32.684-3.835c-5.061-0.782-9.709-3.135-14.767-3.987
		c-4.953-0.833-9.477-3.002-14.592-2.412c-0.527,0.061-0.554,0.819,0,0.839c5.426,0.202,10.45,2.207,15.767,3.081
		c5.038,0.825,9.943,2.329,14.992,3.089c5.147,0.775,10.285,1.274,15.402,2.266c5.098,0.987,10.716,1.865,15.882,1.43
		C112.145,148.012,112.14,147.6,111.839,147.566z"/>
	<path style="fill:#514E44;" d="M144.631,145.258c9.17-1.433,18.543-2.277,26.583-6.94l0.022-0.527l0.024-0.542
		c-8.342,3.782-17.891,5.884-26.674,7.851C144.483,145.124,144.529,145.274,144.631,145.258z"/>
	<path style="fill:#514E44;" d="M104.032,155.895c-0.267-0.042-0.389,0.344-0.114,0.414c13.729,3.587,27.581,1.533,41.218-1.437
		c9.088-1.978,17.517-5.117,25.749-8.939l0.019-0.433l0.018-0.392c-8.096,3.102-16.622,5.427-24.856,7.317
		C132.441,155.553,117.971,158.113,104.032,155.895z"/>
</g>
</svg>
