<?xml version="1.0" encoding="iso-8859-1"?>
<!-- Generator: Adobe Illustrator 21.1.0, SVG Export Plug-In . SVG Version: 6.00 Build 0)  -->
<svg version="1.1" id="Layer_1" xmlns="http://www.w3.org/2000/svg" xmlns:xlink="http://www.w3.org/1999/xlink" x="0px" y="0px"
	 viewBox="0 0 200 200" style="enable-background:new 0 0 200 200;" xml:space="preserve">
<g>
	<linearGradient id="SVGID_1_" gradientUnits="userSpaceOnUse" x1="109.5024" y1="154.8754" x2="109.5024" y2="4.3019">
		<stop  offset="0" style="stop-color:#808080"/>
		<stop  offset="1" style="stop-color:#000000"/>
	</linearGradient>
	<path style="fill:url(#SVGID_1_);" d="M191.887,83.105c-13.721-9.022-37.177,0.718-50.526-6.172
		c-12.493-6.448,4.122-26.699,14.419-41.196c8.935-12.486,11.473-5.318,17.62-9.346c3.01-1.972,2.03-10.085-1.588-13.771
		c1.008-2.925,0.883-5.604-0.881-8.318c-2.93,0.426-5.724,1.022-8.393,1.762c-6.174-1.543-13.037-1.711-22.635,1.988
		c-9.714,3.744-0.545,8.667-6.274,14.914c-0.282,0.275-0.561,0.551-0.837,0.829c-0.027,0.024-0.049,0.048-0.076,0.072l0.003,0.002
		c-15.83,15.96-22.174,35.938-24.946,38.709c0,0-2.628,1.829-10.191-0.144c-13.205-3.445-2.873-21.103-6.175-39.046
		c-2.994-16.269-24.542-6.743-15.499,4.309c-0.861-16.507,16.238-9.638,10.478,10.909c-5.311,18.948,0.287,30.143,21.1,31.292
		c0,0-10.191,2.803-27.416-1.79c-19.985-5.329-39.761-9.119-42.919,6.957C53.822,54.51,69.4,76.203,96.404,76.966
		c-21.241,6.376-65.974,9.566-76.334,35.708c6.603,1.005,10.51-4.476,12.057-10.191c23.52-17.986,58.104-7.706,76.641-26.089
		c-4.469,18.294-18.246,17.004-33.292,26.089c-15.033,9.076-20.113,32.302,1.78,36.042c-9.22-1.967-15.937-20.723,0.805-32.024
		c17.225-11.627,31.148-1.722,36.89-25.119c2.584,15.79-9.474,34.88-9.474,50.239c0,15.359,20.67,25.406,33.158,15.502
		c-22.105,5.885-32.514-9.617-26.198-27.99c3.275-9.529,6.983-14.732,9.018-22.273c3.939,20.793,20.896,57.145,53.495,58.016
		c0-5.311-7.321-8.325-12.344-6.172c-11.871-6.55-36.192-31.908-36.346-62.881c2.86,3.147,8.125,7.327,17.829,12.21
		c25.523,12.845,30.287,28.421,30.287,42.489c9.087-30.867-24.865-44.071-40.831-58.687c7.361,5.611,20.272,5.699,39.827,2.994
		c22.823-3.158,23.397,11.914,24.688,20.813C198.058,105.641,202.365,89.995,191.887,83.105z M127.738,60.764
		c4.806-2.232,9.098-3.433,10.814-7.037C136.493,61.451,131,66.256,127.738,60.764z"/>
	<linearGradient id="SVGID_2_" gradientUnits="userSpaceOnUse" x1="119.193" y1="160.6534" x2="119.193" y2="199.3913">
		<stop  offset="0" style="stop-color:#231F20"/>
		<stop  offset="0.0896" style="stop-color:#231F20;stop-opacity:0.9104"/>
		<stop  offset="1" style="stop-color:#231F20;stop-opacity:0"/>
	</linearGradient>
	<path style="opacity:0.4;fill:url(#SVGID_2_);" d="M138.633,168.406c-12.488-9.904-33.158,0.144-33.158,15.503
		c0,4.861,1.209,10.097,2.778,15.483h5.279c-0.369-0.955-0.736-1.945-1.097-2.996C106.12,178.023,116.528,162.52,138.633,168.406z
		 M63.935,199.391h5.576c-4.624-10.094,0.861-20.918,7.744-22.387C63.204,179.404,60.265,189.83,63.935,199.391z M174.949,160.653
		c-23.781,0.636-39.236,20.153-47.388,38.738h6.383c8.191-16.311,21.01-28.345,28.66-32.566
		C167.628,168.979,174.949,165.964,174.949,160.653z M174.375,175.008c0,7.902-1.504,16.28-7.346,24.383h5.097
		C175.845,192.604,177.22,184.672,174.375,175.008z"/>
</g>
</svg>
