<?xml version="1.0" encoding="iso-8859-1"?>
<!-- Generator: Adobe Illustrator 21.1.0, SVG Export Plug-In . SVG Version: 6.00 Build 0)  -->
<svg version="1.1" id="Layer_1" xmlns="http://www.w3.org/2000/svg" xmlns:xlink="http://www.w3.org/1999/xlink" x="0px" y="0px"
	 viewBox="0 0 200 200" style="enable-background:new 0 0 200 200;" xml:space="preserve">
<g>
	<g>
		<circle style="fill-rule:evenodd;clip-rule:evenodd;fill:#A1B83B;" cx="100" cy="100" r="100"/>
		<circle style="fill-rule:evenodd;clip-rule:evenodd;fill:#FFFFFF;" cx="100" cy="100" r="87.267"/>
		<circle style="fill-rule:evenodd;clip-rule:evenodd;fill:#B2C35E;" cx="100" cy="100" r="82.882"/>
	</g>
	<g>
		<g>
			<path style="fill-rule:evenodd;clip-rule:evenodd;fill:#FFFFFF;" d="M94.095,63.727c0-9.65-11.235-17.475-25.094-17.475l0,0
				c-13.858,0-25.094,7.825-25.094,17.475v61.295c0,9.65,11.235,17.475,25.094,17.475l0,0c13.858,0,25.094-7.825,25.094-17.475
				V63.727z"/>
			<g>
				<defs>
					<path id="SVGID_1_" d="M88.56,60.071c0-10.802-8.757-19.559-19.559-19.559l0,0c-10.802,0-19.559,8.757-19.559,19.559v68.608
						c0,10.802,8.757,19.557,19.559,19.557l0,0c10.802,0,19.559-8.755,19.559-19.557V60.071z"/>
				</defs>
				<clipPath id="SVGID_2_">
					<use xlink:href="#SVGID_1_"  style="overflow:visible;"/>
				</clipPath>
				<path style="clip-path:url(#SVGID_2_);fill-rule:evenodd;clip-rule:evenodd;fill:#F48164;" d="M88.56,60.071
					c0-10.802-8.757-19.559-19.559-19.559l0,0c-10.802,0-19.559,8.757-19.559,19.559v68.608c0,10.802,8.757,19.557,19.559,19.557
					l0,0c10.802,0,19.559-8.755,19.559-19.557V60.071z"/>
				<g style="clip-path:url(#SVGID_2_);">
					
						<rect x="-5.649" y="70.148" transform="matrix(0.6188 -0.7855 0.7855 0.6188 -40.9524 59.0859)" style="fill-rule:evenodd;clip-rule:evenodd;fill:#F16447;" width="92.109" height="3.183"/>
					
						<rect x="0.707" y="75.155" transform="matrix(0.6185 -0.7857 0.7857 0.6185 -42.4659 66.018)" style="fill-rule:evenodd;clip-rule:evenodd;fill:#F16447;" width="92.109" height="3.183"/>
					
						<rect x="7.063" y="80.161" transform="matrix(0.6188 -0.7855 0.7855 0.6188 -43.9718 72.8861)" style="fill-rule:evenodd;clip-rule:evenodd;fill:#F16447;" width="92.109" height="3.183"/>
					
						<rect x="13.419" y="85.167" transform="matrix(0.6188 -0.7855 0.7855 0.6188 -45.4817 79.7865)" style="fill-rule:evenodd;clip-rule:evenodd;fill:#F16447;" width="92.109" height="3.184"/>
					
						<rect x="19.776" y="90.173" transform="matrix(0.6186 -0.7857 0.7857 0.6186 -46.993 86.7287)" style="fill-rule:evenodd;clip-rule:evenodd;fill:#F16447;" width="92.108" height="3.183"/>
					
						<rect x="26.119" y="95.393" transform="matrix(0.6188 -0.7855 0.7855 0.6188 -48.6731 93.6608)" style="fill-rule:evenodd;clip-rule:evenodd;fill:#F16447;" width="92.11" height="3.183"/>
					
						<rect x="32.474" y="100.399" transform="matrix(0.6186 -0.7857 0.7857 0.6186 -50.1836 100.6066)" style="fill-rule:evenodd;clip-rule:evenodd;fill:#F16447;" width="92.11" height="3.183"/>
					
						<rect x="38.83" y="105.405" transform="matrix(0.6188 -0.7855 0.7855 0.6188 -51.6928 107.464)" style="fill-rule:evenodd;clip-rule:evenodd;fill:#F16447;" width="92.109" height="3.183"/>
					
						<rect x="45.186" y="110.41" transform="matrix(0.6188 -0.7855 0.7855 0.6188 -53.2024 114.3672)" style="fill-rule:evenodd;clip-rule:evenodd;fill:#F16447;" width="92.109" height="3.184"/>
					
						<rect x="51.542" y="115.417" transform="matrix(0.6186 -0.7857 0.7857 0.6186 -54.7106 121.3169)" style="fill-rule:evenodd;clip-rule:evenodd;fill:#F16447;" width="92.109" height="3.183"/>
				</g>
			</g>
		</g>
		<path style="fill-rule:evenodd;clip-rule:evenodd;fill:#11110E;" d="M97.749,101.44c0,1.757-1.424,3.183-3.183,3.183H43.435
			c-1.757,0-3.183-1.425-3.183-3.183V87.308c0-1.757,1.425-3.183,3.183-3.183h51.131c1.759,0,3.183,1.425,3.183,3.183V101.44z"/>
	</g>
	<g>
		<g>
			<path style="fill-rule:evenodd;clip-rule:evenodd;fill:#FFFFFF;" d="M152.632,58.862c-2.174-9.403-14.884-14.495-28.385-11.373
				l0,0c-13.503,3.123-22.686,13.278-20.512,22.679l13.81,59.719c2.174,9.401,14.884,14.493,28.385,11.372l0,0
				c13.503-3.122,22.686-13.276,20.512-22.679L152.632,58.862z"/>
			<g>
				<defs>
					<path id="SVGID_3_" d="M146.416,56.546c-2.434-10.524-12.939-17.083-23.463-14.649l0,0
						c-10.524,2.433-17.083,12.937-14.649,23.461l15.457,66.844c2.434,10.525,12.937,17.083,23.461,14.65l0,0
						c10.524-2.434,17.083-12.939,14.649-23.463L146.416,56.546z"/>
				</defs>
				<clipPath id="SVGID_4_">
					<use xlink:href="#SVGID_3_"  style="overflow:visible;"/>
				</clipPath>
				<path style="clip-path:url(#SVGID_4_);fill-rule:evenodd;clip-rule:evenodd;fill:#F48164;" d="M146.416,56.546
					c-2.434-10.524-12.939-17.083-23.463-14.649l0,0c-10.524,2.433-17.083,12.937-14.649,23.461l15.457,66.844
					c2.434,10.525,12.937,17.083,23.461,14.65l0,0c10.524-2.434,17.083-12.939,14.649-23.463L146.416,56.546z"/>
				<g style="clip-path:url(#SVGID_4_);">
					
						<rect x="56.075" y="77.173" transform="matrix(0.4258 -0.9048 0.9048 0.4258 -12.6251 137.6345)" style="fill-rule:evenodd;clip-rule:evenodd;fill:#F16447;" width="92.11" height="3.184"/>
					
						<rect x="63.395" y="80.619" transform="matrix(0.4254 -0.905 0.905 0.4254 -11.514 146.2851)" style="fill-rule:evenodd;clip-rule:evenodd;fill:#F16447;" width="92.109" height="3.183"/>
					
						<rect x="70.715" y="84.064" transform="matrix(0.4258 -0.9048 0.9048 0.4258 -10.4543 154.8362)" style="fill-rule:evenodd;clip-rule:evenodd;fill:#F16447;" width="92.109" height="3.183"/>
					
						<rect x="78.035" y="87.51" transform="matrix(0.426 -0.9047 0.9047 0.426 -9.383 163.4145)" style="fill-rule:evenodd;clip-rule:evenodd;fill:#F16447;" width="92.109" height="3.183"/>
					
						<rect x="85.356" y="90.954" transform="matrix(0.426 -0.9047 0.9047 0.426 -8.2956 172.0166)" style="fill-rule:evenodd;clip-rule:evenodd;fill:#F16447;" width="92.109" height="3.183"/>
					
						<rect x="92.712" y="94.611" transform="matrix(0.4256 -0.9049 0.9049 0.4256 -7.347 180.8302)" style="fill-rule:evenodd;clip-rule:evenodd;fill:#F16447;" width="92.11" height="3.183"/>
					
						<rect x="100.033" y="98.056" transform="matrix(0.4256 -0.9049 0.9049 0.4256 -6.2607 189.4317)" style="fill-rule:evenodd;clip-rule:evenodd;fill:#F16447;" width="92.109" height="3.183"/>
					
						<rect x="107.352" y="101.501" transform="matrix(0.4263 -0.9046 0.9046 0.4263 -5.2489 197.9095)" style="fill-rule:evenodd;clip-rule:evenodd;fill:#F16447;" width="92.11" height="3.183"/>
					
						<rect x="114.673" y="104.947" transform="matrix(0.426 -0.9047 0.9047 0.426 -4.1273 206.5725)" style="fill-rule:evenodd;clip-rule:evenodd;fill:#F16447;" width="92.108" height="3.183"/>
					
						<rect x="121.993" y="108.392" transform="matrix(0.426 -0.9047 0.9047 0.426 -3.0425 215.1718)" style="fill-rule:evenodd;clip-rule:evenodd;fill:#F16447;" width="92.11" height="3.183"/>
				</g>
			</g>
		</g>
		<path style="fill-rule:evenodd;clip-rule:evenodd;fill:#11110E;" d="M164.689,94.781c0.396,1.713-0.672,3.423-2.384,3.819
			l-49.816,11.519c-1.713,0.396-3.422-0.671-3.818-2.383l-3.184-13.769c-0.396-1.713,0.671-3.422,2.384-3.818l49.816-11.52
			c1.713-0.396,3.422,0.671,3.818,2.384L164.689,94.781z"/>
	</g>
</g>
</svg>
