<?xml version="1.0" encoding="iso-8859-1"?>
<!-- Generator: Adobe Illustrator 21.1.0, SVG Export Plug-In . SVG Version: 6.00 Build 0)  -->
<svg version="1.1" id="Layer_1" xmlns="http://www.w3.org/2000/svg" xmlns:xlink="http://www.w3.org/1999/xlink" x="0px" y="0px"
	 viewBox="0 0 200 200" style="enable-background:new 0 0 200 200;" xml:space="preserve">
<rect x="-4" style="fill:#751217;" width="204" height="200"/>
<g>
	
		<image style="overflow:visible;opacity:0.74;" width="90" height="67" xlink:href="765DF365.png"  transform="matrix(1 0 0 1 58 31)">
	</image>
	<g>
		<rect x="59.564" y="34.95" style="fill:#F9F9F9;" width="77.265" height="53.8"/>
	</g>
</g>
<g>
	<g>
		<path style="fill:#231F20;" d="M95.616,82.329c0-1.58,0.801-3.281,2.298-4.778c0.647-0.647,1.618-1.133,2.647-1.648
			c2.589-1.295,4.094-2.241,3.172-4.438c-0.092-0.219,0.011-0.47,0.23-0.562c0.219-0.092,0.47,0.011,0.562,0.23
			c1.3,3.097-1.405,4.451-3.579,5.538c-0.964,0.482-1.875,0.938-2.424,1.487c-2.59,2.59-2.06,4.776-1.835,5.385
			c0.083,0.226,0.194,0.29,0.28,0.321c0.891,0.315,3.869-1.461,6.497-3.028c2.302-1.373,3.935-3.63,4.479-6.191
			c0.477-2.242,0.059-4.441-1.176-6.191c-0.137-0.194-0.09-0.462,0.103-0.598c0.194-0.137,0.462-0.09,0.598,0.103
			c1.374,1.948,1.841,4.386,1.314,6.865c-0.594,2.794-2.372,5.255-4.879,6.75c-4.138,2.468-6.072,3.507-7.223,3.1
			c-0.376-0.133-0.645-0.413-0.799-0.834C95.703,83.357,95.616,82.849,95.616,82.329z"/>
	</g>
	<g>
		<path style="fill:#231F20;" d="M75.593,68.907c0-0.665,0.245-1.241,0.63-1.654c0.881-0.941,2.745-1.248,4.757,0.302
			c2.067,1.591,5.303,1.331,7.214-0.58c0.168-0.168,0.439-0.168,0.607,0c0.168,0.168,0.168,0.439,0,0.607
			c-2.205,2.205-5.948,2.498-8.345,0.653c-1.587-1.222-2.982-1.062-3.607-0.395c-0.675,0.722-0.497,1.886,0.455,2.967
			c1.77,2.011,4.016,2.296,5.589,2.181c2.805-0.205,5.84-1.891,7.216-4.009c0.129-0.199,0.395-0.255,0.594-0.126
			c0.199,0.129,0.255,0.395,0.126,0.594c-1.535,2.363-4.773,4.171-7.874,4.397c-1.767,0.129-4.293-0.195-6.296-2.47
			C75.901,70.512,75.593,69.654,75.593,68.907z"/>
	</g>
	<g>
		<path style="fill:#231F20;" d="M85.796,61.85c0-2.636,1.63-5.463,4.472-7.756c2.741-2.212,6.182-3.532,9.203-3.532
			c6.475,0,10.056,6.675,10.056,11.288s-3.581,11.288-10.056,11.288c-3.022,0-6.462-1.32-9.203-3.532
			C87.426,67.313,85.796,64.486,85.796,61.85z M108.669,61.85c0-4.263-3.275-10.43-9.198-10.43c-6.109,0-12.817,5.458-12.817,10.43
			s6.708,10.43,12.817,10.43C105.394,72.28,108.669,66.113,108.669,61.85z"/>
	</g>
	<g>
		<path style="fill:#231F20;" d="M95.616,41.372c0-0.521,0.087-1.028,0.265-1.511c0.155-0.42,0.424-0.701,0.799-0.834
			c1.151-0.407,3.085,0.632,7.223,3.1c2.507,1.495,4.286,3.956,4.879,6.75c0.527,2.479,0.06,4.917-1.314,6.865
			c-0.137,0.194-0.404,0.24-0.598,0.103c-0.194-0.137-0.24-0.404-0.103-0.598c1.235-1.75,1.653-3.949,1.176-6.191
			c-0.544-2.561-2.177-4.818-4.479-6.191c-2.628-1.567-5.606-3.343-6.497-3.028c-0.087,0.031-0.197,0.095-0.28,0.321
			c-0.224,0.609-0.755,2.795,1.835,5.385c0.549,0.549,1.459,1.004,2.424,1.487c2.174,1.087,4.879,2.442,3.579,5.538
			c-0.092,0.219-0.343,0.321-0.562,0.23c-0.219-0.092-0.322-0.343-0.23-0.562c0.922-2.197-0.583-3.143-3.172-4.438
			c-1.028-0.514-1.999-1-2.647-1.647C96.417,44.652,95.616,42.951,95.616,41.372z"/>
	</g>
	<g>
		<path style="fill:#231F20;" d="M75.593,54.793c0-0.746,0.308-1.604,1.068-2.468c2.003-2.275,4.529-2.599,6.296-2.47
			c3.101,0.226,6.339,2.035,7.874,4.397c0.129,0.199,0.073,0.465-0.126,0.594c-0.199,0.129-0.465,0.073-0.594-0.126
			c-1.376-2.118-4.411-3.804-7.216-4.009c-1.573-0.115-3.819,0.17-5.589,2.181c-0.952,1.081-1.13,2.246-0.455,2.967
			c0.624,0.667,2.019,0.828,3.607-0.395c2.396-1.845,6.14-1.553,8.345,0.653c0.168,0.168,0.168,0.439,0,0.607
			c-0.168,0.168-0.439,0.168-0.607,0c-1.911-1.911-5.147-2.171-7.214-0.579c-2.012,1.549-3.876,1.242-4.757,0.302
			C75.838,56.034,75.594,55.458,75.593,54.793z"/>
	</g>
	<g>
		<path style="fill:#231F20;" d="M108.133,65.108c0-0.1,0.035-0.2,0.105-0.281c0.155-0.179,0.426-0.198,0.606-0.043
			c0.011,0.009,1.222,1.027,3.104,1.027c1.72,0,3.498-1.481,3.498-3.96s-1.779-3.96-3.498-3.96c-1.882,0-3.093,1.018-3.105,1.028
			c-0.18,0.154-0.451,0.134-0.605-0.046c-0.154-0.179-0.135-0.449,0.044-0.604c0.058-0.05,1.452-1.237,3.666-1.237
			c2.443,0,4.357,2.117,4.357,4.819c0,2.702-1.914,4.819-4.357,4.819c-2.214,0-3.608-1.186-3.666-1.237
			C108.183,65.347,108.133,65.228,108.133,65.108z"/>
	</g>
	<g>
		<g>
			<path style="fill:#231F20;" d="M92.616,56.233c0-0.134,0.063-0.266,0.179-0.349c2.131-1.53,4.502-2.372,6.677-2.372
				c0.821,0,1.618,0.167,2.37,0.497c0.17,0.075,0.273,0.25,0.255,0.436c-0.257,2.597-2.42,4.555-5.033,4.555
				c-1.808,0-3.49-0.978-4.391-2.553C92.634,56.379,92.616,56.305,92.616,56.233z M101.198,54.675
				c-0.553-0.202-1.133-0.305-1.727-0.305c-1.857,0-3.966,0.718-5.844,1.98c0.782,1.113,2.065,1.79,3.435,1.79
				C99.125,58.14,100.85,56.671,101.198,54.675z"/>
		</g>
		<g>
			<path style="fill:#231F20;" d="M92.616,67.468c0-0.072,0.018-0.146,0.057-0.213c0.9-1.575,2.582-2.553,4.39-2.553
				c2.612,0,4.776,1.958,5.032,4.555c0.019,0.185-0.085,0.361-0.255,0.435c-0.751,0.33-1.548,0.497-2.369,0.497
				c-2.175,0-4.546-0.843-6.676-2.372C92.679,67.733,92.616,67.602,92.616,67.468z M101.198,69.026
				c-0.348-1.997-2.073-3.465-4.135-3.465c-1.37,0-2.653,0.677-3.435,1.79c1.877,1.262,3.986,1.98,5.843,1.98
				C100.065,69.33,100.645,69.228,101.198,69.026z"/>
		</g>
		<g>
			<path style="fill:#231F20;" d="M99.812,61.851c0-2.748,2.153-4.967,4.902-5.05c0.154-0.005,0.299,0.073,0.379,0.205
				c0.916,1.495,1.484,3.351,1.484,4.845c0,1.494-0.569,3.35-1.485,4.846c-0.08,0.131-0.225,0.21-0.379,0.205
				C101.965,66.816,99.812,64.598,99.812,61.851z M104.492,57.673c-2.162,0.19-3.821,1.98-3.821,4.178
				c0,2.197,1.659,3.986,3.82,4.177c0.761-1.326,1.228-2.905,1.228-4.178C105.72,60.577,105.253,58.998,104.492,57.673z"/>
		</g>
		<g>
			<path style="fill:#231F20;" d="M88.745,61.85c0-1.39,0.841-3.002,2.368-4.537c0.125-0.126,0.315-0.162,0.478-0.09
				c1.835,0.809,3.02,2.626,3.02,4.628c0,2.002-1.185,3.818-3.02,4.627c-0.162,0.072-0.353,0.036-0.478-0.09
				C89.586,64.851,88.745,63.24,88.745,61.85z M91.511,58.137c-1.215,1.288-1.907,2.63-1.907,3.713c0,1.083,0.691,2.425,1.907,3.714
				c1.371-0.723,2.242-2.15,2.242-3.713C93.753,60.288,92.882,58.86,91.511,58.137z"/>
		</g>
	</g>
</g>
<path id="XMLID_350_" style="fill:#93BDD0;" d="M188.836,186.895H11.164c-0.81,0-1.473-0.663-1.473-1.473l0,0
	c0-0.81,0.663-1.473,1.473-1.473h177.672c0.81,0,1.473,0.663,1.473,1.473l0,0C190.309,186.232,189.646,186.895,188.836,186.895z"/>
<path d="M-29.833-5.833"/>
<g>
	<path style="fill-rule:evenodd;clip-rule:evenodd;fill:#FFF100;" d="M139.048,121.061c0,0,0.019-0.244,0.053-0.671
		c0.007-0.214,0.029-0.471,0.03-0.767c0.008-0.296,0.002-0.63-0.008-0.993c-0.017-0.363-0.044-0.753-0.089-1.163
		c-0.051-0.409-0.112-0.838-0.207-1.272c-0.179-0.869-0.471-1.766-0.885-2.567c-0.211-0.397-0.452-0.767-0.718-1.091
		c-0.263-0.326-0.559-0.596-0.861-0.803c-0.302-0.207-0.61-0.356-0.909-0.446c-0.303-0.082-0.591-0.126-0.863-0.126
		c-0.135-0.003-0.268,0.012-0.391,0.017c-0.127,0.021-0.245,0.033-0.357,0.054c-0.113,0.026-0.218,0.051-0.315,0.073
		c-0.098,0.031-0.187,0.059-0.268,0.085c-0.161,0.043-0.289,0.111-0.375,0.14c-0.086,0.034-0.132,0.052-0.132,0.052l-0.048,0.019
		c-0.715,0.281-1.523-0.07-1.804-0.785c-0.281-0.715,0.071-1.523,0.786-1.805c0.074-0.029,0.157-0.053,0.232-0.069
		c0,0,0.072-0.014,0.206-0.042c0.137-0.022,0.325-0.076,0.586-0.102c0.129-0.015,0.271-0.032,0.425-0.05
		c0.159-0.006,0.33-0.013,0.513-0.021c0.184-0.001,0.384,0.013,0.589,0.022c0.209,0.027,0.428,0.048,0.655,0.096
		c0.455,0.089,0.938,0.255,1.41,0.492c0.471,0.245,0.916,0.578,1.304,0.969c0.389,0.391,0.722,0.84,0.985,1.318
		c0.265,0.477,0.473,0.978,0.634,1.483c0.154,0.507,0.267,1.017,0.345,1.518c0.069,0.502,0.12,0.994,0.128,1.468
		c0.018,0.474,0.001,0.93-0.021,1.359c-0.029,0.429-0.072,0.831-0.121,1.2c-0.055,0.368-0.109,0.704-0.17,0.999
		c-0.053,0.295-0.121,0.55-0.166,0.759C139.11,120.824,139.048,121.061,139.048,121.061L139.048,121.061z"/>
	<path style="fill-rule:evenodd;clip-rule:evenodd;fill:#FFF100;" d="M138.37,125.778c0,0,0.019-0.244,0.053-0.671
		c0.007-0.215,0.029-0.471,0.03-0.768c0.008-0.296,0.002-0.63-0.008-0.993c-0.017-0.362-0.044-0.753-0.089-1.163
		c-0.052-0.409-0.112-0.838-0.207-1.272c-0.179-0.869-0.472-1.767-0.886-2.567c-0.211-0.397-0.452-0.767-0.717-1.091
		c-0.263-0.326-0.559-0.596-0.861-0.804c-0.303-0.207-0.61-0.356-0.909-0.446c-0.302-0.082-0.591-0.126-0.863-0.126
		c-0.135-0.004-0.268,0.012-0.391,0.016c-0.127,0.022-0.245,0.033-0.357,0.055c-0.112,0.026-0.218,0.05-0.315,0.073
		c-0.098,0.031-0.188,0.059-0.269,0.085c-0.161,0.043-0.289,0.111-0.374,0.14c-0.086,0.034-0.132,0.052-0.132,0.052l-0.049,0.019
		c-0.715,0.281-1.523-0.07-1.804-0.785c-0.281-0.715,0.07-1.523,0.785-1.804c0.074-0.029,0.157-0.053,0.232-0.069
		c0,0,0.072-0.015,0.206-0.042c0.137-0.023,0.324-0.077,0.586-0.103c0.129-0.015,0.271-0.032,0.426-0.05
		c0.158-0.007,0.329-0.014,0.512-0.022c0.184,0,0.383,0.013,0.589,0.022c0.209,0.027,0.428,0.048,0.655,0.096
		c0.455,0.089,0.938,0.255,1.41,0.493c0.471,0.244,0.916,0.578,1.304,0.968c0.39,0.391,0.722,0.84,0.984,1.318
		c0.266,0.477,0.473,0.978,0.635,1.483c0.154,0.507,0.267,1.016,0.345,1.518c0.068,0.502,0.12,0.993,0.128,1.468
		c0.018,0.474,0.001,0.93-0.021,1.359c-0.029,0.429-0.072,0.831-0.121,1.2c-0.055,0.368-0.11,0.704-0.171,0.998
		c-0.053,0.296-0.122,0.55-0.166,0.76C138.432,125.54,138.37,125.778,138.37,125.778L138.37,125.778z"/>
	<path style="fill-rule:evenodd;clip-rule:evenodd;fill:#5A6AA9;" d="M136.829,169.737c0,0-1.304,4.039-0.354,11.481
		c-1.427,0.759-6.584-0.32-6.928-1.689c-0.345-1.37,0.713-2.167,3.857-1.374c0,0-1.152-7.992,1.681-10.696L136.829,169.737
		L136.829,169.737z"/>
	<path style="fill-rule:evenodd;clip-rule:evenodd;fill:#5A6AA9;" d="M134.098,120.082c3.929-1.421,20.416-5.899,23.011,22.067
		c1.432,15.434,10.708,15.917,18.736,13.252c0.203-0.164,0.431-0.364,0.678-0.569c0.264-0.235,0.547-0.493,0.844-0.774
		c0.589-0.567,1.223-1.239,1.868-2.015c1.287-1.55,2.575-3.566,3.498-5.94c0.46-1.184,0.824-2.457,1.041-3.767
		c0.222-1.31,0.287-2.662,0.157-3.952l-0.061-0.478l-0.082-0.467l-0.102-0.454l-0.062-0.218l-0.031-0.109l-0.016-0.055l-0.008-0.028
		l-0.004-0.014c0.038,0.085,0.007,0.014,0.014,0.028l-0.149-0.435c-0.042-0.112-0.098-0.25-0.157-0.369
		c-0.117-0.247-0.257-0.484-0.417-0.71c-0.636-0.906-1.633-1.595-2.736-1.908c-1.103-0.319-2.296-0.256-3.329,0.155
		c-1.038,0.406-1.914,1.143-2.546,1.995c-0.641,0.849-1.059,1.789-1.343,2.653c-0.283,0.868-0.437,1.667-0.531,2.329
		c-0.097,0.664-0.127,1.194-0.152,1.555c-0.015,0.363-0.023,0.556-0.023,0.556s-0.027-0.192-0.078-0.552
		c-0.042-0.361-0.109-0.893-0.135-1.578c-0.029-0.685-0.025-1.525,0.104-2.494c0.133-0.965,0.386-2.07,0.95-3.204
		c0.553-1.128,1.46-2.288,2.778-3.119c1.308-0.834,3.014-1.283,4.769-1.123c1.75,0.15,3.56,0.896,4.979,2.238
		c0.355,0.333,0.683,0.701,0.981,1.096c0.152,0.201,0.284,0.396,0.425,0.621l0.348,0.603l0.313,0.68l0.255,0.645l0.219,0.649
		l0.187,0.653c0.449,1.742,0.618,3.504,0.59,5.22c-0.025,1.718-0.244,3.396-0.601,4.985c-0.103,0.461-0.221,0.912-0.345,1.357
		c0.078-0.057,0.123-0.09,0.123-0.09s-7.263,30.157-40.474,26.3C114.372,171.442,117.897,125.943,134.098,120.082L134.098,120.082z"
		/>
	<path style="fill-rule:evenodd;clip-rule:evenodd;fill:#FFFFFF;" d="M149.659,134.817c-0.239,2.299-2.297,3.969-4.596,3.73
		c-2.299-0.239-3.969-2.297-3.73-4.596c0.239-2.299,2.297-3.969,4.596-3.73C148.228,130.46,149.898,132.518,149.659,134.817
		L149.659,134.817z"/>
	<path style="fill-rule:evenodd;clip-rule:evenodd;fill:#2D3440;" d="M147.7,134.613c-0.127,1.217-1.216,2.101-2.433,1.974
		c-1.217-0.126-2.101-1.216-1.974-2.433c0.126-1.217,1.216-2.101,2.433-1.975C146.942,132.307,147.826,133.396,147.7,134.613
		L147.7,134.613z"/>
	<path style="fill-rule:evenodd;clip-rule:evenodd;fill:#FFF100;" d="M186.16,136.99l0.028-0.02c0.285-0.196,0.603-0.16,0.878,0.023
		l0.031,0.02c0.254,0.17,0.327,0.544,0.243,0.818c-0.102,0.333-0.404,0.548-0.752,0.538
		C185.899,138.348,185.561,137.404,186.16,136.99L186.16,136.99z"/>
	<path style="fill-rule:evenodd;clip-rule:evenodd;fill:#FFF100;" d="M186.964,140.394c0.411-0.042,0.842,0.279,0.866,0.705
		c0.025,0.428-0.265,0.821-0.705,0.866c-0.411,0.042-0.842-0.279-0.866-0.705C186.233,140.832,186.523,140.439,186.964,140.394
		L186.964,140.394z"/>
	<path style="fill-rule:evenodd;clip-rule:evenodd;fill:#FFF100;" d="M186.801,143.864c0.005,0.003,0.035,0.019,0.063,0.034
		c0.494-0.004,0.893,0.641,0.515,1.067c-0.2,0.226-0.496,0.295-0.777,0.182c-0.187-0.075-0.322-0.262-0.366-0.462l-0.054-0.063
		C185.856,144.247,186.367,143.619,186.801,143.864L186.801,143.864z"/>
	<path style="fill-rule:evenodd;clip-rule:evenodd;fill:#FFF100;" d="M185.476,148.332c0.188-0.212,0.467-0.304,0.74-0.22
		c0.328,0.1,0.479,0.383,0.48,0.706c0.153,0.307-0.163,0.697-0.495,0.612c-0.28,0.059-0.565,0-0.747-0.249
		C185.278,148.941,185.273,148.561,185.476,148.332L185.476,148.332z"/>
	<path style="fill-rule:evenodd;clip-rule:evenodd;fill:#FFF100;" d="M184.548,152.345c0.326-0.034,0.365,0.344,0.038,0.377
		L184.548,152.345L184.548,152.345z"/>
	<path style="fill-rule:evenodd;clip-rule:evenodd;fill:#FFF100;" d="M181.935,155.769c0.112-0.246,0.352-0.419,0.621-0.446
		c0.27-0.028,0.54,0.092,0.699,0.311c0.147,0.201,0.219,0.547,0.079,0.772c-0.069,0.111-0.127,0.205-0.198,0.287
		c-0.012,0.031-0.024,0.062-0.037,0.093c-0.122,0.309-0.596,0.358-0.778,0.08c-0.018-0.028-0.037-0.056-0.055-0.085
		c-0.086-0.065-0.163-0.145-0.253-0.24C181.832,156.349,181.832,155.995,181.935,155.769L181.935,155.769z"/>
	<path style="fill-rule:evenodd;clip-rule:evenodd;fill:#FFF100;" d="M184.42,151.103c0.326-0.034,0.41,0.784,0.084,0.817
		C183.524,152.021,183.44,151.204,184.42,151.103L184.42,151.103z"/>
	<path style="fill-rule:evenodd;clip-rule:evenodd;fill:#FFF100;" d="M186.19,145.828c0.653-0.067,0.762,0.996,0.109,1.063
		C185.319,146.992,185.21,145.929,186.19,145.828L186.19,145.828z"/>
	<path style="fill-rule:evenodd;clip-rule:evenodd;fill:#FFF100;" d="M180.067,156.845c0.513-0.052,1.05,0.348,1.081,0.88
		c0.031,0.534-0.331,1.025-0.88,1.081c-0.513,0.053-1.05-0.348-1.081-0.88C179.156,157.392,179.517,156.901,180.067,156.845
		L180.067,156.845z"/>
	<path style="fill-rule:evenodd;clip-rule:evenodd;fill:#FFF100;" d="M180.436,160.525c0.653-0.067,0.728,0.666,0.075,0.733
		C179.857,161.325,179.782,160.592,180.436,160.525L180.436,160.525z"/>
	<path style="fill-rule:evenodd;clip-rule:evenodd;fill:#FFF100;" d="M182.722,153.851c0.326-0.033,0.372,0.415,0.046,0.449
		C182.441,154.334,182.395,153.885,182.722,153.851L182.722,153.851z"/>
	<path style="fill-rule:evenodd;clip-rule:evenodd;fill:#FFF100;" d="M177.464,160.519c0.98-0.101,1.118,1.246,0.138,1.347
		C176.622,161.967,176.484,160.62,177.464,160.519L177.464,160.519z"/>
	<path style="fill-rule:evenodd;clip-rule:evenodd;fill:#FFF100;" d="M177.638,163.368c0.469-0.048,0.84,0.372,0.778,0.83
		c-0.008,0.061-0.016,0.123-0.025,0.184c-0.088,0.65-1.066,0.751-1.285,0.132c-0.02-0.059-0.041-0.117-0.061-0.175
		C176.891,163.902,177.167,163.416,177.638,163.368L177.638,163.368z"/>
	<path style="fill-rule:evenodd;clip-rule:evenodd;fill:#FFF100;" d="M175.425,162.788c0.072,0.055,0.144,0.11,0.216,0.166
		c0.53,0.408-0.148,1.242-0.656,0.805c-0.069-0.059-0.138-0.119-0.207-0.178C174.28,163.151,174.902,162.386,175.425,162.788
		L175.425,162.788z"/>
	<path style="fill-rule:evenodd;clip-rule:evenodd;fill:#FFF100;" d="M174.389,165.667c0.512-0.052,0.914,0.492,0.693,0.964
		c0.02-0.07,0.024-0.067,0.012,0.012c-0.053,0.604-1.023,0.704-1.198,0.123c-0.027-0.074-0.024-0.079,0.01-0.014
		C173.594,166.335,173.877,165.72,174.389,165.667L174.389,165.667z"/>
	<path style="fill-rule:evenodd;clip-rule:evenodd;fill:#FFF100;" d="M176.244,164.721c0.653-0.067,0.75,0.876,0.097,0.943
		C175.688,165.731,175.591,164.788,176.244,164.721L176.244,164.721z"/>
	<path style="fill-rule:evenodd;clip-rule:evenodd;fill:#FFF100;" d="M184.926,134.104c0.003-0.214,0.283-0.243,0.329-0.034
		c0.014,0.063,0.028,0.126,0.042,0.189c0.053,0.237-0.378,0.282-0.374,0.038C184.924,134.233,184.925,134.169,184.926,134.104
		L184.926,134.104z"/>
	<path style="fill-rule:evenodd;clip-rule:evenodd;fill:#FFF100;" d="M185.779,135.377c0.326-0.034,0.365,0.341,0.038,0.374
		C185.49,135.784,185.452,135.41,185.779,135.377L185.779,135.377z"/>
	<path style="fill-rule:evenodd;clip-rule:evenodd;fill:#FFF100;" d="M186.986,147.3c0.075-0.015,0.134-0.052,0.178-0.111
		c0.056-0.06,0.145,0.013,0.098,0.08c-0.049,0.054-0.073,0.12-0.072,0.196c-0.008,0.116-0.162,0.158-0.243,0.092
		C186.864,147.49,186.874,147.332,186.986,147.3L186.986,147.3z"/>
	<path style="fill-rule:evenodd;clip-rule:evenodd;fill:#FFF100;" d="M179.298,162.307l0.013,0.12
		C178.983,162.46,178.971,162.34,179.298,162.307L179.298,162.307z"/>
	<path style="fill-rule:evenodd;clip-rule:evenodd;fill:#FFF100;" d="M170.607,167.681l0.046,0.443
		C170.325,168.158,170.28,167.715,170.607,167.681L170.607,167.681z"/>
	<path style="fill-rule:evenodd;clip-rule:evenodd;fill:#FFF100;" d="M171.959,167.99c0.327-0.034,0.399,0.673,0.072,0.707
		C171.378,168.764,171.306,168.057,171.959,167.99L171.959,167.99z"/>
	<path style="fill-rule:evenodd;clip-rule:evenodd;fill:#FFF100;" d="M173.027,165.539c0.327-0.034,0.403,0.709,0.076,0.743
		C172.124,166.382,172.048,165.64,173.027,165.539L173.027,165.539z"/>
	<path style="fill-rule:evenodd;clip-rule:evenodd;fill:#FFF100;" d="M184.706,153.893c0.327-0.033,0.402,0.697,0.075,0.731
		C183.801,154.724,183.726,153.993,184.706,153.893L184.706,153.893z"/>
	<path style="fill-rule:evenodd;clip-rule:evenodd;fill:#FFF100;" d="M125.965,150.346c0.434-0.045,0.89,0.295,0.916,0.745
		c0.026,0.452-0.28,0.868-0.746,0.916c-0.435,0.044-0.89-0.295-0.916-0.746C125.193,150.81,125.499,150.394,125.965,150.346
		L125.965,150.346z"/>
	<path style="fill-rule:evenodd;clip-rule:evenodd;fill:#FFF100;" d="M128.094,152.245c0.98-0.1,1.114,1.202,0.133,1.302
		C127.574,153.615,127.441,152.313,128.094,152.245L128.094,152.245z"/>
	<path style="fill-rule:evenodd;clip-rule:evenodd;fill:#FFF100;" d="M125.966,154.023c0.653-0.067,0.746,0.831,0.092,0.898
		C125.405,154.988,125.313,154.09,125.966,154.023L125.966,154.023z"/>
	<path style="fill-rule:evenodd;clip-rule:evenodd;fill:#FFF100;" d="M150.043,147.405c0.653-0.067,0.762,0.996,0.109,1.063
		C149.499,148.535,149.39,147.472,150.043,147.405L150.043,147.405z"/>
	<path style="fill-rule:evenodd;clip-rule:evenodd;fill:#FFF100;" d="M147.927,149.297c0.98-0.1,1.102,1.097,0.123,1.197
		C147.07,150.595,146.947,149.398,147.927,149.297L147.927,149.297z"/>
	<path style="fill-rule:evenodd;clip-rule:evenodd;fill:#FFF100;" d="M150.12,149.752l0.024-0.035
		c0.298-0.425,0.917-0.557,1.387-0.413c0.474,0.145,0.888,0.586,0.917,1.102c0.026,0.454-0.153,0.91-0.527,1.184
		c-0.438,0.32-1.174,0.349-1.59-0.042l-0.031-0.029C149.779,151.03,149.706,150.341,150.12,149.752L150.12,149.752z"/>
	<path style="fill-rule:evenodd;clip-rule:evenodd;fill:#5A6AA9;" d="M145.691,172.449c0,0-1.304,4.039-0.354,11.48
		c-1.427,0.759-6.584-0.319-6.928-1.689c-0.345-1.37,0.713-2.167,3.857-1.374c0,0-1.153-7.992,1.681-10.697L145.691,172.449
		L145.691,172.449z"/>
	<path style="fill-rule:evenodd;clip-rule:evenodd;fill:#FFFFFF;" d="M137.202,135.048c-0.239,2.299-2.297,3.969-4.596,3.73
		c-2.299-0.239-3.969-2.297-3.73-4.596c0.239-2.299,2.297-3.969,4.596-3.73C135.771,130.691,137.441,132.748,137.202,135.048
		L137.202,135.048z"/>
	<path style="fill-rule:evenodd;clip-rule:evenodd;" d="M135.243,134.844c-0.127,1.217-1.216,2.101-2.433,1.975
		s-2.101-1.216-1.975-2.433c0.126-1.217,1.216-2.101,2.433-1.975C134.485,132.538,135.37,133.627,135.243,134.844L135.243,134.844z"
		/>
	<path style="fill-rule:evenodd;clip-rule:evenodd;" d="M145.561,142.814c-0.547,1.207-3.508,3.898-6.752,3.898
		c-3.244,0-6.205-2.692-6.752-3.898c-0.547-1.207-1.63,0.944-0.355,4.298c0.875,2.3,3.09,4.697,7.107,4.697
		c4.017,0,6.232-2.397,7.106-4.697C147.191,143.758,146.109,141.607,145.561,142.814L145.561,142.814z"/>
	<path style="fill-rule:evenodd;clip-rule:evenodd;fill:#FFFFFF;" d="M132.535,143.538l-0.844,1.864l2.087-0.66
		C133.267,144.333,132.844,143.914,132.535,143.538L132.535,143.538z M134.396,145.198l-0.534,2.009l1.963-1.197
		C135.313,145.775,134.832,145.496,134.396,145.198L134.396,145.198z M136.691,146.353l0.366,2.831l1.553-2.474
		C137.951,146.687,137.305,146.556,136.691,146.353L136.691,146.353z M139.283,146.693l1.355,1.792v-2.043
		C140.198,146.569,139.745,146.657,139.283,146.693L139.283,146.693z M141.75,146.03l2.067,1.178l-0.487-2.084
		C142.853,145.458,142.321,145.771,141.75,146.03L141.75,146.03z M144.016,144.598l1.246,0.805l-0.378-1.634
		C144.642,144.035,144.35,144.318,144.016,144.598L144.016,144.598z"/>
	<path style="fill-rule:evenodd;clip-rule:evenodd;fill:#FFFFFF;" d="M149.659,134.817c-0.239,2.299-2.297,3.969-4.596,3.73
		c-2.299-0.239-3.969-2.297-3.73-4.596c0.239-2.299,2.297-3.969,4.596-3.73C148.228,130.46,149.898,132.518,149.659,134.817
		L149.659,134.817z"/>
	<path style="fill-rule:evenodd;clip-rule:evenodd;fill:#2D3440;" d="M147.7,134.613c-0.127,1.217-1.216,2.101-2.433,1.974
		c-1.217-0.126-2.101-1.216-1.974-2.433c0.126-1.217,1.216-2.101,2.433-1.975C146.942,132.307,147.826,133.396,147.7,134.613
		L147.7,134.613z"/>
	<path style="fill-rule:evenodd;clip-rule:evenodd;fill:#FFFFFF;" d="M149.659,134.817c-0.239,2.299-2.297,3.969-4.596,3.73
		c-2.299-0.239-3.969-2.297-3.73-4.596c0.239-2.299,2.297-3.969,4.596-3.73C148.228,130.46,149.898,132.518,149.659,134.817
		L149.659,134.817z"/>
	<path style="fill-rule:evenodd;clip-rule:evenodd;" d="M147.7,134.613c-0.127,1.217-1.216,2.101-2.433,1.974
		c-1.217-0.126-2.101-1.216-1.974-2.433c0.126-1.217,1.216-2.101,2.433-1.975C146.942,132.307,147.826,133.396,147.7,134.613
		L147.7,134.613z"/>
	<path style="fill-rule:evenodd;clip-rule:evenodd;fill:#FFF100;" d="M137.265,133.854c-0.543-2.055-2.241-3.555-4.253-3.555
		c-2.012,0-3.711,1.5-4.253,3.555H137.265L137.265,133.854z"/>
	<path style="fill-rule:evenodd;clip-rule:evenodd;fill:#FFF100;" d="M149.794,133.652c-0.543-2.055-2.241-3.554-4.253-3.554
		c-2.012,0-3.711,1.5-4.254,3.555L149.794,133.652L149.794,133.652z"/>
</g>
<g>
	<path style="fill-rule:evenodd;clip-rule:evenodd;fill:#D42E5D;" d="M72.137,133.536c0,0-8.12,2.026-12.514-7.792
		c0,0-2.166,5.814,1.18,11.184c3.345,5.371,11.176,4.15,11.176,4.15L72.137,133.536L72.137,133.536z"/>
	<path style="fill-rule:evenodd;clip-rule:evenodd;fill:#F1AE1D;" d="M71.047,132.111c-1.95-0.016-2.958,1.57-3.167,4.871
		c-0.208,3.301-1.232,5.648,2.944,5.735L71.047,132.111L71.047,132.111z"/>
	<path style="fill-rule:evenodd;clip-rule:evenodd;fill:#D42E5D;" d="M102.52,133.245c0,0,8.028,2.365,12.83-7.26
		c0,0,1.92,5.9-1.648,11.125c-3.568,5.225-11.341,3.677-11.341,3.677L102.52,133.245L102.52,133.245z"/>
	<path style="fill-rule:evenodd;clip-rule:evenodd;fill:#F1AE1D;" d="M103.669,131.868c1.949,0.066,2.89,1.692,2.959,4.999
		c0.07,3.307,0.995,5.694-3.182,5.607L103.669,131.868L103.669,131.868z"/>
	<path style="fill-rule:evenodd;clip-rule:evenodd;fill:#D42E5D;" d="M74.198,171.417c0,0-1.808,5.463,0.249,11.623
		c0,0,4.088,1.067,10.078,0.233c0,0,1.63-4.084,1.005-8.515L74.198,171.417L74.198,171.417z"/>
	<path style="fill-rule:evenodd;clip-rule:evenodd;fill:#D42E5D;" d="M100.512,171.046c0,0,1.961,5.411,0.08,11.626
		c0,0-4.195,1.403-10.205,0.738c0,0-1.607-4.257-1.106-8.704L100.512,171.046L100.512,171.046z"/>
	<path style="fill-rule:evenodd;clip-rule:evenodd;fill:#F37A51;" d="M69.43,139.131c-1.949,13.019-1.184,22.514,1.215,29.668
		c5.901,17.602,30.429,12.908,34.248-1.013c2.098-7.647-0.469-19.599,0.129-31.749C100.639,120.335,72.462,117.245,69.43,139.131
		L69.43,139.131z"/>
	<path style="fill-rule:evenodd;clip-rule:evenodd;fill:#D42E5D;" d="M78.941,150.524c-0.028,0-0.056,0-0.084,0
		c-4.267-0.046-7.69-3.542-7.644-7.809c0.045-4.239,3.496-7.644,7.725-7.644c0.028,0,0.056,0,0.084,0
		c4.267,0.045,7.69,3.541,7.644,7.809C86.621,147.119,83.17,150.525,78.941,150.524L78.941,150.524z"/>
	<path style="fill-rule:evenodd;clip-rule:evenodd;fill:#FFFFFF;" d="M71.227,141.397c-0.046,4.267,3.377,7.763,7.644,7.808
		c4.267,0.045,7.763-3.377,7.809-7.644c0.045-4.267-3.377-7.763-7.644-7.809C74.769,133.707,71.273,137.13,71.227,141.397
		L71.227,141.397z"/>
	<path style="fill-rule:evenodd;clip-rule:evenodd;" d="M74.863,141.436c-0.024,2.259,1.788,4.11,4.047,4.134
		c2.259,0.024,4.11-1.788,4.134-4.047c0.024-2.259-1.788-4.11-4.047-4.134C76.738,137.365,74.887,139.176,74.863,141.436
		L74.863,141.436z"/>
	<path style="fill-rule:evenodd;clip-rule:evenodd;fill:#D42E5D;" d="M71.621,138.583c1.18-2.919,4.054-4.966,7.393-4.93
		c3.339,0.035,6.169,2.143,7.287,5.087L71.621,138.583L71.621,138.583z"/>
	<path style="fill-rule:evenodd;clip-rule:evenodd;fill:#D42E5D;" d="M95.929,150.705c-0.028,0-0.056,0-0.084-0.001
		c-4.267-0.045-7.69-3.541-7.644-7.808c0.045-4.239,3.496-7.645,7.725-7.645c0.028,0,0.056,0,0.084,0.001
		c4.267,0.045,7.69,3.541,7.645,7.808C103.609,147.3,100.158,150.705,95.929,150.705L95.929,150.705z"/>
	<path style="fill-rule:evenodd;clip-rule:evenodd;fill:#FFFFFF;" d="M88.215,141.578c-0.045,4.267,3.377,7.763,7.644,7.808
		c4.267,0.046,7.763-3.377,7.809-7.644c0.045-4.267-3.377-7.763-7.644-7.808C91.757,133.888,88.261,137.311,88.215,141.578
		L88.215,141.578z"/>
	<path style="fill-rule:evenodd;clip-rule:evenodd;" d="M91.851,141.617c-0.024,2.259,1.788,4.11,4.047,4.134
		c2.259,0.024,4.11-1.788,4.134-4.047c0.024-2.259-1.788-4.11-4.047-4.134C93.726,137.546,91.875,139.357,91.851,141.617
		L91.851,141.617z"/>
	<path style="fill-rule:evenodd;clip-rule:evenodd;fill:#D42E5D;" d="M88.609,138.764c1.18-2.919,4.054-4.966,7.393-4.93
		c3.339,0.035,6.169,2.143,7.287,5.087L88.609,138.764L88.609,138.764z"/>
	<path style="fill-rule:evenodd;clip-rule:evenodd;fill:#D42E5D;" d="M81.068,155.365c4.459,0.132,4.995-3.504,6.584-0.116
		c0,0,0.527-1.345,1.231-1.376c1.028-0.044,2.286,2.227,4.871,1.441c2.584-0.786-4.623,1.282-6.522,1.41
		c-1.899,0.127-6.239-1.003-6.239-1.003L81.068,155.365L81.068,155.365z"/>
	<polygon style="fill-rule:evenodd;clip-rule:evenodd;fill:#FFFFFF;" points="82.237,155.658 82.944,159.745 85.801,156.745 
		82.237,155.658 	"/>
	<polygon style="fill-rule:evenodd;clip-rule:evenodd;fill:#FFFFFF;" points="78.447,154.537 79.067,158.638 81.987,155.699 
		78.447,154.537 	"/>
	<polygon style="fill-rule:evenodd;clip-rule:evenodd;fill:#FFFFFF;" points="96.706,154.199 96.552,158.344 93.319,155.753 
		96.706,154.199 	"/>
	<polygon style="fill-rule:evenodd;clip-rule:evenodd;fill:#FFFFFF;" points="93.296,155.776 92.501,159.846 89.708,156.786 
		93.296,155.776 	"/>
	<polygon style="fill-rule:evenodd;clip-rule:evenodd;fill:#FFFFFF;" points="85.843,156.633 87.803,160.289 89.569,156.541 
		85.843,156.633 	"/>
	<path style="fill-rule:evenodd;clip-rule:evenodd;" d="M74.404,151.772c0,0,0.096,0.059,0.276,0.171
		c0.18,0.112,0.454,0.261,0.794,0.458c0.689,0.383,1.683,0.906,2.905,1.453c0.615,0.265,1.282,0.546,1.999,0.807
		c0.715,0.266,1.482,0.503,2.279,0.723c0.796,0.228,1.636,0.377,2.486,0.524c0.853,0.12,1.725,0.215,2.597,0.205
		c0.872,0.031,1.74-0.052,2.589-0.162c0.211-0.034,0.419-0.081,0.628-0.119c0.207-0.042,0.419-0.064,0.62-0.122
		c0.403-0.115,0.815-0.189,1.197-0.333c0.775-0.257,1.512-0.553,2.187-0.889c0.331-0.179,0.666-0.335,0.971-0.519
		c0.305-0.186,0.6-0.366,0.883-0.538c0.278-0.181,0.528-0.38,0.779-0.552c0.251-0.173,0.488-0.339,0.692-0.519
		c0.211-0.173,0.409-0.335,0.591-0.484c0.093-0.074,0.181-0.146,0.266-0.214c0.079-0.073,0.155-0.144,0.227-0.211
		c0.578-0.533,0.92-0.835,0.92-0.835s-0.268,0.362-0.759,0.991c-0.234,0.325-0.581,0.661-0.957,1.073
		c-0.185,0.21-0.403,0.41-0.636,0.62c-0.233,0.209-0.475,0.435-0.742,0.653c-0.275,0.209-0.562,0.427-0.859,0.652
		c-0.299,0.223-0.64,0.408-0.976,0.623c-0.685,0.406-1.441,0.786-2.262,1.087c-0.403,0.172-0.838,0.272-1.266,0.414
		c-0.434,0.122-0.882,0.209-1.333,0.298c-0.909,0.132-1.841,0.235-2.774,0.214c-0.933-0.004-1.859-0.117-2.76-0.259
		c-0.448-0.087-0.894-0.164-1.324-0.286c-0.434-0.105-0.855-0.23-1.267-0.362c-0.414-0.124-0.81-0.276-1.2-0.42
		c-0.382-0.164-0.762-0.305-1.117-0.476c-0.722-0.315-1.376-0.673-1.973-1.009c-1.19-0.68-2.113-1.352-2.737-1.843
		C74.728,152.089,74.404,151.772,74.404,151.772L74.404,151.772z"/>
	<path style="fill-rule:evenodd;clip-rule:evenodd;fill:#F1AE1D;" d="M77.363,170.646c0.731,0,1.323,0.573,1.323,1.279
		c0,0.706-0.592,1.279-1.323,1.279c-0.73,0-1.323-0.572-1.323-1.279C76.04,171.218,76.633,170.646,77.363,170.646L77.363,170.646z"
		/>
	<path style="fill-rule:evenodd;clip-rule:evenodd;fill:#F1AE1D;" d="M75.335,167.206c0.487,0,0.882,0.454,0.882,1.014
		c0,0.56-0.395,1.014-0.882,1.014c-0.487,0-0.882-0.454-0.882-1.014C74.453,167.661,74.848,167.206,75.335,167.206L75.335,167.206z"
		/>
	<path style="fill-rule:evenodd;clip-rule:evenodd;fill:#F1AE1D;" d="M79.656,168.177c0.584,0,1.058,0.513,1.058,1.146
		c0,0.633-0.474,1.146-1.058,1.146c-0.585,0-1.058-0.513-1.058-1.146C78.598,168.69,79.071,168.177,79.656,168.177L79.656,168.177z"
		/>
	<path style="fill-rule:evenodd;clip-rule:evenodd;fill:#FFFFFF;" d="M81.915,139.234c0.864,0.131,1.461,0.916,1.334,1.754
		c-0.127,0.838-0.93,1.41-1.794,1.279c-0.864-0.131-1.461-0.916-1.334-1.754C80.249,139.675,81.052,139.103,81.915,139.234
		L81.915,139.234z"/>
	<path style="fill-rule:evenodd;clip-rule:evenodd;fill:#FFFFFF;" d="M82.638,142.63c0.528,0.08,0.893,0.56,0.815,1.072
		c-0.078,0.512-0.569,0.862-1.097,0.782c-0.528-0.08-0.893-0.56-0.815-1.072C81.619,142.9,82.11,142.549,82.638,142.63
		L82.638,142.63z"/>
	<path style="fill-rule:evenodd;clip-rule:evenodd;fill:#FFFFFF;" d="M99.176,139.356c0.864,0.131,1.461,0.916,1.334,1.754
		c-0.127,0.838-0.93,1.41-1.794,1.279c-0.864-0.131-1.461-0.916-1.334-1.754C97.51,139.797,98.313,139.225,99.176,139.356
		L99.176,139.356z"/>
	<path style="fill-rule:evenodd;clip-rule:evenodd;fill:#FFFFFF;" d="M99.899,142.751c0.528,0.08,0.893,0.56,0.815,1.072
		c-0.078,0.512-0.569,0.862-1.096,0.782c-0.528-0.08-0.893-0.56-0.815-1.072C98.88,143.021,99.371,142.671,99.899,142.751
		L99.899,142.751z"/>
	<path style="fill-rule:evenodd;clip-rule:evenodd;fill:#F1AE1D;" d="M87.489,131.157c0.731,0,1.323,0.572,1.323,1.279
		c0,0.706-0.592,1.279-1.323,1.279c-0.731,0-1.323-0.572-1.323-1.279C86.167,131.73,86.759,131.157,87.489,131.157L87.489,131.157z"
		/>
	<path style="fill-rule:evenodd;clip-rule:evenodd;fill:#F1AE1D;" d="M85.461,127.718c0.487,0,0.882,0.454,0.882,1.014
		c0,0.56-0.395,1.014-0.882,1.014c-0.487,0-0.882-0.454-0.882-1.014C84.579,128.172,84.974,127.718,85.461,127.718L85.461,127.718z"
		/>
	<path style="fill-rule:evenodd;clip-rule:evenodd;fill:#F1AE1D;" d="M89.782,128.689c0.584,0,1.058,0.513,1.058,1.146
		c0,0.633-0.474,1.146-1.058,1.146c-0.585,0-1.058-0.513-1.058-1.146C88.724,129.202,89.198,128.689,89.782,128.689L89.782,128.689z
		"/>
</g>
<g>
	<path style="fill-rule:evenodd;clip-rule:evenodd;fill:#30A9E0;" d="M65.475,178.155c1.396-2.676-3.887-2.08-8.019-5.607
		c-2.921-2.494-4.608-7.374-0.901-17.94c1.013-2.886,3.754-7.681,3.561-12.829c-0.324-8.644-5.557-17.841-17.9-17.995
		c-13.938-0.174-19.549,10.011-19.101,20.151c0.22,4.995,3.451,9.827,4.87,13.702c2.014,5.498,1.025,11.108-1.787,14.097
		c-2.928,3.111-8.879,1.121-8.563,4.282c0.535,5.352,10.249,4.925,12.706,0.857c-1.512,2.889-1.706,6.386,2.567,6.417
		c3.102,0.023,4.28-3.113,3.574-5.488c-0.707-2.374,1.044-5.533,4.561-5.176c4.964,0.503,4.142,5.634,4.142,5.634
		c0,0-1.311,5.381,4.053,5.024c5.363-0.356,2.609-6.047,2.609-6.047S61.534,185.705,65.475,178.155L65.475,178.155z"/>
	<path style="fill-rule:evenodd;clip-rule:evenodd;fill:#0F7EC2;" d="M21.982,176.549c-1.32,0-2.546-0.694-3.027-2.077
		c-0.026-0.075-0.05-0.148-0.071-0.221l0.002-0.001l0.03-0.01l0.085-0.028l0.039-0.012c0.037-0.011,0.074-0.023,0.112-0.034
		l0.003-0.001h0l0.002-0.001c0.038-0.011,0.076-0.021,0.114-0.031l0.045-0.011l0.093-0.024l0.033-0.008
		c0.04-0.01,0.08-0.019,0.121-0.028l0.051-0.011l0.074-0.016l0.063-0.013l0.115-0.023l0.066-0.013l0.062-0.011l0.075-0.014
		l0.005-0.001l0.11-0.02l0.004,0l0.075-0.013l0.052-0.009l0.087-0.014l0.036-0.006c0.181-0.03,0.367-0.059,0.557-0.088l0.051-0.008
		l0.069-0.011l0.106-0.017l0.015-0.002c0.112-0.018,0.226-0.036,0.34-0.055h0.001c0.059-0.01,0.117-0.02,0.176-0.03l0.01-0.001
		l0.162-0.028l0.018-0.003c0.116-0.021,0.232-0.042,0.348-0.065l0.017-0.003c0.057-0.011,0.114-0.023,0.171-0.034l0.006-0.001
		c0.058-0.012,0.116-0.025,0.175-0.038l0.017-0.004c0.058-0.013,0.116-0.026,0.174-0.04h0c0.058-0.014,0.117-0.028,0.175-0.043
		l0.019-0.005c0.054-0.014,0.107-0.028,0.161-0.042l0.015-0.004c0.056-0.016,0.112-0.031,0.168-0.047l0.026-0.008
		c0.051-0.015,0.102-0.03,0.153-0.046l0.018-0.006c0.055-0.017,0.11-0.035,0.165-0.053l0.032-0.011
		c0.045-0.015,0.09-0.031,0.135-0.047l0.036-0.013c0.054-0.019,0.107-0.039,0.16-0.059l0.02-0.008
		c0.046-0.018,0.092-0.037,0.137-0.055l0.042-0.018c0.104-0.044,0.206-0.09,0.308-0.138l0.039-0.019
		c0.046-0.023,0.092-0.046,0.138-0.07l0.015-0.007c0.05-0.026,0.1-0.054,0.15-0.082l0.033-0.019
		c0.043-0.024,0.086-0.049,0.129-0.075l0.023-0.014c0.048-0.03,0.096-0.06,0.143-0.091l0.034-0.022
		c0.038-0.025,0.076-0.052,0.114-0.078l0.033-0.023c0.046-0.033,0.091-0.066,0.136-0.101l0.027-0.021
		c0.037-0.029,0.074-0.059,0.111-0.089l0.036-0.029c0.044-0.037,0.088-0.074,0.13-0.113L25.926,172
		c0.039-0.035,0.078-0.072,0.116-0.109l0.031-0.03c0.042-0.042,0.084-0.084,0.126-0.128c0.044-0.047,0.087-0.094,0.13-0.141l0,0
		c0.043-0.048,0.085-0.096,0.127-0.145l0.001-0.001c0.04-0.047,0.08-0.094,0.119-0.142l0.014-0.017
		c0.038-0.046,0.075-0.093,0.112-0.14l0.001-0.002l0.002-0.002l0.004-0.006c0.037-0.047,0.073-0.095,0.109-0.143l0.014-0.018
		c0.035-0.048,0.071-0.097,0.106-0.145l0.001-0.001l0.002-0.003l0.006-0.007c0.035-0.049,0.069-0.098,0.103-0.148l0.013-0.018
		c0.034-0.05,0.068-0.1,0.101-0.151l0.009-0.015c0.034-0.052,0.066-0.104,0.099-0.156l0.003-0.005l0.005-0.008
		c0.031-0.051,0.062-0.102,0.093-0.154l0.016-0.027c0.03-0.051,0.06-0.103,0.09-0.155l0.01-0.018c0.03-0.054,0.06-0.108,0.09-0.163
		l0.008-0.015c0.03-0.055,0.059-0.11,0.088-0.167l0.004-0.008l0.004-0.008c0.029-0.057,0.057-0.113,0.085-0.17l0.01-0.021
		c0.027-0.055,0.054-0.11,0.079-0.166l0.004-0.009l0.004-0.01c0.027-0.057,0.052-0.114,0.078-0.172l0.004-0.01l0.003-0.008
		c0.027-0.06,0.052-0.12,0.078-0.18l0.007-0.017c0.024-0.058,0.048-0.117,0.072-0.176l0.005-0.012l0.003-0.009
		c0.025-0.063,0.05-0.127,0.074-0.191l0-0.001c0.025-0.066,0.049-0.133,0.073-0.199l0.003-0.008c0.03-0.085,0.059-0.17,0.088-0.255
		c0.365,0.294,0.641,0.688,0.712,1.119c0.383,2.328-1.46,3.89-3.145,5.182c-0.027,0.021-0.057,0.039-0.085,0.06
		c-0.704,0.851-1.546,1.648-2.607,1.998C22.817,176.481,22.396,176.549,21.982,176.549L21.982,176.549z"/>
	<path style="fill-rule:evenodd;clip-rule:evenodd;fill:#30A9E0;" d="M32.977,117.865c0,4.24-3.437,7.677-7.677,7.677
		c-4.24,0-7.677-3.437-7.677-7.677c0-4.24,3.437-7.677,7.677-7.677C29.54,110.188,32.977,113.625,32.977,117.865L32.977,117.865z"/>
	<path style="fill-rule:evenodd;clip-rule:evenodd;fill:#30A9E0;" d="M27.982,123.524l0.586-0.48l-0.59,0.475L27.982,123.524
		l0.586-0.48l-0.59,0.475c0.002,0.002,0.355,0.443,0.78,1.207c0.425,0.763,0.918,1.849,1.22,3.136l3.145-0.74
		c-0.401-1.704-1.046-3.086-1.593-4.057c-0.548-0.971-1.003-1.532-1.049-1.588L27.982,123.524L27.982,123.524z"/>
	<path style="fill-rule:evenodd;clip-rule:evenodd;fill:#30A9E0;" d="M50.103,117.865c0,4.24,3.437,7.677,7.677,7.677
		c4.24,0,7.677-3.437,7.677-7.677c0-4.24-3.437-7.677-7.677-7.677C53.54,110.188,50.103,113.625,50.103,117.865L50.103,117.865z"/>
	<path style="fill-rule:evenodd;clip-rule:evenodd;fill:#30A9E0;" d="M52.6,121.476c-0.046,0.057-0.501,0.618-1.049,1.588
		c-0.548,0.971-1.191,2.353-1.593,4.057l3.145,0.74c0.312-1.328,0.828-2.442,1.261-3.209c0.217-0.384,0.412-0.68,0.547-0.873
		c0.068-0.097,0.12-0.168,0.153-0.211l0.034-0.044l0.005-0.006l-0.59-0.475l0.586,0.48l0.004-0.005l-0.59-0.475l0.586,0.48
		L52.6,121.476L52.6,121.476z"/>
	<path style="fill-rule:evenodd;clip-rule:evenodd;fill:#FFFFFF;" d="M20.114,119.727c1.009,2.849,4.137,4.34,6.985,3.33
		c2.849-1.009,4.34-4.137,3.331-6.985c-1.009-2.849-4.137-4.34-6.985-3.33C20.596,113.751,19.105,116.878,20.114,119.727
		L20.114,119.727z"/>
	<path style="fill-rule:evenodd;clip-rule:evenodd;" d="M22.542,118.867c0.534,1.508,2.19,2.298,3.698,1.763
		c1.508-0.534,2.298-2.19,1.763-3.698c-0.534-1.508-2.19-2.298-3.698-1.763C22.796,115.703,22.007,117.359,22.542,118.867
		L22.542,118.867z"/>
	<path style="fill-rule:evenodd;clip-rule:evenodd;fill:#FFFFFF;" d="M52.848,115.778c-1.171,2.786,0.138,5.994,2.924,7.165
		c2.786,1.171,5.994-0.138,7.165-2.924c1.172-2.786-0.138-5.994-2.924-7.165C57.227,111.683,54.019,112.992,52.848,115.778
		L52.848,115.778z"/>
	<path style="fill-rule:evenodd;clip-rule:evenodd;" d="M55.222,116.776c-0.62,1.475,0.073,3.174,1.548,3.793
		c1.475,0.62,3.174-0.073,3.793-1.548c0.62-1.475-0.073-3.173-1.548-3.793C57.54,114.608,55.842,115.301,55.222,116.776
		L55.222,116.776z"/>
	<path style="fill-rule:evenodd;clip-rule:evenodd;fill:#0F7EC2;" d="M34.881,168.076c-1.499,0-2.575-1.301-2.596-2.871
		c-0.006-0.495,0.103-1.009,0.144-1.513c-0.257-0.387-0.526-0.747-0.899-1.084c-1.828-1.65,0.006-4.251,1.89-4.251
		c0.557,0,1.117,0.227,1.589,0.772c1.082,1.25,1.86,2.792,2.417,4.35c0.611,1.71,0.237,3.904-1.749,4.48
		C35.402,168.039,35.135,168.076,34.881,168.076L34.881,168.076z"/>
	<path style="fill-rule:evenodd;clip-rule:evenodd;fill:#0F7EC2;" d="M35.977,130.954c-0.019,0-0.037,0-0.056,0
		c-2.312-0.046-1.933-3.381-0.086-3.381c0.166,0,0.344,0.027,0.532,0.086c0.23,0.071,0.473,0.097,0.723,0.097
		c0.332,0,0.677-0.046,1.025-0.092c0.349-0.045,0.699-0.091,1.043-0.091c0.189,0,0.377,0.014,0.56,0.049
		c0.195,0.037,0.388,0.084,0.581,0.133c0.595-0.151,1.203-0.24,1.824-0.24c0.186,0,0.374,0.008,0.563,0.025
		c0.986,0.087,2.212,0.572,1.796,1.821c-0.302,0.905-1.373,1.084-2.268,1.084c-0.188,0-0.369-0.008-0.533-0.018
		c-0.764-0.05-1.587-0.317-2.363-0.317c-0.124,0-0.247,0.007-0.368,0.023C37.879,130.27,37.109,130.954,35.977,130.954
		L35.977,130.954z"/>
	<path style="fill-rule:evenodd;clip-rule:evenodd;fill:#0F7EC2;" d="M54.018,175.675c-0.382,0-0.766-0.094-1.102-0.287
		c-0.884-0.507-1.158-1.442-1.544-2.319c-0.234-0.533-0.479-1.06-0.688-1.6c-0.207-0.345-0.401-0.697-0.559-1.066
		c-0.786-1.834-0.359-3.886-0.221-5.806c0.071-0.986,0.818-1.483,1.557-1.483c0.736,0,1.466,0.492,1.516,1.483
		c0.069,1.375,0.021,2.719,0.72,3.952c0.598,1.054,1.183,2.07,1.741,3.148c0.485,0.935,1.014,1.991,0.384,3.019
		C55.436,175.347,54.73,175.675,54.018,175.675L54.018,175.675z"/>
	<path style="fill-rule:evenodd;clip-rule:evenodd;fill:#FFFFFF;" d="M46.646,144.954c0.033,0.352,2.104,1.804,3.077,0.629
		c0.973-1.174-1.277-2.75-1.277-2.75L46.646,144.954L46.646,144.954z"/>
	<path style="fill-rule:evenodd;clip-rule:evenodd;fill:#FFFFFF;" d="M44.637,145.961c-0.096,0.277,0.966,2.092,2.108,1.542
		c1.142-0.551-0.013-2.521-0.013-2.521L44.637,145.961L44.637,145.961z"/>
	<path style="fill-rule:evenodd;clip-rule:evenodd;fill:#132136;" d="M42.956,146.451c0,0,0.122-0.06,0.336-0.164
		c0.106-0.049,0.231-0.123,0.376-0.191c0.141-0.081,0.304-0.16,0.475-0.259c0.173-0.095,0.355-0.203,0.545-0.321
		c0.195-0.108,0.384-0.249,0.589-0.373c0.194-0.143,0.403-0.277,0.599-0.433c0.195-0.158,0.402-0.305,0.584-0.482
		c0.095-0.084,0.193-0.164,0.285-0.251c0.089-0.089,0.176-0.179,0.263-0.268c0.184-0.17,0.335-0.362,0.493-0.541
		c0.167-0.174,0.291-0.368,0.426-0.543c0.066-0.088,0.136-0.172,0.195-0.259c0.056-0.088,0.11-0.174,0.163-0.255
		c0.099-0.168,0.214-0.313,0.291-0.454c0.073-0.142,0.145-0.265,0.203-0.368c0.118-0.205,0.195-0.322,0.195-0.322
		s-0.009,0.135-0.042,0.373c-0.017,0.119-0.037,0.265-0.069,0.431c-0.03,0.167-0.095,0.344-0.16,0.542
		c-0.034,0.099-0.068,0.203-0.104,0.309c-0.04,0.106-0.098,0.206-0.149,0.315c-0.11,0.212-0.215,0.447-0.373,0.658
		c-0.15,0.216-0.298,0.447-0.492,0.646c-0.093,0.103-0.187,0.206-0.281,0.31c-0.1,0.097-0.206,0.189-0.311,0.284
		c-0.206,0.192-0.436,0.353-0.661,0.511c-0.11,0.084-0.23,0.15-0.346,0.218c-0.117,0.067-0.23,0.136-0.347,0.195
		c-0.237,0.11-0.46,0.226-0.687,0.303c-0.112,0.04-0.22,0.079-0.326,0.117c-0.107,0.03-0.212,0.059-0.311,0.087
		c-0.196,0.062-0.387,0.088-0.55,0.122c-0.166,0.026-0.31,0.045-0.431,0.053C43.094,146.462,42.956,146.451,42.956,146.451
		L42.956,146.451z"/>
	<path style="fill-rule:evenodd;clip-rule:evenodd;fill:#FFFFFF;" d="M59.469,115.164c0.682,0.103,1.154,0.724,1.054,1.385
		c-0.1,0.662-0.735,1.114-1.417,1.011c-0.683-0.103-1.154-0.724-1.054-1.385C58.152,115.513,58.786,115.061,59.469,115.164
		L59.469,115.164z"/>
	<path style="fill-rule:evenodd;clip-rule:evenodd;fill:#FFFFFF;" d="M26.247,114.936c0.683,0.103,1.154,0.724,1.054,1.385
		c-0.1,0.662-0.735,1.114-1.417,1.011c-0.682-0.103-1.154-0.724-1.054-1.386C24.93,115.285,25.564,114.833,26.247,114.936
		L26.247,114.936z"/>
</g>
<polygon style="fill:none;stroke:#231F20;stroke-miterlimit:10;" points="59.564,34.95 103.195,15.25 136.829,34.95 "/>
<path style="fill:none;stroke:#231F20;stroke-miterlimit:10;" d="M-32.25,57.031"/>
</svg>
