<?xml version="1.0" encoding="iso-8859-1"?>
<!-- Generator: Adobe Illustrator 21.1.0, SVG Export Plug-In . SVG Version: 6.00 Build 0)  -->
<svg version="1.1" id="Layer_1" xmlns="http://www.w3.org/2000/svg" xmlns:xlink="http://www.w3.org/1999/xlink" x="0px" y="0px"
	 viewBox="0 0 200 200" style="enable-background:new 0 0 200 200;" xml:space="preserve">
<rect x="-4" y="-10" style="fill:#3A3730;" width="203" height="210"/>
<path id="XMLID_349_" style="fill:#E9E3A0;" d="M172.405,111.837c0,26.201-27.436,23.923-64.711,23.923s-70.275,2.277-70.275-23.923
	s30.218-47.44,67.493-47.44S172.405,85.636,172.405,111.837z"/>
<g id="XMLID_309_">
	<g id="XMLID_320_">
		<path id="XMLID_335_" style="fill:#F06162;" d="M172.504,150.106c0.118-0.164,0.169-0.294,0.169-0.381
			c0,0-6.773-61.596-6.773-61.821c0-7.738-6.838-15.402-16.918-15.402c-9.441,0-16.918,7.663-16.918,15.402
			c0,0.225-6.773,61.821-6.773,61.821s-5.681,12.36-3.859,21.21c1.605,7.793,3.376,9.733,3.776,10.085
			c-0.587-0.461-4.208-3.188-6.118-1.755c-2.082,1.562-1.822,4.685-1.822,4.685h12.494c0,0-8.069-14.337-1.301-29.033
			c0,0,11.579,8.182,37.087,1.035c0,0-2.02,7.696,0.098,15.244s3.94,10.151,3.94,10.151s-4.946-3.124-6.768-1.822
			c-1.822,1.301-1.562,4.425-1.562,4.425h12.754C174.011,183.949,163.926,169.314,172.504,150.106z"/>
		<path id="XMLID_321_" style="fill:#332222;" d="M158.22,100.98c-0.023,3.666-4.662,4.658-10.377,4.622
			c-5.715-0.036-10.341-1.085-10.318-4.751c0.023-3.666,4.674-6.609,10.389-6.574S158.243,97.314,158.22,100.98z"/>
		<ellipse id="XMLID_327_" style="fill:#332222;" cx="141.591" cy="91.84" rx="0.878" ry="1.464"/>
		<ellipse id="XMLID_331_" style="fill:#FFFFFF;" cx="141.201" cy="91.502" rx="0.39" ry="0.65"/>
		<ellipse id="XMLID_332_" style="fill:#332222;" cx="153.011" cy="91.84" rx="0.878" ry="1.464"/>
		<ellipse id="XMLID_334_" style="fill:#FFFFFF;" cx="152.621" cy="91.502" rx="0.39" ry="0.65"/>
		<path id="XMLID_336_" style="fill:#F8BDBD;" d="M153.889,104.691c0-1.797-1.829-3.254-4.086-3.254
			c-0.921,0-1.77,0.243-2.453,0.652c-0.683-0.409-1.533-0.652-2.453-0.652c-2.256,0-4.085,1.456-4.086,3.252
			c1.843,0.649,4.314,0.896,7.033,0.913c2.244,0.014,4.32-0.132,6.017-0.534C153.879,104.944,153.889,104.818,153.889,104.691z"/>
		<path id="XMLID_338_" style="fill:#FFFFFF;" d="M138.22,103c0.905,1.181,2.638,1.877,4.841,2.247
			c-0.619-2.055-1.482-4.704-1.832-4.769C140.345,100.313,139.19,101.601,138.22,103z"/>
		<path id="XMLID_348_" style="fill:#FFFFFF;" d="M156.819,103.789c-1.051-1.655-2.482-3.507-3.532-3.311
			c-0.363,0.068-1.274,2.903-1.896,4.984C153.689,105.24,155.606,104.732,156.819,103.789z"/>
		<path id="XMLID_333_" style="fill:#D14B52;" d="M172.504,150.106c0.118-0.164,0.169-0.294,0.169-0.381
			c0,0-6.773-61.596-6.773-61.821c0-0.666-0.052-1.331-0.151-1.991c-1.919,16.985-8.432,56.292-28.509,72.163
			c6.079,1.184,15.412,1.489,28.306-2.124c0,0-2.02,7.696,0.098,15.244s3.94,10.151,3.94,10.151s-4.946-3.124-6.768-1.822
			c-1.822,1.301-1.562,4.425-1.562,4.425h12.754C174.011,183.949,163.926,169.314,172.504,150.106z"/>
	</g>
	<path id="XMLID_226_" style="fill:#F06162;" d="M131.022,116.778c0,0-12.272,13.499-24.053-1.964c0,0-3.927-6.738-4.909-11.96
		l3.191-1.418c0,0,5.32,27.305,24.014,12.119L131.022,116.778z"/>
	<ellipse id="XMLID_210_" style="fill:#F06162;" cx="103.041" cy="101.437" rx="3.682" ry="4.844"/>
	<path id="XMLID_258_" style="fill:#AD464E;" d="M168.65,113.088l0.597,5.443c4.72,6.137-7.633,18.13-10.463,20.743
		c-0.262-0.678-0.952-1.259-1.852-1.47c-1.306-0.306-2.561,0.28-2.802,1.31c-0.031,0.131-0.043,0.263-0.04,0.395
		c-1.646,0.535-2.805,1.812-2.805,3.303c0,1.973,2.028,3.572,4.53,3.572c2.502,0,4.53-1.599,4.53-3.572
		c0,0,8.72-8.116,12.402-15.725C176.428,119.478,168.65,113.088,168.65,113.088z"/>
	<path id="XMLID_313_" style="fill:#3F815B;" d="M97.691,115.662c-3.765,3.108-8.659,6.603-13.784,6.427
		c-18.577-0.638-33.677-10.133-40.043-19.234c-0.472-0.675-1.255-2.722-0.981-4.187c-1.442,1.178-0.277,4.46,0.347,5.352
		c6.366,9.1,21.466,18.596,40.043,19.234c5.125,0.176,10.019-3.319,13.784-6.427c2.671-2.205,5.404-4.509,6.915-7.664
		C102.4,111.737,100.022,113.737,97.691,115.662z"/>
	<path id="XMLID_314_" style="fill:#48A575;" d="M105.008,96.989c-1.458-0.029-2.741,1.062-3.369,2.668l0,0
		c-0.247,0.633-0.393,1.345-0.408,2.101c-0.019,0.956,0.173,1.928,0.607,2.784c0.187,0.368,0.609,0.718,0.751,1.078
		c0.135,0.344-0.185,0.809-0.36,1.156c-0.115,0.227-0.24,0.444-0.369,0.657c0,0,0,0,0,0c-1.237,2.04-3.083,3.482-4.986,4.915
		c-2.153,1.62-4.439,3.105-6.901,4.213c-1.899,0.855-3.964,1.518-6.066,1.518c-10.309,0-35.262-19.927-35.262-19.927
		c-4.064-1.895-5.479-1.002-5.762,0.515l0,0c-0.274,1.465,0.509,3.512,0.981,4.187c6.366,9.1,21.466,18.596,40.043,19.234
		c5.125,0.176,10.019-3.319,13.784-6.427c2.331-1.924,4.709-3.924,6.281-6.499l0,0c0.267-0.436,0.51-0.889,0.726-1.361h0
		c0.169-0.368,0.322-0.748,0.455-1.141c0.935-0.093,1.778-0.645,2.396-1.487h0c0.625-0.851,1.019-1.999,1.045-3.268
		C108.646,99.231,107.041,97.03,105.008,96.989z"/>
	<path id="XMLID_315_" style="fill:#48A575;" d="M104.064,108.409L104.064,108.409c-0.216,0.472-0.459,0.925-0.726,1.361l0,0
		c-0.77,1.261-1.734,2.384-2.79,3.427c1.304-1.215,2.503-2.526,3.424-4.035l0,0c0.267-0.436,0.51-0.889,0.726-1.361h0
		c0.092-0.201,0.178-0.406,0.26-0.613c-0.144,0.037-0.29,0.065-0.439,0.08C104.386,107.661,104.233,108.04,104.064,108.409z"/>
	<g id="XMLID_304_">
		<g id="XMLID_259_">
			<g id="XMLID_271_">
				<path id="XMLID_273_" style="fill:#48A575;" d="M34.702,149.443c-0.004-0.003-0.008-0.005-0.011-0.009
					c-6.179-6.514-6.225-15.87-5.962-16.569c-1.03-6.677,0.196-14.91,0.196-23.817c0-18.759,10.015-34.529,23.59-39.069
					c0.019-0.096,0.04-0.192,0.062-0.287c0.431-1.811,1.304-3.526,2.527-4.965c1.726-2.031,4.632-3.539,7.096-2.518
					c-0.41-0.513-0.829-1.043-1.006-1.671c-0.177-0.628-0.054-1.387,0.474-1.799c0.298-0.233,0.685-0.329,1.064-0.367
					c1.344-0.132,2.73,0.451,3.54,1.488c0.852,1.091,1.038,2.531,1.189,3.9c0.119,1.073,0.111,2.399-0.852,2.953
					c-0.685,0.394-1.601,0.171-2.186-0.34c-0.584-0.511-0.901-1.247-1.144-1.975c-0.088-0.265-0.48-0.381-0.388-0.252
					c-0.137-0.132-0.333-0.199-0.524-0.242c-1.212-0.274-2.516,0.174-3.504,0.929c-0.988,0.755-1.71,1.786-2.367,2.826
					c-0.302,0.479-0.596,0.977-0.859,1.49c1.601-0.319,3.242-0.485,4.914-0.485c0.083,0,0.167,0.001,0.25,0.002
					c0.083-0.001,0.167-0.002,0.25-0.002c4.509,0,8.798,1.205,12.679,3.377c0.77-1.523,1.883-2.871,3.233-3.914
					c2.005-1.548,4.981-2.348,7.024-0.852c-0.269-0.573-0.542-1.165-0.573-1.797c-0.031-0.632,0.24-1.323,0.809-1.599
					c0.322-0.156,0.696-0.164,1.051-0.117c1.258,0.165,2.406,1.014,2.931,2.17c0.552,1.215,0.422,2.617,0.275,3.944
					c-0.115,1.041-0.399,2.293-1.397,2.609c-0.71,0.225-1.502-0.183-1.931-0.792c-0.429-0.609-0.565-1.373-0.636-2.114
					c-0.026-0.269-0.36-0.464-0.303-0.322c-0.098-0.154-0.263-0.26-0.429-0.342c-1.053-0.52-2.341-0.377-3.403,0.123
					c-1.063,0.501-1.939,1.32-2.757,2.162c-0.639,0.658-1.269,1.376-1.781,2.148c10.011,6.779,16.831,20.224,16.831,35.703
					c0,8.259,1.054,15.938,0.386,22.335c0,0,9.265,18.909,6.38,28.205c-2.885,9.296-10.899,21.156-10.899,21.156
					s5.129-6.09,7.052-4.488c1.923,1.603,2.244,7.693,2.244,7.693H83.093c0,0,14.745-27.041,5.129-34.516
					c0,0-14.133,5.667-27.421,5.026c0,0-8.122-0.214-14.428-1.158c0.198,2.319,0.096,4.484-0.463,6.287
					c-2.885,9.296-10.899,21.156-10.899,21.156s5.129-6.09,7.052-4.488c1.923,1.603,2.244,7.693,2.244,7.693H29.561
					C29.561,183.949,44.293,156.933,34.702,149.443z"/>
				<path id="XMLID_274_" style="fill:#48A575;" d="M84.215,69.253c0.012,0.02,0.024,0.04,0.034,0.061
					C84.231,69.289,84.221,69.269,84.215,69.253z"/>
				<path id="XMLID_286_" style="fill:#48A575;" d="M62.891,64.145c0.017,0.017,0.034,0.034,0.049,0.053
					C62.916,64.177,62.901,64.16,62.891,64.145z"/>
			</g>
			<path id="XMLID_257_" style="fill:#3F815B;" d="M28.926,109.048c0-8.121,1.878-15.682,5.108-22.014
				c4.324,16.884,15.102,47.924,34.938,67.125c-2.673,0.297-5.44,0.432-8.172,0.301c0,0-8.122-0.214-14.428-1.158
				c0.198,2.319,0.096,4.484-0.463,6.287c-2.885,9.296-10.899,21.156-10.899,21.156s5.129-6.09,7.052-4.488
				c1.923,1.603,2.244,7.693,2.244,7.693H29.561c0,0,14.732-27.016,5.141-34.507c-0.004-0.003-0.008-0.005-0.011-0.009
				c-6.179-6.514-6.225-15.87-5.962-16.569C27.7,126.188,28.926,117.955,28.926,109.048z"/>
			<path id="XMLID_260_" style="fill:#36674A;" d="M40.252,131.912c0,0,7.546,5.87,7.212,21.543c-0.369-0.049-0.734-0.1-1.092-0.154
				C46.373,153.301,46.022,135.33,40.252,131.912z"/>
			<g id="XMLID_228_">
				<path id="XMLID_269_" style="fill:#332222;" d="M54.037,110.894c0.033,5.291,6.729,6.723,14.977,6.672S83.94,116,83.907,110.708
					c-0.033-5.291-6.746-9.539-14.995-9.488S54.004,105.603,54.037,110.894z"/>
				<ellipse id="XMLID_268_" style="fill:#332222;" cx="78.039" cy="97.702" rx="1.268" ry="2.113"/>
				<ellipse id="XMLID_267_" style="fill:#FFFFFF;" cx="78.602" cy="97.215" rx="0.563" ry="0.938"/>
				<ellipse id="XMLID_266_" style="fill:#332222;" cx="61.556" cy="97.702" rx="1.268" ry="2.113"/>
				<ellipse id="XMLID_265_" style="fill:#FFFFFF;" cx="62.119" cy="97.215" rx="0.563" ry="0.938"/>
				<path id="XMLID_264_" style="fill:#F8BDBD;" d="M60.288,116.251c0-2.594,2.64-4.696,5.897-4.696c1.329,0,2.555,0.35,3.541,0.941
					c0.986-0.591,2.212-0.941,3.541-0.941c3.256,0,5.896,2.101,5.897,4.694c-2.66,0.936-6.226,1.293-10.151,1.318
					c-3.238,0.02-6.235-0.19-8.685-0.771C60.303,116.616,60.288,116.435,60.288,116.251z"/>
				<path id="XMLID_263_" style="fill:#FFFFFF;" d="M82.905,113.81c-1.307,1.705-3.807,2.709-6.987,3.243
					c0.894-2.966,2.138-6.789,2.644-6.883C79.838,109.932,81.505,111.791,82.905,113.81z"/>
				<path id="XMLID_261_" style="fill:#FFFFFF;" d="M56.059,114.949c1.516-2.389,3.582-5.062,5.097-4.779
					c0.523,0.098,1.839,4.191,2.737,7.193C60.577,117.043,57.81,116.31,56.059,114.949z"/>
				<path id="XMLID_227_" style="fill:#3F815B;" d="M63.427,94.464c-1.606-0.859-3.184-1.768-4.733-2.727
					c-0.183-0.114-0.375-0.236-0.477-0.426c-0.088-0.162-0.099-0.353-0.109-0.537c-0.033-0.613-0.066-1.225-0.098-1.838
					c0.525,0.325,0.965,0.786,1.266,1.325c0.027-0.314,0.055-0.628,0.082-0.942c0.646,0.711,1.145,1.556,1.455,2.466
					c0.18-0.373,0.36-0.746,0.54-1.119c0.249,0.565,0.499,1.13,0.748,1.695c0.056-0.346,0.113-0.693,0.169-1.039
					c0.37,1.011,0.739,2.021,1.109,3.032"/>
				<path id="XMLID_230_" style="fill:#3F815B;" d="M76.181,95.04c1.606-0.859,3.184-1.768,4.733-2.727
					c0.183-0.114,0.375-0.236,0.477-0.426c0.088-0.162,0.099-0.353,0.109-0.537c0.033-0.613,0.066-1.225,0.098-1.838
					c-0.525,0.325-0.965,0.786-1.266,1.325c-0.027-0.314-0.055-0.628-0.082-0.942c-0.646,0.711-1.145,1.556-1.455,2.465
					c-0.18-0.373-0.36-0.746-0.54-1.119c-0.249,0.565-0.499,1.13-0.748,1.695c-0.056-0.346-0.113-0.693-0.169-1.039
					c-0.37,1.011-0.739,2.021-1.109,3.032"/>
			</g>
		</g>
		<path id="XMLID_312_" style="fill:#3F815B;" d="M97.691,115.662c-3.765,3.108-8.659,6.603-13.784,6.427
			c-18.577-0.638-33.677-10.133-40.043-19.234c-0.472-0.675-1.255-2.722-0.981-4.187l0,0c-1.442,1.178-0.277,4.46,0.347,5.352
			c6.366,9.1,21.466,18.596,40.043,19.234c5.125,0.176,10.019-3.319,13.784-6.427c2.671-2.205,5.404-4.509,6.915-7.664l0,0
			C102.4,111.737,100.022,113.737,97.691,115.662z"/>
		<path id="XMLID_310_" style="fill:#76C499;" d="M48.011,98.761c0,0,24.953,19.927,35.262,19.927c2.102,0,4.167-0.663,6.066-1.518
			c2.462-1.108,4.748-2.593,6.901-4.213c1.137-0.856,2.253-1.716,3.232-2.705c-0.815,0.742-1.699,1.421-2.597,2.097
			c-2.153,1.62-4.439,3.105-6.901,4.213c-1.899,0.855-3.964,1.518-6.066,1.518c-10.309,0-35.262-19.927-35.262-19.927
			c-3.345-1.56-4.895-1.23-5.496-0.219C43.994,97.484,45.494,97.587,48.011,98.761z"/>
		<path id="XMLID_306_" style="fill:#48A575;" d="M105.008,96.989c-0.975-0.019-1.87,0.464-2.545,1.265
			c-0.619,0.472-1.129,1.169-1.458,2.011c-0.247,0.633-0.393,1.346-0.408,2.101c-0.019,0.956,0.173,1.928,0.607,2.784
			c0.187,0.368,0.609,0.718,0.751,1.078c0.135,0.344-0.185,0.809-0.36,1.156c-0.115,0.227-0.24,0.444-0.369,0.657l0,0
			c-0.498,0.821-1.095,1.545-1.755,2.211c-0.978,0.988-2.094,1.849-3.232,2.705c-2.153,1.62-4.439,3.105-6.901,4.213
			c-1.899,0.855-3.964,1.518-6.066,1.518c-10.309,0-35.262-19.927-35.262-19.927c-2.517-1.174-4.017-1.277-4.862-0.826
			c-0.519,0.277-0.792,0.764-0.9,1.341c-0.274,1.465,0.509,3.512,0.981,4.187c6.366,9.1,21.466,18.596,40.043,19.234
			c5.125,0.176,10.019-3.319,13.784-6.427c1.189-0.982,2.39-1.984,3.491-3.071c1.056-1.044,2.02-2.167,2.79-3.427l0,0
			c0.267-0.436,0.51-0.889,0.726-1.361h0c0.169-0.368,0.322-0.748,0.455-1.141c0.149-0.015,0.295-0.042,0.439-0.08
			c0.67-0.174,1.278-0.587,1.768-1.169c0.303-0.231,0.58-0.515,0.822-0.845h0c0.625-0.851,1.019-1.999,1.045-3.268
			C108.646,99.231,107.041,97.03,105.008,96.989z"/>
		
			<ellipse id="XMLID_303_" transform="matrix(0.2103 -0.9776 0.9776 0.2103 -13.9923 178.7207)" style="fill:#48A575;" cx="103.628" cy="98.021" rx="2.113" ry="1.594"/>
		<path id="XMLID_316_" style="fill:#3F815B;" d="M106.726,106.019c0.303-0.231,0.58-0.515,0.822-0.845h0
			c0.625-0.851,1.019-1.999,1.045-3.268c0.002-0.107,0.001-0.213-0.003-0.319c-1.562,4.368-3.633,5.602-3.633,5.602
			C105.628,107.014,106.236,106.601,106.726,106.019z"/>
	</g>
	<path id="XMLID_231_" style="fill:#D14B52;" d="M102.703,106.26c0.41-0.796,0.441-1.911,0.365-2.854
		c-0.118-1.454-0.26-2.98-1.076-4.19c-0.372-0.55-0.881-0.999-1.461-1.32c-0.72,0.884-1.171,2.143-1.171,3.541
		C99.36,103.962,100.828,106.035,102.703,106.26z"/>
	
		<ellipse id="XMLID_305_" transform="matrix(0.2103 -0.9776 0.9776 0.2103 -13.6289 180.5016)" style="fill:#D14B52;" cx="104.912" cy="98.687" rx="2.113" ry="1.594"/>
	<g id="XMLID_381_">
		<path id="XMLID_319_" style="fill:#A53853;" d="M137.878,129.944h-59.31c-2.16,0-3.928-1.767-3.928-3.928v0
			c0-2.16,1.767-3.928,3.928-3.928h59.31c2.16,0,3.928,1.767,3.928,3.928v0C141.806,128.177,140.039,129.944,137.878,129.944z"/>
		<rect id="XMLID_328_" x="93.066" y="129.944" style="fill:#56192E;" width="29.788" height="54.005"/>
		<path id="XMLID_322_" style="fill:#751B35;" d="M142.248,132.668c-0.148-0.568-0.292-1.134-0.402-1.715
			c-0.07-0.368-0.263-1.109-0.372-1.78c-0.293,0.467-0.751,0.771-1.265,0.771H76.238c-0.056,0-0.111-0.004-0.165-0.011
			c-0.012-0.001-0.023-0.005-0.034-0.006c-0.043-0.007-0.085-0.014-0.126-0.024c-0.01-0.003-0.02-0.007-0.03-0.01
			c-0.042-0.012-0.084-0.025-0.125-0.041c-0.007-0.003-0.013-0.006-0.02-0.009c-0.044-0.018-0.087-0.038-0.129-0.06
			c-0.003-0.002-0.007-0.004-0.01-0.006c-0.045-0.025-0.089-0.051-0.132-0.081c-0.001,0-0.001-0.001-0.002-0.001
			c-0.137-0.094-0.262-0.213-0.37-0.351l0,0c0.119,1.012,0.1,2.048-0.066,3.05c-0.266,1.6-0.884,3.076-1.281,4.634
			c-0.397,1.559-0.553,3.33,0.079,4.766s2.282,2.25,3.36,1.294c0.68-0.604,0.947-1.693,1.033-2.719
			c0.197-2.368-0.337-4.743-0.274-7.122c0.034-1.282,0.663-2.929,1.678-2.636c0.703,0.203,0.997,1.269,0.927,2.153
			c-0.069,0.884-0.372,1.735-0.348,2.622c0.024,0.887,0.582,1.87,1.295,1.732c0.826-0.161,1.009-1.499,1.027-2.527
			c0.018-1.028,0.328-2.376,1.164-2.366c0.641,0.007,1.042,0.895,1.086,1.682s-0.122,1.591,0.032,2.356
			c0.216,1.075,1.261,1.88,2.067,1.386c0.937-0.575,0.915-2.189,0.838-3.473c-0.078-1.283,0.179-2.967,1.214-3.16
			c0.477-0.089,0.956,0.218,1.288,0.647c0.907,1.172,0.855,3.038,0.488,4.592c-0.366,1.554-0.99,3.046-1.044,4.662
			c-0.053,1.616,0.738,3.458,2.049,3.596c1.341,0.141,2.381-1.588,2.513-3.235c0.132-1.647-0.338-3.266-0.524-4.905
			c-0.187-1.639,0.008-3.552,1.098-4.523c0.507-0.451,1.003,2.786,0.999,3.046c-0.018,1.287-0.555,2.451-0.61,3.718
			c-0.026,0.606,0.104,1.25,0.457,1.676c0.353,0.425,0.955,0.559,1.352,0.198c0.266-0.241,0.397-0.643,0.495-1.03
			c0.253-1.007,0.36-2.073,0.306-3.126c-0.06-1.169-0.384-2.34-0.148-3.51c0.225-1.116,1.282-2.088,2.081-1.491
			c0.636,0.475,0.689,1.588,0.539,2.484c-0.131,0.783-0.337,1.536-0.261,2.347c0.01,0.11,0.027,0.226,0.088,0.307
			c0.063,0.085,0.159,0.115,0.25,0.142c0.252,0.074,0.514,0.147,0.766,0.074c0.898-0.26,0.472-2.319,0.497-3.093
			c0.034-1.019,0.717-2.228,1.491-1.861c0.96,1.472,0.523,3.607,0.209,5.454c-0.314,1.847-0.239,4.24,1.154,5.03
			c1.165,0.66,2.601-0.373,3.128-1.811c0.527-1.437,0.372-3.104,0.107-4.647c-0.19-1.11-0.427-2.301-0.064-3.344
			c0.338-0.973,1.212-1.622,2.07-1.538c0.858,0.084,1.637,0.895,1.846,1.922c0.228,1.124-0.182,2.304-0.086,3.457
			c0.096,1.153,1.281,2.276,1.915,1.42c0.874-1.18-1.104-3.453-0.095-4.458c0.553-0.551,1.42,0.134,1.625,0.973
			c0.205,0.838,0.026,1.74,0.072,2.614c0.046,0.874,0.488,1.869,1.2,1.868c0.949-0.001,1.243-1.643,0.955-2.754
			s-0.846-2.278-0.492-3.359c0.518-1.578,2.609-1.306,3.385,0.103c0.777,1.409,0.634,3.268,0.461,4.957
			c-0.162,1.58-0.324,3.16-0.486,4.739c-0.144,1.402-0.218,3.05,0.641,3.988c0.892,0.974,2.552,0.387,2.887-1.021
			c0.216-0.907-0.062-1.872-0.373-2.737c-0.31-0.865-0.665-1.762-0.604-2.707c0.029-0.454,0.358-1.355,0.821-0.669
			c0.092,0.137,0.129,0.315,0.164,0.488c0.173,0.868,0.223,1.992,0.815,2.61c0.23,0.24,0.595,0.171,0.835-0.054
			c0.635-0.597,0.791-1.842,0.671-2.746c-0.172-1.295-0.873-2.373-1.363-3.539c-0.49-1.166-0.743-2.695-0.071-3.715
			c0.591-0.896,1.745-1.02,2.561-0.451c0.816,0.569,1.306,1.685,1.461,2.822c0.134,0.981,0.05,2.006,0.283,2.958
			s0.952,1.857,1.747,1.67c0.819-0.193,1.204-1.4,1.164-2.424c-0.04-1.024-0.353-2.023-0.297-3.046
			c0.056-1.022,0.711-2.133,1.534-1.972c0.967,0.189,1.184,1.76,1.168,2.963c-0.012,0.861-0.023,1.723-0.035,2.585
			c-0.011,0.816,0.031,1.767,0.572,2.239c0.842,0.735,2.017-0.499,2.124-1.762c0.107-1.263-0.375-2.483-0.487-3.745
			c-0.053-0.603,0.013-1.3,0.408-1.664c0.647-0.596,1.412,0.225,1.696,0.937c0.476,1.195-0.046,2.479,0.075,3.737
			c0.081,0.846,0.408,1.701,1.004,2.137c1.152,0.844,2.196-0.176,2.624-1.49C142.577,136.056,142.695,134.384,142.248,132.668z"/>
	</g>
</g>
<g id="XMLID_311_">
	<polygon id="XMLID_337_" style="fill:#31565B;" points="110.171,33.895 101.641,33.895 101.641,39.411 105.324,39.411 
		105.324,53.791 106.488,53.791 106.488,39.411 110.171,39.411 	"/>
	<g id="XMLID_317_">
		<circle id="XMLID_330_" style="fill:#FDF17A;" cx="105.906" cy="67.133" r="4.374"/>
		<polygon id="XMLID_329_" style="fill:#31565B;" points="115.24,53.791 105.906,53.791 96.572,53.791 92.126,67.133 
			105.906,67.133 119.685,67.133 		"/>
	</g>
</g>
<path id="XMLID_350_" style="fill:#93BDD0;" d="M188.836,186.895H11.164c-0.81,0-1.473-0.663-1.473-1.473l0,0
	c0-0.81,0.663-1.473,1.473-1.473h177.672c0.81,0,1.473,0.663,1.473,1.473l0,0C190.309,186.232,189.646,186.895,188.836,186.895z"/>
<path id="XMLID_351_" style="fill:#48A575;" d="M102.96,122.236h-6.062c-1.074,0-1.952-0.879-1.952-1.952l0,0
	c0-1.074,1.555-2.716,2.823-1.871c0,0,0.164-0.846,2.229-0.846c2.148,0,2.353,0.764,2.353,0.764
	c1.391-0.764,2.562,0.879,2.562,1.952l0,0C104.912,121.357,104.034,122.236,102.96,122.236z"/>
<path id="XMLID_288_" style="fill:#3F815B;" d="M98.429,122.236c0.452-0.559,0.518-1.406,0.271-2.061
	c-0.137-0.365-0.664-0.152-0.498,0.21c0.302,0.658,0.115,1.274-0.251,1.851H98.429z"/>
<path id="XMLID_287_" style="fill:#3F815B;" d="M102.156,120.255c0.064,0.796-0.243,1.387-0.71,1.981h0.54
	c0.494-0.512,0.721-1.292,0.695-1.981C102.669,119.916,102.129,119.92,102.156,120.255z"/>
<g id="XMLID_289_">
	<path id="XMLID_291_" style="fill:#3F815B;" d="M104.559,119.136c-0.449-0.751-1.28-1.315-2.209-0.804c0,0-0.205-0.764-2.353-0.764
		c-2.065,0-2.229,0.846-2.229,0.846c-1.056-0.704-2.311,0.317-2.7,1.299c0.631-0.247,1.651-0.533,2.373-0.399
		c0.328,0.061,0.506,0.1,0.594,0.125c0.415-0.186,2.318-0.95,4.024-0.159C102.059,119.279,103.398,118.661,104.559,119.136z"/>
	<path id="XMLID_292_" style="fill:#3F815B;" d="M98.035,119.438c-0.054,0.024-0.084,0.039-0.084,0.039
		S98.245,119.497,98.035,119.438z"/>
</g>
</svg>
