<?xml version="1.0" encoding="iso-8859-1"?>
<!-- Generator: Adobe Illustrator 21.1.0, SVG Export Plug-In . SVG Version: 6.00 Build 0)  -->
<svg version="1.1" id="Layer_1" xmlns="http://www.w3.org/2000/svg" xmlns:xlink="http://www.w3.org/1999/xlink" x="0px" y="0px"
	 viewBox="0 0 200 200" style="enable-background:new 0 0 200 200;" xml:space="preserve">
<rect x="-15" y="-21.75" style="fill:#8FAA9B;" width="225" height="223.25"/>
<path style="fill:none;stroke:#231F20;stroke-miterlimit:10;" d="M-32.25,57.031"/>
<g>
	<path style="fill:#E2ECF1;" d="M124.808,84.359c-0.142-0.227-0.975-0.614-1.85-0.859l-5.287-1.483
		c-0.875-0.245-1.613-1.189-1.639-2.098l-0.732-25.617c-0.026-0.909-0.476-1.652-1.001-1.652c-0.524,0-0.975,0.743-1,1.652
		l-0.732,25.617c-0.026,0.909-0.764,1.853-1.639,2.098l-5.287,1.483c-0.875,0.245-1.708,0.632-1.85,0.859
		c-0.142,0.227,0.485,0.413,1.394,0.413h18.226C124.322,84.772,124.95,84.586,124.808,84.359z"/>
	<path style="fill:#F0F4F7;" d="M132.096,28.592H96.505c-0.909,0-1.242,0.62-0.741,1.378l17.624,26.635
		c0.501,0.758,1.322,0.758,1.824,0l17.624-26.635C133.338,29.212,133.004,28.592,132.096,28.592z"/>
	<path style="fill:#E5D39D;" d="M126.087,34.057h-23.574c-0.909,0-1.23,0.612-0.712,1.359l11.558,16.701
		c0.517,0.747,1.364,0.747,1.881,0l11.559-16.701C127.316,34.669,126.996,34.057,126.087,34.057z"/>
	<g>
		<polygon style="fill:#B99664;" points="127.702,23.3 127.925,23.429 125.913,27.644 115.131,46.318 112.487,50.169 112.264,50.04 
			114.276,45.825 125.058,27.151 		"/>
		<path style="fill:#BED630;" d="M113.221,41.406c-1.937,3.356-0.92,4.833,0.809,5.831c1.73,0.999,3.518,1.141,5.456-2.215
			c1.937-3.355,0.92-4.833-0.81-5.832C116.946,38.192,115.158,38.05,113.221,41.406z"/>
	</g>
	<path style="opacity:0.05;fill:#231F20;" d="M132.096,28.592H114.3v56.18h9.113c0.909,0,1.537-0.186,1.394-0.413
		c-0.142-0.227-0.975-0.614-1.85-0.859l-5.287-1.483c-0.875-0.245-1.613-1.189-1.639-2.098l-0.672-23.537l17.476-26.411
		C133.338,29.212,133.004,28.592,132.096,28.592z"/>
</g>
<g>
	<g>
		<path style="fill:#F6921E;" d="M19.443,26.55c-3.097-3.097-5.073-8.938,0.081-14.093c5.156-5.155,10.996-3.178,14.093-0.082
			L19.443,26.55z"/>
		<path style="fill:#FFE191;" d="M20.757,25.236c-2.523-2.524-2.45-7.62,0.739-10.808c3.189-3.188,8.285-3.262,10.808-0.739
			L20.757,25.236z"/>
		<path style="fill:#FCB813;" d="M22.213,17.477c-1.01-1.01-0.623-1.667,0.022-2.31c0.643-0.644,1.3-1.03,2.31-0.021
			c1.009,1.009,1.989,3.033,1.345,3.676C25.246,19.466,23.223,18.486,22.213,17.477z"/>
		<g>
			<path style="fill:#FCB813;" d="M21.165,21.935c-1.104,0-1.252-0.571-1.252-1.275c0-0.704,0.147-1.275,1.252-1.275
				c1.105,0,2.748,0.57,2.748,1.275C23.914,21.363,22.27,21.935,21.165,21.935z"/>
			<path style="fill:#FCB813;" d="M29.002,14.098c0.001-1.104-0.57-1.252-1.275-1.252c-0.704,0-1.275,0.147-1.274,1.251
				c0,1.105,0.57,2.748,1.274,2.748C28.431,16.846,29.002,15.202,29.002,14.098z"/>
		</g>
	</g>
	<g>
		<path style="fill:#E9EEF1;" d="M41.801,84.391c-0.142-0.21-0.978-0.567-1.858-0.795l-5.269-1.363
			c-0.88-0.227-1.623-1.157-1.652-2.066l-0.724-23.367c-0.028-0.908-0.48-1.652-1.005-1.652c-0.524,0-0.976,0.743-1.005,1.652
			l-0.724,23.367c-0.028,0.909-0.771,1.838-1.651,2.066l-5.27,1.363c-0.88,0.228-1.716,0.585-1.858,0.795
			c-0.142,0.209,0.485,0.381,1.394,0.381h18.227C41.316,84.772,41.943,84.6,41.801,84.391z"/>
		<path style="fill:#F0F4F7;" d="M31.293,56.9c-5.365,0-9.391-6.034-9.391-18.819c0-8.238,2.865-19.179,2.865-19.179h6.526h6.527
			c0,0,2.865,10.941,2.865,19.179C40.685,50.867,36.658,56.9,31.293,56.9z"/>
		<path style="fill:#FCB813;" d="M25.188,24.551c-0.77,3.834-1.634,9.116-1.634,13.531c0,10.588,2.966,17.166,7.739,17.166
			s7.739-6.578,7.739-17.166c0-4.419-0.864-9.699-1.633-13.531H25.188z"/>
		<path style="opacity:0.05;fill:#231F20;" d="M41.801,84.391c-0.142-0.21-0.978-0.567-1.858-0.795l-5.269-1.363
			c-0.88-0.227-1.623-1.157-1.652-2.066l-0.723-23.342c4.855-0.721,8.386-6.771,8.386-18.745c0-8.238-2.865-19.179-2.865-19.179
			h-6.527v65.869h9.114C41.316,84.772,41.943,84.6,41.801,84.391z"/>
	</g>
</g>
<g>
	<path style="fill:#E9EEF1;" d="M76.567,84.276c-0.189-0.273-1.044-0.747-1.899-1.054l-3.91-1.402
		c-0.856-0.307-1.625-1.299-1.71-2.204l-0.378-4.036c-0.085-0.905-0.875-1.645-1.757-1.645c-0.882,0-1.672,0.74-1.757,1.645
		l-0.378,4.036c-0.085,0.905-0.854,1.896-1.71,2.204l-3.91,1.402c-0.855,0.307-1.71,0.781-1.899,1.054
		c-0.189,0.273,0.4,0.496,1.309,0.496h16.69C76.167,84.772,76.756,84.549,76.567,84.276z"/>
	<path style="fill:#F0F4F7;" d="M66.913,75.079c-5.953,0-7.708-3.358-8.395-9.845c-0.687-6.487-3.206-34.955-3.206-34.955h11.601
		h11.601c0,0-2.519,28.468-3.205,34.955C74.621,71.721,72.866,75.079,66.913,75.079z"/>
	<path style="fill:#00BDD6;" d="M57.118,31.932c0.565,6.359,2.466,27.675,3.043,33.128c0.468,4.426,2.467,6.127,6.752,6.127
		c4.285,0,6.284-1.701,6.752-6.127c0.577-5.453,2.478-26.769,3.043-33.128H57.118z"/>
	<path style="opacity:0.05;fill:#231F20;" d="M75.308,65.234c0.687-6.487,3.205-34.955,3.205-34.955H66.913v54.493h8.345
		c0.909,0,1.498-0.223,1.309-0.496c-0.189-0.273-1.044-0.747-1.899-1.054l-3.91-1.402c-0.856-0.307-1.625-1.299-1.71-2.204
		l-0.378-4.036c-0.02-0.213-0.082-0.415-0.172-0.602C73.18,74.398,74.687,71.1,75.308,65.234z"/>
	<polygon style="fill:#58595B;" points="62.463,31.932 64.269,31.932 62.702,21.96 49.016,15.445 48.301,16.948 61.038,23.011 	"/>
</g>
<g>
	<g>
		<path style="fill:#D4DF5B;" d="M170.157,30.029c3.281-3.281,9.469-5.374,14.931,0.086c5.462,5.462,3.368,11.65,0.086,14.931
			L170.157,30.029z"/>
		<path style="fill:#E8EFC0;" d="M171.549,31.421c2.674-2.673,8.072-2.595,11.451,0.783c3.378,3.378,3.456,8.777,0.783,11.451
			L171.549,31.421z"/>
		<path style="fill:#D4DF5B;" d="M179.77,32.964c1.07-1.07,1.765-0.66,2.447,0.023c0.682,0.681,1.091,1.377,0.022,2.447
			c-1.069,1.069-3.214,2.108-3.895,1.426C177.662,36.178,178.7,34.034,179.77,32.964z"/>
		<g>
			<path style="fill:#D4DF5B;" d="M175.047,31.853c0-1.169,0.605-1.326,1.35-1.326c0.747,0,1.351,0.156,1.351,1.326
				c0,1.171-0.604,2.912-1.35,2.911C175.652,34.766,175.047,33.024,175.047,31.853z"/>
			<path style="fill:#D4DF5B;" d="M183.35,40.157c1.17,0.001,1.326-0.604,1.326-1.35c0-0.746-0.156-1.351-1.326-1.35
				c-1.171,0-2.912,0.604-2.911,1.35C180.438,39.552,182.179,40.157,183.35,40.157z"/>
		</g>
	</g>
	<path style="fill:#E9EEF1;" d="M168.235,84.138c-0.183-0.348-1.006-0.949-1.829-1.335l-3.542-1.662
		c-0.823-0.386-1.548-1.444-1.612-2.351l-1.551-22.088h-2.571l-1.551,22.088c-0.064,0.907-0.789,1.965-1.612,2.351l-3.542,1.662
		c-0.823,0.387-1.646,0.987-1.829,1.335c-0.183,0.349,0.41,0.634,1.319,0.634h17.001C167.825,84.772,168.419,84.487,168.235,84.138z
		"/>
	<path style="fill:#F0F4F7;" d="M158.416,58.568c-4.735,0-7.135-3.4-8.468-7.334c-1.334-3.934-3.667-6.001-7.868-8.267
		c-4.2-2.267-4.467-7.068-4.467-7.068h20.803h20.803c0,0-0.267,4.801-4.468,7.068c-4.2,2.267-6.534,4.334-7.867,8.267
		C165.55,55.168,163.15,58.568,158.416,58.568z"/>
	<path style="fill:#00BDD6;" d="M142.362,40.699c0.217,0.16,0.445,0.312,0.698,0.449c4.269,2.303,7.237,4.683,8.843,9.422
		c1.802,5.317,4.579,5.932,6.512,5.932c1.932,0,4.709-0.615,6.512-5.932c1.607-4.739,4.574-7.119,8.843-9.422
		c0.254-0.137,0.482-0.29,0.699-0.449H142.362z"/>
	<path style="opacity:0.05;fill:#231F20;" d="M158.416,84.772h8.501c0.909,0,1.502-0.285,1.319-0.634
		c-0.183-0.348-1.006-0.949-1.829-1.335l-3.542-1.662c-0.823-0.386-1.548-1.444-1.612-2.351l-1.428-20.338
		c3.812-0.61,5.866-3.696,7.06-7.217c1.333-3.934,3.667-6.001,7.867-8.267c4.201-2.267,4.468-7.068,4.468-7.068h-20.803V84.772z"/>
</g>
<g id="XMLID_381_">
	<path id="XMLID_319_" style="fill:#A53853;" d="M178.45,107.033H13.998c-3.492,0-6.349-2.857-6.349-6.349v-9.562
		c0-3.492,2.857-6.349,6.349-6.349H178.45c3.492,0,6.349,2.857,6.349,6.349v9.562C184.799,104.176,181.942,107.033,178.45,107.033z"
		/>
	<rect id="XMLID_328_" x="56.247" y="107.033" style="fill:#56192E;" width="78.566" height="153.044"/>
	<path id="XMLID_322_" style="fill:#751B35;" d="M185.964,114.752c-0.391-1.61-0.769-3.212-1.061-4.86
		c-0.184-1.042-0.695-3.143-0.981-5.044c-0.772,1.324-1.98,2.185-3.336,2.185H11.862c-0.147,0-0.292-0.01-0.435-0.03
		c-0.031-0.004-0.06-0.013-0.091-0.018c-0.112-0.019-0.224-0.039-0.333-0.069c-0.027-0.007-0.053-0.019-0.08-0.027
		c-0.112-0.034-0.223-0.071-0.331-0.116c-0.018-0.008-0.035-0.018-0.053-0.026c-0.116-0.051-0.23-0.106-0.341-0.17
		c-0.009-0.005-0.018-0.012-0.027-0.017c-0.119-0.07-0.236-0.146-0.349-0.229c-0.002-0.001-0.003-0.002-0.005-0.004
		c-0.362-0.268-0.69-0.604-0.977-0.995l0,0c0.314,2.867,0.264,5.804-0.175,8.643c-0.701,4.534-2.331,8.717-3.377,13.133
		c-1.046,4.417-1.459,9.437,0.209,13.507s6.02,6.377,8.861,3.668c1.794-1.711,2.499-4.798,2.724-7.706
		c0.521-6.71-0.889-13.44-0.722-20.181c0.09-3.632,1.748-8.301,4.427-7.47c1.854,0.575,2.628,3.597,2.446,6.101
		c-0.182,2.504-0.981,4.916-0.917,7.431c0.064,2.514,1.535,5.3,3.416,4.907c2.178-0.455,2.661-4.248,2.708-7.161
		c0.047-2.912,0.866-6.732,3.071-6.705c1.691,0.021,2.747,2.538,2.863,4.766c0.116,2.228-0.322,4.51,0.083,6.678
		c0.57,3.046,3.326,5.328,5.451,3.927c2.47-1.629,2.414-6.205,2.21-9.841c-0.205-3.637,0.471-8.409,3.201-8.956
		c1.258-0.252,2.52,0.617,3.397,1.835c2.392,3.322,2.254,8.61,1.288,13.013c-0.967,4.403-2.612,8.632-2.752,13.212
		c-0.141,4.581,1.947,9.801,5.405,10.192c3.538,0.4,6.28-4.499,6.628-9.167c0.348-4.668-0.89-9.256-1.383-13.901
		c-0.493-4.645,0.021-10.066,2.896-12.818c1.337-1.279,2.645,7.896,2.635,8.633c-0.048,3.648-1.464,6.946-1.608,10.537
		c-0.069,1.719,0.275,3.543,1.205,4.749c0.93,1.205,2.518,1.583,3.566,0.56c0.7-0.684,1.048-1.821,1.305-2.92
		c0.666-2.855,0.95-5.875,0.806-8.857c-0.159-3.312-1.012-6.631-0.389-9.945c0.594-3.161,3.382-5.916,5.489-4.225
		c1.678,1.346,1.818,4.5,1.422,7.04c-0.346,2.218-0.888,4.354-0.688,6.65c0.027,0.311,0.072,0.64,0.231,0.871
		c0.166,0.241,0.42,0.327,0.66,0.403c0.664,0.208,1.356,0.417,2.02,0.211c2.368-0.737,1.245-6.573,1.312-8.765
		c0.089-2.889,1.891-6.315,3.933-5.273c2.533,4.171,1.379,10.222,0.552,15.456c-0.827,5.234-0.631,12.015,3.044,14.254
		c3.071,1.871,6.861-1.058,8.251-5.131c1.39-4.073,0.98-8.796,0.283-13.168c-0.502-3.145-1.125-6.522-0.169-9.478
		c0.892-2.758,3.196-4.598,5.459-4.36c2.263,0.238,4.318,2.536,4.868,5.446c0.602,3.186-0.479,6.531-0.226,9.797
		c0.253,3.267,3.377,6.451,5.051,4.023c2.305-3.345-2.911-9.784-0.251-12.634c1.459-1.563,3.744,0.381,4.285,2.757
		c0.541,2.376,0.069,4.931,0.191,7.407c0.123,2.476,1.287,5.297,3.165,5.293c2.502-0.004,3.277-4.656,2.52-7.806
		c-0.758-3.149-2.232-6.456-1.296-9.52c1.366-4.473,6.88-3.702,8.928,0.292c2.048,3.993,1.672,9.262,1.215,14.048
		c-0.428,4.477-0.855,8.954-1.283,13.431c-0.38,3.974-0.575,8.643,1.692,11.303c2.352,2.759,6.732,1.096,7.615-2.892
		c0.569-2.571-0.165-5.306-0.983-7.757c-0.818-2.451-1.753-4.992-1.592-7.672c0.077-1.286,0.944-3.839,2.166-1.896
		c0.243,0.387,0.341,0.894,0.432,1.382c0.458,2.459,0.587,5.646,2.149,7.396c0.606,0.679,1.57,0.485,2.202-0.152
		c1.676-1.691,2.087-5.219,1.77-7.782c-0.454-3.671-2.303-6.724-3.596-10.029c-1.292-3.305-1.96-7.638-0.187-10.528
		c1.558-2.538,4.603-2.891,6.755-1.279c2.152,1.612,3.446,4.776,3.854,7.998c0.352,2.78,0.132,5.684,0.747,8.383
		c0.615,2.7,2.512,5.261,4.608,4.732c2.159-0.546,3.176-3.968,3.07-6.868c-0.106-2.901-0.931-5.733-0.783-8.631
		c0.148-2.897,1.875-6.045,4.046-5.588c2.55,0.537,3.123,4.988,3.081,8.398c-0.031,2.441-0.061,4.883-0.092,7.324
		c-0.029,2.311,0.081,5.006,1.508,6.344c2.222,2.082,5.319-1.414,5.601-4.993c0.282-3.579-0.99-7.036-1.284-10.613
		c-0.141-1.709,0.034-3.684,1.075-4.715c1.705-1.689,3.725,0.636,4.472,2.655c1.255,3.388-0.122,7.026,0.197,10.59
		c0.214,2.399,1.077,4.819,2.648,6.056c3.038,2.393,5.791-0.499,6.921-4.223C186.833,124.353,187.144,119.615,185.964,114.752z"/>
</g>
</svg>
