<?xml version="1.0" encoding="iso-8859-1"?>
<!-- Generator: Adobe Illustrator 21.1.0, SVG Export Plug-In . SVG Version: 6.00 Build 0)  -->
<svg version="1.1" id="Layer_1" xmlns="http://www.w3.org/2000/svg" xmlns:xlink="http://www.w3.org/1999/xlink" x="0px" y="0px"
	 viewBox="0 0 200 200" style="enable-background:new 0 0 200 200;" xml:space="preserve">
<rect x="-117" y="-1.75" style="fill:#E3D4B0;" width="319.5" height="152.855"/>
<rect x="-12.708" y="110.131" transform="matrix(0.9667 -0.2558 0.2558 0.9667 -39.0858 32.3988)" style="fill:#3A3730;" width="235.411" height="112.625"/>
<g>
	<g>
		<path style="fill:#FFFFFF;" d="M24.537,81.688v11.401c0,4.527,3.67,8.197,8.197,8.197h44.359c4.527,0,8.197-3.67,8.197-8.197
			V81.688c0-3.587-2.908-6.495-6.495-6.495H31.033C27.446,75.193,24.537,78.101,24.537,81.688z"/>
		<path style="fill:#E8E7E7;" d="M78.794,75.193h-5.55c3.587,0,6.495,2.908,6.495,6.495v11.401c0,4.527-3.67,8.197-8.197,8.197h5.55
			c4.527,0,8.197-3.67,8.197-8.197V81.688C85.289,78.101,82.381,75.193,78.794,75.193z"/>
		<path style="fill:#1C164B;" d="M77.093,101.889H32.734c-4.852,0-8.8-3.948-8.8-8.8V81.688c0-3.914,3.184-7.098,7.098-7.098h47.761
			c3.914,0,7.098,3.184,7.098,7.098v11.401C85.893,97.942,81.945,101.889,77.093,101.889z M31.033,75.796
			c-3.249,0-5.892,2.643-5.892,5.892v11.401c0,4.187,3.406,7.593,7.593,7.593h44.359c4.187,0,7.593-3.406,7.593-7.593V81.688
			c0-3.249-2.643-5.892-5.892-5.892H31.033z"/>
		<g>
			<path style="fill:#DBDBDA;" d="M75.136,97.437c-0.366,0-0.664-0.297-0.664-0.664c0-0.524-0.426-0.95-0.95-0.95
				c-0.524,0-0.95,0.426-0.95,0.95c0,0.366-0.297,0.664-0.664,0.664c-0.366,0-0.664-0.297-0.664-0.664
				c0-1.256,1.022-2.277,2.277-2.277c1.256,0,2.277,1.022,2.277,2.277C75.799,97.14,75.502,97.437,75.136,97.437z"/>
			<path style="fill:#DBDBDA;" d="M68.241,94.508c-0.366,0-0.664-0.297-0.664-0.664c0-0.524-0.426-0.95-0.95-0.95
				c-0.524,0-0.95,0.426-0.95,0.95c0,0.366-0.297,0.664-0.664,0.664c-0.366,0-0.664-0.297-0.664-0.664
				c0-1.256,1.022-2.277,2.277-2.277c1.256,0,2.277,1.022,2.277,2.277C68.905,94.21,68.608,94.508,68.241,94.508z"/>
			<path style="fill:#DBDBDA;" d="M42.9,96.121c-0.366,0-0.664-0.297-0.664-0.664c0-0.524-0.426-0.95-0.95-0.95
				c-0.524,0-0.95,0.426-0.95,0.95c0,0.366-0.297,0.664-0.664,0.664s-0.664-0.297-0.664-0.664c0-1.256,1.022-2.277,2.277-2.277
				c1.256,0,2.277,1.022,2.277,2.277C43.564,95.824,43.266,96.121,42.9,96.121z"/>
			<path style="fill:#DBDBDA;" d="M53.732,92.244c-0.366,0-0.664-0.297-0.664-0.664c0-0.524-0.426-0.95-0.95-0.95
				c-0.524,0-0.95,0.426-0.95,0.95c0,0.366-0.297,0.664-0.664,0.664c-0.366,0-0.664-0.297-0.664-0.664
				c0-1.256,1.022-2.277,2.277-2.277c1.256,0,2.277,1.022,2.277,2.277C54.396,91.947,54.099,92.244,53.732,92.244z"/>
			<path style="fill:#DBDBDA;" d="M80.696,91.437c-0.366,0-0.664-0.297-0.664-0.664c0-0.524-0.426-0.95-0.95-0.95
				c-0.524,0-0.95,0.426-0.95,0.95c0,0.366-0.297,0.664-0.664,0.664c-0.366,0-0.664-0.297-0.664-0.664
				c0-1.256,1.022-2.277,2.277-2.277s2.277,1.022,2.277,2.277C81.359,91.14,81.062,91.437,80.696,91.437z"/>
			<path style="fill:#DBDBDA;" d="M38.188,91.437c-0.366,0-0.664-0.297-0.664-0.664c0-0.524-0.426-0.95-0.95-0.95
				c-0.524,0-0.95,0.426-0.95,0.95c0,0.366-0.297,0.664-0.664,0.664c-0.366,0-0.664-0.297-0.664-0.664
				c0-1.256,1.022-2.277,2.277-2.277c1.256,0,2.277,1.022,2.277,2.277C38.852,91.14,38.555,91.437,38.188,91.437z"/>
			<path style="fill:#DBDBDA;" d="M60.621,98.244c-0.366,0-0.664-0.297-0.664-0.664c0-0.524-0.426-0.95-0.95-0.95
				c-0.524,0-0.95,0.426-0.95,0.95c0,0.366-0.297,0.664-0.664,0.664c-0.366,0-0.664-0.297-0.664-0.664
				c0-1.256,1.022-2.277,2.277-2.277s2.277,1.022,2.277,2.277C61.284,97.947,60.987,98.244,60.621,98.244z"/>
			<path style="fill:#DBDBDA;" d="M32.535,96.63c-0.366,0-0.664-0.297-0.664-0.664c0-0.524-0.426-0.95-0.95-0.95
				c-0.524,0-0.95,0.426-0.95,0.95c0,0.366-0.297,0.664-0.664,0.664c-0.366,0-0.664-0.297-0.664-0.664
				c0-1.256,1.022-2.277,2.277-2.277c1.256,0,2.277,1.022,2.277,2.277C33.199,96.333,32.902,96.63,32.535,96.63z"/>
		</g>
	</g>
	<path style="fill:#F3CBB0;" d="M60.577,63.778H26.531c-2.215,0-4.012,1.796-4.012,4.012v12.004c0,2.215,1.796,4.012,4.012,4.012
		h48.361c2.941,0,5.785,1.047,8.023,2.954l4.369,3.722l3.861-3.861l-5.552-8.935C80.22,69.037,70.76,63.778,60.577,63.778z"/>
	<path style="fill:#EA8023;" d="M54.408,83.805h-8.78c-1.994-1.727-3.26-4.274-3.26-7.113c0-1.737,0.489-3.437,1.383-4.903
		c-0.894-1.466-1.383-3.166-1.383-4.903c0-1.089,0.188-2.134,0.53-3.108h6.208c-0.874,0.753-1.429,1.866-1.429,3.108
		c0,1.136,0.455,2.193,1.282,2.977c0.529,0.501,0.828,1.198,0.828,1.927c0,0.729-0.3,1.425-0.828,1.926
		c-0.827,0.784-1.282,1.841-1.282,2.977c0,2.262,1.84,4.102,4.102,4.102c1.466,0,2.654,1.188,2.654,2.654
		C54.433,83.569,54.424,83.688,54.408,83.805z M85.594,77.686c-0.051-0.082-0.104-0.164-0.156-0.246
		c-0.169,0.155-0.332,0.317-0.489,0.49c-0.92,1.015-1.535,2.268-1.789,3.599c-1.299,0.383-2.486,1.118-3.406,2.133
		c-0.252,0.278-0.475,0.571-0.677,0.874c1.321,0.475,2.56,1.175,3.661,2.078c0.038-0.047,0.078-0.094,0.119-0.14
		c0.602-0.664,1.428-1.041,2.327-1.061c0.575-0.013,1.119-0.261,1.505-0.687c0.386-0.426,0.58-0.992,0.537-1.565
		c-0.055-0.725,0.127-1.426,0.517-2.019L85.594,77.686z M38.568,83.448c0-1.466-1.188-2.654-2.654-2.654
		c-2.262,0-4.102-1.84-4.102-4.102c0-1.136,0.455-2.193,1.282-2.977c0.529-0.501,0.828-1.198,0.828-1.926
		c0-0.729-0.3-1.425-0.828-1.927c-0.827-0.784-1.282-1.841-1.282-2.977c0-1.242,0.555-2.355,1.429-3.108h-6.208
		c-0.342,0.974-0.53,2.019-0.53,3.108c0,1.737,0.489,3.437,1.383,4.903c-0.894,1.466-1.383,3.166-1.383,4.903
		c0,2.839,1.265,5.386,3.26,7.113h8.78C38.559,83.688,38.568,83.569,38.568,83.448z M77.574,84.1
		c-0.024-0.011-0.046-0.023-0.071-0.033c-1.863-0.778-2.747-2.927-1.969-4.79c0.391-0.936,1.129-1.65,2.08-2.011
		c0.608-0.231,1.094-0.702,1.345-1.302c0.251-0.6,0.243-1.277-0.02-1.872c-0.412-0.93-0.423-1.957-0.033-2.893
		c0.106-0.254,0.238-0.489,0.391-0.705c-1.224-1.007-2.524-1.912-3.889-2.708c-0.341,0.487-0.637,1.016-0.876,1.587
		c-0.597,1.431-0.779,3-0.547,4.515c-1.241,0.9-2.228,2.133-2.826,3.564c-0.881,2.111-0.832,4.381-0.042,6.354h3.774
		C75.8,83.805,76.699,83.906,77.574,84.1z M70.298,83.448c0-1.466-1.188-2.654-2.654-2.654c-2.262,0-4.102-1.84-4.102-4.102
		c0-1.136,0.455-2.193,1.282-2.977c0.529-0.501,0.828-1.198,0.828-1.926c0-0.729-0.3-1.425-0.828-1.927
		c-0.827-0.784-1.282-1.841-1.282-2.977c0-1.093,0.43-2.086,1.129-2.822c-1.346-0.189-2.713-0.286-4.093-0.286h-1.815
		c-0.342,0.974-0.53,2.019-0.53,3.108c0,1.737,0.489,3.437,1.383,4.903c-0.894,1.466-1.383,3.166-1.383,4.903
		c0,2.839,1.265,5.386,3.26,7.113h8.78C70.289,83.688,70.298,83.569,70.298,83.448z"/>
	<path style="fill:#D3A483;" d="M74.892,80.427H26.531c-2.216,0-4.012-1.796-4.012-4.012v3.378c0,2.215,1.796,4.012,4.012,4.012
		h48.361c2.941,0,5.785,1.047,8.023,2.954l4.369,3.722c0,0-3.013-5.517-4.369-7.1C81.002,81.148,77.833,80.427,74.892,80.427z"/>
	<g>
		<g>
			<g>
				<path style="fill:#D6752A;" d="M84.403,85.526c-0.559-0.893-1.093-1.685-1.488-2.145c-0.392-0.457-0.837-0.85-1.322-1.188
					c-0.683,0.386-1.307,0.88-1.84,1.469c-0.252,0.278-0.475,0.571-0.677,0.874l0,0c0.158,0.057,0.315,0.118,0.471,0.181
					c0.008,0.003,0.016,0.006,0.025,0.01c0.153,0.062,0.304,0.128,0.454,0.197c0.01,0.005,0.021,0.009,0.031,0.014
					c0.151,0.069,0.3,0.142,0.448,0.217c0.009,0.004,0.017,0.009,0.026,0.013c0.15,0.077,0.299,0.157,0.446,0.241
					c0.006,0.003,0.011,0.006,0.017,0.009c0.15,0.085,0.298,0.173,0.444,0.265c0.002,0.002,0.005,0.003,0.007,0.004
					c0.448,0.28,0.879,0.59,1.291,0.928c0.038-0.047,0.078-0.094,0.119-0.14C83.279,86.009,83.812,85.685,84.403,85.526z"/>
			</g>
			<g>
				<path style="fill:#D6752A;" d="M51.778,80.794c-0.603,0-1.176-0.132-1.693-0.367h-6.943c0.568,1.306,1.423,2.458,2.485,3.378
					h8.78c0.016-0.117,0.025-0.236,0.025-0.357C54.433,81.982,53.244,80.794,51.778,80.794z"/>
			</g>
			<g>
				<path style="fill:#D6752A;" d="M35.913,80.794c-0.603,0-1.176-0.132-1.693-0.367h-6.943c0.568,1.306,1.423,2.458,2.485,3.378
					h8.78c0.016-0.117,0.025-0.236,0.025-0.357C38.568,81.982,37.379,80.794,35.913,80.794z"/>
			</g>
			<g>
				<path style="fill:#D6752A;" d="M75.489,83.821c0.155,0.008,0.31,0.018,0.464,0.031c0.036,0.003,0.073,0.007,0.109,0.011
					c0.131,0.012,0.262,0.027,0.392,0.044c0.037,0.005,0.073,0.009,0.11,0.014c0.145,0.02,0.289,0.043,0.432,0.068
					c0.052,0.009,0.104,0.018,0.155,0.028c0.141,0.026,0.282,0.054,0.421,0.085c-0.024-0.011-0.046-0.023-0.071-0.033
					c-1.486-0.62-2.347-2.112-2.242-3.635c-0.123-0.003-0.247-0.004-0.369-0.004h-4.373c-0.034,1.165,0.174,2.315,0.599,3.378h3.774
					c0.163,0,0.326,0.004,0.489,0.011C75.417,83.817,75.453,83.819,75.489,83.821z"/>
			</g>
			<g>
				<path style="fill:#D6752A;" d="M67.643,80.794c-0.603,0-1.176-0.132-1.693-0.367h-6.943c0.568,1.306,1.423,2.458,2.485,3.378
					h8.78c0.016-0.117,0.025-0.236,0.025-0.357C70.298,81.982,69.109,80.794,67.643,80.794z"/>
			</g>
		</g>
	</g>
	<path style="fill:#1C164B;" d="M54.914,81.03H26.531c-2.545,0-4.615-2.07-4.615-4.615c0-0.333,0.27-0.603,0.603-0.603
		c0.333,0,0.603,0.27,0.603,0.603c0,1.879,1.529,3.408,3.408,3.408h28.382c0.333,0,0.603,0.27,0.603,0.603
		C55.517,80.76,55.247,81.03,54.914,81.03z"/>
	<path style="fill:#1C164B;" d="M65.013,81.03h-4.393c-0.333,0-0.603-0.27-0.603-0.603c0-0.333,0.27-0.603,0.603-0.603h4.393
		c0.333,0,0.603,0.27,0.603,0.603C65.617,80.76,65.347,81.03,65.013,81.03z"/>
	<path style="fill:#1C164B;" d="M87.285,91.084c-0.139,0-0.278-0.048-0.391-0.144l-4.369-3.722c-2.127-1.812-4.838-2.81-7.632-2.81
		H26.531c-2.545,0-4.615-2.07-4.615-4.615V67.789c0-2.545,2.07-4.615,4.615-4.615h34.046c5.098,0,10.148,1.309,14.604,3.787
		c4.456,2.477,8.234,6.076,10.924,10.406l5.552,8.935c0.148,0.238,0.112,0.547-0.086,0.745l-3.861,3.861
		C87.594,91.025,87.44,91.084,87.285,91.084z M26.531,64.381c-1.879,0-3.408,1.529-3.408,3.408v12.004
		c0,1.879,1.529,3.408,3.408,3.408h48.361c3.081,0,6.069,1.1,8.415,3.098l3.945,3.361l3.128-3.129l-5.299-8.528
		c-5.301-8.53-14.461-13.623-24.504-13.623H26.531z"/>
	<path style="fill:#EA8023;" d="M106.839,93.444c-0.707,2.513-3.456,3.838-5.862,2.826l-6.643-2.794l2.481,6.767
		c0.898,2.451-0.554,5.134-3.096,5.724c-2.543,0.589-5.027-1.184-5.298-3.78l-1.222-11.711l-0.005-0.046l4.429-4.227l0.047,0.007
		l11.641,1.766C105.892,88.367,107.546,90.931,106.839,93.444z"/>
	<path style="fill:#1C164B;" d="M92.74,106.681c-1.021,0-2.028-0.316-2.873-0.919c-1.153-0.823-1.899-2.103-2.046-3.513
		l-1.227-11.762c-0.018-0.184,0.05-0.367,0.184-0.495l4.429-4.227c0.136-0.13,0.325-0.189,0.511-0.159l0.047,0.007l11.638,1.765
		c1.4,0.212,2.644,1.017,3.413,2.207c0.769,1.191,0.989,2.657,0.605,4.021v0c-0.384,1.364-1.336,2.499-2.613,3.115
		c-1.276,0.615-2.758,0.653-4.064,0.104l-5.366-2.257l2.004,5.466c0.488,1.33,0.381,2.808-0.293,4.054
		c-0.674,1.246-1.853,2.145-3.233,2.465C93.486,106.639,93.112,106.681,92.74,106.681z M87.825,90.662l1.196,11.462
		c0.111,1.066,0.675,2.034,1.547,2.656c0.872,0.622,1.971,0.841,3.015,0.599c1.044-0.242,1.934-0.921,2.444-1.863
		c0.51-0.942,0.591-2.059,0.222-3.065l-2.481-6.767c-0.083-0.225-0.024-0.478,0.15-0.644c0.174-0.166,0.429-0.213,0.65-0.12
		l6.643,2.794c0.988,0.415,2.107,0.386,3.072-0.079c0.965-0.465,1.685-1.323,1.975-2.355c0.29-1.032,0.123-2.14-0.458-3.04
		c-0.581-0.9-1.521-1.508-2.58-1.669l-11.395-1.728L87.825,90.662z M106.839,93.444h0.001H106.839z"/>
</g>
<g>
	<g>
		<path style="fill:#FFFFFF;" d="M61.158,39.456v11.401c0,4.527,3.67,8.197,8.197,8.197h44.359c4.527,0,8.197-3.67,8.197-8.197
			V39.456c0-3.587-2.908-6.495-6.495-6.495H67.654C64.066,32.96,61.158,35.868,61.158,39.456z"/>
		<path style="fill:#E8E7E7;" d="M115.415,32.96h-5.55c3.587,0,6.495,2.908,6.495,6.495v11.401c0,4.527-3.67,8.197-8.197,8.197h5.55
			c4.527,0,8.197-3.67,8.197-8.197V39.456C121.91,35.868,119.002,32.96,115.415,32.96z"/>
		<path style="fill:#1C164B;" d="M113.714,59.657H69.355c-4.852,0-8.8-3.948-8.8-8.8V39.456c0-3.914,3.184-7.098,7.098-7.098h47.761
			c3.914,0,7.098,3.184,7.098,7.098v11.401C122.514,55.709,118.566,59.657,113.714,59.657z M67.654,33.564
			c-3.249,0-5.892,2.643-5.892,5.892v11.401c0,4.187,3.406,7.593,7.593,7.593h44.359c4.187,0,7.593-3.406,7.593-7.593V39.456
			c0-3.249-2.643-5.892-5.892-5.892H67.654z"/>
		<g>
			<path style="fill:#DBDBDA;" d="M111.757,55.204c-0.366,0-0.664-0.297-0.664-0.664c0-0.524-0.426-0.95-0.95-0.95
				c-0.524,0-0.95,0.426-0.95,0.95c0,0.366-0.297,0.664-0.664,0.664c-0.366,0-0.664-0.297-0.664-0.664
				c0-1.256,1.022-2.277,2.277-2.277c1.256,0,2.277,1.022,2.277,2.277C112.42,54.907,112.123,55.204,111.757,55.204z"/>
			<path style="fill:#DBDBDA;" d="M104.862,52.275c-0.366,0-0.664-0.297-0.664-0.664c0-0.524-0.426-0.95-0.95-0.95
				c-0.524,0-0.95,0.426-0.95,0.95c0,0.366-0.297,0.664-0.664,0.664c-0.366,0-0.664-0.297-0.664-0.664
				c0-1.256,1.022-2.277,2.277-2.277c1.256,0,2.277,1.022,2.277,2.277C105.526,51.978,105.229,52.275,104.862,52.275z"/>
			<path style="fill:#DBDBDA;" d="M79.521,53.889c-0.366,0-0.664-0.297-0.664-0.664c0-0.524-0.426-0.95-0.95-0.95
				c-0.524,0-0.95,0.426-0.95,0.95c0,0.366-0.297,0.664-0.664,0.664c-0.366,0-0.664-0.297-0.664-0.664
				c0-1.256,1.022-2.277,2.277-2.277c1.256,0,2.277,1.022,2.277,2.277C80.185,53.592,79.887,53.889,79.521,53.889z"/>
			<path style="fill:#DBDBDA;" d="M90.353,50.012c-0.366,0-0.664-0.297-0.664-0.664c0-0.524-0.426-0.95-0.95-0.95
				c-0.524,0-0.95,0.426-0.95,0.95c0,0.366-0.297,0.664-0.664,0.664c-0.366,0-0.664-0.297-0.664-0.664
				c0-1.256,1.022-2.277,2.277-2.277c1.256,0,2.277,1.022,2.277,2.277C91.017,49.715,90.72,50.012,90.353,50.012z"/>
			<path style="fill:#DBDBDA;" d="M117.317,49.205c-0.366,0-0.664-0.297-0.664-0.664c0-0.524-0.426-0.95-0.95-0.95
				s-0.95,0.426-0.95,0.95c0,0.366-0.297,0.664-0.664,0.664c-0.366,0-0.664-0.297-0.664-0.664c0-1.256,1.022-2.277,2.277-2.277
				s2.277,1.022,2.277,2.277C117.98,48.908,117.683,49.205,117.317,49.205z"/>
			<path style="fill:#DBDBDA;" d="M74.809,49.205c-0.366,0-0.664-0.297-0.664-0.664c0-0.524-0.426-0.95-0.95-0.95
				c-0.524,0-0.95,0.426-0.95,0.95c0,0.366-0.297,0.664-0.664,0.664c-0.366,0-0.664-0.297-0.664-0.664
				c0-1.256,1.022-2.277,2.277-2.277c1.256,0,2.277,1.022,2.277,2.277C75.473,48.908,75.176,49.205,74.809,49.205z"/>
			<path style="fill:#DBDBDA;" d="M97.242,56.011c-0.366,0-0.664-0.297-0.664-0.664c0-0.524-0.426-0.95-0.95-0.95
				c-0.524,0-0.95,0.426-0.95,0.95c0,0.366-0.297,0.664-0.664,0.664c-0.366,0-0.664-0.297-0.664-0.664
				c0-1.256,1.022-2.277,2.277-2.277s2.277,1.022,2.277,2.277C97.905,55.714,97.608,56.011,97.242,56.011z"/>
			<path style="fill:#DBDBDA;" d="M69.156,54.397c-0.366,0-0.664-0.297-0.664-0.664c0-0.524-0.426-0.95-0.95-0.95
				c-0.524,0-0.95,0.426-0.95,0.95c0,0.366-0.297,0.664-0.664,0.664c-0.366,0-0.664-0.297-0.664-0.664
				c0-1.256,1.022-2.277,2.277-2.277c1.256,0,2.277,1.022,2.277,2.277C69.82,54.1,69.523,54.397,69.156,54.397z"/>
		</g>
	</g>
	<path style="fill:#F3CBB0;" d="M97.198,21.545H63.152c-2.215,0-4.012,1.796-4.012,4.011v12.004c0,2.215,1.796,4.011,4.012,4.011
		h48.361c2.941,0,5.785,1.047,8.023,2.954l4.369,3.722l3.861-3.861l-5.552-8.935C116.841,26.805,107.381,21.545,97.198,21.545z"/>
	<path style="fill:#EA8023;" d="M91.029,41.573h-8.78c-1.994-1.727-3.26-4.274-3.26-7.113c0-1.737,0.489-3.437,1.383-4.903
		c-0.894-1.466-1.383-3.166-1.383-4.903c0-1.089,0.188-2.134,0.53-3.108h6.208c-0.874,0.753-1.429,1.866-1.429,3.108
		c0,1.136,0.455,2.193,1.282,2.977c0.529,0.501,0.828,1.198,0.828,1.927c0,0.729-0.3,1.425-0.828,1.926
		c-0.827,0.784-1.282,1.841-1.282,2.977c0,2.262,1.84,4.102,4.102,4.102c1.466,0,2.654,1.188,2.654,2.654
		C91.054,41.337,91.045,41.456,91.029,41.573z M122.215,35.453c-0.051-0.082-0.104-0.164-0.156-0.246
		c-0.169,0.155-0.332,0.317-0.489,0.49c-0.92,1.015-1.535,2.268-1.789,3.599c-1.299,0.383-2.486,1.118-3.406,2.133
		c-0.252,0.278-0.475,0.571-0.677,0.874c1.321,0.475,2.56,1.175,3.661,2.078c0.038-0.047,0.078-0.094,0.119-0.14
		c0.602-0.664,1.428-1.041,2.327-1.061c0.575-0.013,1.119-0.261,1.505-0.687c0.386-0.426,0.58-0.992,0.537-1.565
		c-0.055-0.725,0.127-1.426,0.517-2.019L122.215,35.453z M75.189,41.216c0-1.466-1.188-2.654-2.654-2.654
		c-2.262,0-4.102-1.84-4.102-4.102c0-1.136,0.455-2.193,1.282-2.977c0.529-0.501,0.828-1.198,0.828-1.926
		c0-0.729-0.3-1.425-0.828-1.927c-0.827-0.784-1.282-1.841-1.282-2.977c0-1.242,0.555-2.355,1.429-3.108h-6.208
		c-0.342,0.974-0.53,2.019-0.53,3.108c0,1.737,0.489,3.437,1.383,4.903c-0.894,1.466-1.383,3.166-1.383,4.903
		c0,2.839,1.265,5.386,3.26,7.113h8.78C75.18,41.456,75.189,41.337,75.189,41.216z M114.195,41.867
		c-0.024-0.011-0.046-0.023-0.071-0.033c-1.863-0.778-2.747-2.927-1.969-4.79c0.391-0.936,1.129-1.65,2.08-2.011
		c0.608-0.231,1.094-0.702,1.345-1.302c0.251-0.6,0.243-1.277-0.02-1.872c-0.412-0.93-0.423-1.957-0.033-2.893
		c0.106-0.254,0.238-0.489,0.391-0.705c-1.224-1.007-2.524-1.912-3.889-2.708c-0.341,0.487-0.637,1.016-0.876,1.587
		c-0.597,1.431-0.779,3-0.547,4.515c-1.241,0.9-2.228,2.133-2.826,3.564c-0.881,2.111-0.832,4.381-0.042,6.354h3.774
		C112.421,41.573,113.32,41.673,114.195,41.867z M106.919,41.216c0-1.466-1.188-2.654-2.654-2.654c-2.262,0-4.102-1.84-4.102-4.102
		c0-1.136,0.455-2.193,1.282-2.977c0.529-0.501,0.828-1.198,0.828-1.926c0-0.729-0.3-1.425-0.828-1.927
		c-0.827-0.784-1.282-1.841-1.282-2.977c0-1.093,0.43-2.086,1.129-2.822c-1.346-0.189-2.713-0.286-4.093-0.286h-1.814
		c-0.342,0.974-0.53,2.019-0.53,3.108c0,1.737,0.489,3.437,1.383,4.903c-0.894,1.466-1.383,3.166-1.383,4.903
		c0,2.839,1.265,5.386,3.26,7.113h8.78C106.91,41.456,106.919,41.337,106.919,41.216z"/>
	<path style="fill:#D3A483;" d="M111.513,38.195H63.152c-2.216,0-4.012-1.796-4.012-4.012v3.378c0,2.215,1.796,4.011,4.012,4.011
		h48.361c2.941,0,5.785,1.047,8.023,2.954l4.369,3.722c0,0-3.013-5.517-4.369-7.1C117.623,38.916,114.454,38.195,111.513,38.195z"/>
	<g>
		<g>
			<g>
				<path style="fill:#D6752A;" d="M121.024,43.293c-0.559-0.893-1.093-1.685-1.488-2.145c-0.392-0.457-0.837-0.85-1.322-1.188
					c-0.683,0.386-1.307,0.88-1.84,1.469c-0.252,0.278-0.475,0.571-0.677,0.874l0,0c0.158,0.057,0.315,0.118,0.471,0.181
					c0.008,0.003,0.016,0.006,0.025,0.01c0.153,0.062,0.304,0.128,0.454,0.197c0.01,0.005,0.021,0.009,0.031,0.014
					c0.151,0.069,0.3,0.142,0.448,0.217c0.009,0.004,0.017,0.009,0.026,0.013c0.15,0.077,0.299,0.157,0.446,0.241
					c0.006,0.003,0.011,0.006,0.017,0.009c0.15,0.085,0.298,0.173,0.444,0.265c0.002,0.002,0.005,0.003,0.007,0.004
					c0.448,0.28,0.879,0.59,1.291,0.928c0.038-0.047,0.078-0.094,0.119-0.14C119.9,43.776,120.433,43.452,121.024,43.293z"/>
			</g>
			<g>
				<path style="fill:#D6752A;" d="M88.399,38.561c-0.603,0-1.176-0.132-1.693-0.367h-6.943c0.568,1.306,1.423,2.458,2.485,3.378
					h8.78c0.016-0.117,0.025-0.236,0.025-0.357C91.054,39.75,89.865,38.561,88.399,38.561z"/>
			</g>
			<g>
				<path style="fill:#D6752A;" d="M72.534,38.561c-0.603,0-1.176-0.132-1.693-0.367h-6.943c0.568,1.306,1.423,2.458,2.485,3.378
					h8.78c0.016-0.117,0.025-0.236,0.025-0.357C75.189,39.75,74,38.561,72.534,38.561z"/>
			</g>
			<g>
				<path style="fill:#D6752A;" d="M112.11,41.588c0.155,0.008,0.31,0.018,0.464,0.031c0.036,0.003,0.073,0.007,0.109,0.011
					c0.131,0.013,0.262,0.027,0.392,0.044c0.037,0.005,0.073,0.009,0.11,0.014c0.145,0.02,0.289,0.043,0.432,0.068
					c0.052,0.009,0.104,0.018,0.155,0.028c0.141,0.026,0.282,0.054,0.421,0.085c-0.024-0.011-0.046-0.023-0.071-0.033
					c-1.486-0.62-2.347-2.112-2.242-3.635c-0.123-0.003-0.247-0.004-0.369-0.004h-4.373c-0.034,1.165,0.174,2.315,0.599,3.378h3.774
					c0.163,0,0.326,0.004,0.489,0.011C112.038,41.585,112.074,41.586,112.11,41.588z"/>
			</g>
			<g>
				<path style="fill:#D6752A;" d="M104.264,38.561c-0.603,0-1.176-0.132-1.693-0.367h-6.943c0.568,1.306,1.423,2.458,2.485,3.378
					h8.78c0.016-0.117,0.025-0.236,0.025-0.357C106.919,39.75,105.73,38.561,104.264,38.561z"/>
			</g>
		</g>
	</g>
	<path style="fill:#1C164B;" d="M91.535,38.798H63.152c-2.545,0-4.615-2.07-4.615-4.615c0-0.333,0.27-0.603,0.603-0.603
		c0.333,0,0.603,0.27,0.603,0.603c0,1.879,1.529,3.408,3.408,3.408h28.382c0.333,0,0.603,0.27,0.603,0.603
		C92.138,38.528,91.868,38.798,91.535,38.798z"/>
	<path style="fill:#1C164B;" d="M101.634,38.798h-4.393c-0.333,0-0.603-0.27-0.603-0.603c0-0.333,0.27-0.603,0.603-0.603h4.393
		c0.333,0,0.603,0.27,0.603,0.603C102.238,38.528,101.968,38.798,101.634,38.798z"/>
	<path style="fill:#1C164B;" d="M123.906,48.852c-0.139,0-0.278-0.048-0.391-0.144l-4.369-3.722c-2.127-1.812-4.838-2.81-7.632-2.81
		H63.152c-2.545,0-4.615-2.07-4.615-4.615V25.557c0-2.545,2.07-4.615,4.615-4.615h34.046c5.098,0,10.148,1.309,14.604,3.787
		c4.456,2.477,8.234,6.076,10.924,10.406l5.552,8.935c0.148,0.238,0.112,0.547-0.086,0.745l-3.861,3.861
		C124.215,48.792,124.061,48.852,123.906,48.852z M63.152,22.148c-1.879,0-3.408,1.529-3.408,3.408v12.004
		c0,1.879,1.529,3.408,3.408,3.408h48.361c3.081,0,6.069,1.1,8.415,3.098l3.945,3.361l3.128-3.129l-5.299-8.528
		c-5.301-8.53-14.461-13.623-24.504-13.623H63.152z"/>
	<path style="fill:#EA8023;" d="M143.46,51.211c-0.707,2.513-3.456,3.838-5.862,2.826l-6.643-2.794l2.481,6.767
		c0.898,2.451-0.554,5.134-3.096,5.724c-2.543,0.589-5.027-1.184-5.298-3.78l-1.222-11.711l-0.005-0.046l4.429-4.227l0.047,0.007
		l11.641,1.766C142.513,46.134,144.167,48.698,143.46,51.211z"/>
	<path style="fill:#1C164B;" d="M129.361,64.449c-1.021,0-2.028-0.316-2.873-0.919c-1.153-0.823-1.899-2.103-2.046-3.513
		l-1.227-11.762c-0.018-0.184,0.05-0.367,0.184-0.495l4.429-4.227c0.136-0.13,0.325-0.189,0.511-0.159l0.047,0.007l11.638,1.765
		c1.4,0.212,2.644,1.017,3.413,2.207c0.769,1.191,0.989,2.657,0.605,4.021v0c-0.384,1.364-1.336,2.499-2.613,3.115
		c-1.276,0.615-2.758,0.653-4.064,0.104l-5.366-2.257l2.004,5.466c0.488,1.33,0.381,2.808-0.293,4.054
		c-0.674,1.246-1.853,2.145-3.233,2.465C130.107,64.407,129.733,64.449,129.361,64.449z M124.446,48.429l1.196,11.462
		c0.111,1.066,0.675,2.034,1.547,2.656c0.872,0.622,1.971,0.841,3.015,0.599c1.044-0.242,1.934-0.921,2.444-1.863
		c0.51-0.942,0.591-2.059,0.222-3.065l-2.481-6.767c-0.083-0.225-0.024-0.478,0.15-0.644c0.174-0.166,0.429-0.213,0.65-0.12
		l6.643,2.794c0.988,0.415,2.107,0.386,3.072-0.079c0.965-0.465,1.685-1.323,1.975-2.355c0.29-1.032,0.123-2.14-0.458-3.04
		c-0.581-0.9-1.521-1.508-2.58-1.669l-11.395-1.728L124.446,48.429z M143.46,51.211h0.001H143.46z"/>
</g>
<g>
	<g>
		<path style="fill:#FFFFFF;" d="M192.131,82.962v11.401c0,4.527-3.67,8.197-8.197,8.197h-44.359c-4.527,0-8.197-3.67-8.197-8.197
			V82.962c0-3.587,2.908-6.495,6.495-6.495h47.761C189.223,76.467,192.131,79.375,192.131,82.962z"/>
		<path style="fill:#E8E7E7;" d="M137.874,76.467h5.55c-3.587,0-6.495,2.908-6.495,6.495v11.401c0,4.527,3.67,8.197,8.197,8.197
			h-5.55c-4.527,0-8.197-3.67-8.197-8.197V82.962C131.379,79.375,134.287,76.467,137.874,76.467z"/>
		<path style="fill:#1C164B;" d="M130.776,94.364V82.962c0-3.914,3.184-7.098,7.098-7.098h47.761c3.914,0,7.098,3.184,7.098,7.098
			v11.401c0,4.852-3.948,8.8-8.8,8.8h-44.359C134.724,103.163,130.776,99.216,130.776,94.364z M137.874,77.07
			c-3.249,0-5.892,2.643-5.892,5.892v11.401c0,4.187,3.406,7.593,7.593,7.593h44.359c4.187,0,7.593-3.406,7.593-7.593V82.962
			c0-3.249-2.643-5.892-5.892-5.892H137.874z"/>
		<g>
			<path style="fill:#DBDBDA;" d="M141.533,98.711c0.366,0,0.664-0.297,0.664-0.664c0-0.524,0.426-0.95,0.95-0.95
				c0.524,0,0.95,0.426,0.95,0.95c0,0.366,0.297,0.664,0.664,0.664s0.664-0.297,0.664-0.664c0-1.256-1.022-2.277-2.277-2.277
				c-1.256,0-2.277,1.022-2.277,2.277C140.87,98.414,141.167,98.711,141.533,98.711z"/>
			<path style="fill:#DBDBDA;" d="M148.427,95.782c0.366,0,0.664-0.297,0.664-0.664c0-0.524,0.426-0.95,0.95-0.95
				c0.524,0,0.95,0.426,0.95,0.95c0,0.366,0.297,0.664,0.664,0.664c0.366,0,0.664-0.297,0.664-0.664
				c0-1.256-1.022-2.277-2.277-2.277c-1.256,0-2.277,1.022-2.277,2.277C147.764,95.485,148.061,95.782,148.427,95.782z"/>
			<path style="fill:#DBDBDA;" d="M173.769,97.396c0.366,0,0.664-0.297,0.664-0.664c0-0.524,0.426-0.95,0.95-0.95
				c0.524,0,0.95,0.426,0.95,0.95c0,0.366,0.297,0.664,0.664,0.664c0.366,0,0.664-0.297,0.664-0.664
				c0-1.256-1.022-2.277-2.277-2.277c-1.256,0-2.277,1.022-2.277,2.277C173.105,97.099,173.402,97.396,173.769,97.396z"/>
			<path style="fill:#DBDBDA;" d="M162.936,93.519c0.366,0,0.664-0.297,0.664-0.664c0-0.524,0.426-0.95,0.95-0.95
				c0.524,0,0.95,0.426,0.95,0.95c0,0.366,0.297,0.664,0.664,0.664c0.366,0,0.664-0.297,0.664-0.664
				c0-1.256-1.022-2.277-2.277-2.277c-1.256,0-2.277,1.022-2.277,2.277C162.273,93.221,162.57,93.519,162.936,93.519z"/>
			<path style="fill:#DBDBDA;" d="M135.973,92.712c0.366,0,0.664-0.297,0.664-0.664c0-0.524,0.426-0.95,0.95-0.95
				s0.95,0.426,0.95,0.95c0,0.366,0.297,0.664,0.664,0.664c0.366,0,0.664-0.297,0.664-0.664c0-1.256-1.022-2.277-2.277-2.277
				s-2.277,1.022-2.277,2.277C135.31,92.415,135.607,92.712,135.973,92.712z"/>
			<path style="fill:#DBDBDA;" d="M178.48,92.712c0.366,0,0.664-0.297,0.664-0.664c0-0.524,0.426-0.95,0.95-0.95
				c0.524,0,0.95,0.426,0.95,0.95c0,0.366,0.297,0.664,0.664,0.664c0.366,0,0.664-0.297,0.664-0.664
				c0-1.256-1.022-2.277-2.277-2.277c-1.256,0-2.277,1.022-2.277,2.277C177.817,92.415,178.114,92.712,178.48,92.712z"/>
			<path style="fill:#DBDBDA;" d="M156.048,99.518c0.366,0,0.664-0.297,0.664-0.664c0-0.524,0.426-0.95,0.95-0.95
				s0.95,0.426,0.95,0.95c0,0.366,0.297,0.664,0.664,0.664c0.366,0,0.664-0.297,0.664-0.664c0-1.256-1.022-2.277-2.277-2.277
				s-2.277,1.022-2.277,2.277C155.384,99.221,155.682,99.518,156.048,99.518z"/>
			<path style="fill:#DBDBDA;" d="M184.133,97.904c0.366,0,0.664-0.297,0.664-0.664c0-0.524,0.426-0.95,0.95-0.95
				c0.524,0,0.95,0.426,0.95,0.95c0,0.366,0.297,0.664,0.664,0.664c0.366,0,0.664-0.297,0.664-0.664
				c0-1.256-1.022-2.277-2.277-2.277c-1.256,0-2.277,1.022-2.277,2.277C183.47,97.607,183.767,97.904,184.133,97.904z"/>
		</g>
	</g>
	<path style="fill:#F3CBB0;" d="M156.091,65.052h34.046c2.215,0,4.012,1.796,4.012,4.011v12.004c0,2.215-1.796,4.011-4.012,4.011
		h-48.361c-2.941,0-5.785,1.047-8.023,2.954l-4.369,3.722l-3.861-3.861l5.552-8.935C136.449,70.311,145.909,65.052,156.091,65.052z"
		/>
	<path style="fill:#EA8023;" d="M162.236,84.722c0-1.466,1.188-2.654,2.654-2.654c2.262,0,4.102-1.84,4.102-4.102
		c0-1.136-0.455-2.193-1.282-2.977c-0.529-0.501-0.828-1.198-0.828-1.926c0-0.729,0.3-1.425,0.828-1.927
		c0.827-0.784,1.282-1.841,1.282-2.977c0-1.242-0.555-2.355-1.429-3.108h6.208c0.342,0.974,0.53,2.019,0.53,3.108
		c0,1.737-0.489,3.437-1.383,4.903c0.894,1.466,1.383,3.166,1.383,4.903c0,2.839-1.265,5.386-3.26,7.113h-8.78
		C162.245,84.963,162.236,84.844,162.236,84.722z M128.927,82.417c0.39,0.593,0.572,1.294,0.517,2.019
		c-0.043,0.573,0.15,1.139,0.537,1.565c0.386,0.426,0.93,0.674,1.505,0.687c0.899,0.02,1.725,0.397,2.327,1.061
		c0.041,0.046,0.081,0.092,0.119,0.14c1.101-0.903,2.34-1.603,3.661-2.078c-0.202-0.303-0.425-0.596-0.677-0.874
		c-0.92-1.015-2.107-1.75-3.406-2.133c-0.254-1.331-0.869-2.584-1.789-3.599c-0.157-0.173-0.32-0.335-0.489-0.49
		c-0.052,0.082-0.104,0.163-0.156,0.246L128.927,82.417z M178.126,85.079h8.78c1.994-1.727,3.26-4.274,3.26-7.113
		c0-1.737-0.489-3.437-1.383-4.903c0.894-1.466,1.383-3.166,1.383-4.903c0-1.089-0.188-2.134-0.53-3.108h-6.208
		c0.874,0.753,1.429,1.866,1.429,3.108c0,1.136-0.455,2.193-1.282,2.977c-0.529,0.501-0.828,1.198-0.828,1.927
		c0,0.729,0.3,1.425,0.828,1.926c0.827,0.784,1.282,1.841,1.282,2.977c0,2.262-1.84,4.102-4.102,4.102
		c-1.466,0-2.654,1.188-2.654,2.654C178.101,84.844,178.11,84.963,178.126,85.079z M141.776,85.079h3.774
		c0.789-1.973,0.839-4.243-0.042-6.354c-0.597-1.431-1.585-2.663-2.826-3.564c0.232-1.515,0.051-3.084-0.547-4.515
		c-0.238-0.571-0.534-1.1-0.876-1.587c-1.364,0.795-2.665,1.7-3.889,2.708c0.153,0.216,0.285,0.451,0.391,0.705
		c0.391,0.936,0.379,1.963-0.033,2.893c-0.263,0.595-0.271,1.272-0.02,1.872c0.251,0.6,0.737,1.071,1.345,1.302
		c0.951,0.361,1.689,1.076,2.08,2.011c0.778,1.863-0.105,4.012-1.969,4.79c-0.024,0.01-0.047,0.022-0.071,0.033
		C139.97,85.18,140.868,85.079,141.776,85.079z M146.396,85.079h8.78c1.994-1.727,3.26-4.274,3.26-7.113
		c0-1.737-0.489-3.437-1.383-4.903c0.894-1.466,1.383-3.166,1.383-4.903c0-1.089-0.188-2.134-0.53-3.108h-1.814
		c-1.381,0-2.748,0.097-4.093,0.286c0.699,0.736,1.129,1.729,1.129,2.822c0,1.136-0.455,2.193-1.282,2.977
		c-0.529,0.501-0.828,1.198-0.828,1.927c0,0.729,0.3,1.425,0.828,1.926c0.827,0.784,1.282,1.841,1.282,2.977
		c0,2.262-1.84,4.102-4.102,4.102c-1.466,0-2.654,1.188-2.654,2.654C146.371,84.844,146.38,84.963,146.396,85.079z"/>
	<path style="fill:#D3A483;" d="M141.776,81.701h48.361c2.216,0,4.012-1.796,4.012-4.012v3.378c0,2.215-1.796,4.011-4.012,4.011
		h-48.361c-2.941,0-5.785,1.047-8.023,2.954l-4.369,3.722c0,0,3.013-5.517,4.369-7.1C135.666,82.422,138.836,81.701,141.776,81.701z
		"/>
	<g>
		<g>
			<g>
				<path style="fill:#D6752A;" d="M132.265,86.8c0.559-0.893,1.093-1.685,1.488-2.145c0.392-0.457,0.837-0.85,1.322-1.188
					c0.683,0.386,1.307,0.88,1.84,1.469c0.252,0.278,0.475,0.571,0.677,0.874l0,0c-0.158,0.057-0.315,0.118-0.471,0.181
					c-0.008,0.003-0.016,0.006-0.025,0.01c-0.153,0.062-0.304,0.128-0.454,0.197c-0.01,0.005-0.021,0.009-0.031,0.014
					c-0.151,0.069-0.3,0.142-0.448,0.217c-0.009,0.004-0.017,0.009-0.026,0.013c-0.15,0.077-0.299,0.157-0.446,0.241
					c-0.006,0.003-0.011,0.006-0.017,0.009c-0.15,0.085-0.298,0.173-0.444,0.265c-0.002,0.002-0.005,0.003-0.007,0.004
					c-0.448,0.28-0.879,0.59-1.291,0.928c-0.038-0.047-0.078-0.094-0.119-0.14C133.389,87.283,132.856,86.959,132.265,86.8z"/>
			</g>
			<g>
				<path style="fill:#D6752A;" d="M164.89,82.068c0.603,0,1.176-0.132,1.693-0.367h6.943c-0.568,1.306-1.423,2.458-2.485,3.378
					h-8.78c-0.016-0.117-0.025-0.236-0.025-0.357C162.236,83.257,163.424,82.068,164.89,82.068z"/>
			</g>
			<g>
				<path style="fill:#D6752A;" d="M180.755,82.068c0.603,0,1.176-0.132,1.693-0.367h6.943c-0.568,1.306-1.423,2.458-2.485,3.378
					h-8.78c-0.016-0.117-0.025-0.236-0.025-0.357C178.101,83.257,179.289,82.068,180.755,82.068z"/>
			</g>
			<g>
				<path style="fill:#D6752A;" d="M141.18,85.095c-0.155,0.008-0.31,0.018-0.464,0.031c-0.036,0.003-0.073,0.007-0.109,0.011
					c-0.131,0.013-0.262,0.027-0.392,0.044c-0.037,0.005-0.073,0.009-0.11,0.014c-0.145,0.02-0.289,0.043-0.432,0.068
					c-0.052,0.009-0.104,0.018-0.155,0.028c-0.141,0.026-0.282,0.054-0.421,0.085c0.024-0.011,0.046-0.023,0.071-0.033
					c1.486-0.62,2.347-2.112,2.242-3.635c0.123-0.003,0.247-0.004,0.369-0.004h4.373c0.034,1.165-0.174,2.315-0.599,3.378h-3.774
					c-0.163,0-0.326,0.004-0.489,0.011C141.252,85.092,141.216,85.093,141.18,85.095z"/>
			</g>
			<g>
				<path style="fill:#D6752A;" d="M149.025,82.068c0.603,0,1.176-0.132,1.693-0.367h6.943c-0.568,1.306-1.423,2.458-2.485,3.378
					h-8.78c-0.016-0.117-0.025-0.236-0.025-0.357C146.371,83.257,147.559,82.068,149.025,82.068z"/>
			</g>
		</g>
	</g>
	<path style="fill:#1C164B;" d="M161.755,82.305h28.382c2.545,0,4.615-2.07,4.615-4.615c0-0.333-0.27-0.603-0.603-0.603
		c-0.333,0-0.603,0.27-0.603,0.603c0,1.879-1.529,3.408-3.408,3.408h-28.382c-0.333,0-0.603,0.27-0.603,0.603
		C161.152,82.034,161.422,82.305,161.755,82.305z"/>
	<path style="fill:#1C164B;" d="M151.655,82.305h4.393c0.333,0,0.603-0.27,0.603-0.603c0-0.333-0.27-0.603-0.603-0.603h-4.393
		c-0.333,0-0.603,0.27-0.603,0.603C151.052,82.034,151.322,82.305,151.655,82.305z"/>
	<path style="fill:#1C164B;" d="M128.957,92.182l-3.861-3.861c-0.198-0.198-0.234-0.507-0.086-0.745l5.552-8.935
		c2.691-4.33,6.468-7.929,10.924-10.406c4.456-2.477,9.506-3.787,14.604-3.787h34.046c2.545,0,4.615,2.07,4.615,4.615v12.004
		c0,2.545-2.07,4.615-4.615,4.615h-48.361c-2.794,0-5.505,0.998-7.632,2.81l-4.369,3.722c-0.113,0.096-0.252,0.144-0.391,0.144
		C129.229,92.358,129.074,92.299,128.957,92.182z M156.091,65.655c-10.043,0-19.203,5.093-24.504,13.623l-5.299,8.528l3.128,3.129
		l3.945-3.361c2.345-1.998,5.334-3.098,8.415-3.098h48.361c1.879,0,3.408-1.529,3.408-3.408V69.064c0-1.879-1.529-3.408-3.408-3.408
		H156.091z"/>
	<path style="fill:#EA8023;" d="M109.829,94.718c0.707,2.513,3.456,3.838,5.862,2.826l6.643-2.794l-2.481,6.767
		c-0.898,2.451,0.554,5.134,3.096,5.724c2.543,0.589,5.027-1.184,5.298-3.78l1.222-11.711l0.005-0.046l-4.429-4.227l-0.047,0.007
		l-11.641,1.766C110.777,89.641,109.123,92.205,109.829,94.718z"/>
	<path style="fill:#1C164B;" d="M122.814,107.828c-1.38-0.32-2.559-1.218-3.233-2.465c-0.674-1.246-0.781-2.724-0.293-4.054
		l2.004-5.466l-5.366,2.257c-1.306,0.549-2.787,0.511-4.064-0.104c-1.276-0.615-2.229-1.751-2.613-3.115v0
		c-0.384-1.365-0.163-2.83,0.605-4.021c0.768-1.19,2.012-1.995,3.413-2.207l11.638-1.765l0.047-0.007
		c0.186-0.029,0.375,0.03,0.511,0.159l4.429,4.227c0.134,0.128,0.202,0.31,0.184,0.495l-1.227,11.762
		c-0.147,1.409-0.893,2.69-2.046,3.513c-0.846,0.603-1.852,0.919-2.873,0.919C123.557,107.956,123.183,107.914,122.814,107.828z
		 M124.843,88.117l-11.395,1.728c-1.059,0.161-1.999,0.769-2.58,1.669c-0.581,0.9-0.748,2.008-0.458,3.04
		c0.29,1.031,1.01,1.889,1.975,2.355c0.965,0.465,2.085,0.494,3.072,0.079l6.643-2.794c0.221-0.093,0.477-0.046,0.65,0.12
		c0.174,0.166,0.232,0.419,0.15,0.644l-2.481,6.767c-0.369,1.006-0.288,2.123,0.222,3.065c0.51,0.942,1.401,1.621,2.444,1.863
		c1.044,0.242,2.143,0.023,3.015-0.599c0.872-0.622,1.436-1.59,1.547-2.656l1.196-11.462L124.843,88.117z M109.828,94.718h0.001
		H109.828z"/>
</g>
<g>
	<path style="fill:#FFFFFF;" d="M75.79,127.94v16.606c0,4.2,3.405,7.605,7.605,7.605h41.159c4.2,0,7.605-3.405,7.605-7.605V127.94
		H75.79z"/>
	<path style="fill:#E8E7E7;" d="M75.79,139.343c1.894,1.495,4.285,2.389,6.886,2.389h42.599c2.6,0,4.992-0.893,6.886-2.389V127.94
		H75.79V139.343z"/>
	<path style="fill:#E8E7E7;" d="M128.069,127.94v16.606c0,4.2-3.405,7.605-7.605,7.605h4.091c4.2,0,7.605-3.405,7.605-7.605V127.94
		H128.069z"/>
	<path style="fill:#1C164B;" d="M124.554,152.755H83.395c-4.526,0-8.209-3.682-8.209-8.209V127.94c0-0.333,0.27-0.603,0.603-0.603
		h56.37c0.333,0,0.603,0.27,0.603,0.603v16.606C132.763,149.072,129.081,152.755,124.554,152.755z M76.393,128.544v16.002
		c0,3.861,3.141,7.002,7.002,7.002h41.159c3.861,0,7.002-3.141,7.002-7.002v-16.002H76.393z"/>
	<g>
		<path style="fill:#DBDBDA;" d="M122.738,149.299c-0.366,0-0.664-0.297-0.664-0.664c0-0.46-0.374-0.834-0.834-0.834
			c-0.46,0-0.834,0.374-0.834,0.834c0,0.366-0.297,0.664-0.664,0.664c-0.366,0-0.664-0.297-0.664-0.664
			c0-1.192,0.969-2.161,2.161-2.161s2.161,0.969,2.161,2.161C123.402,149.002,123.105,149.299,122.738,149.299z"/>
		<path style="fill:#DBDBDA;" d="M116.341,146.581c-0.366,0-0.664-0.297-0.664-0.664c0-0.46-0.374-0.834-0.834-0.834
			c-0.46,0-0.834,0.374-0.834,0.834c0,0.366-0.297,0.664-0.664,0.664c-0.366,0-0.664-0.297-0.664-0.664
			c0-1.192,0.969-2.161,2.161-2.161s2.161,0.969,2.161,2.161C117.005,146.284,116.708,146.581,116.341,146.581z"/>
		<path style="fill:#DBDBDA;" d="M92.828,148.079c-0.366,0-0.664-0.297-0.664-0.664c0-0.46-0.374-0.834-0.834-0.834
			c-0.46,0-0.834,0.374-0.834,0.834c0,0.366-0.297,0.664-0.664,0.664c-0.366,0-0.664-0.297-0.664-0.664
			c0-1.192,0.969-2.161,2.161-2.161c1.192,0,2.161,0.969,2.161,2.161C93.491,147.782,93.194,148.079,92.828,148.079z"/>
		<path style="fill:#DBDBDA;" d="M102.879,144.481c-0.366,0-0.664-0.297-0.664-0.664c0-0.46-0.374-0.834-0.834-0.834
			c-0.46,0-0.834,0.374-0.834,0.834c0,0.366-0.297,0.664-0.664,0.664c-0.366,0-0.664-0.297-0.664-0.664
			c0-1.192,0.969-2.161,2.161-2.161s2.161,0.969,2.161,2.161C103.542,144.184,103.245,144.481,102.879,144.481z"/>
		<path style="fill:#DBDBDA;" d="M127.897,143.733c-0.366,0-0.664-0.297-0.664-0.664c0-0.46-0.374-0.834-0.834-0.834
			c-0.46,0-0.834,0.374-0.834,0.834c0,0.366-0.297,0.664-0.664,0.664c-0.366,0-0.664-0.297-0.664-0.664
			c0-1.192,0.969-2.161,2.161-2.161c1.192,0,2.161,0.969,2.161,2.161C128.561,143.435,128.264,143.733,127.897,143.733z"/>
		<path style="fill:#DBDBDA;" d="M88.456,143.733c-0.366,0-0.664-0.297-0.664-0.664c0-0.46-0.374-0.834-0.834-0.834
			c-0.46,0-0.834,0.374-0.834,0.834c0,0.366-0.297,0.664-0.664,0.664s-0.664-0.297-0.664-0.664c0-1.192,0.969-2.161,2.161-2.161
			c1.191,0,2.161,0.969,2.161,2.161C89.119,143.435,88.822,143.733,88.456,143.733z"/>
		<path style="fill:#DBDBDA;" d="M109.27,150.048c-0.366,0-0.664-0.297-0.664-0.664c0-0.46-0.374-0.834-0.834-0.834
			c-0.46,0-0.834,0.374-0.834,0.834c0,0.366-0.297,0.664-0.664,0.664c-0.366,0-0.664-0.297-0.664-0.664
			c0-1.191,0.969-2.161,2.161-2.161s2.161,0.969,2.161,2.161C109.934,149.751,109.637,150.048,109.27,150.048z"/>
		<path style="fill:#DBDBDA;" d="M83.211,148.551c-0.366,0-0.664-0.297-0.664-0.664c0-0.46-0.374-0.834-0.834-0.834
			c-0.46,0-0.834,0.374-0.834,0.834c0,0.366-0.297,0.664-0.664,0.664c-0.366,0-0.664-0.297-0.664-0.664
			c0-1.192,0.969-2.161,2.161-2.161c1.192,0,2.161,0.969,2.161,2.161C83.874,148.254,83.577,148.551,83.211,148.551z"/>
	</g>
	<g>
		<path style="fill:#C7B56F;" d="M136.393,120.444v7.545c0,6.142-4.978,11.12-11.119,11.12H82.675c-3.071,0-5.849-1.245-7.862-3.256
			c-2.011-2.013-3.256-4.793-3.256-7.864v-7.545H136.393z"/>
		<path style="fill:#1C164B;" d="M125.274,139.713H82.675c-3.13,0-6.073-1.219-8.289-3.433c-2.214-2.216-3.433-5.16-3.433-8.291
			v-7.545c0-0.333,0.27-0.603,0.603-0.603h64.836c0.333,0,0.603,0.27,0.603,0.603v7.545
			C136.996,134.453,131.738,139.713,125.274,139.713z M72.16,121.047v6.942c0,2.809,1.094,5.45,3.08,7.438
			c1.987,1.986,4.628,3.079,7.436,3.079h42.598c5.798,0,10.516-4.718,10.516-10.517v-6.942H72.16z"/>
		<path style="fill:#F6E597;" d="M125.274,109.325H82.676c-6.141,0-11.119,4.978-11.119,11.119v0
			c0,6.141,4.978,11.119,11.119,11.119h42.598c6.141,0,11.119-4.978,11.119-11.119v0
			C136.393,114.303,131.415,109.325,125.274,109.325z"/>
		<path style="fill:#1C164B;" d="M125.274,132.167H82.676c-6.464,0-11.723-5.259-11.723-11.723c0-6.464,5.259-11.723,11.723-11.723
			h42.598c6.464,0,11.723,5.259,11.723,11.723C136.996,126.908,131.738,132.167,125.274,132.167z M82.676,109.928
			c-5.799,0-10.516,4.717-10.516,10.516s4.718,10.516,10.516,10.516h42.598c5.799,0,10.516-4.717,10.516-10.516
			s-4.718-10.516-10.516-10.516H82.676z"/>
		<path style="fill:#E5D387;" d="M124.106,113.022H115.6c-0.4,0-0.724-0.324-0.724-0.724c0-0.4,0.324-0.724,0.724-0.724h8.506
			c0.4,0,0.724,0.324,0.724,0.724C124.83,112.697,124.506,113.022,124.106,113.022z"/>
		<path style="fill:#E5D387;" d="M90.081,125.97H82.52c-0.4,0-0.724-0.324-0.724-0.724c0-0.4,0.324-0.724,0.724-0.724h7.561
			c0.4,0,0.724,0.324,0.724,0.724C90.805,125.646,90.481,125.97,90.081,125.97z"/>
		<path style="fill:#E5D387;" d="M90.081,116.707h-6.049c-0.4,0-0.724-0.324-0.724-0.724c0-0.4,0.324-0.724,0.724-0.724h6.049
			c0.4,0,0.724,0.324,0.724,0.724C90.805,116.383,90.481,116.707,90.081,116.707z"/>
		<path style="fill:#E5D387;" d="M111.158,120.488h-6.238c-0.4,0-0.724-0.324-0.724-0.724s0.324-0.724,0.724-0.724h6.238
			c0.4,0,0.724,0.324,0.724,0.724S111.557,120.488,111.158,120.488z"/>
		<path style="fill:#E5D387;" d="M127.414,125.97h-6.427c-0.4,0-0.724-0.324-0.724-0.724c0-0.4,0.324-0.724,0.724-0.724h6.427
			c0.4,0,0.724,0.324,0.724,0.724C128.138,125.646,127.814,125.97,127.414,125.97z"/>
		<path style="fill:#B1A36A;" d="M86.301,134.854h-2.835c-0.4,0-0.724-0.324-0.724-0.724c0-0.4,0.324-0.724,0.724-0.724h2.835
			c0.4,0,0.724,0.324,0.724,0.724C87.025,134.53,86.701,134.854,86.301,134.854z"/>
		<path style="fill:#B1A36A;" d="M124.957,136.555h-6.994c-0.4,0-0.724-0.324-0.724-0.724c0-0.4,0.324-0.724,0.724-0.724h6.994
			c0.4,0,0.724,0.324,0.724,0.724C125.681,136.231,125.356,136.555,124.957,136.555z"/>
	</g>
	<path style="fill:#6A6E6A;" d="M110.503,110.236v41.093c0,0.927-0.751,1.678-1.678,1.678h-9.701c-0.927,0-1.678-0.751-1.678-1.678
		v-41.093c0-0.926,0.751-1.677,1.678-1.677h9.701C109.752,108.559,110.503,109.31,110.503,110.236z"/>
	<path style="fill:#515252;" d="M110.503,131.563v19.766c0,0.927-0.751,1.678-1.678,1.678h-9.701c-0.927,0-1.678-0.751-1.678-1.678
		v-19.766H110.503z"/>
	<path style="fill:#1C164B;" d="M108.825,153.611h-9.701c-1.258,0-2.281-1.023-2.281-2.281v-41.093c0-1.258,1.023-2.281,2.281-2.281
		h9.701c1.258,0,2.281,1.023,2.281,2.281v41.093C111.106,152.588,110.083,153.611,108.825,153.611z M99.124,109.162
		c-0.593,0-1.075,0.482-1.075,1.075v41.093c0,0.592,0.482,1.075,1.075,1.075h9.701c0.593,0,1.075-0.482,1.075-1.075v-41.093
		c0-0.593-0.482-1.075-1.075-1.075H99.124z"/>
</g>
</svg>
