<?xml version="1.0" encoding="iso-8859-1"?>
<!-- Generator: Adobe Illustrator 21.1.0, SVG Export Plug-In . SVG Version: 6.00 Build 0)  -->
<svg version="1.1" id="Layer_1" xmlns="http://www.w3.org/2000/svg" xmlns:xlink="http://www.w3.org/1999/xlink" x="0px" y="0px"
	 viewBox="0 0 200 200" style="enable-background:new 0 0 200 200;" xml:space="preserve">
<g>
	<path style="fill:#72B7A0;" d="M145.839,29.778c-0.123,7.531,1.159,15.459,0.483,22.836c7.649-7.785,15.544-15.214,20.568-19.189
		c0.686-0.542,1.309-1.011,1.88-1.417c-7.216-7.256-15.572-13.375-24.779-18.069C145.786,18.527,146.047,25.355,145.839,29.778z"/>
	<path style="fill:#72B7A0;" d="M171.988,35.4c-0.451,4.546-2.276,9.831-3.796,13.326c-2.915,7.314-4.544,15.581-8.105,22.419
		c-2.875,5.468-7.334,9.589-12.38,12.809c0.504,0.447,0.958,0.948,1.361,1.494c4.683,3.035,8.477,7.178,10.564,12.732
		c0.804,2.143,0.865,4.241,0.349,6.192l0.476,8.416l2.353,41.622c0,0-83.526,35.428-122.915-17.132l-1.826-33.453l-0.649-11.902
		c-0.085-0.743-0.137-1.484-0.121-2.218c0.181-8.219,7.882-12.872,14.712-15.431c2.059-0.77,4.189-1.374,6.365-1.846
		c1.202-3.144,4.011-5.569,7.575-6.103c3.207-0.48,6.274,0.684,8.363,2.852c1.985-4.81,6.355-8.494,11.873-9.321
		c6.89-1.031,13.385,2.709,16.159,8.733c1.067-1.306,2.405-2.393,3.956-3.154c1.376-14.54,6.76-41.235,10.466-52.545
		c0.942-2.864,1.773-4.746,2.405-5.185c3.835,3.411,6.2,11.961,7.129,17.227c0.749,3.604,1.849,7.226,2.89,10.846
		c3.646-7.994,7.31-15.341,9.999-19.842c0.83-1.388,1.563-2.496,2.177-3.28C128.818,6.729,114.797,3.41,100,3.41
		c-53.571,0-97,43.428-97,97c0,53.571,43.429,97.001,97,97.001c53.572,0,97-43.429,97-97.001C197,75.4,187.532,52.603,171.988,35.4z
		"/>
	<g>
		<path style="fill:#FFFAE6;" d="M50.686,94.892c-2.285-1.445-3.957-3.83-4.388-6.714c-0.476-3.177,0.666-6.216,2.796-8.305
			c-3.028,1.874-5.583,4.325-6.627,7.695c-1.374,4.444,0.871,9.046,3.961,13.024C47.294,98.338,48.767,96.359,50.686,94.892z"/>
	</g>
	<g>
		<path style="fill:#FFFAE6;" d="M88.399,90.276c0.005,0.032,0.009,0.064,0.01,0.096c0.017-0.032,0.034-0.064,0.051-0.095
			C88.441,90.277,88.421,90.277,88.399,90.276z"/>
	</g>
	<g>
		<path style="fill:#FFFAE6;" d="M57.859,77.343c-0.004-0.02-0.01-0.042-0.012-0.063c-0.067-0.441-0.091-0.879-0.095-1.313
			c-1.065,0.378-2.185,0.791-3.318,1.253C55.61,77.049,56.764,77.106,57.859,77.343z"/>
	</g>
	<g>
		<path style="fill:#FFFAE6;" d="M73.139,105.55c-0.514-0.041-1.02-0.113-1.52-0.209c-0.022,3.825-1.725,7.354-4.5,9.761
			c1.64,0.72,3.342,1.408,5.092,2.059c-0.371-0.928-0.656-1.906-0.812-2.938C70.932,111.093,71.618,108.059,73.139,105.55z"/>
	</g>
	<g>
		<path style="fill:#FFFAE6;" d="M110.791,97.469c0.943-0.095,1.872-0.089,2.781,0.014c-0.922-1.398-1.571-3.007-1.836-4.772
			c-0.243-1.618-0.146-3.21,0.235-4.701c-1.634,0.06-3.219-0.22-4.678-0.781c1.811,1.754,3.089,4.085,3.491,6.771
			C110.96,95.18,110.953,96.345,110.791,97.469z"/>
	</g>
	<g>
		<path style="fill:#FFFAE6;" d="M99.203,112.352c-0.242-1.613-0.163-3.196,0.165-4.7c-1.035,0.031-2.047-0.073-3.022-0.298
			c0.386,0.948,0.682,1.95,0.84,3.009c0.662,4.418-0.979,8.647-4.021,11.476c4.066,0.155,8.134,0.055,12.193-0.258
			C102.152,119.643,99.801,116.347,99.203,112.352z"/>
	</g>
	<g>
		<path style="fill:#FFFAE6;" d="M87.239,97.524c-0.014-0.096-0.016-0.19-0.028-0.286c-0.337,0.749-0.739,1.463-1.201,2.14
			c0.61,0.081,1.206,0.203,1.787,0.366C87.547,99.035,87.355,98.295,87.239,97.524z"/>
	</g>
	<g>
		<path style="fill:#FFFAE6;" d="M132.972,115.893c-3.103,0.464-6.075-0.615-8.158-2.65c-0.507,2.278-1.609,4.359-3.168,6.043
			c5.271-1.046,10.497-2.349,15.649-3.802c6.248-2.994,12.438-6.98,18.438-12.167l1.278-1.685c-0.028-0.478-0.096-0.971-0.216-1.484
			c-0.748-3.167-3.108-5.708-5.942-7.772c-0.533,4.168-3.762,7.65-8.122,8.303c-1.202,0.18-2.381,0.119-3.503-0.127
			c0.945,1.244,1.599,2.734,1.847,4.387C141.862,110.2,138.234,115.105,132.972,115.893z"/>
	</g>
	<g>
		<path style="fill:#FFFAE6;" d="M101.653,82.72c-0.257,0.438-0.534,0.864-0.833,1.275c0.844,0.13,1.661,0.356,2.443,0.657
			C102.662,84.069,102.122,83.423,101.653,82.72z"/>
	</g>
	<path style="fill:#71A838;" d="M163.034,56.376c-2.44,6.67-5.107,15.665-9.563,20.344c-2.039,2.199-4.491,4.263-7.055,6.27
		c0.455,0.286,0.889,0.606,1.29,0.964c5.046-3.22,9.505-7.341,12.38-12.809c3.561-6.838,5.19-15.105,8.105-22.419
		c1.519-3.495,3.345-8.78,3.796-13.326c0.182-1.832,0.147-3.548-0.23-4.973c-0.547,0.013-1.586,0.585-2.986,1.581
		c-0.571,0.406-1.195,0.875-1.88,1.417C169.183,41.395,166.221,49.592,163.034,56.376z"/>
	<path style="fill:#E8EF8E;" d="M134.175,84.669c-0.157,0.047-0.317,0.089-0.476,0.127c0.052,0.088,0.096,0.181,0.147,0.27
		C133.955,84.933,134.061,84.798,134.175,84.669z"/>
	<path style="fill:#E8EF8E;" d="M139.367,80.972c0.548,0.175,1.093,0.359,1.634,0.552c1.964-0.064,3.835,0.475,5.415,1.466
		c2.564-2.007,5.016-4.071,7.055-6.27c4.456-4.68,7.123-13.675,9.563-20.344c3.187-6.784,6.148-14.981,3.857-22.951
		c-5.025,3.975-12.919,11.404-20.568,19.189c-0.032,0.333-0.061,0.668-0.1,0.998c-0.737,6.062-3.386,11.443-6.897,16.202
		c0.864,1.203,1.468,2.618,1.702,4.183C141.41,76.551,140.745,79.016,139.367,80.972z"/>
	<path style="fill:#71A838;" d="M143.734,38.76c0.086,7.102,0.789,16.457-1.717,22.414c-0.991,2.452-2.324,4.918-3.779,7.378
		c0.396,0.388,0.76,0.809,1.087,1.262c3.51-4.759,6.16-10.14,6.897-16.202c0.039-0.331,0.069-0.666,0.1-0.998
		c0.676-7.377-0.607-15.305-0.483-22.836c0.207-4.423-0.054-11.251-1.847-15.839c-0.372-0.953-0.806-1.817-1.321-2.534
		c-0.331,0.134-0.775,0.573-1.306,1.25c-0.615,0.784-1.347,1.892-2.177,3.28C144.161,22.572,144.304,31.287,143.734,38.76z"/>
	<path style="fill:#F2FCA9;" d="M128.346,66.325c0.552-0.19,1.126-0.34,1.726-0.43c3.108-0.465,6.082,0.617,8.166,2.657
		c1.454-2.461,2.788-4.927,3.779-7.378c2.505-5.957,1.803-15.312,1.717-22.414c0.569-7.474,0.427-16.188-4.546-22.826
		c-2.689,4.5-6.352,11.847-9.999,19.842c1.186,4.122,2.297,8.24,2.725,12.322C132.562,54.513,130.97,60.658,128.346,66.325z"/>
	<path style="fill:#71A838;" d="M126.221,34.158c1.645,6.907,4.388,15.88,3.254,22.242c-0.572,3.491-1.725,7.143-2.986,10.793
		c0.577-0.352,1.201-0.64,1.857-0.867c2.623-5.668,4.216-11.812,3.568-18.226c-0.427-4.082-1.538-8.2-2.725-12.322
		c-1.04-3.619-2.141-7.241-2.89-10.846c-0.929-5.266-3.294-13.816-7.129-17.227c-0.632,0.44-1.463,2.321-2.405,5.185
		C123.079,18.27,125.134,26.74,126.221,34.158z"/>
	<path style="fill:#F2FCA9;" d="M122.606,71.743c0.779-1.877,2.132-3.484,3.884-4.551c1.261-3.65,2.414-7.302,2.986-10.793
		c1.134-6.362-1.609-15.334-3.254-22.242c-1.088-7.417-3.142-15.887-9.455-21.268c-3.707,11.31-9.091,38.006-10.466,52.545
		c1.072-0.525,2.24-0.901,3.482-1.087C115.367,63.512,120.617,66.706,122.606,71.743z"/>
	<path style="fill:#393C3F;" d="M138.627,81.903c0.406-0.117,0.82-0.218,1.25-0.283c0.377-0.056,0.752-0.084,1.124-0.096
		c-0.541-0.194-1.086-0.377-1.634-0.552C139.137,81.296,138.893,81.61,138.627,81.903z"/>
	<path style="fill:#FFFFFF;" d="M64.711,90.456c0.657,0.056,1.315-0.234,1.535-0.995c0.367-1.258,0.68-2.795,1.408-3.982
		c-0.79,0.023-1.565-0.054-2.311-0.216c0.003,0.021,0.01,0.041,0.012,0.062C65.626,87.129,65.365,88.888,64.711,90.456z"/>
	<path style="fill:#FFFFFF;" d="M82.737,99.363c0.096-0.103,0.108-0.124,0.023-0.051c0.277-0.24-0.07,0.043,0.554-0.233
		c0.427-0.19,0.766-0.594,0.918-1.034c0.428-1.264,0.174-3.072-1.058-3.786c-0.312-0.181-0.602-0.135-0.848,0.127
		c-0.449,0.476-0.449,0.878-0.644,1.462c-0.049,0.15-0.073,0.291-0.104,0.424c-0.372,0.132-0.722,0.319-1.008,0.595
		c-0.241,0.234-0.48,0.472-0.697,0.73c-0.293,0.349-0.143,0.404-0.319,0.802c-0.239,0.532-0.014,1.207,0.424,1.598
		c0.764-0.266,1.558-0.474,2.385-0.597C82.488,99.382,82.611,99.379,82.737,99.363z"/>
	<path style="fill:#FFFFFF;" d="M76.572,73.013c0.659,1.145,2.742,1.377,3.188-0.159c0.487-1.666,0.874-3.8,2.127-5.114
		c1.35-1.414,3.3-2.527,5.061-3.361c0.325-0.155,0.175-0.625-0.174-0.595c-2.398,0.214-4.97,0.356-6.934,1.991
		c-1.954,1.627-3.032,3.661-3.449,6.217c-0.027,0.161-0.021,0.311-0.005,0.455C76.455,72.633,76.513,72.823,76.572,73.013z"/>
	<path style="fill:#FFFFFF;" d="M97.516,83.608c0.159-0.168,0.186-0.205,0.078-0.114c0.301-0.259-0.075,0.047,0.6-0.251
		c0.462-0.205,0.829-0.641,0.991-1.117c0.463-1.364,0.188-3.317-1.141-4.088c-0.338-0.197-0.65-0.146-0.917,0.137
		c-0.487,0.514-0.487,0.947-0.694,1.579c-0.054,0.163-0.081,0.314-0.113,0.457c-0.402,0.142-0.781,0.344-1.088,0.644
		c-0.262,0.252-0.519,0.508-0.754,0.788c-0.316,0.377-0.153,0.436-0.345,0.867c-0.34,0.76,0.194,1.784,0.981,2.012
		c0.639-0.22,1.304-0.392,1.993-0.503C97.249,83.889,97.388,83.753,97.516,83.608z"/>
	<path style="fill:#EF5722;" d="M87.797,99.744c3.827,1.071,7.016,3.861,8.55,7.61c0.974,0.225,1.986,0.329,3.022,0.298
		c0.754-3.46,2.888-6.478,5.893-8.33c0.119-0.413,0.16-0.726,0.498-1.084c0.206-0.221,0.449-0.26,0.712-0.107
		c0.163,0.094,0.298,0.218,0.421,0.352c1.025-0.445,2.116-0.78,3.273-0.953c0.209-0.031,0.416-0.041,0.625-0.062
		c0.162-1.124,0.169-2.288-0.007-3.469c-0.402-2.686-1.679-5.017-3.491-6.771c-1.507-0.579-2.874-1.46-4.029-2.578
		c-0.782-0.301-1.599-0.527-2.443-0.657c-1.155-0.176-2.356-0.186-3.57-0.004c-0.049,0.007-0.096,0.021-0.144,0.029
		c-0.689,0.112-1.354,0.283-1.993,0.503c-2.928,1.013-5.274,3.11-6.652,5.755c-0.017,0.031-0.034,0.063-0.051,0.095
		c-1.044,2.051-1.504,4.421-1.199,6.865c0.012,0.096,0.014,0.19,0.028,0.286C87.355,98.295,87.547,99.035,87.797,99.744z
		 M89.631,93.43c0.324-1.988,1.163-3.57,2.683-4.836c1.527-1.271,3.529-1.383,5.393-1.548c0.272-0.023,0.389,0.342,0.134,0.463
		c-1.368,0.649-2.887,1.515-3.936,2.615c-0.974,1.021-1.277,2.681-1.654,3.978C91.815,95.594,89.382,94.94,89.631,93.43z"/>
	<path style="fill:#FFFFFF;" d="M92.251,94.101c0.377-1.297,0.68-2.956,1.654-3.978c1.049-1.1,2.568-1.966,3.936-2.615
		c0.255-0.12,0.137-0.485-0.134-0.463c-1.864,0.165-3.867,0.278-5.393,1.548c-1.52,1.266-2.358,2.848-2.683,4.836
		C89.382,94.94,91.815,95.594,92.251,94.101z"/>
	<path style="fill:#FFFFFF;" d="M105.759,98.238c-0.338,0.358-0.379,0.671-0.498,1.084c0.516-0.319,1.066-0.592,1.632-0.838
		c-0.123-0.134-0.259-0.258-0.421-0.352C106.208,97.978,105.965,98.017,105.759,98.238z"/>
	<path style="fill:#FC8829;" d="M97.186,110.362c-0.158-1.059-0.454-2.061-0.84-3.009c-1.534-3.749-4.722-6.539-8.55-7.61
		c-0.581-0.163-1.178-0.285-1.787-0.366c-1.065-0.14-2.162-0.148-3.273-0.015c-0.126,0.016-0.249,0.019-0.375,0.038
		c-0.827,0.123-1.622,0.331-2.385,0.597c-2.911,1.02-5.301,3.014-6.839,5.552c-1.52,2.509-2.207,5.544-1.739,8.673
		c0.156,1.032,0.44,2.01,0.812,2.938c2.202,5.473,7.925,8.936,14.012,8.025c2.703-0.405,5.084-1.615,6.943-3.346
		C96.207,119.009,97.848,114.78,97.186,110.362z M83.011,103.253c-1.498,0.71-3.161,1.659-4.311,2.864
		c-1.067,1.119-1.397,2.936-1.811,4.356c-0.477,1.637-3.142,0.92-2.87-0.734c0.355-2.177,1.272-3.909,2.938-5.296
		c1.672-1.392,3.865-1.515,5.907-1.695C83.161,102.721,83.289,103.122,83.011,103.253z M93.436,118.37
		c-0.138,0.406-0.451,0.777-0.844,0.952c-0.574,0.254-0.255-0.007-0.51,0.214c0.092-0.077,0.068-0.046-0.066,0.098
		c-0.129,0.146-0.267,0.285-0.414,0.414c-0.319,0.295-0.718,0.271-1.103,0.379c-0.934,0.26-1.729-0.919-1.365-1.729
		c0.162-0.366,0.026-0.417,0.294-0.738c0.199-0.237,0.419-0.457,0.64-0.671c0.263-0.255,0.587-0.427,0.928-0.547
		c0.029-0.123,0.051-0.253,0.096-0.39c0.178-0.538,0.178-0.906,0.592-1.345c0.226-0.242,0.494-0.285,0.781-0.117
		C93.595,115.545,93.83,117.208,93.436,118.37z"/>
	<path style="fill:#FFFFFF;" d="M82.864,102.748c-2.042,0.18-4.235,0.302-5.907,1.695c-1.666,1.387-2.583,3.119-2.938,5.296
		c-0.272,1.654,2.393,2.372,2.87,0.734c0.414-1.42,0.743-3.237,1.811-4.356c1.149-1.205,2.812-2.153,4.311-2.864
		C83.289,103.122,83.161,102.721,82.864,102.748z"/>
	<path style="fill:#FFFFFF;" d="M92.463,114.888c-0.287-0.169-0.554-0.125-0.781,0.117c-0.414,0.439-0.414,0.807-0.592,1.345
		c-0.046,0.138-0.067,0.267-0.096,0.39c-0.34,0.12-0.665,0.293-0.928,0.547c-0.222,0.215-0.441,0.434-0.64,0.671
		c-0.268,0.321-0.132,0.372-0.294,0.738c-0.363,0.81,0.431,1.99,1.365,1.729c0.385-0.108,0.785-0.083,1.103-0.379
		c0.147-0.129,0.285-0.268,0.414-0.414c0.134-0.144,0.158-0.175,0.066-0.098c0.256-0.22-0.064,0.04,0.51-0.214
		c0.393-0.174,0.706-0.546,0.844-0.952C93.83,117.208,93.595,115.545,92.463,114.888z"/>
	<path style="fill:#FFFFFF;" d="M53.82,96.166c-0.919,0.233-1.794,0.597-2.561,1.233c-1.664,1.387-2.583,3.119-2.938,5.296
		c-0.272,1.655,2.395,2.371,2.87,0.735c0.415-1.42,0.745-3.237,1.811-4.356c1.11-1.164,2.696-2.083,4.154-2.785
		C56.013,96.45,54.889,96.395,53.82,96.166z"/>
	<path style="fill:#FFFFFF;" d="M66.766,107.846c-0.287-0.168-0.554-0.125-0.781,0.117c-0.414,0.438-0.414,0.807-0.594,1.345
		c-0.043,0.138-0.066,0.268-0.094,0.39c-0.342,0.12-0.665,0.293-0.928,0.547c-0.223,0.215-0.441,0.434-0.642,0.672
		c-0.268,0.321-0.13,0.372-0.294,0.738c-0.362,0.81,0.432,1.989,1.367,1.728c0.383-0.106,0.783-0.083,1.102-0.378
		c0.148-0.129,0.285-0.267,0.415-0.413c0.134-0.144,0.157-0.176,0.065-0.098c0.256-0.22-0.064,0.039,0.51-0.215
		c0.394-0.174,0.707-0.545,0.844-0.951C68.134,110.165,67.899,108.502,66.766,107.846z"/>
	<path style="fill:#FFFFFF;" d="M110.666,100.877c-2.042,0.18-4.233,0.302-5.907,1.695c-1.664,1.387-2.582,3.119-2.938,5.296
		c-0.272,1.655,2.395,2.372,2.87,0.734c0.414-1.42,0.745-3.237,1.811-4.355c1.149-1.205,2.812-2.153,4.312-2.864
		C111.092,101.251,110.963,100.851,110.666,100.877z"/>
	<path style="fill:#FFFFFF;" d="M119.485,113.135c-0.414,0.438-0.414,0.807-0.592,1.345c-0.045,0.138-0.068,0.267-0.096,0.39
		c-0.342,0.12-0.665,0.293-0.928,0.547c-0.223,0.215-0.441,0.434-0.642,0.671c-0.269,0.322-0.13,0.373-0.294,0.738
		c-0.362,0.81,0.432,1.99,1.367,1.729c0.383-0.107,0.783-0.083,1.103-0.379c0.147-0.129,0.284-0.268,0.414-0.414
		c0.134-0.143,0.157-0.175,0.065-0.097c0.256-0.221-0.064,0.039,0.512-0.214c0.393-0.174,0.706-0.546,0.843-0.953
		c0.396-1.162,0.161-2.824-0.972-3.482C119.979,112.85,119.711,112.893,119.485,113.135z"/>
	<path style="fill:#FFFFFF;" d="M122.203,82.233c-0.155,0.013-0.314,0.027-0.472,0.041c-0.247,0.409-0.526,0.796-0.82,1.172
		c0.478-0.273,0.958-0.529,1.426-0.751C122.591,82.575,122.474,82.209,122.203,82.233z"/>
	<path style="fill:#FFFFFF;" d="M116.748,89.287c0.273-0.937,0.509-2.061,0.987-2.999c-1.032,0.628-2.177,1.101-3.403,1.395
		c-0.081,0.302-0.153,0.61-0.203,0.932C113.88,90.126,116.312,90.781,116.748,89.287z"/>
	<path style="fill:#FFFFFF;" d="M130.119,96.836c0.548-0.082,1.088-0.106,1.624-0.095c0.045-0.079,0.083-0.161,0.112-0.244
		c0.361-1.061,0.147-2.58-0.888-3.179c-0.262-0.154-0.506-0.114-0.712,0.107c-0.378,0.4-0.378,0.737-0.54,1.227
		c-0.041,0.126-0.062,0.244-0.088,0.356c-0.312,0.11-0.608,0.268-0.846,0.501c-0.205,0.195-0.404,0.395-0.588,0.613
		c-0.245,0.293-0.119,0.339-0.268,0.674c-0.093,0.209-0.096,0.442-0.042,0.667C128.588,97.173,129.333,96.954,130.119,96.836z"/>
	<path style="fill:#F26B20;" d="M57.847,77.28c0.003,0.021,0.009,0.043,0.012,0.063c3.782,0.819,6.85,3.875,7.483,7.92
		c0.747,0.161,1.521,0.239,2.311,0.216c-0.728,1.186-1.04,2.723-1.408,3.982c-0.22,0.762-0.878,1.051-1.535,0.995
		c-1.258,3.007-4,5.308-7.459,5.825c-0.032,0.005-0.064,0.005-0.096,0.009c-1.458,0.702-3.044,1.621-4.154,2.785
		c-1.066,1.119-1.397,2.936-1.811,4.356c-0.475,1.636-3.141,0.92-2.87-0.735c0.355-2.177,1.273-3.909,2.938-5.296
		c0.766-0.636,1.641-1,2.561-1.233c-1.122-0.239-2.181-0.672-3.135-1.275c-1.919,1.467-3.392,3.446-4.258,5.7
		c-0.779,2.032-1.069,4.283-0.724,6.589c1.066,7.121,7.705,12.028,14.823,10.963c2.538-0.381,4.786-1.477,6.593-3.042
		c2.775-2.406,4.478-5.935,4.5-9.761c0.501,0.096,1.006,0.168,1.52,0.209c1.537-2.538,3.928-4.533,6.839-5.552
		c-0.438-0.391-0.663-1.066-0.424-1.598c0.176-0.398,0.027-0.453,0.319-0.802c0.217-0.258,0.455-0.497,0.697-0.73
		c0.286-0.276,0.636-0.463,1.008-0.595c0.031-0.133,0.055-0.274,0.104-0.424c0.194-0.585,0.194-0.986,0.644-1.462
		c0.246-0.262,0.536-0.308,0.848-0.127c1.231,0.714,1.486,2.522,1.058,3.786c-0.152,0.44-0.491,0.844-0.918,1.034
		c-0.623,0.276-0.277-0.007-0.554,0.233c0.085-0.073,0.073-0.052-0.023,0.051c1.111-0.133,2.208-0.125,3.273,0.015
		c0.461-0.677,0.864-1.391,1.201-2.14c-0.306-2.444,0.154-4.814,1.199-6.865c-0.001-0.032-0.005-0.064-0.01-0.096
		c0.022,0.001,0.041,0.001,0.061,0.001c1.378-2.645,3.724-4.742,6.652-5.755c-0.788-0.228-1.322-1.252-0.981-2.012
		c0.192-0.431,0.03-0.49,0.345-0.867c0.235-0.279,0.492-0.536,0.754-0.788c0.308-0.3,0.687-0.502,1.088-0.644
		c0.033-0.143,0.06-0.295,0.113-0.457c0.207-0.632,0.207-1.065,0.694-1.579c0.267-0.283,0.579-0.335,0.917-0.137
		c1.329,0.771,1.603,2.724,1.141,4.088c-0.162,0.476-0.529,0.913-0.991,1.117c-0.674,0.298-0.299-0.008-0.6,0.251
		c0.108-0.091,0.081-0.054-0.078,0.114c-0.127,0.145-0.267,0.28-0.41,0.411c0.049-0.008,0.095-0.022,0.144-0.029
		c1.214-0.182,2.415-0.173,3.57,0.004c0.299-0.411,0.575-0.836,0.833-1.275c0.47,0.703,1.01,1.349,1.611,1.931
		c1.155,1.118,2.522,1.999,4.029,2.578c1.459,0.561,3.044,0.84,4.678,0.781c-0.38,1.491-0.478,3.083-0.235,4.701
		c0.264,1.765,0.914,3.374,1.836,4.772c-0.909-0.103-1.838-0.109-2.781-0.014c-0.209,0.021-0.416,0.031-0.625,0.062
		c-1.157,0.173-2.248,0.508-3.273,0.953c-0.566,0.246-1.115,0.52-1.632,0.838c-3.005,1.851-5.138,4.87-5.893,8.33
		c-0.328,1.505-0.407,3.087-0.165,4.7c0.598,3.995,2.949,7.291,6.156,9.229c2.509,1.517,5.541,2.202,8.667,1.734
		c3.044-0.456,5.677-1.935,7.621-4.029c1.559-1.683,2.661-3.765,3.168-6.043c2.083,2.036,5.055,3.115,8.158,2.65
		c5.262-0.788,8.89-5.693,8.103-10.955c-0.247-1.653-0.902-3.143-1.847-4.387c-3.783-0.836-6.846-3.914-7.453-7.975
		c-0.419-2.795,0.417-5.48,2.071-7.51c-0.051-0.089-0.095-0.182-0.147-0.27c-0.255,0.06-0.51,0.117-0.773,0.157
		c-5.262,0.787-10.167-2.84-10.955-8.102c-0.268-1.796-0.014-3.545,0.635-5.107c-1.989-5.037-7.239-8.231-12.824-7.396
		c-1.243,0.186-2.41,0.562-3.482,1.087c-1.551,0.761-2.889,1.849-3.956,3.154c-2.774-6.024-9.269-9.764-16.159-8.733
		c-5.518,0.827-9.888,4.511-11.873,9.321c-2.09-2.168-5.156-3.333-8.363-2.852c-3.564,0.534-6.373,2.959-7.575,6.103
		c-0.421,1.107-0.639,2.303-0.622,3.539C57.756,76.401,57.78,76.839,57.847,77.28z M110.814,101.383
		c-1.5,0.71-3.163,1.658-4.312,2.864c-1.066,1.119-1.397,2.936-1.811,4.355c-0.476,1.637-3.142,0.92-2.87-0.734
		c0.356-2.177,1.273-3.909,2.938-5.296c1.674-1.392,3.865-1.514,5.907-1.695C110.963,100.851,111.092,101.251,110.814,101.383z
		 M135.121,111.098c0.121-0.272,0.02-0.308,0.217-0.546c0.15-0.175,0.311-0.336,0.476-0.495c0.193-0.188,0.432-0.316,0.684-0.405
		c0.021-0.091,0.038-0.186,0.071-0.289c0.131-0.397,0.131-0.67,0.438-0.994c0.167-0.178,0.365-0.211,0.577-0.086
		c0.837,0.485,1.011,1.714,0.718,2.574c-0.1,0.299-0.333,0.574-0.624,0.703c-0.424,0.187-0.188-0.005-0.377,0.158
		c0.068-0.058,0.053-0.034-0.048,0.073c-0.096,0.108-0.198,0.209-0.307,0.305c-0.236,0.218-0.53,0.201-0.814,0.28
		C135.441,112.568,134.853,111.697,135.121,111.098z M127.926,96.796c0.149-0.335,0.023-0.381,0.268-0.674
		c0.184-0.218,0.383-0.417,0.588-0.613c0.237-0.232,0.533-0.39,0.846-0.501c0.026-0.112,0.047-0.23,0.088-0.356
		c0.162-0.491,0.162-0.828,0.54-1.227c0.207-0.221,0.451-0.261,0.712-0.107c1.035,0.599,1.25,2.118,0.888,3.179
		c-0.029,0.083-0.067,0.165-0.112,0.244c-0.536-0.01-1.076,0.013-1.624,0.095c-0.786,0.117-1.531,0.337-2.235,0.627
		C127.83,97.238,127.832,97.004,127.926,96.796z M123.951,104.476c0.263-1.608,0.941-2.889,2.172-3.914
		c1.237-1.029,2.856-1.119,4.366-1.252c0.22-0.02,0.314,0.277,0.109,0.374c-1.109,0.525-2.337,1.226-3.187,2.116
		c-0.787,0.826-1.032,2.17-1.339,3.22C125.72,106.229,123.751,105.699,123.951,104.476z M121.731,82.274
		c0.158-0.014,0.317-0.028,0.472-0.041c0.271-0.024,0.388,0.342,0.134,0.462c-0.468,0.222-0.949,0.478-1.426,0.751
		C121.205,83.07,121.483,82.683,121.731,82.274z M121.237,116.5c-0.137,0.406-0.45,0.778-0.843,0.953
		c-0.575,0.253-0.256-0.007-0.512,0.214c0.092-0.077,0.07-0.046-0.065,0.097c-0.13,0.146-0.267,0.285-0.414,0.414
		c-0.32,0.296-0.72,0.272-1.103,0.379c-0.935,0.261-1.729-0.919-1.367-1.729c0.164-0.365,0.025-0.416,0.294-0.738
		c0.201-0.237,0.419-0.456,0.642-0.671c0.263-0.254,0.586-0.427,0.928-0.547c0.028-0.123,0.051-0.253,0.096-0.39
		c0.178-0.538,0.178-0.907,0.592-1.345c0.226-0.241,0.494-0.285,0.781-0.117C121.398,113.675,121.633,115.338,121.237,116.5z
		 M115.962,81.966c0.15-0.335,0.024-0.38,0.269-0.674c0.182-0.217,0.381-0.417,0.585-0.613c0.24-0.232,0.535-0.39,0.847-0.499
		c0.027-0.113,0.047-0.231,0.087-0.358c0.163-0.491,0.163-0.827,0.542-1.227c0.206-0.22,0.449-0.26,0.712-0.107
		c1.033,0.6,1.248,2.118,0.886,3.179c-0.125,0.371-0.41,0.71-0.769,0.87c-0.525,0.231-0.234-0.007-0.466,0.195
		c0.083-0.071,0.062-0.042-0.061,0.089c-0.117,0.133-0.243,0.26-0.378,0.378c-0.291,0.27-0.655,0.248-1.006,0.346
		C116.356,83.782,115.631,82.706,115.962,81.966z M114.128,88.615c0.051-0.323,0.123-0.63,0.203-0.932
		c1.226-0.295,2.371-0.767,3.403-1.395c-0.478,0.938-0.714,2.061-0.987,2.999C116.312,90.781,113.88,90.126,114.128,88.615z
		 M102.164,73.787c0.324-1.987,1.163-3.57,2.683-4.836c1.528-1.271,3.529-1.383,5.393-1.548c0.272-0.024,0.388,0.342,0.133,0.462
		c-1.367,0.649-2.886,1.514-3.935,2.615c-0.974,1.021-1.277,2.681-1.654,3.976C104.349,75.952,101.916,75.297,102.164,73.787z
		 M76.39,71.993c0.417-2.555,1.496-4.59,3.449-6.217c1.964-1.635,4.536-1.777,6.934-1.991c0.349-0.03,0.499,0.44,0.174,0.595
		c-1.761,0.834-3.711,1.947-5.061,3.361c-1.253,1.313-1.64,3.447-2.127,5.114c-0.446,1.536-2.529,1.304-3.188,0.159
		c-0.058-0.19-0.116-0.38-0.186-0.566C76.37,72.304,76.364,72.153,76.39,71.993z M70.951,80.587c0.122-0.272,0.02-0.308,0.217-0.546
		c0.15-0.176,0.311-0.337,0.475-0.496c0.194-0.188,0.433-0.316,0.686-0.405c0.022-0.09,0.038-0.187,0.071-0.289
		c0.131-0.398,0.131-0.67,0.438-0.995c0.167-0.178,0.365-0.21,0.577-0.086c0.836,0.486,1.011,1.714,0.718,2.574
		c-0.102,0.3-0.332,0.574-0.623,0.704c-0.424,0.187-0.188-0.005-0.378,0.158c0.068-0.058,0.053-0.035-0.049,0.072
		c-0.094,0.108-0.197,0.21-0.306,0.306c-0.236,0.218-0.531,0.201-0.814,0.28C71.271,82.058,70.683,81.186,70.951,80.587z
		 M67.738,111.328c-0.137,0.406-0.45,0.777-0.844,0.951c-0.574,0.254-0.255-0.006-0.51,0.215c0.092-0.079,0.07-0.046-0.065,0.098
		c-0.13,0.146-0.267,0.285-0.415,0.413c-0.319,0.295-0.719,0.272-1.102,0.378c-0.935,0.261-1.729-0.918-1.367-1.728
		c0.164-0.366,0.026-0.417,0.294-0.738c0.201-0.237,0.419-0.457,0.642-0.672c0.263-0.255,0.585-0.427,0.928-0.547
		c0.028-0.123,0.051-0.252,0.094-0.39c0.18-0.538,0.18-0.907,0.594-1.345c0.226-0.242,0.494-0.285,0.781-0.117
		C67.899,108.502,68.134,110.165,67.738,111.328z M59.782,73.965c0.262-1.608,0.94-2.889,2.17-3.914
		c1.239-1.029,2.857-1.12,4.367-1.253c0.219-0.02,0.314,0.278,0.109,0.373c-1.109,0.525-2.337,1.227-3.187,2.117
		c-0.787,0.827-1.032,2.17-1.338,3.22C61.551,75.718,59.581,75.188,59.782,73.965z"/>
	<path style="fill:#FFFFFF;" d="M104.785,74.457c0.377-1.296,0.68-2.955,1.654-3.976c1.049-1.101,2.568-1.966,3.935-2.615
		c0.255-0.12,0.138-0.486-0.133-0.462c-1.864,0.165-3.865,0.278-5.393,1.548c-1.52,1.266-2.359,2.849-2.683,4.836
		C101.916,75.297,104.349,75.952,104.785,74.457z"/>
	<path style="fill:#FFFFFF;" d="M117.211,83.545c0.351-0.098,0.716-0.076,1.006-0.346c0.134-0.118,0.26-0.245,0.378-0.378
		c0.123-0.131,0.144-0.16,0.061-0.089c0.233-0.201-0.058,0.036,0.466-0.195c0.359-0.16,0.644-0.499,0.769-0.87
		c0.362-1.061,0.147-2.58-0.886-3.179c-0.263-0.153-0.506-0.113-0.712,0.107c-0.379,0.4-0.379,0.737-0.542,1.227
		c-0.041,0.127-0.06,0.245-0.087,0.358c-0.312,0.109-0.607,0.267-0.847,0.499c-0.204,0.196-0.403,0.396-0.585,0.613
		c-0.245,0.294-0.119,0.339-0.269,0.674C115.631,82.706,116.356,83.782,117.211,83.545z"/>
	<path style="fill:#FFFFFF;" d="M61.903,74.509c0.306-1.05,0.551-2.393,1.338-3.22c0.85-0.89,2.078-1.592,3.187-2.117
		c0.205-0.096,0.11-0.393-0.109-0.373c-1.51,0.133-3.129,0.224-4.367,1.253c-1.23,1.025-1.908,2.306-2.17,3.914
		C59.581,75.188,61.551,75.718,61.903,74.509z"/>
	<path style="fill:#FFFFFF;" d="M71.962,81.865c0.283-0.079,0.578-0.062,0.814-0.28c0.109-0.096,0.211-0.198,0.306-0.306
		c0.102-0.107,0.117-0.131,0.049-0.072c0.19-0.163-0.047,0.029,0.378-0.158c0.291-0.13,0.522-0.404,0.623-0.704
		c0.293-0.859,0.117-2.088-0.718-2.574c-0.212-0.124-0.41-0.092-0.577,0.086c-0.307,0.325-0.307,0.597-0.438,0.995
		c-0.033,0.102-0.049,0.198-0.071,0.289c-0.253,0.089-0.492,0.217-0.686,0.405c-0.164,0.159-0.325,0.319-0.475,0.496
		c-0.197,0.238-0.094,0.274-0.217,0.546C70.683,81.186,71.271,82.058,71.962,81.865z"/>
	<path style="fill:#EF5722;" d="M46.297,88.178c0.431,2.884,2.103,5.269,4.388,6.714c0.953,0.602,2.012,1.035,3.135,1.275
		c1.069,0.228,2.192,0.283,3.337,0.123c0.032-0.004,0.064-0.004,0.096-0.009c3.459-0.517,6.2-2.818,7.459-5.825
		c0.654-1.568,0.914-3.326,0.644-5.13c-0.003-0.021-0.01-0.041-0.012-0.062c-0.634-4.044-3.701-7.101-7.483-7.92
		c-1.096-0.237-2.25-0.295-3.426-0.123c-0.011,0.002-0.022,0.002-0.034,0.004c-2.085,0.312-3.907,1.278-5.306,2.649
		C46.963,81.962,45.822,85.001,46.297,88.178z M59.402,91.485c0.121-0.271,0.018-0.308,0.218-0.546
		c0.147-0.175,0.31-0.337,0.474-0.495c0.194-0.188,0.434-0.316,0.686-0.406c0.022-0.089,0.038-0.186,0.071-0.288
		c0.131-0.398,0.131-0.671,0.437-0.994c0.168-0.178,0.366-0.211,0.578-0.087c0.837,0.485,1.011,1.714,0.718,2.574
		c-0.102,0.3-0.332,0.574-0.623,0.703c-0.424,0.187-0.188-0.005-0.378,0.158c0.068-0.058,0.051-0.034-0.048,0.072
		c-0.096,0.108-0.198,0.21-0.307,0.306c-0.235,0.218-0.531,0.2-0.814,0.279C59.72,92.956,59.133,92.085,59.402,91.485z
		 M48.233,84.864c0.263-1.609,0.94-2.889,2.17-3.915c1.239-1.028,2.857-1.119,4.367-1.252c0.219-0.02,0.314,0.276,0.109,0.374
		c-1.109,0.525-2.337,1.226-3.187,2.116c-0.787,0.827-1.032,2.17-1.339,3.219C50.001,86.617,48.032,86.087,48.233,84.864z"/>
	<path style="fill:#FFFFFF;" d="M50.353,85.407c0.307-1.049,0.552-2.393,1.339-3.219c0.85-0.89,2.078-1.591,3.187-2.116
		c0.205-0.098,0.11-0.394-0.109-0.374c-1.51,0.134-3.129,0.224-4.367,1.252c-1.23,1.026-1.907,2.305-2.17,3.915
		C48.032,86.087,50.001,86.617,50.353,85.407z"/>
	<path style="fill:#FFFFFF;" d="M60.413,92.763c0.283-0.079,0.579-0.061,0.814-0.279c0.109-0.096,0.211-0.199,0.307-0.306
		c0.099-0.106,0.116-0.13,0.048-0.072c0.19-0.163-0.047,0.029,0.378-0.158c0.291-0.129,0.522-0.403,0.623-0.703
		c0.293-0.86,0.119-2.089-0.718-2.574c-0.212-0.124-0.41-0.092-0.578,0.087c-0.306,0.323-0.306,0.596-0.437,0.994
		c-0.033,0.102-0.049,0.199-0.071,0.288c-0.251,0.09-0.492,0.218-0.686,0.406c-0.164,0.158-0.327,0.319-0.474,0.495
		c-0.199,0.238-0.096,0.275-0.218,0.546C59.133,92.085,59.72,92.956,60.413,92.763z"/>
	<path style="fill:#FFFFFF;" d="M126.072,105.02c0.307-1.05,0.552-2.394,1.339-3.22c0.85-0.89,2.078-1.592,3.187-2.116
		c0.205-0.097,0.112-0.394-0.109-0.374c-1.51,0.133-3.129,0.224-4.366,1.252c-1.231,1.025-1.909,2.306-2.172,3.914
		C123.751,105.699,125.72,106.229,126.072,105.02z"/>
	<path style="fill:#FFFFFF;" d="M136.132,112.376c0.284-0.079,0.578-0.062,0.814-0.28c0.109-0.096,0.211-0.198,0.307-0.305
		c0.1-0.107,0.115-0.131,0.048-0.073c0.19-0.163-0.047,0.029,0.377-0.158c0.291-0.129,0.523-0.404,0.624-0.703
		c0.293-0.859,0.119-2.089-0.718-2.574c-0.212-0.125-0.41-0.093-0.577,0.086c-0.307,0.324-0.307,0.597-0.438,0.994
		c-0.033,0.102-0.05,0.198-0.071,0.289c-0.252,0.089-0.491,0.218-0.684,0.405c-0.165,0.159-0.327,0.32-0.476,0.495
		c-0.197,0.238-0.095,0.274-0.217,0.546C134.853,111.697,135.441,112.568,136.132,112.376z"/>
	<path style="fill:#FC8829;" d="M141.001,81.524c-0.372,0.012-0.747,0.04-1.124,0.096c-0.43,0.064-0.844,0.165-1.25,0.283
		c0.266-0.294,0.51-0.607,0.74-0.932c1.378-1.956,2.043-4.421,1.661-6.974c-0.235-1.565-0.838-2.98-1.702-4.183
		c-0.327-0.453-0.691-0.874-1.087-1.262c-2.084-2.04-5.059-3.122-8.166-2.657c-0.6,0.09-1.174,0.239-1.726,0.43
		c-0.656,0.227-1.28,0.516-1.857,0.867c-1.752,1.067-3.105,2.674-3.884,4.551c-0.649,1.563-0.903,3.312-0.635,5.107
		c0.788,5.262,5.692,8.889,10.955,8.102c0.263-0.04,0.519-0.097,0.773-0.157c0.159-0.037,0.32-0.08,0.476-0.127
		c-0.114,0.129-0.22,0.264-0.329,0.397c-1.655,2.03-2.49,4.715-2.071,7.51c0.607,4.061,3.67,7.138,7.453,7.975
		c1.121,0.247,2.301,0.307,3.503,0.127c4.36-0.653,7.589-4.135,8.122-8.303c0.11-0.862,0.114-1.751-0.022-2.652
		c-0.24-1.604-0.867-3.053-1.764-4.275c-0.403-0.546-0.857-1.047-1.361-1.494c-0.402-0.358-0.835-0.678-1.29-0.964
		C144.836,81.999,142.965,81.461,141.001,81.524z M130.551,68.743c-1.108,0.525-2.336,1.226-3.186,2.116
		c-0.788,0.827-1.032,2.171-1.338,3.22c-0.352,1.21-2.323,0.68-2.122-0.543c0.263-1.608,0.94-2.889,2.172-3.914
		c1.237-1.029,2.857-1.12,4.366-1.253C130.662,68.349,130.756,68.646,130.551,68.743z M135.075,80.157
		c0.121-0.271,0.02-0.308,0.218-0.545c0.147-0.176,0.309-0.337,0.473-0.497c0.194-0.187,0.434-0.315,0.686-0.404
		c0.021-0.091,0.038-0.187,0.071-0.289c0.133-0.397,0.131-0.67,0.438-0.995c0.167-0.178,0.365-0.21,0.577-0.086
		c0.837,0.485,1.011,1.714,0.718,2.574c-0.102,0.3-0.333,0.574-0.624,0.703c-0.423,0.188-0.188-0.005-0.376,0.159
		c0.066-0.058,0.051-0.034-0.049,0.072c-0.095,0.108-0.198,0.21-0.307,0.306c-0.236,0.218-0.53,0.2-0.814,0.28
		C135.394,81.628,134.807,80.756,135.075,80.157z M140.356,84.468c-1.108,0.525-2.337,1.226-3.188,2.117
		c-0.787,0.826-1.031,2.17-1.337,3.219c-0.352,1.21-2.323,0.68-2.122-0.543c0.263-1.609,0.941-2.889,2.171-3.913
		c1.237-1.029,2.858-1.12,4.367-1.254C140.466,84.075,140.562,84.371,140.356,84.468z M147.342,93.067
		c0.836,0.485,1.01,1.714,0.717,2.574c-0.1,0.3-0.332,0.573-0.623,0.703c-0.423,0.188-0.187-0.004-0.376,0.159
		c0.068-0.058,0.051-0.034-0.05,0.072c-0.094,0.107-0.198,0.211-0.307,0.306c-0.236,0.218-0.53,0.201-0.814,0.28
		c-0.691,0.192-1.278-0.68-1.011-1.278c0.122-0.271,0.02-0.308,0.218-0.546c0.148-0.176,0.311-0.337,0.475-0.497
		c0.194-0.187,0.433-0.315,0.684-0.405c0.023-0.09,0.039-0.185,0.071-0.288c0.133-0.398,0.133-0.671,0.438-0.995
		C146.932,92.975,147.129,92.943,147.342,93.067z"/>
	<path style="fill:#FFFFFF;" d="M140.247,84.094c-1.51,0.134-3.13,0.224-4.367,1.254c-1.23,1.025-1.908,2.305-2.171,3.913
		c-0.201,1.223,1.77,1.754,2.122,0.543c0.306-1.049,0.55-2.393,1.337-3.219c0.852-0.891,2.08-1.592,3.188-2.117
		C140.562,84.371,140.466,84.075,140.247,84.094z"/>
	<path style="fill:#FFFFFF;" d="M146.255,94.436c-0.251,0.09-0.491,0.218-0.684,0.405c-0.164,0.159-0.327,0.32-0.475,0.497
		c-0.198,0.238-0.096,0.275-0.218,0.546c-0.267,0.598,0.32,1.47,1.011,1.278c0.284-0.079,0.578-0.062,0.814-0.28
		c0.109-0.095,0.213-0.199,0.307-0.306c0.1-0.106,0.117-0.131,0.05-0.072c0.189-0.163-0.047,0.029,0.376-0.159
		c0.291-0.129,0.523-0.403,0.623-0.703c0.293-0.86,0.119-2.089-0.717-2.574c-0.213-0.125-0.409-0.092-0.578,0.086
		c-0.305,0.324-0.305,0.597-0.438,0.995C146.293,94.251,146.278,94.346,146.255,94.436z"/>
	<path style="fill:#FFFFFF;" d="M130.443,68.369c-1.509,0.133-3.129,0.224-4.366,1.253c-1.232,1.025-1.909,2.306-2.172,3.914
		c-0.201,1.223,1.771,1.753,2.122,0.543c0.306-1.049,0.55-2.393,1.338-3.22c0.851-0.89,2.078-1.591,3.186-2.116
		C130.756,68.646,130.662,68.349,130.443,68.369z"/>
	<path style="fill:#FFFFFF;" d="M136.085,81.436c0.284-0.08,0.578-0.062,0.814-0.28c0.109-0.096,0.212-0.198,0.307-0.306
		c0.1-0.106,0.115-0.13,0.049-0.072c0.188-0.163-0.047,0.029,0.376-0.159c0.291-0.129,0.522-0.403,0.624-0.703
		c0.293-0.859,0.119-2.089-0.718-2.574c-0.212-0.124-0.41-0.092-0.577,0.086c-0.307,0.325-0.306,0.598-0.438,0.995
		c-0.033,0.102-0.05,0.198-0.071,0.289c-0.252,0.089-0.492,0.217-0.686,0.404c-0.164,0.16-0.326,0.32-0.473,0.497
		c-0.198,0.237-0.096,0.274-0.218,0.545C134.807,80.756,135.394,81.628,136.085,81.436z"/>
	<path style="fill:#1E2428;" d="M140.371,119.371c-0.056,3.447-8.914,9.358-12.194,10.422c-3.84,1.147-8.1-0.507-12.668-0.397
		c-6.249,0.363-10.398,3.277-16.816,2.518c-2.411-0.785-5.38-1.487-7.624-1.151c-1.12,0.168-2.158,0.895-3.839,1.148
		c-2.804,0.419-4.092-0.533-7.062-1.235c-6.585-1.881-14.853-3.508-20.653-7.798c-1.288-0.953-1.54-2.635-2.831-3.587
		c-1.288-0.954-3.615-1.178-4.903-2.131c-3.615-1.179-4.176-1.094-6.444-4.766c-1.541-2.635-2.353-4.233-4.37-6.223
		c-0.907-0.864-1.885-1.628-2.9-2.345l1.826,33.453c39.389,52.56,122.915,17.132,122.915,17.132l-2.353-41.622
		C154.4,117.042,145.786,120.077,140.371,119.371z"/>
	<path style="fill:#393C3F;" d="M150.853,92.375c2.835,2.065,5.195,4.605,5.942,7.772c0.12,0.513,0.188,1.006,0.216,1.484
		l-1.278,1.685c-6,5.187-12.19,9.173-18.438,12.167c-5.152,1.453-10.379,2.755-15.649,3.802c-1.943,2.094-4.577,3.573-7.621,4.029
		c-3.126,0.468-6.158-0.217-8.667-1.734c-4.059,0.313-8.127,0.413-12.193,0.258c-1.859,1.732-4.24,2.942-6.943,3.346
		c-6.087,0.911-11.81-2.552-14.012-8.025c-1.75-0.651-3.452-1.339-5.092-2.059c-1.807,1.565-4.055,2.662-6.593,3.042
		c-7.118,1.065-13.756-3.842-14.823-10.963c-0.345-2.306-0.055-4.557,0.724-6.589c-3.089-3.978-5.334-8.58-3.961-13.024
		c1.044-3.369,3.598-5.821,6.627-7.695c1.399-1.371,3.221-2.337,5.306-2.649c0.012-0.002,0.023-0.002,0.034-0.004
		c1.134-0.462,2.253-0.875,3.318-1.253c-0.017-1.235,0.201-2.431,0.622-3.539c-2.175,0.472-4.306,1.076-6.365,1.846
		c-6.83,2.559-14.531,7.212-14.712,15.431c-0.016,0.734,0.037,1.475,0.121,2.218l0.649,11.902c1.015,0.717,1.993,1.481,2.9,2.345
		c2.017,1.99,2.829,3.588,4.37,6.223c2.268,3.672,2.829,3.587,6.444,4.766c1.288,0.953,3.615,1.178,4.903,2.131
		c1.291,0.953,1.542,2.635,2.831,3.587c5.799,4.29,14.067,5.917,20.653,7.798c2.97,0.701,4.258,1.654,7.062,1.235
		c1.681-0.253,2.719-0.98,3.839-1.148c2.244-0.336,5.213,0.366,7.624,1.151c6.417,0.759,10.567-2.155,16.816-2.518
		c4.568-0.11,8.828,1.544,12.668,0.397c3.28-1.064,12.138-6.975,12.194-10.422c5.415,0.706,14.029-2.33,20.086-6.583l-0.476-8.416
		c0.516-1.951,0.455-4.049-0.349-6.192c-2.087-5.554-5.881-9.697-10.564-12.732c0.897,1.222,1.524,2.671,1.764,4.275
		C150.967,90.624,150.963,91.513,150.853,92.375z"/>
</g>
</svg>
