<?xml version="1.0" encoding="iso-8859-1"?>
<!-- Generator: Adobe Illustrator 21.0.2, SVG Export Plug-In . SVG Version: 6.00 Build 0)  -->
<svg version="1.1" id="Layer_1" xmlns="http://www.w3.org/2000/svg" xmlns:xlink="http://www.w3.org/1999/xlink" x="0px" y="0px"
	 viewBox="0 0 500 197.727" style="enable-background:new 0 0 500 197.727;" xml:space="preserve">
<g>
	<polygon style="fill:#BC1919;" points="76,27.917 76,160.274 398.964,99.242 	"/>
	<circle style="fill:#6A6E6A;" cx="69.582" cy="94.433" r="59.679"/>
	<circle style="fill:#FFFFFF;" cx="69.582" cy="94.433" r="51.319"/>
	<path style="fill:#1C164B;" d="M8.239,94.433c0-33.824,27.518-61.342,61.343-61.342c33.824,0,61.342,27.518,61.342,61.342
		c0,33.824-27.518,61.342-61.342,61.342C35.757,155.775,8.239,128.257,8.239,94.433z M11.566,94.433
		c0,31.99,26.026,58.016,58.016,58.016c31.99,0,58.016-26.026,58.016-58.016c0-31.99-26.026-58.016-58.016-58.016
		C37.591,36.417,11.566,62.443,11.566,94.433z"/>
	<path style="fill:#DBDBDA;" d="M103.909,89.68c1.01,0,1.829-0.819,1.829-1.829c0-2.464,2.005-4.469,4.469-4.469
		c2.464,0,4.469,2.005,4.469,4.469c0,1.01,0.819,1.829,1.829,1.829s1.829-0.819,1.829-1.829c0-4.482-3.646-8.128-8.128-8.128
		c-4.482,0-8.128,3.646-8.128,8.128C102.079,88.861,102.899,89.68,103.909,89.68z"/>
	<path style="fill:#DBDBDA;" d="M20.903,100.577c0.883,0.491,1.997,0.172,2.488-0.711c1.196-2.154,3.922-2.934,6.077-1.737
		c2.154,1.196,2.933,3.922,1.737,6.077c-0.491,0.883-0.172,1.997,0.711,2.488c0.883,0.491,1.997,0.172,2.488-0.711
		c2.176-3.918,0.759-8.876-3.159-11.052s-8.876-0.759-11.052,3.159C19.702,98.973,20.02,100.086,20.903,100.577z"/>
	<path style="fill:#DBDBDA;" d="M43.681,61.816c1.01,0,1.83-0.819,1.83-1.829c0-2.464,2.005-4.469,4.469-4.469
		c2.464,0,4.469,2.005,4.469,4.469c0,1.01,0.819,1.829,1.829,1.829c1.01,0,1.83-0.819,1.83-1.829c0-4.482-3.646-8.128-8.128-8.128
		c-4.482,0-8.128,3.646-8.128,8.128C41.852,60.997,42.671,61.816,43.681,61.816z"/>
	<path style="fill:#DBDBDA;" d="M91.942,66.16c1.01,0,1.83-0.819,1.83-1.829c0-2.464,2.005-4.469,4.469-4.469
		c2.464,0,4.469,2.005,4.469,4.469c0,1.01,0.819,1.829,1.829,1.829c1.01,0,1.829-0.819,1.829-1.829c0-4.482-3.646-8.128-8.128-8.128
		c-4.482,0-8.128,3.646-8.128,8.128C90.112,65.34,90.932,66.16,91.942,66.16z"/>
	<path style="fill:#DBDBDA;" d="M48.092,130.956c0.693,0.568,1.775,0.395,2.415-0.386c1.562-1.906,4.208-2.329,5.9-0.943
		c1.691,1.386,1.797,4.064,0.235,5.97c-0.64,0.781-0.597,1.876,0.096,2.444c0.693,0.568,1.775,0.395,2.415-0.386
		c2.841-3.466,2.649-8.337-0.427-10.859c-3.076-2.521-7.89-1.752-10.731,1.714C47.355,129.293,47.398,130.387,48.092,130.956z"/>
	<path style="fill:#DBDBDA;" d="M95.244,129.855c0.947-0.353,1.428-1.406,1.076-2.353c-0.86-2.309,0.318-4.888,2.627-5.748
		c2.309-0.86,4.888,0.319,5.748,2.628c0.353,0.947,1.406,1.428,2.353,1.076c0.947-0.353,1.428-1.406,1.076-2.353
		c-1.565-4.2-6.254-6.344-10.454-4.779c-4.2,1.565-6.343,6.254-4.779,10.454C93.244,129.726,94.298,130.208,95.244,129.855z"/>
	
		<rect x="43.708" y="73.613" transform="matrix(0.7071 -0.7071 0.7071 0.7071 -40.509 55.5057)" style="fill:#AEBC5C;" width="6.078" height="6.078"/>
	
		<rect x="37.619" y="91.394" transform="matrix(0.7071 -0.7071 0.7071 0.7071 -54.8652 56.4069)" style="fill:#AEBC5C;" width="6.078" height="6.078"/>
	
		<rect x="73.505" y="120.919" transform="matrix(0.7071 -0.7071 0.7071 0.7071 -65.233 90.4325)" style="fill:#AEBC5C;" width="6.078" height="6.078"/>
	
		<rect x="107.418" y="99.432" transform="matrix(0.7071 -0.7071 0.7071 0.7071 -40.1059 108.1166)" style="fill:#AEBC5C;" width="6.078" height="6.078"/>
	
		<rect x="90.884" y="73.613" transform="matrix(0.7071 -0.7071 0.7071 0.7071 -26.6913 88.8646)" style="fill:#AEBC5C;" width="6.078" height="6.078"/>
	
		<rect x="73.505" y="51.33" transform="matrix(0.7071 -0.7071 0.7071 0.7071 -16.0256 70.0498)" style="fill:#AEBC5C;" width="6.078" height="6.078"/>
	
		<rect x="37.265" y="128.51" transform="matrix(0.7071 -0.7071 0.7071 0.7071 -81.2152 67.0307)" style="fill:#AEBC5C;" width="6.078" height="6.078"/>
	<g>
		<path style="fill:#F1E2C3;" d="M479.74,91.225c6.878,1.207,11.433,7.805,10.129,14.672l-0.101,0.53
			c-1.303,6.859-7.96,11.328-14.802,9.929l-172.73-35.293L49.874,29.501c-1.814-0.375-3.307-1.437-4.265-2.863
			c-0.958-1.426-1.374-3.215-1.029-5.035c0.691-3.64,4.173-6.055,7.821-5.408l253.697,44.541L479.74,91.225z"/>
		<path style="fill:#DAC5A8;" d="M479.74,91.225c6.878,1.207,11.433,7.805,10.129,14.672l-0.101,0.53
			c-1.303,6.859-7.96,11.328-14.802,9.929l-172.73-35.293l3.861-20.327L479.74,91.225z"/>
		<path style="fill:#1C164B;" d="M474.63,117.987L49.544,31.129c-4.495-0.918-7.456-5.332-6.6-9.84
			c0.856-4.507,5.226-7.527,9.747-6.736l427.333,75.033c3.768,0.661,7.042,2.759,9.217,5.907c2.175,3.148,2.98,6.952,2.266,10.711
			l-0.101,0.531c-0.714,3.759-2.857,7.003-6.035,9.134c-2.367,1.587-5.086,2.409-7.868,2.409
			C476.549,118.279,475.587,118.183,474.63,117.987z M46.212,21.91c-0.518,2.731,1.275,5.404,3.998,5.96l0,0l425.087,86.858
			c2.87,0.586,5.79,0.011,8.222-1.621c2.433-1.632,4.073-4.115,4.62-6.992l0.101-0.531c0.547-2.878-0.07-5.79-1.735-8.199
			c-1.665-2.41-4.171-4.015-7.055-4.522L52.116,17.83c-0.295-0.052-0.588-0.077-0.877-0.077
			C48.834,17.753,46.675,19.473,46.212,21.91z"/>
	</g>
	<g>
		<path style="fill:#F1E2C3;" d="M479.74,96.691c6.878-1.207,11.433-7.805,10.129-14.672l-0.101-0.53
			c-1.303-6.859-7.96-11.328-14.802-9.929l-172.73,35.293L49.874,158.415c-1.814,0.375-3.307,1.437-4.265,2.863
			c-0.958,1.426-1.374,3.215-1.029,5.035c0.691,3.64,4.173,6.055,7.821,5.408l253.697-44.541L479.74,96.691z"/>
		<path style="fill:#DAC5A8;" d="M479.74,96.691c6.878-1.207,11.433-7.805,10.129-14.672l-0.101-0.53
			c-1.303-6.859-7.96-11.328-14.802-9.929l-172.73,35.293l3.861,20.327L479.74,96.691z"/>
		<path style="fill:#1C164B;" d="M42.944,166.627c-0.856-4.507,2.104-8.921,6.6-9.84L474.63,69.93
			c3.749-0.766,7.563-0.014,10.741,2.117c3.178,2.131,5.321,5.375,6.035,9.134l0.101,0.532c0.714,3.759-0.091,7.563-2.266,10.71
			c-2.175,3.148-5.448,5.246-9.217,5.907L52.691,173.363c-0.486,0.085-0.97,0.126-1.448,0.126
			C47.273,173.489,43.708,170.65,42.944,166.627z M475.296,73.188L50.21,160.046c-2.723,0.556-4.516,3.23-3.998,5.96
			c0.519,2.73,3.165,4.562,5.904,4.08l427.333-75.033c2.885-0.506,5.39-2.112,7.055-4.522c1.665-2.41,2.281-5.321,1.735-8.199
			l-0.101-0.532c-0.547-2.877-2.187-5.36-4.62-6.992c-1.812-1.215-3.893-1.844-6.023-1.844
			C476.765,72.965,476.029,73.039,475.296,73.188z"/>
	</g>
	<circle style="fill:#597A5E;" cx="69" cy="94.545" r="34"/>
	<circle style="fill:#232323;" cx="70" cy="95.545" r="24"/>
	<circle style="fill:#FFFFFF;" cx="66.5" cy="85.045" r="10.5"/>
</g>
</svg>
