<?xml version="1.0" encoding="iso-8859-1"?>
<!-- Generator: Adobe Illustrator 21.0.2, SVG Export Plug-In . SVG Version: 6.00 Build 0)  -->
<svg version="1.1" id="Layer_1" xmlns="http://www.w3.org/2000/svg" xmlns:xlink="http://www.w3.org/1999/xlink" x="0px" y="0px"
	 viewBox="0 0 562.727 326.818" style="enable-background:new 0 0 562.727 326.818;" xml:space="preserve">
<g>
	<g>
		<g>
			<g>
				<defs>
					<path id="SVGID_1_" d="M547.328,319.757c2.707,0,4.902-2.195,4.902-4.902V11.964c0-2.709-2.195-4.902-4.902-4.902H15.397
						c-2.705,0-4.9,2.193-4.9,4.902v302.891c0,2.707,2.195,4.902,4.9,4.902H547.328z"/>
				</defs>
				<clipPath id="SVGID_2_">
					<use xlink:href="#SVGID_1_"  style="overflow:visible;"/>
				</clipPath>
				<path style="clip-path:url(#SVGID_2_);fill-rule:evenodd;clip-rule:evenodd;fill:#976A2E;" d="M547.328,319.757
					c2.707,0,4.902-2.195,4.902-4.902V11.964c0-2.709-2.195-4.902-4.902-4.902H15.397c-2.705,0-4.9,2.193-4.9,4.902v302.891
					c0,2.707,2.195,4.902,4.9,4.902H547.328z"/>
				<g style="opacity:0.5;clip-path:url(#SVGID_2_);">
					<g style="opacity:0.47;">
						<path style="fill:#96836F;" d="M842.891,59.749c-39.625,1.021-74.336,1.887-97.346,2.451
							c-24.023,4.535-92.844,7.619-124.771,10.469c51.846,0.998,135.014,2.537,222.117,3.93V59.749z"/>
						<path style="fill:#96836F;" d="M834.67,131.02c1,0.049,2.152,0.098,3.277,0.15l0.057-0.189
							C837.129,130.985,836.041,131.005,834.67,131.02z"/>
						<path style="fill:#96836F;" d="M81.491,146.95c-64.023,0.381-190.066-3.432-226.078-3.432c-36.014,0-155.049,0-220.076,0.377
							c-17.666,0.109-40.207-0.07-63.666-0.385v2.699c22.633,0.16,41.725,0.193,50.662-0.029c31.01-0.76,200.068,0.389,237.078,0
							c37.016-0.375,179.064,3.057,217.07,3.057c38.01,0,186.063-1.143,211.067-1.143c25.01,0,108.039-1.525,141.049-2.289
							c33.014-0.764,22.012-2.287,36.014-3.436c14-1.145,94.027,2.287,114.037,3.051c17.488,0.666,214.879,3.379,264.244,4.051
							v-3.012c-7.566-0.129-17.344-0.416-23.869-1.039c-12.004-1.145-334.41-4.574-361.416-5.344
							c-27.004-0.762-69.018-0.762-120.035,2.678C286.551,146.181,145.506,146.569,81.491,146.95z"/>
						<path style="fill:#96836F;" d="M842.891,159.03c-1.963-0.084-3.684-0.158-5.088-0.217l5.088,1.605V159.03z"/>
						<path style="fill:#96836F;" d="M842.891,162.563c-7.666,0.182-21.732,0.518-39.064,0.934c-0.205,0.277-0.16,0.564,0.371,0.846
							c0,0,14.889,0.557,38.693,1.424V162.563z"/>
						<path style="fill:#96836F;" d="M832.944,158.614c-0.02,0.006-0.092,0.008-0.115,0.012c0.096,0,0.227-0.004,0.322-0.004
							C833.106,158.62,832.944,158.614,832.944,158.614z"/>
						<path style="fill:#96836F;" d="M72.395,267.556c5.998-4.574,107.031,0,139.045,0c32.008,0,89.025-5.344,119.037-9.156
							c30.014-3.82,168.055-9.92,208.061-11.066c34.867-0.998,209.305,0.435,262.939,0.726l36.289,0.24c0,0,1.807-0.035,5.125-0.102
							v-6.268c-74.805,0.762-259.906,2.615-263.338,2.348c-5-0.379-104.029,3.436-139.033,5.725c0,0-96.033,4.203-153.061,10.305
							c-57.014,6.098-151.041,5.344-203.059,3.816c-52.021-1.529-96.037-3.436-94.035,3.051c0.803,2.594,19.572,6.047,48.307,9.787
							c14.49-0.654,29.107-1.248,43.805-1.775C71.325,272.804,68.549,270.493,72.395,267.556z"/>
						<path style="fill:#96836F;" d="M842.891,55.003c-35.568,0.781-67.402,1.48-91.775,2.016c1.607,0.484,2.607,1.025,2.883,1.637
							c0.582,1.279-2.66,2.459-8.453,3.545c23.01-0.564,57.721-1.43,97.346-2.451V55.003z"/>
						<path style="fill:#96836F;" d="M842.891,76.599c-87.104-1.393-170.271-2.932-222.117-3.93
							c-4.695,0.424-8.633,0.834-11.467,1.242c-21.145,3.09-33.611,4.004-46.887,5.604c39.512,0.492,157.432,1.92,280.471,3.023
							V76.599z"/>
						<path style="fill:#96836F;" d="M842.891,94.905c-3.354-0.072-6.596-0.143-9.682-0.205
							c-15.555,0.615-39.164,1.567-66.678,2.676c17.211,0.572,44.445,1.479,76.359,2.551V94.905z"/>
						<path style="fill:#96836F;" d="M842.891,119.472c-181.957,1.537-376.279,3.338-376.279,3.338l3.445,0.27
							c10.961,0.537,22.078,1.082,33.004,1.611c41.957-0.164,188.77-0.73,339.83-1.197V119.472z"/>
						<path style="fill:#96836F;" d="M842.891,128.143c-0.328-0.004-0.643-0.012-0.93-0.016l-1.709,2.822
							c0,0-0.826,0.014-2.248,0.031l-0.057,0.189l-0.096,0.334c0,0,1.775,0.035,5.039,0.098V128.143z"/>
						<path style="fill:#96836F;" d="M-428.33,189.569v3.125c39.272,0.24,76.959,0.525,97.684,0.809
							c56.012,0.762,174.053,2.289,204.066,0.762c30.006-1.525,48.012-4.578,78.019-0.762c30.016,3.814,86.027,11.441,122.041,9.158
							c36.01-2.289,146.049-3.816,192.065-3.816s92.033,3.816,132.041,1.527c40.012-2.297,76.025,3.055,116.041,1.525
							c40.008-1.525,283.385-3.053,305.395-3.822c4.392-0.15,12.965-0.432,23.869-0.781v-4.545
							c-94.795,1.42-232.242,3.588-259.24,4.568c-42.014,1.527-77.029,3.436-108.037,1.91c-31.012-1.529-48.012-1.529-89.029-1.529
							c-41.012,0-94.033-2.287-144.047-1.145c-50.014,1.145-128.047,1.521-153.055,2.674c-25.002,1.145-46.01,1.91-70.021-1.152
							c-24.006-3.047-71.02-9.531-99.027-10.297c-28.014-0.762-60.02,2.668-103.033,3.051
							C-207.119,191.044-328.486,190.274-428.33,189.569z"/>
						<path style="fill:#96836F;" d="M-428.33,166.79v4.014c72.15-0.383,146.682-0.955,155.699-1.723
							c18.006-1.529,68.025,1.146,91.025,2.674c23.008,1.527,57.027,3.428,92.033,4.57c35.014,1.152,95.033,1.91,125.047,2.299
							c30.002,0.379,51.008,2.664,80.023,2.289c29.01-0.387,115.033,4.195,159.047,4.963c44.014,0.754,102.039,1.902,148.051,1.902
							c46.02,0,121.043,1.521,148.047,1.908c21.564,0.305,195.09,1.096,264.123,1.396v0.357c0,0,3.334,0,8.125,0.064v-3.006
							c-5.213-0.068-8.125-0.109-8.125-0.109v0.109c-6.357-0.109-12.459-0.223-16.748-0.34c-14.002-0.381-298.395,0-343.402-1.908
							c-45.02-1.908-122.037-1.143-164.057-2.67c-42.014-1.527-136.041-2.668-222.076-5.717
							c-86.019-3.057-122.035-4.965-150.045-4.965c-28.01,0-127.037-3.438-155.051-5.729c-28.008-2.287-147.047-0.381-210.07-0.381
							C-427.23,166.79-427.785,166.79-428.33,166.79z"/>
						<path style="fill:#96836F;" d="M-428.33,155.306c53.191-0.395,160.344-1.07,207.713,0.039
							c49.016,1.146,100.035,3.053,132.049,4.578c32.008,1.527,70.023,2.285,145.047,2.674c75.023,0.377,210.066,0.76,265.088-0.762
							c55.018-1.527,134.969,7.934,175.975,6.791c41.014-1.148,114.924-1.004,140.932-1.385
							c17.703-0.258,108.893-2.402,165.354-3.744c17.332-0.416,31.398-0.752,39.064-0.934v-2.145l-5.088-1.605l-0.871-0.266
							c0,0-1.369,0.023-3.781,0.074c-0.096,0-0.227,0.004-0.322,0.004c-34.914,0.689-288.09,5.676-328.121,7.1
							c-43.008,1.52-158.137-5.803-219.152-5.803c-61.024,0-150.061,0-201.066,0.385c-51.016,0.379-87.031,1.527-121.041-0.385
							c-34.016-1.91-101.039-4.578-147.047-5.725c-46.016-1.148-105.037-1.904-173.057-1.904c-26.943,0-50.889,0.24-71.674,0.623
							V155.306z"/>
						<path style="fill:#96836F;" d="M-121.582,122.53c-53.02,0-101.029,2.285-182.059,6.103
							c-60.617,2.855-94.918,4.854-124.689,5.361v3.305c30.209-0.766,62.217-2.318,101.68-4.469
							c63.025-3.441,153.057-7.631,180.063-7.631c27.012,0,97.031,0.381,187.063-3.055c90.023-3.432,83.025-1.139,131.037-3.432
							c48.018-2.291,216.07,3.432,283.094,5.721c20.021,0.686,63.637,1.988,114.859,3.463c-17.834-0.856-41.557-1.99-66.404-3.207
							c-10.926-0.529-22.043-1.074-33.004-1.611c-17.492-0.859-34.535-1.703-49.461-2.461
							c-68.018-3.432-152.051-3.432-202.065-3.814c-50.02-0.381-101.037,0-169.057,3.053
							C-18.545,122.911-68.566,122.53-121.582,122.53z"/>
						<path style="fill:#96836F;" d="M838.004,130.981c1.422-0.018,2.248-0.031,2.248-0.031l1.709-2.822l0.332-0.559l-218.26,1.9
							c4.148,0.119,8.289,0.24,12.461,0.359l-7.664-0.088c89.506,2.334,182.529,1.533,205.84,1.279
							C836.041,131.005,837.129,130.985,838.004,130.981z"/>
						<path style="fill:#96836F;" d="M569.465,127.897c18.822,0.908,31.184,1.492,31.184,1.492l28.182,0.352l7.664,0.088
							c-4.172-0.119-8.313-0.24-12.461-0.359C605.372,128.938,586.981,128.415,569.465,127.897z"/>
						<path style="fill:#96836F;" d="M412.594,109.554c-75.023,2.291-159.057,0.76-159.057,0.76s-158.045,0.385-218.063-0.377
							c-60.025-0.766-118.041-0.383-181.066,3.814c-63.02,4.197-131.037,7.256-158.049,8.395
							c-21.674,0.918-74.262,1.836-124.689,1.767v2.434c25.471-0.361,51.068-1.147,69.674-1.147
							c29.006,0,149.051-4.582,187.055-7.631c38.016-3.053,66.025-3.818,110.039-4.967c44.016-1.139,95.035,0.77,129.039,0.383
							c34.012-0.383,175.061-0.383,217.072,0.387c42.012,0.762,184.066-2.674,232.078-5.35
							c30.852-1.711,160.844-7.045,249.904-10.646c27.514-1.109,51.123-2.061,66.678-2.676c3.701-0.146,6.939-0.279,9.682-0.385
							v-4.443c-41.848,0.863-232.117,5.012-263.25,9.766C544.635,104.974,487.621,107.268,412.594,109.554z"/>
						<path style="fill:#96836F;" d="M17.467,24.847c30.004,4.963,133.037,19.076,190.053,25.562
							c57.02,6.488,212.078,6.1,257.09,10.307c45.012,4.191,111.574,19.689-99.355,34.57c-59.035,4.17-270.762,1.68-317.783,1.68
							c-47.014,0-47.014-0.764-134.043,6.104c-87.021,6.867-156.047,5.725-227.074,7.244c-27.844,0.6-71.68,1.258-114.684,1.838
							v4.873c34.713-0.24,68.857-0.471,91.676-0.602c65.027-0.381,167.059-4.199,219.072-7.252
							c52.014-3.053,106.031-4.961,134.045-6.102c28.008-1.145,114.035-1.145,154.049,0.764
							c40.02,1.904,193.813,2.193,232.078-1.154c49.832-4.342,97.762-11.971,132.629-18.838c10.777-2.123,19.137-3.348,27.201-4.326
							c13.275-1.6,25.742-2.514,46.887-5.604c2.834-0.408,6.771-0.818,11.467-1.242c31.928-2.85,100.748-5.934,124.771-10.469
							c5.793-1.086,9.035-2.266,8.453-3.545c-0.275-0.611-1.275-1.152-2.883-1.637c-23.57-7.188-181.922-2.229-232.488-5.076
							c-54.018-3.061-114.033-2.674-198.066-4.582c-84.029-1.912-132.041-1.912-205.063-12.594
							C42.469,24.083,10.463,17.97-14.548,14.536c-7.234-0.992-16.908-2.207-28.52-3.502h-95.4
							c6.545,0.418,13.488,0.828,20.887,1.217C-38.554,16.446-12.547,19.878,17.467,24.847z"/>
						<path style="fill:#96836F;" d="M-428.33,34.845c24.223,1.547,50.721,3.293,75.674,4.498
							c63.02,3.045,79.029,6.869,83.025,14.496c4.002,7.637-63.02,10.686-94.029,9.541c-17.17-0.635-39.861-1.004-64.67-0.111v2.555
							c31.69-0.869,84.877,1.662,113.685,0.994c33.014-0.766,82.031-10.682,78.025-16.408c-4.008-5.726-68.019-10.691-98.033-12.594
							c-24.865-1.58-61.395-4.203-93.678-6.576V34.845z"/>
						<path style="fill:#96836F;" d="M-428.33,26.933c41.648,1.924,101.609,5.273,113.685,5.549
							c17.002,0.375,120.033,6.861,156.047,8.389c36.012,1.518,63.023,6.49,75.033,12.592
							c11.996,6.104-89.035,14.879-144.049,20.994c-55.023,6.098-86.033,6.478-140.049,12.582
							c-15.213,1.721-37.09,2.592-60.668,2.955v2.488c25.414-0.236,59.768-0.148,72.674-3.529
							c16.002-4.203,58.014-4.584,74.025-7.254c16.002-2.674,134.043-12.59,155.051-14.117
							c21.004-1.529,114.033-5.346,115.029-10.684c1.006-5.346-70.018-9.537-110.031-15.262
							c-40.016-5.729-107.037-6.492-107.037-6.492l-163.051-8.775c0,0-14.402-0.434-36.66-1.387V26.933z"/>
						<path style="fill:#96836F;" d="M-428.33,15.569v3.92c4.072,0.035,7.979,0.043,11.652,0.016
							c44.012-0.381,185.059,3.424,221.072,3.815c36.012,0.375,107.037,7.242,135.039,11.447
							c28.01,4.195,99.041,12.969,133.049,17.555c34.01,4.576,79.029,7.244,91.025,14.496c12.01,7.25-104.029,7.25-183.059,14.881
							c-79.02,7.633-198.066,8.391-238.074,9.545c-39.91,1.137-128.559,6.83-170.705,9.516v2.104
							c33.603-1.248,87.486-2.641,105.685-4.756c23.008-2.67,182.055-4.963,213.065-5.725
							c31.012-0.758,143.053-10.684,164.057-12.207c21.006-1.531,149.049-4.963,175.057-7.641c26.01-2.664,33.01-8.389,10.004-13.35
							c-23.004-4.963-134.045-6.488-158.047-9.916C57.477,45.833-26.556,37.054-54.558,31.716
							c-28.008-5.348-86.031-10.68-124.039-12.211c-38.016-1.535-140.051-5.344-205.07-4.199
							C-401.756,15.622-416.121,15.675-428.33,15.569z"/>
						<path style="fill:#96836F;" d="M842.891,43.475v-2.828l-48.918-1.875c0,0-186.32-0.957-227.336,1.715
							c-41.016,2.67-105.027,1.148-158.047,1.9c-53.012,0.77-129.043-4.572-150.047-6.096
							C237.537,34.767,162.512,25.987,129.5,21.79c-30.373-3.861-41.258-6.758-38.129-10.756H12.543
							c16.014,6.695,121.178,17.453,215.984,25.258c102.035,8.391,207.074,9.92,260.088,8.391
							c53.021-1.525,309.449,1.814,309.449,1.814L842.891,43.475z"/>
						<path style="fill:#96836F;" d="M842.891,28.714V24.97c-56.66,0.383-217.016,1.713-274.25,4.84
							c-70.023,3.812-277.088,2.285-283.086-6.115c-6.008-8.389,109.031-9.533,140.043-12.203c1.746-0.15,3.397-0.303,4.986-0.457
							h-35.473c-36.66,1.69-88.045,3.436-122.57,3.127c-42.01-0.385-71.016-0.764-68.016,4.572
							c2.994,5.35,85.025,11.457,132.039,13.361c47.014,1.904,131.047,2.281,160.051,1.527
							C512.184,33.21,685.536,30.831,842.891,28.714z"/>
						<path style="fill:#96836F;" d="M-428.33,248.712c55.213,1.869,104.945,5.928,138.611,8.166
							c46.01,3.049,73.02,8.773,152.049,12.967c63.414,3.377,92.674,6.25,117.273,9.82c8.691-0.375,17.473-0.766,26.354-1.182
							c-16.912-2.756-29.467-4.818-40.602-6.354c-25.002-3.426-79.017-9.535-142.047-12.203
							c-63.016-2.668-159.047-9.541-218.068-12.594c-9.672-0.5-21.15-0.867-33.57-1.129V248.712z"/>
						<path style="fill:#96836F;" d="M-428.33,285.491c10.045,0.498,20.486,1.027,30.629,1.545c13.709,0.102,29,0.154,45.764,0.152
							l-59.826-3.223c0,0-6.135-0.188-16.566-0.58V285.491z"/>
						<path style="fill:#96836F;" d="M-428.33,273.19v3.881c51.309,0.066,178.666,3.477,212.627,3.842
							c15.785,0.162,38.295,1.58,60.953,3.471c11.967-0.332,24.234-0.689,36.748-1.076c-26.768-2.918-57.455-5.273-80.691-6.211
							c-38.014-1.527-140.043-5.344-205.066-4.197C-412.822,273.061-420.943,273.151-428.33,273.19z"/>
						<path style="fill:#96836F;" d="M529.543,265.651c-16.783-0.377-29.674,2.598-44.437,6.711
							c3.43,0.043,6.787,0.102,10.162,0.164c8.154-2.647,8.459-3.92,17.268-4.588c10.002-0.764,49.014,0,52.018,3.057
							c0.773,0.783,0.068,1.773-1.596,2.811c3.793,0.084,7.6,0.168,11.289,0.254c0.992-0.682,1.48-1.338,1.314-1.924
							C574.553,268.704,546.543,266.026,529.543,265.651z"/>
						<path style="fill:#96836F;" d="M360.491,243.899c16.004-2.676,38.006-8.773,81.023-12.211
							c43.017-3.438,57.017-4.582,90.031-2.672c22.037,1.279,197.301,6.463,311.346,9.768v-3.564
							c-110.635-2.557-265.744-6.234-275.332-6.969c-15.01-1.145-54.022-2.672-63.027-3.047c-9-0.383-84.023,5.719-113.027,9.156
							c-29.018,3.434-58.027,8.396-67.025,10.301c-9.006,1.906-78.031,4.201-103.035,8.398c-25.01,4.199-31.008,0.756-65.018,0.381
							c-34.02-0.381-152.049-0.381-185.061-0.764c-33.016-0.387-63.025-4.197-115.043-8.398
							c-52.018-4.195-74.025-5.338-91.027-6.105c-17.01-0.76-55.014,1.91-55.014,1.91c8.002-0.383,46.01,0.766,86.025,3.434
							c40.016,2.67,59.02,3.816,108.033,8.398c49.018,4.572,68.021,3.814,168.055,4.197c100.033,0.375,138.039,1.146,166.053-1.152
							C266.457,252.677,358.655,244.204,360.491,243.899z"/>
						<path style="fill:#96836F;" d="M-428.33,214.382c58.707-3.602,82.1-0.473,157.613,1.664
							c81.023,2.289,208.07,10.68,317.105,14.121c109.033,3.428,125.035,3.811,161.049,2.283
							c36.01-1.527,162.055-9.541,201.064-12.213c39.012-2.666,108.035-0.379,127.035,0.387
							c17.398,0.693,265.289,1.395,307.354,1.51v-5.645c-185.227-0.48-362.338-1.064-384.367-1.59
							c-48.02-1.143-134.045,4.578-199.064,11.064c-65.025,6.486-98.039,4.203-135.051,4.203c-37.008,0-197.057-6.492-244.08-10.309
							c-47.014-3.813-180.053-7.248-226.068-9.154c-30.941-1.285-52.4-0.84-82.59,1.215V214.382z"/>
						<path style="fill:#96836F;" d="M-73.654,200.78c-35.01,1.143-61.016,11.83-89.027,10.305
							c-28.01-1.527-85.027-9.543-140.051-8.398c-41.313,0.857-92.217,2.367-125.598,3.223v1.941
							c9.092-0.297,17.434-0.617,24.57-0.963c55.02-2.676,122.043-4.201,161.055-0.383c39.012,3.813,64.023,9.922,87.021,7.635
							c23.008-2.291,61.02-12.98,79.029-11.453c18.002,1.525,18.002,2.674,58.023,8.018c40.008,5.342,97.023,6.867,137.041,6.484
							c40.01-0.387,121.041-3.811,150.049-3.049c29.008,0.76,50.014,1.139,93.029-1.91c43.016-3.055,95.033-7.254,134.043-7.637
							c29.734-0.287,246.105,2.668,347.359,4.084v-2.385c-113.32-1.922-306.273-4.811-360.361-3.223
							c-78.025,2.291-144.051,11.07-196.066,9.92c-52.016-1.141-152.049,3.057-218.072,0.389
							C2.371,210.704-38.64,199.64-73.654,200.78z"/>
						<path style="fill:#96836F;" d="M-428.33,224.128l58.076,0.883l159.057,7.439l84.867,0.549
							c-31.184-0.738-248.418-10.281-248.418-10.281l-53.582,0.873V224.128z"/>
						<path style="fill:#96836F;" d="M-126.33,232.999c2.105,0.045,3.375,0.057,3.66,0.027L-126.33,232.999z"/>
						<path style="fill:#96836F;" d="M519.537,270.602c-5.234,0.188-10.035,1.031-13.463,2.094
							c15.771,0.268,30.938,0.566,45.482,0.871c0.611-0.494,1.006-0.988,0.992-1.438
							C552.383,268.112,530.541,270.229,519.537,270.602z"/>
					</g>
					<g style="opacity:0.39;">
						<path style="fill:#96836F;" d="M-428.33,303.89c58.402,1.436,112.611,6.469,151.033,9.738h51.955
							c-50.996-3.682-105.922-8.143-144.801-10.586c-15.822-0.99-36.457-1.551-58.188-1.84V303.89z"/>
						<path style="fill:#96836F;" d="M842.891,294.53v-2.291c-142.434,4.373-236.422,7.203-237.615,7.09
							c-5.01-0.471-104.149,4.182-139.201,6.967c0,0-53.221,2.826-103.971,7.332h21.147c51.566-4.361,148.498-9.457,180.967-10.586
							C574.207,302.694,683.889,299.35,842.891,294.53z"/>
						<path style="fill:#96836F;" d="M842.891,301.511c-175.908,5.639-300.094,9.949-313.729,11.287
							c-2.762,0.272-5.412,0.551-8.002,0.83h94.641c56.004-2.022,134.523-4.66,227.09-7.674V301.511z"/>
						<path style="fill:#96836F;" d="M385.961,298.858c16.021-3.248,38.055-10.67,81.119-14.854
							c43.057-4.182,60.277-11.719,90.121-3.25c11.098,3.145,123.607,2.27,285.689-0.822v-7.002
							c-147.371,4.418-246.008,7.227-249.637,6.893c-15.021-1.389-54.072-3.254-63.086-3.711
							c-9.016-0.467-84.127,6.965-113.166,11.142c-29.041,4.178-58.088,10.215-67.094,12.535
							c-9.016,2.324-78.117,5.109-103.15,10.219c-25.045,5.108-31.051,0.924-65.1,0.467c-34.051-0.467-152.217-0.467-185.268-0.93
							c-33.055-0.467-63.09-5.115-115.17-10.217c-52.078-5.111-74.105-6.508-91.127-7.43c-17.025-0.934-55.086,2.318-55.086,2.318
							c8.014-0.461,46.07,0.926,86.127,4.188c40.055,3.248,59.09,4.637,108.15,10.209c45.059,5.123,64.801,4.748,145.238,5.014
							h169.85c7.227-0.293,13.539-0.711,19.41-1.295C291.823,309.546,384.125,299.227,385.961,298.858z"/>
						<path style="fill:#96836F;" d="M-101.412,285.604c2.105,0.055,3.379,0.065,3.662,0.02L-101.412,285.604z"/>
						<path style="fill:#96836F;" d="M-332.168,276.684l289.574,8.242l169.717,0.678c-46.705-0.678-302.145-7.361-427.432-10.674
							C-311.281,275.542-321.949,276.126-332.168,276.684z"/>
					</g>
				</g>
			</g>
			<path style="fill-rule:evenodd;clip-rule:evenodd;fill:#8B5F27;stroke:#6D4A25;stroke-miterlimit:10;" d="M513.905,288.919
				c2.367,0,4.289-1.764,4.289-3.938V41.835c0-2.172-1.922-3.934-4.289-3.934H48.821c-2.367,0-4.287,1.762-4.287,3.934v243.147
				c0,2.174,1.92,3.938,4.287,3.938H513.905z"/>
		</g>
		<g>
			<circle style="fill-rule:evenodd;clip-rule:evenodd;fill:#11110E;" cx="111.432" cy="107.563" r="53.748"/>
			<circle style="fill-rule:evenodd;clip-rule:evenodd;fill:#FFFFFF;" cx="111.432" cy="107.563" r="44.994"/>
			<g>
				<defs>
					<circle id="SVGID_3_" cx="111.432" cy="107.563" r="31.191"/>
				</defs>
				<clipPath id="SVGID_4_">
					<use xlink:href="#SVGID_3_"  style="overflow:visible;"/>
				</clipPath>
				
					<circle style="clip-path:url(#SVGID_4_);fill-rule:evenodd;clip-rule:evenodd;fill:#FFFFFF;" cx="111.432" cy="107.563" r="31.191"/>
				<g style="clip-path:url(#SVGID_4_);">
					<rect x="88.993" y="74.52" style="fill-rule:evenodd;clip-rule:evenodd;fill:#F16447;" width="22.068" height="24.654"/>
					<rect x="104.604" y="65.118" style="fill-rule:evenodd;clip-rule:evenodd;fill:#A1B83B;" width="22.068" height="24.654"/>
					<rect x="109.272" y="88.026" style="fill-rule:evenodd;clip-rule:evenodd;fill:#B2C35E;" width="22.068" height="24.654"/>
				</g>
				<g style="clip-path:url(#SVGID_4_);">
					<rect x="98.993" y="101.52" style="fill-rule:evenodd;clip-rule:evenodd;fill:#F16447;" width="22.068" height="24.654"/>
					<rect x="114.604" y="92.118" style="fill-rule:evenodd;clip-rule:evenodd;fill:#A1B83B;" width="22.068" height="24.654"/>
					<rect x="119.272" y="115.026" style="fill-rule:evenodd;clip-rule:evenodd;fill:#B2C35E;" width="22.068" height="24.654"/>
				</g>
				<g style="clip-path:url(#SVGID_4_);">
					<rect x="58.993" y="111.52" style="fill-rule:evenodd;clip-rule:evenodd;fill:#F16447;" width="22.068" height="24.654"/>
					<rect x="74.604" y="102.118" style="fill-rule:evenodd;clip-rule:evenodd;fill:#A1B83B;" width="22.068" height="24.654"/>
					<rect x="79.272" y="125.026" style="fill-rule:evenodd;clip-rule:evenodd;fill:#B2C35E;" width="22.068" height="24.654"/>
				</g>
				<g style="clip-path:url(#SVGID_4_);">
					
						<rect x="87.691" y="106.378" transform="matrix(0.2861 -0.9582 0.9582 0.2861 -44.8891 187.3588)" style="fill-rule:evenodd;clip-rule:evenodd;fill:#F16447;" width="31.194" height="34.851"/>
					
						<rect x="81.268" y="81.431" transform="matrix(0.286 -0.9582 0.9582 0.286 -25.5665 163.4003)" style="fill-rule:evenodd;clip-rule:evenodd;fill:#A1B83B;" width="31.194" height="34.85"/>
					
						<rect x="114.185" y="84.372" transform="matrix(0.2861 -0.9582 0.9582 0.2861 -4.8883 197.0345)" style="fill-rule:evenodd;clip-rule:evenodd;fill:#B2C35E;" width="31.194" height="34.851"/>
				</g>
			</g>
		</g>
		<g>
			<circle style="fill-rule:evenodd;clip-rule:evenodd;fill:#11110E;" cx="133.988" cy="230.959" r="53.747"/>
			<circle style="fill-rule:evenodd;clip-rule:evenodd;fill:#FFFFFF;" cx="133.988" cy="230.959" r="44.993"/>
			<g>
				<defs>
					<circle id="SVGID_5_" cx="133.988" cy="230.959" r="31.19"/>
				</defs>
				<clipPath id="SVGID_6_">
					<use xlink:href="#SVGID_5_"  style="overflow:visible;"/>
				</clipPath>
				
					<circle style="clip-path:url(#SVGID_6_);fill-rule:evenodd;clip-rule:evenodd;fill:#FFFFFF;" cx="133.988" cy="230.959" r="31.19"/>
				<g style="clip-path:url(#SVGID_6_);">
					<rect x="111.549" y="197.915" style="fill-rule:evenodd;clip-rule:evenodd;fill:#F16447;" width="22.068" height="24.654"/>
					<rect x="127.16" y="188.513" style="fill-rule:evenodd;clip-rule:evenodd;fill:#A1B83B;" width="22.068" height="24.654"/>
					<rect x="131.828" y="211.423" style="fill-rule:evenodd;clip-rule:evenodd;fill:#B2C35E;" width="22.068" height="24.654"/>
				</g>
				<g style="clip-path:url(#SVGID_6_);">
					<rect x="121.549" y="224.915" style="fill-rule:evenodd;clip-rule:evenodd;fill:#F16447;" width="22.068" height="24.654"/>
					<rect x="137.16" y="215.513" style="fill-rule:evenodd;clip-rule:evenodd;fill:#A1B83B;" width="22.068" height="24.654"/>
					<rect x="141.828" y="238.423" style="fill-rule:evenodd;clip-rule:evenodd;fill:#B2C35E;" width="22.068" height="24.654"/>
				</g>
				<g style="clip-path:url(#SVGID_6_);">
					<rect x="81.549" y="234.915" style="fill-rule:evenodd;clip-rule:evenodd;fill:#F16447;" width="22.068" height="24.654"/>
					<rect x="97.16" y="225.513" style="fill-rule:evenodd;clip-rule:evenodd;fill:#A1B83B;" width="22.068" height="24.654"/>
					<rect x="101.828" y="248.423" style="fill-rule:evenodd;clip-rule:evenodd;fill:#B2C35E;" width="22.068" height="24.654"/>
				</g>
				<g style="clip-path:url(#SVGID_6_);">
					
						<rect x="110.248" y="229.773" transform="matrix(0.2861 -0.9582 0.9582 0.2861 -147.0231 297.0667)" style="fill-rule:evenodd;clip-rule:evenodd;fill:#F16447;" width="31.194" height="34.851"/>
					
						<rect x="103.824" y="204.826" transform="matrix(0.286 -0.9582 0.9582 0.286 -127.7014 273.1178)" style="fill-rule:evenodd;clip-rule:evenodd;fill:#A1B83B;" width="31.195" height="34.85"/>
					
						<rect x="136.741" y="207.768" transform="matrix(0.2861 -0.9582 0.9582 0.2861 -107.0212 306.7492)" style="fill-rule:evenodd;clip-rule:evenodd;fill:#B2C35E;" width="31.196" height="34.851"/>
				</g>
			</g>
		</g>
		<g>
			<circle style="fill-rule:evenodd;clip-rule:evenodd;fill:#11110E;" cx="270.375" cy="230.959" r="53.748"/>
			<circle style="fill-rule:evenodd;clip-rule:evenodd;fill:#FFFFFF;" cx="270.375" cy="230.959" r="44.994"/>
			<g>
				<defs>
					<circle id="SVGID_7_" cx="270.375" cy="230.959" r="31.191"/>
				</defs>
				<clipPath id="SVGID_8_">
					<use xlink:href="#SVGID_7_"  style="overflow:visible;"/>
				</clipPath>
				
					<circle style="clip-path:url(#SVGID_8_);fill-rule:evenodd;clip-rule:evenodd;fill:#FFFFFF;" cx="270.375" cy="230.959" r="31.191"/>
				<g style="clip-path:url(#SVGID_8_);">
					<rect x="247.938" y="197.915" style="fill-rule:evenodd;clip-rule:evenodd;fill:#F16447;" width="22.068" height="24.654"/>
					<rect x="263.547" y="188.513" style="fill-rule:evenodd;clip-rule:evenodd;fill:#A1B83B;" width="22.07" height="24.654"/>
					<rect x="268.215" y="211.423" style="fill-rule:evenodd;clip-rule:evenodd;fill:#B2C35E;" width="22.068" height="24.654"/>
				</g>
				<g style="clip-path:url(#SVGID_8_);">
					<rect x="257.938" y="224.915" style="fill-rule:evenodd;clip-rule:evenodd;fill:#F16447;" width="22.068" height="24.654"/>
					<rect x="273.547" y="215.513" style="fill-rule:evenodd;clip-rule:evenodd;fill:#A1B83B;" width="22.07" height="24.654"/>
					<rect x="278.215" y="238.423" style="fill-rule:evenodd;clip-rule:evenodd;fill:#B2C35E;" width="22.068" height="24.654"/>
				</g>
				<g style="clip-path:url(#SVGID_8_);">
					<rect x="217.938" y="234.915" style="fill-rule:evenodd;clip-rule:evenodd;fill:#F16447;" width="22.068" height="24.654"/>
					<rect x="233.547" y="225.513" style="fill-rule:evenodd;clip-rule:evenodd;fill:#A1B83B;" width="22.07" height="24.654"/>
					<rect x="238.215" y="248.423" style="fill-rule:evenodd;clip-rule:evenodd;fill:#B2C35E;" width="22.068" height="24.654"/>
				</g>
				<g style="clip-path:url(#SVGID_8_);">
					
						<rect x="246.635" y="229.773" transform="matrix(0.2861 -0.9582 0.9582 0.2861 -49.6532 427.7534)" style="fill-rule:evenodd;clip-rule:evenodd;fill:#F16447;" width="31.194" height="34.851"/>
					
						<rect x="240.211" y="204.827" transform="matrix(0.2861 -0.9582 0.9582 0.2861 -30.3337 403.79)" style="fill-rule:evenodd;clip-rule:evenodd;fill:#A1B83B;" width="31.195" height="34.849"/>
					
						<rect x="273.128" y="207.768" transform="matrix(0.2861 -0.9582 0.9582 0.2861 -9.6485 437.4368)" style="fill-rule:evenodd;clip-rule:evenodd;fill:#B2C35E;" width="31.196" height="34.851"/>
				</g>
			</g>
		</g>
		<g>
			<circle style="fill-rule:evenodd;clip-rule:evenodd;fill:#11110E;" cx="239.184" cy="109.559" r="53.748"/>
			<circle style="fill-rule:evenodd;clip-rule:evenodd;fill:#FFFFFF;" cx="239.184" cy="109.559" r="44.994"/>
			<g>
				<defs>
					<circle id="SVGID_9_" cx="239.184" cy="109.559" r="31.191"/>
				</defs>
				<clipPath id="SVGID_10_">
					<use xlink:href="#SVGID_9_"  style="overflow:visible;"/>
				</clipPath>
				
					<circle style="clip-path:url(#SVGID_10_);fill-rule:evenodd;clip-rule:evenodd;fill:#FFFFFF;" cx="239.184" cy="109.559" r="31.191"/>
				<g style="clip-path:url(#SVGID_10_);">
					<rect x="216.746" y="76.517" style="fill-rule:evenodd;clip-rule:evenodd;fill:#F16447;" width="22.068" height="24.654"/>
					<rect x="232.356" y="67.114" style="fill-rule:evenodd;clip-rule:evenodd;fill:#A1B83B;" width="22.07" height="24.654"/>
					<rect x="237.024" y="90.022" style="fill-rule:evenodd;clip-rule:evenodd;fill:#B2C35E;" width="22.068" height="24.654"/>
				</g>
				<g style="clip-path:url(#SVGID_10_);">
					<rect x="226.746" y="103.517" style="fill-rule:evenodd;clip-rule:evenodd;fill:#F16447;" width="22.068" height="24.654"/>
					<rect x="242.356" y="94.114" style="fill-rule:evenodd;clip-rule:evenodd;fill:#A1B83B;" width="22.07" height="24.654"/>
					<rect x="247.024" y="117.022" style="fill-rule:evenodd;clip-rule:evenodd;fill:#B2C35E;" width="22.068" height="24.654"/>
				</g>
				<g style="clip-path:url(#SVGID_10_);">
					<rect x="186.746" y="113.517" style="fill-rule:evenodd;clip-rule:evenodd;fill:#F16447;" width="22.068" height="24.654"/>
					<rect x="202.356" y="104.114" style="fill-rule:evenodd;clip-rule:evenodd;fill:#A1B83B;" width="22.07" height="24.654"/>
					<rect x="207.024" y="127.022" style="fill-rule:evenodd;clip-rule:evenodd;fill:#B2C35E;" width="22.068" height="24.654"/>
				</g>
				<g style="clip-path:url(#SVGID_10_);">
					
						<rect x="215.443" y="108.374" transform="matrix(0.2861 -0.9582 0.9582 0.2861 44.4034 311.1962)" style="fill-rule:evenodd;clip-rule:evenodd;fill:#F16447;" width="31.194" height="34.851"/>
					
						<rect x="209.02" y="83.428" transform="matrix(0.2861 -0.9582 0.9582 0.2861 63.7232 287.2318)" style="fill-rule:evenodd;clip-rule:evenodd;fill:#A1B83B;" width="31.194" height="34.849"/>
					
						<rect x="241.937" y="86.369" transform="matrix(0.2861 -0.9582 0.9582 0.2861 84.405 320.873)" style="fill-rule:evenodd;clip-rule:evenodd;fill:#B2C35E;" width="31.194" height="34.851"/>
				</g>
			</g>
		</g>
		<g>
			<path style="fill-rule:evenodd;clip-rule:evenodd;fill:#FFFFFF;" d="M411.391,134.126c0-13.566-15.795-24.566-35.275-24.566l0,0
				c-19.482,0-35.277,11-35.277,24.566v86.17c0,13.568,15.795,24.566,35.277,24.566l0,0c19.48,0,35.275-10.998,35.275-24.566
				V134.126z"/>
			<g>
				<defs>
					<path id="SVGID_11_" d="M403.61,128.985c0-15.186-12.311-27.494-27.494-27.494l0,0c-15.186,0-27.496,12.309-27.496,27.494
						v96.451c0,15.185,12.311,27.496,27.496,27.496l0,0c15.184,0,27.494-12.311,27.494-27.496V128.985z"/>
				</defs>
				<clipPath id="SVGID_12_">
					<use xlink:href="#SVGID_11_"  style="overflow:visible;"/>
				</clipPath>
				<path style="clip-path:url(#SVGID_12_);fill-rule:evenodd;clip-rule:evenodd;fill:#F48164;" d="M403.61,128.985
					c0-15.186-12.311-27.494-27.494-27.494l0,0c-15.186,0-27.496,12.309-27.496,27.494v96.451c0,15.185,12.311,27.496,27.496,27.496
					l0,0c15.184,0,27.494-12.311,27.494-27.496V128.985z"/>
				<g style="clip-path:url(#SVGID_12_);">
					
						<rect x="271.171" y="143.154" transform="matrix(0.6185 -0.7858 0.7858 0.6185 13.8976 319.4098)" style="fill-rule:evenodd;clip-rule:evenodd;fill:#F16447;" width="129.49" height="4.474"/>
					
						<rect x="280.106" y="150.192" transform="matrix(0.6188 -0.7855 0.7855 0.6188 11.7117 328.9946)" style="fill-rule:evenodd;clip-rule:evenodd;fill:#F16447;" width="129.49" height="4.475"/>
					
						<rect x="289.04" y="157.229" transform="matrix(0.6188 -0.7855 0.7855 0.6188 9.5891 338.6945)" style="fill-rule:evenodd;clip-rule:evenodd;fill:#F16447;" width="129.489" height="4.475"/>
					
						<rect x="297.976" y="164.267" transform="matrix(0.6188 -0.7855 0.7855 0.6188 7.4631 348.3898)" style="fill-rule:evenodd;clip-rule:evenodd;fill:#F16447;" width="129.488" height="4.475"/>
					
						<rect x="306.911" y="171.305" transform="matrix(0.6188 -0.7855 0.7855 0.6188 5.3405 358.0916)" style="fill-rule:evenodd;clip-rule:evenodd;fill:#F16447;" width="129.49" height="4.475"/>
					
						<rect x="315.828" y="178.643" transform="matrix(0.6185 -0.7857 0.7857 0.6185 3.0443 368.0314)" style="fill-rule:evenodd;clip-rule:evenodd;fill:#F16447;" width="129.491" height="4.475"/>
					
						<rect x="324.765" y="185.681" transform="matrix(0.6188 -0.7855 0.7855 0.6188 0.8535 377.5957)" style="fill-rule:evenodd;clip-rule:evenodd;fill:#F16447;" width="129.49" height="4.474"/>
					
						<rect x="333.699" y="192.718" transform="matrix(0.6188 -0.7855 0.7855 0.6188 -1.2625 387.3092)" style="fill-rule:evenodd;clip-rule:evenodd;fill:#F16447;" width="129.49" height="4.475"/>
					
						<rect x="342.636" y="199.755" transform="matrix(0.6188 -0.7855 0.7855 0.6188 -3.3912 396.9974)" style="fill-rule:evenodd;clip-rule:evenodd;fill:#F16447;" width="129.487" height="4.476"/>
					
						<rect x="351.571" y="206.793" transform="matrix(0.6188 -0.7855 0.7855 0.6188 -5.5137 406.6994)" style="fill-rule:evenodd;clip-rule:evenodd;fill:#F16447;" width="129.49" height="4.476"/>
				</g>
			</g>
		</g>
		<g>
			<path style="fill-rule:evenodd;clip-rule:evenodd;fill:#FFFFFF;" d="M500.813,94.036c0-13.566-15.795-24.566-35.277-24.566l0,0
				c-19.48,0-35.275,11-35.275,24.566v86.17c0,13.566,15.795,24.566,35.275,24.566l0,0c19.483,0,35.277-11,35.277-24.566V94.036z"/>
			<g>
				<defs>
					<path id="SVGID_13_" d="M493.032,88.895c0-15.186-12.31-27.496-27.496-27.496l0,0c-15.184,0-27.494,12.311-27.494,27.496
						v96.451c0,15.186,12.311,27.494,27.494,27.494l0,0c15.186,0,27.496-12.309,27.496-27.494V88.895z"/>
				</defs>
				<clipPath id="SVGID_14_">
					<use xlink:href="#SVGID_13_"  style="overflow:visible;"/>
				</clipPath>
				<path style="clip-path:url(#SVGID_14_);fill-rule:evenodd;clip-rule:evenodd;fill:#A1B83B;" d="M493.032,88.895
					c0-15.186-12.31-27.496-27.496-27.496l0,0c-15.184,0-27.494,12.311-27.494,27.496v96.451c0,15.186,12.311,27.494,27.494,27.494
					l0,0c15.186,0,27.496-12.309,27.496-27.494V88.895z"/>
			</g>
		</g>
		<path style="fill-rule:evenodd;clip-rule:evenodd;fill:#11110E;" d="M505.952,147.054c0,2.471-2.004,4.475-4.475,4.475h-71.881
			c-2.471,0-4.475-2.004-4.475-4.475v-19.867c0-2.471,2.004-4.475,4.475-4.475h71.881c2.471,0,4.475,2.004,4.475,4.475V147.054z"/>
		<g id="EYEBALL1_7_">
			<circle style="fill:#736357;" cx="111.822" cy="108.407" r="21.484"/>
			<circle cx="111.822" cy="108.407" r="15"/>
			<circle style="fill:#FFFFFF;" cx="104.401" cy="107.485" r="5.578"/>
		</g>
		<g id="EYEBALL1_6_">
			<circle style="fill:#006837;" cx="239.156" cy="108.407" r="21.484"/>
			<circle cx="239.156" cy="108.407" r="15"/>
			<circle style="fill:#FFFFFF;" cx="231.734" cy="107.485" r="5.578"/>
		</g>
		<g id="EYEBALL1_5_">
			<circle style="fill:#00A99D;" cx="271.822" cy="232.407" r="21.484"/>
			<circle cx="271.822" cy="232.407" r="15"/>
			<circle style="fill:#FFFFFF;" cx="264.401" cy="231.485" r="5.578"/>
		</g>
		<g id="EYEBALL1_4_">
			<circle style="fill:#F4F400;" cx="132.489" cy="232.407" r="21.484"/>
			<circle cx="132.489" cy="232.407" r="15"/>
			<circle style="fill:#FFFFFF;" cx="125.067" cy="231.485" r="5.578"/>
		</g>
	</g>
	<g id="Tentacle_11_">
		<g id="Tentacle_12_">
			<polygon style="fill:#8DAD60;" points="389.972,193.063 393.452,194.633 395.493,196.615 396.822,200.248 396.822,205.427 
				390.42,213.842 387.817,214.683 385.982,215.201 384.579,213.712 385.625,210.994 386.714,210.476 387.971,210.055 
				388.227,208.534 389.877,206.139 389.131,205.103 389.778,203.517 390.296,202.999 391.04,202.773 390.005,202.223 
				389.325,201.057 389.766,199.892 390.822,198.986 390.822,197.659 390.3,196.041 389.554,195.911 388.549,196.429 387.545,196.3 
				386.882,195.49 387.1,194.422 387.452,193.451 388.032,192.934 			"/>
			<path id="Suckers_3_" style="fill:#8DAD60;" d="M370.439,129.618l5.777,2.1l4.272,22.848l-9.273,19.556l-3.301,3.54l-5.195,6.503
				l-1.505,5.145l0.194,3.738l-0.929,3.884l-1.658,6.263v8.448l0.25,1.408l-1.596-1.906l-1.992-1.201l-0.655-1.456l-0.109-1.699
				l0.459-0.601l0.297-0.856l-0.772-0.049l-0.823-0.631l-0.193-1.408l0.632-1.699l-0.825-1.117l-0.194-1.942l0.922-1.262
				l-0.194-1.311l-0.485-1.456l1.068-2.67l-0.388-0.971l0.243-2.233l0.874-1.02l0.097-0.922l-0.097-1.748l0.097-1.408
				c0,0,0.777-1.991,1.505-1.991c0.728,0,3.641-8.108,3.641-8.108s-0.534-5.146,3.496-6.214c0,0-0.388-5.972,2.961-5.292
				c0,0-0.437-3.738,2.719-2.427c0,0-0.68-5.826,1.456-6.069l-0.437-4.564c0,0-1.408-2.282-0.728-4.903l-2.961-6.845l-0.291-1.845
				l0.485-1.651L370.439,129.618z"/>
			<polygon style="fill:#8DAD60;" points="378.838,190.765 378.806,192.804 377.155,194.487 377.285,196.623 376.88,205.556 
				375.998,206.592 375.12,205.88 374.471,203.906 374.179,202.676 373.79,200.863 373.401,199.407 373.466,197.4 374.469,196.559 
				374.404,195.814 374.437,194.293 375.246,193.29 376.152,193.128 376.508,192.739 376.54,191.574 377.123,190.182 377.9,189.632 
				378.369,189.891 			"/>
			<path id="Fill_6_" style="fill:#A1B83B;" d="M366.914,133.98c0,0,12.726-15.508,21.231-3.711c0,0,10.981,11.633,3.3,33.123
				c0,0-4.294,11.532-9.964,15.281c0,0-12.344,14.728-11.978,19.117c0.366,4.389-1.554,10.793,8.14,15.274
				c0,0,2.907,0.901,7.225-0.09c0,0,1.738,2.653,3.75-1.005c0,0,3.65,0.359,3.563-3.067c0,0,2.565-0.774,1.924-2.786
				c0,0,2.231-2.412,0.521-4.224c0,0,1.379-4.003-0.485-4.233c-1.864-0.23-0.31-0.23-0.31-0.23s-0.655-4.491-2.705-2.062
				c0,0-3.239-4.156-4.245-0.772c0,0-8.688-0.823-7.041,9.236c0,0,1.496,1.709,4.904-0.044c0.072-0.037,0.145-0.076,0.219-0.116
				c0,0,0.912,2.264-1.831,3.727c0,0-4.591,0.658-6.401-1.006c0,0,0.823-3.109-0.457-3.658l-0.457-1.28c0,0,1.097-1.829,0.823-2.378
				s1.259-1.668,0.582-3.132s-0.129-1.359-0.129-1.359s3.206-1.727,1.742-4.014c0,0,4.664-4.389,12.345-0.457
				c0,0,8.23,6.127,6.493,15.455c0,0-1.646,15.912-17.558,17.924c0,0-13.016,2.317-22.039-11.157l-0.732-1.28
				c0,0,2.5-0.366,0.914-3.414c0,0,0-0.732-0.488-4.024l-0.853-1.097l0.732-2.378l-0.061-0.488l1.036-0.854l0.305-1.097
				l-0.488-1.951l0.914-1.097l0.305-1.524l-0.061-1.585l-0.549-0.61c0,0,0.213-1.707,0.335-1.951
				c0.122-0.244,1.433-4.633,1.433-4.633v-0.732l1.235-2.896l0.472-1.677h0.671l0.975-0.655l0.427-2.233l0.366-0.903l1.158,0.676
				l1.219-1.887l0.914-1.218l1.402-0.365l0.793-0.975l0.183-0.609l1.28-0.975l1.036-2.621l0.366-1.463l1.463-0.61l1.006-1.707
				l0.213-1.219v-0.975l0.015-0.854l-0.038-0.549l-0.111-0.61l1.652-0.854l0.491-2.256l0.062-0.975l0.062-1.158l-0.243-1.463
				l-0.366-0.427l0.915-0.549l0.549-1.402l0.061-1.707l-0.061-1.341l-0.975-0.975l-0.914-0.427l-0.183-1.341l-0.853-2.195
				l-0.122-1.28l-0.816-1.182l0.999-0.342l0.305-1.402l-0.305-2.926l-0.732-1.158l-1.158-1.341l-0.732-0.854l-1.097,0.427
				l-0.122,0.366l-0.144-0.807l-0.77-0.778l-0.488-0.122C370.877,130.825,369.231,129.331,366.914,133.98z"/>
			<g id="Details_10_">
				<g>
					<path d="M357.377,184.391c-0.08-0.44-0.424-0.883-0.698-1.217c-0.065-0.08-0.183-0.018-0.191,0.071
						c-0.04,0.45-0.004,0.918,0.019,1.371c0.017,0.32-0.087,1.073,0.461,0.993C357.522,185.528,357.45,184.79,357.377,184.391z"/>
					<path d="M355.658,194.241c-0.026-0.131-0.056-0.252-0.114-0.373c-0.027-0.058-0.096-0.131-0.15-0.165
						c-0.086-0.055-0.223-0.04-0.267-0.159c-0.009-0.026-0.047-0.011-0.035,0.014c0.041,0.082-0.157,0.279-0.178,0.371
						c-0.031,0.13-0.041,0.262-0.06,0.393c-0.039,0.265,0.104,0.482,0.265,0.673c0.061,0.073,0.189,0.077,0.256,0.009
						C355.582,194.79,355.72,194.551,355.658,194.241z"/>
					<path d="M355.438,189.919c-0.055-0.376-0.303-0.695-0.334-1.076c-0.002-0.024-0.034-0.025-0.038-0.001
						c-0.058,0.378-0.328,0.68-0.408,1.05c-0.064,0.296-0.038,0.684,0.231,0.858c0.076,0.05,0.179,0.053,0.258,0.009
						C355.428,190.604,355.482,190.219,355.438,189.919z"/>
					<path d="M377.882,192.804c0.141-0.184,0.095-0.45,0.05-0.677c-0.023-0.117-0.062-0.271-0.119-0.376
						c-0.051-0.093-0.129-0.176-0.169-0.276c-0.02-0.05-0.106-0.053-0.129-0.005c-0.045,0.094-0.123,0.176-0.178,0.264
						c-0.073,0.116-0.113,0.329-0.115,0.464c-0.004,0.262,0.064,0.657,0.363,0.719C377.71,192.984,377.832,192.966,377.882,192.804z
						"/>
					<path d="M376.07,193.904c-0.019-0.353-0.481-0.356-0.538-0.019c-0.061,0.361-0.289,0.622-0.419,0.955
						c-0.087,0.221-0.136,0.81,0.25,0.8C376.112,195.623,376.097,194.423,376.07,193.904z"/>
					<path d="M391.792,197.278c0-0.141,0.066-0.258,0.045-0.398c-0.029-0.193-0.079-0.386-0.134-0.573
						c-0.089-0.299-0.275-0.623-0.323-0.928c-0.001-0.008-0.015-0.009-0.017-0.001c-0.028,0.122-0.122,0.256-0.161,0.377
						c-0.064,0.202-0.104,0.405-0.129,0.614c-0.023,0.191,0.023,0.466,0.116,0.634c0.111,0.201,0.241,0.249,0.434,0.364
						C391.692,197.408,391.791,197.364,391.792,197.278z"/>
					<path d="M390.183,209.998c0.757-0.845,0.951-2.14,0.638-3.217c-0.065-0.225-0.37-0.235-0.45-0.016
						c-0.152,0.414-0.184,0.869-0.305,1.296c-0.138,0.484-0.407,0.881-0.616,1.33C389.242,209.839,389.786,210.442,390.183,209.998z
						"/>
					<path d="M387.588,211.906c0.152-0.21,0.351-0.441,0.367-0.696c0.005-0.014,0.008-0.028,0.013-0.041
						c0.095-0.241-0.174-0.553-0.429-0.46c-0.01,0.004-0.036,0.012-0.062,0.021c-0.265,0.019-0.472,0.269-0.653,0.452
						c-0.277,0.281-0.612,0.602-0.552,1.026c0.029,0.203,0.228,0.306,0.407,0.333C387.055,212.596,387.393,212.175,387.588,211.906z
						"/>
					<path d="M357.171,209.688c0.336-0.182,0.366-0.707,0.251-1.024c-0.158-0.434-0.479-0.685-0.933-0.741
						c-0.108-0.013-0.228,0.042-0.309,0.123c-0.023,0.012-0.048,0.018-0.068,0.036c-0.051,0.048-0.079,0.11-0.087,0.179
						c-0.005,0.048,0.058,0.226,0.083,0.273c0.008,0.015,0.15,0.172,0.128,0.14c0.017,0.023,0.142,0.218,0.079,0.126
						c0.017,0.027,0.032,0.055,0.046,0.085c0.003,0.009,0.004,0.012,0.009,0.029c0.079,0.264,0.195,0.654,0.462,0.784
						c0.01,0.012,0.02,0.024,0.033,0.035c0.078,0.068,0.167,0.072,0.249,0.009C357.136,209.725,357.154,209.707,357.171,209.688z"/>
					<path d="M371.258,140.192c0.366-0.504-0.037-1.131-0.251-1.639c-0.363-0.861-0.539-1.875-1.069-2.655
						c-0.01-0.015-0.031-0.011-0.033,0.008c-0.078,0.789,0.244,1.532,0.392,2.295c0.122,0.629,0.036,1.734,0.694,2.052
						C371.091,140.301,371.191,140.285,371.258,140.192z"/>
					<path d="M371.626,147.774c0.33-0.419,0.008-1.35-0.034-1.839c-0.047-0.556-0.101-1.077-0.436-1.541
						c-0.017-0.023-0.051-0.008-0.059,0.014c-0.229,0.619-0.293,1.24-0.331,1.896c-0.03,0.507-0.053,1.412,0.547,1.584
						C371.441,147.925,371.548,147.873,371.626,147.774z"/>
					<path d="M374.036,136.267c0.139,0.53,0.305,1.295,0.845,1.531c0.102,0.045,0.255-0.035,0.276-0.144
						c0.112-0.575-0.32-1.238-0.51-1.774c-0.239-0.675-0.553-1.281-0.88-1.916c-0.006-0.011-0.026-0.008-0.025,0.006
						C373.812,134.758,373.833,135.493,374.036,136.267z"/>
					<path d="M366.374,164.475c0.037-0.202,0.069-0.399,0.047-0.605c-0.031-0.293-0.149-0.353-0.266-0.622
						c-0.004-0.009-0.018-0.009-0.023-0.001c-0.111,0.197-0.278,0.305-0.38,0.512c-0.094,0.19-0.155,0.394-0.226,0.592
						c-0.142,0.394-0.14,0.666,0.006,1.046c0.047,0.122,0.205,0.11,0.289,0.047C366.172,165.185,366.296,164.908,366.374,164.475z"
						/>
					<path d="M371.152,164.139c0.152-0.229,0.237-0.478,0.277-0.746c0.046-0.31-0.104-0.441-0.175-0.715
						c-0.002-0.009-0.014-0.009-0.017-0.001c-0.065,0.168-0.257,0.288-0.349,0.448c-0.1,0.172-0.227,0.35-0.358,0.498
						c-0.255,0.287-0.653,0.472-0.698,0.889c-0.008,0.075,0.04,0.156,0.103,0.194C370.409,165,370.905,164.511,371.152,164.139z"/>
					<path d="M368.844,161.282c0.115-0.072,0.231-0.142,0.351-0.206c0.117-0.062,0.195-0.158,0.299-0.226
						c0.082-0.053,0.097-0.172,0.008-0.228c-0.135-0.086-0.191-0.142-0.359-0.169c-0.196-0.03-0.404,0-0.592,0.061
						c-0.385,0.125-0.66,0.333-0.909,0.646c-0.251,0.315,0.192,0.733,0.514,0.551C368.394,161.579,368.613,161.426,368.844,161.282z
						"/>
					<path d="M374.888,152.473c0.026-0.979-0.367-1.99-0.125-2.969c0.063-0.257-0.295-0.453-0.436-0.202
						c-0.535,0.946-0.767,2.208-0.416,3.27C374.08,153.082,374.873,153.061,374.888,152.473z"/>
					<path d="M368.463,168.121c0.011-0.014,0.012-0.016,0.015-0.021c0.011-0.012,0.022-0.023,0.033-0.034l0,0
						c0.006-0.001,0.011-0.001,0.021-0.003c0.497-0.111,0.33-0.88-0.132-0.809c-0.391-0.018-0.716,0.197-0.907,0.561
						c-0.208,0.398,0.173,0.853,0.599,0.642C368.238,168.385,368.372,168.254,368.463,168.121z"/>
					<path d="M376.804,155.15c-0.058-0.404-0.712-0.421-0.803-0.028c-0.08,0.346-0.143,0.695-0.197,1.045
						c-0.054,0.351-0.133,0.774,0.126,1.054c0.069,0.075,0.188,0.117,0.289,0.087C377.002,157.073,376.894,155.776,376.804,155.15z"
						/>
					<path d="M356.257,200.436c0.192-0.529,0.038-1.118-0.375-1.501c-0.175-0.162-0.404-0.262-0.623-0.354
						c-0.242-0.102-0.456-0.074-0.701-0.067c-0.087,0.003-0.129,0.096-0.074,0.163c0.535,0.664,0.6,1.609,1.435,1.935
						C356.061,200.667,356.21,200.566,356.257,200.436z"/>
				</g>
				<g>
					<path d="M357.377,184.391c-0.08-0.44-0.424-0.883-0.698-1.217c-0.065-0.08-0.183-0.018-0.191,0.071
						c-0.04,0.45-0.004,0.918,0.019,1.371c0.017,0.32-0.087,1.073,0.461,0.993C357.522,185.528,357.45,184.79,357.377,184.391z"/>
					<path d="M355.658,194.241c-0.026-0.131-0.056-0.252-0.114-0.373c-0.027-0.058-0.096-0.131-0.15-0.165
						c-0.086-0.055-0.223-0.04-0.267-0.159c-0.009-0.026-0.047-0.011-0.035,0.014c0.041,0.082-0.157,0.279-0.178,0.371
						c-0.031,0.13-0.041,0.262-0.06,0.393c-0.039,0.265,0.104,0.482,0.265,0.673c0.061,0.073,0.189,0.077,0.256,0.009
						C355.582,194.79,355.72,194.551,355.658,194.241z"/>
					<path d="M355.438,189.919c-0.055-0.376-0.303-0.695-0.334-1.076c-0.002-0.024-0.034-0.025-0.038-0.001
						c-0.058,0.378-0.328,0.68-0.408,1.05c-0.064,0.296-0.038,0.684,0.231,0.858c0.076,0.05,0.179,0.053,0.258,0.009
						C355.428,190.604,355.482,190.219,355.438,189.919z"/>
					<path d="M377.882,192.804c0.141-0.184,0.095-0.45,0.05-0.677c-0.023-0.117-0.062-0.271-0.119-0.376
						c-0.051-0.093-0.129-0.176-0.169-0.276c-0.02-0.05-0.106-0.053-0.129-0.005c-0.045,0.094-0.123,0.176-0.178,0.264
						c-0.073,0.116-0.113,0.329-0.115,0.464c-0.004,0.262,0.064,0.657,0.363,0.719C377.71,192.984,377.832,192.966,377.882,192.804z
						"/>
					<path d="M376.07,193.904c-0.019-0.353-0.481-0.356-0.538-0.019c-0.061,0.361-0.289,0.622-0.419,0.955
						c-0.087,0.221-0.136,0.81,0.25,0.8C376.112,195.623,376.097,194.423,376.07,193.904z"/>
					<path d="M391.792,197.278c0-0.141,0.066-0.258,0.045-0.398c-0.029-0.193-0.079-0.386-0.134-0.573
						c-0.089-0.299-0.275-0.623-0.323-0.928c-0.001-0.008-0.015-0.009-0.017-0.001c-0.028,0.122-0.122,0.256-0.161,0.377
						c-0.064,0.202-0.104,0.405-0.129,0.614c-0.023,0.191,0.023,0.466,0.116,0.634c0.111,0.201,0.241,0.249,0.434,0.364
						C391.692,197.408,391.791,197.364,391.792,197.278z"/>
					<path d="M390.183,209.998c0.757-0.845,0.951-2.14,0.638-3.217c-0.065-0.225-0.37-0.235-0.45-0.016
						c-0.152,0.414-0.184,0.869-0.305,1.296c-0.138,0.484-0.407,0.881-0.616,1.33C389.242,209.839,389.786,210.442,390.183,209.998z
						"/>
					<path d="M387.588,211.906c0.152-0.21,0.351-0.441,0.367-0.696c0.005-0.014,0.008-0.028,0.013-0.041
						c0.095-0.241-0.174-0.553-0.429-0.46c-0.01,0.004-0.036,0.012-0.062,0.021c-0.265,0.019-0.472,0.269-0.653,0.452
						c-0.277,0.281-0.612,0.602-0.552,1.026c0.029,0.203,0.228,0.306,0.407,0.333C387.055,212.596,387.393,212.175,387.588,211.906z
						"/>
					<path d="M357.171,209.688c0.336-0.182,0.366-0.707,0.251-1.024c-0.158-0.434-0.479-0.685-0.933-0.741
						c-0.108-0.013-0.228,0.042-0.309,0.123c-0.023,0.012-0.048,0.018-0.068,0.036c-0.051,0.048-0.079,0.11-0.087,0.179
						c-0.005,0.048,0.058,0.226,0.083,0.273c0.008,0.015,0.15,0.172,0.128,0.14c0.017,0.023,0.142,0.218,0.079,0.126
						c0.017,0.027,0.032,0.055,0.046,0.085c0.003,0.009,0.004,0.012,0.009,0.029c0.079,0.264,0.195,0.654,0.462,0.784
						c0.01,0.012,0.02,0.024,0.033,0.035c0.078,0.068,0.167,0.072,0.249,0.009C357.136,209.725,357.154,209.707,357.171,209.688z"/>
					<path d="M371.258,140.192c0.366-0.504-0.037-1.131-0.251-1.639c-0.363-0.861-0.539-1.875-1.069-2.655
						c-0.01-0.015-0.031-0.011-0.033,0.008c-0.078,0.789,0.244,1.532,0.392,2.295c0.122,0.629,0.036,1.734,0.694,2.052
						C371.091,140.301,371.191,140.285,371.258,140.192z"/>
					<path d="M371.626,147.774c0.33-0.419,0.008-1.35-0.034-1.839c-0.047-0.556-0.101-1.077-0.436-1.541
						c-0.017-0.023-0.051-0.008-0.059,0.014c-0.229,0.619-0.293,1.24-0.331,1.896c-0.03,0.507-0.053,1.412,0.547,1.584
						C371.441,147.925,371.548,147.873,371.626,147.774z"/>
					<path d="M374.036,136.267c0.139,0.53,0.305,1.295,0.845,1.531c0.102,0.045,0.255-0.035,0.276-0.144
						c0.112-0.575-0.32-1.238-0.51-1.774c-0.239-0.675-0.553-1.281-0.88-1.916c-0.006-0.011-0.026-0.008-0.025,0.006
						C373.812,134.758,373.833,135.493,374.036,136.267z"/>
					<path d="M366.374,164.475c0.037-0.202,0.069-0.399,0.047-0.605c-0.031-0.293-0.149-0.353-0.266-0.622
						c-0.004-0.009-0.018-0.009-0.023-0.001c-0.111,0.197-0.278,0.305-0.38,0.512c-0.094,0.19-0.155,0.394-0.226,0.592
						c-0.142,0.394-0.14,0.666,0.006,1.046c0.047,0.122,0.205,0.11,0.289,0.047C366.172,165.185,366.296,164.908,366.374,164.475z"
						/>
					<path d="M371.152,164.139c0.152-0.229,0.237-0.478,0.277-0.746c0.046-0.31-0.104-0.441-0.175-0.715
						c-0.002-0.009-0.014-0.009-0.017-0.001c-0.065,0.168-0.257,0.288-0.349,0.448c-0.1,0.172-0.227,0.35-0.358,0.498
						c-0.255,0.287-0.653,0.472-0.698,0.889c-0.008,0.075,0.04,0.156,0.103,0.194C370.409,165,370.905,164.511,371.152,164.139z"/>
					<path d="M368.844,161.282c0.115-0.072,0.231-0.142,0.351-0.206c0.117-0.062,0.195-0.158,0.299-0.226
						c0.082-0.053,0.097-0.172,0.008-0.228c-0.135-0.086-0.191-0.142-0.359-0.169c-0.196-0.03-0.404,0-0.592,0.061
						c-0.385,0.125-0.66,0.333-0.909,0.646c-0.251,0.315,0.192,0.733,0.514,0.551C368.394,161.579,368.613,161.426,368.844,161.282z
						"/>
					<path d="M374.888,152.473c0.026-0.979-0.367-1.99-0.125-2.969c0.063-0.257-0.295-0.453-0.436-0.202
						c-0.535,0.946-0.767,2.208-0.416,3.27C374.08,153.082,374.873,153.061,374.888,152.473z"/>
					<path d="M368.463,168.121c0.011-0.014,0.012-0.016,0.015-0.021c0.011-0.012,0.022-0.023,0.033-0.034l0,0
						c0.006-0.001,0.011-0.001,0.021-0.003c0.497-0.111,0.33-0.88-0.132-0.809c-0.391-0.018-0.716,0.197-0.907,0.561
						c-0.208,0.398,0.173,0.853,0.599,0.642C368.238,168.385,368.372,168.254,368.463,168.121z"/>
					<path d="M376.804,155.15c-0.058-0.404-0.712-0.421-0.803-0.028c-0.08,0.346-0.143,0.695-0.197,1.045
						c-0.054,0.351-0.133,0.774,0.126,1.054c0.069,0.075,0.188,0.117,0.289,0.087C377.002,157.073,376.894,155.776,376.804,155.15z"
						/>
					<path d="M356.257,200.436c0.192-0.529,0.038-1.118-0.375-1.501c-0.175-0.162-0.404-0.262-0.623-0.354
						c-0.242-0.102-0.456-0.074-0.701-0.067c-0.087,0.003-0.129,0.096-0.074,0.163c0.535,0.664,0.6,1.609,1.435,1.935
						C356.061,200.667,356.21,200.566,356.257,200.436z"/>
				</g>
			</g>
			<g id="Outline_6_">
				<path style="fill:#565151;" d="M389.24,220.503c6.182-4.552,9.721-12.459,8.722-19.771c-0.784-6.302-6.563-13.279-13.616-12.522
					c-2.036,0.182-3.769,0.866-5.189,1.905c-0.008-0.034-0.012-0.07-0.025-0.104c-0.08-0.209-0.226-0.405-0.393-0.554
					c-0.043-0.038-0.094-0.066-0.148-0.09c-0.057-0.111-0.15-0.203-0.274-0.235c-1.66-0.425-2.224,1.549-2.101,3.226
					c-0.053,0.081-0.103,0.164-0.154,0.246c-1.197-0.037-2.26,1.16-2.207,2.389c0.021,0.485,0.12,1.041,0.369,1.452
					c-0.284,0.041-0.506,0.232-0.675,0.487c-0.471,0.504-0.715,1.244-0.666,1.972c0.013,0.188,0.061,0.38,0.135,0.564
					c0.021,0.774,0.242,1.619,0.406,2.311c0.104,0.437,0.26,1.112,0.563,1.613c-0.014,0.042-0.027,0.085-0.026,0.138
					c0.027,1.147,0.455,2.666,1.669,3.092c0.003,0.001,0.006,0.001,0.009,0.002c0.265,0.14,0.548,0.189,0.807,0.126
					c0.035,0.031,0.066,0.066,0.102,0.097c1.693,1.458,4.284,1.904,6.377,1.21c2.334-0.774,3.123-3.01,3.19-5.233
					c0.008-0.263-0.219-0.564-0.506-0.543c-0.818,0.059-1.28,0.247-1.73,0.96c-0.073,0.116-0.092,0.23-0.077,0.335
					c-0.789,0.713-1.838,1.089-2.885,0.546c-1.228-0.637-1.02-2.407-0.904-3.523c0.253-2.431,1.794-4.452,4.122-5.191
					c0.866-0.275,1.686-0.363,2.445-0.3c0.061,0.457,0.237,0.905,0.502,1.272c0.312,0.431,0.717,0.722,1.247,0.804
					c0.427,0.066,0.85-0.182,1.115-0.522c-0.102,0.712,0.02,1.436,0.131,2.175c-0.483,0.805-0.813,1.948-0.448,2.786
					c0.177,0.407,0.519,0.873,0.937,1.184c-0.307,0.139-0.543,0.412-0.761,0.663c-0.44,0.508-0.71,1.665-0.2,2.24
					c-0.092,0.097-0.182,0.2-0.264,0.319c-0.381,0.547-0.653,1.25-0.822,1.969c-0.162,0.479-0.256,1.066-0.236,1.646
					c-1.016-0.075-1.976,0.254-2.548,1.188c-0.197,0.322-0.322,0.689-0.38,1.067c-3.6,1.423-8.165,0.759-11.023-1.839
					c-1.787-1.625-2.546-3.912-3.213-6.157c-0.829-2.789-0.705-5.064,0.241-7.782c1.798-5.166,4.547-9.254,8.167-13.311
					c3.367-3.773,6.795-7.313,9.458-11.644c2.485-4.041,4.823-8.675,5.862-13.324c2.069-9.266,0.506-23.889-7.798-30.206
					c0.048-0.053,0.058-0.149-0.018-0.187c-0.333-0.167-0.657-0.338-0.978-0.508c-1.275-0.816-2.692-1.45-4.262-1.856
					c-0.033-0.008-0.048,0.038-0.016,0.051c0.341,0.131,0.67,0.279,0.993,0.434c-0.24-0.055-0.484-0.101-0.738-0.132
					c-2.294-0.28-4.28,0.034-6.416,0.927c-3.233,1.351-8.24,3.974-8.818,7.878c-0.326,2.202,0.496,4.22,1.331,6.218
					c0.518,1.239,1.022,2.468,1.469,3.715c-0.249,0.595-0.283,1.274-0.206,1.907c0.153,1.264,0.718,2.639,1.62,3.608
					c0.143,1.185,0.142,2.335,0.022,3.455c-1.09,0.899-1.523,3.04-1.242,4.868c-0.094,0.239-0.191,0.476-0.292,0.713
					c-0.504-0.173-1.041-0.109-1.575,0.146c-0.621,0.297-0.901,0.991-1.004,1.627c-0.049,0.306-0.077,0.614-0.078,0.922
					c-1.191-0.138-2.286,1.016-2.567,2.088c-0.291,1.107-0.013,2.4,0.591,3.377c-0.034,0.052-0.067,0.105-0.101,0.158
					c-0.195-0.134-0.448-0.204-0.772-0.177c-0.969,0.082-1.7,0.954-2.222,1.691c-0.64,0.904-1.081,2.077-1.086,3.19
					c-0.001,0.327,0.082,0.732,0.246,1.092c-0.663,0.642-1.056,1.492-1.163,2.503c-0.504,0.961-0.985,1.936-1.42,2.938
					c-0.051,0.117-0.099,0.237-0.149,0.355c-0.281,0.666-0.548,1.345-0.799,2.036c-0.004,0.07-0.005,0.137-0.007,0.206
					c-0.369-0.061-0.745,0.047-1.197,0.423c-1.446,1.205-1.502,4.436-0.743,6.054c-0.076,0.006-0.152,0.02-0.227,0.054
					c-0.483,0.215-0.698,0.737-1.048,1.111c-0.734,0.783-0.398,2.672,0.296,3.376c0.007,0.008,0.016,0.014,0.023,0.022
					c-0.063,0.013-0.125,0.021-0.188,0.043c-0.921,0.32-1.138,1.67-1.079,2.505c0.028,0.39,0.153,0.753,0.312,1.104
					c0.062,0.265,0.165,0.49,0.325,0.647c0.106,0.195,0.235,0.407,0.377,0.592c-0.001,0.067-0.003,0.134-0.004,0.201
					c-0.43,0.249-0.789,0.665-0.923,1.141c-0.293,1.046,0.09,2.247,0.928,2.893c-0.06,0.041-0.113,0.089-0.142,0.144
					c-0.848,1.607-0.407,4.26,1.309,4.75c0.049,0.014,0.104,0.019,0.155,0.03c0.041,0.072,0.085,0.145,0.134,0.216
					c-0.777,0.312-1.071,1.342-0.975,2.123c0.122,0.986,1.118,1.853,1.978,2.269c0.106,0.098,0.215,0.195,0.338,0.279
					c0.16,0.11,0.333,0.18,0.51,0.227c0.177,0.433,0.374,0.863,0.603,1.288c1.658,2.819,5.537,6.719,8.492,8.328
					C372.781,224.696,383.049,225.306,389.24,220.503z M377.144,193.097c-0.078-0.284-0.109-0.584-0.104-0.886
					c0.007-0.4,0.076-0.802,0.181-1.173c0.016-0.055,0.031-0.112,0.048-0.166c0.092-0.288,0.245-0.613,0.509-0.783
					c0.001,0.006,0,0.011,0.002,0.017c0.036,0.147,0.117,0.253,0.212,0.349c-0.005,0.004-0.012,0.009-0.016,0.011
					c-0.038,0.017-0.013,0.073,0.025,0.065c0.025-0.004,0.042-0.003,0.065-0.007c0.068,0.063,0.137,0.123,0.204,0.191
					c0.062,0.062,0.129,0.101,0.197,0.124c0.016,0.098,0.03,0.207,0.053,0.338c0.016,0.093,0.025,0.188,0.033,0.283
					c0.034,0.395,0.008,0.802-0.041,1.188c-0.078,0.601-0.572,1.384-0.991,1.116c-0.06-0.215-0.176-0.441-0.331-0.621
					C377.173,193.128,377.159,193.112,377.144,193.097z M374.869,195.766c-0.033-0.096-0.06-0.203-0.08-0.314
					c-0.005-0.028-0.008-0.056-0.012-0.083c-0.078-0.509-0.023-0.961,0.282-1.395c0.13-0.184,0.3-0.34,0.495-0.464
					c0.239-0.152,0.514-0.252,0.791-0.299c0.003,0.014,0.007,0.028,0.011,0.043c0.01-0.017,0.019-0.034,0.029-0.051
					c0.061-0.009,0.122-0.014,0.182-0.017c0.023,0.062,0.048,0.124,0.069,0.191c0.024,0.075,0.019,0.16,0.038,0.237
					c-0.033-0.137,0.016,0.187,0.029,0.237c0.007,0.03,0.009,0.06,0.015,0.09c-0.018,0.035-0.037,0.068-0.056,0.103
					c0.026,0.044,0.053,0.085,0.081,0.123c0.007,0.203-0.02,0.404-0.079,0.602c-0.127,0.433-0.405,0.845-0.769,1.127
					c-0.106,0.082-0.218,0.155-0.336,0.211c-0.023,0.011-0.043,0.014-0.065,0.023l-0.335,0.015
					C375.024,196.087,374.932,195.947,374.869,195.766z M377.041,195.876c-0.078,0.539-0.265,1.081-0.518,1.549
					c-0.05,0.093-0.266,0.472-0.348,0.48c0.012-0.001-0.003-0.016-0.028-0.034c-0.015-0.353-0.08-0.696-0.195-1.003
					C376.392,196.66,376.766,196.287,377.041,195.876z M373.902,197.946c0.073-0.395,0.105-0.729,0.466-0.982
					c0.081-0.057,0.116-0.119,0.134-0.194c0.127,0.108,0.275,0.193,0.452,0.234c0.054,0.013,0.111,0.021,0.17,0.026
					c0.022,0.053,0.042,0.105,0.061,0.159c0.047,0.174,0.095,0.347,0.112,0.513c0.054,0.53-0.174,0.919-0.516,1.324
					C374.264,199.642,373.822,198.379,373.902,197.946z M376.074,198.799c0.001,0.001,0.002,0.002,0.004,0.003
					c0.211,0.088,0.227,0.059,0.222,0.267c-0.004,0.175-0.001,0.349-0.036,0.522c-0.075,0.373-0.253,0.795-0.54,1.066
					c-0.131-0.148-0.277-0.281-0.438-0.396C375.689,199.936,375.952,199.397,376.074,198.799z M374.923,203.255
					c-0.133-0.049-0.257-0.22-0.401-0.533c-0.317-0.688-0.457-1.43-0.546-2.18c-0.002-0.019-0.005-0.038-0.007-0.058
					c0.002,0.001,0.004,0.002,0.006,0.003c0.208,0.083,0.434,0.113,0.672,0.071c0.023-0.004,0.046-0.006,0.069-0.011
					c0.101-0.024,0.195-0.062,0.286-0.105c0.082,0.09,0.159,0.188,0.233,0.291c0.241,0.34,0.424,0.737,0.485,1.12
					c0.018,0.11,0.023,0.219,0.018,0.325c-0.004,0.11-0.02,0.217-0.051,0.319c-0.033,0.109-0.079,0.213-0.146,0.307
					c-0.019,0.027-0.036,0.046-0.055,0.071C375.254,203.186,375.081,203.313,374.923,203.255z M375.334,205.443
					c-0.152-0.231-0.291-0.469-0.415-0.715c-0.072-0.225-0.113-0.462-0.132-0.7c0.079,0.012,0.156,0.017,0.233,0.008
					c0.046-0.006,0.091-0.015,0.135-0.027c0.209-0.059,0.403-0.19,0.572-0.361c0.164-0.167,0.304-0.369,0.407-0.577
					c0.079,0.146,0.147,0.296,0.205,0.431c0.228,0.532,0.299,1.087,0.194,1.637c-0.02,0.107-0.044,0.213-0.078,0.318
					c-0.027,0.084-0.074,0.208-0.128,0.3C375.987,206.1,375.566,205.68,375.334,205.443z M388.356,196.185
					c-0.266-0.051-0.476-0.295-0.623-0.506c-0.091-0.131-0.17-0.271-0.243-0.415c-0.062-0.124-0.118-0.25-0.164-0.38
					c0.009-0.069,0.021-0.135,0.035-0.202c0.043-0.212,0.113-0.406,0.215-0.57c0.03-0.048,0.057-0.099,0.093-0.141
					c0.343-0.402,0.986-0.28,1.424-0.142c0.269,0.085,0.71,0.303,1.08,0.59c-0.112,0.268-0.215,0.54-0.419,0.747
					c-0.197,0.201-0.437,0.356-0.659,0.529c-0.062,0.018-0.123,0.047-0.178,0.096c-0.018,0.016-0.036,0.034-0.056,0.055
					C388.726,195.991,388.558,196.224,388.356,196.185z M390.509,197.402c-0.013-0.284-0.031-0.567-0.081-0.847
					c0.043-0.06,0.055-0.136,0.016-0.202c0.016-0.046,0.031-0.094,0.049-0.138c0.033-0.077,0.071-0.15,0.11-0.222
					c0.008-0.001,0.016-0.001,0.024-0.007c0.103-0.08,0.188-0.159,0.263-0.241c0.109-0.119,0.191-0.243,0.236-0.378
					c0.262-0.196,0.586-0.314,0.984-0.31c1.296,0.014,1.278,1.803,1.148,2.929c-0.182-0.162-0.396-0.287-0.637-0.344
					c-0.163-0.038-0.299-0.033-0.424-0.003c-0.002,0-0.004,0.002-0.006,0.002c-0.366-0.082-0.738-0.011-1.06,0.317
					c-0.209,0.212-0.357,0.442-0.465,0.681C390.549,198.23,390.528,197.816,390.509,197.402z M393.809,198.751
					c0.17-0.312,0.279-0.69,0.332-1.091c0.253,0.56,0.406,1.192,0.501,1.761c0.063,0.378,0.092,0.827-0.028,1.207
					c-0.085-0.057-0.175-0.103-0.27-0.13c-0.091-0.609-0.267-1.207-0.537-1.744C393.807,198.753,393.808,198.752,393.809,198.751z
					 M390.506,202.079c-0.408-0.247-0.648-0.697-0.756-1.144c-0.13-0.535,0.087-1.048,0.198-1.562
					c0.04,0.097,0.081,0.189,0.122,0.273c0.101,0.209,0.254,0.405,0.437,0.577c0.13,0.756,0.487,1.515,0.866,2.159
					c-0.028,0.009-0.053,0.022-0.079,0.033C391.039,202.29,390.761,202.234,390.506,202.079z M392.223,201.651
					c-0.245-0.418-0.448-0.838-0.568-1.305c-0.003-0.019-0.004-0.039-0.007-0.058c-0.013-0.081-0.03-0.16-0.045-0.24
					c-0.036-0.436-0.012-1.275,0.345-1.3c0.693-0.047,0.979,1.096,1.117,1.574c0.065,0.226,0.124,0.456,0.17,0.689
					c-0.02,0.014-0.038,0.031-0.059,0.044c-0.014,0.01-0.003,0.032,0.012,0.023c0.018-0.009,0.035-0.019,0.053-0.028
					c0.029,0.152,0.049,0.306,0.064,0.46c-0.029,0.047-0.025,0.104,0.013,0.152c0.001,0.021,0.004,0.041,0.005,0.061
					c0.016,0.361-0.195,0.662-0.235,1.019c-0.001,0.01,0.002,0.021,0.002,0.031c-0.004,0.007-0.008,0.011-0.011,0.017
					C393.019,202.892,392.266,201.726,392.223,201.651z M394.382,202.233c0.02-0.083,0.035-0.169,0.043-0.258
					c0.069-0.02,0.136-0.048,0.2-0.082c0.19,0.424,0.259,0.943,0.268,1.366c0.009,0.426-0.031,0.997-0.319,1.34
					c-0.081,0.097-0.205,0.153-0.344,0.186c-0.118-0.134-0.259-0.24-0.425-0.304c-0.006-0.035-0.017-0.066-0.024-0.1
					c-0.012-0.06-0.026-0.12-0.043-0.179c-0.019-0.077-0.032-0.158-0.055-0.231c-0.022-0.072-0.05-0.141-0.078-0.21
					C394.123,203.521,394.314,202.83,394.382,202.233z M389.95,203.992c0.107-0.344,0.321-0.506,0.575-0.621
					c-0.052,0.162-0.091,0.329-0.118,0.496c-0.051,0.323-0.061,0.751,0.09,1.071c0.002,0.016,0.003,0.031,0.005,0.047
					c-0.005,0.071,0.004,0.136,0.026,0.195c-0.192-0.042-0.385-0.033-0.574,0.013C389.726,204.778,389.793,204.499,389.95,203.992z
					 M392.105,206.007c-0.138-0.121-0.272-0.27-0.373-0.394c-0.029-0.035-0.056-0.073-0.083-0.11c0.015-0.1,0.019-0.199-0.01-0.318
					c-0.02-0.082,0.008-0.316-0.081-0.134c0.06-0.123,0.117-0.275,0.115-0.415c-0.006-0.392-0.075-0.857,0.162-1.196
					c0.038-0.055,0.138-0.059,0.227-0.05c0.018,0.033,0.041,0.063,0.073,0.087c0.007,0.005,0.014,0.007,0.022,0.011
					c0.03,0.02,0.059,0.036,0.087,0.049c0.132,0.114,0.274,0.212,0.427,0.276c-0.15,0.35-0.103,0.743-0.1,1.125
					c0.002,0.242,0.061,1.11-0.316,1.082c-0.041-0.003-0.078,0.006-0.113,0.015C392.129,206.025,392.117,206.017,392.105,206.007z
					 M393.823,205.521c0.003,0.002,0.007,0.004,0.011,0.005c0.09,0.396,0.033,0.859-0.112,1.275
					c-0.144,0.412-0.41,0.766-0.746,1.023c-0.064-0.282-0.151-0.557-0.265-0.813c0.426-0.104,0.757-0.462,0.948-0.893
					C393.741,205.932,393.793,205.729,393.823,205.521z M388.85,210.303c-0.026-0.059-0.047-0.119-0.069-0.18
					c-0.009-0.025-0.02-0.049-0.029-0.075c0.083-0.084,0.143-0.198,0.157-0.349c0.029-0.303,0.07-0.6,0.117-0.895
					c0.085-0.53,0.201-1.051,0.372-1.573c0.252-0.77,0.625-1.346,1.314-1.14c0.118,0.035,0.243,0.091,0.381,0.175
					c0.019,0.012,0.037,0.015,0.056,0.022c0.035,0.042,0.073,0.081,0.11,0.121c0.149,0.162,0.316,0.306,0.504,0.418
					c0.058,0.035,0.118,0.065,0.181,0.092c0.142,0.448,0.22,0.913,0.258,1.278c0.002,0.016,0.004,0.034,0.005,0.05
					c0.01,0.107,0.012,0.209,0.009,0.31c-0.004,0.119-0.015,0.233-0.036,0.343c-0.111,0.596-0.458,1.084-0.93,1.546
					c-0.648,0.633-1.58,0.899-2.15,0.251C389.006,210.592,388.921,210.463,388.85,210.303z M385.775,212.221
					c0.022-0.306,0.108-0.607,0.254-0.873c0.013-0.023,0.023-0.048,0.037-0.07c0.25-0.418,0.653-0.62,1.093-0.676
					c0.258-0.033,0.529-0.016,0.79,0.039c0.001,0,0.001,0,0.001,0c0.02,0.061,0.044,0.119,0.067,0.177
					c0.075,0.19,0.163,0.37,0.281,0.525c0.012,0.016,0.025,0.029,0.038,0.044c0.063,0.077,0.129,0.147,0.198,0.21
					c-0.177,0.403-0.441,0.791-0.584,0.989c-0.283,0.392-0.726,0.743-1.168,0.938c-0.449,0.198-0.768-0.076-0.914-0.516
					c-0.008-0.023-0.013-0.048-0.019-0.072C385.781,212.705,385.757,212.463,385.775,212.221z M369.052,131.99
					c0.358-0.385,0.761-0.744,1.192-1.081c0.545,0.29,1.118,1.194,1.466,2.037c-0.107,0.456-0.17,0.939-0.18,1.419
					c-0.18-0.232-0.409-0.451-0.696-0.658c-0.566-0.408-1.192-0.391-1.711-0.116C368.987,133.065,368.941,132.525,369.052,131.99z
					 M372.991,132.234c1.23,0.653,2.025,2.094,2.56,3.307c0.685,1.556,0.829,3.157-0.43,4.221c-0.329-0.324-0.691-0.557-1.08-0.655
					c-0.219-0.969-0.645-2.216-1.272-3.22c-0.089-0.348-0.151-0.707-0.182-1.066c0.234-0.326,0.194-0.94,0.066-1.534
					C372.723,132.92,372.834,132.566,372.991,132.234z M367.669,136.516c-0.245-1.106-0.102-2.076,0.292-2.937
					c0.047,0.35,0.135,0.683,0.262,0.981c-0.054,0.112-0.1,0.229-0.142,0.349c-0.252,0.533-0.355,1.15-0.245,1.673
					c0.003,0.264,0.021,0.533,0.054,0.805C367.809,137.1,367.734,136.81,367.669,136.516z M369.367,136.965
					c-0.045-0.256-0.124-0.795-0.099-1.284c0.008-0.151,0.026-0.297,0.057-0.429c0.047-0.199,0.125-0.364,0.25-0.464
					c-0.019-0.04-0.035-0.083-0.054-0.124c0.28-0.156,0.671-0.053,1.071,0.151c0.391,0.38,0.72,0.885,0.994,1.419
					c0.075,0.145,0.146,0.292,0.213,0.44c0.25,0.55,0.447,1.1,0.601,1.545c0.212,0.615,0.612,2.8,0.022,3.43
					c-0.038,0.041-0.079,0.076-0.125,0.103c-0.05,0.028-0.105,0.047-0.165,0.058c-0.204,0.038-0.467-0.029-0.809-0.243
					C370.028,140.756,369.608,138.341,369.367,136.965z M375.35,145.211c0.117-0.363-0.008-0.769-0.003-1.145
					c0.007-0.461,0.043-0.92,0.045-1.381c0.001-0.24-0.324-0.356-0.456-0.14c-0.216,0.354-0.476,0.968-0.542,1.548
					c-0.292-1.058-0.299-2.239-0.026-3.116c0.03-0.098-0.048-0.213-0.15-0.219c0.014-0.315-0.003-0.628-0.041-0.918
					c0.811,1.093,1.383,2.145,1.712,3.578c0.18,0.784,0.209,1.58,0.01,2.36c-0.104,0.409-0.108,0.531-0.374,0.297
					c-0.216-0.189-0.404-0.422-0.568-0.679C375.116,145.448,375.293,145.388,375.35,145.211z M371.688,149.039
					c-0.008-0.007-0.016-0.017-0.024-0.025c-0.293-0.282-0.567-0.646-0.8-1.057c-0.451-0.793-0.738-1.756-0.675-2.637
					c0.027-0.371,0.118-0.726,0.285-1.048c0.141-0.271,0.33-0.522,0.59-0.732c0.257-0.208-0.003-0.559-0.278-0.518
					c-0.284,0.043-0.522,0.08-0.733,0.151c-0.221-0.555-0.449-1.106-0.676-1.658c0.255,0.391,0.526,0.738,0.807,1.01
					c0.633,0.613,1.546,0.859,2.375,0.639c0.466,1.616,0.764,3.318,0.476,4.926c-0.045,0.25-0.1,0.494-0.173,0.703
					c-0.053,0.096-0.103,0.196-0.152,0.301c-0.009,0.019-0.015,0.04-0.024,0.06C372.481,149.445,372.174,149.497,371.688,149.039z
					 M378.034,150.769c0.494-0.303,0.409-0.768,0.454-1.301c0.05-0.598,0.036-1.17,0.013-1.755c0.088,0.321,0.143,0.618,0.171,0.787
					c0.153,0.934,0.205,2.663-0.921,3.034c-0.32-0.481-0.816-0.825-1.342-0.943c-0.058-0.325-0.132-0.636-0.22-0.926
					c0.031-0.1,0.045-0.205,0.04-0.313c0.201-0.297,0.267-0.784,0.257-1.092c0,0,0-0.001,0-0.002
					c0.132-0.445,0.291-0.892,0.451-1.314c0.081-0.213,0.262-0.634,0.507-0.646c0.303-0.015,0.54,0.218,0.722,0.544
					c-0.122,0.012-0.239,0.096-0.261,0.261c-0.093,0.693-0.31,1.377-0.427,2.07c-0.099,0.584-0.285,1.19,0.238,1.585
					C377.798,150.822,377.944,150.824,378.034,150.769z M374.388,147.455c0.015-0.302,0.016-0.604-0.011-0.907
					c0.328,0.392,0.725,0.685,1.195,0.759c0.083,0.013,0.161,0.017,0.236,0.016c0,0.138,0.01,0.276,0.025,0.414
					c-0.054,0.081-0.098,0.172-0.136,0.264C375.368,147.63,374.866,147.385,374.388,147.455z M371.822,150.611
					c0.08,0.024,0.159,0.042,0.237,0.055c0.019,0.58,0.062,1.156,0.109,1.73c-0.105-0.009-0.218,0.012-0.325,0.039
					C371.862,151.828,371.858,151.219,371.822,150.611z M372.356,150.687c0,0.004,0,0.008-0.001,0.012
					c-0.002-0.004-0.004-0.008-0.006-0.011C372.351,150.686,372.353,150.687,372.356,150.687z M373.515,151.339
					c-0.013-0.477,0.035-0.946,0.155-1.402c0.132-0.179,0.248-0.387,0.341-0.623c0.039-0.098,0.068-0.198,0.101-0.298
					c0.064-0.08,0.126-0.162,0.175-0.252c0.015-0.027,0.027-0.055,0.041-0.083l0,0c0.392-0.027,0.654-0.06,0.832,0.306
					c0.026,0.054,0.05,0.109,0.073,0.164c0.085,0.487,0.135,1.048,0.164,1.518c0.012,0.197,0.021,0.375,0.028,0.527
					c0.008,0.191,0.013,0.342,0.017,0.417c0.004,0.083,0.009,0.173,0.013,0.267c0.027,0.523,0.053,1.171-0.153,1.609
					c-0.079,0.168-0.511,1.215-0.779,1.077c-0.056-0.029-0.109-0.064-0.159-0.105c-0.076-0.062-0.144-0.139-0.207-0.224
					c-0.11-0.148-0.201-0.327-0.276-0.525C373.587,152.937,373.53,151.883,373.515,151.339z M367.02,171.478
					c0.149-0.046,0.297-0.106,0.443-0.179c0.017,0.159,0.037,0.305,0.062,0.439c-0.055,0.331-0.129,0.66-0.223,0.981
					c-0.229,0.785-0.567,1.528-0.998,2.161c-0.759,1.114-0.925-0.226-0.883-1.084c0.011-0.025,0.023-0.049,0.034-0.075
					c0.193-0.469,0.306-0.974,0.395-1.479c0.113-0.247,0.244-0.48,0.393-0.696C366.489,171.59,366.754,171.559,367.02,171.478z
					 M368.388,172.5c0.164-0.636,0.323-1.422,0.322-2.166c0.313-0.342,0.572-0.718,0.787-1.123c0.076,0.514,0.218,1.011,0.461,1.44
					c0.04,0.07,0.084,0.133,0.129,0.191c-0.204,0.378-0.443,0.737-0.728,1.062C369.126,172.169,368.672,172.601,368.388,172.5z
					 M370.827,170.192c-0.096-0.094-0.18-0.262-0.253-0.509c-0.013-0.043-0.026-0.087-0.038-0.135
					c-0.216-0.841-0.185-1.625-0.038-2.39c0.517-0.111,1.037-0.422,1.446-0.803c0.292-0.272,0.518-0.592,0.705-0.937
					c0.063,0.152,0.134,0.291,0.214,0.42c-0.21,1.341-0.434,2.694-1.179,3.835c-0.163,0.249-0.308,0.42-0.439,0.516
					C371.084,170.307,370.946,170.309,370.827,170.192z M369.751,165.789c-0.111-0.209-0.182-0.48-0.224-0.746
					c-0.047-0.295-0.058-0.579-0.053-0.75c0.036-1.158,0.962-1.737,1.793-2.373c0.322-0.246,0.835-0.683,0.848-1.154
					c0.058-0.045,0.113-0.097,0.166-0.154c0.105,0.207,0.227,0.4,0.365,0.577c0.027,1.018-0.26,2.059-0.603,3.001
					c-0.256,0.702-0.616,1.26-1.212,1.689c-0.071,0.051-0.143,0.101-0.22,0.148c-0.091,0.055-0.172,0.084-0.249,0.103
					c-0.069,0.016-0.134,0.021-0.193,0.012c-0.148-0.023-0.268-0.117-0.362-0.257c0.007-0.111,0.013-0.222,0.018-0.332
					C369.798,165.631,369.773,165.709,369.751,165.789z M373.22,164.728c-0.02-0.076-0.037-0.153-0.053-0.232
					c-0.001-0.009-0.002-0.017-0.004-0.026c0-0.001-0.002-0.001-0.002-0.002c-0.015-0.074-0.027-0.15-0.04-0.226
					c0.14-0.488,0.236-0.991,0.316-1.472c0.035-0.211,0.071-0.539,0.072-0.892c1.039,0.353,1.577-1.298,1.744-2.135
					c0.367,0.448,0.606,1.121,0.592,1.521c-0.036,1.014-0.472,2.083-0.894,2.993c-0.21,0.453-0.527,0.823-0.896,1.155
					C373.517,165.895,373.323,165.112,373.22,164.728z M373.787,160.743c-0.011,0.012-0.016,0.016-0.024,0.024
					c-0.041-0.036-0.116-0.105-0.156-0.151c-0.308-0.352-0.506-0.853-0.631-1.358c0.214-0.694,0.316-1.417,0.353-1.786
					c0.072-0.729,0.092-1.541,0.047-2.373c0.131,0.163,0.278,0.299,0.442,0.4c0.021,0.087,0.111,0.127,0.185,0.098
					c0.049,0.02,0.099,0.038,0.15,0.052c0.393,0.395,0.408,1.341,0.411,1.785c0.003,0.389-0.054,0.757-0.125,1.125
					c-0.011,0.058-0.022,0.116-0.034,0.175c-0.016-0.008-0.031-0.014-0.047-0.022c-0.035-0.018-0.089,0.018-0.062,0.058
					c0.026,0.039,0.055,0.07,0.081,0.106c-0.009,0.043-0.018,0.087-0.027,0.13c-0.021,0.1-0.042,0.2-0.062,0.302
					c-0.001,0.005-0.002,0.011-0.003,0.016C374.197,159.77,374.094,160.387,373.787,160.743z M375.392,158.749
					c0.054-0.574,0.056-1.143-0.047-1.735c-0.108-0.626-0.35-1.051-0.78-1.321c1.491-0.053,2.027-1.833,1.985-3.681
					c0.134,0.091,0.28,0.163,0.434,0.215c0.619,0.906,0.598,2.402,0.566,3.349c-0.047,1.39-0.521,3.201-1.807,3.42
					C375.636,158.903,375.521,158.818,375.392,158.749z M370.429,157.01c-0.001-0.053-0.005-0.106-0.005-0.158
					c-0.002-0.621,0.168-1.162,0.411-1.672c-0.087,0.431-0.181,0.861-0.252,1.294c-0.051,0.315-0.133,0.649-0.129,0.97
					C370.442,157.299,370.433,157.155,370.429,157.01z M370.685,158.605c-0.029-0.083-0.05-0.168-0.073-0.252
					c-0.057-0.204-0.097-0.411-0.126-0.619c0.026,0.119,0.068,0.235,0.138,0.345c0.106,0.168,0.315,0.169,0.434,0.015
					c0.306-0.398,0.263-0.913,0.304-1.393c0.05-0.58,0.084-1.152,0.032-1.733c-0.014-0.156-0.171-0.266-0.307-0.262
					c0.215-0.373,0.452-0.736,0.688-1.103c0.036-0.056,0.069-0.115,0.105-0.171c0.048-0.019,0.096-0.038,0.144-0.059
					c-0.113,0.05,0.096-0.033,0.125-0.044c0.031-0.011,0.062-0.022,0.092-0.033c0.072,0.879,0.133,1.755,0.118,2.632
					c-0.007,0.422-0.034,0.846-0.084,1.269c-0.014,0.118-0.028,0.236-0.046,0.354c-0.048,0.32-0.111,0.642-0.194,0.965
					c-0.024,0.251-0.108,0.446-0.249,0.591c-0.166,0.171-0.412,0.269-0.742,0.29C370.892,159.149,370.772,158.885,370.685,158.605z
					 M367.448,161.922c0.004-0.029,0.012-0.053,0.014-0.083c0.001-0.006,0-0.012,0.001-0.018c0.043-0.491,0.005-0.975,0.128-1.458
					c0.145-0.568,0.572-0.809,1.04-0.82c0.243-0.005,0.494,0.053,0.726,0.161c0.198,0.093,0.378,0.22,0.522,0.379
					c0.025-0.053,0.048-0.109,0.072-0.162c0.029,0.046,0.061,0.089,0.092,0.133c0.058,0.083,0.12,0.162,0.185,0.235
					c0.155,0.177,0.327,0.328,0.519,0.446c-0.692,0.509-1.424,1.268-1.6,1.444c-0.591,0.592-0.843,1.437-0.834,2.286
					c-0.066,0.006-0.132,0.021-0.198,0.04c0.008-0.021,0.016-0.041,0.024-0.062c0.031-0.089,0.056-0.181,0.075-0.274
					c0.136-0.341,0.151-0.689,0.069-1.021c-0.067-0.274-0.202-0.535-0.383-0.771C367.772,162.21,367.62,162.057,367.448,161.922z
					 M365.689,166.866c-0.133-0.087-0.246-0.206-0.344-0.346c-0.137-0.196-0.24-0.431-0.321-0.672
					c-0.096-0.285-0.162-0.577-0.207-0.816c-0.148-0.776-0.076-1.636,0.52-2.206c0.376-0.361,0.809-0.442,1.189-0.346
					c0.138,0.035,0.269,0.094,0.387,0.173c0,0.045-0.001,0.09-0.002,0.135c0.019-0.033,0.039-0.065,0.058-0.098
					c0.063,0.047,0.122,0.098,0.176,0.155c0.104,0.111,0.188,0.24,0.249,0.383c-0.007,0.055-0.009,0.114-0.002,0.183
					c0.053,0.497-0.037,0.978-0.282,1.414c-0.141,0.251-0.334,0.505-0.349,0.768c-0.223,0.278-0.41,0.553-0.535,0.753
					c-0.111,0.178-0.223,0.37-0.332,0.57C365.826,166.92,365.758,166.911,365.689,166.866z M367.197,166.748
					c0.301-0.498,0.655-1.009,1.113-1.375c0.033-0.026,0.065-0.05,0.097-0.072c0.076,0.358,0.197,0.703,0.357,1.011
					c0.116,0.225,0.254,0.396,0.404,0.531c-0.014,0.124-0.03,0.246-0.054,0.365c-0.121,0.614-0.346,1.208-0.678,1.737
					c-0.104,0.166-0.218,0.326-0.344,0.478c-0.005,0.006-0.013,0.015-0.019,0.022c-0.102,0.121-0.243,0.276-0.404,0.429
					c-0.017-0.011-0.035-0.023-0.052-0.033c-0.005-0.003-0.009-0.006-0.014-0.009c0.006,0.029,0.012,0.059,0.017,0.087
					c-0.046,0.043-0.093,0.084-0.141,0.125c-0.02,0-0.041,0.002-0.062,0.004c-0.082,0.005-0.164,0.016-0.245,0.038
					c-0.218,0.06-0.43,0.183-0.633,0.353c-0.059-0.022-0.112-0.062-0.159-0.119c-0.051-0.062-0.094-0.149-0.126-0.262
					c-0.011-0.038-0.023-0.073-0.031-0.119c0.022-0.085,0.018-0.15-0.018-0.187c-0.004-0.035-0.008-0.07-0.01-0.105
					C366.133,168.618,366.687,167.593,367.197,166.748z M361.25,171.786c-0.044-0.783,0.277-1.585,0.639-2.261
					c0.341-0.637,0.788-1.269,1.41-1.658c0.172-0.107,0.335-0.12,0.489-0.082c-0.859,1.338-1.712,2.68-2.532,4.039
					C361.254,171.811,361.25,171.8,361.25,171.786z M363.302,170.939c0.675-1.041,1.364-2.074,2.048-3.109
					c0.031,0.015,0.063,0.027,0.094,0.04c-0.374,0.953-0.546,1.999-0.126,2.898c0.017,0.037,0.038,0.067,0.056,0.1
					c-0.063,0.132-0.116,0.266-0.159,0.405c-0.123,0.2-0.238,0.412-0.344,0.631c0.042-0.218,0.065-0.439,0.081-0.663
					c0.008-0.116-0.01-0.276-0.066-0.379c-0.068-0.127-0.254-0.188-0.298-0.326c-0.006-0.018-0.027-0.018-0.034-0.001
					c-0.069,0.164-0.264,0.157-0.357,0.303c-0.011,0.018-0.018,0.04-0.028,0.059c-0.001,0.003-0.006,0.002-0.006,0.006
					c0,0.001,0.002,0.001,0.002,0.002c-0.108,0.213-0.14,0.482-0.204,0.706c-0.082,0.287-0.157,0.568-0.266,0.848
					c-0.1,0.259-0.066,0.559-0.13,0.827c-0.032,0.133,0.101,0.267,0.233,0.193c0.306-0.173,0.517-0.349,0.679-0.573
					c-0.127,0.409-0.216,0.819-0.249,1.209c-0.185,0.304-0.407,0.577-0.676,0.801c-0.102,0.084-0.212,0.16-0.328,0.229
					c-0.092,0.055-0.189,0.105-0.29,0.149c-0.013-0.028-0.027-0.055-0.039-0.082C362.273,173.775,362.672,172.318,363.302,170.939z
					 M360.282,176.05c-0.002-0.328,0.017-0.655,0.054-0.972c0.061-0.531,0.352-1.022,0.685-1.497
					c0.159,0.101,0.341,0.156,0.544,0.149c0.005,0,0.01,0,0.015,0c0.025,0.816,0.213,1.595,0.591,2.266
					c-0.05,0.193-0.091,0.384-0.127,0.574c-0.169-0.536-0.65-1.042-0.988-1.477c-0.027-0.035-0.071-0.004-0.076,0.028
					c-0.147,0.862,0.291,1.712,0.561,2.507c0.045,0.135,0.193,0.152,0.281,0.047c0.047-0.056,0.087-0.113,0.121-0.169
					c-0.002,0.103-0.005,0.205,0.001,0.307c-0.549,0.586-1.204,0.533-1.501-0.504C360.325,176.903,360.285,176.477,360.282,176.05z
					 M364.277,175.552c-0.092,1.205-0.242,2.4-1.077,3.158c-0.058-0.115-0.105-0.237-0.149-0.361
					c-0.009-0.1-0.025-0.199-0.041-0.297c0.391-0.609,0.644-1.358,0.688-2.049C363.911,175.873,364.101,175.719,364.277,175.552z
					 M358.16,181.553c-0.056-0.04-0.112-0.08-0.166-0.119c0.403-1.133,0.837-2.251,1.31-3.343c0.048-0.111,0.102-0.219,0.152-0.329
					c0.093,0.298,0.224,0.57,0.392,0.803c-0.088,0.283,0.02,0.537,0.095,0.815c0.102,0.382-0.026,0.908-0.081,1.291
					c-0.007,0.046-0.018,0.091-0.027,0.137c-0.112,0.305-0.243,0.598-0.392,0.873c-0.048,0.087-0.092,0.177-0.143,0.26
					c-0.06,0.098-0.149,0.226-0.255,0.36c-0.042,0.053-0.087,0.107-0.134,0.16c-0.087-0.134-0.188-0.254-0.296-0.367
					C358.52,181.887,358.361,181.697,358.16,181.553z M362.195,178.934c0.004,0.008,0.006,0.016,0.01,0.025
					c-0.154,0.859-0.467,1.69-0.896,2.36c-0.085-0.47-0.21-0.907-0.368-1.294c0.037-0.248,0.063-0.513,0.058-0.762
					C361.427,179.319,361.834,179.189,362.195,178.934z M360.403,182.09c-0.001,0.015-0.002,0.029-0.003,0.043
					c-0.013,0.172-0.03,0.344-0.049,0.515c-0.02,0.172-0.042,0.345-0.068,0.516c-0.05,0.33-0.11,0.659-0.183,0.985
					c-0.004,0.016-0.006,0.033-0.01,0.049c-0.005,0.023-0.013,0.051-0.022,0.081c-0.014,0.048-0.032,0.105-0.055,0.168
					c-0.125,0.354-0.37,0.901-0.654,1.243c0.085-0.441,0.119-0.895,0.098-1.338c-0.001-0.015-0.001-0.029-0.002-0.044
					c-0.001-0.013-0.001-0.027-0.002-0.041c-0.019-0.296-0.064-0.586-0.136-0.86c0.031-0.03,0.058-0.061,0.088-0.092
					C359.864,183.042,360.181,182.595,360.403,182.09z M356.288,187.3c-0.149-0.2-0.258-0.48-0.331-0.731
					c-0.048-0.164-0.081-0.316-0.101-0.423c-0.089-0.492-0.092-0.967-0.126-1.441c0.016-0.366,0.055-0.73,0.121-1.087
					c0.104-0.566,0.317-1.564,1.031-1.6c0.329-0.017,0.861,0.243,1.224,0.549c0.058,0.145,0.113,0.292,0.154,0.446
					c0.043,0.162,0.08,0.328,0.105,0.497c0.027,0.178,0.043,0.358,0.051,0.538c0.02,0.436-0.013,0.873-0.095,1.283
					c-0.046,0.229-0.106,0.448-0.181,0.655c-0.02,0.057-0.041,0.114-0.063,0.168c-0.025,0.06-0.052,0.117-0.08,0.173
					c-0.012,0.024-0.022,0.051-0.034,0.075c-0.057,0.111-0.12,0.218-0.19,0.322c-0.026-0.025-0.051-0.051-0.077-0.078
					c0.01,0.047,0.02,0.094,0.03,0.141c-0.191,0.271-0.423,0.51-0.705,0.685C356.71,187.667,356.469,187.542,356.288,187.3z
					 M360.132,186.705c-0.017,0.065-0.035,0.129-0.053,0.192c-0.003-0.045-0.003-0.089-0.008-0.134
					C360.091,186.744,360.112,186.725,360.132,186.705z M358.12,188.106c0.091-0.077,0.177-0.165,0.26-0.259
					c0.139-0.156,0.267-0.334,0.382-0.528c0.01-0.017,0.02-0.034,0.03-0.051c0.234,0.026,0.474-0.021,0.719-0.13
					c-0.259,0.533-0.569,1.053-0.792,1.583c-0.146,0.348-0.324,0.686-0.584,0.964c-0.265,0.283-0.477-1.006-0.478-1.109
					c-0.001-0.052-0.01-0.099-0.022-0.143c0.111-0.059,0.221-0.125,0.327-0.204C358.016,188.19,358.069,188.15,358.12,188.106z
					 M355.502,191.897c-0.042-0.037-0.076-0.083-0.115-0.124c-0.007-0.06-0.02-0.125-0.039-0.196
					c-0.064-0.24-0.266-0.393-0.438-0.557c-0.277-0.264-0.312-0.72-0.372-1.074c-0.106-0.63,0.307-1.817,1.062-1.65
					c0.017,0.004,0.034,0.002,0.051,0.003c0.121,0.099,0.247,0.184,0.379,0.244c0.203,0.092,0.415,0.132,0.632,0.136
					c0.036,0.443,0.21,1.07,0.502,1.532c0.09,0.316,0.238,0.592,0.475,0.757c-0.013,0.03-0.024,0.06-0.038,0.09
					c-0.114,0.237-0.266,0.465-0.451,0.66c-0.049,0.052-0.1,0.101-0.154,0.146c-0.093,0.079-0.193,0.148-0.3,0.207
					c-0.071,0.039-0.144,0.075-0.221,0.103C356.112,192.307,355.781,192.147,355.502,191.897z M358.73,191.034
					c0.032-0.012,0.064-0.024,0.095-0.039c0.065,0.239,0.127,0.478,0.177,0.718c0.171,0.819,0.351,2.231-0.103,3.011
					c-0.036,0.062-0.515-0.403-1.022-0.928c-0.046-0.392-0.109-0.757-0.213-1.093C358.232,192.27,358.553,191.68,358.73,191.034z
					 M355.521,196.419c-0.149-0.069-0.575-0.246-0.669-0.341c-0.302-0.304-0.434-0.831-0.571-1.221
					c-0.193-0.549-0.302-1.655,0.474-1.72c0.037-0.003,0.074-0.004,0.111-0.006c0,0.002,0,0.004,0.001,0.006
					c0.002-0.003,0.003-0.004,0.005-0.006c0.147-0.006,0.291-0.004,0.434-0.004c0.004,0.027,0.005,0.057,0.004,0.091l0.003-0.091
					c0.054-0.001,0.107-0.002,0.161-0.004c0.089,0.032,0.179,0.063,0.271,0.082c0.313,0.064,0.638,0.052,0.958-0.029
					c0.072,0.215,0.157,0.445,0.256,0.679c0.007,0.06,0.013,0.12,0.019,0.181c0.002,0.019,0.004,0.038,0.006,0.057
					c0.003,0.035,0.006,0.07,0.009,0.105c0.045,0.547,0.035,1.096-0.133,1.617c-0.068,0.212-0.167,0.413-0.29,0.597
					c-0.05,0.074-0.109,0.141-0.168,0.208C356.153,196.526,355.878,196.584,355.521,196.419z M357.179,197.264
					c0.421-0.514,0.63-1.077,0.717-1.667c0.021,0.051,0.043,0.102,0.062,0.15c0.264,0.662,0.415,1.36,0.391,2.076
					c-0.01,0.295-0.087,0.851-0.483,0.722c-0.106-0.035-0.209-0.095-0.31-0.165c-0.099-0.226-0.205-0.447-0.308-0.659
					c-0.055-0.115-0.112-0.232-0.168-0.348C357.114,197.337,357.147,197.303,357.179,197.264z M356.466,201.64
					c-0.109-0.038-0.226-0.115-0.353-0.24c-0.075-0.075-0.136-0.16-0.202-0.241c-0.04-0.049-0.085-0.094-0.122-0.146
					c-0.096-0.134-0.179-0.277-0.254-0.424c-0.037-0.016-0.075-0.031-0.115-0.044c-0.073-0.023-0.149-0.043-0.225-0.062
					c-0.086-0.021-0.17-0.042-0.251-0.066c-0.083-0.024-0.161-0.05-0.229-0.085c-0.049-0.025-0.094-0.057-0.139-0.087
					c-0.219-0.147-0.394-0.346-0.521-0.578c-0.265-0.484-0.255-1.148,0.027-1.62c0.091-0.152,0.205-0.253,0.333-0.323
					c0.233-0.128,0.515-0.15,0.802-0.162c0.077,0.014,0.155,0.025,0.233,0.034c0.255,0.161,0.54,0.234,0.824,0.2
					c0.066,0.489,0.315,0.944,0.647,1.276c0.204,0.66,0.285,1.328,0.112,2.053c-0.001,0.004-0.003,0.008-0.004,0.012
					c-0.046,0.185-0.109,0.316-0.187,0.404C356.741,201.66,356.613,201.692,356.466,201.64z M354.58,204.237
					c-0.24-0.478-0.339-1.022-0.303-1.588c0.016-0.245,0.054-0.493,0.121-0.744c0.139-0.019,0.276-0.043,0.411-0.075
					c0.159-0.037,0.313-0.093,0.465-0.159c0.06,0.109,0.126,0.217,0.205,0.32c0.024,0.032,0.053,0.059,0.08,0.089
					c-0.487,0.633-0.8,1.557-0.82,2.426C354.681,204.419,354.627,204.33,354.58,204.237z M356.257,205.838
					c0.022-0.068-0.008-0.151-0.088-0.184c-0.044-0.018-0.085-0.039-0.126-0.059c-0.015-0.021-0.031-0.041-0.045-0.063
					c-0.595-0.913-0.026-2.04,0.3-2.99c0.091,0.023,0.184,0.037,0.278,0.04c0.344,0.942,1.016,1.78,0.935,2.877
					C357.445,206.345,356.752,206.296,356.257,205.838z M357.336,210.052c-0.082-0.028-0.16-0.064-0.237-0.105
					c-0.085-0.093-0.2-0.183-0.354-0.261c-0.029-0.015-0.057-0.033-0.086-0.048c-0.054-0.046-0.109-0.093-0.162-0.144
					c-0.285-0.266-0.566-0.575-0.893-0.845c-0.023-0.019-0.049-0.026-0.075-0.027c-0.026-0.001-0.051,0.008-0.075,0.02
					c-0.034-0.047-0.073-0.088-0.104-0.138c-0.445-0.717,0.055-1.159,0.413-1.696c0.533,0.456,1.216,0.734,1.857,0.519
					c0.088,0.263,0.161,0.515,0.214,0.667c0.231,0.659,0.377,1.368,0.401,2.071C357.888,210.16,357.597,210.141,357.336,210.052z
					 M363.188,217.749c-1.777-1.542-3.41-3.339-4.705-5.304c-0.273-0.414-0.506-0.851-0.712-1.302
					c0.41-0.034,0.821-0.162,1.182-0.318c0.148-0.064,0.253-0.25,0.253-0.407c-0.002-0.939-0.24-1.855-0.617-2.711
					c-0.114-0.258-0.254-0.49-0.417-0.708c0.246-0.234,0.378-0.53,0.434-0.853c0.188-0.797-0.073-1.718-0.35-2.441
					c-0.021-0.054-0.046-0.107-0.067-0.161c-0.124-0.375-0.282-0.773-0.489-1.108c-0.053-0.111-0.104-0.223-0.158-0.333
					c0.494-0.637,0.489-1.69,0.41-2.41c-0.004-0.034-0.011-0.069-0.016-0.103c0.471,0.041,0.938-0.196,1.247-0.871
					c0.384-0.838,0.106-2.054-0.228-2.856c-0.021-0.051-0.046-0.097-0.068-0.146c0.146-0.011,0.296-0.043,0.455-0.115
					c0.801-0.367,0.714-1.789,0.695-2.471c-0.026-0.901-0.207-1.819-0.532-2.678c0.426-0.491,0.732-1.149,0.96-1.645
					c0.35-0.763,0.862-2.584,0.635-3.711c0.236-0.708,0.349-1.505,0.347-2.298c0.71-0.641,1.267-1.733,1.503-2.878
					c0.125,0.03,0.262,0.021,0.364-0.042c1.089-0.677,1.674-2.14,1.861-3.649c0.174,0.073,0.374,0.12,0.604,0.136
					c1.255,0.091,1.979-1.746,2.344-2.92c0.573,0.166,1.192-0.174,1.639-0.595c0.465-0.438,0.827-0.995,1.1-1.586
					c0.402,0.023,0.828-0.185,1.163-0.541c1.185-1.261,1.42-2.809,1.342-4.385c0.908,0.4,2.063-1.219,2.363-1.844
					c0.542-1.131,1.491-3.232,0.789-4.48c-0.084-0.149-0.171-0.292-0.262-0.428c0.694-0.191,1.351-0.767,1.749-1.492
					c0.875-1.595,0.709-4.115,0.089-5.841c1.319-0.394,1.57-2.334,1.508-3.512c-0.066-1.246-0.545-3.274-2.049-3.498
					c-0.172-0.026-0.335-0.009-0.487,0.036c0.051-1.587-0.541-3.73-1.526-5.043c1.359-0.423,1.512-2.421,1.274-3.714
					c-0.386-2.091-1.802-4.633-3.886-5.41c-0.207-0.077-0.457,0.027-0.57,0.21c-0.077,0.124-0.149,0.259-0.217,0.401
					c-0.241-0.501-0.606-1.046-1.059-1.421c1.156-0.787,2.406-1.45,3.43-2.051c3.243-1.903,6.664-2.292,10.076-1.273
					c6.268,4.708,8.379,14.375,8.562,21.636c0.127,5.077-0.707,9.819-2.745,14.462c-2.175,4.955-4.762,9.894-8.368,13.968
					c-3.179,3.592-6.516,7.098-9.118,11.148c-1.257,1.957-2.23,4.087-3.004,6.276c-0.761,2.154-1.502,4.201-1.354,6.516
					c0.246,3.841,2.047,8.475,5.223,10.803c2.901,2.126,6.786,2.614,10.219,1.787c0.328-0.079,0.646-0.177,0.959-0.284
					c0.037,0.115,0.081,0.228,0.132,0.338c0.449,0.95,1.494,1.105,2.353,0.624c0.669-0.374,1.205-0.987,1.523-1.676
					c0.09-0.196,0.167-0.392,0.222-0.592c0.748,0.247,1.636,0.016,2.3-0.478c0.865-0.644,1.591-1.621,1.609-2.725
					c0.051-0.023,0.101-0.04,0.152-0.069c0.66-0.362,1.091-1.072,1.306-1.771c0.132-0.432,0.15-0.925,0.054-1.363
					c0.144-0.042,0.283-0.107,0.399-0.199c0.58-0.459,0.717-1.293,0.724-1.988c0.005-0.496-0.176-1.399-0.54-2.071
					c0.215-0.361,0.34-0.814,0.344-1.248c0.01-1.1-0.379-2.749-1.3-3.455c-0.031-0.023-0.064-0.039-0.097-0.046
					c-0.144-1.073-0.704-2.075-1.729-2.315c-0.501-0.117-0.996-0.024-1.432,0.199c-0.347-0.654-1.059-1.121-1.733-1.366
					c-0.659-0.24-1.454-0.262-2.025,0.178c-0.026-0.019-0.063-0.023-0.092,0.006c-0.203,0.209-0.348,0.451-0.441,0.711
					c-3.493-0.303-6.723,1.8-7.675,5.481c-0.508,1.965-0.45,4.282,1.371,5.509c1.466,0.988,2.999,0.16,4.038-0.961
					c0.121-0.021,0.238-0.089,0.325-0.222c0.072-0.04,0.145-0.08,0.217-0.12c-0.464,2.549-2.392,4.013-5.211,3.455
					c-1.005-0.199-1.833-0.626-2.496-1.211c0.368-1.077,0.034-2.985-0.92-3.757c-0.008-0.314-0.085-0.614-0.213-0.89
					c0.619-0.323,0.933-1.068,0.94-1.745c0.004-0.409-0.123-0.847-0.443-1.048c0.097-0.074,0.185-0.165,0.259-0.26
					c0.556-0.707,0.944-1.89,0.663-2.776c-0.029-0.092-0.094-0.151-0.177-0.169c0.079-0.193,0.142-0.392,0.176-0.596
					c0.619,0.067,1.256-0.458,1.519-1.082c0.304-0.722,0.401-1.834,0.103-2.686c0.382-0.318,0.79-0.615,1.234-0.88
					c4.538-2.705,9.869-0.811,13.209,2.789c3.466,3.736,4.429,8.911,3.586,13.812c-0.855,4.967-3.676,9.46-7.494,12.685
					c-3.778,3.193-8.606,4.19-13.447,3.859C371.424,222.842,366.829,220.908,363.188,217.749z"/>
			</g>
		</g>
	</g>
</g>
</svg>
