<?xml version="1.0" encoding="iso-8859-1"?>
<!-- Generator: Adobe Illustrator 21.0.2, SVG Export Plug-In . SVG Version: 6.00 Build 0)  -->
<svg version="1.1" id="Layer_1" xmlns="http://www.w3.org/2000/svg" xmlns:xlink="http://www.w3.org/1999/xlink" x="0px" y="0px"
	 viewBox="0 0 1280 520.402" style="enable-background:new 0 0 1280 520.402;" xml:space="preserve">
<polygon style="fill:#BC1919;" points="713.319,193.502 961.67,306.742 451.889,235.054 "/>
<polygon style="fill:#BC1919;" points="64.451,195.155 158.968,270.418 346.252,233.662 "/>
<path style="fill:#DBDBDA;" d="M723.696,100.6c1.05,0,1.901-0.851,1.901-1.901c0-2.561,2.083-4.644,4.644-4.644
	c2.561,0,4.644,2.083,4.644,4.644c0,1.05,0.851,1.901,1.901,1.901c1.05,0,1.901-0.851,1.901-1.901c0-4.658-3.789-8.447-8.447-8.447
	c-4.658,0-8.447,3.789-8.447,8.447C721.795,99.749,722.646,100.6,723.696,100.6z"/>
<path style="fill:#DBDBDA;" d="M711.259,84.515c1.05,0,1.901-0.851,1.901-1.901c0-2.561,2.083-4.644,4.644-4.644
	s4.644,2.083,4.644,4.644c0,1.05,0.851,1.901,1.901,1.901c1.05,0,1.901-0.851,1.901-1.901c0-4.658-3.789-8.447-8.447-8.447
	s-8.447,3.789-8.447,8.447C709.358,83.664,710.21,84.515,711.259,84.515z"/>
<path style="fill:#DBDBDA;" d="M665.689,151.854c0.721,0.591,1.845,0.411,2.51-0.401c1.623-1.981,4.374-2.42,6.131-0.98
	c1.758,1.441,1.868,4.224,0.244,6.205c-0.665,0.812-0.621,1.949,0.1,2.54c0.721,0.591,1.845,0.411,2.51-0.401
	c2.952-3.602,2.753-8.665-0.444-11.285c-3.197-2.62-8.199-1.821-11.152,1.782C664.923,150.126,664.968,151.263,665.689,151.854z"/>
<path style="fill:#DBDBDA;" d="M714.691,150.71c0.984-0.367,1.484-1.461,1.118-2.445c-0.894-2.4,0.331-5.079,2.731-5.973
	c2.4-0.894,5.08,0.331,5.974,2.731c0.367,0.984,1.462,1.484,2.445,1.118c0.984-0.367,1.484-1.462,1.118-2.445
	c-1.626-4.365-6.5-6.593-10.864-4.967c-4.365,1.626-6.592,6.5-4.966,10.864C712.613,150.576,713.708,151.076,714.691,150.71z"/>
<rect x="727.343" y="110.735" transform="matrix(0.7071 -0.7071 0.7071 0.7071 133.4197 549.8946)" style="fill:#AEBC5C;" width="6.316" height="6.316"/>
<rect x="710.161" y="83.902" transform="matrix(0.7071 -0.7071 0.7071 0.7071 147.3651 529.892)" style="fill:#AEBC5C;" width="6.316" height="6.317"/>
<rect x="654.438" y="149.312" transform="matrix(0.7071 -0.7071 0.7071 0.7071 84.7962 509.6542)" style="fill:#AEBC5C;" width="6.316" height="6.316"/>
<g>
	<circle style="fill:#6A6E6A;" cx="688.022" cy="107.211" r="62.021"/>
	<circle style="fill:#FFFFFF;" cx="688.022" cy="107.211" r="53.332"/>
	<path style="fill:#1C164B;" d="M624.273,107.211c0-35.151,28.598-63.749,63.749-63.749c35.151,0,63.749,28.598,63.749,63.749
		c0,35.151-28.598,63.749-63.749,63.749C652.871,170.96,624.273,142.362,624.273,107.211z M627.73,107.211
		c0,33.245,27.047,60.292,60.292,60.292c33.245,0,60.292-27.047,60.292-60.292c0-33.245-27.047-60.292-60.292-60.292
		C654.777,46.919,627.73,73.966,627.73,107.211z"/>
	<path style="fill:#DBDBDA;" d="M637.434,113.596c0.918,0.51,2.075,0.179,2.585-0.739c1.243-2.239,4.076-3.049,6.315-1.805
		c2.239,1.243,3.048,4.076,1.805,6.315c-0.51,0.918-0.179,2.076,0.739,2.585c0.918,0.51,2.076,0.179,2.585-0.739
		c2.261-4.072,0.789-9.224-3.283-11.485c-4.072-2.261-9.224-0.788-11.485,3.283C636.185,111.929,636.516,113.087,637.434,113.596z"
		/>
	<path style="fill:#DBDBDA;" d="M661.106,73.315c1.05,0,1.901-0.851,1.901-1.901c0-2.561,2.083-4.644,4.644-4.644
		c2.561,0,4.644,2.083,4.644,4.644c0,1.05,0.851,1.901,1.901,1.901c1.05,0,1.901-0.851,1.901-1.901c0-4.658-3.789-8.447-8.447-8.447
		c-4.657,0-8.447,3.789-8.447,8.447C659.204,72.464,660.056,73.315,661.106,73.315z"/>
	
		<rect x="661.133" y="85.574" transform="matrix(0.7071 -0.7071 0.7071 0.7071 131.8233 495.7139)" style="fill:#AEBC5C;" width="6.316" height="6.317"/>
	
		<rect x="654.805" y="104.053" transform="matrix(0.7071 -0.7071 0.7071 0.7071 116.8993 496.6458)" style="fill:#AEBC5C;" width="6.316" height="6.316"/>
	
		<rect x="692.099" y="134.737" transform="matrix(0.7071 -0.7071 0.7071 0.7071 106.1337 532.0156)" style="fill:#AEBC5C;" width="6.316" height="6.316"/>
	
		<rect x="692.099" y="62.417" transform="matrix(0.7071 -0.7071 0.7071 0.7071 157.2718 510.8332)" style="fill:#AEBC5C;" width="6.316" height="6.316"/>
	<circle style="fill:#597A5E;" cx="688.022" cy="107.211" r="35.15"/>
	<circle style="fill:#232323;" cx="688.022" cy="107.211" r="25.043"/>
	<circle style="fill:#FFFFFF;" cx="684.942" cy="97.38" r="11.436"/>
</g>
<circle style="fill:#6A6E6A;" cx="549.616" cy="124.207" r="62.021"/>
<circle style="fill:#FFFFFF;" cx="549.616" cy="124.207" r="53.332"/>
<path style="fill:#1C164B;" d="M485.867,124.207c0-35.151,28.598-63.749,63.749-63.749c35.151,0,63.749,28.598,63.749,63.749
	c0,35.151-28.598,63.749-63.749,63.749C514.465,187.955,485.867,159.358,485.867,124.207z M489.324,124.207
	c0,33.245,27.047,60.292,60.292,60.292c33.245,0,60.292-27.047,60.292-60.292c0-33.245-27.047-60.292-60.292-60.292
	C516.371,63.915,489.324,90.962,489.324,124.207z"/>
<path style="fill:#DBDBDA;" d="M585.29,119.268c1.05,0,1.901-0.851,1.901-1.901c0-2.561,2.083-4.644,4.644-4.644
	c2.561,0,4.644,2.083,4.644,4.644c0,1.05,0.851,1.901,1.901,1.901c1.05,0,1.901-0.851,1.901-1.901c0-4.658-3.789-8.447-8.447-8.447
	c-4.657,0-8.447,3.789-8.447,8.447C583.389,118.416,584.241,119.268,585.29,119.268z"/>
<path style="fill:#DBDBDA;" d="M499.028,138.95c0.918,0.51,2.075,0.179,2.585-0.739c1.243-2.239,4.076-3.049,6.315-1.805
	c2.239,1.243,3.048,4.076,1.805,6.315c-0.51,0.918-0.179,2.076,0.739,2.585c0.918,0.51,2.075,0.179,2.585-0.739
	c2.261-4.072,0.789-9.224-3.283-11.485s-9.224-0.788-11.485,3.283C497.779,137.283,498.11,138.441,499.028,138.95z"/>
<path style="fill:#DBDBDA;" d="M522.7,90.311c1.05,0,1.901-0.851,1.901-1.901c0-2.561,2.083-4.644,4.644-4.644
	c2.561,0,4.644,2.083,4.644,4.644c0,1.05,0.851,1.901,1.901,1.901c1.05,0,1.901-0.851,1.901-1.901c0-4.658-3.789-8.447-8.447-8.447
	c-4.657,0-8.447,3.789-8.447,8.447C520.799,89.459,521.65,90.311,522.7,90.311z"/>
<path style="fill:#DBDBDA;" d="M572.854,94.824c1.05,0,1.901-0.851,1.901-1.901c0-2.561,2.083-4.644,4.644-4.644
	c2.561,0,4.644,2.083,4.644,4.644c0,1.05,0.851,1.901,1.901,1.901c1.05,0,1.901-0.851,1.901-1.901c0-4.658-3.789-8.447-8.447-8.447
	s-8.447,3.789-8.447,8.447C570.953,93.973,571.804,94.824,572.854,94.824z"/>
<path style="fill:#DBDBDA;" d="M737.909,95.814c-0.927,0.092-1.595,1.014-1.492,2.058c0.252,2.548-1.382,4.804-3.644,5.028
	c-2.262,0.224-4.307-1.667-4.559-4.215c-0.103-1.045-0.939-1.818-1.866-1.726s-1.595,1.014-1.492,2.058
	c0.459,4.635,4.179,8.074,8.292,7.667c4.113-0.407,7.086-4.509,6.627-9.144C739.672,96.495,738.836,95.722,737.909,95.814z"/>
<path style="fill:#DBDBDA;" d="M682.758,157.027c0.984-0.367,1.484-1.461,1.118-2.445c-0.894-2.4,0.331-5.079,2.731-5.973
	c2.4-0.894,5.08,0.331,5.974,2.731c0.367,0.984,1.462,1.484,2.445,1.118c0.984-0.367,1.484-1.462,1.118-2.445
	c-1.626-4.365-6.5-6.593-10.864-4.967c-4.365,1.626-6.592,6.5-4.966,10.864C680.679,156.893,681.774,157.393,682.758,157.027z"/>
<rect x="522.727" y="102.57" transform="matrix(0.7071 -0.7071 0.7071 0.7071 79.2674 402.8243)" style="fill:#AEBC5C;" width="6.316" height="6.317"/>
<rect x="516.399" y="129.407" transform="matrix(0.7071 -0.7071 0.7071 0.7071 58.4344 406.2051)" style="fill:#AEBC5C;" width="6.316" height="6.316"/>
<rect x="558.16" y="166.073" transform="matrix(0.7071 -0.7071 0.7071 0.7071 44.7444 446.4838)" style="fill:#AEBC5C;" width="6.316" height="6.316"/>
<rect x="588.938" y="137.761" transform="matrix(0.7071 -0.7071 0.7071 0.7071 73.7728 459.9436)" style="fill:#AEBC5C;" width="6.316" height="6.316"/>
<rect x="718.637" y="130.27" transform="matrix(0.7071 -0.7071 0.7071 0.7071 117.0561 549.46)" style="fill:#AEBC5C;" width="6.316" height="6.316"/>
<rect x="571.755" y="102.57" transform="matrix(0.7071 -0.7071 0.7071 0.7071 93.6272 437.492)" style="fill:#AEBC5C;" width="6.316" height="6.317"/>
<rect x="553.693" y="79.413" transform="matrix(0.7071 -0.7071 0.7071 0.7071 104.7147 417.9427)" style="fill:#AEBC5C;" width="6.316" height="6.316"/>
<rect x="516.032" y="154.969" transform="matrix(0.7071 -0.7071 0.7071 0.7071 40.257 413.4426)" style="fill:#AEBC5C;" width="6.316" height="6.316"/>
<circle style="fill:#597A5E;" cx="549.616" cy="124.207" r="35.15"/>
<circle style="fill:#232323;" cx="549.616" cy="124.207" r="25.043"/>
<circle style="fill:#FFFFFF;" cx="546.536" cy="114.376" r="11.436"/>
<path style="fill:#F1E2C3;" d="M72.424,260.407c-15.725,1.995-26.924,9.449-24.898,16.575l0.157,0.551
	c2.024,7.119,16.486,11.15,32.155,8.956l395.613-55.366l578.003-80.889c4.156-0.586,7.677-1.866,10.037-3.474
	c2.36-1.608,3.543-3.544,3.006-5.433c-1.074-3.777-8.626-5.968-16.969-4.903l-580.074,73.602L72.424,260.407z"/>
<path style="fill:#DAC5A8;" d="M72.424,260.407c-15.725,1.995-26.924,9.449-24.898,16.575l0.157,0.551
	c2.024,7.119,16.486,11.15,32.155,8.956l395.613-55.366l-5.997-21.096L72.424,260.407z"/>
<path style="fill:#1C164B;" d="M1070.24,140.825c1.33,4.677-5.964,9.655-16.26,11.096L80.379,288.178
	c-8.586,1.202-17.116,0.805-24.019-1.117c-6.904-1.922-11.316-5.129-12.425-9.03l-0.157-0.552
	c-1.109-3.901,1.224-8.008,6.571-11.565c5.346-3.556,13.036-6.117,21.652-7.21l977.091-123.985c1.111-0.141,2.211-0.235,3.294-0.285
	C1061.368,134.019,1069.054,136.65,1070.24,140.825z M79.312,284.801l973.602-136.257c6.236-0.873,10.654-3.888,9.849-6.721
	c-0.806-2.833-6.547-4.495-12.811-3.699L72.861,262.109c-6.596,0.837-12.482,2.797-16.575,5.52c-4.092,2.722-5.879,5.866-5.03,8.853
	l0.157,0.552c0.849,2.986,4.227,5.441,9.511,6.913c3.936,1.096,8.561,1.544,13.381,1.321
	C75.958,285.191,77.634,285.036,79.312,284.801z"/>
<path style="fill:#F1E2C3;" d="M72.424,205.35c-15.725-1.995-26.924-9.449-24.898-16.575l0.157-0.551
	c2.024-7.119,16.486-11.15,32.155-8.956l395.613,55.366l578.003,80.889c4.156,0.586,7.677,1.866,10.037,3.474
	c2.36,1.608,3.543,3.544,3.006,5.433c-1.074,3.777-8.626,5.968-16.969,4.903l-580.074-73.602L72.424,205.35z"/>
<path style="fill:#DAC5A8;" d="M72.424,205.35c-15.725-1.995-26.924-9.449-24.898-16.575l0.157-0.551
	c2.024-7.119,16.486-11.15,32.155-8.956l395.613,55.366l-5.997,21.096L72.424,205.35z"/>
<path style="fill:#1C164B;" d="M1052.385,331.323c-1.083-0.05-2.183-0.144-3.294-0.285L72.001,207.054
	c-8.616-1.093-16.306-3.654-21.652-7.21c-5.346-3.556-7.679-7.663-6.571-11.565l0.157-0.552c1.109-3.901,5.521-7.108,12.425-9.03
	c6.903-1.922,15.433-2.319,24.019-1.117l973.601,136.257c10.296,1.441,17.59,6.419,16.26,11.096
	C1069.054,329.107,1061.368,331.738,1052.385,331.323z M74.306,180.49c-4.82-0.222-9.446,0.226-13.381,1.321
	c-5.285,1.472-8.662,3.927-9.511,6.913l-0.157,0.552c-0.849,2.987,0.938,6.131,5.03,8.853c4.092,2.722,9.979,4.683,16.575,5.52
	l977.09,123.985c6.264,0.796,12.005-0.865,12.811-3.699c0.805-2.834-3.613-5.849-9.849-6.721L79.312,180.956
	C77.634,180.721,75.958,180.566,74.306,180.49z"/>
<g id="Tentacle_7_">
	<g id="Tentacle_8_">
		<polygon style="fill:#8DAD60;" points="1100.174,185.937 1106.931,170.961 1115.463,164.1 1131.1,160.304 1153.389,160.304 
			1189.609,185.937 1193.23,196.176 1195.459,203.594 1189.051,209.392 1177.35,204.769 1175.121,200.019 1173.31,194.58 
			1166.762,193.462 1156.454,186.356 1151.996,189.559 1145.17,186.773 1142.941,184.544 1141.966,181.34 1139.598,185.797 
			1134.583,188.723 1129.568,188.374 1125.667,185.379 1119.956,185.379 1112.991,186.076 1112.433,188.514 1114.662,192.449 
			1114.105,196.576 1110.622,199.336 1106.025,198.348 1101.846,196.809 1099.617,194.298 		"/>
		<path id="Suckers" style="fill:#8DAD60;" d="M827.101,270.007l9.037-24.866l98.341-18.388l84.171,39.911l15.234,14.209
			l27.991,22.359l22.145,6.478l16.087-0.836l16.715,1.881l26.954,5.015h36.359l6.06,1.045l-8.205,7.927l-5.168,9.103l-6.269,3.082
			l-7.314,0.601l-2.585-1.911l-3.683-1.243l-0.209,3.34l-2.716,3.551l-6.06,0.835l-7.313-2.717l-4.806,3.552l-8.358,0.836
			l-5.433-3.97l-5.642,0.836l-6.269,2.09l-11.493-4.597l-4.179,1.672l-9.612-1.045l-4.388-3.761l-3.97-0.418l-7.522,0.418
			l-6.06-0.418c0,0-8.567-3.343-8.567-6.478s-34.896-15.672-34.896-15.672s-22.15,2.299-26.747-15.045
			c0,0-25.702,1.672-22.776-12.746c0,0-16.09,1.881-10.448-11.702c0,0-25.075,2.925-26.12-6.269l-19.642,1.881
			c0,0-9.821,6.06-21.105,3.134l-29.463,12.746l-7.94,1.254l-7.105-2.09L827.101,270.007z"/>
		<polygon style="fill:#8DAD60;" points="1090.284,233.858 1099.06,233.997 1106.304,241.101 1115.498,240.544 1153.946,242.286 
			1158.404,246.082 1155.339,249.86 1146.842,252.655 1141.548,253.913 1133.747,255.587 1127.478,257.26 1118.841,256.982 
			1115.219,252.664 1112.015,252.942 1105.468,252.803 1101.15,249.32 1100.453,245.42 1098.781,243.888 1093.766,243.748 
			1087.776,241.241 1085.408,237.897 1086.523,235.878 		"/>
		<path id="Fill_4_" style="fill:#CAD309;" d="M845.877,285.179c0,0-66.747-54.775-15.973-91.38c0,0,50.069-47.264,142.564-14.202
			c0,0,49.634,18.483,65.772,42.886c0,0,63.39,53.127,82.282,51.553c18.893-1.574,46.455,6.687,65.741-35.034
			c0,0,3.877-12.512-0.388-31.096c0,0,11.417-7.479-4.327-16.138c0,0,1.546-15.709-13.199-15.333c0,0-3.33-11.038-11.989-8.283
			c0,0-10.383-9.601-18.18-2.242c0,0-17.228-5.935-18.219,2.089c-0.992,8.025-0.992,1.333-0.992,1.333s-19.328,2.818-8.877,11.642
			c0,0-17.888,13.941-3.325,18.271c0,0-3.542,37.392,39.753,30.307c0,0,7.356-6.437-0.191-21.108c-0.16-0.311-0.327-0.626-0.5-0.944
			c0,0,9.744-3.925,16.041,7.883c0,0,2.831,19.76-4.33,27.552c0,0-13.382-3.542-15.744,1.968l-5.51,1.968
			c0,0-7.872-4.723-10.234-3.542s-7.178-5.419-13.479-2.504c-6.302,2.915-5.851,0.557-5.851,0.557s-7.435-13.797-17.275-7.5
			c0,0-18.893-20.073-1.968-53.136c0,0,26.371-35.424,66.518-27.945c0,0,68.486,7.085,77.145,75.571c0,0,9.971,56.022-48.019,94.857
			l-5.51,3.149c0,0-1.574-10.758-14.694-3.936c0,0-3.149,0-17.318,2.099l-4.723,3.674l-10.234-3.149l-2.099,0.262l-3.674-4.461
			l-4.723-1.312l-8.397,2.099l-4.723-3.936l-6.56-1.312l-6.822,0.262l-2.624,2.362c0,0-7.347-0.918-8.397-1.443
			c-1.05-0.525-19.942-6.166-19.942-6.166h-3.149l-12.464-5.314l-7.216-2.034v-2.886l-2.821-4.198l-9.61-1.837l-3.887-1.574
			l2.911-4.986l-8.122-5.248l-5.242-3.936l-1.571-6.035l-4.197-3.411l-2.623-0.787l-4.198-5.51l-11.283-4.461l-6.297-1.574
			l-2.624-6.298l-7.347-4.33l-5.248-0.918h-4.198l-3.674-0.066l-2.362,0.164l-2.624,0.476l-3.674-7.109l-9.709-2.111l-4.198-0.269
			l-4.986-0.265l-6.298,1.048l-1.837,1.574l-2.362-3.936l-6.035-2.362l-7.347-0.262l-5.773,0.262l-4.198,4.198l-1.837,3.936
			l-5.773,0.787l-9.446,3.674l-5.51,0.525l-5.088,3.513l-1.472-4.3l-6.035-1.312l-12.595,1.312l-4.986,3.149l-5.773,4.986
			l-3.674,3.149l1.837,4.723l1.574,0.525l-3.474,0.622l-3.349,3.314l-0.525,2.099C832.298,268.123,825.869,275.208,845.877,285.179z
			"/>
		<g id="Details_6_">
			<g>
				<path d="M1062.849,326.229c-1.893,0.344-3.799,1.827-5.24,3.004c-0.343,0.279-0.076,0.786,0.307,0.821
					c1.936,0.174,3.952,0.018,5.9-0.082c1.378-0.072,4.619,0.376,4.274-1.986C1067.741,325.606,1064.565,325.916,1062.849,326.229z"
					/>
				<path d="M1105.246,333.627c-0.565,0.113-1.085,0.241-1.604,0.489c-0.251,0.118-0.564,0.412-0.712,0.646
					c-0.235,0.368-0.172,0.96-0.686,1.149c-0.112,0.041-0.047,0.201,0.058,0.15c0.351-0.175,1.201,0.674,1.596,0.768
					c0.56,0.132,1.126,0.176,1.691,0.258c1.139,0.166,2.076-0.446,2.897-1.139c0.312-0.264,0.332-0.814,0.038-1.1
					C1107.607,333.956,1106.579,333.359,1105.246,333.627z"/>
				<path d="M1086.643,334.573c-1.616,0.235-2.99,1.304-4.632,1.438c-0.105,0.008-0.11,0.146-0.006,0.161
					c1.629,0.248,2.925,1.41,4.521,1.758c1.276,0.277,2.943,0.163,3.693-0.995c0.213-0.326,0.229-0.77,0.039-1.111
					C1089.589,334.617,1087.935,334.386,1086.643,334.573z"/>
				<path d="M1099.061,237.973c-0.792-0.607-1.936-0.409-2.914-0.214c-0.504,0.099-1.166,0.268-1.62,0.513
					c-0.402,0.218-0.757,0.556-1.186,0.726c-0.215,0.085-0.229,0.457-0.02,0.557c0.406,0.194,0.759,0.528,1.134,0.766
					c0.5,0.316,1.414,0.486,1.998,0.496c1.129,0.018,2.826-0.276,3.095-1.564C1099.835,238.714,1099.755,238.189,1099.061,237.973z"
					/>
				<path d="M1103.796,245.774c-1.52,0.081-1.533,2.069-0.081,2.313c1.556,0.262,2.679,1.243,4.112,1.804
					c0.951,0.373,3.487,0.583,3.445-1.078C1111.193,245.592,1106.029,245.655,1103.796,245.774z"/>
				<path d="M1118.315,178.106c-0.609,0-1.111-0.284-1.712-0.194c-0.832,0.124-1.661,0.338-2.468,0.576
					c-1.287,0.382-2.682,1.185-3.995,1.391c-0.036,0.006-0.038,0.065-0.003,0.073c0.526,0.12,1.1,0.525,1.624,0.692
					c0.868,0.276,1.742,0.446,2.643,0.555c0.821,0.099,2.007-0.098,2.729-0.499c0.863-0.48,1.073-1.038,1.565-1.866
					C1118.876,178.535,1118.685,178.107,1118.315,178.106z"/>
				<path d="M1173.063,185.028c-3.638-3.256-9.209-4.091-13.848-2.748c-0.967,0.281-1.012,1.591-0.068,1.939
					c1.782,0.655,3.742,0.791,5.577,1.315c2.082,0.594,3.792,1.753,5.724,2.65C1172.377,189.08,1174.974,186.74,1173.063,185.028z"
					/>
				<path d="M1181.276,196.198c-0.904-0.656-1.897-1.512-2.996-1.58c-0.06-0.02-0.119-0.034-0.178-0.057
					c-1.036-0.41-2.379,0.75-1.981,1.846c0.016,0.042,0.053,0.155,0.091,0.265c0.082,1.14,1.159,2.032,1.945,2.81
					c1.209,1.194,2.592,2.632,4.416,2.376c0.876-0.123,1.317-0.979,1.432-1.75C1184.245,198.493,1182.432,197.038,1181.276,196.198z
					"/>
				<path d="M1171.73,327.115c-0.785-1.448-3.043-1.576-4.408-1.079c-1.869,0.681-2.949,2.061-3.188,4.016
					c-0.058,0.464,0.182,0.983,0.53,1.328c0.05,0.099,0.078,0.209,0.156,0.292c0.205,0.221,0.475,0.34,0.77,0.374
					c0.205,0.023,0.973-0.249,1.175-0.359c0.064-0.035,0.739-0.645,0.604-0.549c0.1-0.072,0.938-0.61,0.542-0.338
					c0.118-0.074,0.239-0.14,0.365-0.199c0.037-0.012,0.05-0.015,0.124-0.039c1.136-0.339,2.813-0.841,3.372-1.989
					c0.052-0.045,0.103-0.087,0.151-0.141c0.291-0.335,0.311-0.719,0.037-1.074C1171.888,327.265,1171.811,327.187,1171.73,327.115z
					"/>
				<path d="M872.614,266.483c-2.168-1.575-4.866,0.157-7.054,1.081c-3.706,1.562-8.069,2.321-11.425,4.599
					c-0.064,0.042-0.047,0.135,0.033,0.143c3.396,0.337,6.593-1.049,9.876-1.686c2.707-0.524,7.465-0.156,8.83-2.985
					C873.083,267.204,873.015,266.773,872.614,266.483z"/>
				<path d="M905.247,264.898c-1.805-1.419-5.809-0.034-7.914,0.146c-2.394,0.204-4.635,0.436-6.631,1.875
					c-0.099,0.072-0.036,0.221,0.059,0.256c2.664,0.986,5.338,1.26,8.161,1.426c2.182,0.13,6.078,0.226,6.819-2.355
					C905.898,265.695,905.676,265.235,905.247,264.898z"/>
				<path d="M855.72,254.529c2.282-0.598,5.573-1.312,6.591-3.635c0.192-0.437-0.152-1.098-0.619-1.189
					c-2.474-0.481-5.328,1.377-7.636,2.196c-2.904,1.031-5.514,2.38-8.247,3.786c-0.047,0.025-0.034,0.112,0.026,0.107
					C849.226,255.49,852.391,255.401,855.72,254.529z"/>
				<path d="M977.131,287.504c-0.871-0.158-1.718-0.296-2.604-0.204c-1.26,0.132-1.52,0.642-2.677,1.146
					c-0.039,0.016-0.039,0.077-0.003,0.098c0.846,0.479,1.312,1.197,2.202,1.636c0.816,0.404,1.695,0.665,2.548,0.973
					c1.697,0.611,2.865,0.601,4.501-0.026c0.527-0.201,0.473-0.882,0.204-1.245C980.187,288.376,978.992,287.842,977.131,287.504z"
					/>
				<path d="M975.686,266.939c-0.984-0.654-2.057-1.022-3.213-1.192c-1.334-0.197-1.898,0.449-3.078,0.753
					c-0.038,0.01-0.038,0.06-0.003,0.073c0.722,0.278,1.24,1.105,1.927,1.502c0.738,0.429,1.507,0.976,2.145,1.541
					c1.237,1.097,2.032,2.809,3.827,3.006c0.324,0.036,0.671-0.174,0.835-0.441C979.391,270.137,977.286,268.002,975.686,266.939z"
					/>
				<path d="M963.388,276.875c-0.309-0.496-0.609-0.995-0.885-1.511c-0.265-0.504-0.681-0.838-0.972-1.288
					c-0.229-0.352-0.739-0.416-0.983-0.034c-0.372,0.582-0.612,0.822-0.725,1.544c-0.13,0.842,0.002,1.74,0.264,2.547
					c0.538,1.657,1.434,2.84,2.782,3.913c1.354,1.081,3.155-0.825,2.374-2.213C964.667,278.81,964.007,277.87,963.388,276.875z"/>
				<path d="M925.474,250.859c-4.215-0.112-8.564,1.578-12.781,0.538c-1.104-0.273-1.948,1.27-0.871,1.878
					c4.072,2.302,9.504,3.3,14.073,1.79C928.095,254.338,928.004,250.925,925.474,250.859z"/>
				<path d="M992.822,278.514c-0.06-0.046-0.068-0.05-0.089-0.065c-0.05-0.046-0.1-0.093-0.147-0.14l-0.001-0.001
					c-0.004-0.026-0.005-0.048-0.015-0.089c-0.479-2.139-3.789-1.418-3.481,0.566c-0.078,1.682,0.847,3.08,2.416,3.903
					c1.713,0.896,3.67-0.744,2.764-2.577C993.96,279.483,993.396,278.906,992.822,278.514z"/>
				<path d="M936.995,242.613c-1.741,0.25-1.812,3.065-0.121,3.457c1.488,0.344,2.989,0.617,4.497,0.848
					c1.511,0.232,3.329,0.574,4.537-0.542c0.322-0.298,0.504-0.811,0.376-1.244C945.273,241.76,939.688,242.226,936.995,242.613z"/>
				<path d="M1131.907,331.049c-2.275-0.827-4.813-0.165-6.459,1.614c-0.698,0.754-1.129,1.74-1.525,2.68
					c-0.441,1.041-0.317,1.961-0.288,3.015c0.013,0.375,0.413,0.553,0.703,0.319c2.858-2.301,6.924-2.584,8.329-6.177
					C1132.902,331.893,1132.469,331.253,1131.907,331.049z"/>
			</g>
			<g>
				<path d="M1062.849,326.229c-1.893,0.344-3.799,1.827-5.24,3.004c-0.343,0.279-0.076,0.786,0.307,0.821
					c1.936,0.174,3.952,0.018,5.9-0.082c1.378-0.072,4.619,0.376,4.274-1.986C1067.741,325.606,1064.565,325.916,1062.849,326.229z"
					/>
				<path d="M1105.246,333.627c-0.565,0.113-1.085,0.241-1.604,0.489c-0.251,0.118-0.564,0.412-0.712,0.646
					c-0.235,0.368-0.172,0.96-0.686,1.149c-0.112,0.041-0.047,0.201,0.058,0.15c0.351-0.175,1.201,0.674,1.596,0.768
					c0.56,0.132,1.126,0.176,1.691,0.258c1.139,0.166,2.076-0.446,2.897-1.139c0.312-0.264,0.332-0.814,0.038-1.1
					C1107.607,333.956,1106.579,333.359,1105.246,333.627z"/>
				<path d="M1086.643,334.573c-1.616,0.235-2.99,1.304-4.632,1.438c-0.105,0.008-0.11,0.146-0.006,0.161
					c1.629,0.248,2.925,1.41,4.521,1.758c1.276,0.277,2.943,0.163,3.693-0.995c0.213-0.326,0.229-0.77,0.039-1.111
					C1089.589,334.617,1087.935,334.386,1086.643,334.573z"/>
				<path d="M1099.061,237.973c-0.792-0.607-1.936-0.409-2.914-0.214c-0.504,0.099-1.166,0.268-1.62,0.513
					c-0.402,0.218-0.757,0.556-1.186,0.726c-0.215,0.085-0.229,0.457-0.02,0.557c0.406,0.194,0.759,0.528,1.134,0.766
					c0.5,0.316,1.414,0.486,1.998,0.496c1.129,0.018,2.826-0.276,3.095-1.564C1099.835,238.714,1099.755,238.189,1099.061,237.973z"
					/>
				<path d="M1103.796,245.774c-1.52,0.081-1.533,2.069-0.081,2.313c1.556,0.262,2.679,1.243,4.112,1.804
					c0.951,0.373,3.487,0.583,3.445-1.078C1111.193,245.592,1106.029,245.655,1103.796,245.774z"/>
				<path d="M1118.315,178.106c-0.609,0-1.111-0.284-1.712-0.194c-0.832,0.124-1.661,0.338-2.468,0.576
					c-1.287,0.382-2.682,1.185-3.995,1.391c-0.036,0.006-0.038,0.065-0.003,0.073c0.526,0.12,1.1,0.525,1.624,0.692
					c0.868,0.276,1.742,0.446,2.643,0.555c0.821,0.099,2.007-0.098,2.729-0.499c0.863-0.48,1.073-1.038,1.565-1.866
					C1118.876,178.535,1118.685,178.107,1118.315,178.106z"/>
				<path d="M1173.063,185.028c-3.638-3.256-9.209-4.091-13.848-2.748c-0.967,0.281-1.012,1.591-0.068,1.939
					c1.782,0.655,3.742,0.791,5.577,1.315c2.082,0.594,3.792,1.753,5.724,2.65C1172.377,189.08,1174.974,186.74,1173.063,185.028z"
					/>
				<path d="M1181.276,196.198c-0.904-0.656-1.897-1.512-2.996-1.58c-0.06-0.02-0.119-0.034-0.178-0.057
					c-1.036-0.41-2.379,0.75-1.981,1.846c0.016,0.042,0.053,0.155,0.091,0.265c0.082,1.14,1.159,2.032,1.945,2.81
					c1.209,1.194,2.592,2.632,4.416,2.376c0.876-0.123,1.317-0.979,1.432-1.75C1184.245,198.493,1182.432,197.038,1181.276,196.198z
					"/>
				<path d="M1171.73,327.115c-0.785-1.448-3.043-1.576-4.408-1.079c-1.869,0.681-2.949,2.061-3.188,4.016
					c-0.058,0.464,0.182,0.983,0.53,1.328c0.05,0.099,0.078,0.209,0.156,0.292c0.205,0.221,0.475,0.34,0.77,0.374
					c0.205,0.023,0.973-0.249,1.175-0.359c0.064-0.035,0.739-0.645,0.604-0.549c0.1-0.072,0.938-0.61,0.542-0.338
					c0.118-0.074,0.239-0.14,0.365-0.199c0.037-0.012,0.05-0.015,0.124-0.039c1.136-0.339,2.813-0.841,3.372-1.989
					c0.052-0.045,0.103-0.087,0.151-0.141c0.291-0.335,0.311-0.719,0.037-1.074C1171.888,327.265,1171.811,327.187,1171.73,327.115z
					"/>
				<path d="M872.614,266.483c-2.168-1.575-4.866,0.157-7.054,1.081c-3.706,1.562-8.069,2.321-11.425,4.599
					c-0.064,0.042-0.047,0.135,0.033,0.143c3.396,0.337,6.593-1.049,9.876-1.686c2.707-0.524,7.465-0.156,8.83-2.985
					C873.083,267.204,873.015,266.773,872.614,266.483z"/>
				<path d="M905.247,264.898c-1.805-1.419-5.809-0.034-7.914,0.146c-2.394,0.204-4.635,0.436-6.631,1.875
					c-0.099,0.072-0.036,0.221,0.059,0.256c2.664,0.986,5.338,1.26,8.161,1.426c2.182,0.13,6.078,0.226,6.819-2.355
					C905.898,265.695,905.676,265.235,905.247,264.898z"/>
				<path d="M855.72,254.529c2.282-0.598,5.573-1.312,6.591-3.635c0.192-0.437-0.152-1.098-0.619-1.189
					c-2.474-0.481-5.328,1.377-7.636,2.196c-2.904,1.031-5.514,2.38-8.247,3.786c-0.047,0.025-0.034,0.112,0.026,0.107
					C849.226,255.49,852.391,255.401,855.72,254.529z"/>
				<path d="M977.131,287.504c-0.871-0.158-1.718-0.296-2.604-0.204c-1.26,0.132-1.52,0.642-2.677,1.146
					c-0.039,0.016-0.039,0.077-0.003,0.098c0.846,0.479,1.312,1.197,2.202,1.636c0.816,0.404,1.695,0.665,2.548,0.973
					c1.697,0.611,2.865,0.601,4.501-0.026c0.527-0.201,0.473-0.882,0.204-1.245C980.187,288.376,978.992,287.842,977.131,287.504z"
					/>
				<path d="M975.686,266.939c-0.984-0.654-2.057-1.022-3.213-1.192c-1.334-0.197-1.898,0.449-3.078,0.753
					c-0.038,0.01-0.038,0.06-0.003,0.073c0.722,0.278,1.24,1.105,1.927,1.502c0.738,0.429,1.507,0.976,2.145,1.541
					c1.237,1.097,2.032,2.809,3.827,3.006c0.324,0.036,0.671-0.174,0.835-0.441C979.391,270.137,977.286,268.002,975.686,266.939z"
					/>
				<path d="M963.388,276.875c-0.309-0.496-0.609-0.995-0.885-1.511c-0.265-0.504-0.681-0.838-0.972-1.288
					c-0.229-0.352-0.739-0.416-0.983-0.034c-0.372,0.582-0.612,0.822-0.725,1.544c-0.13,0.842,0.002,1.74,0.264,2.547
					c0.538,1.657,1.434,2.84,2.782,3.913c1.354,1.081,3.155-0.825,2.374-2.213C964.667,278.81,964.007,277.87,963.388,276.875z"/>
				<path d="M925.474,250.859c-4.215-0.112-8.564,1.578-12.781,0.538c-1.104-0.273-1.948,1.27-0.871,1.878
					c4.072,2.302,9.504,3.3,14.073,1.79C928.095,254.338,928.004,250.925,925.474,250.859z"/>
				<path d="M992.822,278.514c-0.06-0.046-0.068-0.05-0.089-0.065c-0.05-0.046-0.1-0.093-0.147-0.14l-0.001-0.001
					c-0.004-0.026-0.005-0.048-0.015-0.089c-0.479-2.139-3.789-1.418-3.481,0.566c-0.078,1.682,0.847,3.08,2.416,3.903
					c1.713,0.896,3.67-0.744,2.764-2.577C993.96,279.483,993.396,278.906,992.822,278.514z"/>
				<path d="M936.995,242.613c-1.741,0.25-1.812,3.065-0.121,3.457c1.488,0.344,2.989,0.617,4.497,0.848
					c1.511,0.232,3.329,0.574,4.537-0.542c0.322-0.298,0.504-0.811,0.376-1.244C945.273,241.76,939.688,242.226,936.995,242.613z"/>
				<path d="M1131.907,331.049c-2.275-0.827-4.813-0.165-6.459,1.614c-0.698,0.754-1.129,1.74-1.525,2.68
					c-0.441,1.041-0.317,1.961-0.288,3.015c0.013,0.375,0.413,0.553,0.703,0.319c2.858-2.301,6.924-2.584,8.329-6.177
					C1132.902,331.893,1132.469,331.253,1131.907,331.049z"/>
			</g>
		</g>
		<g id="Outline_4_">
			<path style="fill:#111010;" d="M1218.279,189.088c-19.594-26.608-53.624-41.839-85.098-37.539
				c-27.124,3.373-57.156,28.246-53.896,58.604c0.785,8.763,3.729,16.224,8.2,22.333c-0.147,0.033-0.299,0.051-0.446,0.107
				c-0.901,0.346-1.743,0.971-2.383,1.69c-0.165,0.186-0.284,0.406-0.386,0.637c-0.477,0.247-0.873,0.645-1.01,1.179
				c-1.829,7.143,6.668,9.573,13.886,9.043c0.35,0.227,0.707,0.442,1.061,0.661c-0.161,5.153,4.994,9.726,10.281,9.499
				c2.089-0.091,4.483-0.515,6.25-1.59c0.178,1.22,0.999,2.176,2.096,2.905c2.167,2.029,5.353,3.078,8.488,2.865
				c0.811-0.056,1.635-0.262,2.428-0.581c3.33-0.091,6.967-1.04,9.946-1.748c1.883-0.449,4.786-1.12,6.942-2.422
				c0.179,0.062,0.367,0.116,0.596,0.11c4.937-0.118,11.476-1.956,13.308-7.183c0.004-0.013,0.004-0.026,0.008-0.038
				c0.603-1.142,0.812-2.358,0.544-3.475c0.135-0.151,0.286-0.283,0.418-0.438c6.277-7.285,8.197-18.439,5.208-27.449
				c-3.33-10.047-12.957-13.444-22.522-13.728c-1.131-0.034-2.428,0.943-2.338,2.18c0.252,3.519,1.063,5.51,4.132,7.447
				c0.499,0.316,0.992,0.396,1.441,0.329c3.067,3.394,4.689,7.911,2.35,12.417c-2.741,5.284-10.362,4.391-15.164,3.892
				c-10.461-1.09-19.162-7.723-22.34-17.742c-1.183-3.728-1.564-7.256-1.292-10.524c1.968-0.263,3.893-1.018,5.474-2.161
				c1.857-1.343,3.108-3.086,3.459-5.368c0.282-1.837-0.784-3.659-2.248-4.798c3.065,0.44,6.18-0.088,9.363-0.563
				c3.466,2.077,8.382,3.499,11.991,1.927c1.75-0.763,3.759-2.233,5.096-4.031c0.596,1.32,1.771,2.336,2.855,3.274
				c2.186,1.892,7.165,3.058,9.64,0.86c0.416,0.396,0.863,0.782,1.375,1.137c2.355,1.638,5.379,2.812,8.474,3.54
				c2.063,0.697,4.59,1.102,7.085,1.014c-0.323,4.375,1.091,8.506,5.113,10.968c1.387,0.849,2.964,1.387,4.592,1.637
				c6.124,15.496,3.266,35.143-7.914,47.443c-6.994,7.693-16.836,10.956-26.499,13.83c-12.004,3.57-21.796,3.034-33.496-1.036
				c-22.237-7.738-39.829-19.572-57.289-35.153c-16.238-14.491-31.476-29.246-50.118-40.707
				c-17.393-10.694-37.337-20.76-57.349-25.228c-39.88-8.905-102.82-2.18-130.01,33.563c-0.229-0.206-0.643-0.248-0.805,0.076
				c-0.72,1.432-1.457,2.826-2.188,4.211c-3.512,5.487-6.239,11.585-7.99,18.344c-0.036,0.143,0.166,0.205,0.219,0.069
				c0.564-1.468,1.199-2.884,1.868-4.276c-0.237,1.031-0.434,2.084-0.567,3.177c-1.206,9.874,0.148,18.42,3.99,27.614
				c5.816,13.914,17.104,35.464,33.908,37.955c9.478,1.405,18.164-2.133,26.761-5.729c5.331-2.23,10.624-4.397,15.99-6.324
				c2.561,1.072,5.482,1.216,8.206,0.885c5.44-0.66,11.359-3.092,15.528-6.973c5.098-0.614,10.048-0.61,14.871-0.093
				c3.868,4.69,13.085,6.556,20.952,5.345c1.027,0.404,2.05,0.823,3.067,1.258c-0.746,2.17-0.469,4.482,0.63,6.78
				c1.28,2.674,4.264,3.879,7.003,4.322c1.317,0.212,2.642,0.33,3.968,0.335c-0.593,5.125,4.373,9.839,8.985,11.05
				c4.767,1.25,10.33,0.054,14.533-2.546c0.225,0.145,0.451,0.289,0.679,0.435c-0.577,0.84-0.879,1.928-0.76,3.324
				c0.354,4.171,4.105,7.315,7.28,9.564c3.891,2.756,8.938,4.653,13.729,4.676c1.407,0.006,3.153-0.353,4.699-1.058
				c2.763,2.852,6.42,4.543,10.775,5.007c4.137,2.169,8.334,4.24,12.646,6.111c0.505,0.219,1.021,0.425,1.529,0.64
				c2.866,1.211,5.791,2.357,8.762,3.441c0.299,0.018,0.589,0.02,0.886,0.031c-0.262,1.588,0.201,3.206,1.82,5.15
				c5.188,6.224,19.094,6.465,26.057,3.198c0.026,0.327,0.086,0.654,0.23,0.978c0.927,2.08,3.173,3.003,4.781,4.509
				c3.372,3.158,11.499,1.713,14.531-1.276c0.032-0.032,0.062-0.069,0.094-0.101c0.057,0.269,0.092,0.537,0.186,0.811
				c1.376,3.963,7.187,4.899,10.781,4.643c1.681-0.119,3.241-0.658,4.753-1.341c1.141-0.266,2.11-0.711,2.786-1.397
				c0.84-0.458,1.753-1.012,2.549-1.623c0.288,0.004,0.578,0.014,0.865,0.015c1.072,1.852,2.86,3.396,4.911,3.971
				c4.502,1.262,9.671-0.386,12.452-3.994c0.175,0.258,0.384,0.487,0.62,0.611c6.919,3.648,18.336,1.751,20.446-5.634
				c0.061-0.212,0.081-0.449,0.127-0.668c0.311-0.176,0.623-0.367,0.93-0.578c1.345,3.344,5.777,4.611,9.138,4.198
				c4.245-0.523,7.974-4.813,9.766-8.511c0.421-0.458,0.837-0.926,1.201-1.457c0.472-0.69,0.775-1.432,0.977-2.196
				c1.863-0.76,3.713-1.61,5.545-2.594c12.133-7.136,28.918-23.832,35.844-36.551
				C1236.325,259.928,1238.949,215.734,1218.279,189.088z M1100.32,241.149c-1.222,0.336-2.512,0.471-3.815,0.448
				c-1.724-0.031-3.453-0.327-5.049-0.78c-0.238-0.069-0.481-0.132-0.713-0.205c-1.241-0.398-2.638-1.056-3.371-2.189
				c0.025-0.005,0.047,0,0.074-0.007c0.631-0.155,1.089-0.502,1.504-0.912c0.016,0.023,0.037,0.051,0.047,0.07
				c0.072,0.164,0.313,0.055,0.28-0.107c-0.019-0.109-0.015-0.182-0.028-0.279c0.269-0.291,0.53-0.591,0.82-0.878
				c0.269-0.266,0.436-0.554,0.533-0.847c0.422-0.07,0.892-0.128,1.456-0.226c0.401-0.068,0.81-0.106,1.217-0.14
				c1.7-0.146,3.452-0.036,5.114,0.178c2.588,0.334,5.958,2.461,4.805,4.266c-0.923,0.259-1.898,0.756-2.673,1.427
				C1100.453,241.027,1100.386,241.087,1100.32,241.149z M1111.807,250.941c-0.415,0.143-0.873,0.257-1.351,0.343
				c-0.121,0.022-0.239,0.035-0.358,0.053c-2.19,0.337-4.134,0.098-6.004-1.216c-0.792-0.558-1.462-1.293-1.997-2.13
				c-0.654-1.029-1.086-2.213-1.289-3.406c0.062-0.015,0.123-0.032,0.185-0.047c-0.073-0.041-0.147-0.083-0.218-0.125
				c-0.038-0.262-0.061-0.524-0.075-0.784c0.266-0.098,0.534-0.206,0.82-0.297c0.323-0.102,0.69-0.084,1.021-0.162
				c-0.591,0.141,0.805-0.069,1.019-0.123c0.129-0.032,0.258-0.04,0.386-0.064c0.149,0.079,0.294,0.161,0.443,0.239
				c0.189-0.112,0.365-0.228,0.53-0.347c0.873-0.031,1.739,0.087,2.593,0.338c1.862,0.548,3.636,1.744,4.851,3.309
				c0.352,0.454,0.666,0.937,0.91,1.447c0.048,0.101,0.061,0.187,0.098,0.282l0.064,1.44
				C1113.189,250.274,1112.59,250.671,1111.807,250.941z M1112.28,241.592c2.321,0.336,4.651,1.142,6.669,2.231
				c0.4,0.216,2.034,1.143,2.064,1.497c-0.004-0.054-0.07,0.015-0.146,0.119c-1.52,0.065-2.996,0.344-4.316,0.837
				C1115.657,244.386,1114.051,242.777,1112.28,241.592z M1121.193,255.104c-1.699-0.315-3.139-0.453-4.225-2.007
				c-0.245-0.351-0.514-0.498-0.834-0.575c0.467-0.547,0.83-1.182,1.009-1.946c0.055-0.232,0.09-0.478,0.114-0.734
				c0.227-0.093,0.454-0.179,0.684-0.262c0.748-0.202,1.493-0.409,2.208-0.482c2.283-0.233,3.957,0.751,5.698,2.219
				C1128.492,253.545,1123.056,255.449,1121.193,255.104z M1124.865,245.756c0.004-0.006,0.008-0.009,0.011-0.016
				c0.381-0.91,0.256-0.976,1.149-0.957c0.753,0.016,1.504,0.004,2.248,0.156c1.607,0.324,3.421,1.089,4.588,2.323
				c-0.635,0.563-1.212,1.193-1.706,1.887C1129.755,247.412,1127.435,246.279,1124.865,245.756z M1144.041,250.71
				c-0.209,0.572-0.948,1.107-2.293,1.726c-2.962,1.366-6.153,1.968-9.383,2.35c-0.083,0.01-0.166,0.02-0.249,0.029
				c0.004-0.008,0.008-0.017,0.013-0.026c0.356-0.893,0.486-1.868,0.307-2.891c-0.019-0.098-0.024-0.197-0.047-0.296
				c-0.102-0.436-0.265-0.839-0.453-1.231c0.387-0.353,0.811-0.686,1.252-1.001c1.463-1.038,3.172-1.825,4.822-2.088
				c0.475-0.077,0.943-0.097,1.399-0.079c0.474,0.017,0.934,0.088,1.372,0.22c0.469,0.141,0.915,0.34,1.322,0.628
				c0.116,0.084,0.198,0.156,0.306,0.235C1143.745,249.287,1144.292,250.029,1144.041,250.71z M1153.458,248.939
				c-0.995,0.653-2.018,1.254-3.079,1.785c-0.968,0.31-1.99,0.485-3.011,0.566c0.052-0.338,0.073-0.673,0.035-1.001
				c-0.027-0.197-0.064-0.39-0.116-0.582c-0.252-0.899-0.817-1.737-1.554-2.463c-0.718-0.707-1.59-1.31-2.483-1.753
				c0.629-0.34,1.274-0.631,1.854-0.881c2.289-0.982,4.679-1.286,7.045-0.836c0.459,0.086,0.915,0.191,1.37,0.335
				c0.36,0.115,0.896,0.319,1.29,0.552C1156.286,246.128,1154.479,247.943,1153.458,248.939z M1113.613,192.892
				c-0.221,1.146-1.271,2.05-2.178,2.682c-0.564,0.392-1.167,0.733-1.784,1.044c-0.532,0.267-1.074,0.51-1.635,0.707
				c-0.296-0.04-0.583-0.092-0.868-0.151c-0.912-0.187-1.746-0.488-2.451-0.923c-0.208-0.129-0.426-0.245-0.608-0.399
				c-1.729-1.478-1.206-4.244-0.613-6.128c0.365-1.159,1.306-3.054,2.539-4.647c1.155,0.481,2.324,0.925,3.217,1.802
				c0.867,0.849,1.533,1.88,2.278,2.837c0.078,0.268,0.203,0.53,0.412,0.764c0.068,0.077,0.147,0.157,0.235,0.239
				C1112.779,191.3,1113.78,192.022,1113.613,192.892z M1118.85,183.628c-1.222,0.057-2.438,0.134-3.645,0.351
				c-0.257-0.184-0.586-0.235-0.87-0.069c-0.199-0.071-0.403-0.132-0.594-0.212c-0.331-0.14-0.646-0.307-0.957-0.474
				c-0.002-0.034-0.006-0.069-0.031-0.104c-0.342-0.441-0.685-0.81-1.039-1.133c-0.513-0.471-1.047-0.822-1.625-1.014
				c-0.843-1.129-1.353-2.521-1.333-4.235c0.062-5.579,7.761-5.499,12.605-4.943c-0.699,0.785-1.234,1.703-1.479,2.743
				c-0.165,0.7-0.141,1.287-0.012,1.827c0,0.009,0.007,0.017,0.01,0.026c-0.355,1.576-0.048,3.175,1.363,4.561
				c0.913,0.899,1.901,1.538,2.933,2.001C1122.415,183.452,1120.633,183.545,1118.85,183.628z M1124.656,169.424
				c-1.342-0.734-2.97-1.202-4.698-1.427c2.409-1.087,5.132-1.747,7.578-2.156c1.626-0.272,3.558-0.398,5.197,0.119
				c-0.247,0.368-0.443,0.753-0.562,1.161c-2.62,0.39-5.195,1.149-7.506,2.31C1124.662,169.428,1124.661,169.425,1124.656,169.424z
				 M1138.979,183.639c-1.063,1.758-2.998,2.787-4.922,3.254c-2.304,0.559-4.512-0.374-6.722-0.853
				c0.418-0.173,0.813-0.349,1.174-0.525c0.899-0.435,1.745-1.094,2.483-1.881c3.256-0.56,6.521-2.094,9.293-3.729
				c0.039,0.119,0.096,0.227,0.143,0.339C1139.888,181.344,1139.647,182.541,1138.979,183.639z M1137.137,176.251
				c-1.798,1.053-3.608,1.929-5.618,2.444c-0.083,0.013-0.169,0.019-0.251,0.031c-0.348,0.055-0.689,0.13-1.034,0.195
				c-1.878,0.155-5.488,0.051-5.594-1.486c-0.202-2.982,4.719-4.213,6.775-4.809c0.973-0.282,1.964-0.535,2.966-0.73
				c0.061,0.086,0.133,0.163,0.187,0.253c0.042,0.06,0.137,0.012,0.1-0.054c-0.041-0.075-0.08-0.153-0.121-0.227
				c0.656-0.124,1.318-0.211,1.98-0.274c0.202,0.125,0.446,0.11,0.653-0.057c0.089-0.005,0.175-0.018,0.265-0.023
				c1.556-0.068,2.847,0.838,4.387,1.011c0.042,0.004,0.091-0.01,0.135-0.009c0.029,0.016,0.047,0.033,0.075,0.049
				C1142.48,172.825,1137.46,176.063,1137.137,176.251z M1139.643,166.957c-0.358-0.086-0.727-0.149-1.111-0.187
				c-0.088-0.299-0.205-0.586-0.354-0.862c1.823-0.819,4.058-1.114,5.879-1.152c1.832-0.038,4.29,0.133,5.769,1.371
				c0.416,0.348,0.656,0.881,0.8,1.482c-0.578,0.508-1.035,1.113-1.309,1.831c-0.149,0.024-0.282,0.074-0.431,0.103
				c-0.257,0.051-0.515,0.113-0.769,0.183c-0.33,0.082-0.68,0.138-0.992,0.238c-0.308,0.097-0.607,0.215-0.904,0.334
				C1145.186,168.072,1142.211,167.251,1139.643,166.957z M1147.212,186.033c-1.483-0.46-2.176-1.381-2.672-2.475
				c0.696,0.224,1.417,0.394,2.134,0.508c1.389,0.221,3.234,0.261,4.61-0.388c0.067-0.008,0.133-0.014,0.201-0.024
				c0.304,0.02,0.583-0.019,0.838-0.11c-0.181,0.826-0.142,1.657,0.056,2.473C1150.598,186.995,1149.396,186.71,1147.212,186.033z
				 M1155.886,176.756c-0.522,0.594-1.164,1.171-1.695,1.605c-0.15,0.126-0.312,0.241-0.472,0.358
				c-0.429-0.066-0.857-0.081-1.369,0.044c-0.351,0.085-1.362-0.032-0.577,0.348c-0.528-0.256-1.185-0.505-1.788-0.495
				c-1.686,0.025-3.69,0.321-5.148-0.697c-0.236-0.163-0.253-0.594-0.217-0.977c0.14-0.079,0.272-0.177,0.373-0.312
				c0.022-0.032,0.029-0.061,0.049-0.093c0.087-0.128,0.154-0.254,0.211-0.376c0.493-0.567,0.91-1.18,1.19-1.838
				c1.505,0.646,3.2,0.442,4.842,0.432c1.041-0.007,4.778-0.264,4.658,1.362c-0.013,0.178,0.024,0.335,0.065,0.486
				C1155.966,176.654,1155.93,176.705,1155.886,176.756z M1153.793,169.361c0.008-0.015,0.016-0.032,0.023-0.047
				c1.705-0.386,3.697-0.141,5.486,0.484c1.774,0.618,3.299,1.766,4.401,3.212c-1.216,0.276-2.395,0.648-3.499,1.139
				c-0.448-1.833-1.99-3.258-3.844-4.08C1155.564,169.714,1154.692,169.493,1153.793,169.361z M1174.377,190.767
				c-0.253,0.113-0.514,0.202-0.773,0.297c-0.107,0.04-0.213,0.087-0.322,0.124c-0.36-0.357-0.854-0.615-1.501-0.678
				c-1.305-0.125-2.583-0.3-3.854-0.505c-2.28-0.368-4.522-0.866-6.769-1.603c-3.316-1.086-5.795-2.69-4.906-5.654
				c0.153-0.507,0.391-1.048,0.754-1.639c0.05-0.081,0.063-0.16,0.094-0.24c0.182-0.15,0.349-0.315,0.522-0.475
				c0.698-0.64,1.318-1.361,1.798-2.169c0.149-0.25,0.28-0.51,0.396-0.778c1.927-0.612,3.929-0.948,5.5-1.109
				c0.071-0.007,0.147-0.017,0.217-0.023c0.461-0.043,0.901-0.052,1.336-0.04c0.511,0.016,1.002,0.066,1.477,0.155
				c2.565,0.478,4.665,1.972,6.654,4.003c2.726,2.79,3.87,6.802,1.079,9.252C1175.622,190.094,1175.065,190.46,1174.377,190.767z
				 M1182.632,204.003c-1.318-0.093-2.612-0.466-3.759-1.095c-0.1-0.054-0.205-0.1-0.302-0.158c-1.8-1.078-2.669-2.809-2.908-4.703
				c-0.141-1.111-0.068-2.276,0.167-3.4c0-0.003,0-0.006,0-0.006c0.263-0.085,0.511-0.188,0.762-0.289
				c0.817-0.324,1.592-0.702,2.26-1.209c0.067-0.051,0.123-0.109,0.188-0.162c0.333-0.269,0.634-0.555,0.905-0.854
				c1.735,0.762,3.405,1.898,4.258,2.514c1.687,1.219,3.2,3.126,4.036,5.027c0.851,1.932-0.329,3.305-2.22,3.936
				c-0.101,0.033-0.208,0.054-0.31,0.083C1184.716,203.977,1183.672,204.078,1182.632,204.003z M837.311,275.978
				c-1.657-1.54-3.201-3.276-4.651-5.13c1.249-2.347,5.141-4.811,8.769-6.31c1.963,0.461,4.042,0.731,6.107,0.773
				c-1,0.776-1.943,1.762-2.832,2.995c-1.756,2.436-1.684,5.13-0.498,7.363C841.94,276.259,839.614,276.457,837.311,275.978z
				 M838.364,259.024c2.809-5.293,9.013-8.716,14.235-11.017c6.695-2.95,13.587-3.57,18.168,1.85
				c-1.395,1.418-2.396,2.975-2.819,4.647c-4.169,0.943-9.539,2.774-13.859,5.473c-1.5,0.384-3.041,0.648-4.59,0.784
				c-1.403-1.009-4.048-0.836-6.601-0.285C841.316,260.177,839.79,259.699,838.364,259.024z M856.794,281.931
				c-4.762,1.053-8.936,0.44-12.64-1.255c1.505-0.204,2.941-0.581,4.224-1.126c0.482,0.232,0.985,0.43,1.502,0.612
				c2.293,1.086,4.949,1.529,7.201,1.055c1.135-0.013,2.294-0.09,3.466-0.231C859.305,281.329,858.057,281.652,856.794,281.931z
				 M858.723,274.624c-1.103,0.193-3.422,0.532-5.527,0.427c-0.651-0.033-1.277-0.112-1.845-0.247
				c-0.855-0.204-1.567-0.54-1.996-1.077c-0.173,0.083-0.358,0.15-0.533,0.231c-0.674-1.203-0.23-2.887,0.648-4.608
				c1.636-1.684,3.808-3.099,6.106-4.28c0.624-0.321,1.257-0.627,1.893-0.915c2.369-1.075,4.736-1.925,6.651-2.586
				c2.648-0.914,12.05-2.636,14.763-0.095c0.176,0.163,0.328,0.34,0.444,0.54c0.122,0.214,0.203,0.454,0.249,0.712
				c0.163,0.876-0.123,2.011-1.047,3.483C875.041,271.778,864.646,273.584,858.723,274.624z M894.219,248.874
				c-1.564-0.503-3.309,0.036-4.93,0.012c-1.985-0.029-3.959-0.187-5.943-0.193c-1.031-0.004-1.534,1.393-0.604,1.961
				c1.524,0.929,4.166,2.049,6.661,2.334c-4.555,1.255-9.638,1.288-13.411,0.111c-0.422-0.131-0.918,0.206-0.944,0.646
				c-1.355-0.062-2.702,0.011-3.949,0.178c4.705-3.492,9.233-5.952,15.4-7.368c3.376-0.774,6.802-0.899,10.16-0.042
				c1.762,0.449,2.286,0.463,1.278,1.611c-0.815,0.929-1.814,1.738-2.924,2.443C895.236,249.88,894.976,249.117,894.219,248.874z
				 M910.691,264.631c-0.032,0.035-0.074,0.068-0.107,0.102c-1.214,1.26-2.782,2.442-4.548,3.445
				c-3.414,1.941-7.557,3.177-11.35,2.904c-1.598-0.116-3.125-0.508-4.509-1.227c-1.168-0.606-2.245-1.422-3.152-2.54
				c-0.896-1.108-2.407,0.013-2.232,1.196c0.184,1.22,0.346,2.249,0.651,3.154c-2.387,0.949-4.761,1.931-7.137,2.908
				c1.684-1.097,3.175-2.266,4.347-3.475c2.639-2.724,3.697-6.654,2.749-10.221c6.956-2.007,14.281-3.288,21.203-2.047
				c1.076,0.192,2.128,0.429,3.027,0.744c0.414,0.229,0.843,0.444,1.295,0.653c0.083,0.039,0.173,0.066,0.257,0.103
				C912.439,261.22,912.665,262.543,910.691,264.631z M918.138,237.321c-1.304-2.125-3.306-1.759-5.6-1.953
				c-2.572-0.217-5.037-0.156-7.552-0.055c1.382-0.381,2.659-0.617,3.386-0.737c4.021-0.659,11.46-0.881,13.059,3.964
				c-2.07,1.379-3.551,3.513-4.06,5.778c-1.399,0.249-2.737,0.57-3.985,0.947c-0.429-0.134-0.882-0.192-1.348-0.174
				c-1.278-0.867-3.374-1.149-4.702-1.105c0,0-0.004,0.001-0.006,0.001c-1.915-0.566-3.84-1.254-5.654-1.939
				c-0.916-0.346-2.73-1.127-2.782-2.18c-0.065-1.303,0.94-2.322,2.34-3.106c0.052,0.525,0.415,1.028,1.124,1.123
				c2.984,0.401,5.926,1.334,8.91,1.838c2.512,0.426,5.12,1.228,6.823-1.023C918.366,238.336,918.374,237.705,918.138,237.321z
				 M903.875,253.013c-1.299-0.064-2.6-0.07-3.904,0.049c1.687-1.412,2.947-3.121,3.268-5.145c0.056-0.356,0.073-0.692,0.068-1.016
				c0.592,0.001,1.186-0.042,1.782-0.106c0.347,0.234,0.739,0.423,1.138,0.586C904.627,248.792,903.572,250.956,903.875,253.013z
				 M917.459,264.057c0.104-0.343,0.181-0.683,0.235-1.02c2.495-0.083,4.974-0.266,7.446-0.467c-0.039,0.451,0.052,0.94,0.17,1.398
				C922.695,263.885,920.075,263.9,917.459,264.057z M917.784,261.76c0.018,0.001,0.034,0.002,0.05,0.004
				c-0.016,0.007-0.033,0.017-0.048,0.025C917.783,261.779,917.786,261.769,917.784,261.76z M920.594,256.768
				c-2.051,0.056-4.073-0.15-6.034-0.667c-0.773-0.567-1.667-1.066-2.683-1.469c-0.421-0.167-0.854-0.293-1.28-0.434
				c-0.346-0.274-0.696-0.543-1.084-0.751c-0.116-0.066-0.239-0.117-0.357-0.178l0-0.002c-0.115-1.686-0.259-2.813,1.316-3.58
				c0.233-0.113,0.469-0.216,0.705-0.315c2.094-0.366,4.513-0.58,6.533-0.706c0.847-0.053,1.614-0.092,2.267-0.12
				c0.823-0.036,1.471-0.057,1.794-0.072c0.358-0.016,0.746-0.037,1.147-0.058c2.25-0.118,5.038-0.229,6.926,0.657
				c0.722,0.34,5.23,2.198,4.636,3.354c-0.124,0.24-0.276,0.468-0.452,0.682c-0.266,0.328-0.598,0.62-0.965,0.891
				c-0.638,0.472-1.407,0.865-2.258,1.19C927.468,256.46,922.933,256.705,920.594,256.768z M1007.27,284.727
				c-0.196-0.64-0.457-1.278-0.771-1.906c0.683-0.072,1.314-0.161,1.891-0.266c1.426,0.238,2.84,0.556,4.224,0.959
				c3.38,0.984,6.575,2.441,9.299,4.297c4.794,3.267-0.975,3.979-4.667,3.799c-0.109-0.047-0.212-0.099-0.321-0.144
				c-2.018-0.829-4.191-1.317-6.365-1.699c-1.061-0.489-2.064-1.049-2.994-1.691C1007.754,287.01,1007.621,285.87,1007.27,284.727z
				 M1011.669,278.835c-2.736-0.707-6.122-1.391-9.324-1.385c-1.471-1.347-3.091-2.461-4.832-3.388
				c2.213-0.329,4.351-0.939,6.199-1.982c0.303-0.172,0.572-0.36,0.821-0.555c1.627,0.878,3.171,1.907,4.57,3.135
				C1010.245,275.66,1012.107,277.616,1011.669,278.835z M1001.737,268.339c-0.404,0.412-1.128,0.773-2.191,1.091
				c-0.186,0.055-0.375,0.11-0.58,0.163c-3.618,0.932-6.992,0.795-10.288,0.163c-0.476-2.226-1.817-4.463-3.458-6.222
				c-1.169-1.255-2.55-2.229-4.033-3.036c0.653-0.27,1.254-0.578,1.809-0.92c5.771,0.905,11.597,1.867,16.505,5.074
				c1.071,0.701,1.808,1.326,2.222,1.888C1002.233,267.232,1002.239,267.825,1001.737,268.339z M982.787,272.971
				c-0.9,0.48-2.067,0.785-3.209,0.964c-1.268,0.201-2.492,0.251-3.228,0.228c-4.983-0.157-7.476-4.141-10.213-7.719
				c-1.059-1.385-2.939-3.593-4.969-3.65c-0.193-0.251-0.419-0.486-0.661-0.714c0.891-0.452,1.722-0.978,2.483-1.57
				c4.382-0.114,8.864,1.12,12.916,2.597c3.023,1.103,5.425,2.652,7.27,5.217c0.218,0.304,0.433,0.615,0.636,0.948
				c0.236,0.39,0.363,0.74,0.443,1.073c0.069,0.297,0.09,0.576,0.05,0.831c-0.099,0.639-0.503,1.152-1.104,1.556
				c-0.477-0.03-0.954-0.056-1.43-0.079C982.105,272.767,982.442,272.874,982.787,272.971z M978.22,258.038
				c-0.329,0.087-0.66,0.161-0.999,0.23c-0.038,0.005-0.075,0.01-0.114,0.016c-0.005,0.001-0.004,0.01-0.008,0.01
				c-0.32,0.063-0.646,0.118-0.972,0.171c-2.102-0.604-4.266-1.014-6.334-1.362c-0.906-0.151-2.32-0.304-3.838-0.311
				c1.518-4.472-5.588-6.788-9.189-7.506c1.926-1.58,4.823-2.608,6.545-2.547c4.365,0.157,8.964,2.031,12.882,3.848
				c1.951,0.904,3.544,2.268,4.971,3.858C983.241,256.759,979.873,257.595,978.22,258.038z M961.069,255.6
				c0.052,0.046,0.071,0.071,0.102,0.102c-0.156,0.178-0.451,0.497-0.651,0.672c-1.516,1.324-3.672,2.177-5.844,2.717
				c-2.988-0.922-6.099-1.36-7.689-1.518c-3.137-0.312-6.634-0.394-10.213-0.2c0.702-0.563,1.285-1.197,1.721-1.903
				c0.375-0.091,0.545-0.476,0.421-0.795c0.088-0.21,0.164-0.425,0.225-0.646c1.701-1.694,5.77-1.756,7.683-1.77
				c1.675-0.013,3.26,0.232,4.841,0.538c0.249,0.048,0.498,0.095,0.751,0.146c-0.035,0.068-0.06,0.135-0.096,0.204
				c-0.077,0.151,0.076,0.385,0.25,0.269c0.168-0.112,0.301-0.235,0.458-0.351c0.185,0.038,0.374,0.076,0.561,0.116
				c0.431,0.089,0.861,0.18,1.302,0.267c0.022,0.004,0.047,0.009,0.068,0.013C956.878,253.833,959.536,254.277,961.069,255.6z
				 M952.485,248.691c-2.471-0.234-4.918-0.24-7.466,0.201c-2.694,0.467-4.523,1.505-5.687,3.355
				c-0.228-6.416-7.891-8.723-15.842-8.544c0.39-0.578,0.702-1.206,0.926-1.867c3.899-2.664,10.337-2.573,14.412-2.436
				c5.983,0.201,13.776,2.244,14.719,7.779C953.146,247.643,952.782,248.138,952.485,248.691z M944.999,270.05
				c-0.228,0.004-0.455,0.02-0.682,0.02c-2.672,0.007-5.002-0.722-7.194-1.767c1.856,0.373,3.704,0.778,5.571,1.084
				c1.355,0.221,2.792,0.572,4.175,0.556C946.246,269.997,945.624,270.036,944.999,270.05z M951.867,268.949
				c-0.357,0.126-0.721,0.214-1.085,0.314c-0.877,0.246-1.769,0.419-2.665,0.543c0.513-0.114,1.012-0.295,1.486-0.596
				c0.721-0.457,0.728-1.357,0.065-1.866c-1.713-1.317-3.929-1.133-5.997-1.308c-2.495-0.213-4.959-0.362-7.459-0.139
				c-0.673,0.059-1.144,0.736-1.126,1.32c-1.605-0.924-3.169-1.944-4.746-2.96c-0.242-0.156-0.495-0.298-0.738-0.452
				c-0.082-0.206-0.164-0.412-0.256-0.618c0.214,0.485-0.144-0.413-0.189-0.538c-0.048-0.133-0.095-0.266-0.144-0.397
				c3.782-0.308,7.552-0.57,11.33-0.506c1.818,0.031,3.639,0.148,5.463,0.362c0.508,0.059,1.014,0.12,1.524,0.197
				c1.379,0.209,2.763,0.478,4.153,0.833c1.08,0.101,1.92,0.467,2.542,1.072c0.735,0.716,1.159,1.772,1.25,3.195
				C954.206,268.059,953.069,268.574,951.867,268.949z M966.141,282.884c-0.123-0.017-0.228-0.05-0.357-0.062
				c-0.027-0.003-0.052-0.002-0.079-0.004c-2.114-0.183-4.197-0.021-6.274-0.551c-2.446-0.623-3.484-2.462-3.53-4.478
				c-0.021-1.044,0.226-2.127,0.693-3.125c0.399-0.85,0.948-1.626,1.63-2.249c-0.23-0.108-0.468-0.205-0.699-0.311
				c0.197-0.126,0.385-0.261,0.572-0.395c0.359-0.252,0.696-0.518,1.013-0.797c0.762-0.666,1.411-1.41,1.922-2.232
				c2.189,2.979,5.456,6.128,6.216,6.887c2.55,2.542,6.185,3.629,9.839,3.59c0.028,0.285,0.091,0.568,0.173,0.852
				c-0.091-0.033-0.176-0.069-0.267-0.101c-0.384-0.133-0.779-0.239-1.181-0.323c-1.466-0.585-2.967-0.649-4.395-0.298
				c-1.179,0.29-2.303,0.868-3.317,1.649C967.381,281.488,966.722,282.142,966.141,282.884z M987.423,290.454
				c-0.374,0.574-0.888,1.06-1.489,1.479c-0.841,0.588-1.857,1.032-2.89,1.381c-1.228,0.415-2.484,0.695-3.514,0.892
				c-3.338,0.639-7.041,0.328-9.497-2.237c-1.553-1.62-1.903-3.483-1.488-5.118c0.151-0.596,0.403-1.157,0.743-1.667
				c0.195,0.002,0.386,0.006,0.58,0.01c-0.141-0.083-0.28-0.166-0.423-0.249c0.201-0.27,0.421-0.526,0.667-0.757
				c0.477-0.449,1.035-0.811,1.649-1.071c0.235,0.028,0.492,0.038,0.789,0.007c2.141-0.227,4.21,0.158,6.086,1.213
				c1.079,0.605,2.175,1.437,3.303,1.502c1.198,0.961,2.381,1.764,3.242,2.302c0.766,0.48,1.593,0.961,2.454,1.431
				C987.654,289.863,987.616,290.156,987.423,290.454z M986.914,283.963c-2.144-1.296-4.343-2.821-5.916-4.791
				c-0.113-0.143-0.215-0.279-0.309-0.417c1.541-0.329,3.025-0.848,4.353-1.537c0.967-0.501,1.706-1.093,2.285-1.739
				c0.533,0.061,1.059,0.131,1.571,0.231c2.643,0.519,5.201,1.488,7.477,2.919c0.713,0.449,1.405,0.937,2.056,1.478
				c0.027,0.023,0.064,0.055,0.093,0.08c0.52,0.439,1.186,1.046,1.845,1.739c-0.049,0.075-0.098,0.149-0.143,0.225
				c-0.012,0.02-0.027,0.039-0.039,0.059c0.125-0.027,0.253-0.051,0.376-0.075c0.184,0.197,0.361,0.399,0.537,0.607
				c0,0.088,0.009,0.177,0.016,0.266c0.02,0.354,0.068,0.705,0.163,1.053c0.26,0.937,0.788,1.85,1.518,2.723
				c-0.093,0.256-0.268,0.482-0.512,0.684c-0.267,0.221-0.641,0.402-1.126,0.542c-0.166,0.046-0.315,0.098-0.51,0.133
				c-0.367-0.093-0.644-0.078-0.804,0.078c-0.152,0.016-0.303,0.033-0.451,0.043C994.96,288.544,990.548,286.158,986.914,283.963z
				 M1008.598,309.56c-3.369,0.191-6.821-1.192-9.73-2.751c-2.742-1.469-5.462-3.393-7.135-6.067
				c-0.461-0.738-0.515-1.443-0.353-2.104c5.76,3.695,11.534,7.367,17.383,10.899
				C1008.705,309.542,1008.657,309.558,1008.598,309.56z M1004.95,300.728c-4.48-2.904-8.926-5.87-13.381-8.816
				c0.064-0.134,0.116-0.271,0.172-0.406c4.102,1.608,8.603,2.349,12.472,0.541c0.16-0.074,0.287-0.162,0.432-0.241
				c0.566,0.273,1.146,0.501,1.745,0.683c0.859,0.53,1.773,1.025,2.717,1.481c-0.939-0.181-1.891-0.281-2.855-0.347
				c-0.498-0.035-1.186,0.045-1.632,0.286c-0.545,0.294-0.809,1.093-1.403,1.281c-0.076,0.024-0.076,0.117-0.005,0.147
				c0.704,0.298,0.674,1.137,1.304,1.536c0.079,0.049,0.17,0.079,0.253,0.121c0.011,0.006,0.007,0.024,0.025,0.025
				c0.005,0,0.003-0.008,0.008-0.009c0.915,0.465,2.077,0.603,3.037,0.879c1.237,0.354,2.445,0.678,3.649,1.144
				c1.114,0.431,2.404,0.285,3.56,0.561c0.573,0.139,1.149-0.433,0.829-1.003c-0.743-1.318-1.501-2.226-2.468-2.922
				c1.758,0.549,3.527,0.93,5.203,1.07c1.308,0.797,2.485,1.75,3.448,2.908c0.363,0.437,0.687,0.912,0.986,1.411
				c0.235,0.395,0.452,0.812,0.643,1.249c-0.119,0.055-0.237,0.116-0.355,0.167C1017.16,305.157,1010.886,303.44,1004.95,300.728z
				 M1026.948,313.724c-1.41,0.008-2.818-0.074-4.184-0.231c-2.286-0.264-4.397-1.515-6.445-2.949
				c0.436-0.685,0.672-1.469,0.642-2.341c0-0.021,0.001-0.041-0.002-0.063c3.512-0.109,6.867-0.917,9.753-2.544
				c0.83,0.215,1.652,0.393,2.469,0.547c-2.306,0.725-4.487,2.797-6.358,4.252c-0.149,0.114-0.019,0.304,0.122,0.328
				c3.712,0.631,7.367-1.252,10.792-2.413c0.581-0.195,0.654-0.832,0.201-1.207c-0.243-0.201-0.487-0.374-0.729-0.522
				c0.443,0.008,0.884,0.022,1.323-0.003c2.522,2.362,2.295,5.183-2.167,6.461C1030.622,313.539,1028.785,313.714,1026.948,313.724z
				 M1024.805,296.531c5.186,0.396,10.331,1.04,13.591,4.637c-0.494,0.251-1.021,0.452-1.555,0.642
				c-0.432,0.039-0.855,0.106-1.276,0.175c-2.623-1.682-5.844-2.772-8.818-2.962
				C1026.187,298.105,1025.525,297.288,1024.805,296.531z M1050.634,322.857c-0.174,0.243-0.344,0.48-0.511,0.713
				c-4.877-1.734-9.689-3.602-14.389-5.638c-0.476-0.208-0.943-0.44-1.416-0.653c1.284-0.399,2.455-0.965,3.456-1.689
				c1.218,0.377,2.31-0.087,3.506-0.407c1.644-0.441,3.909,0.112,5.559,0.351c0.199,0.029,0.392,0.078,0.588,0.114
				c1.313,0.481,2.575,1.045,3.758,1.689c0.375,0.205,0.763,0.397,1.12,0.616c0.424,0.257,0.972,0.641,1.55,1.099
				c0.228,0.18,0.459,0.375,0.69,0.576c-0.575,0.373-1.093,0.808-1.578,1.273C1052.073,321.307,1051.255,321.995,1050.634,322.857z
				 M1039.362,305.49c0.035-0.016,0.07-0.027,0.108-0.043c3.699,0.661,7.272,2.011,10.16,3.857
				c-2.021,0.365-3.902,0.905-5.568,1.583c-1.068-0.161-2.206-0.27-3.279-0.249C1041.019,308.795,1040.461,307.047,1039.362,305.49z
				 M1052.944,313.206c0.063,0.005,0.125,0.007,0.187,0.011c0.741,0.058,1.479,0.128,2.216,0.212
				c0.742,0.085,1.484,0.18,2.221,0.292c1.421,0.214,2.838,0.473,4.238,0.787c0.069,0.015,0.14,0.028,0.209,0.043
				c0.098,0.023,0.22,0.056,0.35,0.093c0.209,0.061,0.45,0.139,0.722,0.235c1.522,0.536,3.878,1.593,5.352,2.814
				c-1.896-0.364-3.853-0.513-5.759-0.422c-0.063,0.003-0.126,0.006-0.189,0.01c-0.056,0.004-0.118,0.006-0.176,0.009
				c-1.276,0.082-2.522,0.274-3.7,0.584c-0.13-0.132-0.262-0.252-0.394-0.378C1057.045,315.524,1055.121,314.161,1052.944,313.206z
				 M1075.37,330.915c-0.862,0.643-2.064,1.109-3.148,1.424c-0.706,0.205-1.359,0.35-1.821,0.433
				c-2.117,0.383-4.16,0.398-6.201,0.541c-1.574-0.069-3.142-0.237-4.68-0.521c-2.434-0.449-6.732-1.364-6.885-4.438
				c-0.073-1.414,1.045-3.705,2.364-5.266c0.623-0.248,1.256-0.486,1.919-0.665c0.698-0.187,1.412-0.343,2.139-0.453
				c0.765-0.118,1.541-0.185,2.318-0.22c1.876-0.085,3.757,0.058,5.52,0.409c0.988,0.197,1.93,0.458,2.817,0.779
				c0.245,0.088,0.491,0.174,0.724,0.273c0.259,0.106,0.502,0.225,0.746,0.342c0.104,0.05,0.219,0.095,0.321,0.147
				c0.477,0.245,0.94,0.519,1.387,0.817c-0.108,0.111-0.219,0.222-0.335,0.332c0.203-0.043,0.403-0.086,0.607-0.127
				c1.165,0.821,2.195,1.819,2.949,3.034C1076.948,329.1,1076.413,330.136,1075.37,330.915z M1072.809,314.371
				c0.281,0.074,0.554,0.15,0.827,0.229c-0.193,0.014-0.385,0.015-0.575,0.035C1072.976,314.548,1072.893,314.458,1072.809,314.371z
				 M1078.839,323.029c-0.333-0.392-0.71-0.764-1.114-1.121c-0.673-0.599-1.436-1.149-2.274-1.645
				c-0.072-0.043-0.145-0.088-0.22-0.13c0.111-1.007-0.089-2.042-0.558-3.092c2.293,1.114,4.532,2.45,6.811,3.407
				c1.5,0.63,2.953,1.393,4.15,2.512c1.219,1.141-4.33,2.054-4.773,2.059c-0.224,0.003-0.424,0.042-0.614,0.096
				c-0.254-0.478-0.539-0.95-0.879-1.409C1079.201,323.477,1079.028,323.25,1078.839,323.029z M1095.156,334.297
				c-0.16,0.18-0.356,0.327-0.533,0.497c-0.257,0.031-0.536,0.085-0.842,0.166c-1.035,0.275-1.691,1.144-2.397,1.885
				c-1.136,1.194-3.098,1.344-4.622,1.601c-2.709,0.458-7.819-1.323-7.1-4.569c0.017-0.075,0.007-0.146,0.012-0.219
				c0.426-0.523,0.794-1.064,1.049-1.633c0.394-0.872,0.569-1.788,0.585-2.719c1.908-0.153,4.606-0.904,6.594-2.161
				c1.361-0.386,2.546-1.024,3.259-2.044c0.128,0.058,0.26,0.105,0.387,0.165c1.018,0.492,2.003,1.143,2.839,1.941
				c0.222,0.21,0.434,0.431,0.63,0.663c0.342,0.4,0.637,0.833,0.891,1.29c0.168,0.305,0.321,0.62,0.443,0.952
				C1096.923,331.675,1096.231,333.1,1095.156,334.297z M1091.441,320.404c-0.052-0.136-0.104-0.275-0.167-0.407
				c1.027-0.281,2.056-0.546,3.09-0.761c3.526-0.734,9.604-1.51,12.96,0.442c0.266,0.155-1.734,2.218-3.994,4.397
				c-1.687,0.2-3.26,0.471-4.702,0.917C1096.76,322.55,1094.221,321.166,1091.441,320.404z M1114.617,334.218
				c-0.297,0.642-1.058,2.476-1.466,2.879c-1.31,1.299-3.576,1.87-5.256,2.458c-2.365,0.829-7.122,1.3-7.405-2.042
				c-0.014-0.161-0.019-0.32-0.025-0.48c0.008,0,0.019-0.002,0.026-0.002c-0.011-0.008-0.017-0.014-0.026-0.021
				c-0.027-0.632-0.016-1.253-0.018-1.867c0.117-0.016,0.245-0.024,0.391-0.019l-0.39-0.014c-0.002-0.232-0.007-0.463-0.018-0.692
				c0.136-0.384,0.273-0.769,0.353-1.164c0.277-1.347,0.222-2.747-0.123-4.122c0.923-0.312,1.916-0.675,2.924-1.102
				c0.259-0.031,0.517-0.056,0.777-0.083c0.082-0.008,0.164-0.018,0.245-0.026c0.152-0.014,0.3-0.025,0.452-0.038
				c2.354-0.192,4.716-0.149,6.96,0.574c0.912,0.292,1.776,0.717,2.568,1.247c0.317,0.214,0.607,0.47,0.897,0.723
				C1115.08,331.497,1115.331,332.68,1114.617,334.218z M1118.257,327.08c-2.214-1.813-4.633-2.711-7.176-3.085
				c0.219-0.091,0.439-0.185,0.645-0.267c2.847-1.138,5.854-1.786,8.933-1.682c1.271,0.043,3.663,0.375,3.106,2.078
				c-0.149,0.456-0.408,0.898-0.712,1.332c-0.974,0.426-1.923,0.884-2.836,1.324c-0.493,0.238-0.997,0.482-1.497,0.724
				C1118.571,327.361,1118.424,327.218,1118.257,327.08z M1137.091,330.151c-0.163,0.468-0.493,0.974-1.031,1.52
				c-0.322,0.322-0.689,0.585-1.038,0.87c-0.213,0.171-0.406,0.365-0.627,0.524c-0.578,0.414-1.191,0.769-1.826,1.091
				c-0.067,0.16-0.132,0.324-0.188,0.496c-0.1,0.314-0.184,0.64-0.266,0.967c-0.09,0.368-0.182,0.731-0.282,1.079
				c-0.102,0.355-0.216,0.694-0.366,0.985c-0.109,0.211-0.243,0.403-0.373,0.597c-0.634,0.942-1.49,1.695-2.487,2.244
				c-2.082,1.141-4.942,1.098-6.975-0.117c-0.655-0.391-1.088-0.882-1.391-1.435c-0.549-1.003-0.645-2.215-0.698-3.451
				c0.06-0.333,0.109-0.667,0.147-1.003c0.694-1.097,1.008-2.325,0.859-3.547c2.103-0.286,4.065-1.355,5.494-2.786
				c2.839-0.876,5.714-1.226,8.837-0.483c0.018,0.005,0.032,0.011,0.052,0.016c0.798,0.197,1.361,0.471,1.739,0.803
				C1137.177,328.965,1137.313,329.516,1137.091,330.151z M1148.267,338.268c-2.057,1.033-4.397,1.46-6.835,1.305
				c-1.053-0.067-2.124-0.233-3.201-0.52c-0.081-0.6-0.184-1.189-0.323-1.768c-0.161-0.683-0.4-1.346-0.683-2
				c0.471-0.257,0.934-0.543,1.378-0.883c0.137-0.104,0.255-0.227,0.383-0.343c2.725,2.095,6.703,3.444,10.443,3.528
				C1149.052,337.834,1148.667,338.067,1148.267,338.268z M1155.16,331.05c-0.294-0.093-0.651,0.035-0.79,0.378
				c-0.079,0.189-0.166,0.365-0.252,0.543c-0.091,0.066-0.176,0.135-0.269,0.195c-3.928,2.56-8.779,0.11-12.867-1.293
				c0.101-0.394,0.161-0.793,0.172-1.196c4.052-1.481,7.661-4.375,12.382-4.024C1157.34,325.936,1157.129,328.918,1155.16,331.05z
				 M1173.296,326.405c-0.119,0.353-0.274,0.69-0.451,1.021c-0.402,0.367-0.787,0.86-1.124,1.526
				c-0.064,0.126-0.14,0.244-0.208,0.369c-0.199,0.234-0.402,0.468-0.619,0.698c-1.145,1.227-2.474,2.436-3.636,3.842
				c-0.08,0.098-0.112,0.21-0.116,0.324c-0.003,0.11,0.035,0.219,0.088,0.322c-0.203,0.146-0.38,0.315-0.595,0.448
				c-3.088,1.917-4.989-0.235-7.298-1.777c1.963-2.293,3.158-5.233,2.235-7.992c1.134-0.38,2.217-0.691,2.87-0.922
				c2.838-0.996,5.888-1.623,8.914-1.726C1173.761,324.029,1173.681,325.283,1173.296,326.405z M1206.423,301.218
				c-6.636,7.649-14.371,14.675-22.829,20.251c-1.782,1.175-3.664,2.177-5.603,3.063c-0.147-1.766-0.696-3.534-1.367-5.086
				c-0.274-0.635-1.077-1.089-1.751-1.087c-4.04,0.008-7.986,1.032-11.669,2.658c-1.112,0.493-2.109,1.092-3.047,1.797
				c-1.007-1.06-2.281-1.628-3.672-1.87c-3.431-0.81-7.393,0.316-10.507,1.506c-0.234,0.089-0.461,0.197-0.694,0.29
				c-1.613,0.532-3.328,1.213-4.767,2.106c-0.477,0.229-0.959,0.446-1.433,0.682c-2.744-2.126-7.273-2.105-10.372-1.765
				c-0.148,0.016-0.295,0.046-0.442,0.068c0.175-2.025-0.845-4.035-3.75-5.367c-3.608-1.655-8.84-0.457-12.291,0.982
				c-0.219,0.092-0.416,0.198-0.629,0.294c-0.048-0.627-0.183-1.274-0.497-1.96c-1.58-3.448-7.699-3.073-10.634-2.99
				c-3.879,0.11-7.828,0.892-11.525,2.291c-2.112-1.833-4.945-3.152-7.079-4.13c-3.285-1.506-11.121-3.709-15.972-2.731
				c-3.047-1.017-6.478-1.502-9.892-1.494c-2.759-3.057-7.461-5.452-12.385-6.467c0.129-0.539,0.093-1.127-0.18-1.565
				c-2.915-4.689-9.213-7.207-15.705-8.008c0.313-0.749,0.516-1.61,0.587-2.599c0.391-5.401-7.514-8.518-12.568-10.091
				c0.716-2.468-0.748-5.132-2.559-7.053c-1.885-2-4.282-3.559-6.827-4.733c0.097-1.728-0.797-3.566-2.328-5.006
				c-5.426-5.1-12.091-6.111-18.875-5.777c1.72-3.907-5.247-8.879-7.937-10.169c-4.87-2.332-13.912-6.418-19.283-3.395
				c-0.64,0.36-1.256,0.734-1.844,1.128c-0.821-2.985-3.303-5.814-6.424-7.528c-6.863-3.766-17.711-3.05-25.139-0.381
				c-1.694-5.678-10.044-6.759-15.114-6.492c-5.365,0.283-14.092,2.345-15.055,8.82c-0.111,0.742-0.038,1.441,0.153,2.097
				c-6.829-0.219-16.053,2.328-21.706,6.568c-1.819-5.851-10.418-6.51-15.983-5.482c-9.002,1.66-19.941,7.754-23.284,16.726
				c-0.329,0.89,0.118,1.968,0.902,2.455c0.532,0.331,1.116,0.64,1.725,0.934c-2.155,1.039-4.502,2.607-6.117,4.557
				c-3.388-4.977-6.24-10.355-8.826-14.763c-8.19-13.957-9.864-28.681-5.48-43.366c20.262-26.98,61.871-36.065,93.121-36.849
				c21.852-0.548,42.263,3.045,62.245,11.815c21.326,9.363,42.583,20.497,60.121,36.015c15.461,13.682,30.552,28.044,47.981,39.245
				c8.422,5.412,17.589,9.6,27.01,12.927c9.272,3.275,18.079,6.467,28.046,5.827c16.534-1.061,36.479-8.812,46.496-22.48
				c9.151-12.486,11.253-29.207,7.693-43.984c-0.341-1.412-0.761-2.782-1.223-4.129c0.496-0.158,0.982-0.347,1.453-0.569
				c4.09-1.931,4.756-6.429,2.684-10.127c-1.611-2.88-4.25-5.185-7.213-6.557c-0.842-0.389-1.687-0.721-2.548-0.954
				c1.064-3.219,0.071-7.041-2.056-9.899c-2.772-3.722-6.978-6.847-11.727-6.927c-0.099-0.219-0.173-0.433-0.296-0.656
				c-1.556-2.842-4.613-4.694-7.623-5.619c-1.857-0.57-3.983-0.643-5.864-0.233c-0.182-0.622-0.46-1.217-0.857-1.719
				c-1.977-2.498-5.564-3.085-8.558-3.116c-2.135-0.022-6.019,0.756-8.913,2.323c-1.553-0.924-3.503-1.463-5.373-1.479
				c-4.736-0.042-11.832,1.631-14.872,5.597c-0.101,0.132-0.166,0.273-0.2,0.418c-4.616,0.62-8.931,3.03-9.964,7.442
				c-0.504,2.158-0.103,4.285,0.855,6.162c-2.814,1.494-4.827,4.559-5.879,7.459c-1.034,2.836-1.127,6.259,0.767,8.714
				c-0.084,0.114-0.101,0.273,0.024,0.395c0.898,0.875,1.94,1.498,3.059,1.898c-1.303,15.036,7.748,28.936,23.59,33.032
				c8.459,2.188,18.429,1.935,23.71-5.901c4.254-6.312,0.69-12.908-4.135-17.378c-0.089-0.521-0.384-1.022-0.956-1.399
				c-0.173-0.311-0.344-0.625-0.516-0.936c10.97,1.998,17.273,10.295,14.871,22.43c-0.856,4.328-2.694,7.89-5.212,10.744
				c-4.638-1.585-12.848-0.147-16.17,3.959c-1.353,0.034-2.642,0.368-3.829,0.915c-1.39-2.665-4.598-4.017-7.51-4.044
				c-1.759-0.018-3.644,0.529-4.512,1.909c-0.321-0.418-0.711-0.796-1.12-1.116c-3.044-2.395-8.135-4.063-11.95-2.854
				c-0.395,0.125-0.648,0.404-0.727,0.764c-0.83-0.341-1.687-0.61-2.564-0.758c0.289-2.666-1.971-5.406-4.656-6.536
				c-3.109-1.31-7.892-1.726-11.559-0.445c-1.369-1.645-2.646-3.401-3.786-5.313c-11.641-19.531-3.49-42.475,12.006-56.852
				c16.078-14.917,38.352-19.063,59.447-15.434c21.379,3.68,40.715,15.824,54.599,32.254c13.743,16.26,18.036,37.039,16.609,57.879
				C1228.345,265.769,1220.02,285.545,1206.423,301.218z"/>
		</g>
	</g>
</g>
<g>
	<path style="stroke:#000000;stroke-width:3;stroke-miterlimit:10;" d="M125.466,361.68l-6.462,0.925l-6.747-47.119l6.462-0.925
		c6.462-0.925,12.277,0.67,17.446,4.783c5.168,4.115,8.196,9.268,9.083,15.46s-0.573,11.989-4.379,17.388
		C137.063,357.593,131.929,360.755,125.466,361.68z M125.177,359.661c5.879-0.842,10.562-3.721,14.048-8.64
		c3.486-4.919,4.821-10.227,4.005-15.927c-0.816-5.699-3.587-10.42-8.313-14.163c-4.726-3.742-10.029-5.192-15.908-4.351
		l-4.442,0.636l6.169,43.08L125.177,359.661z"/>
	<path style="stroke:#000000;stroke-width:3;stroke-miterlimit:10;" d="M160.94,356.601l-2.019,0.289l-6.747-47.119l2.019-0.289
		L160.94,356.601z"/>
	<path style="stroke:#000000;stroke-width:3;stroke-miterlimit:10;" d="M276.987,336.87l24.694-4.047l-20.638-36.79l-8.223,43.587
		l-2.147,0.352l9.402-49.845l24.821,44.236l-27.58,4.52L276.987,336.87z"/>
	<path style="stroke:#000000;stroke-width:3;stroke-miterlimit:10;" d="M333.783,283.766l0.289,2.019l-15.819,2.265l6.458,45.1
		l-2.019,0.289l-6.458-45.1l-15.819,2.265l-0.289-2.019L333.783,283.766z"/>
	<g>
		<polygon points="213.246,303.733 235.428,300.447 239.927,297.768 210.986,302.057 217.793,347.995 245.224,343.93 
			244.933,341.961 219.47,345.734 		"/>
		<path d="M217.806,324.873l21.591-3.199l-0.705-4.761c0,0-18.143,2.88-19.006,2.932l-2.274,2.362l-2.561-17.285l17.399-2.578
			c0,0,2.786-0.499,6.67-1.075l4.188-5.4l-33.724,4.997l7.221,48.731l30.224-4.478l-0.706-4.762l-25.463,3.773L217.806,324.873z"/>
	</g>
	<polygon points="200.481,351.391 172.137,315.779 177.958,355.068 173.135,355.782 165.82,306.418 168.084,306.082 
		170.378,305.742 198.812,341.542 193.01,302.389 197.834,301.674 205.149,351.039 	"/>
</g>
<g>
	<g>
		<path d="M475.302,363.743l-3.131-0.393l4.59-36.524l-37.567-4.721l-4.59,36.524l-3.13-0.393l9.181-73.047l3.13,0.393
			l-4.197,33.393l37.567,4.721l4.197-33.393l3.131,0.393L475.302,363.743z"/>
		<polygon points="477.243,366.242 469.671,365.291 474.262,328.767 441.135,324.604 436.545,361.127 428.974,360.176 
			438.713,282.689 446.284,283.64 442.087,317.033 475.213,321.196 479.41,287.804 486.981,288.755 		"/>
	</g>
	<g>
		<path d="M498.235,363.445l38.401,4.826l-14.476-63.618l-31.31,61.044l-3.34-0.42l35.804-69.806l17.416,76.495l-42.889-5.39
			L498.235,363.445z"/>
		<polygon points="543.621,374.585 495.342,368.517 496.294,360.946 533.745,365.652 521.343,311.149 492.126,368.113 
			484.061,367.099 524.13,288.976 		"/>
	</g>
	<g>
		<path d="M790.992,400.239l38.402,4.826l-14.476-63.618l-31.31,61.044l-3.34-0.42l35.804-69.806l17.416,76.495l-42.889-5.39
			L790.992,400.239z"/>
		<polygon points="836.378,411.379 788.099,405.311 789.05,397.739 826.502,402.446 814.1,347.943 784.883,404.907 776.818,403.893 
			816.887,325.77 		"/>
	</g>
	<g>
		<path d="M590.273,375.012L582,338.78l6.264-2.605c5.132-2.04,8.061-5.947,8.787-11.722c1.355-10.783-6.177-17.207-22.594-19.27
			l-9.6-1.207l-8.787,69.917l-3.13-0.393l9.181-73.047l12.731,1.6c9.183,1.154,15.893,3.711,20.13,7.671
			c4.236,3.961,5.971,9.002,5.201,15.123c-0.874,6.958-4.439,11.703-10.694,14.239l-3.797,1.537l8.676,38.084L590.273,375.012z"/>
		<path d="M597.258,381.326l-9.878-8.933l-7.981-34.954l8.006-3.329c4.386-1.744,6.804-4.989,7.426-9.935
			c0.434-3.452,1.754-13.955-20.653-16.771l-7.38-0.928l-8.787,69.917l-7.571-0.952l9.739-77.487l14.951,1.879
			c9.617,1.209,16.809,3.986,21.379,8.256c4.772,4.461,6.754,10.193,5.894,17.037c-0.979,7.788-5.041,13.183-12.073,16.033
			l-2.033,0.823L597.258,381.326z"/>
	</g>
	<g>
		<path d="M647.665,382.225l-8.272-36.232l6.264-2.605c5.132-2.04,8.061-5.947,8.787-11.722c1.355-10.783-6.177-17.207-22.594-19.27
			l-9.6-1.207l-8.787,69.917l-3.13-0.393l9.181-73.047l12.731,1.6c9.183,1.154,15.893,3.711,20.131,7.671
			c4.235,3.96,5.971,9.002,5.201,15.123c-0.875,6.958-4.439,11.703-10.694,14.238l-3.797,1.537l8.676,38.084L647.665,382.225z"/>
		<path d="M654.651,388.539l-9.879-8.933l-7.981-34.954l8.006-3.329c4.386-1.744,6.804-4.989,7.426-9.935
			c0.434-3.452,1.754-13.955-20.653-16.771l-7.38-0.928l-8.787,69.917l-7.571-0.952l9.739-77.487l14.951,1.879
			c9.617,1.209,16.809,3.986,21.38,8.256c4.77,4.462,6.754,10.193,5.893,17.037c-0.979,7.788-5.041,13.184-12.074,16.033
			l-2.033,0.823L654.651,388.539z"/>
	</g>
	<g>
		<path d="M680.453,315.326l42.263,5.312L691.382,359.1l-3.935,31.306l-3.131-0.394l3.935-31.306l-20.842-45.019l3.652,0.459
			l19.188,41.314l26.438-32.4l-36.628-4.603L680.453,315.326z"/>
		<polygon points="689.388,392.905 681.817,391.953 685.95,359.063 663.682,310.963 672.568,312.08 690.773,351.277 
			712.398,324.776 677.56,320.397 678.511,312.827 727.001,318.921 693.522,360.015 		"/>
	</g>
	<g>
		<path d="M768.528,400.596l-3.131-0.394l4.59-36.524l-37.567-4.721l-4.59,36.524l-3.131-0.393l9.181-73.047l3.131,0.393
			l-4.197,33.393l37.567,4.721l4.197-33.393l3.131,0.394L768.528,400.596z"/>
		<polygon points="770.469,403.095 762.898,402.144 767.488,365.62 734.362,361.456 729.772,397.98 722.2,397.029 731.939,319.542 
			739.51,320.493 735.313,353.886 768.44,358.049 772.636,324.656 780.208,325.608 		"/>
	</g>
	<g>
		<path d="M903.034,343.3l-5.233,41.637c-1.399,11.132-4.342,19.083-8.828,23.853c-4.487,4.773-11.008,6.62-19.564,5.545
			c-8.557-1.075-14.419-4.479-17.585-10.214c-3.167-5.732-4.05-14.164-2.651-25.296l5.233-41.637l3.131,0.393l-5.233,41.637
			c-0.726,5.775-0.85,10.689-0.369,14.741c0.479,4.053,1.563,7.245,3.249,9.577c1.685,2.332,3.69,4.086,6.017,5.261
			c2.326,1.177,5.193,1.977,8.602,2.406c3.407,0.428,6.384,0.362,8.929-0.203c2.544-0.563,4.921-1.767,7.131-3.609
			c2.209-1.842,4.049-4.667,5.518-8.475c1.467-3.808,2.565-8.599,3.291-14.374l4.84-38.507L903.034,343.3z"/>
		<path d="M869.13,416.555c-9.268-1.165-15.749-4.985-19.266-11.352c-3.432-6.214-4.385-14.933-2.911-26.657l5.512-43.857
			l7.571,0.952l-5.512,43.857c-0.7,5.572-0.824,10.349-0.367,14.198c0.432,3.651,1.387,6.521,2.84,8.529
			c1.466,2.03,3.22,3.569,5.212,4.575c2.083,1.054,4.732,1.788,7.873,2.183c3.14,0.395,5.887,0.338,8.166-0.167
			c2.179-0.483,4.259-1.539,6.183-3.143c1.903-1.587,3.539-4.131,4.862-7.561c1.397-3.623,2.459-8.282,3.159-13.848l4.56-36.286
			l8.522-6.619l-5.512,43.857c-1.473,11.721-4.554,19.934-9.418,25.107C885.621,415.623,878.396,417.72,869.13,416.555z"/>
	</g>
	<g>
		<path d="M918.297,363.556c0.848-6.746,3.164-11.403,6.95-13.967c3.783-2.562,9.501-3.364,17.155-2.402
			c5.357,0.673,9.494,2.608,12.415,5.8c2.919,3.195,4.752,7.737,5.495,13.624l-3.403-1.594c-0.876-4.844-2.57-8.38-5.081-10.603
			c-2.513-2.224-5.786-3.589-9.82-4.096c-2.783-0.35-5.153-0.47-7.109-0.364c-1.958,0.108-3.956,0.547-5.995,1.314
			c-2.041,0.769-3.688,2.205-4.941,4.308c-1.255,2.105-2.099,4.896-2.536,8.373c-0.385,3.063,0.682,5.952,3.203,8.671
			c2.52,2.72,5.693,5.168,9.518,7.344c3.824,2.177,7.663,4.391,11.515,6.641c3.851,2.251,7.014,4.91,9.491,7.978
			c2.477,3.067,3.493,6.375,3.047,9.923c-0.874,6.957-3.247,11.925-7.12,14.899c-3.872,2.977-9.982,3.94-18.33,2.891
			c-6.819-0.857-12.003-2.904-15.553-6.143c-3.551-3.237-5.693-7.834-6.428-13.793l3.079-0.885
			c0.683,5.81,2.573,10.022,5.672,12.638c3.098,2.615,7.639,4.299,13.623,5.051c6.678,0.839,11.796,0.175,15.355-1.993
			c3.558-2.166,5.749-6.52,6.57-13.06c0.385-3.06-0.683-5.951-3.203-8.671c-2.52-2.719-5.711-5.17-9.571-7.351
			s-7.699-4.395-11.514-6.641c-3.818-2.246-6.964-4.904-9.44-7.971S917.851,367.105,918.297,363.556z"/>
		<path d="M932.472,424.516c-7.255-0.912-12.901-3.17-16.782-6.71c-3.939-3.591-6.343-8.695-7.141-15.172l-0.233-1.896l7.448-2.142
			l0.308,2.618c0.612,5.2,2.257,8.965,4.894,11.189c2.748,2.32,6.94,3.848,12.458,4.541c6.133,0.771,10.813,0.204,13.912-1.683
			c2.93-1.785,4.785-5.629,5.514-11.428c0.301-2.394-0.558-4.64-2.624-6.87c-2.353-2.539-5.391-4.868-9.03-6.924
			c-3.881-2.194-7.767-4.434-11.549-6.66c-4.03-2.372-7.41-5.229-10.046-8.494c-2.86-3.544-4.047-7.45-3.524-11.607
			c0.928-7.384,3.592-12.613,7.915-15.54c4.29-2.906,10.403-3.811,18.689-2.77c5.87,0.738,10.509,2.927,13.788,6.51
			c3.226,3.531,5.266,8.528,6.064,14.854l0.187,1.48l-8.331-3.932c-0.831-3.53-2.189-6.147-4.044-7.789
			c-2.156-1.91-5.055-3.104-8.616-3.552c-2.633-0.331-4.89-0.448-6.708-0.35c-1.718,0.096-3.512,0.49-5.33,1.174
			c-1.565,0.59-2.81,1.689-3.806,3.359c-1.089,1.827-1.841,4.352-2.237,7.507c-0.301,2.394,0.558,4.641,2.623,6.87
			c2.353,2.54,5.377,4.868,8.984,6.922c3.831,2.181,7.678,4.4,11.536,6.653c4.07,2.379,7.469,5.24,10.104,8.504
			c2.862,3.543,4.048,7.449,3.525,11.607c-0.948,7.541-3.632,13.057-7.977,16.395C948.046,424.561,941.513,425.653,932.472,424.516z
			"/>
	</g>
	<g>
		<polygon points="984.035,356.66 1019.307,361.093 1027.317,358.92 981.298,353.137 972.117,426.183 1015.737,431.665 
			1016.13,428.534 975.642,423.446 		"/>
		<path d="M981.99,390.883l34.332,4.315l0.951-7.57c0,0-28.931-3.334-30.272-3.621l-4.479,2.638l3.454-27.484l27.667,3.477
			c0,0,4.467,0.425,10.642,1.201l8.696-6.461l-53.625-6.74l-9.739,77.487l48.06,6.04l0.952-7.571l-40.488-5.089L981.99,390.883z"/>
	</g>
	<polygon points="1072.791,440.563 1045.046,374.959 1037.295,436.63 1029.723,435.678 1039.462,358.191 1043.016,358.638 
		1046.616,359.09 1074.418,425.014 1082.142,363.555 1089.714,364.507 1079.975,441.994 	"/>
	<g>
		<path d="M1102.46,391.049c0.896-0.948,2.088-2.987,3.579-6.122c1.489-3.134,2.439-6.335,2.85-9.606l-3.027-0.38l0.761-6.053
			l6.887,0.866c-1.32,10.505-4.203,18.27-8.652,23.293L1102.46,391.049z"/>
		<path d="M1105.094,396.155l-5.897-4.91l1.636-1.733c0.41-0.435,1.371-1.735,3.184-5.547c1.042-2.195,1.806-4.446,2.281-6.715
			l-2.936-0.369l1.319-10.493l11.328,1.424l-0.279,2.22c-1.371,10.913-4.466,19.155-9.196,24.498L1105.094,396.155z
			 M1108.361,372.999l2.355,0.296c0.093-0.527,0.181-1.061,0.264-1.604l-2.417-0.304L1108.361,372.999z"/>
	</g>
	<g>
		<path d="M1126.476,389.72c0.848-6.746,3.164-11.403,6.95-13.967c3.783-2.562,9.501-3.364,17.155-2.402
			c5.357,0.673,9.494,2.608,12.415,5.8c2.919,3.195,4.752,7.737,5.495,13.624l-10.622,6.085l-5.114-0.643l12.333-7.036
			c-0.876-4.844-2.57-8.38-5.081-10.603c-2.513-2.224-5.786-3.589-9.82-4.096c-2.783-0.35-5.153-0.47-7.109-0.364
			c-1.958,0.108-3.956,0.547-5.995,1.314c-2.041,0.769-3.688,2.205-4.941,4.308c-1.255,2.105-2.099,4.896-2.536,8.373
			c-0.385,3.063,0.682,5.952,3.203,8.671c2.52,2.72,5.693,5.168,9.518,7.344c3.824,2.177,7.663,4.391,11.515,6.641
			c3.851,2.251,7.015,4.91,9.491,7.978c2.477,3.067,3.493,6.375,3.047,9.923c-0.874,6.957-3.247,11.925-7.12,14.899
			c-3.872,2.977-9.982,3.94-18.33,2.891c-6.819-0.857-12.003-2.904-15.553-6.143c-3.551-3.237-5.693-7.834-6.428-13.793l3.079-0.885
			c0.683,5.81,2.573,10.022,5.672,12.638c3.098,2.615,7.639,4.299,13.623,5.051c6.678,0.839,11.796,0.175,15.355-1.993
			c3.558-2.166,5.749-6.52,6.571-13.06c0.385-3.06-0.683-5.951-3.203-8.671c-2.521-2.719-5.711-5.17-9.571-7.351
			c-3.86-2.181-7.699-4.395-11.514-6.64c-3.818-2.246-6.964-4.904-9.44-7.971S1126.03,393.269,1126.476,389.72z"/>
		<path d="M1140.651,450.68c-7.255-0.912-12.901-3.17-16.782-6.71c-3.939-3.591-6.343-8.695-7.141-15.172l-0.233-1.896l7.448-2.142
			l0.307,2.618c0.612,5.2,2.257,8.965,4.894,11.189c2.748,2.32,6.94,3.848,12.458,4.541c6.133,0.771,10.813,0.204,13.912-1.683
			c2.93-1.785,4.785-5.629,5.514-11.428c0.301-2.394-0.558-4.64-2.624-6.87c-2.353-2.539-5.391-4.868-9.03-6.924
			c-3.881-2.194-7.767-4.434-11.549-6.66c-4.03-2.372-7.41-5.229-10.046-8.494c-2.86-3.544-4.047-7.45-3.524-11.607
			c0.928-7.384,3.592-12.613,7.915-15.54c4.29-2.906,10.403-3.811,18.689-2.77c5.87,0.738,10.509,2.927,13.788,6.51
			c3.226,3.531,5.266,8.528,6.064,14.854l0.187,1.48l-12.566,7.199l-12.517-1.573l16.752-9.558c-0.832-3.53-2.189-6.147-4.044-7.789
			c-2.156-1.91-5.056-3.104-8.616-3.552c-2.633-0.331-4.891-0.448-6.708-0.35c-1.718,0.096-3.512,0.49-5.33,1.174
			c-1.565,0.59-2.81,1.689-3.806,3.359c-1.089,1.827-1.841,4.352-2.237,7.507c-0.301,2.394,0.557,4.641,2.623,6.87
			c2.354,2.54,5.377,4.868,8.984,6.922c3.831,2.181,7.678,4.4,11.536,6.653c4.07,2.379,7.469,5.24,10.104,8.504
			c2.862,3.543,4.048,7.449,3.525,11.607c-0.948,7.541-3.632,13.057-7.977,16.395
			C1156.226,450.725,1149.693,451.817,1140.651,450.68z"/>
	</g>
</g>
</svg>
