<?xml version="1.0" encoding="iso-8859-1"?>
<!-- Generator: Adobe Illustrator 21.0.2, SVG Export Plug-In . SVG Version: 6.00 Build 0)  -->
<svg version="1.1" id="Layer_1" xmlns="http://www.w3.org/2000/svg" xmlns:xlink="http://www.w3.org/1999/xlink" x="0px" y="0px"
	 viewBox="0 0 600 600" style="enable-background:new 0 0 600 600;" xml:space="preserve">
<g>
	<path style="fill-rule:evenodd;clip-rule:evenodd;fill:#FFFFFF;" d="M264.88,234.669c0-38.468-46.211-69.659-103.205-69.659l0,0
		c-57,0-103.211,31.191-103.211,69.659v244.337c0,38.474,46.211,69.659,103.211,69.659l0,0c56.994,0,103.205-31.185,103.205-69.659
		V234.669z"/>
	<g>
		<defs>
			<path id="SVGID_1_" d="M242.115,220.093c0-43.059-36.017-77.96-80.44-77.96l0,0c-44.428,0-80.445,34.901-80.445,77.96v273.49
				c0,43.059,36.017,77.966,80.445,77.966l0,0c44.423,0,80.44-34.907,80.44-77.966V220.093z"/>
		</defs>
		<clipPath id="SVGID_2_">
			<use xlink:href="#SVGID_1_"  style="overflow:visible;"/>
		</clipPath>
		<path style="clip-path:url(#SVGID_2_);fill-rule:evenodd;clip-rule:evenodd;fill:#F48164;" d="M242.115,220.093
			c0-43.059-36.017-77.96-80.44-77.96l0,0c-44.428,0-80.445,34.901-80.445,77.96v273.49c0,43.059,36.017,77.966,80.445,77.966l0,0
			c44.423,0,80.44-34.907,80.44-77.966V220.093z"/>
		<g style="clip-path:url(#SVGID_2_);">
			<polygon style="fill-rule:evenodd;clip-rule:evenodd;fill:#F16447;" points="166.412,126.316 156.126,118.468 -78.289,406.911 
				-68.003,414.758 			"/>
			<polygon style="fill-rule:evenodd;clip-rule:evenodd;fill:#F16447;" points="192.555,146.275 182.269,138.422 -52.146,426.865 
				-41.861,434.718 			"/>
			<polygon style="fill-rule:evenodd;clip-rule:evenodd;fill:#F16447;" points="218.692,166.229 208.406,158.376 -26.004,446.819 
				-15.724,454.672 			"/>
			<polygon style="fill-rule:evenodd;clip-rule:evenodd;fill:#F16447;" points="244.834,186.189 234.549,178.335 0.133,466.773 
				10.419,474.626 			"/>
			<polygon style="fill-rule:evenodd;clip-rule:evenodd;fill:#F16447;" points="270.977,206.142 260.692,198.289 26.276,486.732 
				36.562,494.585 			"/>
			<polygon style="fill-rule:evenodd;clip-rule:evenodd;fill:#F16447;" points="297.069,226.944 286.783,219.096 52.367,507.539 
				62.653,515.392 			"/>
			<polygon style="fill-rule:evenodd;clip-rule:evenodd;fill:#F16447;" points="323.211,246.903 312.926,239.05 78.516,527.498 
				88.796,535.346 			"/>
			<polygon style="fill-rule:evenodd;clip-rule:evenodd;fill:#F16447;" points="349.354,266.857 339.068,259.004 104.653,547.452 
				114.938,555.3 			"/>
			<polygon style="fill-rule:evenodd;clip-rule:evenodd;fill:#F16447;" points="375.491,286.816 365.205,278.963 130.795,567.401 
				141.081,575.253 			"/>
			<polygon style="fill-rule:evenodd;clip-rule:evenodd;fill:#F16447;" points="401.639,306.77 391.353,298.917 156.938,587.36 
				167.224,595.213 			"/>
		</g>
	</g>
	<path style="fill-rule:evenodd;clip-rule:evenodd;fill:#FFFFFF;" d="M526.501,120.994c0-38.468-46.211-69.659-103.211-69.659l0,0
		c-56.994,0-103.205,31.191-103.205,69.659v244.337c0,38.468,46.211,69.659,103.205,69.659l0,0c57,0,103.211-31.191,103.211-69.659
		V120.994z"/>
	<g>
		<defs>
			<path id="SVGID_3_" d="M503.736,106.417c0-43.059-36.017-77.966-80.445-77.966l0,0c-44.423,0-80.439,34.907-80.439,77.966v273.49
				c0,43.059,36.017,77.96,80.439,77.96l0,0c44.428,0,80.445-34.901,80.445-77.96V106.417z"/>
		</defs>
		<clipPath id="SVGID_4_">
			<use xlink:href="#SVGID_3_"  style="overflow:visible;"/>
		</clipPath>
		<path style="clip-path:url(#SVGID_4_);fill-rule:evenodd;clip-rule:evenodd;fill:#A1B83B;" d="M503.736,106.417
			c0-43.059-36.017-77.966-80.445-77.966l0,0c-44.423,0-80.439,34.907-80.439,77.966v273.49c0,43.059,36.017,77.96,80.439,77.96l0,0
			c44.428,0,80.445-34.901,80.445-77.96V106.417z"/>
	</g>
	<path style="fill-rule:evenodd;clip-rule:evenodd;fill:#11110E;" d="M541.536,271.326c0,7.006-5.863,12.688-13.092,12.688H318.143
		c-7.229,0-13.091-5.682-13.091-12.688v-56.334c0-7.006,5.863-12.688,13.091-12.688h210.301c7.229,0,13.092,5.682,13.092,12.688
		V271.326z"/>
	<g id="Tentacle_12_">
		<polygon style="fill:#8DAD60;" points="204.239,402.261 214.418,406.712 220.391,412.334 224.28,422.635 224.28,437.319 
			205.548,461.181 197.933,463.567 192.564,465.035 188.458,460.813 191.519,453.104 194.707,451.636 198.384,450.443 
			199.133,446.13 203.959,439.338 201.779,436.401 203.671,431.904 205.186,430.436 207.364,429.794 204.333,428.233 
			202.345,424.93 203.636,421.626 206.726,419.056 206.726,415.293 205.198,410.705 203.014,410.337 200.075,411.806 
			197.138,411.439 195.196,409.144 195.835,406.116 196.865,403.363 198.563,401.894 		"/>
		<path id="Suckers_3_" style="fill:#8DAD60;" d="M147.091,222.36l16.903,5.954l12.499,64.787l-27.13,55.452l-9.659,10.036
			l-15.198,18.44l-4.403,14.589l0.568,10.598l-2.719,11.012l-4.849,17.758v23.953l0.73,3.992l-4.668-5.406l-5.828-3.405l-1.915-4.13
			l-0.318-4.818l1.344-1.703l0.868-2.427l-2.259-0.138l-2.408-1.79l-0.565-3.992l1.848-4.818l-2.414-3.166l-0.568-5.506l2.699-3.579
			l-0.568-3.717l-1.42-4.13l3.125-7.571l-1.136-2.753l0.71-6.332l2.557-2.891l0.284-2.616l-0.284-4.956l0.284-3.992
			c0,0,2.273-5.644,4.403-5.644s10.653-22.99,10.653-22.99s-1.562-14.592,10.227-17.621c0,0-1.136-16.932,8.664-15.005
			c0,0-1.278-10.6,7.954-6.883c0,0-1.989-16.519,4.261-17.208l-1.278-12.94c0,0-4.119-6.47-2.131-13.904l-8.664-19.41l-0.852-5.231
			l1.42-4.681L147.091,222.36z"/>
		<polygon style="fill:#8DAD60;" points="171.664,395.745 171.57,401.527 166.74,406.299 167.119,412.356 165.935,437.686 
			163.355,440.623 160.786,438.604 158.887,433.006 158.031,429.518 156.894,424.379 155.757,420.249 155.946,414.559 
			158.881,412.173 158.691,410.062 158.786,405.749 161.153,402.904 163.805,402.445 164.846,401.344 164.941,398.04 
			166.646,394.093 168.918,392.533 170.291,393.267 		"/>
		<path id="Fill_6_" style="fill:#A1B83B;" d="M136.778,234.729c0,0,37.234-43.973,62.116-10.523c0,0,32.128,32.985,9.654,93.921
			c0,0-12.564,32.699-29.152,43.33c0,0-36.113,41.761-35.043,54.208c1.07,12.447-4.546,30.604,23.815,43.31
			c0,0,8.505,2.554,21.138-0.256c0,0,5.084,7.521,10.97-2.851c0,0,10.679,1.018,10.423-8.696c0,0,7.503-2.194,5.631-7.898
			c0,0,6.526-6.841,1.524-11.977c0,0,4.034-11.349-1.42-12.003c-5.455-0.653-0.906-0.653-0.906-0.653s-1.915-12.733-7.914-5.848
			c0,0-9.477-11.785-12.42-2.19c0,0-25.417-2.334-20.601,26.19c0,0,4.375,4.846,14.348-0.126c0.211-0.105,0.425-0.215,0.642-0.329
			c0,0,2.668,6.419-5.358,10.568c0,0-13.432,1.865-18.728-2.852c0,0,2.408-8.816-1.338-10.372l-1.338-3.63
			c0,0,3.211-5.186,2.408-6.742s3.683-4.729,1.702-8.88c-1.981-4.151-0.379-3.855-0.379-3.855s9.379-4.898,5.098-11.381
			c0,0,13.645-12.447,36.119-1.297c0,0,24.079,17.373,18.996,43.822c0,0-4.816,45.119-51.369,50.823c0,0-38.081,6.569-64.479-31.635
			l-2.14-3.63c0,0,7.313-1.037,2.675-9.681c0,0,0-2.074-1.427-11.409l-2.497-3.112l2.14-6.742l-0.178-1.383l3.032-2.42l0.892-3.112
			l-1.427-5.532l2.675-3.112l0.892-4.322l-0.178-4.495l-1.605-1.729c0,0,0.624-4.84,0.981-5.532
			c0.357-0.691,4.192-13.138,4.192-13.138v-2.074l3.612-8.211l1.382-4.754h1.962l2.854-1.858l1.249-6.331l1.07-2.561l3.389,1.918
			l3.567-5.351l2.675-3.453l4.102-1.035l2.319-2.765l0.535-1.728l3.746-2.766l3.032-7.433l1.07-4.149l4.281-1.729l2.943-4.84
			l0.624-3.457v-2.766l0.045-2.42l-0.111-1.556l-0.323-1.729l4.833-2.42l1.435-6.396l0.183-2.766l0.18-3.285l-0.712-4.149
			l-1.07-1.21l2.676-1.556l1.605-3.976l0.178-4.84l-0.178-3.803l-2.854-2.766l-2.675-1.21l-0.535-3.803l-2.497-6.223l-0.357-3.63
			l-2.388-3.352l2.923-0.97l0.892-3.976l-0.892-8.298l-2.14-3.285l-3.389-3.803l-2.14-2.42l-3.211,1.21l-0.357,1.037l-0.423-2.288
			l-2.253-2.206l-1.427-0.346C148.372,225.783,143.556,221.548,136.778,234.729z"/>
		<g id="Details_10_">
			<g>
				<path d="M108.875,377.671c-0.234-1.247-1.242-2.503-2.042-3.452c-0.19-0.226-0.534-0.05-0.558,0.202
					c-0.118,1.276-0.012,2.603,0.056,3.887c0.049,0.908-0.256,3.043,1.35,2.815C109.298,380.894,109.087,378.802,108.875,377.671z"
					/>
				<path d="M103.846,405.602c-0.077-0.372-0.164-0.715-0.333-1.057c-0.08-0.165-0.28-0.372-0.439-0.469
					c-0.25-0.155-0.653-0.113-0.781-0.452c-0.028-0.074-0.137-0.031-0.102,0.038c0.119,0.231-0.458,0.791-0.522,1.051
					c-0.09,0.369-0.119,0.742-0.175,1.114c-0.113,0.75,0.303,1.368,0.774,1.909c0.18,0.206,0.553,0.218,0.748,0.025
					C103.622,407.158,104.028,406.481,103.846,405.602z"/>
				<path d="M103.202,393.347c-0.16-1.065-0.887-1.97-0.978-3.052c-0.006-0.069-0.099-0.072-0.11-0.004
					c-0.168,1.073-0.958,1.927-1.195,2.978c-0.188,0.841-0.111,1.939,0.677,2.433c0.222,0.141,0.524,0.151,0.755,0.026
					C103.173,395.288,103.33,394.198,103.202,393.347z"/>
				<path d="M168.867,401.528c0.412-0.522,0.278-1.276,0.145-1.92c-0.068-0.332-0.182-0.768-0.349-1.067
					c-0.148-0.265-0.378-0.499-0.493-0.782c-0.058-0.142-0.311-0.151-0.378-0.013c-0.132,0.267-0.359,0.5-0.52,0.747
					c-0.215,0.329-0.331,0.932-0.337,1.316c-0.012,0.744,0.188,1.862,1.063,2.039C168.363,402.038,168.72,401.985,168.867,401.528z"
					/>
				<path d="M163.564,404.647c-0.055-1.001-1.407-1.01-1.573-0.053c-0.178,1.025-0.845,1.765-1.226,2.709
					c-0.254,0.626-0.397,2.298,0.732,2.27C163.687,409.52,163.645,406.118,163.564,404.647z"/>
				<path d="M209.561,414.212c0-0.401,0.193-0.732,0.132-1.128c-0.084-0.548-0.23-1.094-0.392-1.626
					c-0.259-0.848-0.806-1.767-0.945-2.632c-0.004-0.023-0.044-0.025-0.049-0.002c-0.081,0.346-0.357,0.725-0.47,1.07
					c-0.188,0.572-0.303,1.148-0.378,1.741c-0.067,0.541,0.067,1.322,0.339,1.798c0.326,0.569,0.705,0.707,1.268,1.031
					C209.27,414.582,209.561,414.456,209.561,414.212z"/>
				<path d="M204.856,450.28c2.214-2.396,2.781-6.067,1.868-9.123c-0.191-0.637-1.081-0.667-1.318-0.045
					c-0.445,1.174-0.538,2.465-0.894,3.674c-0.404,1.371-1.191,2.498-1.801,3.771C202.102,449.829,203.693,451.539,204.856,450.28z"
					/>
				<path d="M197.263,455.691c0.446-0.596,1.028-1.25,1.074-1.974c0.013-0.039,0.023-0.079,0.039-0.117
					c0.279-0.683-0.51-1.567-1.255-1.305c-0.029,0.011-0.106,0.035-0.18,0.06c-0.775,0.054-1.382,0.764-1.91,1.281
					c-0.812,0.797-1.789,1.707-1.615,2.909c0.084,0.577,0.666,0.868,1.19,0.943C195.703,457.647,196.693,456.453,197.263,455.691z"
					/>
				<path d="M108.272,449.402c0.984-0.517,1.071-2.005,0.734-2.904c-0.463-1.231-1.401-1.943-2.73-2.1
					c-0.316-0.038-0.668,0.12-0.903,0.349c-0.067,0.033-0.142,0.051-0.199,0.103c-0.15,0.135-0.231,0.313-0.254,0.507
					c-0.016,0.135,0.17,0.641,0.244,0.774c0.024,0.042,0.439,0.487,0.373,0.398c0.049,0.066,0.414,0.618,0.23,0.357
					c0.05,0.078,0.095,0.157,0.135,0.241c0.008,0.025,0.01,0.033,0.026,0.082c0.231,0.748,0.572,1.853,1.352,2.222
					c0.031,0.034,0.059,0.068,0.096,0.1c0.228,0.191,0.489,0.205,0.73,0.025C108.171,449.506,108.223,449.456,108.272,449.402z"/>
				<path d="M149.487,252.344c1.071-1.429-0.107-3.206-0.735-4.647c-1.062-2.441-1.577-5.316-3.126-7.527
					c-0.029-0.042-0.092-0.031-0.097,0.022c-0.229,2.238,0.713,4.343,1.146,6.506c0.357,1.783,0.106,4.918,2.029,5.817
					C148.997,252.653,149.29,252.608,149.487,252.344z"/>
				<path d="M150.565,273.843c0.965-1.189,0.023-3.827-0.099-5.214c-0.139-1.577-0.296-3.053-1.275-4.368
					c-0.049-0.065-0.15-0.024-0.174,0.039c-0.67,1.755-0.856,3.516-0.969,5.377c-0.088,1.438-0.154,4.004,1.601,4.493
					C150.022,274.272,150.335,274.125,150.565,273.843z"/>
				<path d="M157.613,241.214c0.406,1.503,0.892,3.671,2.471,4.342c0.297,0.127,0.746-0.1,0.809-0.408
					c0.327-1.63-0.936-3.51-1.493-5.03c-0.701-1.913-1.618-3.633-2.573-5.433c-0.017-0.031-0.076-0.022-0.073,0.017
					C156.96,236.936,157.02,239.021,157.613,241.214z"/>
				<path d="M135.198,321.2c0.107-0.574,0.201-1.132,0.138-1.716c-0.09-0.83-0.436-1.002-0.779-1.764
					c-0.011-0.026-0.053-0.026-0.066-0.002c-0.326,0.557-0.814,0.864-1.112,1.451c-0.275,0.538-0.452,1.117-0.661,1.679
					c-0.415,1.118-0.408,1.888,0.017,2.965c0.136,0.347,0.599,0.312,0.846,0.135C134.605,323.214,134.969,322.426,135.198,321.2z"/>
				<path d="M149.177,320.248c0.445-0.648,0.695-1.355,0.81-2.117c0.134-0.879-0.305-1.25-0.512-2.027
					c-0.007-0.025-0.041-0.025-0.05-0.002c-0.189,0.476-0.751,0.817-1.021,1.269c-0.291,0.486-0.663,0.993-1.048,1.413
					c-0.746,0.815-1.909,1.338-2.043,2.521c-0.024,0.213,0.118,0.442,0.3,0.55C147.003,322.689,148.455,321.302,149.177,320.248z"/>
				<path d="M142.423,312.146c0.337-0.204,0.677-0.401,1.027-0.583c0.342-0.175,0.569-0.448,0.876-0.64
					c0.239-0.151,0.283-0.487,0.023-0.648c-0.396-0.245-0.559-0.403-1.05-0.478c-0.572-0.086-1.182,0.001-1.731,0.174
					c-1.127,0.354-1.93,0.945-2.66,1.833c-0.734,0.892,0.561,2.078,1.504,1.564C141.108,312.989,141.747,312.554,142.423,312.146z"
					/>
				<path d="M160.108,287.168c0.076-2.777-1.073-5.642-0.366-8.42c0.185-0.727-0.863-1.283-1.276-0.574
					c-1.564,2.682-2.243,6.261-1.217,9.271C157.743,288.895,160.063,288.835,160.108,287.168z"/>
				<path d="M141.309,331.537c0.031-0.039,0.034-0.045,0.044-0.059c0.032-0.033,0.063-0.066,0.095-0.097l0.001-0.001
					c0.018-0.003,0.032-0.003,0.06-0.01c1.454-0.316,0.964-2.497-0.385-2.293c-1.143-0.051-2.093,0.558-2.653,1.592
					c-0.609,1.128,0.505,2.418,1.752,1.821C140.651,332.287,141.043,331.915,141.309,331.537z"/>
				<path d="M165.713,294.758c-0.17-1.147-2.083-1.194-2.35-0.08c-0.234,0.98-0.42,1.969-0.577,2.963
					c-0.158,0.996-0.39,2.193,0.368,2.989c0.203,0.212,0.551,0.332,0.845,0.247C166.292,300.212,165.976,296.532,165.713,294.758z"
					/>
				<path d="M105.598,423.167c0.562-1.499,0.112-3.171-1.097-4.256c-0.512-0.46-1.183-0.744-1.822-1.005
					c-0.708-0.29-1.333-0.209-2.05-0.19c-0.255,0.008-0.376,0.272-0.217,0.463c1.564,1.883,1.756,4.562,4.199,5.487
					C105.025,423.822,105.46,423.537,105.598,423.167z"/>
			</g>
			<g>
				<path d="M108.875,377.671c-0.234-1.247-1.242-2.503-2.042-3.452c-0.19-0.226-0.534-0.05-0.558,0.202
					c-0.118,1.276-0.012,2.603,0.056,3.887c0.049,0.908-0.256,3.043,1.35,2.815C109.298,380.894,109.087,378.802,108.875,377.671z"
					/>
				<path d="M103.846,405.602c-0.077-0.372-0.164-0.715-0.333-1.057c-0.08-0.165-0.28-0.372-0.439-0.469
					c-0.25-0.155-0.653-0.113-0.781-0.452c-0.028-0.074-0.137-0.031-0.102,0.038c0.119,0.231-0.458,0.791-0.522,1.051
					c-0.09,0.369-0.119,0.742-0.175,1.114c-0.113,0.75,0.303,1.368,0.774,1.909c0.18,0.206,0.553,0.218,0.748,0.025
					C103.622,407.158,104.028,406.481,103.846,405.602z"/>
				<path d="M103.202,393.347c-0.16-1.065-0.887-1.97-0.978-3.052c-0.006-0.069-0.099-0.072-0.11-0.004
					c-0.168,1.073-0.958,1.927-1.195,2.978c-0.188,0.841-0.111,1.939,0.677,2.433c0.222,0.141,0.524,0.151,0.755,0.026
					C103.173,395.288,103.33,394.198,103.202,393.347z"/>
				<path d="M168.867,401.528c0.412-0.522,0.278-1.276,0.145-1.92c-0.068-0.332-0.182-0.768-0.349-1.067
					c-0.148-0.265-0.378-0.499-0.493-0.782c-0.058-0.142-0.311-0.151-0.378-0.013c-0.132,0.267-0.359,0.5-0.52,0.747
					c-0.215,0.329-0.331,0.932-0.337,1.316c-0.012,0.744,0.188,1.862,1.063,2.039C168.363,402.038,168.72,401.985,168.867,401.528z"
					/>
				<path d="M163.564,404.647c-0.055-1.001-1.407-1.01-1.573-0.053c-0.178,1.025-0.845,1.765-1.226,2.709
					c-0.254,0.626-0.397,2.298,0.732,2.27C163.687,409.52,163.645,406.118,163.564,404.647z"/>
				<path d="M209.561,414.212c0-0.401,0.193-0.732,0.132-1.128c-0.084-0.548-0.23-1.094-0.392-1.626
					c-0.259-0.848-0.806-1.767-0.945-2.632c-0.004-0.023-0.044-0.025-0.049-0.002c-0.081,0.346-0.357,0.725-0.47,1.07
					c-0.188,0.572-0.303,1.148-0.378,1.741c-0.067,0.541,0.067,1.322,0.339,1.798c0.326,0.569,0.705,0.707,1.268,1.031
					C209.27,414.582,209.561,414.456,209.561,414.212z"/>
				<path d="M204.856,450.28c2.214-2.396,2.781-6.067,1.868-9.123c-0.191-0.637-1.081-0.667-1.318-0.045
					c-0.445,1.174-0.538,2.465-0.894,3.674c-0.404,1.371-1.191,2.498-1.801,3.771C202.102,449.829,203.693,451.539,204.856,450.28z"
					/>
				<path d="M197.263,455.691c0.446-0.596,1.028-1.25,1.074-1.974c0.013-0.039,0.023-0.079,0.039-0.117
					c0.279-0.683-0.51-1.567-1.255-1.305c-0.029,0.011-0.106,0.035-0.18,0.06c-0.775,0.054-1.382,0.764-1.91,1.281
					c-0.812,0.797-1.789,1.707-1.615,2.909c0.084,0.577,0.666,0.868,1.19,0.943C195.703,457.647,196.693,456.453,197.263,455.691z"
					/>
				<path d="M108.272,449.402c0.984-0.517,1.071-2.005,0.734-2.904c-0.463-1.231-1.401-1.943-2.73-2.1
					c-0.316-0.038-0.668,0.12-0.903,0.349c-0.067,0.033-0.142,0.051-0.199,0.103c-0.15,0.135-0.231,0.313-0.254,0.507
					c-0.016,0.135,0.17,0.641,0.244,0.774c0.024,0.042,0.439,0.487,0.373,0.398c0.049,0.066,0.414,0.618,0.23,0.357
					c0.05,0.078,0.095,0.157,0.135,0.241c0.008,0.025,0.01,0.033,0.026,0.082c0.231,0.748,0.572,1.853,1.352,2.222
					c0.031,0.034,0.059,0.068,0.096,0.1c0.228,0.191,0.489,0.205,0.73,0.025C108.171,449.506,108.223,449.456,108.272,449.402z"/>
				<path d="M149.487,252.344c1.071-1.429-0.107-3.206-0.735-4.647c-1.062-2.441-1.577-5.316-3.126-7.527
					c-0.029-0.042-0.092-0.031-0.097,0.022c-0.229,2.238,0.713,4.343,1.146,6.506c0.357,1.783,0.106,4.918,2.029,5.817
					C148.997,252.653,149.29,252.608,149.487,252.344z"/>
				<path d="M150.565,273.843c0.965-1.189,0.023-3.827-0.099-5.214c-0.139-1.577-0.296-3.053-1.275-4.368
					c-0.049-0.065-0.15-0.024-0.174,0.039c-0.67,1.755-0.856,3.516-0.969,5.377c-0.088,1.438-0.154,4.004,1.601,4.493
					C150.022,274.272,150.335,274.125,150.565,273.843z"/>
				<path d="M157.613,241.214c0.406,1.503,0.892,3.671,2.471,4.342c0.297,0.127,0.746-0.1,0.809-0.408
					c0.327-1.63-0.936-3.51-1.493-5.03c-0.701-1.913-1.618-3.633-2.573-5.433c-0.017-0.031-0.076-0.022-0.073,0.017
					C156.96,236.936,157.02,239.021,157.613,241.214z"/>
				<path d="M135.198,321.2c0.107-0.574,0.201-1.132,0.138-1.716c-0.09-0.83-0.436-1.002-0.779-1.764
					c-0.011-0.026-0.053-0.026-0.066-0.002c-0.326,0.557-0.814,0.864-1.112,1.451c-0.275,0.538-0.452,1.117-0.661,1.679
					c-0.415,1.118-0.408,1.888,0.017,2.965c0.136,0.347,0.599,0.312,0.846,0.135C134.605,323.214,134.969,322.426,135.198,321.2z"/>
				<path d="M149.177,320.248c0.445-0.648,0.695-1.355,0.81-2.117c0.134-0.879-0.305-1.25-0.512-2.027
					c-0.007-0.025-0.041-0.025-0.05-0.002c-0.189,0.476-0.751,0.817-1.021,1.269c-0.291,0.486-0.663,0.993-1.048,1.413
					c-0.746,0.815-1.909,1.338-2.043,2.521c-0.024,0.213,0.118,0.442,0.3,0.55C147.003,322.689,148.455,321.302,149.177,320.248z"/>
				<path d="M142.423,312.146c0.337-0.204,0.677-0.401,1.027-0.583c0.342-0.175,0.569-0.448,0.876-0.64
					c0.239-0.151,0.283-0.487,0.023-0.648c-0.396-0.245-0.559-0.403-1.05-0.478c-0.572-0.086-1.182,0.001-1.731,0.174
					c-1.127,0.354-1.93,0.945-2.66,1.833c-0.734,0.892,0.561,2.078,1.504,1.564C141.108,312.989,141.747,312.554,142.423,312.146z"
					/>
				<path d="M160.108,287.168c0.076-2.777-1.073-5.642-0.366-8.42c0.185-0.727-0.863-1.283-1.276-0.574
					c-1.564,2.682-2.243,6.261-1.217,9.271C157.743,288.895,160.063,288.835,160.108,287.168z"/>
				<path d="M141.309,331.537c0.031-0.039,0.034-0.045,0.044-0.059c0.032-0.033,0.063-0.066,0.095-0.097l0.001-0.001
					c0.018-0.003,0.032-0.003,0.06-0.01c1.454-0.316,0.964-2.497-0.385-2.293c-1.143-0.051-2.093,0.558-2.653,1.592
					c-0.609,1.128,0.505,2.418,1.752,1.821C140.651,332.287,141.043,331.915,141.309,331.537z"/>
				<path d="M165.713,294.758c-0.17-1.147-2.083-1.194-2.35-0.08c-0.234,0.98-0.42,1.969-0.577,2.963
					c-0.158,0.996-0.39,2.193,0.368,2.989c0.203,0.212,0.551,0.332,0.845,0.247C166.292,300.212,165.976,296.532,165.713,294.758z"
					/>
				<path d="M105.598,423.167c0.562-1.499,0.112-3.171-1.097-4.256c-0.512-0.46-1.183-0.744-1.822-1.005
					c-0.708-0.29-1.333-0.209-2.05-0.19c-0.255,0.008-0.376,0.272-0.217,0.463c1.564,1.883,1.756,4.562,4.199,5.487
					C105.025,423.822,105.46,423.537,105.598,423.167z"/>
			</g>
		</g>
		<g id="Outline_6_">
			<path style="fill:#565151;" d="M202.097,480.069c18.087-12.908,28.44-35.328,25.517-56.062
				c-2.292-17.869-19.2-37.654-39.836-35.507c-5.957,0.517-11.028,2.456-15.181,5.402c-0.023-0.097-0.035-0.197-0.072-0.294
				c-0.235-0.593-0.66-1.148-1.149-1.57c-0.126-0.109-0.276-0.187-0.433-0.254c-0.168-0.314-0.439-0.575-0.801-0.665
				c-4.856-1.205-6.507,4.393-6.147,9.148c-0.154,0.23-0.301,0.465-0.45,0.699c-3.503-0.106-6.611,3.29-6.457,6.773
				c0.062,1.376,0.35,2.953,1.081,4.117c-0.829,0.117-1.479,0.658-1.975,1.381c-1.379,1.428-2.093,3.527-1.948,5.592
				c0.038,0.534,0.178,1.077,0.395,1.6c0.062,2.194,0.707,4.59,1.188,6.553c0.305,1.24,0.762,3.153,1.646,4.573
				c-0.042,0.118-0.079,0.242-0.075,0.393c0.08,3.252,1.33,7.561,4.883,8.767c0.009,0.002,0.018,0.003,0.025,0.005
				c0.777,0.397,1.603,0.535,2.362,0.359c0.103,0.089,0.192,0.188,0.298,0.275c4.952,4.135,12.534,5.4,18.658,3.431
				c6.83-2.194,9.138-8.536,9.332-14.838c0.023-0.745-0.641-1.6-1.482-1.54c-2.392,0.166-3.745,0.7-5.062,2.722
				c-0.215,0.329-0.269,0.654-0.224,0.95c-2.307,2.02-5.378,3.089-8.44,1.548c-3.592-1.806-2.985-6.826-2.646-9.99
				c0.741-6.892,5.25-12.624,12.06-14.718c2.534-0.779,4.932-1.03,7.154-0.851c0.179,1.296,0.692,2.565,1.469,3.607
				c0.913,1.223,2.098,2.048,3.649,2.279c1.248,0.186,2.487-0.516,3.261-1.481c-0.299,2.02,0.06,4.072,0.383,6.168
				c-1.412,2.283-2.378,5.522-1.31,7.9c0.519,1.153,1.518,2.476,2.74,3.357c-0.897,0.393-1.588,1.167-2.225,1.881
				c-1.286,1.44-2.078,4.72-0.584,6.351c-0.269,0.274-0.531,0.568-0.773,0.906c-1.114,1.552-1.911,3.544-2.406,5.583
				c-0.474,1.359-0.749,3.024-0.689,4.667c-2.974-0.213-5.782,0.719-7.456,3.368c-0.577,0.914-0.943,1.953-1.113,3.025
				c-10.534,4.034-23.888,2.152-32.25-5.214c-5.229-4.607-7.447-11.092-9.401-17.458c-2.427-7.908-2.062-14.359,0.704-22.067
				c5.26-14.649,13.304-26.24,23.895-37.742c9.85-10.698,19.88-20.736,27.67-33.018c7.269-11.459,14.112-24.598,17.149-37.782
				c6.053-26.273,1.482-67.738-22.814-85.651c0.14-0.151,0.168-0.424-0.052-0.53c-0.973-0.474-1.921-0.96-2.863-1.442
				c-3.73-2.314-7.875-4.11-12.469-5.264c-0.097-0.024-0.139,0.109-0.047,0.144c0.998,0.372,1.961,0.79,2.906,1.231
				c-0.701-0.156-1.417-0.286-2.159-0.374c-6.712-0.794-12.521,0.097-18.771,2.629c-9.458,3.831-24.107,11.268-25.8,22.338
				c-0.955,6.244,1.45,11.966,3.895,17.63c1.516,3.512,2.989,6.999,4.299,10.534c-0.729,1.687-0.827,3.611-0.602,5.406
				c0.449,3.584,2.102,7.483,4.74,10.23c0.417,3.359,0.415,6.62,0.063,9.797c-3.188,2.548-4.456,8.621-3.633,13.803
				c-0.275,0.677-0.559,1.35-0.855,2.02c-1.475-0.492-3.047-0.309-4.609,0.415c-1.818,0.843-2.637,2.809-2.938,4.614
				c-0.144,0.867-0.225,1.74-0.227,2.614c-3.484-0.391-6.688,2.881-7.511,5.919c-0.85,3.14-0.037,6.806,1.73,9.574
				c-0.099,0.148-0.197,0.297-0.296,0.448c-0.571-0.38-1.311-0.579-2.259-0.501c-2.836,0.233-4.972,2.704-6.501,4.796
				c-1.873,2.564-3.163,5.888-3.178,9.045c-0.004,0.927,0.24,2.077,0.719,3.096c-1.939,1.821-3.088,4.229-3.403,7.098
				c-1.474,2.725-2.882,5.49-4.154,8.331c-0.149,0.333-0.289,0.672-0.435,1.007c-0.823,1.888-1.602,3.815-2.339,5.773
				c-0.013,0.197-0.014,0.388-0.021,0.584c-1.079-0.173-2.179,0.132-3.501,1.199c-4.231,3.418-4.394,12.579-2.174,17.167
				c-0.223,0.017-0.445,0.057-0.665,0.152c-1.414,0.611-2.042,2.09-3.065,3.149c-2.147,2.221-1.164,7.576,0.867,9.573
				c0.022,0.021,0.047,0.041,0.068,0.062c-0.183,0.038-0.365,0.061-0.551,0.123c-2.694,0.907-3.33,4.735-3.156,7.102
				c0.081,1.107,0.447,2.135,0.912,3.131c0.181,0.752,0.484,1.39,0.949,1.835c0.312,0.553,0.688,1.155,1.103,1.679
				c-0.003,0.19-0.01,0.381-0.01,0.57c-1.259,0.706-2.308,1.884-2.699,3.235c-0.858,2.966,0.262,6.371,2.715,8.203
				c-0.175,0.115-0.331,0.253-0.415,0.409c-2.48,4.558-1.19,12.08,3.829,13.47c0.144,0.04,0.305,0.053,0.454,0.084
				c0.12,0.205,0.249,0.411,0.393,0.613c-2.273,0.886-3.134,3.806-2.854,6.02c0.356,2.797,3.272,5.253,5.786,6.434
				c0.311,0.277,0.629,0.552,0.99,0.792c0.469,0.311,0.973,0.511,1.493,0.644c0.517,1.227,1.094,2.446,1.763,3.653
				c4.851,7.993,16.2,19.051,24.846,23.614C153.943,491.958,183.984,493.686,202.097,480.069z M166.708,402.357
				c-0.229-0.805-0.32-1.655-0.305-2.514c0.021-1.135,0.222-2.275,0.53-3.326c0.047-0.157,0.09-0.317,0.14-0.47
				c0.27-0.818,0.718-1.738,1.488-2.221c0.004,0.017,0,0.031,0.005,0.049c0.105,0.416,0.341,0.717,0.62,0.991
				c-0.016,0.011-0.035,0.024-0.047,0.031c-0.112,0.047-0.037,0.206,0.073,0.184c0.074-0.012,0.124-0.01,0.19-0.018
				c0.197,0.177,0.402,0.349,0.597,0.54c0.181,0.177,0.377,0.287,0.576,0.351c0.048,0.278,0.087,0.588,0.154,0.959
				c0.046,0.264,0.072,0.534,0.095,0.802c0.099,1.12,0.025,2.274-0.121,3.369c-0.227,1.705-1.673,3.925-2.9,3.166
				c-0.176-0.608-0.514-1.25-0.97-1.761C166.791,402.444,166.75,402.401,166.708,402.357z M160.052,409.925
				c-0.097-0.273-0.175-0.575-0.233-0.89c-0.015-0.08-0.024-0.158-0.036-0.236c-0.229-1.443-0.067-2.724,0.826-3.955
				c0.38-0.522,0.879-0.963,1.448-1.315c0.7-0.431,1.504-0.715,2.315-0.849c0.01,0.041,0.022,0.081,0.032,0.122
				c0.028-0.048,0.056-0.097,0.085-0.143c0.178-0.025,0.356-0.04,0.533-0.049c0.067,0.176,0.14,0.352,0.202,0.54
				c0.069,0.213,0.057,0.454,0.11,0.673c-0.096-0.389,0.047,0.53,0.083,0.671c0.022,0.085,0.027,0.17,0.044,0.254
				c-0.054,0.098-0.109,0.194-0.162,0.292c0.076,0.124,0.155,0.24,0.236,0.349c0.021,0.575-0.059,1.146-0.23,1.708
				c-0.372,1.227-1.186,2.395-2.249,3.196c-0.309,0.232-0.637,0.439-0.984,0.6c-0.069,0.032-0.127,0.04-0.191,0.065l-0.979,0.042
				C160.505,410.835,160.236,410.44,160.052,409.925z M166.407,410.236c-0.228,1.529-0.776,3.064-1.517,4.394
				c-0.147,0.264-0.777,1.34-1.018,1.36c0.036-0.002-0.01-0.046-0.081-0.096c-0.044-1.001-0.234-1.974-0.569-2.844
				C164.507,412.461,165.602,411.403,166.407,410.236z M157.222,416.109c0.214-1.119,0.308-2.068,1.364-2.783
				c0.238-0.161,0.338-0.339,0.391-0.549c0.372,0.308,0.803,0.547,1.323,0.665c0.158,0.036,0.325,0.059,0.499,0.075
				c0.063,0.15,0.121,0.299,0.178,0.451c0.137,0.492,0.278,0.983,0.328,1.455c0.159,1.504-0.51,2.607-1.508,3.754
				C158.282,420.917,156.988,417.336,157.222,416.109z M163.576,418.527c0.004,0.003,0.006,0.005,0.011,0.007
				c0.618,0.251,0.663,0.169,0.65,0.757c-0.011,0.496-0.003,0.991-0.106,1.481c-0.22,1.059-0.74,2.254-1.579,3.023
				c-0.383-0.419-0.811-0.798-1.283-1.124C162.451,421.749,163.221,420.22,163.576,418.527z M160.209,431.16
				c-0.389-0.138-0.753-0.625-1.173-1.511c-0.929-1.952-1.338-4.053-1.597-6.181c-0.007-0.055-0.013-0.109-0.02-0.164
				c0.006,0.003,0.012,0.005,0.017,0.009c0.607,0.235,1.27,0.32,1.965,0.202c0.067-0.013,0.134-0.016,0.201-0.031
				c0.296-0.067,0.571-0.175,0.837-0.298c0.24,0.255,0.467,0.534,0.68,0.825c0.706,0.964,1.241,2.09,1.419,3.177
				c0.052,0.313,0.066,0.621,0.054,0.922c-0.012,0.312-0.06,0.616-0.149,0.904c-0.096,0.309-0.231,0.603-0.427,0.871
				c-0.057,0.077-0.106,0.13-0.16,0.202C161.176,430.966,160.671,431.326,160.209,431.16z M161.412,437.364
				c-0.444-0.655-0.852-1.33-1.213-2.028c-0.211-0.638-0.33-1.311-0.385-1.983c0.23,0.034,0.458,0.048,0.681,0.023
				c0.134-0.018,0.265-0.042,0.396-0.077c0.611-0.166,1.181-0.538,1.674-1.024c0.481-0.473,0.89-1.047,1.192-1.635
				c0.231,0.415,0.429,0.839,0.599,1.221c0.667,1.508,0.874,3.083,0.568,4.641c-0.058,0.303-0.13,0.603-0.228,0.902
				c-0.078,0.237-0.217,0.59-0.375,0.85C163.323,439.228,162.09,438.037,161.412,437.364z M199.511,411.114
				c-0.779-0.146-1.393-0.838-1.823-1.435c-0.266-0.371-0.499-0.768-0.71-1.176c-0.182-0.35-0.347-0.708-0.481-1.077
				c0.027-0.195,0.062-0.384,0.103-0.572c0.127-0.601,0.332-1.15,0.628-1.615c0.087-0.137,0.166-0.281,0.271-0.4
				c1.004-1.139,2.885-0.795,4.166-0.404c0.788,0.241,2.076,0.86,3.159,1.673c-0.327,0.761-0.629,1.531-1.225,2.119
				c-0.577,0.571-1.278,1.01-1.929,1.501c-0.182,0.051-0.361,0.134-0.519,0.272c-0.052,0.045-0.107,0.097-0.162,0.155
				C200.593,410.565,200.102,411.225,199.511,411.114z M205.808,414.565c-0.039-0.805-0.091-1.606-0.238-2.401
				c0.125-0.169,0.16-0.386,0.047-0.573c0.048-0.131,0.09-0.266,0.144-0.391c0.095-0.218,0.209-0.426,0.322-0.63
				c0.023-0.001,0.047-0.004,0.07-0.02c0.3-0.226,0.55-0.451,0.77-0.684c0.32-0.338,0.559-0.69,0.689-1.07
				c0.767-0.555,1.714-0.891,2.879-0.878c3.792,0.041,3.738,5.113,3.36,8.304c-0.534-0.46-1.158-0.813-1.864-0.975
				c-0.476-0.109-0.875-0.093-1.242-0.008c-0.006,0-0.011,0.005-0.017,0.006c-1.071-0.234-2.158-0.032-3.101,0.898
				c-0.611,0.602-1.045,1.252-1.36,1.932C205.927,416.913,205.864,415.739,205.808,414.565z M215.463,418.39
				c0.499-0.884,0.817-1.957,0.97-3.095c0.739,1.587,1.187,3.381,1.465,4.992c0.185,1.071,0.271,2.344-0.081,3.424
				c-0.25-0.163-0.512-0.292-0.789-0.37c-0.265-1.726-0.781-3.423-1.57-4.945C215.458,418.396,215.462,418.393,215.463,418.39z
				 M205.8,427.826c-1.195-0.7-1.895-1.975-2.212-3.243c-0.38-1.518,0.254-2.972,0.58-4.429c0.118,0.275,0.237,0.536,0.357,0.774
				c0.296,0.592,0.744,1.15,1.279,1.636c0.38,2.145,1.423,4.296,2.534,6.122c-0.081,0.026-0.154,0.063-0.23,0.094
				C207.36,428.425,206.547,428.266,205.8,427.826z M210.823,426.612c-0.716-1.185-1.311-2.377-1.661-3.701
				c-0.009-0.055-0.013-0.111-0.021-0.165c-0.037-0.229-0.088-0.454-0.133-0.681c-0.105-1.237-0.035-3.616,1.01-3.685
				c2.027-0.133,2.864,3.109,3.269,4.464c0.191,0.641,0.364,1.294,0.497,1.954c-0.058,0.04-0.111,0.087-0.172,0.123
				c-0.041,0.028-0.008,0.09,0.036,0.066c0.051-0.027,0.104-0.053,0.154-0.08c0.084,0.432,0.144,0.868,0.187,1.305
				c-0.085,0.133-0.075,0.294,0.039,0.43c0.003,0.058,0.013,0.115,0.016,0.174c0.046,1.025-0.57,1.876-0.687,2.89
				c-0.003,0.028,0.007,0.06,0.006,0.089c-0.011,0.019-0.022,0.031-0.034,0.049C213.151,430.132,210.95,426.825,210.823,426.612z
				 M217.14,428.263c0.058-0.236,0.101-0.479,0.127-0.732c0.203-0.058,0.398-0.135,0.586-0.233c0.557,1.201,0.757,2.673,0.783,3.873
				c0.026,1.207-0.09,2.826-0.932,3.801c-0.236,0.274-0.599,0.433-1.007,0.527c-0.346-0.381-0.756-0.682-1.245-0.862
				c-0.016-0.098-0.05-0.186-0.07-0.284c-0.034-0.17-0.077-0.339-0.124-0.506c-0.056-0.217-0.094-0.448-0.162-0.654
				c-0.066-0.203-0.146-0.4-0.227-0.596C216.382,431.915,216.94,429.955,217.14,428.263z M204.173,433.25
				c0.313-0.977,0.938-1.434,1.682-1.76c-0.152,0.458-0.268,0.933-0.345,1.406c-0.15,0.915-0.177,2.13,0.263,3.037
				c0.005,0.044,0.01,0.088,0.016,0.132c-0.014,0.2,0.013,0.384,0.075,0.552c-0.561-0.119-1.127-0.094-1.681,0.037
				C203.519,435.48,203.713,434.688,204.173,433.25z M210.479,438.964c-0.404-0.344-0.796-0.767-1.091-1.116
				c-0.086-0.099-0.164-0.206-0.243-0.311c0.045-0.282,0.055-0.565-0.03-0.902c-0.058-0.231,0.022-0.897-0.236-0.38
				c0.174-0.348,0.343-0.781,0.337-1.178c-0.017-1.111-0.218-2.431,0.474-3.391c0.111-0.155,0.404-0.166,0.664-0.143
				c0.054,0.092,0.12,0.179,0.212,0.246c0.022,0.014,0.042,0.019,0.063,0.032c0.087,0.058,0.172,0.102,0.256,0.139
				c0.385,0.324,0.802,0.6,1.249,0.784c-0.439,0.991-0.3,2.108-0.293,3.19c0.005,0.686,0.18,3.148-0.926,3.069
				c-0.121-0.008-0.228,0.016-0.331,0.043C210.549,439.017,210.514,438.993,210.479,438.964z M215.506,437.585
				c0.01,0.005,0.021,0.01,0.032,0.015c0.262,1.123,0.096,2.436-0.329,3.614c-0.42,1.169-1.2,2.173-2.183,2.9
				c-0.188-0.801-0.44-1.578-0.774-2.305c1.246-0.295,2.214-1.311,2.774-2.533C215.266,438.752,215.416,438.177,215.506,437.585z
				 M200.955,451.146c-0.077-0.167-0.137-0.338-0.202-0.509c-0.027-0.07-0.059-0.14-0.084-0.212
				c0.243-0.238,0.418-0.563,0.461-0.989c0.085-0.86,0.204-1.702,0.343-2.539c0.25-1.502,0.589-2.979,1.09-4.459
				c0.738-2.184,1.828-3.817,3.843-3.232c0.345,0.101,0.712,0.258,1.114,0.497c0.055,0.033,0.109,0.042,0.163,0.062
				c0.102,0.12,0.214,0.23,0.323,0.344c0.435,0.46,0.925,0.868,1.474,1.185c0.17,0.098,0.347,0.184,0.529,0.261
				c0.416,1.269,0.644,2.588,0.754,3.623c0.005,0.047,0.012,0.097,0.016,0.143c0.029,0.304,0.035,0.594,0.027,0.88
				c-0.011,0.337-0.045,0.66-0.106,0.973c-0.325,1.69-1.34,3.073-2.721,4.384c-1.897,1.796-4.623,2.549-6.289,0.711
				C201.413,451.966,201.164,451.599,200.955,451.146z M191.958,456.585c0.063-0.869,0.317-1.721,0.744-2.476
				c0.037-0.066,0.068-0.135,0.108-0.199c0.732-1.186,1.909-1.758,3.197-1.916c0.755-0.093,1.547-0.045,2.311,0.11
				c0.002,0,0.004,0,0.004,0c0.058,0.174,0.128,0.336,0.197,0.502c0.22,0.538,0.477,1.049,0.822,1.489
				c0.035,0.044,0.074,0.081,0.11,0.124c0.183,0.22,0.377,0.418,0.58,0.596c-0.518,1.143-1.29,2.243-1.709,2.805
				c-0.828,1.111-2.125,2.108-3.417,2.659c-1.314,0.56-2.247-0.216-2.675-1.463c-0.023-0.066-0.037-0.137-0.057-0.204
				C191.976,457.957,191.907,457.27,191.958,456.585z M143.033,229.086c1.047-1.091,2.227-2.109,3.487-3.064
				c1.595,0.823,3.27,3.387,4.289,5.777c-0.313,1.293-0.497,2.663-0.525,4.023c-0.527-0.659-1.197-1.28-2.036-1.866
				c-1.656-1.157-3.487-1.109-5.005-0.328C142.842,232.136,142.707,230.603,143.033,229.086z M154.557,229.78
				c3.598,1.85,5.925,5.938,7.489,9.378c2.005,4.411,2.427,8.951-1.258,11.969c-0.964-0.919-2.022-1.579-3.159-1.857
				c-0.641-2.747-1.886-6.284-3.72-9.131c-0.261-0.988-0.44-2.004-0.533-3.024c0.686-0.924,0.568-2.667,0.194-4.349
				C153.773,231.725,154.098,230.72,154.557,229.78z M138.986,241.922c-0.716-3.137-0.299-5.887,0.853-8.327
				c0.139,0.991,0.395,1.938,0.765,2.783c-0.157,0.318-0.293,0.649-0.416,0.989c-0.738,1.511-1.039,3.26-0.717,4.744
				c0.009,0.747,0.061,1.511,0.157,2.283C139.395,243.576,139.176,242.754,138.986,241.922z M143.953,243.193
				c-0.131-0.726-0.362-2.254-0.29-3.641c0.023-0.429,0.076-0.841,0.168-1.215c0.138-0.563,0.367-1.032,0.732-1.315
				c-0.056-0.114-0.102-0.236-0.157-0.351c0.818-0.444,1.963-0.151,3.132,0.427c1.145,1.078,2.107,2.509,2.909,4.023
				c0.218,0.411,0.426,0.828,0.622,1.247c0.731,1.561,1.309,3.12,1.758,4.382c0.621,1.744,1.792,7.938,0.064,9.726
				c-0.111,0.116-0.231,0.216-0.367,0.293c-0.146,0.081-0.309,0.134-0.484,0.164c-0.595,0.107-1.367-0.081-2.368-0.69
				C145.888,253.943,144.66,247.094,143.953,243.193z M161.457,266.577c0.342-1.03-0.024-2.18-0.008-3.248
				c0.02-1.308,0.127-2.608,0.131-3.915c0.003-0.679-0.947-1.01-1.333-0.398c-0.632,1.004-1.393,2.745-1.587,4.389
				c-0.853-3.001-0.875-6.35-0.075-8.835c0.089-0.278-0.14-0.605-0.439-0.622c0.042-0.893-0.008-1.78-0.121-2.602
				c2.374,3.099,4.046,6.083,5.009,10.145c0.526,2.224,0.611,4.481,0.028,6.693c-0.305,1.16-0.315,1.506-1.095,0.842
				c-0.631-0.537-1.181-1.195-1.661-1.926C160.773,267.247,161.292,267.076,161.457,266.577z M150.746,277.429
				c-0.024-0.021-0.046-0.049-0.07-0.07c-0.857-0.8-1.66-1.833-2.342-2.996c-1.32-2.249-2.159-4.979-1.974-7.478
				c0.079-1.053,0.345-2.059,0.834-2.971c0.412-0.77,0.967-1.479,1.727-2.077c0.753-0.59-0.009-1.586-0.813-1.47
				c-0.83,0.121-1.529,0.228-2.144,0.429c-0.645-1.573-1.313-3.137-1.977-4.702c0.746,1.109,1.54,2.092,2.362,2.864
				c1.852,1.738,4.523,2.436,6.948,1.811c1.364,4.583,2.235,9.408,1.392,13.969c-0.131,0.709-0.292,1.402-0.506,1.994
				c-0.156,0.273-0.302,0.555-0.444,0.853c-0.026,0.055-0.045,0.114-0.07,0.169C153.064,278.581,152.165,278.729,150.746,277.429z
				 M169.31,282.335c1.445-0.859,1.196-2.178,1.328-3.689c0.147-1.694,0.106-3.318,0.038-4.976c0.259,0.911,0.419,1.752,0.501,2.231
				c0.448,2.649,0.599,7.55-2.694,8.604c-0.938-1.364-2.388-2.34-3.928-2.675c-0.169-0.922-0.387-1.803-0.644-2.625
				c0.091-0.283,0.131-0.581,0.118-0.888c0.589-0.842,0.781-2.223,0.751-3.098c0,0-0.001-0.003-0.001-0.004
				c0.385-1.262,0.852-2.53,1.318-3.725c0.236-0.604,0.766-1.798,1.482-1.833c0.886-0.043,1.578,0.619,2.111,1.541
				c-0.357,0.034-0.698,0.273-0.763,0.74c-0.273,1.966-0.907,3.904-1.25,5.87c-0.289,1.655-0.835,3.373,0.695,4.495
				C168.62,282.486,169.049,282.491,169.31,282.335z M158.643,272.939c0.043-0.856,0.047-1.713-0.033-2.572
				c0.96,1.112,2.121,1.942,3.497,2.153c0.242,0.037,0.47,0.048,0.691,0.045c-0.001,0.39,0.028,0.781,0.072,1.174
				c-0.159,0.229-0.288,0.487-0.398,0.75C161.512,273.434,160.042,272.739,158.643,272.939z M151.136,281.888
				c0.233,0.069,0.465,0.12,0.693,0.155c0.056,1.644,0.181,3.277,0.318,4.905c-0.306-0.026-0.639,0.034-0.95,0.112
				C151.253,285.337,151.243,283.612,151.136,281.888z M152.698,282.102c-0.001,0.012-0.001,0.022-0.003,0.033
				c-0.005-0.011-0.011-0.022-0.017-0.032C152.684,282.101,152.691,282.103,152.698,282.102z M156.091,283.953
				c-0.038-1.351,0.102-2.683,0.453-3.975c0.386-0.509,0.724-1.098,0.999-1.768c0.114-0.277,0.199-0.562,0.295-0.844
				c0.186-0.228,0.369-0.458,0.511-0.714c0.045-0.076,0.079-0.157,0.121-0.235l0.001,0c1.146-0.076,1.912-0.171,2.433,0.867
				c0.077,0.153,0.146,0.309,0.214,0.464c0.249,1.38,0.394,2.973,0.48,4.304c0.036,0.558,0.063,1.063,0.081,1.493
				c0.024,0.542,0.039,0.969,0.049,1.182c0.011,0.236,0.025,0.491,0.039,0.756c0.08,1.483,0.156,3.319-0.447,4.563
				c-0.231,0.476-1.494,3.445-2.28,3.054c-0.163-0.082-0.318-0.182-0.464-0.298c-0.223-0.175-0.421-0.394-0.606-0.636
				c-0.321-0.42-0.588-0.927-0.809-1.488C156.3,288.482,156.134,285.494,156.091,283.953z M137.086,341.056
				c0.435-0.129,0.869-0.301,1.296-0.508c0.049,0.45,0.109,0.866,0.181,1.246c-0.161,0.939-0.378,1.871-0.652,2.783
				c-0.669,2.227-1.659,4.332-2.921,6.126c-2.22,3.158-2.705-0.642-2.583-3.075c0.032-0.072,0.067-0.14,0.098-0.212
				c0.563-1.329,0.895-2.761,1.155-4.193c0.332-0.699,0.713-1.36,1.15-1.972C135.534,341.375,136.309,341.287,137.086,341.056z
				 M141.091,343.954c0.481-1.803,0.946-4.033,0.941-6.142c0.916-0.969,1.673-2.036,2.303-3.183
				c0.223,1.458,0.638,2.866,1.347,4.084c0.117,0.2,0.245,0.377,0.377,0.541c-0.597,1.072-1.297,2.089-2.131,3.011
				C143.249,343.015,141.92,344.242,141.091,343.954z M148.225,337.411c-0.28-0.266-0.525-0.743-0.742-1.444
				c-0.038-0.123-0.075-0.247-0.111-0.382c-0.633-2.384-0.54-4.606-0.111-6.778c1.513-0.314,3.033-1.197,4.229-2.278
				c0.853-0.77,1.515-1.68,2.064-2.657c0.184,0.43,0.393,0.826,0.625,1.192c-0.615,3.802-1.269,7.64-3.449,10.873
				c-0.476,0.706-0.901,1.191-1.283,1.464C148.978,337.737,148.575,337.741,148.225,337.411z M145.077,324.926
				c-0.326-0.593-0.534-1.362-0.655-2.114c-0.136-0.835-0.17-1.642-0.155-2.127c0.107-3.283,2.815-4.925,5.247-6.728
				c0.941-0.698,2.442-1.936,2.481-3.274c0.171-0.127,0.33-0.276,0.486-0.435c0.308,0.587,0.665,1.134,1.067,1.636
				c0.078,2.887-0.762,5.839-1.766,8.509c-0.75,1.992-1.803,3.574-3.546,4.789c-0.207,0.144-0.418,0.285-0.645,0.419
				c-0.265,0.156-0.503,0.239-0.729,0.292c-0.202,0.046-0.392,0.059-0.565,0.033c-0.435-0.066-0.783-0.331-1.058-0.728
				c0.021-0.314,0.038-0.629,0.053-0.942C145.216,324.477,145.143,324.699,145.077,324.926z M155.228,321.917
				c-0.059-0.217-0.109-0.435-0.156-0.658c-0.003-0.025-0.007-0.049-0.011-0.075c0-0.003-0.007-0.002-0.007-0.005
				c-0.043-0.211-0.08-0.425-0.116-0.641c0.41-1.385,0.689-2.81,0.926-4.173c0.103-0.597,0.207-1.529,0.211-2.528
				c3.04,1,4.614-3.681,5.102-6.054c1.074,1.269,1.773,3.177,1.731,4.312c-0.106,2.876-1.38,5.906-2.616,8.487
				c-0.614,1.285-1.542,2.335-2.623,3.275C156.097,325.225,155.528,323.007,155.228,321.917z M156.885,310.618
				c-0.031,0.034-0.048,0.047-0.07,0.067c-0.121-0.103-0.338-0.297-0.457-0.429c-0.9-0.999-1.48-2.419-1.847-3.85
				c0.627-1.969,0.924-4.018,1.032-5.065c0.212-2.067,0.268-4.37,0.136-6.728c0.383,0.462,0.813,0.846,1.294,1.134
				c0.062,0.247,0.323,0.359,0.541,0.277c0.143,0.058,0.289,0.108,0.439,0.148c1.151,1.12,1.193,3.801,1.203,5.061
				c0.009,1.104-0.158,2.148-0.366,3.189c-0.033,0.164-0.064,0.328-0.099,0.495c-0.046-0.023-0.091-0.04-0.138-0.063
				c-0.103-0.051-0.261,0.05-0.183,0.165c0.076,0.111,0.16,0.198,0.238,0.302c-0.026,0.122-0.052,0.246-0.079,0.37
				c-0.061,0.284-0.123,0.567-0.181,0.858c-0.003,0.014-0.006,0.031-0.009,0.045C158.086,307.857,157.784,309.609,156.885,310.618z
				 M161.581,304.963c0.159-1.628,0.163-3.24-0.137-4.919c-0.317-1.775-1.023-2.98-2.281-3.747c4.361-0.15,5.929-5.198,5.808-10.437
				c0.393,0.257,0.819,0.462,1.269,0.61c1.811,2.569,1.749,6.81,1.656,9.495c-0.136,3.941-1.525,9.076-5.288,9.697
				C162.294,305.398,161.957,305.159,161.581,304.963z M147.062,300.031c-0.003-0.15-0.013-0.3-0.014-0.449
				c-0.005-1.76,0.491-3.295,1.201-4.74c-0.254,1.223-0.529,2.44-0.737,3.67c-0.15,0.893-0.389,1.84-0.378,2.75
				C147.098,300.853,147.072,300.443,147.062,300.031z M147.811,304.556c-0.086-0.235-0.145-0.475-0.214-0.715
				c-0.167-0.578-0.285-1.165-0.369-1.756c0.077,0.338,0.2,0.667,0.405,0.979c0.311,0.475,0.922,0.48,1.269,0.043
				c0.895-1.129,0.77-2.588,0.889-3.951c0.145-1.644,0.246-3.267,0.094-4.914c-0.04-0.444-0.501-0.753-0.897-0.742
				c0.628-1.057,1.321-2.088,2.012-3.127c0.106-0.16,0.202-0.326,0.307-0.486c0.14-0.054,0.28-0.108,0.42-0.168
				c-0.329,0.141,0.281-0.095,0.366-0.125c0.091-0.031,0.181-0.063,0.27-0.095c0.21,2.492,0.388,4.975,0.344,7.464
				c-0.021,1.197-0.1,2.398-0.246,3.599c-0.04,0.334-0.082,0.668-0.134,1.004c-0.142,0.908-0.325,1.821-0.566,2.736
				c-0.069,0.712-0.317,1.265-0.729,1.674c-0.487,0.484-1.204,0.763-2.172,0.824C148.415,306.097,148.065,305.348,147.811,304.556z
				 M138.339,313.96c0.012-0.081,0.034-0.15,0.042-0.235c0.002-0.018,0.001-0.034,0.003-0.052c0.125-1.393,0.014-2.765,0.375-4.134
				c0.424-1.611,1.674-2.295,3.044-2.325c0.71-0.014,1.446,0.149,2.124,0.457c0.578,0.263,1.105,0.625,1.529,1.074
				c0.073-0.152,0.14-0.308,0.211-0.461c0.085,0.13,0.177,0.253,0.268,0.377c0.171,0.236,0.352,0.458,0.542,0.667
				c0.453,0.502,0.958,0.93,1.517,1.266c-2.025,1.442-4.165,3.594-4.681,4.095c-1.728,1.68-2.467,4.074-2.44,6.482
				c-0.194,0.018-0.386,0.06-0.579,0.114c0.022-0.06,0.047-0.116,0.069-0.176c0.09-0.253,0.163-0.513,0.22-0.778
				c0.398-0.966,0.441-1.955,0.203-2.895c-0.197-0.777-0.59-1.517-1.121-2.185C139.288,314.777,138.843,314.343,138.339,313.96z
				 M133.193,327.98c-0.39-0.246-0.721-0.585-1.005-0.981c-0.4-0.554-0.701-1.223-0.939-1.904c-0.282-0.809-0.473-1.636-0.606-2.315
				c-0.434-2.199-0.223-4.639,1.521-6.256c1.101-1.023,2.368-1.254,3.479-0.98c0.405,0.1,0.786,0.266,1.133,0.49
				c-0.001,0.128-0.004,0.254-0.007,0.382c0.056-0.093,0.113-0.184,0.169-0.279c0.183,0.132,0.357,0.277,0.515,0.44
				c0.305,0.314,0.551,0.682,0.728,1.086c-0.019,0.155-0.026,0.324-0.005,0.52c0.154,1.41-0.108,2.773-0.824,4.009
				c-0.411,0.711-0.977,1.433-1.021,2.176c-0.653,0.789-1.199,1.569-1.565,2.136c-0.326,0.505-0.654,1.049-0.973,1.617
				C133.594,328.132,133.395,328.108,133.193,327.98z M137.605,327.645c0.881-1.412,1.917-2.861,3.257-3.898
				c0.097-0.075,0.19-0.141,0.283-0.204c0.224,1.015,0.576,1.993,1.045,2.868c0.34,0.637,0.743,1.124,1.182,1.506
				c-0.041,0.351-0.089,0.698-0.157,1.035c-0.353,1.741-1.012,3.427-1.984,4.926c-0.305,0.47-0.637,0.925-1.005,1.354
				c-0.016,0.018-0.037,0.042-0.054,0.061c-0.298,0.343-0.711,0.782-1.182,1.215c-0.051-0.032-0.101-0.064-0.153-0.094
				c-0.013-0.008-0.027-0.018-0.04-0.026c0.018,0.083,0.034,0.167,0.051,0.247c-0.134,0.122-0.271,0.238-0.412,0.354
				c-0.06,0-0.12,0.006-0.181,0.01c-0.24,0.013-0.48,0.045-0.716,0.108c-0.637,0.171-1.258,0.519-1.851,1
				c-0.174-0.061-0.328-0.176-0.465-0.337c-0.15-0.176-0.274-0.422-0.368-0.742c-0.031-0.109-0.067-0.208-0.091-0.336
				c0.063-0.242,0.053-0.424-0.053-0.529c-0.011-0.1-0.023-0.199-0.029-0.297C134.491,332.946,136.113,330.039,137.605,327.645z
				 M120.205,341.931c-0.13-2.22,0.81-4.494,1.87-6.41c0.999-1.806,2.307-3.598,4.124-4.7c0.502-0.303,0.981-0.339,1.43-0.233
				c-2.512,3.795-5.008,7.599-7.409,11.452C120.217,342.001,120.207,341.969,120.205,341.931z M126.209,339.527
				c1.974-2.951,3.99-5.88,5.993-8.815c0.091,0.042,0.184,0.077,0.276,0.113c-1.093,2.702-1.597,5.667-0.368,8.217
				c0.051,0.106,0.11,0.189,0.164,0.285c-0.185,0.373-0.341,0.755-0.464,1.15c-0.36,0.566-0.697,1.168-1.007,1.79
				c0.123-0.619,0.191-1.246,0.236-1.881c0.024-0.328-0.031-0.781-0.194-1.075c-0.2-0.359-0.743-0.533-0.871-0.924
				c-0.016-0.05-0.08-0.05-0.1-0.003c-0.202,0.464-0.773,0.444-1.044,0.859c-0.034,0.052-0.054,0.112-0.083,0.167
				c-0.004,0.007-0.017,0.005-0.017,0.016c0,0.003,0.006,0.002,0.006,0.005c-0.316,0.603-0.41,1.368-0.597,2.001
				c-0.241,0.815-0.461,1.61-0.778,2.404c-0.293,0.734-0.193,1.584-0.381,2.345c-0.094,0.378,0.294,0.757,0.682,0.546
				c0.896-0.489,1.513-0.989,1.986-1.626c-0.373,1.158-0.632,2.323-0.728,3.428c-0.542,0.861-1.19,1.637-1.977,2.272
				c-0.297,0.239-0.62,0.453-0.959,0.65c-0.269,0.155-0.552,0.298-0.849,0.424c-0.038-0.079-0.079-0.156-0.113-0.234
				C123.198,347.571,124.366,343.438,126.209,339.527z M117.375,354.019c-0.005-0.929,0.05-1.856,0.157-2.756
				c0.18-1.506,1.03-2.897,2.004-4.246c0.466,0.288,0.999,0.443,1.592,0.423c0.014,0,0.028,0,0.043-0.001
				c0.074,2.314,0.624,4.524,1.729,6.425c-0.146,0.547-0.267,1.088-0.372,1.627c-0.493-1.519-1.901-2.956-2.891-4.189
				c-0.078-0.098-0.207-0.012-0.223,0.08c-0.429,2.445,0.851,4.853,1.64,7.11c0.133,0.383,0.565,0.431,0.821,0.133
				c0.137-0.16,0.254-0.321,0.355-0.48c-0.005,0.292-0.015,0.583,0.002,0.872c-1.605,1.662-3.523,1.512-4.392-1.428
				C117.5,356.44,117.381,355.23,117.375,354.019z M129.062,352.608c-0.269,3.416-0.707,6.806-3.152,8.954
				c-0.17-0.325-0.307-0.672-0.437-1.024c-0.026-0.285-0.072-0.563-0.119-0.841c1.144-1.728,1.884-3.85,2.013-5.81
				C127.992,353.518,128.547,353.082,129.062,352.608z M111.167,369.624c-0.165-0.115-0.326-0.227-0.485-0.337
				c1.179-3.213,2.448-6.383,3.833-9.48c0.141-0.314,0.299-0.621,0.444-0.933c0.271,0.846,0.656,1.618,1.148,2.277
				c-0.256,0.802,0.059,1.522,0.277,2.31c0.3,1.083-0.076,2.575-0.238,3.662c-0.02,0.131-0.053,0.258-0.078,0.387
				c-0.327,0.865-0.71,1.696-1.148,2.476c-0.14,0.247-0.27,0.503-0.419,0.738c-0.175,0.279-0.435,0.641-0.747,1.021
				c-0.122,0.15-0.255,0.302-0.392,0.454c-0.253-0.379-0.549-0.72-0.866-1.04C112.22,370.572,111.753,370.033,111.167,369.624z
				 M122.972,362.198c0.011,0.023,0.018,0.046,0.029,0.071c-0.449,2.437-1.367,4.791-2.622,6.693
				c-0.248-1.332-0.615-2.571-1.076-3.668c0.109-0.704,0.184-1.454,0.169-2.16C120.725,363.289,121.914,362.922,122.972,362.198z
				 M117.727,371.146c-0.003,0.041-0.005,0.082-0.007,0.123c-0.039,0.488-0.087,0.974-0.144,1.46
				c-0.058,0.489-0.122,0.977-0.198,1.463c-0.146,0.936-0.322,1.869-0.535,2.792c-0.01,0.046-0.019,0.093-0.029,0.138
				c-0.016,0.065-0.038,0.145-0.063,0.23c-0.041,0.137-0.094,0.297-0.16,0.476c-0.364,1.003-1.083,2.555-1.913,3.526
				c0.248-1.249,0.349-2.538,0.287-3.794c-0.002-0.041-0.004-0.083-0.007-0.125c-0.002-0.037-0.004-0.077-0.006-0.116
				c-0.056-0.84-0.186-1.662-0.397-2.438c0.089-0.086,0.171-0.173,0.257-0.26C116.151,373.847,117.078,372.58,117.727,371.146z
				 M105.689,385.92c-0.437-0.568-0.754-1.36-0.968-2.074c-0.139-0.465-0.238-0.895-0.295-1.2c-0.261-1.394-0.271-2.741-0.367-4.085
				c0.047-1.037,0.161-2.07,0.354-3.083c0.305-1.604,0.927-4.435,3.017-4.536c0.961-0.048,2.518,0.689,3.58,1.557
				c0.169,0.41,0.33,0.827,0.452,1.264c0.127,0.46,0.233,0.93,0.308,1.409c0.08,0.504,0.126,1.015,0.15,1.527
				c0.058,1.236-0.039,2.475-0.278,3.637c-0.134,0.651-0.311,1.271-0.53,1.856c-0.06,0.161-0.119,0.323-0.186,0.477
				c-0.072,0.171-0.153,0.331-0.233,0.492c-0.034,0.069-0.064,0.144-0.1,0.212c-0.166,0.314-0.352,0.619-0.555,0.914
				c-0.076-0.071-0.151-0.144-0.226-0.221c0.029,0.133,0.058,0.266,0.086,0.4c-0.558,0.768-1.236,1.446-2.062,1.943
				C106.923,386.96,106.219,386.607,105.689,385.92z M116.935,384.233c-0.05,0.185-0.102,0.365-0.155,0.545
				c-0.009-0.127-0.01-0.254-0.023-0.379C116.815,384.343,116.876,384.288,116.935,384.233z M111.05,388.206
				c0.267-0.219,0.519-0.468,0.762-0.734c0.407-0.443,0.781-0.946,1.118-1.498c0.029-0.047,0.06-0.095,0.089-0.145
				c0.684,0.073,1.388-0.059,2.102-0.368c-0.757,1.511-1.665,2.986-2.316,4.487c-0.429,0.988-0.947,1.946-1.707,2.734
				c-0.776,0.803-1.396-2.853-1.4-3.144c-0.002-0.147-0.028-0.28-0.066-0.404c0.325-0.167,0.646-0.355,0.958-0.579
				C110.745,388.444,110.9,388.33,111.05,388.206z M103.391,398.955c-0.122-0.105-0.222-0.235-0.338-0.351
				c-0.021-0.169-0.058-0.353-0.113-0.555c-0.187-0.682-0.778-1.114-1.281-1.579c-0.811-0.748-0.914-2.041-1.088-3.045
				c-0.312-1.785,0.899-5.151,3.106-4.677c0.051,0.011,0.099,0.005,0.149,0.008c0.355,0.281,0.723,0.523,1.11,0.691
				c0.593,0.259,1.216,0.375,1.848,0.385c0.104,1.257,0.614,3.035,1.469,4.344c0.263,0.897,0.696,1.677,1.39,2.147
				c-0.039,0.084-0.071,0.171-0.112,0.255c-0.335,0.671-0.777,1.32-1.32,1.871c-0.143,0.146-0.293,0.286-0.451,0.415
				c-0.272,0.225-0.566,0.42-0.877,0.587c-0.208,0.111-0.422,0.211-0.647,0.292C105.173,400.119,104.204,399.663,103.391,398.955z
				 M112.834,396.508c0.093-0.034,0.187-0.068,0.276-0.11c0.191,0.677,0.371,1.354,0.517,2.036c0.499,2.323,1.026,6.327-0.301,8.538
				c-0.105,0.175-1.508-1.142-2.989-2.631c-0.136-1.112-0.32-2.148-0.623-3.098C111.375,400.012,112.316,398.339,112.834,396.508z
				 M103.444,411.776c-0.436-0.196-1.683-0.697-1.957-0.966c-0.883-0.863-1.271-2.356-1.671-3.462
				c-0.564-1.558-0.884-4.692,1.388-4.878c0.109-0.009,0.218-0.012,0.326-0.017c0,0.005,0.001,0.012,0.002,0.017
				c0.005-0.007,0.009-0.011,0.014-0.017c0.43-0.018,0.852-0.011,1.269-0.012c0.011,0.077,0.016,0.162,0.013,0.257l0.009-0.257
				c0.158-0.002,0.314-0.005,0.47-0.012c0.261,0.089,0.523,0.18,0.791,0.233c0.916,0.183,1.867,0.146,2.802-0.081
				c0.212,0.608,0.459,1.262,0.749,1.926c0.021,0.171,0.038,0.341,0.056,0.512c0.005,0.054,0.012,0.108,0.018,0.162
				c0.009,0.1,0.017,0.198,0.026,0.297c0.13,1.551,0.101,3.107-0.39,4.585c-0.199,0.601-0.488,1.17-0.847,1.692
				c-0.145,0.209-0.319,0.4-0.491,0.591C105.294,412.081,104.489,412.247,103.444,411.776z M108.296,414.174
				c1.232-1.458,1.843-3.053,2.097-4.728c0.062,0.144,0.126,0.289,0.182,0.425c0.774,1.876,1.214,3.856,1.143,5.885
				c-0.029,0.837-0.255,2.413-1.413,2.047c-0.31-0.098-0.611-0.269-0.906-0.469c-0.289-0.642-0.601-1.267-0.9-1.868
				c-0.162-0.325-0.327-0.657-0.492-0.986C108.105,414.381,108.203,414.284,108.296,414.174z M106.208,426.582
				c-0.318-0.107-0.662-0.325-1.033-0.68c-0.219-0.212-0.398-0.454-0.592-0.684c-0.117-0.14-0.248-0.267-0.356-0.413
				c-0.281-0.381-0.523-0.785-0.742-1.203c-0.109-0.044-0.22-0.087-0.337-0.124c-0.213-0.066-0.435-0.121-0.657-0.175
				c-0.25-0.059-0.497-0.12-0.733-0.186c-0.242-0.067-0.472-0.142-0.67-0.241c-0.144-0.072-0.274-0.16-0.406-0.246
				c-0.64-0.417-1.152-0.982-1.526-1.639c-0.775-1.372-0.746-3.256,0.08-4.595c0.266-0.432,0.6-0.716,0.975-0.917
				c0.682-0.362,1.506-0.425,2.346-0.46c0.226,0.039,0.454,0.072,0.682,0.097c0.746,0.457,1.58,0.664,2.411,0.566
				c0.195,1.385,0.921,2.678,1.893,3.619c0.595,1.87,0.833,3.765,0.328,5.822c-0.003,0.012-0.007,0.021-0.011,0.034
				c-0.134,0.526-0.32,0.896-0.546,1.146C107.015,426.639,106.641,426.728,106.208,426.582z M100.691,433.945
				c-0.702-1.355-0.993-2.897-0.887-4.503c0.046-0.694,0.158-1.399,0.354-2.109c0.408-0.053,0.808-0.121,1.202-0.212
				c0.464-0.106,0.915-0.264,1.36-0.45c0.175,0.311,0.369,0.615,0.6,0.908c0.071,0.09,0.155,0.168,0.233,0.252
				c-1.424,1.796-2.341,4.416-2.398,6.88C100.986,434.462,100.828,434.208,100.691,433.945z M105.597,438.486
				c0.063-0.194-0.024-0.429-0.257-0.52c-0.128-0.052-0.248-0.11-0.369-0.166c-0.045-0.06-0.091-0.116-0.132-0.177
				c-1.74-2.588-0.075-5.783,0.879-8.477c0.268,0.066,0.539,0.106,0.813,0.113c1.007,2.67,2.974,5.047,2.735,8.158
				C109.074,439.922,107.047,439.783,105.597,438.486z M108.755,450.434c-0.24-0.079-0.469-0.181-0.694-0.297
				c-0.25-0.265-0.585-0.519-1.037-0.741c-0.086-0.042-0.166-0.092-0.251-0.137c-0.159-0.131-0.318-0.265-0.475-0.408
				c-0.834-0.754-1.656-1.63-2.611-2.395c-0.067-0.053-0.143-0.074-0.22-0.076c-0.075-0.002-0.149,0.023-0.219,0.058
				c-0.099-0.134-0.214-0.25-0.304-0.392c-1.303-2.034,0.16-3.287,1.208-4.808c1.559,1.293,3.557,2.08,5.433,1.472
				c0.258,0.747,0.47,1.46,0.626,1.891c0.677,1.87,1.103,3.879,1.173,5.873C110.37,450.74,109.518,450.687,108.755,450.434z
				 M125.876,472.258c-5.199-4.372-9.975-9.467-13.765-15.04c-0.799-1.174-1.48-2.414-2.082-3.691
				c1.201-0.097,2.402-0.458,3.458-0.9c0.432-0.181,0.74-0.71,0.739-1.153c-0.005-2.661-0.701-5.261-1.807-7.687
				c-0.335-0.733-0.742-1.389-1.221-2.008c0.721-0.664,1.107-1.503,1.271-2.419c0.551-2.26-0.215-4.87-1.024-6.922
				c-0.06-0.154-0.134-0.304-0.197-0.457c-0.362-1.063-0.824-2.192-1.432-3.141c-0.156-0.314-0.303-0.632-0.463-0.944
				c1.445-1.808,1.431-4.792,1.2-6.833c-0.011-0.097-0.032-0.194-0.046-0.291c1.377,0.116,2.743-0.557,3.648-2.471
				c1.125-2.377,0.311-5.824-0.668-8.098c-0.063-0.144-0.134-0.274-0.2-0.414c0.426-0.032,0.866-0.121,1.332-0.327
				c2.344-1.041,2.089-5.072,2.032-7.006c-0.075-2.556-0.606-5.157-1.558-7.593c1.246-1.391,2.142-3.258,2.808-4.664
				c1.024-2.164,2.521-7.326,1.857-10.523c0.692-2.007,1.021-4.268,1.015-6.517c2.078-1.817,3.706-4.915,4.396-8.16
				c0.366,0.085,0.766,0.061,1.064-0.119c3.187-1.92,4.899-6.069,5.443-10.347c0.509,0.206,1.094,0.34,1.766,0.387
				c3.671,0.258,5.79-4.95,6.859-8.28c1.677,0.472,3.488-0.492,4.794-1.686c1.36-1.242,2.419-2.821,3.217-4.498
				c1.175,0.064,2.424-0.525,3.403-1.534c3.467-3.575,4.154-7.965,3.927-12.435c2.656,1.133,6.035-3.457,6.912-5.229
				c1.585-3.208,4.363-9.165,2.308-12.703c-0.245-0.421-0.499-0.827-0.767-1.215c2.029-0.541,3.952-2.176,5.117-4.232
				c2.56-4.521,2.074-11.668,0.259-16.562c3.86-1.116,4.595-6.617,4.413-9.957c-0.193-3.534-1.594-9.284-5.996-9.918
				c-0.505-0.073-0.98-0.025-1.426,0.101c0.149-4.499-1.583-10.576-4.464-14.3c3.977-1.198,4.425-6.864,3.726-10.53
				c-1.128-5.93-5.271-13.137-11.37-15.34c-0.605-0.217-1.338,0.078-1.669,0.594c-0.225,0.35-0.435,0.735-0.635,1.137
				c-0.706-1.42-1.772-2.966-3.098-4.03c3.383-2.232,7.039-4.111,10.035-5.814c9.487-5.396,19.496-6.498,29.478-3.61
				c18.34,13.348,24.515,40.761,25.048,61.348c0.373,14.396-2.07,27.843-8.031,41.007c-6.364,14.05-13.933,28.054-24.481,39.608
				c-9.3,10.186-19.063,20.128-26.677,31.61c-3.679,5.548-6.525,11.588-8.787,17.794c-2.226,6.108-4.396,11.911-3.961,18.476
				c0.721,10.892,5.99,24.033,15.281,30.631c8.487,6.029,19.853,7.413,29.898,5.068c0.96-0.224,1.891-0.501,2.807-0.806
				c0.108,0.327,0.236,0.647,0.387,0.957c1.312,2.694,4.37,3.133,6.884,1.768c1.958-1.061,3.525-2.8,4.457-4.752
				c0.264-0.555,0.49-1.111,0.649-1.679c2.188,0.701,4.786,0.047,6.729-1.355c2.53-1.826,4.654-4.597,4.708-7.726
				c0.149-0.065,0.294-0.114,0.446-0.195c1.932-1.025,3.191-3.039,3.82-5.022c0.388-1.224,0.437-2.624,0.158-3.863
				c0.423-0.12,0.827-0.303,1.168-0.565c1.698-1.302,2.097-3.665,2.118-5.638c0.015-1.407-0.514-3.966-1.579-5.872
				c0.628-1.023,0.994-2.308,1.005-3.54c0.028-3.12-1.109-7.795-3.805-9.798c-0.09-0.067-0.186-0.11-0.284-0.131
				c-0.421-3.041-2.059-5.883-5.058-6.564c-1.467-0.332-2.913-0.068-4.189,0.564c-1.015-1.854-3.099-3.18-5.071-3.873
				c-1.928-0.681-4.254-0.743-5.924,0.505c-0.078-0.055-0.185-0.067-0.268,0.016c-0.595,0.592-1.018,1.278-1.29,2.015
				c-10.221-0.858-19.669,5.104-22.454,15.541c-1.487,5.573-1.316,12.141,4.011,15.62c4.291,2.802,8.774,0.455,11.813-2.724
				c0.354-0.058,0.695-0.253,0.951-0.63c0.212-0.114,0.425-0.227,0.636-0.34c-1.358,7.227-6.998,11.379-15.247,9.797
				c-2.942-0.564-5.364-1.775-7.303-3.433c1.078-3.055,0.1-8.465-2.691-10.653c-0.023-0.891-0.25-1.74-0.622-2.523
				c1.812-0.915,2.73-3.029,2.749-4.947c0.012-1.159-0.359-2.4-1.297-2.973c0.284-0.211,0.541-0.468,0.758-0.738
				c1.628-2.005,2.762-5.359,1.94-7.873c-0.085-0.26-0.275-0.427-0.519-0.479c0.232-0.547,0.414-1.112,0.515-1.689
				c1.812,0.191,3.675-1.299,4.443-3.067c0.89-2.048,1.173-5.199,0.303-7.615c1.118-0.902,2.312-1.743,3.611-2.494
				c13.276-7.669,28.873-2.299,38.645,7.91c10.14,10.592,12.958,25.267,10.491,39.164c-2.501,14.085-10.756,26.823-21.925,35.97
				c-11.053,9.054-25.177,11.882-39.343,10.942C149.972,486.7,136.529,481.216,125.876,472.258z"/>
		</g>
	</g>
</g>
</svg>
