<?xml version="1.0" encoding="iso-8859-1"?>
<!-- Generator: Adobe Illustrator 21.0.2, SVG Export Plug-In . SVG Version: 6.00 Build 0)  -->
<svg version="1.1" id="Layer_1" xmlns="http://www.w3.org/2000/svg" xmlns:xlink="http://www.w3.org/1999/xlink" x="0px" y="0px"
	 viewBox="0 0 600 375.323" style="enable-background:new 0 0 600 375.323;" xml:space="preserve">
<g>
	<path style="fill:#9A9E08;" d="M16.014,375.323h521.311c0,0,37.043-52.506,35.195-80.986
		c-2.876-44.328-47.976-70.399-72.926-57.574l0,0l3.317-5.745c20.861-36.132,8.367-82.763-27.766-103.624l-6.731-3.886
		c-36.132-20.861-82.763-8.366-103.624,27.766l-88.691,90.584l45.65-82.417h0.001c20.861-36.132,8.366-82.763-27.766-103.624
		l-15.806-9.126c-34.042-19.654-77.383-9.681-99.732,21.753l-0.014-0.009l-0.073,0.143c-1.338,1.891-2.625,3.835-3.805,5.878h-0.001
		c-2.56,4.434-4.604,9.029-6.178,13.712L65.065,290.91L16.014,375.323z"/>
	<path style="fill:#AA7661;" d="M316.975,125.695c0,0-6.968,33.802-51.143,12.358c-39.165-19.012-17.491-61.789-17.491-61.789
		s28.898-42.017,55.135-60.268c23.485-16.338,28.518-10.267,26.237,13.689C327.432,53.639,326.791,103.052,316.975,125.695z"/>
	<path style="fill:#AA7661;" d="M552.531,286.325c0,0-11.787,23.331-39.835-1.093c-24.867-21.654-0.552-48.635-0.552-48.635
		s29.446-24.994,52.241-33.142c20.404-7.293,22.881-1.858,16.47,15.203S564.191,271.715,552.531,286.325z"/>
	<path style="fill:#AD725A;" d="M516.212,194.616c0,0-18.222,29.31-52.262-6.081c-30.18-31.377,4.944-64.027,4.944-64.027
		s41.162-31.568,72.568-37.497c12.119-2.288,19.127,6.662,19.888,21.914C562.55,132.959,533.249,176.761,516.212,194.616z"/>
</g>
</svg>
