<?xml version="1.0" encoding="utf-8"?>
<!-- Generator: Adobe Illustrator 16.0.0, SVG Export Plug-In . SVG Version: 6.00 Build 0)  -->
<!DOCTYPE svg PUBLIC "-//W3C//DTD SVG 1.1//EN" "http://www.w3.org/Graphics/SVG/1.1/DTD/svg11.dtd">
<svg version="1.1" xmlns="http://www.w3.org/2000/svg" xmlns:xlink="http://www.w3.org/1999/xlink" x="0px" y="0px"
	 width="374.395px" height="203.114px" viewBox="0 0 374.395 203.114" enable-background="new 0 0 374.395 203.114"
	 xml:space="preserve">
<g id="Claws_copy">
	
		<radialGradient id="SVGID_1_" cx="206.5361" cy="-25.5454" r="30.964" gradientTransform="matrix(0.3931 0.9195 -0.9195 0.3931 232.5701 -142.3377)" gradientUnits="userSpaceOnUse">
		<stop  offset="0" style="stop-color:#FFFFFF"/>
		<stop  offset="0.0032" style="stop-color:#F6F6F6"/>
		<stop  offset="0.0205" style="stop-color:#C8C8C8"/>
		<stop  offset="0.04" style="stop-color:#9D9D9D"/>
		<stop  offset="0.061" style="stop-color:#777777"/>
		<stop  offset="0.0839" style="stop-color:#575757"/>
		<stop  offset="0.1091" style="stop-color:#3B3B3B"/>
		<stop  offset="0.1376" style="stop-color:#252525"/>
		<stop  offset="0.1709" style="stop-color:#141414"/>
		<stop  offset="0.2121" style="stop-color:#090909"/>
		<stop  offset="0.2698" style="stop-color:#020202"/>
		<stop  offset="0.4301" style="stop-color:#000000"/>
		<stop  offset="0.5814" style="stop-color:#020202"/>
		<stop  offset="0.6598" style="stop-color:#0A0A0A"/>
		<stop  offset="0.7215" style="stop-color:#171717"/>
		<stop  offset="0.7745" style="stop-color:#2B2B2B"/>
		<stop  offset="0.8219" style="stop-color:#434343"/>
		<stop  offset="0.8652" style="stop-color:#626262"/>
		<stop  offset="0.9056" style="stop-color:#868686"/>
		<stop  offset="0.9435" style="stop-color:#B0B0B0"/>
		<stop  offset="0.9783" style="stop-color:#DEDEDE"/>
		<stop  offset="1" style="stop-color:#FFFFFF"/>
	</radialGradient>
	<path fill="url(#SVGID_1_)" stroke="#000000" stroke-miterlimit="10" d="M358.293,12.276c-8.083-6.809-17.565-8.441-27.789-4.794
		c-10.38,3.702-19.772,13.529-20.915,17.642c-1.142,4.113-6.356,11.418-3.563,19.649c2.794,8.231,27.759,24.022,31.497,24.6
		c3.737,0.577,14.153-5.288,19.22-11.118c5.065-5.83,8.006-11.286,9.798-17.783c1.39-5.043,2.004-9.063,0.132-14.287
		C364.802,20.96,361.104,14.645,358.293,12.276z"/>
	<path fill="#FFFFFF" d="M310.318,33.331c4.195-9.407,12.607-18.985,22.589-21.077c9.981-2.092,22.979,0.326,27.192,11.032
		c4.215,10.705,2.697,18.604,1.601,21.973c-1.098,3.37-2.556,7.628-1.989,8.066c0.566,0.437,3.456-1.436,5.588-9.013
		s5.229-16.556-1.347-24.667c-6.577-8.112-11.104-11.201-18.795-13.08c-7.692-1.878-24.992,6.278-27.755,8.863
		c-2.762,2.585-10.768,13.851-10.454,16.259C307.261,34.095,310.318,33.331,310.318,33.331z"/>
	
		<linearGradient id="SVGID_2_" gradientUnits="userSpaceOnUse" x1="207.7051" y1="-22.2729" x2="204.7496" y2="-27.1916" gradientTransform="matrix(0.3931 0.9195 -0.9195 0.3931 232.5701 -142.3377)">
		<stop  offset="0" style="stop-color:#000000"/>
		<stop  offset="0.1823" style="stop-color:#020202"/>
		<stop  offset="0.248" style="stop-color:#090909"/>
		<stop  offset="0.2948" style="stop-color:#141414"/>
		<stop  offset="0.3327" style="stop-color:#252525"/>
		<stop  offset="0.3651" style="stop-color:#3B3B3B"/>
		<stop  offset="0.3938" style="stop-color:#575757"/>
		<stop  offset="0.4198" style="stop-color:#777777"/>
		<stop  offset="0.4437" style="stop-color:#9D9D9D"/>
		<stop  offset="0.4659" style="stop-color:#C8C8C8"/>
		<stop  offset="0.4856" style="stop-color:#F6F6F6"/>
		<stop  offset="0.4892" style="stop-color:#FFFFFF"/>
		<stop  offset="0.5103" style="stop-color:#DADADA"/>
		<stop  offset="0.5401" style="stop-color:#ADADAD"/>
		<stop  offset="0.5727" style="stop-color:#838383"/>
		<stop  offset="0.6075" style="stop-color:#606060"/>
		<stop  offset="0.6451" style="stop-color:#424242"/>
		<stop  offset="0.6863" style="stop-color:#2A2A2A"/>
		<stop  offset="0.7327" style="stop-color:#171717"/>
		<stop  offset="0.7872" style="stop-color:#0A0A0A"/>
		<stop  offset="0.8576" style="stop-color:#020202"/>
		<stop  offset="1" style="stop-color:#000000"/>
	</linearGradient>
	<path fill="url(#SVGID_2_)" d="M358.731,55.842c-7.694-4.574-28.668-19.715-34.18-23.702c-5.511-3.988-11.79-7.154-13.144-10.356
		s1.177-5.966,4.877-2.085c3.7,3.881,22.006,17.444,28.654,22.396c6.648,4.951,15.938,10.142,16.477,11.403
		c0.538,1.261,0.563,3.718-1.061,3.032C358.731,55.842,358.731,55.842,358.731,55.842z"/>
	<path fill="#660099" d="M325.943,69.876c-13.038-20.399-14.376-26.868-19.169-24.057c-4.792,2.81-15.32,10.451-20.141,18.315
		c-4.819,7.864-9.599,18.27-11.541,21.959c-1.943,3.69,5.826,12.737,7.643,10.533c1.816-2.205,31.541-24.805,34.045-24.735
		C319.283,71.962,325.943,69.876,325.943,69.876z"/>
	<path fill="#333333" stroke="#000000" stroke-miterlimit="10" d="M185.676,164.185c3.075,7.149,17.782,20.43,29.417,17.713
		c11.634-2.716,21.129-3.389,27.362-11.698s7.414-9.944,9.872-14.759c2.458-4.813,2.058-8.029,2.058-8.029s-2.886-0.806-6.853,3.953
		c-3.966,4.759-8.482,16.151-18.525,18.187c-10.042,2.036-18.764,7.164-24.238,3.16c-5.475-4.004-10.914-12.322-10.914-12.322
		L185.676,164.185"/>
	
		<linearGradient id="SVGID_3_" gradientUnits="userSpaceOnUse" x1="236.9932" y1="57.3491" x2="266.8423" y2="40.1157" gradientTransform="matrix(0.3931 0.9195 -0.9195 0.3931 232.5701 -142.3377)">
		<stop  offset="0" style="stop-color:#FFFFFF"/>
		<stop  offset="0.0032" style="stop-color:#F6F6F6"/>
		<stop  offset="0.0205" style="stop-color:#C8C8C8"/>
		<stop  offset="0.04" style="stop-color:#9D9D9D"/>
		<stop  offset="0.061" style="stop-color:#777777"/>
		<stop  offset="0.0839" style="stop-color:#575757"/>
		<stop  offset="0.1091" style="stop-color:#3B3B3B"/>
		<stop  offset="0.1376" style="stop-color:#252525"/>
		<stop  offset="0.1709" style="stop-color:#141414"/>
		<stop  offset="0.2121" style="stop-color:#090909"/>
		<stop  offset="0.2698" style="stop-color:#020202"/>
		<stop  offset="0.4301" style="stop-color:#000000"/>
		<stop  offset="0.5814" style="stop-color:#020202"/>
		<stop  offset="0.6598" style="stop-color:#0A0A0A"/>
		<stop  offset="0.7215" style="stop-color:#171717"/>
		<stop  offset="0.7745" style="stop-color:#2B2B2B"/>
		<stop  offset="0.8219" style="stop-color:#434343"/>
		<stop  offset="0.8652" style="stop-color:#626262"/>
		<stop  offset="0.9056" style="stop-color:#868686"/>
		<stop  offset="0.9435" style="stop-color:#B0B0B0"/>
		<stop  offset="0.9783" style="stop-color:#DEDEDE"/>
		<stop  offset="1" style="stop-color:#FFFFFF"/>
	</linearGradient>
	<path fill="url(#SVGID_3_)" stroke="#000000" stroke-miterlimit="10" d="M241.032,142.89c0,0,67.469-94.471,68.911-92.369
		s26.424,18.802,27.58,18.852c1.155,0.049-75.32,89.118-75.32,89.118s-11.84-0.557-14.573-2.288S241.032,142.89,241.032,142.89z"/>
	<path fill="#9900CC" stroke="#000000" stroke-miterlimit="10" d="M120.837,127.326l133.955-50.744l3.758-4.871l4.05-4.995
		c0,0,0.832-2.074,3.986-5.141c3.156-3.067,5.438-3.356,7.64-7.045c2.202-3.69,1.066-6.951,4.572-10.202
		c3.397-3.149,0.387-2.955,6.415-3.722c6.093-0.775,8.827-1.259,13.227-3.827c4.399-2.569,6.759-1.859,11.033-4.717
		c4.275-2.859,4.851,1.437,6.709,4.874c1.943,3.593,5.594,8.26,5.594,8.26s12.728,9.677,10.068,13.906s-7.972,7.875-12.201,5.216
		c-4.229-2.659-7.422-3.699-10.862-7.726c-3.439-4.027-1.656-3.072-6.886-0.836c-5.229,2.236-3.75,3.678-3.414,7.773
		c0.139,1.696-9.344,13.094-9.344,13.094l-38.373,53.222c0,0-15.479,7.993-22.494,11.68c-7.014,3.686-6.973,2.979-20.877,10.643
		s-28.554,15.988-33.202,17.976c-4.649,1.987-32.958,20.962-37.193,25.521c-4.235,4.56-15.125-19.302-23.737-38.643
		c-8.611-19.34-12.383-24.943-6.49-26.432C112.662,129.103,120.837,127.326,120.837,127.326z"/>
	<g id="Layer_9">
		<path d="M301.508,54.579c-1.168-7.074-2.263-11.829-0.25-8.772c2.014,3.057,2.487,6.249,3.21,7.507
			C305.189,54.572,301.508,54.579,301.508,54.579z"/>
		<path d="M293.098,58.462c-2.978-2.489-5.129-5.806-5.129-5.806s0.274,6.961,1.005,7.569S293.098,58.462,293.098,58.462z"/>
		<g>
			<path d="M287.711,66.264c0,0-0.377-0.668-0.943-1.671c-0.146-0.237-0.275-0.597-0.423-0.918c-0.142-0.332-0.29-0.682-0.444-1.044
				c-0.169-0.359-0.255-0.729-0.379-1.103c-0.115-0.373-0.231-0.75-0.349-1.128c-0.104-0.379-0.182-0.766-0.271-1.141
				c-0.081-0.377-0.185-0.739-0.238-1.102c-0.119-0.722-0.25-1.384-0.308-1.963c-0.156-1.147-0.183-1.916-0.183-1.916
				s0.212,0.738,0.637,1.801c0.192,0.537,0.478,1.142,0.758,1.791c0.135,0.327,0.32,0.646,0.482,0.978
				c0.171,0.328,0.33,0.667,0.515,0.991c0.192,0.318,0.386,0.636,0.575,0.948c0.192,0.305,0.36,0.632,0.571,0.881
				c0.195,0.26,0.385,0.511,0.564,0.75c0.19,0.238,0.309,0.454,0.521,0.664c0.792,0.834,1.32,1.39,1.32,1.39L287.711,66.264z"/>
		</g>
		<g>
			<path d="M287.708,69.781c0,0-0.157-0.066-0.432-0.181c-0.133-0.055-0.322-0.14-0.452-0.179c-0.154-0.047-0.301-0.124-0.521-0.175
				c-0.427-0.117-0.946-0.221-1.555-0.289c-0.609-0.073-1.311-0.114-2.05-0.245c-0.368-0.062-0.743-0.169-1.099-0.293
				c-0.355-0.145-0.687-0.308-0.979-0.513c-0.585-0.398-1.009-0.87-1.327-1.287c-0.315-0.421-0.542-0.784-0.682-1.051
				c-0.147-0.259-0.232-0.406-0.232-0.406s0.122,0.119,0.334,0.327c0.203,0.215,0.518,0.498,0.911,0.798
				c0.396,0.296,0.883,0.595,1.426,0.771c0.269,0.094,0.555,0.142,0.84,0.174c0.293,0.014,0.585,0.015,0.891-0.02
				c0.608-0.063,1.255-0.201,1.908-0.308c0.654-0.11,1.316-0.17,1.896-0.177c0.284-0.013,0.59,0.023,0.842,0.035
				c0.278,0.016,0.431,0.042,0.583,0.059c0.296,0.036,0.465,0.056,0.465,0.056L287.708,69.781z"/>
		</g>
		<g>
			<path d="M281.211,80.588c0,0-0.568-0.805-1.421-2.013c-0.217-0.244-0.451-0.508-0.699-0.788
				c-0.232-0.291-0.533-0.584-0.869-0.878c-0.316-0.295-0.664-0.611-1.051-0.945l-0.564-0.5l-0.549-0.579
				c-0.178-0.197-0.373-0.375-0.529-0.584l-0.441-0.644c-0.287-0.426-0.587-0.829-0.769-1.271c-0.206-0.426-0.405-0.838-0.594-1.229
				c-0.202-0.382-0.33-0.767-0.456-1.119c-0.504-1.397-0.839-2.33-0.839-2.33s0.503,0.847,1.257,2.118
				c0.187,0.316,0.381,0.664,0.645,0.989c0.247,0.333,0.509,0.684,0.778,1.047c0.247,0.381,0.591,0.687,0.914,1.012l0.486,0.486
				c0.169,0.155,0.371,0.274,0.553,0.412l0.554,0.398l0.614,0.364c0.4,0.23,0.816,0.483,1.234,0.744
				c0.414,0.244,0.812,0.503,1.181,0.81c0.374,0.292,0.728,0.569,1.054,0.825c1.069,1.029,1.783,1.715,1.783,1.715L281.211,80.588z"
				/>
		</g>
		<path d="M277.252,89.4c-7.117-3.208-8.598-3.618-10.047-4.566c-1.45-0.947-5.202-1.171-2.65,1.133
			c2.552,2.304,4.836,4.591,6.151,6.444c1.315,1.855,0.577,3.348,3.049,6.02c2.473,2.671,2.671,4.756,4.472-1.912
			C280.029,89.851,277.252,89.4,277.252,89.4z"/>
		<g>
			<path d="M259.124,85.853c0,0,0.075,1.69,0.188,4.226c0.144,2.529,0.419,5.897,1.011,9.188c0.156,0.82,0.313,1.641,0.515,2.435
				c0.182,0.799,0.41,1.571,0.627,2.316c0.244,0.738,0.476,1.45,0.741,2.107c0.243,0.666,0.542,1.265,0.785,1.83
				c0.272,0.559,0.521,1.071,0.743,1.525c0.212,0.453,0.283,0.949,0.314,1.375c0.027,0.849-0.243,1.428-0.433,1.489l-0.078-0.184
				c-0.068,0.043-0.104,0-0.285-0.146c-0.159-0.128-0.395-0.33-0.649-0.595c-0.125-0.136-0.265-0.281-0.38-0.451
				c-0.146-0.177-0.274-0.385-0.382-0.619c-0.2-0.488-0.425-1.038-0.671-1.638c-0.205-0.623-0.46-1.286-0.653-2.008
				c-0.227-0.712-0.413-1.477-0.608-2.264c-0.173-0.792-0.358-1.608-0.492-2.446c-0.154-0.834-0.26-1.688-0.365-2.539
				c-0.1-0.852-0.173-1.705-0.233-2.544c-0.048-0.839-0.105-1.665-0.112-2.464c-0.039-1.598-0.015-3.086,0.02-4.36
				c0.033-1.272,0.086-2.333,0.13-3.073c0.044-0.74,0.069-1.163,0.069-1.163L259.124,85.853z"/>
		</g>
		<path d="M305.104,54.155"/>
		<path d="M294.928,53.555c7.228-0.642,4.478-3.894,7.327-1.647c2.85,2.247,8.208,0.376,4.688,2.491s-8.06,0.843-8.441,3.609
			c-0.381,2.766,0.679,5.032-0.706,7.145c-1.066,1.626-3.548,4.288-7.35,9.873c-1.138,1.67-3.948,4.626-4.922,6.608
			c-4.231,8.606-13.463,21.869-13.173,18.617c0.29-3.252,4.368-9.97,7.479-15.23c1.673-2.828,0.037-2.433,1.879-6.387
			c1.584-3.4,5.95-7.823,6.382-10.302c0.933-5.36,6.16-11.034,7.407-13.438S294.928,53.555,294.928,53.555z"/>
		<g>
			<path d="M308.463,57.044c0,0-0.086-0.163-0.236-0.448c-0.075-0.143-0.166-0.316-0.271-0.514
				c-0.108-0.177-0.211-0.497-0.326-0.779c-0.112-0.296-0.249-0.613-0.31-0.954c-0.064-0.343-0.189-0.687-0.202-1.068
				c-0.027-0.377-0.092-0.759-0.054-1.152c0.007-0.392,0.034-0.785,0.115-1.17c0.115-0.776,0.384-1.508,0.668-2.16
				c0.305-0.646,0.641-1.213,0.97-1.667c0.649-0.916,1.207-1.405,1.207-1.405s-0.468,0.58-0.938,1.564
				c-0.24,0.489-0.465,1.082-0.644,1.724c-0.157,0.647-0.285,1.344-0.268,2.035c-0.014,0.345,0.022,0.685,0.074,1.016
				c0.021,0.333,0.138,0.646,0.21,0.949c0.058,0.307,0.222,0.577,0.316,0.843c0.095,0.274,0.244,0.484,0.361,0.688
				c0.135,0.207,0.19,0.375,0.35,0.561c0.137,0.178,0.256,0.333,0.354,0.461c0.196,0.256,0.309,0.402,0.309,0.402L308.463,57.044z"
				/>
		</g>
		<path d="M311.338,42.025c-2.479-2.18-2.382-0.637-1.64-3.836c0.74-3.198-0.358-6.772,2.289-6.733
			c1.627,0.024,3.68,3.362,3.766,4.631C315.839,37.355,311.338,42.025,311.338,42.025z"/>
	</g>
	<g id="Layer_8">
		<path d="M305.408,37.246c-5.279,2.397-4.784,4.778-11.07,4.733c-6.287-0.045-5.101-1.043-7.078-0.784s-3.876-0.789-4.854,3.152
			c-0.977,3.941,0.279,2.753-1.458,6.629c-1.737,3.877,0.422,5.466-3.903,5.528c-4.325,0.061-2.535-1.469-1.809-4.231
			c0.726-2.761-0.573-3.178,2.456-6.734c3.028-3.556,2.563-4.498,4.961-5.074c2.597-0.624,3.848-0.221,8.568-1.194
			c4.649-0.958,4.373-1.724,8.67-3.262c4.298-1.539,6.346-3.24,7.608-2.801C310.091,34.11,305.408,37.246,305.408,37.246z"/>
		<path d="M273.225,58.138c-2.723,3.834-6.078,4.573-3.568,8.288c2.511,3.714,5.827,7.513,0.874,4.933
			c-4.952-2.581-6.043-4.071-7.312-2.681c-1.268,1.39-2.683,7.211-1.744,10.339c0.939,3.128,0.619,8.487,0.619,8.487
			s-2.486-5.204-3.21-7.506c-0.723-2.303-0.211-10.878-0.723-2.303c-0.513,8.576-4.161,15.923-2.833,21.472
			c1.327,5.548-0.53,12.81-2.341,5.519c-1.812-7.29,0.219-10.482,0.677-17.351c0.459-6.869,1.28-9.832-1.183-4.6
			c-2.464,5.232-3.083,4.191-6.369,6.379s-4.702-1.124-6.028,1.271c-1.326,2.396-5.383,12.452-7.273,17.195
			c-1.89,4.742-6.313,10.029-7.257,10.694c-0.945,0.664-1.605,7.673,0.579-6.157c2.185-13.828,3.668-17.074,3.387-19.566
			c-0.281-2.491,2.742,0.917-3.312,1.416s-8.897,0.932-8.678,5.539s-5.21,10.845-7.323,12.01c-2.114,1.165-9.588,3.838-4.886-1.044
			c4.702-4.883,5.312-5.277,6.726-11.755c1.414-6.478,24.102-14.483,24.102-14.483s10.35-4.509,17.41-6.921
			c0,0,10.41-13.567,13.028-15.738C269.206,59.403,273.225,58.138,273.225,58.138z"/>
		<g>
			<path d="M247.295,112.742c0,0-0.47,0.478-1.363,1.157c-0.446,0.341-0.993,0.742-1.645,1.153c-0.645,0.424-1.388,0.87-2.215,1.317
				c-0.832,0.439-1.731,0.917-2.739,1.301c-1.004,0.391-2.135,0.646-3.293,0.936s-2.326,0.651-3.434,1.193
				c-1.117,0.521-2.194,1.174-3.244,1.89c-1.054,0.704-2.097,1.434-3.187,2.014c-1.082,0.597-2.15,1.178-3.193,1.718
				c-2.074,1.11-4.138,1.863-5.926,2.47c-1.794,0.591-3.334,0.987-4.432,1.22c-1.096,0.238-1.753,0.306-1.753,0.306l-0.125-0.273
				c0,0,0.481-0.453,1.377-1.128c0.894-0.679,2.2-1.585,3.82-2.558c1.627-0.956,3.546-2.026,5.742-2.871
				c1.09-0.437,2.228-0.865,3.387-1.295c1.151-0.445,2.386-0.758,3.607-1.096c1.228-0.326,2.427-0.715,3.55-1.221
				c1.134-0.483,2.172-1.131,3.147-1.819c0.976-0.687,1.908-1.376,2.86-1.881c0.948-0.512,1.898-0.881,2.774-1.224
				c0.88-0.333,1.702-0.604,2.444-0.815c0.736-0.224,1.398-0.375,1.948-0.491c1.099-0.232,1.767-0.275,1.767-0.275L247.295,112.742z
				"/>
		</g>
		<g>
			<path d="M199.866,139.85c0,0-0.938,0.626-2.631,1.608c-1.691,0.988-4.136,2.34-7.12,3.854c-1.5,0.742-3.117,1.561-4.867,2.343
				c-1.749,0.787-3.65,1.494-5.591,2.282c-1.956,0.755-3.945,1.604-5.923,2.555c-1.988,0.932-3.946,2.01-5.908,3.076
				c-1.957,1.078-3.906,2.174-5.868,3.16c-1.961,0.989-3.891,1.962-5.758,2.904c-1.871,0.934-3.692,1.812-5.443,2.593
				c-1.742,0.801-3.407,1.519-4.943,2.183c-1.544,0.648-2.958,1.246-4.229,1.737c-1.269,0.496-2.364,0.952-3.286,1.286
				c-1.835,0.687-2.898,1.046-2.898,1.046l-0.086-0.18c0,0,0.951-0.598,2.642-1.586c0.841-0.504,1.886-1.064,3.073-1.735
				c1.184-0.675,2.54-1.394,4.019-2.181c1.485-0.771,3.093-1.609,4.814-2.453c1.711-0.864,3.542-1.721,5.448-2.582
				c1.91-0.853,3.883-1.733,5.889-2.629c2.004-0.897,4.084-1.717,6.157-2.553c2.067-0.848,4.139-1.685,6.117-2.637
				c1.988-0.933,3.902-1.939,5.723-2.979c1.836-1.007,3.586-2.034,5.301-2.893c1.712-0.862,3.368-1.6,4.891-2.293
				c3.06-1.356,5.651-2.398,7.486-3.085c1.832-0.691,2.909-1.023,2.909-1.023L199.866,139.85z"/>
		</g>
		<g>
			<path d="M188.14,115.5c0,0-0.696,0.531-1.979,1.29c-0.642,0.382-1.424,0.834-2.342,1.3c-0.913,0.48-1.956,0.989-3.109,1.504
				c-1.157,0.507-2.409,1.058-3.782,1.515c-1.37,0.466-2.877,0.795-4.426,1.162c-1.548,0.368-3.126,0.807-4.655,1.442
				c-1.543,0.601-3.056,1.351-4.547,2.157c-1.495,0.797-2.979,1.619-4.496,2.288c-1.51,0.686-2.998,1.354-4.447,1.978
				c-2.887,1.278-5.693,2.181-8.115,2.915c-2.427,0.718-4.488,1.219-5.949,1.522c-1.459,0.309-2.32,0.415-2.32,0.415l-0.108-0.279
				c0,0,0.707-0.503,1.992-1.26c1.283-0.762,3.141-1.784,5.417-2.893c2.282-1.093,4.962-2.321,7.954-3.327
				c1.49-0.519,3.04-1.03,4.616-1.544c1.57-0.53,3.221-0.925,4.861-1.347c1.645-0.411,3.267-0.88,4.811-1.479
				c1.557-0.563,3.017-1.304,4.408-2.078c1.391-0.774,2.725-1.549,4.049-2.13c1.321-0.59,2.617-1.028,3.812-1.436
				c1.199-0.398,2.311-0.728,3.309-0.989c0.992-0.275,1.875-0.471,2.605-0.622c1.459-0.308,2.332-0.385,2.332-0.385L188.14,115.5z"
				/>
		</g>
		<g>
			<path d="M132.018,137.535c0,0-0.264,0.379-0.799,0.874c-0.532,0.5-1.326,1.139-2.36,1.716c-0.52,0.282-1.082,0.591-1.73,0.793
				c-0.644,0.21-1.393,0.273-2.155,0.364s-1.523,0.248-2.221,0.584c-0.708,0.313-1.37,0.76-2.006,1.267
				c-0.642,0.496-1.271,1.019-1.952,1.393c-0.673,0.392-1.338,0.771-1.992,1.114c-1.294,0.718-2.625,1.102-3.783,1.393
				c-1.165,0.274-2.177,0.406-2.906,0.453c-0.727,0.052-1.171,0.013-1.171,0.013l-0.119-0.275c0,0,0.276-0.351,0.813-0.844
				c0.533-0.498,1.324-1.145,2.322-1.804c1.006-0.644,2.198-1.349,3.608-1.799c0.698-0.239,1.43-0.464,2.177-0.687
				c0.739-0.238,1.551-0.339,2.352-0.465c0.806-0.116,1.585-0.291,2.298-0.592c0.723-0.277,1.359-0.723,1.948-1.216
				s1.148-0.994,1.743-1.318c0.592-0.333,1.202-0.53,1.763-0.716c1.129-0.356,2.138-0.497,2.868-0.541
				c0.727-0.05,1.184,0.018,1.184,0.018L132.018,137.535z"/>
		</g>
		<g>
			<path d="M186.748,141.554c0-0.001-0.98,0.584-2.744,1.493c-1.761,0.914-4.302,2.158-7.397,3.542
				c-1.554,0.677-3.231,1.425-5.041,2.13c-1.808,0.71-3.766,1.334-5.768,2.036c-2.016,0.67-4.07,1.431-6.119,2.296
				c-2.058,0.845-4.092,1.837-6.131,2.817c-2.034,0.992-4.061,2.002-6.095,2.903c-2.033,0.903-4.034,1.792-5.971,2.651
				c-1.94,0.853-3.825,1.65-5.635,2.354c-1.802,0.725-3.522,1.369-5.109,1.966c-1.594,0.581-3.053,1.116-4.363,1.552
				c-1.308,0.44-2.438,0.849-3.387,1.143c-1.889,0.605-2.983,0.918-2.982,0.919l-0.077-0.186c0,0.001,0.993-0.556,2.753-1.47
				c0.876-0.467,1.962-0.981,3.196-1.601c1.232-0.623,2.64-1.282,4.175-2.005c1.542-0.707,3.21-1.474,4.994-2.243
				c1.774-0.789,3.669-1.565,5.64-2.342c1.975-0.77,4.015-1.564,6.087-2.372c2.072-0.81,4.217-1.537,6.354-2.282
				c2.132-0.757,4.27-1.502,6.318-2.368c2.057-0.846,4.044-1.769,5.939-2.728c1.909-0.927,3.73-1.878,5.508-2.661
				c1.775-0.787,3.487-1.452,5.062-2.079c3.163-1.222,5.835-2.149,7.725-2.756c1.887-0.611,2.992-0.896,2.992-0.896L186.748,141.554
				z"/>
		</g>
		<line fill="none" stroke="#000000" stroke-miterlimit="10" x1="223.135" y1="112.618" x2="197.779" y2="122.762"/>
		<line fill="none" stroke="#000000" stroke-miterlimit="10" x1="218.975" y1="121.031" x2="193.804" y2="131.792"/>
		<g>
			<path d="M223.074,137.319c0,0,1.599-0.667,3.999-1.667c2.397-1.008,5.622-2.268,8.836-3.555c1.611-0.634,3.192-1.352,4.718-1.903
				c1.532-0.531,2.995-0.933,4.265-1.233c2.532-0.618,4.313-0.765,4.313-0.765l0.066,0.189c0,0-1.485,0.994-3.853,2.086
				c-1.18,0.556-2.575,1.151-4.105,1.689c-1.537,0.517-3.222,0.939-4.877,1.446c-3.317,0.993-6.626,2.015-9.129,2.718
				c-2.501,0.71-4.168,1.184-4.168,1.184L223.074,137.319z"/>
		</g>
		<g>
			<path d="M184.168,160.657c0,0-0.732,0.49-2.063,1.234c-1.328,0.749-3.252,1.758-5.606,2.859c-1.184,0.536-2.46,1.131-3.847,1.675
				c-1.383,0.552-2.893,1.014-4.438,1.529c-1.555,0.494-3.132,1.074-4.696,1.754c-1.572,0.659-3.113,1.463-4.658,2.255
				c-1.54,0.805-3.073,1.627-4.621,2.343c-1.547,0.718-3.07,1.424-4.544,2.107c-1.477,0.676-2.916,1.304-4.303,1.847
				c-1.378,0.563-2.698,1.056-3.917,1.511c-2.445,0.892-4.507,1.575-5.968,2.016c-1.459,0.441-2.308,0.661-2.308,0.661l-0.078-0.184
				c0,0,0.745-0.462,2.072-1.211c1.327-0.752,3.246-1.771,5.58-2.922c1.171-0.566,2.439-1.181,3.798-1.788
				c1.351-0.628,2.799-1.233,4.308-1.835c1.513-0.593,3.076-1.206,4.664-1.829c1.587-0.624,3.24-1.165,4.886-1.722
				c1.64-0.57,3.286-1.129,4.849-1.81c1.572-0.661,3.081-1.4,4.512-2.184c1.441-0.761,2.818-1.532,4.172-2.151
				c1.352-0.627,2.663-1.139,3.868-1.624c2.424-0.94,4.482-1.635,5.941-2.077c1.457-0.447,2.317-0.639,2.317-0.639L184.168,160.657z
				"/>
		</g>
		<g>
			<path d="M194.001,149.966c0,0-0.972,0.592-2.719,1.515c-1.746,0.928-4.266,2.191-7.336,3.6c-1.542,0.688-3.206,1.449-5.002,2.168
				c-1.794,0.725-3.74,1.363-5.728,2.082c-2.002,0.685-4.042,1.462-6.075,2.343c-2.042,0.86-4.06,1.868-6.082,2.864
				c-2.017,1.009-4.027,2.034-6.045,2.951c-2.017,0.918-4.002,1.822-5.924,2.697c-1.924,0.867-3.795,1.68-5.592,2.398
				c-1.789,0.738-3.496,1.396-5.072,2.005c-1.583,0.594-3.032,1.14-4.333,1.586c-1.299,0.45-2.422,0.867-3.364,1.168
				c-1.877,0.621-2.964,0.942-2.964,0.942l-0.078-0.184c0,0,0.983-0.563,2.729-1.492c0.869-0.473,1.945-0.996,3.169-1.624
				c1.221-0.633,2.618-1.303,4.141-2.037c1.529-0.719,3.185-1.499,4.954-2.281c1.761-0.804,3.642-1.594,5.598-2.387
				c1.959-0.784,3.985-1.595,6.042-2.419c2.057-0.825,4.187-1.569,6.31-2.331c2.117-0.773,4.24-1.536,6.272-2.418
				c2.042-0.861,4.013-1.799,5.892-2.773c1.893-0.94,3.699-1.906,5.462-2.703c1.761-0.802,3.46-1.479,5.023-2.118
				c3.14-1.246,5.794-2.195,7.671-2.816c1.875-0.626,2.974-0.919,2.973-0.919L194.001,149.966z"/>
		</g>
		<g>
			<path d="M244.83,117.98c0,0-0.354-1.867-0.606-4.673c0.001-0.71,0.002-1.485,0.032-2.307c0.032-0.82,0.023-1.701,0.117-2.59
				c0.121-0.88,0.218-1.795,0.368-2.718c0.134-0.926,0.288-1.862,0.509-2.783c0.223-0.92,0.445-1.84,0.665-2.746
				c0.23-0.901,0.544-1.764,0.801-2.611c0.254-0.848,0.545-1.652,0.841-2.406c0.28-0.759,0.569-1.469,0.838-2.123
				c0.539-1.299,1.057-2.367,1.392-3.112c0.347-0.746,0.564-1.173,0.564-1.173s-0.055,0.468-0.185,1.289
				c-0.125,0.827-0.361,1.974-0.678,3.348c-0.146,0.687-0.308,1.43-0.503,2.207c-0.183,0.778-0.375,1.6-0.574,2.449
				c-0.203,0.846-0.412,1.719-0.624,2.607c-0.193,0.89-0.389,1.793-0.584,2.697c-0.238,0.895-0.411,1.801-0.563,2.695
				c-0.154,0.894-0.357,1.767-0.527,2.617c-0.258,1.692-0.483,3.274-0.746,4.65C245.144,116.104,244.83,117.98,244.83,117.98z"/>
		</g>
	</g>
	<path d="M259.568,117.632c-6.189,5.001-8.095,4.445-13.56,9.069c-5.464,4.624-6.024,5.473-14.75,10.47
		c-8.725,4.998-11.448,8.335-16.285,9.316c-4.838,0.981-3.514-2.696-10.778,1.061c-7.264,3.757-8.258,2.699-15.458,6.609
		c-7.2,3.91-13.06,8.831-12.08,9.007c0.98,0.176,4.74-0.693,7.935-1.516c3.194-0.822,1.935,0.079-4.521,3.382
		c-6.455,3.302-8.926,4.722-14.502,6.924c-5.575,2.202-10.54,6.68-16.138,9.254s-8.699,5.906-11.521,3.115
		c-2.822-2.791-3.774-8.825-8.588-12.889s-9.516-0.002-9.516-0.002s13.774,25.969,14.934,25.382c1.159-0.587,2.655-1.409,10.2-6.627
		c7.546-5.217,57.614-35.712,66.86-40.422c9.245-4.71,33.377-17.033,36.17-18.478c2.794-1.443,4.152-2.003,7.293-6.599
		C257.82,120.947,259.568,117.632,259.568,117.632z"/>
	<path d="M106.616,142.308c0.707-0.304-0.122-0.127,19.228-8.221c19.35-8.094,13.84-5.734,29.233-12.498
		c15.393-6.764,19.604-9.194,32.803-13.889c13.199-4.695,14.658-3.875,19.582-6.88s9.62-8.532,10.864-9.713
		c1.244-1.182-18.319,6.229-20.776,7.16c-2.457,0.931-30.164,10.669-40.47,15.33c-10.306,4.662-24.75,10.015-32.531,12.324
		s-16.953,3.225-18.709,4.977s-2.855,2.932-1.039,7.171C106.616,142.308,106.616,142.308,106.616,142.308z"/>
	<path fill="#333333" stroke="#000000" stroke-miterlimit="10" d="M114.742,160.34c6.588-6.594,21.594-11.724,35.801-13.702
		c14.207-1.979,16.509-3.172,27.579-8.085c11.07-4.912,31.763-27.812,29.958-41.716c-1.028-7.922-0.795-27.383-6.062-31.779
		c-5.267-4.396-32.842-7.284-34.004,22.566c-1.162,29.85,0.582,21.609,0.582,21.609l5.872-2.111c0,0,0.279-11.668,0.688-20.396
		c0.409-8.728,2.081-15.376,11.744-16.541s10.433,1.518,11.745,8.106s4.307,17.173,3.122,21.443
		c-1.186,4.27-6.864,15.082-13.303,23.396c-5.934,7.663-13.674,12.025-22.94,14.118c-9.267,2.092-22.544,3.604-29.952,5.642
		c-7.408,2.038-21.704,8.562-23.474,9.339C110.328,153.008,114.742,160.34,114.742,160.34z"/>
	<path fill="#9900CC" stroke="#000000" stroke-miterlimit="10" d="M313.71,117.437c0,0-2.195,3.413-3.869,4.515
		c-2.218,1.458-4.955,0.709-8.544,0.793c-3.589,0.083-5.363,1.445-9.104,0.749c-3.741-0.695-5.886-1.048-5.886-1.048
		c-3.498-3.941-3.583-7.531,1.606-10.656C293.103,108.665,313.71,117.437,313.71,117.437z"/>
	<path fill="#9900CC" stroke="#000000" stroke-miterlimit="10" d="M321.448,102.89c2.382,3.876,4.219,5.629,3.604,8.429
		c-0.615,2.801-2.709,2.971-5.439,4.862c-2.729,1.893-3.433,4.911-8.814,3.77c-5.383-1.143-14.967-3.207-17.637-3.517
		c-2.669-0.31-5.383,0.127-7.175-2.37c-1.793-2.496-4.312-2.452-6.682-6.723c-2.369-4.271-2.631-6.153-0.659-7.902
		c1.971-1.749,1.971-1.749,3.83-1.638c4.34,0.258,7.532,1.504,10.977,1.929s7.732,2.398,12.809,2.403
		C311.339,102.138,321.448,102.89,321.448,102.89z"/>
	<path fill="#9900CC" stroke="#000000" stroke-miterlimit="10" d="M332.266,95.546l2.661,4.528c0,0,0,0-0.237,1.143
		c-0.598,2.887-1.908,4.44-3.593,5.161c-1.687,0.721-3.592,2.623-5.671,2.424c-2.078-0.199-8.928-1.803-12.406-2.309
		c-3.479-0.506-9.761,0.911-12.08-0.273c-2.319-1.184-4.113-1.141-7.678-3.967c-3.565-2.826-7.906-6.199-8.621-8.718
		c-0.715-2.518-0.054-7.332,2.179-7.199c2.231,0.133,5.428-0.871,8.009,0.926s8.97,2.189,10.654,2.739
		c1.684,0.549,4.592-0.112,5.073-0.68c0.482-0.568,4.031,0.726,6.283,1.593c1.208,0.465,2.02-0.007,2.02-0.007
		s2.478-0.648,5.834-0.005s2.763-1.094,3.528-0.152S332.266,95.546,332.266,95.546z"/>
	<path fill="#9900CC" stroke="#000000" stroke-miterlimit="10" d="M352.286,74.117c1.245,2.912,4.46,5.344,4.83,7.905
		c0.369,2.561-0.271,8.272-3.204,9.889c-2.934,1.617-8.646,2.247-12.06,1.894c-2.4-0.249-7.39,0.161-10.618,0.631
		c-1.362,0.198-2.411,0.408-2.82,0.583c-1.379,0.589-8.601-1.887-11.563-3.729c-2.963-1.842-10.829-4.977-10.756-6.925
		c0.074-1.949-0.347-6.746,1.99-8.065c2.336-1.32,1.628-2.55,5.057-2.162c3.429,0.388,7.223,2.056,9.964,2.955
		c2.741,0.899,9.526-0.189,12.524-0.384s4.093,0.245,6.238-0.672c2.145-0.917-10.234,0.819-10.234,0.819s5.043-13.953,16.936-6.766
		C350.638,71.336,352.286,74.117,352.286,74.117z"/>
	<path fill="#9900CC" stroke="#000000" stroke-miterlimit="10" d="M363.995,48.084c-0.266,3.195-3.624,6.361-7.024,7.313
		c-3.399,0.951-11.16,3.996-11.769,5.118c-0.608,1.121-2.954,5.386-2.583,6.678s2.949,6.896,5.027,7.096
		c2.079,0.199,5.451-2.513,9.171-2.29c3.722,0.222,7.552-0.146,8.954-2.377c1.402-2.231,3.64-8.446,2.79-12.977
		C367.712,52.114,363.995,48.084,363.995,48.084z"/>
	<path d="M365.624,50.629c1.071,1.233,2.273,3.153,2.641,4.801c0.368,1.648,0.804,5.225,0.482,5.962s-1.876,6.146-2.309,6.988
		s-2.257,3.176-3.529,3.217s-3.211,0.375-4.572,0.393c-1.361,0.017-4.658,0.696-5.866,0.817s-0.796-0.028-0.295-1.585
		c0.501-1.556,0.611-3.537,0.589-5.841c-0.021-2.304-0.438-3.118-1.352-3.161c-0.912-0.043,0.432-1.072,1.235-0.43
		c0.806,0.641,1.777,2.383,1.825,3.559c0.048,1.177,0.238,2.953-0.074,4.262c-0.313,1.31-0.337,1.028,1.345,0.949
		c1.682-0.08,4.562-0.439,4.562-0.439s0.668-0.85,1.494-1.474c2.587-1.953,3.392,0.412,3.162-6.854
		c-0.083-2.625,0.586-3.469,0.24-5.787C364.855,53.688,365.624,50.629,365.624,50.629"/>
	<path d="M360.651,71c-1.989-1.898-1.852-1.517-2.541-3.502c-0.688-1.986-2.286-3.143-1.702-0.743
		c0.585,2.399,0.156,3.98,0.991,4.211S360.651,71,360.651,71z"/>
	<path d="M342.989,76.828c2.406,0.295,2.399,1.056,4.313,1.441c1.912,0.386,3.563,2.18,2.508-0.458s-2.59-4.852-0.326-3.171
		c2.265,1.681,4.077,0.588,3.075,3.235s-6.123,10.974-7.949,11.003s-1.188,1.523,0.606,1.417c1.794-0.105,3.991-0.382,6.217-2.364
		c2.225-1.981,3.052-2.629,3.052-2.629s0.817,0.019,0.346,1.324c-0.473,1.305-1.074,2.226-2.36,3.731
		c-1.287,1.506-2.513,1.968-2.984,2.526s0.916,0.279,1.185,0.21c0.269-0.069,2.736-0.596,3.602-1.419s2.419-2.875,2.675-5.266
		s0.979-2.773-0.562-5.61s-1.644-4.042-3.029-5.608c-1.385-1.567-5.402-1.823-6.103-1.002
		C346.553,75.011,342.989,76.828,342.989,76.828z"/>
	<path d="M329.445,81.803c0.64,2.528,0.958,9.234,0.161,9.722"/>
	<path d="M326.856,82.585c-2.891,2.23-2.851,6.111-2.212,7.604"/>
	<path d="M347.525,92.767c-3.386-1.201-4.789-0.869-7.017-3.498s-2.771-1.662-2.274-0.329c0.497,1.333,1.756,2.901-0.064,3.289
		c-1.82,0.387-2.735,1-4.557,1.042c-1.821,0.043-1.167,1.001-1.167,1.001s3.466-0.44,5.226-0.457
		c1.758-0.016,5.096,0.224,7.253,0.063c2.158-0.161,2.082-0.009,3.294-0.306C349.433,93.275,347.525,92.767,347.525,92.767z"/>
	<path d="M340.405,78.005c-4.353-0.199-7.178-0.609-9.141,0.303c-1.964,0.913-5.18,1.652-7.333,1.088
		c-2.154-0.564-5.249-2.982-7.235-2.984c-1.987-0.002-3.204,0.666-1.53,1.274s1.468,2.093,1.648,3.855
		c0.181,1.763-0.499,3.442-1.075,4.503c-0.577,1.06-0.67,3.003-2.271,2.263c-1.6-0.74-1.059-0.159-0.496-1.162
		c0.562-1.003,0.495-1.936,0.688-2.85c0.194-0.915,1.452-3,1.698-3.895c0.247-0.895,0.416-1.368-0.742-2.065
		c-1.159-0.698-3.595-1.338-4.422-2.159c-0.826-0.82-0.944-1.042-0.095-1.515s3.459-0.573,4.917-0.203
		c1.457,0.37,5.171,1.309,6.525,2.087c1.355,0.778,4.193,1.577,6.181,1.229s3.998-0.864,6.999-0.996
		c3.001-0.132,4.354-1.254,5.115-0.789C340.6,76.458,340.405,78.005,340.405,78.005z"/>
	<path d="M323.879,95.444c-3.472-1.238-5.035-1.45-8.25-1.401c-3.216,0.049-4.908,0.811-7.157-0.27
		c-2.248-1.081-1.679-1.471-3.918-2.059c-2.237-0.588-5.403-0.8-6.081-2.008c-0.679-1.208-0.442-1.104,0.616-0.888
		c1.06,0.217,4.818,1.383,6.914,1.639c2.097,0.256,3.466-0.926,5.284-0.892c1.818,0.035,3.077,1.039,6.358,2.178
		s10.13,3.362,10.13,3.362L323.879,95.444z"/>
	<path d="M329.002,95.551c0.658,1.541,1.093,1.355,0.878,3.433s0.024,3.499-1.414,3.058c-1.439-0.44-0.691-1.79-2.113-1.329
		c-1.422,0.46-2.371,0.131-2.071,2.21c0.301,2.079,1.365,2.214,0.681,3.313c-0.684,1.1-1.41,2.28-0.898,2.366
		c0.512,0.086,1.802,0.698,3.44-0.206c1.64-0.904,2.804-1.349,3.981-2.206c1.178-0.857,1.731-0.408,2.468-2.691
		c0.736-2.283,1.707-2.177,0.974-3.425c-0.733-1.248-2.164-3.648-2.928-4.644c-0.765-0.996-2.813-0.642-3.046-0.579
		C328.721,94.914,329.002,95.551,329.002,95.551z"/>
	<path d="M295.695,111.227c-0.215-2.838-0.698-4.028-1.961-4.418c-1.264-0.391-2.44-0.293-2.689,0.169
		c-0.247,0.461-1.668,1.285-0.176,1.351c1.494,0.067,1.899-0.457,2.529,0.477c0.629,0.933,0.862,1.453,1.137,1.938
		S295.695,111.227,295.695,111.227z"/>
	<path d="M308.054,101.622c-0.637-2.524-0.565-3.732-1.994-4.666c-1.429-0.934-3.665-1.964-5.221-1.594
		c-1.555,0.371-2.355,2.186-2.951,2.992c-0.597,0.806-0.433,2.222,1.181,2.04c1.615-0.183,1.025-1.387,2.862-1.224
		c1.835,0.164,1.533,0.661,2.705,1.337C305.808,101.184,308.054,101.622,308.054,101.622z"/>
	<path d="M310.1,119.803c3.182-1.729,4.594-0.421,6.586-3.334c1.991-2.911,2.655-0.842,4.319-3.833
		c1.664-2.992,2.251-3.168-0.023-3.153c-2.274,0.015-1.085-2.184-4.589-0.833c-3.503,1.35-3.062,4.105-4.383,1.874
		c-1.322-2.231-3.409-4.03-1.362-4.05c2.048-0.021,6.37,0.158,7.657,0.708s4.284,1.158,5.021,1.29
		c0.737,0.131,2.132,0.431,1.839,1.958c-0.295,1.528-0.589,2.814-2.044,3.663c-1.453,0.848-3.804,2.219-4.516,2.902
		c-0.713,0.684-1.966,2.71-3.889,2.956c-1.924,0.247-4.917-0.212-4.917-0.212L310.1,119.803z"/>
	<path d="M285.538,120.903c1.292,0.521,3.088,1.584,4.931,0.669c1.844-0.916,1.908-1.247,2.622-1.783
		c0.713-0.535-0.298-2.084-0.522-2.398c-0.225-0.315-0.593-2.619,2.723-0.37c3.316,2.25,4.327,2.722,3.354,3.715
		c-0.973,0.994-2.138,2.229-3.808,2.28c-1.67,0.052-2.275,0.543-3.791,0.268c-1.515-0.275-2.375,0.454-3.978-0.708
		s-2.515-1.759-2.515-1.759L285.538,120.903z"/>
	
		<linearGradient id="SVGID_4_" gradientUnits="userSpaceOnUse" x1="242.5156" y1="-15.8047" x2="230.3076" y2="-19.0758" gradientTransform="matrix(0.3931 0.9195 -0.9195 0.3931 232.5701 -142.3377)">
		<stop  offset="0" style="stop-color:#2A0800"/>
		<stop  offset="0.0392" style="stop-color:#350C00"/>
		<stop  offset="0.1075" style="stop-color:#511600"/>
		<stop  offset="0.1962" style="stop-color:#802600"/>
		<stop  offset="0.2312" style="stop-color:#942D00"/>
		<stop  offset="0.2936" style="stop-color:#9C3F00"/>
		<stop  offset="0.4179" style="stop-color:#B16D00"/>
		<stop  offset="0.4892" style="stop-color:#BF8A00"/>
		<stop  offset="0.4943" style="stop-color:#BE8700"/>
		<stop  offset="0.5623" style="stop-color:#AC6000"/>
		<stop  offset="0.6249" style="stop-color:#9F4400"/>
		<stop  offset="0.6797" style="stop-color:#973300"/>
		<stop  offset="0.7204" style="stop-color:#942D00"/>
		<stop  offset="0.7222" style="stop-color:#932D00"/>
		<stop  offset="0.7794" style="stop-color:#6D1F00"/>
		<stop  offset="0.8364" style="stop-color:#501500"/>
		<stop  offset="0.8926" style="stop-color:#3B0E00"/>
		<stop  offset="0.9476" style="stop-color:#2E0900"/>
		<stop  offset="1" style="stop-color:#2A0800"/>
	</linearGradient>
	<path fill="url(#SVGID_4_)" stroke="#000000" stroke-miterlimit="10" d="M344.716,61.418c3.883-0.547,6.809,0.518,7.703,1.526
		s0.778,5.268-0.008,7.727s-4.24,3.062-6.955,3.282c-2.407,0.195-6.604-0.111-9.867-0.879c-1.779-0.418-5.7-2.965-5.7-2.965
		s5.703-5.38,9.83-7.02C345.318,60.865,344.716,61.418,344.716,61.418z"/>
	
		<linearGradient id="SVGID_5_" gradientUnits="userSpaceOnUse" x1="236.9961" y1="23.0049" x2="230.2619" y2="14.9794" gradientTransform="matrix(0.3931 0.9195 -0.9195 0.3931 232.5701 -142.3377)">
		<stop  offset="0" style="stop-color:#2A0800"/>
		<stop  offset="0.0392" style="stop-color:#350C00"/>
		<stop  offset="0.1075" style="stop-color:#511600"/>
		<stop  offset="0.1962" style="stop-color:#802600"/>
		<stop  offset="0.2312" style="stop-color:#942D00"/>
		<stop  offset="0.2936" style="stop-color:#9C3F00"/>
		<stop  offset="0.4179" style="stop-color:#B16D00"/>
		<stop  offset="0.4892" style="stop-color:#BF8A00"/>
		<stop  offset="0.4943" style="stop-color:#BE8700"/>
		<stop  offset="0.5623" style="stop-color:#AC6000"/>
		<stop  offset="0.6249" style="stop-color:#9F4400"/>
		<stop  offset="0.6797" style="stop-color:#973300"/>
		<stop  offset="0.7204" style="stop-color:#942D00"/>
		<stop  offset="0.7222" style="stop-color:#932D00"/>
		<stop  offset="0.7794" style="stop-color:#6D1F00"/>
		<stop  offset="0.8364" style="stop-color:#501500"/>
		<stop  offset="0.8926" style="stop-color:#3B0E00"/>
		<stop  offset="0.9476" style="stop-color:#2E0900"/>
		<stop  offset="1" style="stop-color:#2A0800"/>
	</linearGradient>
	<path fill="url(#SVGID_5_)" stroke="#000000" stroke-miterlimit="10" d="M315.649,78.82c0.072,1.977-1.589,3.509-1.907,4.934
		c-0.317,1.424,0.315,3.107-1.345,3.717c-1.66,0.609-5.911-1.643-8.222-3.745c-2.31-2.102-5.532-6.749-5.532-6.749
		s7.774-1.499,9.115-1.44c1.341,0.06,2.616-0.022,4.814,1.509C314.772,78.577,315.649,78.82,315.649,78.82z"/>
	
		<linearGradient id="SVGID_6_" gradientUnits="userSpaceOnUse" x1="239.3154" y1="45.8018" x2="233.6082" y2="39.0001" gradientTransform="matrix(0.3931 0.9195 -0.9195 0.3931 232.5701 -142.3377)">
		<stop  offset="0" style="stop-color:#2A0800"/>
		<stop  offset="0.0392" style="stop-color:#350C00"/>
		<stop  offset="0.1075" style="stop-color:#511600"/>
		<stop  offset="0.1962" style="stop-color:#802600"/>
		<stop  offset="0.2312" style="stop-color:#942D00"/>
		<stop  offset="0.2936" style="stop-color:#9C3F00"/>
		<stop  offset="0.4179" style="stop-color:#B16D00"/>
		<stop  offset="0.4892" style="stop-color:#BF8A00"/>
		<stop  offset="0.4943" style="stop-color:#BE8700"/>
		<stop  offset="0.5623" style="stop-color:#AC6000"/>
		<stop  offset="0.6249" style="stop-color:#9F4400"/>
		<stop  offset="0.6797" style="stop-color:#973300"/>
		<stop  offset="0.7204" style="stop-color:#942D00"/>
		<stop  offset="0.7222" style="stop-color:#932D00"/>
		<stop  offset="0.7794" style="stop-color:#6D1F00"/>
		<stop  offset="0.8364" style="stop-color:#501500"/>
		<stop  offset="0.8926" style="stop-color:#3B0E00"/>
		<stop  offset="0.9476" style="stop-color:#2E0900"/>
		<stop  offset="1" style="stop-color:#2A0800"/>
	</linearGradient>
	<path fill="url(#SVGID_6_)" stroke="#000000" stroke-miterlimit="10" d="M292.155,89.62c1.229,1.791,1.627,5.973-0.65,6.787
		s-1.076,2.078-5.687-0.044c-2.846-1.311-5.419-8.228-5.419-8.228s5.759-0.97,7.507-0.287
		C289.654,88.532,292.155,89.62,292.155,89.62z"/>
	
		<linearGradient id="SVGID_7_" gradientUnits="userSpaceOnUse" x1="243.4385" y1="55.9126" x2="240.9836" y2="49.1677" gradientTransform="matrix(0.3931 0.9195 -0.9195 0.3931 232.5701 -142.3377)">
		<stop  offset="0" style="stop-color:#2A0800"/>
		<stop  offset="0.0392" style="stop-color:#350C00"/>
		<stop  offset="0.1075" style="stop-color:#511600"/>
		<stop  offset="0.1962" style="stop-color:#802600"/>
		<stop  offset="0.2312" style="stop-color:#942D00"/>
		<stop  offset="0.2936" style="stop-color:#9C3F00"/>
		<stop  offset="0.4179" style="stop-color:#B16D00"/>
		<stop  offset="0.4892" style="stop-color:#BF8A00"/>
		<stop  offset="0.4943" style="stop-color:#BE8700"/>
		<stop  offset="0.5623" style="stop-color:#AC6000"/>
		<stop  offset="0.6249" style="stop-color:#9F4400"/>
		<stop  offset="0.6797" style="stop-color:#973300"/>
		<stop  offset="0.7204" style="stop-color:#942D00"/>
		<stop  offset="0.7222" style="stop-color:#932D00"/>
		<stop  offset="0.7794" style="stop-color:#6D1F00"/>
		<stop  offset="0.8364" style="stop-color:#501500"/>
		<stop  offset="0.8926" style="stop-color:#3B0E00"/>
		<stop  offset="0.9476" style="stop-color:#2E0900"/>
		<stop  offset="1" style="stop-color:#2A0800"/>
	</linearGradient>
	<path fill="url(#SVGID_7_)" stroke="#000000" stroke-miterlimit="10" d="M285.303,103.214c0.388,1.877-0.721,4.248-3.356,4.071
		c-1.383-0.093-3.065-0.682-4.868-4.708c-1.801-4.026-2.245-7.232-2.245-7.232s5.609,1.196,6.394,2.31
		c0.785,1.113,0.84,0.881,2.142,2.48C284.669,101.734,285.096,102.217,285.303,103.214z"/>
	
		<linearGradient id="SVGID_8_" gradientUnits="userSpaceOnUse" x1="261.1279" y1="54.1323" x2="254.7173" y2="50.4312" gradientTransform="matrix(0.2936 0.9559 -0.9559 0.2936 260.2282 -144.4414)">
		<stop  offset="0" style="stop-color:#2A0800"/>
		<stop  offset="0.0392" style="stop-color:#350C00"/>
		<stop  offset="0.1075" style="stop-color:#511600"/>
		<stop  offset="0.1962" style="stop-color:#802600"/>
		<stop  offset="0.2312" style="stop-color:#942D00"/>
		<stop  offset="0.2936" style="stop-color:#9C3F00"/>
		<stop  offset="0.4179" style="stop-color:#B16D00"/>
		<stop  offset="0.4892" style="stop-color:#BF8A00"/>
		<stop  offset="0.4943" style="stop-color:#BE8700"/>
		<stop  offset="0.5623" style="stop-color:#AC6000"/>
		<stop  offset="0.6249" style="stop-color:#9F4400"/>
		<stop  offset="0.6797" style="stop-color:#973300"/>
		<stop  offset="0.7204" style="stop-color:#942D00"/>
		<stop  offset="0.7222" style="stop-color:#932D00"/>
		<stop  offset="0.7794" style="stop-color:#6D1F00"/>
		<stop  offset="0.8364" style="stop-color:#501500"/>
		<stop  offset="0.8926" style="stop-color:#3B0E00"/>
		<stop  offset="0.9476" style="stop-color:#2E0900"/>
		<stop  offset="1" style="stop-color:#2A0800"/>
	</linearGradient>
	<path fill="url(#SVGID_8_)" stroke="#000000" stroke-miterlimit="10" d="M294.078,119.695c-2.96,1.49-3.596,2.501-6.382,1.96
		c-2.785-0.541-5.859-3.116-6.12-3.482c-0.127-0.177-3.402-4.303-3.402-4.303s4.574-0.882,5.783-0.52
		c2.355,0.705,5.129,0.733,6.413,1.528C291.653,115.672,294.078,119.695,294.078,119.695z"/>
	
		<linearGradient id="SVGID_9_" gradientUnits="userSpaceOnUse" x1="221.7192" y1="-7.3828" x2="217.127" y2="-15.3369" gradientTransform="matrix(0.3931 0.9195 -0.9195 0.3931 232.5701 -142.3377)">
		<stop  offset="0" style="stop-color:#2A0800"/>
		<stop  offset="0.0874" style="stop-color:#350C00"/>
		<stop  offset="0.24" style="stop-color:#511600"/>
		<stop  offset="0.4381" style="stop-color:#802600"/>
		<stop  offset="0.5161" style="stop-color:#942D00"/>
		<stop  offset="0.5785" style="stop-color:#A04700"/>
		<stop  offset="0.6648" style="stop-color:#AE6400"/>
		<stop  offset="0.7505" style="stop-color:#B77900"/>
		<stop  offset="0.8342" style="stop-color:#BD8600"/>
		<stop  offset="0.914" style="stop-color:#BF8A00"/>
		<stop  offset="0.9174" style="stop-color:#B68200"/>
		<stop  offset="0.9374" style="stop-color:#845700"/>
		<stop  offset="0.9563" style="stop-color:#5D3500"/>
		<stop  offset="0.9736" style="stop-color:#411C00"/>
		<stop  offset="0.9887" style="stop-color:#300D00"/>
		<stop  offset="1" style="stop-color:#2A0800"/>
	</linearGradient>
	<path fill="url(#SVGID_9_)" stroke="#000000" stroke-miterlimit="10" d="M320.826,44.324c-3.618,0.93-4.498,3.931-4.257,5.218
		c0.242,1.288,2.684,3.024,4.788,5.059c2.106,2.034,8.964,6.516,11.108,7.916c2.143,1.4,5.934,4.486,5.934,4.486
		s1.505-2.261-0.264-5.675s-7.281-11.251-8.885-12.11s-8.066-5.139-8.066-5.139"/>
	
		<radialGradient id="SVGID_10_" cx="237.5928" cy="-17.7646" r="9.5545" gradientTransform="matrix(-0.1417 -0.9899 9.899 -1.4174 551.8376 279.1555)" gradientUnits="userSpaceOnUse">
		<stop  offset="0" style="stop-color:#2A0800"/>
		<stop  offset="0.0446" style="stop-color:#350C00"/>
		<stop  offset="0.1225" style="stop-color:#511600"/>
		<stop  offset="0.2236" style="stop-color:#802600"/>
		<stop  offset="0.2634" style="stop-color:#942D00"/>
		<stop  offset="0.4" style="stop-color:#9C3F00"/>
		<stop  offset="0.6718" style="stop-color:#B16D00"/>
		<stop  offset="0.828" style="stop-color:#BF8A00"/>
		<stop  offset="0.8348" style="stop-color:#B68200"/>
		<stop  offset="0.8748" style="stop-color:#845700"/>
		<stop  offset="0.9127" style="stop-color:#5D3500"/>
		<stop  offset="0.9473" style="stop-color:#411C00"/>
		<stop  offset="0.9775" style="stop-color:#300D00"/>
		<stop  offset="1" style="stop-color:#2A0800"/>
	</radialGradient>
	<path fill="url(#SVGID_10_)" stroke="#000000" stroke-miterlimit="10" d="M344.716,61.418c3.883-0.547,6.809,0.518,7.703,1.526
		s0.778,5.268-0.008,7.727s-4.24,3.062-6.955,3.282c-2.407,0.195-6.604-0.111-9.867-0.879c-1.779-0.418-5.7-2.965-5.7-2.965
		s5.703-5.38,9.83-7.02C345.318,60.865,344.716,61.418,344.716,61.418z"/>
	
		<linearGradient id="SVGID_11_" gradientUnits="userSpaceOnUse" x1="236.9961" y1="23.0049" x2="230.2619" y2="14.9794" gradientTransform="matrix(0.3931 0.9195 -0.9195 0.3931 232.5701 -142.3377)">
		<stop  offset="0" style="stop-color:#2A0800"/>
		<stop  offset="0.0683" style="stop-color:#350C00"/>
		<stop  offset="0.1875" style="stop-color:#511600"/>
		<stop  offset="0.3423" style="stop-color:#802600"/>
		<stop  offset="0.4032" style="stop-color:#942D00"/>
		<stop  offset="0.5099" style="stop-color:#9C3F00"/>
		<stop  offset="0.7222" style="stop-color:#B16D00"/>
		<stop  offset="0.8441" style="stop-color:#BF8A00"/>
		<stop  offset="0.8502" style="stop-color:#B68200"/>
		<stop  offset="0.8866" style="stop-color:#845700"/>
		<stop  offset="0.9209" style="stop-color:#5D3500"/>
		<stop  offset="0.9522" style="stop-color:#411C00"/>
		<stop  offset="0.9796" style="stop-color:#300D00"/>
		<stop  offset="1" style="stop-color:#2A0800"/>
	</linearGradient>
	<path fill="url(#SVGID_11_)" stroke="#000000" stroke-miterlimit="10" d="M315.649,78.82c0.072,1.977-1.589,3.509-1.907,4.934
		c-0.317,1.424,0.315,3.107-1.345,3.717c-1.66,0.609-5.911-1.643-8.222-3.745c-2.31-2.102-5.532-6.749-5.532-6.749
		s7.774-1.499,9.115-1.44c1.341,0.06,2.616-0.022,4.814,1.509C314.772,78.577,315.649,78.82,315.649,78.82z"/>
	
		<linearGradient id="SVGID_12_" gradientUnits="userSpaceOnUse" x1="239.3154" y1="45.8018" x2="233.6082" y2="39.0001" gradientTransform="matrix(0.3931 0.9195 -0.9195 0.3931 232.5701 -142.3377)">
		<stop  offset="0" style="stop-color:#2A0800"/>
		<stop  offset="0.0765" style="stop-color:#350C00"/>
		<stop  offset="0.21" style="stop-color:#511600"/>
		<stop  offset="0.3834" style="stop-color:#802600"/>
		<stop  offset="0.4516" style="stop-color:#942D00"/>
		<stop  offset="0.5452" style="stop-color:#9C3F00"/>
		<stop  offset="0.7317" style="stop-color:#B16D00"/>
		<stop  offset="0.8387" style="stop-color:#BF8A00"/>
		<stop  offset="0.8451" style="stop-color:#B68200"/>
		<stop  offset="0.8826" style="stop-color:#845700"/>
		<stop  offset="0.9181" style="stop-color:#5D3500"/>
		<stop  offset="0.9506" style="stop-color:#411C00"/>
		<stop  offset="0.9789" style="stop-color:#300D00"/>
		<stop  offset="1" style="stop-color:#2A0800"/>
	</linearGradient>
	<path fill="url(#SVGID_12_)" stroke="#000000" stroke-miterlimit="10" d="M292.155,89.62c1.229,1.791,1.627,5.973-0.65,6.787
		s-1.076,2.078-5.687-0.044c-2.846-1.311-5.419-8.228-5.419-8.228s5.759-0.97,7.507-0.287
		C289.654,88.532,292.155,89.62,292.155,89.62z"/>
	
		<linearGradient id="SVGID_13_" gradientUnits="userSpaceOnUse" x1="243.4385" y1="55.9126" x2="240.9836" y2="49.1677" gradientTransform="matrix(0.3931 0.9195 -0.9195 0.3931 232.5701 -142.3377)">
		<stop  offset="0" style="stop-color:#2A0800"/>
		<stop  offset="0.0701" style="stop-color:#350C00"/>
		<stop  offset="0.1925" style="stop-color:#511600"/>
		<stop  offset="0.3514" style="stop-color:#802600"/>
		<stop  offset="0.414" style="stop-color:#942D00"/>
		<stop  offset="0.5063" style="stop-color:#9C3F00"/>
		<stop  offset="0.6901" style="stop-color:#B16D00"/>
		<stop  offset="0.7957" style="stop-color:#BF8A00"/>
		<stop  offset="0.8038" style="stop-color:#B68200"/>
		<stop  offset="0.8513" style="stop-color:#845700"/>
		<stop  offset="0.8963" style="stop-color:#5D3500"/>
		<stop  offset="0.9374" style="stop-color:#411C00"/>
		<stop  offset="0.9733" style="stop-color:#300D00"/>
		<stop  offset="1" style="stop-color:#2A0800"/>
	</linearGradient>
	<path fill="url(#SVGID_13_)" stroke="#000000" stroke-miterlimit="10" d="M285.303,103.214c0.388,1.877-0.721,4.248-3.356,4.071
		c-1.383-0.093-3.065-0.682-4.868-4.708c-1.801-4.026-2.245-7.232-2.245-7.232s5.609,1.196,6.394,2.31
		c0.785,1.113,0.84,0.881,2.142,2.48C284.669,101.734,285.096,102.217,285.303,103.214z"/>
	
		<linearGradient id="SVGID_14_" gradientUnits="userSpaceOnUse" x1="261.1279" y1="54.1323" x2="254.7173" y2="50.4312" gradientTransform="matrix(0.2936 0.9559 -0.9559 0.2936 260.2282 -144.4414)">
		<stop  offset="0" style="stop-color:#2A0800"/>
		<stop  offset="0.0701" style="stop-color:#350C00"/>
		<stop  offset="0.1925" style="stop-color:#511600"/>
		<stop  offset="0.3514" style="stop-color:#802600"/>
		<stop  offset="0.414" style="stop-color:#942D00"/>
		<stop  offset="0.5346" style="stop-color:#9A3F00"/>
		<stop  offset="0.7747" style="stop-color:#A86D00"/>
		<stop  offset="0.8333" style="stop-color:#AC7900"/>
		<stop  offset="0.8682" style="stop-color:#845600"/>
		<stop  offset="0.9078" style="stop-color:#5D3400"/>
		<stop  offset="0.9443" style="stop-color:#411C00"/>
		<stop  offset="0.9762" style="stop-color:#300D00"/>
		<stop  offset="1" style="stop-color:#2A0800"/>
	</linearGradient>
	<path fill="url(#SVGID_14_)" stroke="#000000" stroke-miterlimit="10" d="M294.078,119.695c-2.96,1.49-3.596,2.501-6.382,1.96
		c-2.785-0.541-5.859-3.116-6.12-3.482c-0.127-0.177-3.402-4.303-3.402-4.303s4.574-0.882,5.783-0.52
		c2.355,0.705,5.129,0.733,6.413,1.528C291.653,115.672,294.078,119.695,294.078,119.695z"/>
	
		<linearGradient id="SVGID_15_" gradientUnits="userSpaceOnUse" x1="221.7192" y1="-7.3828" x2="217.127" y2="-15.3369" gradientTransform="matrix(0.3931 0.9195 -0.9195 0.3931 232.5701 -142.3377)">
		<stop  offset="0" style="stop-color:#2A0800"/>
		<stop  offset="0.0874" style="stop-color:#350C00"/>
		<stop  offset="0.24" style="stop-color:#511600"/>
		<stop  offset="0.4381" style="stop-color:#802600"/>
		<stop  offset="0.5161" style="stop-color:#942D00"/>
		<stop  offset="0.5785" style="stop-color:#A04700"/>
		<stop  offset="0.6648" style="stop-color:#AE6400"/>
		<stop  offset="0.7505" style="stop-color:#B77900"/>
		<stop  offset="0.8342" style="stop-color:#BD8600"/>
		<stop  offset="0.914" style="stop-color:#BF8A00"/>
		<stop  offset="0.9174" style="stop-color:#B68200"/>
		<stop  offset="0.9374" style="stop-color:#845700"/>
		<stop  offset="0.9563" style="stop-color:#5D3500"/>
		<stop  offset="0.9736" style="stop-color:#411C00"/>
		<stop  offset="0.9887" style="stop-color:#300D00"/>
		<stop  offset="1" style="stop-color:#2A0800"/>
	</linearGradient>
	<path fill="url(#SVGID_15_)" stroke="#000000" stroke-miterlimit="10" d="M320.826,44.324c-3.618,0.93-4.498,3.931-4.257,5.218
		c0.242,1.288,2.684,3.024,4.788,5.059c2.106,2.034,8.965,6.516,11.108,7.916c2.143,1.4,5.934,4.486,5.934,4.486
		s1.505-2.261-0.264-5.675c-1.769-3.414-7.281-11.25-8.884-12.109c-1.604-0.86-8.067-5.139-8.067-5.139"/>
</g>
<g id="Layer_11">
	
		<radialGradient id="SVGID_16_" cx="231.835" cy="-82.1987" r="30.964" gradientTransform="matrix(-0.3931 0.9195 0.9195 0.3931 204.1067 -142.3377)" gradientUnits="userSpaceOnUse">
		<stop  offset="0" style="stop-color:#FFFFFF"/>
		<stop  offset="0.0032" style="stop-color:#F6F6F6"/>
		<stop  offset="0.0205" style="stop-color:#C8C8C8"/>
		<stop  offset="0.04" style="stop-color:#9D9D9D"/>
		<stop  offset="0.061" style="stop-color:#777777"/>
		<stop  offset="0.0839" style="stop-color:#575757"/>
		<stop  offset="0.1091" style="stop-color:#3B3B3B"/>
		<stop  offset="0.1376" style="stop-color:#252525"/>
		<stop  offset="0.1709" style="stop-color:#141414"/>
		<stop  offset="0.2121" style="stop-color:#090909"/>
		<stop  offset="0.2698" style="stop-color:#020202"/>
		<stop  offset="0.4301" style="stop-color:#000000"/>
		<stop  offset="0.5814" style="stop-color:#020202"/>
		<stop  offset="0.6598" style="stop-color:#0A0A0A"/>
		<stop  offset="0.7215" style="stop-color:#171717"/>
		<stop  offset="0.7745" style="stop-color:#2B2B2B"/>
		<stop  offset="0.8219" style="stop-color:#434343"/>
		<stop  offset="0.8652" style="stop-color:#626262"/>
		<stop  offset="0.9056" style="stop-color:#868686"/>
		<stop  offset="0.9435" style="stop-color:#B0B0B0"/>
		<stop  offset="0.9783" style="stop-color:#DEDEDE"/>
		<stop  offset="1" style="stop-color:#FFFFFF"/>
	</radialGradient>
	<path fill="url(#SVGID_16_)" stroke="#000000" stroke-miterlimit="10" d="M16.346,13.268c8.083-6.809,17.565-8.441,27.789-4.794
		c10.38,3.702,19.772,13.529,20.915,17.642c1.142,4.113,6.356,11.418,3.563,19.649c-2.794,8.231-27.759,24.022-31.497,24.6
		c-3.737,0.577-14.153-5.288-19.22-11.118C12.83,53.416,9.89,47.96,8.098,41.462c-1.39-5.043-2.004-9.063-0.132-14.287
		C9.837,21.951,13.535,15.636,16.346,13.268z"/>
	<path fill="#FFFFFF" d="M64.32,34.322c-4.195-9.407-12.607-18.985-22.589-21.077c-9.981-2.092-22.979,0.326-27.192,11.032
		c-4.215,10.705-2.697,18.604-1.601,21.973c1.098,3.37,2.556,7.628,1.989,8.066c-0.566,0.437-3.456-1.436-5.588-9.013
		S4.11,28.748,10.687,20.636c6.577-8.112,11.104-11.201,18.795-13.08c7.692-1.878,24.992,6.278,27.755,8.863
		c2.762,2.585,10.768,13.851,10.454,16.259C67.378,35.086,64.32,34.322,64.32,34.322z"/>
	
		<linearGradient id="SVGID_17_" gradientUnits="userSpaceOnUse" x1="233.0049" y1="-78.9263" x2="230.049" y2="-83.8458" gradientTransform="matrix(-0.3931 0.9195 0.9195 0.3931 204.1067 -142.3377)">
		<stop  offset="0" style="stop-color:#000000"/>
		<stop  offset="0.1823" style="stop-color:#020202"/>
		<stop  offset="0.248" style="stop-color:#090909"/>
		<stop  offset="0.2948" style="stop-color:#141414"/>
		<stop  offset="0.3327" style="stop-color:#252525"/>
		<stop  offset="0.3651" style="stop-color:#3B3B3B"/>
		<stop  offset="0.3938" style="stop-color:#575757"/>
		<stop  offset="0.4198" style="stop-color:#777777"/>
		<stop  offset="0.4437" style="stop-color:#9D9D9D"/>
		<stop  offset="0.4659" style="stop-color:#C8C8C8"/>
		<stop  offset="0.4856" style="stop-color:#F6F6F6"/>
		<stop  offset="0.4892" style="stop-color:#FFFFFF"/>
		<stop  offset="0.5103" style="stop-color:#DADADA"/>
		<stop  offset="0.5401" style="stop-color:#ADADAD"/>
		<stop  offset="0.5727" style="stop-color:#838383"/>
		<stop  offset="0.6075" style="stop-color:#606060"/>
		<stop  offset="0.6451" style="stop-color:#424242"/>
		<stop  offset="0.6863" style="stop-color:#2A2A2A"/>
		<stop  offset="0.7327" style="stop-color:#171717"/>
		<stop  offset="0.7872" style="stop-color:#0A0A0A"/>
		<stop  offset="0.8576" style="stop-color:#020202"/>
		<stop  offset="1" style="stop-color:#000000"/>
	</linearGradient>
	<path fill="url(#SVGID_17_)" d="M15.907,56.833c7.694-4.574,28.668-19.715,34.18-23.702c5.511-3.988,11.79-7.154,13.144-10.356
		s-1.177-5.966-4.877-2.085c-3.7,3.881-22.006,17.444-28.654,22.396c-6.648,4.951-15.938,10.142-16.477,11.403
		c-0.538,1.261-0.563,3.718,1.061,3.032C15.907,56.833,15.907,56.833,15.907,56.833z"/>
	<path fill="#66CC99" d="M48.695,70.868C61.733,50.469,63.071,44,67.864,46.811c4.792,2.81,15.32,10.451,20.141,18.315
		c4.819,7.864,9.599,18.27,11.541,21.959c1.943,3.69-5.826,12.737-7.643,10.533c-1.816-2.205-31.541-24.805-34.045-24.735
		C55.355,72.953,48.695,70.868,48.695,70.868z"/>
	<path fill="#333333" stroke="#000000" stroke-miterlimit="10" d="M188.962,165.176c-3.074,7.149-17.781,20.43-29.416,17.713
		c-11.635-2.716-21.13-3.389-27.362-11.698s-7.414-9.944-9.872-14.759c-2.458-4.813-2.058-8.029-2.058-8.029
		s2.886-0.806,6.853,3.953c3.966,4.759,8.482,16.151,18.525,18.187c10.043,2.036,18.764,7.164,24.238,3.16
		s10.914-12.322,10.914-12.322L188.962,165.176"/>
	
		<linearGradient id="SVGID_18_" gradientUnits="userSpaceOnUse" x1="262.2939" y1="0.6963" x2="292.1439" y2="-16.5376" gradientTransform="matrix(-0.3931 0.9195 0.9195 0.3931 204.1067 -142.3377)">
		<stop  offset="0" style="stop-color:#FFFFFF"/>
		<stop  offset="0.0032" style="stop-color:#F6F6F6"/>
		<stop  offset="0.0205" style="stop-color:#C8C8C8"/>
		<stop  offset="0.04" style="stop-color:#9D9D9D"/>
		<stop  offset="0.061" style="stop-color:#777777"/>
		<stop  offset="0.0839" style="stop-color:#575757"/>
		<stop  offset="0.1091" style="stop-color:#3B3B3B"/>
		<stop  offset="0.1376" style="stop-color:#252525"/>
		<stop  offset="0.1709" style="stop-color:#141414"/>
		<stop  offset="0.2121" style="stop-color:#090909"/>
		<stop  offset="0.2698" style="stop-color:#020202"/>
		<stop  offset="0.4301" style="stop-color:#000000"/>
		<stop  offset="0.5814" style="stop-color:#020202"/>
		<stop  offset="0.6598" style="stop-color:#0A0A0A"/>
		<stop  offset="0.7215" style="stop-color:#171717"/>
		<stop  offset="0.7745" style="stop-color:#2B2B2B"/>
		<stop  offset="0.8219" style="stop-color:#434343"/>
		<stop  offset="0.8652" style="stop-color:#626262"/>
		<stop  offset="0.9056" style="stop-color:#868686"/>
		<stop  offset="0.9435" style="stop-color:#B0B0B0"/>
		<stop  offset="0.9783" style="stop-color:#DEDEDE"/>
		<stop  offset="1" style="stop-color:#FFFFFF"/>
	</linearGradient>
	<path fill="url(#SVGID_18_)" stroke="#000000" stroke-miterlimit="10" d="M133.606,143.881c0,0-67.469-94.471-68.911-92.369
		s-26.424,18.802-27.58,18.852c-1.155,0.049,75.32,89.118,75.32,89.118s11.84-0.557,14.573-2.288
		C129.743,155.462,133.606,143.881,133.606,143.881z"/>
	<path fill="#66CC99" stroke="#000000" stroke-miterlimit="10" d="M253.802,128.317L119.847,77.573l-3.758-4.871l-4.05-4.995
		c0,0-0.832-2.074-3.986-5.141c-3.156-3.067-5.438-3.356-7.64-7.045c-2.202-3.69-1.066-6.951-4.572-10.202
		c-3.397-3.149-0.387-2.955-6.415-3.722c-6.093-0.775-8.827-1.259-13.227-3.827c-4.399-2.569-6.759-1.859-11.033-4.717
		c-4.275-2.859-4.851,1.437-6.709,4.874c-1.943,3.593-5.594,8.26-5.594,8.26s-12.728,9.677-10.068,13.906s7.972,7.875,12.201,5.216
		c4.229-2.659,7.422-3.699,10.862-7.726c3.439-4.027,1.656-3.072,6.886-0.836c5.229,2.236,3.75,3.678,3.414,7.773
		c-0.139,1.696,9.344,13.094,9.344,13.094l38.373,53.222c0,0,15.48,7.993,22.494,11.68c7.015,3.686,6.974,2.979,20.877,10.643
		s28.554,15.988,33.202,17.976s32.958,20.962,37.193,25.521c4.234,4.56,15.125-19.302,23.736-38.643
		c8.611-19.34,12.383-24.943,6.49-26.432C261.977,130.094,253.802,128.317,253.802,128.317z"/>
	<path d="M73.131,55.57c1.168-7.074,2.263-11.829,0.25-8.772c-2.014,3.057-2.487,6.249-3.21,7.507
		C69.449,55.563,73.131,55.57,73.131,55.57z"/>
	<path d="M81.541,59.453c2.978-2.489,5.129-5.806,5.129-5.806s-0.274,6.961-1.005,7.569S81.541,59.453,81.541,59.453z"/>
	<g>
		<path d="M84.522,65.462c0,0,0.528-0.556,1.32-1.39c0.213-0.21,0.331-0.426,0.521-0.664c0.18-0.238,0.369-0.49,0.565-0.75
			c0.21-0.249,0.378-0.576,0.571-0.881c0.19-0.313,0.383-0.63,0.576-0.948c0.184-0.324,0.343-0.663,0.514-0.991
			c0.162-0.332,0.347-0.651,0.482-0.978c0.28-0.648,0.565-1.254,0.757-1.791c0.425-1.063,0.637-1.801,0.637-1.801
			s-0.026,0.769-0.183,1.916c-0.058,0.579-0.188,1.241-0.307,1.963c-0.054,0.363-0.158,0.725-0.238,1.102
			c-0.09,0.375-0.167,0.761-0.272,1.141c-0.117,0.378-0.233,0.756-0.348,1.128c-0.124,0.374-0.21,0.744-0.379,1.103
			c-0.154,0.362-0.303,0.712-0.444,1.044c-0.148,0.321-0.277,0.681-0.422,0.918c-0.566,1.002-0.944,1.671-0.944,1.671L84.522,65.462
			z"/>
	</g>
	<g>
		<path d="M86.163,67.872c0,0,0.169-0.021,0.464-0.056c0.153-0.017,0.306-0.043,0.583-0.059c0.252-0.012,0.558-0.048,0.842-0.035
			c0.58,0.006,1.241,0.067,1.896,0.177c0.653,0.106,1.3,0.245,1.908,0.308c0.306,0.035,0.598,0.033,0.891,0.02
			c0.286-0.032,0.571-0.08,0.84-0.174c0.542-0.177,1.031-0.475,1.425-0.771c0.394-0.301,0.709-0.583,0.911-0.798
			c0.213-0.208,0.334-0.327,0.334-0.327s-0.084,0.147-0.232,0.406c-0.139,0.267-0.366,0.629-0.682,1.051
			c-0.318,0.417-0.742,0.889-1.327,1.287c-0.292,0.205-0.623,0.368-0.979,0.513c-0.355,0.124-0.729,0.231-1.098,0.293
			c-0.739,0.131-1.44,0.172-2.05,0.245c-0.609,0.067-1.128,0.171-1.554,0.289c-0.22,0.051-0.367,0.128-0.521,0.175
			c-0.13,0.039-0.319,0.124-0.452,0.179c-0.275,0.115-0.432,0.181-0.432,0.181L86.163,67.872z"/>
	</g>
	<g>
		<path d="M91.157,79.62c0,0,0.713-0.687,1.783-1.715c0.326-0.256,0.679-0.533,1.053-0.825c0.369-0.306,0.767-0.565,1.181-0.81
			c0.418-0.261,0.834-0.514,1.235-0.744l0.614-0.364l0.553-0.398c0.182-0.138,0.384-0.257,0.553-0.412l0.486-0.486
			c0.323-0.325,0.667-0.631,0.914-1.012c0.27-0.363,0.531-0.714,0.779-1.047c0.264-0.326,0.458-0.673,0.645-0.989
			c0.754-1.271,1.257-2.118,1.257-2.118s-0.335,0.932-0.839,2.33c-0.126,0.352-0.254,0.737-0.456,1.119
			c-0.188,0.391-0.388,0.803-0.593,1.229c-0.182,0.442-0.481,0.845-0.77,1.271l-0.44,0.644c-0.157,0.209-0.352,0.387-0.529,0.584
			l-0.55,0.579l-0.564,0.5c-0.387,0.334-0.734,0.65-1.051,0.945c-0.335,0.294-0.636,0.588-0.869,0.878
			c-0.248,0.279-0.483,0.543-0.699,0.788c-0.853,1.208-1.421,2.013-1.421,2.013L91.157,79.62z"/>
	</g>
	<path d="M97.387,90.392c7.117-3.208,8.598-3.618,10.047-4.566c1.45-0.947,5.202-1.171,2.65,1.133
		c-2.552,2.304-4.836,4.591-6.151,6.444c-1.315,1.855-0.577,3.348-3.049,6.02c-2.473,2.671-2.671,4.757-4.472-1.912
		C94.609,90.842,97.387,90.392,97.387,90.392z"/>
	<g>
		<path d="M115.714,86.842c0,0,0.025,0.423,0.069,1.163c0.044,0.74,0.096,1.8,0.129,3.073c0.034,1.273,0.059,2.762,0.02,4.36
			c-0.006,0.799-0.064,1.625-0.112,2.464c-0.06,0.839-0.133,1.692-0.233,2.544c-0.104,0.851-0.21,1.705-0.365,2.538
			c-0.134,0.837-0.319,1.653-0.492,2.446c-0.196,0.788-0.382,1.551-0.609,2.264c-0.194,0.723-0.448,1.385-0.653,2.008
			c-0.246,0.6-0.471,1.15-0.671,1.638c-0.107,0.234-0.236,0.441-0.381,0.619c-0.116,0.17-0.256,0.315-0.38,0.451
			c-0.255,0.265-0.491,0.467-0.65,0.595c-0.181,0.146-0.216,0.188-0.285,0.146l-0.078,0.184c-0.19-0.06-0.46-0.64-0.432-1.488
			c0.031-0.426,0.102-0.921,0.314-1.375c0.222-0.454,0.471-0.966,0.744-1.525c0.243-0.564,0.542-1.164,0.785-1.83
			c0.265-0.657,0.497-1.369,0.741-2.106c0.217-0.746,0.445-1.518,0.627-2.316c0.202-0.794,0.358-1.614,0.515-2.435
			c0.592-3.291,0.867-6.659,1.011-9.188c0.113-2.536,0.188-4.226,0.188-4.226L115.714,86.842z"/>
	</g>
	<path d="M69.534,55.146"/>
	<path d="M79.711,54.546c-7.228-0.642-4.478-3.894-7.327-1.647c-2.85,2.247-8.208,0.376-4.688,2.491s8.06,0.843,8.441,3.609
		c0.381,2.766-0.679,5.032,0.706,7.145c1.066,1.626,3.548,4.288,7.35,9.873c1.138,1.67,3.948,4.626,4.922,6.608
		c4.231,8.606,13.463,21.869,13.173,18.617c-0.29-3.252-4.368-9.97-7.479-15.23c-1.673-2.828-0.037-2.433-1.879-6.387
		c-1.584-3.4-5.95-7.823-6.382-10.302c-0.933-5.36-6.16-11.034-7.407-13.438S79.711,54.546,79.711,54.546z"/>
	<g>
		<path d="M64.49,56.959c0,0,0.112-0.146,0.309-0.402c0.098-0.128,0.217-0.283,0.354-0.461c0.158-0.186,0.215-0.354,0.349-0.561
			c0.117-0.204,0.267-0.415,0.361-0.688c0.095-0.266,0.259-0.536,0.317-0.843c0.072-0.303,0.188-0.616,0.209-0.949
			c0.051-0.331,0.088-0.671,0.074-1.016c0.018-0.691-0.109-1.388-0.267-2.035c-0.179-0.643-0.403-1.235-0.644-1.724
			c-0.471-0.985-0.938-1.564-0.938-1.564s0.558,0.489,1.207,1.405c0.329,0.455,0.665,1.021,0.97,1.667
			c0.283,0.652,0.552,1.384,0.668,2.16c0.081,0.386,0.108,0.778,0.115,1.17c0.037,0.394-0.027,0.775-0.054,1.152
			c-0.013,0.382-0.138,0.725-0.203,1.068c-0.061,0.341-0.197,0.658-0.309,0.954c-0.116,0.282-0.218,0.602-0.326,0.779
			c-0.105,0.198-0.196,0.372-0.271,0.514c-0.15,0.285-0.236,0.448-0.236,0.448L64.49,56.959z"/>
	</g>
	<path d="M63.301,43.017c2.479-2.18,2.382-0.637,1.64-3.836c-0.74-3.198,0.358-6.772-2.289-6.733
		c-1.627,0.024-3.68,3.362-3.766,4.631C58.8,38.347,63.301,43.017,63.301,43.017z"/>
	<path d="M69.23,38.237c5.279,2.397,4.784,4.778,11.07,4.733c6.287-0.045,5.101-1.043,7.078-0.784s3.876-0.789,4.854,3.152
		c0.977,3.941-0.279,2.753,1.458,6.629c1.737,3.877-0.422,5.466,3.903,5.528c4.325,0.061,2.535-1.469,1.809-4.231
		c-0.726-2.761,0.573-3.178-2.456-6.734c-3.028-3.556-2.563-4.498-4.961-5.074c-2.597-0.624-3.848-0.221-8.568-1.194
		c-4.649-0.958-4.373-1.724-8.67-3.262c-4.298-1.539-6.346-3.24-7.608-2.801C64.548,35.102,69.23,38.237,69.23,38.237z"/>
	<path d="M101.414,59.129c2.723,3.834,6.078,4.573,3.568,8.288c-2.511,3.714-5.827,7.513-0.874,4.933
		c4.952-2.581,6.043-4.071,7.312-2.681c1.268,1.39,2.683,7.211,1.744,10.339c-0.939,3.128-0.619,8.487-0.619,8.487
		s2.486-5.204,3.21-7.506c0.723-2.303,0.211-10.878,0.723-2.303c0.513,8.576,4.161,15.923,2.833,21.472
		c-1.327,5.549,0.53,12.811,2.341,5.52c1.812-7.291-0.219-10.483-0.677-17.352c-0.459-6.869-1.28-9.832,1.183-4.6
		c2.464,5.232,3.083,4.191,6.369,6.379c3.287,2.188,4.703-1.124,6.029,1.271c1.326,2.396,5.382,12.453,7.272,17.195
		s6.313,10.029,7.257,10.694c0.945,0.664,1.605,7.673-0.578-6.157c-2.184-13.828-3.668-17.074-3.387-19.565
		c0.281-2.491-2.742,0.917,3.312,1.416s8.897,0.932,8.678,5.539c-0.22,4.607,5.21,10.845,7.323,12.009
		c2.113,1.165,9.588,3.839,4.887-1.044c-4.703-4.884-5.313-5.277-6.727-11.755c-1.414-6.478-24.101-14.483-24.101-14.483
		s-10.35-4.509-17.411-6.921c0,0-10.41-13.567-13.028-15.738C105.433,60.395,101.414,59.129,101.414,59.129z"/>
	<g>
		<path d="M127.469,113.459c0,0,0.668,0.043,1.767,0.275c0.549,0.116,1.211,0.268,1.948,0.491c0.742,0.212,1.565,0.482,2.445,0.815
			c0.875,0.343,1.826,0.712,2.774,1.224c0.953,0.505,1.885,1.194,2.861,1.881c0.976,0.688,2.013,1.336,3.147,1.819
			c1.124,0.506,2.323,0.895,3.55,1.221c1.222,0.338,2.456,0.65,3.607,1.096c1.158,0.43,2.296,0.858,3.387,1.295
			c2.195,0.845,4.114,1.915,5.742,2.871c1.619,0.973,2.926,1.879,3.819,2.558c0.896,0.675,1.377,1.128,1.377,1.128l-0.125,0.273
			c0,0-0.657-0.067-1.753-0.306c-1.099-0.232-2.638-0.629-4.433-1.22c-1.787-0.606-3.853-1.359-5.926-2.47
			c-1.043-0.54-2.111-1.121-3.193-1.718c-1.09-0.58-2.132-1.31-3.187-2.014c-1.049-0.716-2.127-1.369-3.244-1.89
			c-1.107-0.542-2.275-0.904-3.434-1.193c-1.158-0.289-2.289-0.545-3.293-0.936c-1.008-0.384-1.907-0.861-2.739-1.301
			c-0.827-0.447-1.57-0.894-2.215-1.317c-0.651-0.411-1.198-0.813-1.645-1.153c-0.894-0.68-1.363-1.157-1.363-1.157L127.469,113.459
			z"/>
	</g>
	<g>
		<path d="M174.858,140.661c0,0.001,1.077,0.333,2.909,1.024c1.834,0.687,4.426,1.729,7.485,3.085
			c1.522,0.693,3.179,1.431,4.891,2.293c1.715,0.858,3.464,1.887,5.301,2.893c1.821,1.039,3.735,2.046,5.724,2.979
			c1.978,0.952,4.05,1.789,6.116,2.637c2.072,0.836,4.152,1.655,6.157,2.553c2.005,0.896,3.979,1.776,5.889,2.629
			c1.905,0.861,3.736,1.718,5.448,2.582c1.721,0.844,3.329,1.682,4.814,2.453c1.479,0.787,2.835,1.506,4.019,2.181
			c1.187,0.671,2.231,1.231,3.073,1.735c1.69,0.988,2.642,1.586,2.642,1.586l-0.086,0.18c0,0-1.063-0.359-2.898-1.046
			c-0.922-0.334-2.017-0.79-3.286-1.286c-1.271-0.491-2.685-1.089-4.229-1.737c-1.536-0.664-3.202-1.382-4.943-2.183
			c-1.751-0.781-3.572-1.659-5.443-2.593c-1.867-0.942-3.797-1.915-5.758-2.904c-1.962-0.986-3.911-2.082-5.868-3.16
			c-1.963-1.066-3.92-2.145-5.908-3.076c-1.979-0.951-3.968-1.8-5.924-2.555c-1.94-0.788-3.843-1.495-5.591-2.282
			c-1.751-0.782-3.368-1.601-4.867-2.343c-2.984-1.515-5.43-2.866-7.121-3.854c-1.693-0.982-2.631-1.608-2.631-1.607
			L174.858,140.661z"/>
	</g>
	<g>
		<path d="M186.608,116.211c0,0,0.871,0.077,2.331,0.385c0.73,0.151,1.613,0.347,2.605,0.622c0.998,0.262,2.11,0.591,3.309,0.989
			c1.195,0.407,2.491,0.846,3.813,1.436c1.325,0.581,2.659,1.355,4.05,2.131c1.391,0.773,2.851,1.515,4.408,2.078
			c1.543,0.598,3.166,1.066,4.811,1.478c1.64,0.422,3.291,0.816,4.861,1.347c1.576,0.514,3.125,1.025,4.615,1.544
			c2.992,1.006,5.673,2.234,7.955,3.327c2.275,1.108,4.134,2.131,5.416,2.893c1.285,0.757,1.992,1.26,1.992,1.26l-0.109,0.279
			c0,0-0.86-0.106-2.319-0.415c-1.461-0.304-3.521-0.805-5.949-1.522c-2.421-0.734-5.228-1.637-8.114-2.915
			c-1.449-0.624-2.938-1.292-4.447-1.978c-1.517-0.669-3.001-1.491-4.496-2.288c-1.49-0.807-3.004-1.557-4.546-2.157
			c-1.529-0.636-3.106-1.074-4.655-1.442c-1.549-0.367-3.057-0.696-4.426-1.162c-1.373-0.457-2.625-1.008-3.781-1.515
			c-1.153-0.515-2.196-1.023-3.109-1.504c-0.918-0.466-1.701-0.918-2.342-1.3c-1.284-0.759-1.98-1.29-1.98-1.29L186.608,116.211z"/>
	</g>
	<g>
		<path d="M242.74,138.25c0,0,0.457-0.067,1.184-0.018c0.729,0.044,1.738,0.185,2.868,0.541c0.562,0.186,1.172,0.383,1.763,0.716
			c0.596,0.324,1.154,0.825,1.744,1.318c0.589,0.493,1.226,0.938,1.947,1.216c0.713,0.301,1.492,0.476,2.298,0.592
			c0.801,0.126,1.613,0.227,2.353,0.465c0.747,0.223,1.479,0.447,2.177,0.687c1.41,0.45,2.603,1.155,3.608,1.799
			c0.998,0.659,1.789,1.306,2.322,1.804c0.536,0.493,0.813,0.844,0.813,0.844l-0.119,0.275c0,0-0.444,0.039-1.171-0.013
			c-0.729-0.047-1.74-0.179-2.905-0.453c-1.158-0.291-2.489-0.675-3.783-1.393c-0.654-0.344-1.319-0.723-1.993-1.114
			c-0.68-0.374-1.311-0.896-1.951-1.393c-0.637-0.507-1.299-0.954-2.007-1.267c-0.697-0.336-1.458-0.493-2.221-0.584
			s-1.511-0.154-2.155-0.364c-0.648-0.202-1.21-0.511-1.729-0.793c-1.034-0.577-1.828-1.216-2.361-1.716
			c-0.534-0.495-0.799-0.874-0.799-0.874L242.74,138.25z"/>
	</g>
	<g>
		<path d="M187.968,142.36c0,0.001,1.105,0.285,2.992,0.896c1.89,0.606,4.563,1.534,7.725,2.756
			c1.575,0.627,3.287,1.292,5.063,2.079c1.777,0.783,3.599,1.734,5.508,2.661c1.895,0.959,3.882,1.882,5.939,2.728
			c2.048,0.866,4.186,1.611,6.317,2.368c2.138,0.745,4.282,1.473,6.354,2.282c2.072,0.808,4.112,1.603,6.087,2.372
			c1.971,0.776,3.866,1.553,5.641,2.342c1.783,0.77,3.452,1.536,4.993,2.243c1.535,0.723,2.943,1.382,4.176,2.005
			c1.233,0.619,2.319,1.134,3.195,1.601c1.761,0.914,2.753,1.471,2.753,1.47l-0.076,0.186c0-0.001-1.094-0.313-2.983-0.919
			c-0.948-0.294-2.078-0.702-3.387-1.143c-1.31-0.436-2.77-0.971-4.363-1.552c-1.588-0.597-3.308-1.241-5.109-1.966
			c-1.811-0.704-3.695-1.502-5.636-2.354c-1.937-0.859-3.938-1.748-5.971-2.651c-2.034-0.901-4.061-1.911-6.095-2.903
			c-2.039-0.98-4.073-1.973-6.131-2.817c-2.05-0.865-4.104-1.626-6.119-2.296c-2.002-0.702-3.961-1.326-5.769-2.036
			c-1.81-0.705-3.486-1.453-5.041-2.13c-3.095-1.384-5.636-2.628-7.396-3.542c-1.763-0.909-2.743-1.494-2.743-1.493L187.968,142.36z
			"/>
	</g>
	<line fill="none" stroke="#000000" stroke-miterlimit="10" x1="151.504" y1="113.609" x2="176.86" y2="123.753"/>
	<line fill="none" stroke="#000000" stroke-miterlimit="10" x1="155.664" y1="122.022" x2="180.835" y2="132.784"/>
	<g>
		<path d="M151.499,138.5c0,0-1.667-0.474-4.167-1.184c-2.503-0.703-5.812-1.725-9.129-2.718c-1.655-0.507-3.34-0.93-4.877-1.446
			c-1.53-0.538-2.925-1.134-4.105-1.689c-2.367-1.092-3.852-2.086-3.853-2.086l0.066-0.189c0,0,1.781,0.146,4.313,0.765
			c1.27,0.301,2.732,0.702,4.265,1.233c1.525,0.552,3.106,1.27,4.718,1.903c3.215,1.287,6.44,2.547,8.836,3.555
			c2.399,1,3.999,1.667,3.999,1.667L151.499,138.5z"/>
	</g>
	<g>
		<path d="M190.549,161.464c0,0,0.86,0.191,2.317,0.639c1.459,0.442,3.518,1.137,5.941,2.077c1.205,0.485,2.517,0.997,3.868,1.624
			c1.354,0.619,2.731,1.391,4.172,2.151c1.432,0.783,2.94,1.522,4.513,2.184c1.563,0.681,3.208,1.239,4.849,1.809
			c1.646,0.558,3.298,1.099,4.886,1.723c1.588,0.623,3.151,1.236,4.663,1.829c1.51,0.602,2.958,1.207,4.309,1.835
			c1.359,0.607,2.627,1.222,3.798,1.788c2.334,1.15,4.253,2.17,5.58,2.922c1.328,0.749,2.072,1.211,2.072,1.211l-0.078,0.184
			c0,0-0.849-0.22-2.308-0.661c-1.461-0.44-3.523-1.124-5.968-2.016c-1.218-0.455-2.538-0.947-3.917-1.511
			c-1.387-0.543-2.825-1.171-4.303-1.847c-1.474-0.684-2.996-1.39-4.544-2.107c-1.549-0.716-3.081-1.538-4.621-2.342
			c-1.545-0.793-3.085-1.597-4.658-2.256c-1.563-0.68-3.141-1.26-4.695-1.754c-1.546-0.516-3.056-0.978-4.438-1.529
			c-1.387-0.544-2.663-1.139-3.847-1.675c-2.354-1.102-4.278-2.11-5.606-2.859c-1.33-0.745-2.063-1.234-2.063-1.234L190.549,161.464
			z"/>
	</g>
	<g>
		<path d="M180.716,150.774c0,0,1.099,0.293,2.974,0.919c1.877,0.621,4.531,1.57,7.671,2.816c1.563,0.639,3.263,1.316,5.023,2.118
			c1.764,0.797,3.569,1.763,5.463,2.703c1.879,0.975,3.85,1.912,5.892,2.773c2.032,0.882,4.155,1.645,6.272,2.418
			c2.123,0.762,4.253,1.506,6.31,2.331c2.058,0.824,4.083,1.635,6.043,2.419c1.957,0.793,3.837,1.583,5.598,2.387
			c1.77,0.782,3.426,1.563,4.954,2.281c1.522,0.734,2.919,1.404,4.141,2.037c1.224,0.628,2.301,1.151,3.169,1.625
			c1.745,0.928,2.729,1.491,2.729,1.491l-0.078,0.184c0,0-1.087-0.321-2.964-0.942c-0.942-0.301-2.064-0.718-3.364-1.168
			c-1.301-0.446-2.751-0.992-4.333-1.586c-1.576-0.608-3.284-1.267-5.072-2.005c-1.797-0.719-3.668-1.531-5.593-2.398
			c-1.921-0.875-3.906-1.779-5.924-2.697c-2.018-0.917-4.027-1.942-6.045-2.951c-2.022-0.996-4.04-2.004-6.082-2.864
			c-2.033-0.881-4.073-1.658-6.075-2.344c-1.988-0.718-3.934-1.356-5.729-2.081c-1.796-0.719-3.46-1.479-5.002-2.168
			c-3.07-1.408-5.59-2.672-7.336-3.6c-1.748-0.923-2.719-1.515-2.719-1.515L180.716,150.774z"/>
	</g>
	<g>
		<path d="M129.809,118.971c0,0-0.313-1.876-0.537-4.683c-0.263-1.376-0.488-2.958-0.747-4.65c-0.17-0.85-0.373-1.723-0.527-2.617
			c-0.151-0.895-0.324-1.8-0.562-2.695c-0.196-0.904-0.392-1.808-0.584-2.697c-0.213-0.888-0.422-1.761-0.625-2.607
			c-0.199-0.849-0.392-1.67-0.574-2.449c-0.196-0.777-0.356-1.52-0.503-2.207c-0.316-1.374-0.553-2.521-0.678-3.348
			c-0.13-0.82-0.184-1.289-0.184-1.289s0.218,0.427,0.565,1.173c0.334,0.745,0.852,1.813,1.391,3.112
			c0.269,0.653,0.557,1.363,0.838,2.123c0.295,0.754,0.587,1.558,0.841,2.406c0.257,0.847,0.57,1.709,0.801,2.611
			c0.219,0.906,0.442,1.826,0.665,2.746c0.22,0.92,0.375,1.857,0.508,2.783c0.151,0.922,0.248,1.838,0.369,2.718
			c0.094,0.889,0.084,1.77,0.117,2.59c0.031,0.822,0.032,1.597,0.032,2.307C130.164,117.104,129.809,118.971,129.809,118.971z"/>
	</g>
	<path d="M115.07,118.624c6.189,5.001,8.095,4.445,13.56,9.069s6.024,5.473,14.75,10.47c8.725,4.998,11.447,8.335,16.285,9.316
		s3.514-2.696,10.778,1.061s8.258,2.699,15.458,6.609c7.199,3.91,13.061,8.831,12.08,9.007s-4.74-0.693-7.936-1.516
		c-3.193-0.822-1.934,0.079,4.521,3.382c6.454,3.302,8.926,4.722,14.502,6.924c5.574,2.202,10.539,6.68,16.138,9.254
		s8.698,5.906,11.521,3.115c2.822-2.791,3.774-8.825,8.588-12.889s9.517-0.002,9.517-0.002s-13.774,25.969-14.934,25.382
		c-1.16-0.587-2.655-1.409-10.201-6.627c-7.545-5.217-57.613-35.712-66.859-40.422c-9.245-4.71-33.377-17.033-36.17-18.478
		c-2.794-1.443-4.152-2.003-7.293-6.599C116.818,121.938,115.07,118.624,115.07,118.624z"/>
	<path d="M268.022,143.299c-0.707-0.304,0.123-0.127-19.227-8.221c-19.351-8.094-13.841-5.734-29.234-12.498
		c-15.393-6.764-19.604-9.194-32.803-13.89c-13.199-4.694-14.658-3.875-19.582-6.88c-4.924-3.005-9.619-8.532-10.863-9.713
		c-1.244-1.182,18.318,6.229,20.775,7.16c2.457,0.931,30.164,10.67,40.471,15.33c10.306,4.662,24.75,10.015,32.531,12.324
		s16.953,3.225,18.709,4.977s2.855,2.932,1.039,7.171C268.022,143.299,268.022,143.299,268.022,143.299z"/>
	<path fill="#333333" stroke="#000000" stroke-miterlimit="10" d="M259.897,161.332c-6.589-6.594-21.594-11.724-35.801-13.702
		s-16.51-3.172-27.58-8.085c-11.07-4.912-31.762-27.812-29.957-41.716c1.027-7.922,0.795-27.383,6.061-31.779
		c5.268-4.396,32.843-7.284,34.004,22.566c1.162,29.85-0.582,21.609-0.582,21.609l-5.871-2.111c0,0-0.279-11.668-0.688-20.396
		c-0.409-8.728-2.082-15.376-11.744-16.541c-9.664-1.165-10.434,1.518-11.745,8.106s-4.308,17.173-3.122,21.443
		c1.186,4.269,6.864,15.082,13.304,23.396c5.935,7.663,13.675,12.025,22.94,14.118c9.267,2.092,22.545,3.604,29.951,5.642
		c7.408,2.038,21.705,8.562,23.475,9.339C264.312,154,259.897,161.332,259.897,161.332z"/>
	<path fill="#66CC99" stroke="#000000" stroke-miterlimit="10" d="M60.929,118.428c0,0,2.195,3.413,3.869,4.515
		c2.218,1.458,4.955,0.709,8.544,0.793c3.589,0.083,5.363,1.445,9.104,0.749c3.741-0.695,5.886-1.048,5.886-1.048
		c3.498-3.941,3.583-7.531-1.606-10.656S60.929,118.428,60.929,118.428z"/>
	<path fill="#66CC99" stroke="#000000" stroke-miterlimit="10" d="M53.19,103.88c-2.382,3.877-4.219,5.629-3.604,8.43
		s2.709,2.971,5.439,4.862c2.729,1.893,3.433,4.911,8.814,3.77c5.383-1.143,14.967-3.207,17.637-3.517
		c2.669-0.31,5.383,0.127,7.175-2.37c1.793-2.495,4.312-2.452,6.682-6.724c2.369-4.27,2.631-6.153,0.659-7.902
		c-1.971-1.749-1.971-1.749-3.83-1.638c-4.34,0.258-7.532,1.504-10.977,1.929s-7.732,2.398-12.809,2.403
		C63.3,103.129,53.19,103.88,53.19,103.88z"/>
	<path fill="#66CC99" stroke="#000000" stroke-miterlimit="10" d="M42.373,96.538l-2.661,4.528c0,0,0,0,0.237,1.143
		c0.598,2.887,1.908,4.44,3.593,5.161c1.687,0.721,3.592,2.623,5.671,2.425c2.078-0.199,8.928-1.803,12.406-2.309
		c3.479-0.507,9.761,0.911,12.08-0.273c2.319-1.184,4.113-1.142,7.678-3.967c3.565-2.826,7.906-6.199,8.621-8.718
		c0.715-2.518,0.054-7.332-2.179-7.199c-2.231,0.133-5.428-0.871-8.009,0.926s-8.97,2.189-10.654,2.739
		c-1.684,0.549-4.592-0.112-5.073-0.68c-0.482-0.568-4.031,0.726-6.283,1.593c-1.208,0.465-2.02-0.007-2.02-0.007
		s-2.478-0.648-5.834-0.005s-2.763-1.094-3.528-0.152S42.373,96.538,42.373,96.538z"/>
	<path fill="#66CC99" stroke="#000000" stroke-miterlimit="10" d="M22.353,75.108c-1.245,2.912-4.46,5.344-4.83,7.905
		c-0.369,2.561,0.271,8.272,3.204,9.889c2.934,1.617,8.646,2.247,12.06,1.894c2.4-0.249,7.39,0.161,10.618,0.631
		c1.362,0.198,2.411,0.408,2.82,0.583c1.379,0.589,8.601-1.887,11.563-3.729c2.963-1.842,10.829-4.977,10.756-6.925
		c-0.074-1.949,0.347-6.746-1.99-8.065c-2.336-1.32-1.628-2.55-5.057-2.162c-3.429,0.388-7.223,2.056-9.964,2.955
		c-2.741,0.899-9.526-0.189-12.524-0.384s-4.093,0.245-6.238-0.672c-2.145-0.917,10.234,0.819,10.234,0.819
		s-5.043-13.953-16.936-6.766C24.001,72.328,22.353,75.108,22.353,75.108z"/>
	<path fill="#66CC99" stroke="#000000" stroke-miterlimit="10" d="M10.644,49.076c0.266,3.195,3.624,6.361,7.024,7.313
		c3.399,0.951,11.16,3.996,11.769,5.118c0.608,1.121,2.954,5.386,2.583,6.678s-2.949,6.896-5.027,7.096
		c-2.079,0.199-5.451-2.513-9.171-2.29c-3.722,0.222-7.552-0.146-8.954-2.377c-1.402-2.231-3.64-8.446-2.79-12.977
		C6.927,53.105,10.644,49.076,10.644,49.076z"/>
	<path d="M9.015,51.62c-1.071,1.233-2.273,3.153-2.641,4.801c-0.368,1.648-0.804,5.225-0.482,5.962s1.876,6.146,2.309,6.988
		s2.257,3.176,3.529,3.217s3.211,0.375,4.572,0.393c1.361,0.017,4.658,0.696,5.866,0.817s0.796-0.028,0.295-1.585
		c-0.501-1.556-0.611-3.537-0.589-5.841c0.021-2.304,0.438-3.118,1.352-3.161c0.912-0.043-0.432-1.072-1.235-0.43
		c-0.806,0.641-1.777,2.383-1.825,3.559c-0.048,1.177-0.238,2.953,0.074,4.262c0.313,1.31,0.337,1.028-1.345,0.949
		c-1.682-0.08-4.562-0.439-4.562-0.439s-0.668-0.85-1.494-1.474c-2.587-1.953-3.392,0.412-3.162-6.854
		c0.083-2.625-0.586-3.469-0.24-5.787C9.783,54.679,9.015,51.62,9.015,51.62"/>
	<path d="M13.987,71.991c1.989-1.898,1.852-1.517,2.541-3.502c0.688-1.986,2.286-3.143,1.702-0.743
		c-0.585,2.399-0.156,3.98-0.991,4.211S13.987,71.991,13.987,71.991z"/>
	<path d="M31.649,77.819c-2.406,0.295-2.399,1.056-4.313,1.441c-1.912,0.386-3.563,2.18-2.508-0.458s2.59-4.852,0.326-3.171
		c-2.265,1.681-4.077,0.588-3.075,3.235s6.123,10.974,7.949,11.003s1.188,1.523-0.606,1.417c-1.794-0.105-3.991-0.382-6.217-2.364
		c-2.225-1.981-3.052-2.629-3.052-2.629s-0.817,0.019-0.346,1.324c0.473,1.305,1.074,2.226,2.36,3.731
		c1.287,1.506,2.513,1.968,2.984,2.526s-0.916,0.279-1.185,0.21c-0.269-0.069-2.736-0.596-3.602-1.419s-2.419-2.875-2.675-5.266
		s-0.979-2.773,0.562-5.61s1.644-4.042,3.029-5.608c1.385-1.567,5.402-1.823,6.103-1.002C28.086,76.002,31.649,77.819,31.649,77.819
		z"/>
	<path d="M45.193,82.794c-0.64,2.528-0.958,9.234-0.161,9.722"/>
	<path d="M47.782,83.576c2.891,2.23,2.851,6.111,2.212,7.604"/>
	<path d="M27.113,93.758c3.386-1.201,4.789-0.869,7.017-3.498s2.771-1.662,2.274-0.329c-0.497,1.333-1.756,2.901,0.064,3.289
		c1.82,0.387,2.735,1,4.557,1.042c1.821,0.043,1.167,1.001,1.167,1.001s-3.466-0.44-5.226-0.457
		c-1.758-0.016-5.096,0.224-7.253,0.063c-2.158-0.161-2.082-0.009-3.294-0.306C25.206,94.266,27.113,93.758,27.113,93.758z"/>
	<path d="M34.233,78.997c4.353-0.199,7.178-0.609,9.141,0.303c1.964,0.913,5.18,1.652,7.333,1.088
		c2.154-0.564,5.249-2.982,7.235-2.984c1.987-0.002,3.204,0.666,1.53,1.274s-1.468,2.093-1.648,3.855
		c-0.181,1.763,0.499,3.442,1.075,4.503c0.577,1.06,0.67,3.003,2.271,2.263c1.6-0.74,1.059-0.159,0.496-1.162
		c-0.562-1.003-0.495-1.936-0.688-2.85c-0.194-0.915-1.452-3-1.698-3.895c-0.247-0.895-0.416-1.368,0.742-2.065
		c1.159-0.698,3.595-1.338,4.422-2.159c0.826-0.82,0.944-1.042,0.095-1.515s-3.459-0.573-4.917-0.203
		c-1.457,0.37-5.171,1.309-6.525,2.087c-1.355,0.778-4.193,1.577-6.181,1.229s-3.998-0.864-6.999-0.996
		c-3.001-0.132-4.354-1.254-5.115-0.789C34.039,77.449,34.233,78.997,34.233,78.997z"/>
	<path d="M50.76,96.436c3.472-1.238,5.035-1.45,8.25-1.401c3.216,0.049,4.908,0.811,7.157-0.27c2.248-1.081,1.679-1.471,3.918-2.059
		c2.237-0.588,5.403-0.8,6.081-2.008c0.679-1.208,0.442-1.104-0.616-0.888c-1.06,0.217-4.818,1.383-6.914,1.639
		c-2.097,0.256-3.466-0.926-5.284-0.892c-1.818,0.035-3.077,1.039-6.358,2.178s-10.13,3.362-10.13,3.362L50.76,96.436z"/>
	<path d="M45.637,96.542c-0.658,1.541-1.093,1.355-0.878,3.433s-0.024,3.499,1.414,3.058c1.439-0.44,0.691-1.79,2.113-1.329
		c1.422,0.46,2.371,0.131,2.071,2.21c-0.301,2.079-1.365,2.214-0.681,3.313c0.684,1.1,1.41,2.28,0.898,2.365
		c-0.512,0.087-1.802,0.698-3.44-0.205c-1.64-0.904-2.804-1.349-3.981-2.206c-1.178-0.856-1.731-0.408-2.468-2.691
		c-0.736-2.283-1.707-2.177-0.974-3.425c0.733-1.248,2.164-3.648,2.928-4.644c0.765-0.996,2.813-0.642,3.046-0.579
		C45.918,95.905,45.637,96.542,45.637,96.542z"/>
	<path d="M78.943,112.218c0.215-2.838,0.698-4.028,1.961-4.418c1.264-0.391,2.44-0.293,2.689,0.168
		c0.247,0.462,1.668,1.285,0.176,1.352c-1.494,0.066-1.899-0.457-2.529,0.477c-0.629,0.934-0.862,1.453-1.137,1.938
		S78.943,112.218,78.943,112.218z"/>
	<path d="M66.585,102.613c0.637-2.524,0.565-3.732,1.994-4.666c1.429-0.934,3.665-1.964,5.221-1.594
		c1.555,0.371,2.355,2.186,2.951,2.992c0.597,0.806,0.433,2.222-1.181,2.04c-1.615-0.183-1.025-1.387-2.862-1.224
		c-1.835,0.164-1.533,0.661-2.705,1.337C68.831,102.175,66.585,102.613,66.585,102.613z"/>
	<path d="M64.539,120.794c-3.182-1.729-4.594-0.421-6.586-3.334c-1.991-2.911-2.655-0.842-4.319-3.833
		c-1.664-2.992-2.251-3.169,0.023-3.153s1.085-2.184,4.589-0.833c3.503,1.351,3.062,4.105,4.383,1.874
		c1.322-2.231,3.409-4.031,1.362-4.051c-2.048-0.021-6.37,0.158-7.657,0.708s-4.284,1.158-5.021,1.29
		c-0.737,0.131-2.132,0.431-1.839,1.958c0.295,1.528,0.589,2.814,2.044,3.663c1.453,0.848,3.804,2.219,4.516,2.902
		c0.713,0.684,1.966,2.71,3.889,2.956c1.924,0.247,4.917-0.212,4.917-0.212L64.539,120.794z"/>
	<path d="M89.101,121.894c-1.292,0.521-3.088,1.584-4.931,0.669c-1.844-0.916-1.908-1.247-2.622-1.783
		c-0.713-0.535,0.298-2.084,0.522-2.398c0.225-0.315,0.593-2.619-2.723-0.37c-3.316,2.25-4.327,2.722-3.354,3.715
		c0.973,0.994,2.138,2.229,3.808,2.28c1.67,0.052,2.275,0.543,3.791,0.268c1.515-0.275,2.375,0.454,3.978-0.708
		s2.515-1.759,2.515-1.759L89.101,121.894z"/>
	
		<linearGradient id="SVGID_19_" gradientUnits="userSpaceOnUse" x1="267.8145" y1="-72.4575" x2="255.6074" y2="-75.7284" gradientTransform="matrix(-0.3931 0.9195 0.9195 0.3931 204.1067 -142.3377)">
		<stop  offset="0" style="stop-color:#2A0800"/>
		<stop  offset="0.0392" style="stop-color:#350C00"/>
		<stop  offset="0.1075" style="stop-color:#511600"/>
		<stop  offset="0.1962" style="stop-color:#802600"/>
		<stop  offset="0.2312" style="stop-color:#942D00"/>
		<stop  offset="0.2936" style="stop-color:#9C3F00"/>
		<stop  offset="0.4179" style="stop-color:#B16D00"/>
		<stop  offset="0.4892" style="stop-color:#BF8A00"/>
		<stop  offset="0.4943" style="stop-color:#BE8700"/>
		<stop  offset="0.5623" style="stop-color:#AC6000"/>
		<stop  offset="0.6249" style="stop-color:#9F4400"/>
		<stop  offset="0.6797" style="stop-color:#973300"/>
		<stop  offset="0.7204" style="stop-color:#942D00"/>
		<stop  offset="0.7222" style="stop-color:#932D00"/>
		<stop  offset="0.7794" style="stop-color:#6D1F00"/>
		<stop  offset="0.8364" style="stop-color:#501500"/>
		<stop  offset="0.8926" style="stop-color:#3B0E00"/>
		<stop  offset="0.9476" style="stop-color:#2E0900"/>
		<stop  offset="1" style="stop-color:#2A0800"/>
	</linearGradient>
	<path fill="url(#SVGID_19_)" stroke="#000000" stroke-miterlimit="10" d="M29.923,62.41c-3.883-0.547-6.809,0.518-7.703,1.526
		s-0.778,5.268,0.008,7.727s4.24,3.062,6.955,3.282c2.407,0.195,6.604-0.111,9.867-0.879c1.779-0.418,5.7-2.965,5.7-2.965
		s-5.703-5.38-9.83-7.02C29.32,61.856,29.923,62.41,29.923,62.41z"/>
	
		<linearGradient id="SVGID_20_" gradientUnits="userSpaceOnUse" x1="262.2969" y1="-33.6484" x2="255.562" y2="-41.6747" gradientTransform="matrix(-0.3931 0.9195 0.9195 0.3931 204.1067 -142.3377)">
		<stop  offset="0" style="stop-color:#2A0800"/>
		<stop  offset="0.0392" style="stop-color:#350C00"/>
		<stop  offset="0.1075" style="stop-color:#511600"/>
		<stop  offset="0.1962" style="stop-color:#802600"/>
		<stop  offset="0.2312" style="stop-color:#942D00"/>
		<stop  offset="0.2936" style="stop-color:#9C3F00"/>
		<stop  offset="0.4179" style="stop-color:#B16D00"/>
		<stop  offset="0.4892" style="stop-color:#BF8A00"/>
		<stop  offset="0.4943" style="stop-color:#BE8700"/>
		<stop  offset="0.5623" style="stop-color:#AC6000"/>
		<stop  offset="0.6249" style="stop-color:#9F4400"/>
		<stop  offset="0.6797" style="stop-color:#973300"/>
		<stop  offset="0.7204" style="stop-color:#942D00"/>
		<stop  offset="0.7222" style="stop-color:#932D00"/>
		<stop  offset="0.7794" style="stop-color:#6D1F00"/>
		<stop  offset="0.8364" style="stop-color:#501500"/>
		<stop  offset="0.8926" style="stop-color:#3B0E00"/>
		<stop  offset="0.9476" style="stop-color:#2E0900"/>
		<stop  offset="1" style="stop-color:#2A0800"/>
	</linearGradient>
	<path fill="url(#SVGID_20_)" stroke="#000000" stroke-miterlimit="10" d="M58.989,79.811c-0.072,1.977,1.589,3.509,1.907,4.934
		c0.317,1.424-0.315,3.107,1.345,3.717c1.66,0.609,5.911-1.643,8.222-3.745c2.31-2.102,5.532-6.749,5.532-6.749
		s-7.774-1.499-9.115-1.44c-1.341,0.06-2.616-0.022-4.814,1.509C59.866,79.568,58.989,79.811,58.989,79.811z"/>
	
		<linearGradient id="SVGID_21_" gradientUnits="userSpaceOnUse" x1="264.6162" y1="-10.8511" x2="258.9077" y2="-17.6542" gradientTransform="matrix(-0.3931 0.9195 0.9195 0.3931 204.1067 -142.3377)">
		<stop  offset="0" style="stop-color:#2A0800"/>
		<stop  offset="0.0392" style="stop-color:#350C00"/>
		<stop  offset="0.1075" style="stop-color:#511600"/>
		<stop  offset="0.1962" style="stop-color:#802600"/>
		<stop  offset="0.2312" style="stop-color:#942D00"/>
		<stop  offset="0.2936" style="stop-color:#9C3F00"/>
		<stop  offset="0.4179" style="stop-color:#B16D00"/>
		<stop  offset="0.4892" style="stop-color:#BF8A00"/>
		<stop  offset="0.4943" style="stop-color:#BE8700"/>
		<stop  offset="0.5623" style="stop-color:#AC6000"/>
		<stop  offset="0.6249" style="stop-color:#9F4400"/>
		<stop  offset="0.6797" style="stop-color:#973300"/>
		<stop  offset="0.7204" style="stop-color:#942D00"/>
		<stop  offset="0.7222" style="stop-color:#932D00"/>
		<stop  offset="0.7794" style="stop-color:#6D1F00"/>
		<stop  offset="0.8364" style="stop-color:#501500"/>
		<stop  offset="0.8926" style="stop-color:#3B0E00"/>
		<stop  offset="0.9476" style="stop-color:#2E0900"/>
		<stop  offset="1" style="stop-color:#2A0800"/>
	</linearGradient>
	<path fill="url(#SVGID_21_)" stroke="#000000" stroke-miterlimit="10" d="M82.483,90.611c-1.229,1.791-1.627,5.973,0.65,6.787
		s1.076,2.078,5.687-0.044c2.846-1.311,5.419-8.228,5.419-8.228s-5.759-0.97-7.507-0.287C84.984,89.523,82.483,90.611,82.483,90.611
		z"/>
	
		<linearGradient id="SVGID_22_" gradientUnits="userSpaceOnUse" x1="268.7383" y1="-0.7407" x2="266.2834" y2="-7.4856" gradientTransform="matrix(-0.3931 0.9195 0.9195 0.3931 204.1067 -142.3377)">
		<stop  offset="0" style="stop-color:#2A0800"/>
		<stop  offset="0.0392" style="stop-color:#350C00"/>
		<stop  offset="0.1075" style="stop-color:#511600"/>
		<stop  offset="0.1962" style="stop-color:#802600"/>
		<stop  offset="0.2312" style="stop-color:#942D00"/>
		<stop  offset="0.2936" style="stop-color:#9C3F00"/>
		<stop  offset="0.4179" style="stop-color:#B16D00"/>
		<stop  offset="0.4892" style="stop-color:#BF8A00"/>
		<stop  offset="0.4943" style="stop-color:#BE8700"/>
		<stop  offset="0.5623" style="stop-color:#AC6000"/>
		<stop  offset="0.6249" style="stop-color:#9F4400"/>
		<stop  offset="0.6797" style="stop-color:#973300"/>
		<stop  offset="0.7204" style="stop-color:#942D00"/>
		<stop  offset="0.7222" style="stop-color:#932D00"/>
		<stop  offset="0.7794" style="stop-color:#6D1F00"/>
		<stop  offset="0.8364" style="stop-color:#501500"/>
		<stop  offset="0.8926" style="stop-color:#3B0E00"/>
		<stop  offset="0.9476" style="stop-color:#2E0900"/>
		<stop  offset="1" style="stop-color:#2A0800"/>
	</linearGradient>
	<path fill="url(#SVGID_22_)" stroke="#000000" stroke-miterlimit="10" d="M89.336,104.206c-0.388,1.878,0.721,4.248,3.356,4.071
		c1.383-0.094,3.065-0.682,4.868-4.708c1.801-4.026,2.245-7.232,2.245-7.232s-5.609,1.196-6.394,2.31
		c-0.785,1.113-0.84,0.881-2.142,2.48C89.97,102.725,89.543,103.208,89.336,104.206z"/>
	
		<linearGradient id="SVGID_23_" gradientUnits="userSpaceOnUse" x1="280.2891" y1="-4.8804" x2="273.8776" y2="-8.582" gradientTransform="matrix(-0.2936 0.9559 0.9559 0.2936 176.4486 -144.4414)">
		<stop  offset="0" style="stop-color:#2A0800"/>
		<stop  offset="0.0392" style="stop-color:#350C00"/>
		<stop  offset="0.1075" style="stop-color:#511600"/>
		<stop  offset="0.1962" style="stop-color:#802600"/>
		<stop  offset="0.2312" style="stop-color:#942D00"/>
		<stop  offset="0.2936" style="stop-color:#9C3F00"/>
		<stop  offset="0.4179" style="stop-color:#B16D00"/>
		<stop  offset="0.4892" style="stop-color:#BF8A00"/>
		<stop  offset="0.4943" style="stop-color:#BE8700"/>
		<stop  offset="0.5623" style="stop-color:#AC6000"/>
		<stop  offset="0.6249" style="stop-color:#9F4400"/>
		<stop  offset="0.6797" style="stop-color:#973300"/>
		<stop  offset="0.7204" style="stop-color:#942D00"/>
		<stop  offset="0.7222" style="stop-color:#932D00"/>
		<stop  offset="0.7794" style="stop-color:#6D1F00"/>
		<stop  offset="0.8364" style="stop-color:#501500"/>
		<stop  offset="0.8926" style="stop-color:#3B0E00"/>
		<stop  offset="0.9476" style="stop-color:#2E0900"/>
		<stop  offset="1" style="stop-color:#2A0800"/>
	</linearGradient>
	<path fill="url(#SVGID_23_)" stroke="#000000" stroke-miterlimit="10" d="M80.561,120.686c2.96,1.49,3.596,2.501,6.382,1.96
		c2.785-0.541,5.859-3.116,6.12-3.482c0.127-0.177,3.402-4.303,3.402-4.303s-4.574-0.882-5.783-0.52
		c-2.355,0.705-5.129,0.733-6.413,1.528C82.985,116.664,80.561,120.686,80.561,120.686z"/>
	
		<linearGradient id="SVGID_24_" gradientUnits="userSpaceOnUse" x1="247.0186" y1="-64.0356" x2="242.4263" y2="-71.9897" gradientTransform="matrix(-0.3931 0.9195 0.9195 0.3931 204.1067 -142.3377)">
		<stop  offset="0" style="stop-color:#2A0800"/>
		<stop  offset="0.0874" style="stop-color:#350C00"/>
		<stop  offset="0.24" style="stop-color:#511600"/>
		<stop  offset="0.4381" style="stop-color:#802600"/>
		<stop  offset="0.5161" style="stop-color:#942D00"/>
		<stop  offset="0.5785" style="stop-color:#A04700"/>
		<stop  offset="0.6648" style="stop-color:#AE6400"/>
		<stop  offset="0.7505" style="stop-color:#B77900"/>
		<stop  offset="0.8342" style="stop-color:#BD8600"/>
		<stop  offset="0.914" style="stop-color:#BF8A00"/>
		<stop  offset="0.9174" style="stop-color:#B68200"/>
		<stop  offset="0.9374" style="stop-color:#845700"/>
		<stop  offset="0.9563" style="stop-color:#5D3500"/>
		<stop  offset="0.9736" style="stop-color:#411C00"/>
		<stop  offset="0.9887" style="stop-color:#300D00"/>
		<stop  offset="1" style="stop-color:#2A0800"/>
	</linearGradient>
	<path fill="url(#SVGID_24_)" stroke="#000000" stroke-miterlimit="10" d="M53.813,45.315c3.618,0.93,4.498,3.931,4.257,5.218
		c-0.242,1.288-2.684,3.024-4.788,5.059c-2.106,2.034-8.964,6.516-11.108,7.916c-2.143,1.4-5.934,4.486-5.934,4.486
		s-1.505-2.261,0.264-5.675s7.281-11.251,8.885-12.11s8.066-5.139,8.066-5.139"/>
	
		<radialGradient id="SVGID_25_" cx="262.8916" cy="-74.4175" r="9.5548" gradientTransform="matrix(0.1417 -0.9899 -9.899 -1.4174 -741.5918 224.887)" gradientUnits="userSpaceOnUse">
		<stop  offset="0" style="stop-color:#2A0800"/>
		<stop  offset="0.0446" style="stop-color:#350C00"/>
		<stop  offset="0.1225" style="stop-color:#511600"/>
		<stop  offset="0.2236" style="stop-color:#802600"/>
		<stop  offset="0.2634" style="stop-color:#942D00"/>
		<stop  offset="0.4" style="stop-color:#9C3F00"/>
		<stop  offset="0.6718" style="stop-color:#B16D00"/>
		<stop  offset="0.828" style="stop-color:#BF8A00"/>
		<stop  offset="0.8348" style="stop-color:#B68200"/>
		<stop  offset="0.8748" style="stop-color:#845700"/>
		<stop  offset="0.9127" style="stop-color:#5D3500"/>
		<stop  offset="0.9473" style="stop-color:#411C00"/>
		<stop  offset="0.9775" style="stop-color:#300D00"/>
		<stop  offset="1" style="stop-color:#2A0800"/>
	</radialGradient>
	<path fill="url(#SVGID_25_)" stroke="#000000" stroke-miterlimit="10" d="M29.923,62.41c-3.883-0.547-6.809,0.518-7.703,1.526
		s-0.778,5.268,0.008,7.727s4.24,3.062,6.955,3.282c2.407,0.195,6.604-0.111,9.867-0.879c1.779-0.418,5.7-2.965,5.7-2.965
		s-5.703-5.38-9.83-7.02C29.32,61.856,29.923,62.41,29.923,62.41z"/>
	
		<linearGradient id="SVGID_26_" gradientUnits="userSpaceOnUse" x1="262.2969" y1="-33.6484" x2="255.562" y2="-41.6747" gradientTransform="matrix(-0.3931 0.9195 0.9195 0.3931 204.1067 -142.3377)">
		<stop  offset="0" style="stop-color:#2A0800"/>
		<stop  offset="0.0683" style="stop-color:#350C00"/>
		<stop  offset="0.1875" style="stop-color:#511600"/>
		<stop  offset="0.3423" style="stop-color:#802600"/>
		<stop  offset="0.4032" style="stop-color:#942D00"/>
		<stop  offset="0.5099" style="stop-color:#9C3F00"/>
		<stop  offset="0.7222" style="stop-color:#B16D00"/>
		<stop  offset="0.8441" style="stop-color:#BF8A00"/>
		<stop  offset="0.8502" style="stop-color:#B68200"/>
		<stop  offset="0.8866" style="stop-color:#845700"/>
		<stop  offset="0.9209" style="stop-color:#5D3500"/>
		<stop  offset="0.9522" style="stop-color:#411C00"/>
		<stop  offset="0.9796" style="stop-color:#300D00"/>
		<stop  offset="1" style="stop-color:#2A0800"/>
	</linearGradient>
	<path fill="url(#SVGID_26_)" stroke="#000000" stroke-miterlimit="10" d="M58.989,79.811c-0.072,1.977,1.589,3.509,1.907,4.934
		c0.317,1.424-0.315,3.107,1.345,3.717c1.66,0.609,5.911-1.643,8.222-3.745c2.31-2.102,5.532-6.749,5.532-6.749
		s-7.774-1.499-9.115-1.44c-1.341,0.06-2.616-0.022-4.814,1.509C59.866,79.568,58.989,79.811,58.989,79.811z"/>
	
		<linearGradient id="SVGID_27_" gradientUnits="userSpaceOnUse" x1="264.6162" y1="-10.8511" x2="258.9077" y2="-17.6542" gradientTransform="matrix(-0.3931 0.9195 0.9195 0.3931 204.1067 -142.3377)">
		<stop  offset="0" style="stop-color:#2A0800"/>
		<stop  offset="0.0765" style="stop-color:#350C00"/>
		<stop  offset="0.21" style="stop-color:#511600"/>
		<stop  offset="0.3834" style="stop-color:#802600"/>
		<stop  offset="0.4516" style="stop-color:#942D00"/>
		<stop  offset="0.5452" style="stop-color:#9C3F00"/>
		<stop  offset="0.7317" style="stop-color:#B16D00"/>
		<stop  offset="0.8387" style="stop-color:#BF8A00"/>
		<stop  offset="0.8451" style="stop-color:#B68200"/>
		<stop  offset="0.8826" style="stop-color:#845700"/>
		<stop  offset="0.9181" style="stop-color:#5D3500"/>
		<stop  offset="0.9506" style="stop-color:#411C00"/>
		<stop  offset="0.9789" style="stop-color:#300D00"/>
		<stop  offset="1" style="stop-color:#2A0800"/>
	</linearGradient>
	<path fill="url(#SVGID_27_)" stroke="#000000" stroke-miterlimit="10" d="M82.483,90.611c-1.229,1.791-1.627,5.973,0.65,6.787
		s1.076,2.078,5.687-0.044c2.846-1.311,5.419-8.228,5.419-8.228s-5.759-0.97-7.507-0.287C84.984,89.523,82.483,90.611,82.483,90.611
		z"/>
	
		<linearGradient id="SVGID_28_" gradientUnits="userSpaceOnUse" x1="268.7383" y1="-0.7407" x2="266.2834" y2="-7.4856" gradientTransform="matrix(-0.3931 0.9195 0.9195 0.3931 204.1067 -142.3377)">
		<stop  offset="0" style="stop-color:#2A0800"/>
		<stop  offset="0.0701" style="stop-color:#350C00"/>
		<stop  offset="0.1925" style="stop-color:#511600"/>
		<stop  offset="0.3514" style="stop-color:#802600"/>
		<stop  offset="0.414" style="stop-color:#942D00"/>
		<stop  offset="0.5063" style="stop-color:#9C3F00"/>
		<stop  offset="0.6901" style="stop-color:#B16D00"/>
		<stop  offset="0.7957" style="stop-color:#BF8A00"/>
		<stop  offset="0.8038" style="stop-color:#B68200"/>
		<stop  offset="0.8513" style="stop-color:#845700"/>
		<stop  offset="0.8963" style="stop-color:#5D3500"/>
		<stop  offset="0.9374" style="stop-color:#411C00"/>
		<stop  offset="0.9733" style="stop-color:#300D00"/>
		<stop  offset="1" style="stop-color:#2A0800"/>
	</linearGradient>
	<path fill="url(#SVGID_28_)" stroke="#000000" stroke-miterlimit="10" d="M89.336,104.206c-0.388,1.878,0.721,4.248,3.356,4.071
		c1.383-0.094,3.065-0.682,4.868-4.708c1.801-4.026,2.245-7.232,2.245-7.232s-5.609,1.196-6.394,2.31
		c-0.785,1.113-0.84,0.881-2.142,2.48C89.97,102.725,89.543,103.208,89.336,104.206z"/>
	
		<linearGradient id="SVGID_29_" gradientUnits="userSpaceOnUse" x1="280.2891" y1="-4.8804" x2="273.8776" y2="-8.582" gradientTransform="matrix(-0.2936 0.9559 0.9559 0.2936 176.4486 -144.4414)">
		<stop  offset="0" style="stop-color:#2A0800"/>
		<stop  offset="0.0701" style="stop-color:#350C00"/>
		<stop  offset="0.1925" style="stop-color:#511600"/>
		<stop  offset="0.3514" style="stop-color:#802600"/>
		<stop  offset="0.414" style="stop-color:#942D00"/>
		<stop  offset="0.5346" style="stop-color:#9A3F00"/>
		<stop  offset="0.7747" style="stop-color:#A86D00"/>
		<stop  offset="0.8333" style="stop-color:#AC7900"/>
		<stop  offset="0.8682" style="stop-color:#845600"/>
		<stop  offset="0.9078" style="stop-color:#5D3400"/>
		<stop  offset="0.9443" style="stop-color:#411C00"/>
		<stop  offset="0.9762" style="stop-color:#300D00"/>
		<stop  offset="1" style="stop-color:#2A0800"/>
	</linearGradient>
	<path fill="url(#SVGID_29_)" stroke="#000000" stroke-miterlimit="10" d="M80.561,120.686c2.96,1.49,3.596,2.501,6.382,1.96
		c2.785-0.541,5.859-3.116,6.12-3.482c0.127-0.177,3.402-4.303,3.402-4.303s-4.574-0.882-5.783-0.52
		c-2.355,0.705-5.129,0.733-6.413,1.528C82.985,116.664,80.561,120.686,80.561,120.686z"/>
	
		<linearGradient id="SVGID_30_" gradientUnits="userSpaceOnUse" x1="247.0186" y1="-64.0356" x2="242.4258" y2="-71.9906" gradientTransform="matrix(-0.3931 0.9195 0.9195 0.3931 204.1067 -142.3377)">
		<stop  offset="0" style="stop-color:#2A0800"/>
		<stop  offset="0.0874" style="stop-color:#350C00"/>
		<stop  offset="0.24" style="stop-color:#511600"/>
		<stop  offset="0.4381" style="stop-color:#802600"/>
		<stop  offset="0.5161" style="stop-color:#942D00"/>
		<stop  offset="0.5785" style="stop-color:#A04700"/>
		<stop  offset="0.6648" style="stop-color:#AE6400"/>
		<stop  offset="0.7505" style="stop-color:#B77900"/>
		<stop  offset="0.8342" style="stop-color:#BD8600"/>
		<stop  offset="0.914" style="stop-color:#BF8A00"/>
		<stop  offset="0.9174" style="stop-color:#B68200"/>
		<stop  offset="0.9374" style="stop-color:#845700"/>
		<stop  offset="0.9563" style="stop-color:#5D3500"/>
		<stop  offset="0.9736" style="stop-color:#411C00"/>
		<stop  offset="0.9887" style="stop-color:#300D00"/>
		<stop  offset="1" style="stop-color:#2A0800"/>
	</linearGradient>
	<path fill="url(#SVGID_30_)" stroke="#000000" stroke-miterlimit="10" d="M53.813,45.315c3.618,0.93,4.498,3.931,4.257,5.218
		c-0.242,1.288-2.684,3.024-4.788,5.059c-2.106,2.034-8.965,6.516-11.108,7.916c-2.143,1.4-5.934,4.486-5.934,4.486
		s-1.505-2.261,0.264-5.675c1.769-3.414,7.281-11.25,8.884-12.109c1.604-0.86,8.067-5.139,8.067-5.139"/>
</g>
</svg>
