<?xml version="1.0" encoding="utf-8"?>
<!-- Generator: Adobe Illustrator 16.0.0, SVG Export Plug-In . SVG Version: 6.00 Build 0)  -->
<!DOCTYPE svg PUBLIC "-//W3C//DTD SVG 1.1//EN" "http://www.w3.org/Graphics/SVG/1.1/DTD/svg11.dtd">
<svg version="1.1" id="Boy" xmlns="http://www.w3.org/2000/svg" xmlns:xlink="http://www.w3.org/1999/xlink" x="0px" y="0px"
	 width="179.584px" height="247.058px" viewBox="0 0 179.584 247.058" enable-background="new 0 0 179.584 247.058"
	 xml:space="preserve">
<g id="Layer_5">
	<path fill-rule="evenodd" clip-rule="evenodd" fill="#FFFF99" d="M100.939,84.435c13.78,4.021,18.149,6.168,21.395,8.583
		c1.93,1.436,5.491,3.787,15.525,2.209c0,0,4.018,0.772,9.737-1.012c6.42-2.003,14.185-5.923,16.713-2.967s1.854,7.119,3.648,11.082
		s6.83,8.94,7.287,15.217s-2.918,16.12-6.512,19.533s-10.294,13.146-13.68,15.895s-6.593,4.348-8.558,3.811
		s-2.896-4.88-2.204-10.417s-0.633-7.604-1.715-7.62s-2.636,1.938-1.44-1.713s4.122-7.169,3.4-8.537s-5.899-3.932-7.503-4.104
		s2.036-3.109-3.258,0.031s-8.398,5.563-11.16,4.015s-4.056-5.107-4.056-5.107s-2.737,3.46-1.204,5.94s2.673,3.554,3.934,5.971
		s2.957-0.901,0.008,3.18s-2.844,6.821-2.844,6.821s-0.119,1.544,1.359,1.881s3.674-0.087,2.818,2.859s-1.915,11.312-1.549,13.882
		s1.602,17.3,3.173,21.596s4.604,4.8,1.497,9.303s-3.236,2.98-15.359,3.416s-22.958-5.101-23.596-23.786s-3.174-43.283,1.035-54.514
		s3.921-30.191,5.968-30.746S100.939,84.435,100.939,84.435z"/>
</g>
<g id="Layer_5_copy">
	<g>
		<path fill="none" stroke="#000000" stroke-miterlimit="10" d="M170.494,106.568c-0.451-0.235-0.914-0.574-1.382-1.023
			c0.902,3.426-1.212,5.161-3.696,5.162c-2.517-0.001-4.737-1.563-3.868-5.135c-2.518,2.498-5.079,1.535-6.322-0.616
			c-1.206-2.09-1.021-4.656,2.104-5.776c-3.039-1.03-3.409-3.588-2.219-5.649c1.246-2.157,3.671-3.3,6.3-0.861
			c-0.144-0.993-0.003-1.812,0.324-2.471c-3.539-0.159-9.228,2.484-14.138,4.016c-5.72,1.784-9.737,1.012-9.737,1.012
			c-10.035,1.578-13.596-0.773-15.525-2.209c-3.246-2.415-7.614-4.562-21.395-8.583c0,0-5.091,4.146-7.139,4.701
			s-1.759,19.515-5.968,30.746s-1.673,35.828-1.035,54.514s11.473,24.222,23.596,23.786s12.251,1.087,15.359-3.416
			s0.074-5.007-1.497-9.303s-2.808-19.025-3.173-21.596s0.694-10.936,1.549-13.882s-1.34-2.522-2.818-2.859
			s-1.359-1.881-1.359-1.881s-0.104-2.74,2.844-6.821s1.252-0.763-0.008-3.18s-2.401-3.49-3.934-5.971s1.204-5.94,1.204-5.94
			s1.294,3.56,4.056,5.107s5.866-0.874,11.16-4.015s1.654-0.203,3.258-0.031s6.781,2.735,7.503,4.104s-2.204,4.886-3.4,8.537
			s0.358,1.696,1.44,1.713s2.407,2.083,1.715,7.62s0.239,9.88,2.204,10.417s5.172-1.062,8.558-3.811s10.086-12.481,13.68-15.895
			s6.969-13.257,6.512-19.533C174.938,113.328,172.563,109.699,170.494,106.568z"/>
		<path fill="#FF3333" stroke="#000000" stroke-miterlimit="10" d="M161.41,92.669c0.84,0.779,1.7,1.938,2.549,3.533
			c0.401-0.172,0.842-0.269,1.306-0.269c0.383,0,0.745,0.078,1.087,0.197c-0.363-1.799-0.84-3.479-2.042-4.884
			c-0.595-0.695-1.487-1-2.576-1.048C161.406,90.857,161.266,91.677,161.41,92.669z"/>
		<path fill="#FF3333" stroke="#000000" stroke-miterlimit="10" d="M162.011,98.629c0.208-1.095,0.95-1.999,1.948-2.427
			c-0.849-1.595-1.709-2.753-2.549-3.533c-2.628-2.439-5.054-1.296-6.3,0.861c-1.19,2.062-0.82,4.619,2.219,5.649
			C158.47,98.771,160.003,98.556,162.011,98.629z"/>
		<path fill="#FF3333" stroke="#000000" stroke-miterlimit="10" d="M161.948,99.25c0-0.213,0.024-0.42,0.063-0.621
			c-2.008-0.073-3.541,0.143-4.682,0.551c-3.125,1.12-3.31,3.687-2.104,5.776c1.243,2.151,3.804,3.114,6.322,0.616
			c0.257-1.059,0.801-2.303,1.676-3.728C162.452,101.238,161.948,100.308,161.948,99.25z"/>
		<path fill="#FF3333" stroke="#000000" stroke-miterlimit="10" d="M165.264,102.565c-0.774,0-1.477-0.276-2.041-0.721
			c-0.875,1.425-1.418,2.669-1.676,3.728c-0.869,3.572,1.352,5.134,3.868,5.135c2.484-0.001,4.598-1.736,3.696-5.162
			c-0.789-0.757-1.595-1.854-2.392-3.329C166.279,102.433,165.789,102.565,165.264,102.565z"/>
		<path fill="#FF3333" stroke="#000000" stroke-miterlimit="10" d="M166.72,102.216c0.797,1.476,1.603,2.572,2.392,3.329
			c0.469,0.449,0.931,0.788,1.382,1.023c-1.01-1.528-1.948-2.939-2.537-4.239c-0.116-0.257-0.221-0.514-0.318-0.771
			C167.376,101.829,167.063,102.047,166.72,102.216z"/>
		<path stroke="#000000" stroke-miterlimit="10" d="M163.958,96.202c-0.998,0.428-1.74,1.332-1.948,2.427
			c-0.038,0.201-0.063,0.408-0.063,0.621c0,1.058,0.504,1.988,1.275,2.595c0.564,0.444,1.267,0.721,2.041,0.721
			c0.525,0,1.015-0.133,1.456-0.35c0.343-0.169,0.656-0.387,0.92-0.658c-0.689-1.832-0.936-3.686-1.288-5.427
			c-0.342-0.119-0.704-0.197-1.087-0.197C164.8,95.934,164.359,96.03,163.958,96.202z"/>
	</g>
</g>
<path fill-rule="evenodd" clip-rule="evenodd" d="M175.701,123.822c-0.973,2.394-1.651,4.964-2.973,7.145
	c-3.795,6.261-8.177,12.111-13.192,17.474c-3.01,3.219-6.043,6.378-9.918,8.61c-2.617,1.508-5.053,0.676-5.638-2.311
	c-0.55-2.81-0.75-5.691-1.022-8.549c-0.147-1.549-0.115-3.114-0.179-4.672c-0.045-1.097-0.186-2.09-1.285-2.789
	c-0.353-0.224-0.504-1.184-0.358-1.696c0.525-1.837,1.174-3.643,1.854-5.431c1.253-3.299,0.769-4.421-2.661-5.281
	c-1.341-0.337-2.477-0.767-3.296-1.929c-0.183-0.259-0.659-0.313-0.861-0.4c1.676-2.464,3.381-5.012,5.134-7.526
	c0.536-0.769,1.205-1.444,2.042-2.016c-1.753,3.383-3.506,6.766-5.329,10.282c1.304,0.434,2.543,0.83,3.771,1.259
	c2.714,0.946,3.363,2.408,2.308,5.099c-0.612,1.561-1.149,3.151-1.803,4.692c-0.458,1.079-0.154,1.969,0.282,2.964
	c0.483,1.104,0.924,2.291,1.048,3.477c0.376,3.614,0.559,7.249,0.883,10.87c0.133,1.483,0.368,3.081,1.987,3.69
	c1.597,0.603,2.78-0.447,3.973-1.374c5.559-4.318,10.527-9.232,14.67-14.918c3.425-4.699,7.154-9.233,9.054-14.881
	c0.652-1.94,0.948-3.826,0.45-5.868c-0.288-1.18-0.074-2.474-0.295-3.679c-0.218-1.195-0.552-2.416-1.094-3.496
	c-1.073-2.14-2.328-4.188-3.502-6.276c-1.926-3.425-2.886-7.17-3.624-10.987c-0.038-0.196-0.056-0.396-0.096-0.592
	c-0.686-3.401-1.436-3.938-4.924-4.03c-3.442-0.091-6.637,0.792-9.762,2.094c-2.911,1.213-5.818,2.437-8.742,3.615
	c-0.965,0.389-1.355,1.02-1.253,2.04c0.155,1.546,0.27,3.097,0.404,4.666c-1.934-0.446-2.133-1.596-1.19-6.616
	c-0.9-0.682-1.879-0.987-3.076-0.905c-3.062,0.212-6.133,0.437-9.199,0.408c-2.381-0.022-4.443-1.13-6.308-2.618
	c-0.829-0.662-1.75-1.282-2.728-1.671c-3.964-1.578-7.989-3.005-11.939-4.615c-0.982-0.4-1.841-1.201-2.632-1.949
	c-0.802-0.758-1.45-1.679-2.393-2.798c-1.2,2.846-2.43,5.39-3.353,8.041c-1.45,4.164-2.985,8.267-5.53,11.908
	c-0.541,0.774-0.344,1.467-0.017,2.247c1.452,3.464,1.603,7.023-0.776,10.005c-1.435,1.798-1.436,3.387-1.156,5.378
	c1.064,7.596,2.246,15.185,2.964,22.816c0.853,9.065,1.277,18.172,1.874,27.262c0.089,1.354,0.047,2.72,0.171,4.069
	c0.171,1.862-0.275,3.526-1.156,5.164c-0.362,0.674-0.495,1.603-0.395,2.37c0.574,4.393,1.269,8.77,1.882,13.157
	c0.241,1.722,0.278,1.807,2,1.623c3.891-0.415,7.786-0.796,11.667-1.281c1.458-0.183,2.871-0.737,4.33-0.91
	c3.412-0.402,6.282,0.777,8.763,3.582c0.425-0.902,0.855-1.593,1.087-2.345c0.881-2.86,0.229-5.711-0.186-8.551
	c-1.12-7.668-2.304-15.328-3.38-23.003c-0.407-2.902-0.201-5.789,0.444-8.686c0.375-1.679,0.239-3.482,0.234-5.229
	c-0.003-1.17-0.712-1.862-1.884-1.921c-2.184-0.109-2.772-1.018-2.238-3.303c0.579-2.476,1.655-4.644,3.659-6.305
	c1.223-1.015,1.167-1.285-0.123-2.188c-2.415-1.691-3.666-3.966-3.819-6.962c-0.391-7.664-1.011-15.309-2.841-22.798
	c-0.045-0.185-0.042-0.381,0.192-0.677c0.171,0.38,0.372,0.749,0.51,1.141c1.875,5.309,2.756,10.821,3.343,16.394
	c0.038,0.355,0.117,0.709,0.198,1.059c0.84,3.634,3.332,4.928,6.855,3.494c2.737-1.113,5.437-2.318,8.163-3.46
	c0.494-0.207,1.036-0.301,1.654-0.203c-0.249,0.144-0.489,0.307-0.749,0.429c-2.818,1.326-5.629,2.668-8.462,3.963
	c-3.552,1.623-5.677,0.983-7.847-2.299c-0.078-0.118-0.192-0.213-0.43-0.472c0.125,3.641,0.565,6.912,3.348,9.4
	c1.704,1.523,1.7,2.471,0.203,4.122c-1.534,1.691-2.628,3.605-3.039,5.879c-0.254,1.408-0.021,1.749,1.359,1.881
	c1.986,0.191,2.632,0.854,2.818,2.859c0.238,2.574-0.155,5.075-0.627,7.606c-0.739,3.962,0.19,7.874,0.778,11.781
	c1.023,6.794,2.103,13.581,3.044,20.386c0.227,1.642,0.2,3.376-0.074,5.007c-0.185,1.101-0.813,2.277-1.586,3.095
	c-1.226,1.296-2.703,2.368-4.139,3.448c-2.436,1.831-5.284,2.4-8.253,2.421c-2.076,0.014-4.153-0.101-6.229-0.169
	c-0.706-0.023-1.143,0.101-1.023,1.002c0.395,2.97,0.752,5.946,1.071,8.926c0.14,1.303,0.858,1.799,2.045,2.279
	c2.202,0.891,3.954,0.22,5.818-0.85c2.071-1.188,3.222-0.805,4.516,1.201c0.412,0.638,0.813,1.284,1.259,1.897
	c2.151,2.952,5.04,4.367,8.716,4.433c4.457,0.08,8.825,0.678,12.882,2.773c1.416,0.73,2.108,1.798,2.524,3.272
	c0.291,1.031,0.787,2.064,1.424,2.925c0.696,0.94,0.757,1.669,0.001,2.548c-1.43,1.663-3.327,2.412-5.387,2.899
	c-6.947,1.642-14.03,1.569-21.099,1.745c-1.819,0.045-3.687,0.229-5.431,0.715c-4.562,1.268-9.153,2.243-13.9,2.388
	c-0.182,0.005-0.361,0.123-0.541,0.188c-3.6,0-7.2,0-10.8,0c-2.17-0.237-4.339-0.485-6.511-0.711
	c-4.88-0.506-9.635-1.439-13.975-3.897c-0.617-0.35-1.314-0.586-2.002-0.772c-2.77-0.752-5.44-0.28-7.554,1.542
	c-1.271,1.095-2.404,1.382-3.896,1.093c-4.391-0.851-8.782-1.699-13.177-2.524c-2.749-0.516-3.531-1.408-3.764-4.241
	c-0.154-1.869-0.245-3.765-0.642-5.589c-0.761-3.499,0.168-6.453,2.399-9.134c1.025-1.23,2.254-1.762,3.868-1.741
	c7.002,0.093,13.971,0.514,20.886,1.688c2.366,0.401,2.992-0.011,3.773-2.309c0.253-0.745,0.451-1.56,0.434-2.337
	c-0.06-2.675-0.199-5.35-0.387-8.019c-0.023-0.322-0.48-0.797-0.816-0.882c-1.198-0.301-2.474-0.329-3.643-0.703
	c-4.403-1.409-8.746-3.017-13.17-4.354c-3.713-1.122-6.314-3.543-8.738-6.405c-2.794-3.298-2.61-6.838-1.126-10.447
	c1.022-2.485,1.823-5.001,1.635-7.652c-0.237-3.337-0.76-6.657-1.247-9.973c-0.335-2.277-0.82-4.533-1.185-6.509
	c-1.439,0.072-2.75,0.369-3.971,0.156c-3.968-0.694-7.363-2.672-10.227-5.423c-4.67-4.487-9.072-9.231-12.787-14.569
	c-2.457-3.529-5.591-6.578-7.457-10.525c0-0.641,0-1.28,0-1.92c0.691-1.476,1.549-2.897,2.041-4.436
	c1.065-3.337,2.922-6.361,3.498-9.908c0.671-4.132,1.754-8.194,2.618-12.296c0.447-2.122,1.693-3.579,3.571-4.541
	c5.212-2.67,9.956-6.057,14.71-9.444c1.468-1.046,3.154-1.938,4.874-2.454c7.148-2.144,14.356-4.089,21.516-6.199
	c0.685-0.202,45.747,1.683,45.609,4.254c-0.029,0.548,0.227,1.203,0.556,1.664c1.667,2.333,3.822,4.026,6.576,4.971
	c3.281,1.125,6.544,2.31,9.777,3.566c0.982,0.382,1.937,0.974,2.734,1.665c2.475,2.148,5.334,2.966,8.542,2.746
	c2.393-0.164,4.782-0.367,7.175-0.518c0.416-0.026,0.935-0.011,1.249,0.209c1.476,1.039,2.93,0.77,4.434,0.114
	c2.378-1.037,4.779-2.021,7.151-3.073c3.379-1.5,6.898-2.204,10.601-2.135c3.44,0.064,4.523,0.909,5.266,4.273
	c0.481,2.183,0.776,4.45,1.592,6.504c1.114,2.805,2.574,5.481,4.016,8.143c1.483,2.737,2.651,5.535,2.798,8.696
	c0.038,0.817,0.298,1.625,0.457,2.437C175.701,121.263,175.701,122.543,175.701,123.822z M90.937,183.074
	c-0.55,0.253-0.909,0.397-1.25,0.578c-2.048,1.082-4.15,2.076-6.118,3.289c-1.539,0.948-2.752,0.737-4.154-0.259
	c-3.322-2.361-6.032-5.348-8.84-8.25c-1.028-1.063-1.212-2.079-0.796-3.459c1.129-3.744,2.423-7.47,3.153-11.297
	c2.947-15.457,5.717-30.947,8.498-46.436c0.115-0.642-0.125-1.545-0.539-2.049c-1.392-1.696-1.885-3.525-1.551-5.689
	c0.291-1.879,0.097-3.753-0.741-5.502c-1.069-2.233-2.147-4.461-3.25-6.678c-0.652-1.311-1.501-2.443-2.926-3.036
	c-2.59-1.076-3.173-3.186-1.552-5.532c0.263-0.381,0.533-0.757,0.844-1.199c-0.406-0.206-0.686-0.343-0.96-0.489
	c-3.772-2.003-7.526-4.043-11.326-5.992c-1.299-0.667-1.667-1.726-1.761-3.017c-0.019-0.257-0.002-0.517-0.002-0.918
	c-1.063,0.269-2.036,0.476-2.984,0.762c-3.631,1.094-7.197,2.5-10.896,3.255c-5.841,1.191-11.02,3.555-15.847,7.024
	c-3.429,2.464-7.125,4.582-10.823,6.634c-2.2,1.22-3.646,2.829-4.117,5.261c-0.909,4.699-1.742,9.413-2.654,14.111
	c-0.155,0.801-0.367,1.706-0.864,2.303c-1.278,1.531-1.95,3.259-2.32,5.18c-0.178,0.924-0.403,1.909-0.89,2.69
	c-1.41,2.263-1.532,2.641,0.038,4.824c5.104,7.104,10.089,14.284,16.394,20.464c2.781,2.726,5.653,5.131,9.116,6.883
	c3.159,1.599,6.061,0.776,8.719-0.484c-1.092-0.139-2.383-0.252-3.654-0.478c-0.979-0.175-1.921-0.614-2.902-0.717
	c-2.338-0.242-4.274-1.261-5.953-2.824c-1.813-1.688-3.732-3.294-5.35-5.157c-4.532-5.221-8.956-10.535-13.36-15.865
	c-0.723-0.874-1.204-1.978-1.662-3.034c-0.611-1.408-0.173-2.601,1.112-3.402c2.018-1.259,3.945-1.18,6.102-0.073
	c2.642,1.354,5.475,2.339,8.223,3.486c0.477,0.199,0.98,0.36,1.413,0.632c6.117,3.832,11.423,8.591,16.076,14.096
	c2.473,2.926,4.16,6.078,3.02,10.12c0.273-0.55,0.5-1.096,0.533-1.652c0.211-3.626,0.396-7.254,0.545-10.883
	c0.017-0.405-0.192-0.844-0.373-1.231c-2.147-4.621-4.837-8.913-7.89-12.985c-0.388-0.518-0.741-1.063-1.11-1.595
	c4.616,3.992,9.482,7.821,9.586,14.771c0.26-1.091,0.393-2.142,0.235-3.146c-0.506-3.227-1.244-6.42-1.661-9.656
	c-0.521-4.036-1.317-7.894-4.424-10.854c-0.36-0.343-0.61-0.8-0.978-1.294c1.601-0.257,2.418,0.654,3.089,1.646
	c0.678,1.003,1.193,2.116,1.674,2.991c0.867-0.559,1.644-1.317,2.564-1.589c1.305-0.384,2.097-1.104,2.475-2.337
	c0.328-1.068,0.518-2.182,0.899-3.229c0.42-1.152,0.991-2.251,1.493-3.374c0.38-0.849,0.89-1.667,1.105-2.557
	c0.465-1.922,0.778-3.881,1.153-5.824c0.117,0.019,0.233,0.037,0.35,0.056c0.52,3.02,0.181,5.928-1.187,8.745
	c-0.726,1.496-1.338,3.048-1.961,4.592c-0.417,1.031-0.59,2.206-1.191,3.104c-0.508,0.76-1.392,1.442-2.255,1.754
	c-1.712,0.616-2.227,0.963-2.107,2.801c0.186,2.867,0.529,5.725,0.846,8.581c0.225,2.026,0.595,3.99,1.667,5.817
	c0.732,1.246,0.493,2.671,0.021,4.066c-0.377,1.114-0.616,2.31-0.695,3.483c-0.139,2.071-0.077,4.156-0.157,6.232
	c-0.153,3.948-1.78,6.912-5.684,8.31c-0.176,0.063-0.332,0.179-0.221,0.117c0.61,4.563,1.228,8.944,1.769,13.335
	c0.239,1.94,0.441,3.899,0.442,5.85c0,2.078-0.857,3.942-1.875,5.743c-1.211,2.144-0.663,3.812,1.573,4.757
	c1.392,0.589,2.85,1.037,4.303,1.467c2.043,0.604,3.787,1.585,5.182,3.263c1.812,2.178,4.229,3.127,7.065,3.258
	c5.627,0.26,11.255,0.555,16.872,0.98c3.915,0.296,7.618,1.377,10.824,3.792c2.297,1.73,3.101,1.434,3.832-1.4
	c0.06-0.23,0.096-0.471,0.111-0.709c0.249-3.826,0.497-7.652,0.735-11.479C90.846,185.45,90.879,184.353,90.937,183.074z
	 M73.246,86.957c-0.292,0.572-0.551,1.099-0.826,1.616c-1.957,3.687-1.405,4.944,2.764,5.489c3.221,0.42,5.939,1.568,7.873,4.223
	c0.96,1.318,1.77,2.746,2.65,4.123c0.17,0.267,0.351,0.527,0.526,0.79c0.114-0.048,0.228-0.096,0.342-0.144
	c-0.349-1.588-0.586-3.209-1.063-4.757c-3.087-10.026-25.345-23.735-26.387-20.386c-0.378,1.213,0.068,2.196,1.229,2.808
	c0.989,0.521,1.952,1.094,2.96,1.574C66.588,83.852,69.878,85.379,73.246,86.957z M76.029,212.679
	c6.228,0.627,12.498,1.272,18.772,1.877c1.301,0.126,1.811-0.381,1.806-1.76c-0.008-2.354-0.086-4.707-0.149-7.061
	c-0.022-0.817-0.087-1.634-0.138-2.547c-6.815,0.568-13.475,1.124-20.291,1.692C76.029,207.496,76.029,209.998,76.029,212.679z
	 M73.89,222.692c1.911-0.789,3.716-1.535,5.836-2.41c-0.809-0.307-1.27-0.518-1.751-0.657c-1.986-0.58-2.478-1.062-2.564-3.059
	c-0.134-3.11-0.17-6.226-0.219-9.338c-0.013-0.781,0.083-1.564,0.136-2.437c-2.501-0.152-4.872-0.297-7.399-0.451
	c0.137,2.987,0.212,5.85,0.415,8.702c0.188,2.657-0.419,4.883-2.425,6.826c-1.332,1.29-2.245,3.015-3.488,4.744
	c4.926,0.591,9.475,1.137,14.265,1.712C75.699,225.034,74.835,223.915,73.89,222.692z M97.46,203.466
	c0,2.388-0.125,4.628,0.034,6.848c0.168,2.351-0.487,4.253-2.059,6.015c-1.282,1.437-2.289,3.118-3.599,4.944
	c4.939,0.589,9.463,1.128,14.274,1.701c-1.099-1.23-1.995-2.233-2.975-3.331c1.948-0.824,3.796-1.606,5.897-2.495
	c-0.732-0.332-1.174-0.65-1.655-0.73c-1.75-0.294-2.325-1.45-2.481-3.042c-0.291-2.982-0.657-5.957-0.943-8.939
	c-0.069-0.724-0.385-0.978-1.06-0.974C101.139,203.473,99.384,203.466,97.46,203.466z M88.561,99.594
	c0.077,0.006,0.154,0.013,0.231,0.019c0.081-0.335,0.198-0.666,0.235-1.007c0.335-3.018,0.636-6.041,0.995-9.056
	c0.094-0.785,0.236-1.605,0.568-2.31c0.58-1.229,1.639-1.236,2.317-0.069c0.32,0.55,0.533,1.162,0.892,1.964
	c0.49-2.2,0.928-4.163,1.403-6.295c2.252,1.107,2.453,3.431,3.848,4.986c0.533-1.481,1.055-2.885,1.542-4.301
	c0.337-0.981,0.826-1.968,0.884-2.973c0.071-1.234-13.713,8.679-13.601,10.624C88.039,93.986,88.327,96.788,88.561,99.594z
	 M81.013,97.36c-0.095,0.047-0.19,0.095-0.285,0.142c0.05,0.241,0.066,0.495,0.156,0.721c0.514,1.298,1.032,2.595,1.573,3.882
	c0.5,1.191,1.007,1.377,2.498,0.855C83.624,101.069,82.318,99.215,81.013,97.36z M91.175,93.228
	c0.262-1.929,0.525-3.858,0.788-5.788c-0.117-0.014-0.235-0.028-0.352-0.042C90.561,89.235,90.852,91.229,91.175,93.228z"/>
<path fill-rule="evenodd" clip-rule="evenodd" d="M170.998,117.783c-0.259,1.027-0.518,2.055-0.807,3.202c0.907,0,1.795,0,2.994,0
	c-0.181,1.435-0.213,2.742-0.525,3.98c-0.96,3.803-2.731,7.167-5.229,10.248c-2.485,3.066-4.599,6.433-6.906,9.646
	c-0.532,0.74-1.119,1.474-1.805,2.065c-1.874,1.615-3.8,3.172-5.735,4.715c-1.228,0.979-2.622,1.499-4.235,1.287
	c-0.763-0.101-1.199-0.504-1.149-1.258c0.06-0.907,0.053-1.876,0.375-2.701c3.482-8.939,8.534-16.953,14.642-24.309
	c1.808-2.176,3.803-4.204,5.814-6.196c0.555-0.549,1.478-0.726,2.232-1.073C170.774,117.521,170.886,117.651,170.998,117.783z"/>
<path fill-rule="evenodd" clip-rule="evenodd" fill="#FFFF99" d="M90.937,183.074c-0.058,1.278-0.09,2.376-0.158,3.472
	c-0.238,3.827-0.486,7.653-0.735,11.479c-0.016,0.238-0.051,0.479-0.111,0.709c-0.731,2.834-1.535,3.131-3.832,1.4
	c-3.206-2.415-6.909-3.496-10.824-3.792c-5.616-0.426-11.245-0.721-16.872-0.98c-2.835-0.131-5.253-1.08-7.065-3.258
	c-1.395-1.678-3.138-2.659-5.182-3.263c-1.453-0.43-2.911-0.878-4.303-1.467c-2.235-0.945-2.784-2.613-1.573-4.757
	c1.018-1.801,1.875-3.665,1.875-5.743c0-1.95-0.203-3.909-0.442-5.85c-0.541-4.391-1.159-8.772-1.769-13.335
	c-0.111,0.062,0.045-0.055,0.221-0.117c3.903-1.397,5.531-4.361,5.684-8.31c0.08-2.076,0.018-4.161,0.157-6.232
	c0.079-1.174,0.317-2.369,0.695-3.483c0.472-1.396,0.711-2.82-0.021-4.066c-1.073-1.827-1.442-3.791-1.667-5.817
	c-0.317-2.856-0.66-5.714-0.846-8.581c-0.12-1.838,0.396-2.185,2.107-2.801c0.864-0.312,1.747-0.994,2.255-1.754
	c0.601-0.898,0.775-2.073,1.191-3.104c0.623-1.544,1.235-3.096,1.961-4.592c1.367-2.817,1.706-5.726,1.187-8.745
	c-0.117-0.019-0.233-0.037-0.35-0.056c-0.375,1.943-0.688,3.902-1.153,5.824c-0.215,0.89-0.725,1.708-1.105,2.557
	c-0.502,1.123-1.073,2.222-1.493,3.374c-0.381,1.047-0.572,2.16-0.899,3.229c-0.378,1.233-1.17,1.953-2.475,2.337
	c-0.921,0.271-1.698,1.03-2.564,1.589c-0.481-0.875-0.996-1.988-1.674-2.991c-0.67-0.991-1.488-1.902-3.089-1.646
	c0.367,0.494,0.618,0.951,0.978,1.294c3.106,2.961,3.903,6.818,4.424,10.854c0.417,3.236,1.155,6.43,1.661,9.656
	c0.158,1.005,0.025,2.056-0.235,3.146c-0.104-6.949-4.97-10.778-9.586-14.771c0.369,0.532,0.722,1.077,1.11,1.595
	c3.052,4.072,5.743,8.364,7.89,12.985c0.18,0.388,0.39,0.826,0.373,1.231c-0.15,3.629-0.334,7.257-0.545,10.883
	c-0.033,0.557-0.26,1.103-0.533,1.652c1.141-4.042-0.547-7.194-3.02-10.12c-4.653-5.505-9.959-10.264-16.076-14.096
	c-0.433-0.271-0.937-0.433-1.413-0.632c-2.749-1.147-5.581-2.132-8.223-3.486c-2.157-1.106-4.083-1.186-6.102,0.073
	c-1.286,0.802-1.723,1.994-1.112,3.402c0.458,1.057,0.939,2.16,1.662,3.034c4.404,5.33,8.828,10.645,13.36,15.865
	c1.618,1.863,3.537,3.469,5.35,5.157c1.679,1.563,3.615,2.582,5.953,2.824c0.981,0.103,1.923,0.542,2.902,0.717
	c1.271,0.226,2.562,0.339,3.654,0.478c-2.658,1.261-5.56,2.083-8.719,0.484c-3.463-1.752-6.335-4.157-9.116-6.883
	c-6.304-6.18-11.289-13.359-16.394-20.464c-1.569-2.184-1.447-2.562-0.038-4.824c0.487-0.781,0.712-1.767,0.89-2.69
	c0.37-1.921,1.042-3.648,2.32-5.18c0.498-0.597,0.709-1.502,0.864-2.303c0.912-4.698,1.746-9.412,2.654-14.111
	c0.471-2.432,1.917-4.041,4.117-5.261c3.698-2.053,7.394-4.17,10.823-6.634c4.827-3.469,10.006-5.833,15.847-7.024
	c3.699-0.755,7.265-2.162,10.896-3.255c0.948-0.286,1.92-0.493,2.984-0.762c0,0.401-0.016,0.661,0.002,0.918
	c0.094,1.291,0.462,2.35,1.761,3.017c3.8,1.949,7.554,3.989,11.326,5.992c0.274,0.146,0.554,0.283,0.96,0.489
	c-0.312,0.442-0.581,0.818-0.844,1.199c-1.621,2.346-1.038,4.456,1.552,5.532c1.425,0.592,2.274,1.725,2.926,3.036
	c1.103,2.217,2.181,4.444,3.25,6.678c0.837,1.749,1.031,3.623,0.741,5.502c-0.334,2.164,0.159,3.993,1.551,5.689
	c0.413,0.504,0.654,1.407,0.539,2.049c-2.78,15.488-5.55,30.979-8.498,46.436c-0.73,3.827-2.024,7.553-3.153,11.297
	c-0.416,1.38-0.232,2.396,0.796,3.459c2.808,2.902,5.518,5.889,8.84,8.25c1.402,0.996,2.615,1.207,4.154,0.259
	c1.968-1.213,4.07-2.207,6.118-3.289C90.028,183.472,90.387,183.327,90.937,183.074z"/>
<g>
	<path fill="#FF3333" stroke="#000000" stroke-miterlimit="10" d="M69.928,137.23c-4.415-6.155-1.738-9.28,1.599-9.28
		s6.161,2.74,1.941,9.28H69.928z"/>
	<path fill="#FF3333" stroke="#000000" stroke-miterlimit="10" d="M68.611,139.246c-7.539,0.745-8.906-3.136-7.238-6.025
		c1.668-2.89,5.454-3.966,9.008,2.959L68.611,139.246z"/>
	<path fill="#FF3333" stroke="#000000" stroke-miterlimit="10" d="M70.326,141.39c-3.124,6.901-7.168,6.146-8.837,3.257
		c-1.668-2.891-0.707-6.706,7.067-6.322L70.326,141.39z"/>
	<path fill="#FF3333" stroke="#000000" stroke-miterlimit="10" d="M73.278,141.116c4.414,6.155,1.737,9.28-1.6,9.281
		c-3.336-0.001-6.161-2.741-1.94-9.281H73.278z"/>
	<path fill="#FF3333" stroke="#000000" stroke-miterlimit="10" d="M74.531,138.44c7.538-0.745,8.905,3.136,7.237,6.026
		c-1.668,2.889-5.454,3.965-9.007-2.96L74.531,138.44z"/>
	<path fill="#FF3333" stroke="#000000" stroke-miterlimit="10" d="M72.87,136.296c3.124-6.9,7.168-6.145,8.837-3.255
		c1.668,2.89,0.707,6.706-7.067,6.321L72.87,136.296z"/>
	<circle cx="71.527" cy="138.94" r="3.316"/>
</g>
<path fill-rule="evenodd" clip-rule="evenodd" d="M175.701,123.822c-0.973,2.394-1.651,4.964-2.973,7.145
	c-3.795,6.261-8.177,12.111-13.192,17.474c-3.01,3.219-6.043,6.378-9.918,8.61c-2.617,1.508-5.053,0.676-5.638-2.311
	c-0.55-2.81-0.75-5.691-1.022-8.549c-0.147-1.549-0.115-3.114-0.179-4.672c-0.045-1.097-0.186-2.09-1.285-2.789
	c-0.353-0.224-0.504-1.184-0.358-1.696c0.525-1.837,1.174-3.643,1.854-5.431c1.253-3.299,0.769-4.421-2.661-5.281
	c-1.341-0.337-2.477-0.767-3.296-1.929c-0.183-0.259-0.659-0.313-0.861-0.4c1.676-2.464,3.381-5.012,5.134-7.526
	c0.536-0.769,1.205-1.444,2.042-2.016c-1.753,3.383-3.506,6.766-5.329,10.282c1.304,0.434,2.543,0.83,3.771,1.259
	c2.714,0.946,3.363,2.408,2.308,5.099c-0.612,1.561-1.149,3.151-1.803,4.692c-0.458,1.079-0.154,1.969,0.282,2.964
	c0.483,1.104,0.924,2.291,1.048,3.477c0.376,3.614,0.559,7.249,0.883,10.87c0.133,1.483,0.368,3.081,1.987,3.69
	c1.597,0.603,2.78-0.447,3.973-1.374c5.559-4.318,10.527-9.232,14.67-14.918c3.425-4.699,7.154-9.233,9.054-14.881
	c0.652-1.94,0.948-3.826,0.45-5.868c-0.288-1.18-0.074-2.474-0.295-3.679c-0.218-1.195-0.552-2.416-1.094-3.496
	c-1.073-2.14-2.328-4.188-3.502-6.276c-1.926-3.425-2.886-7.17-3.624-10.987c-0.038-0.196-0.056-0.396-0.096-0.592
	c-0.686-3.401-1.436-3.938-4.924-4.03c-3.442-0.091-6.637,0.792-9.762,2.094c-2.911,1.213-5.818,2.437-8.742,3.615
	c-0.965,0.389-1.355,1.02-1.253,2.04c0.155,1.546,0.27,3.097,0.404,4.666c-1.934-0.446-2.133-1.596-1.19-6.616
	c-0.9-0.682-1.879-0.987-3.076-0.905c-3.062,0.212-6.133,0.437-9.199,0.408c-2.381-0.022-4.443-1.13-6.308-2.618
	c-0.829-0.662-1.75-1.282-2.728-1.671c-3.964-1.578-7.989-3.005-11.939-4.615c-0.982-0.4-1.841-1.201-2.632-1.949
	c-0.802-0.758-1.45-1.679-2.393-2.798c-1.2,2.846-2.43,5.39-3.353,8.041c-1.45,4.164-2.985,8.267-5.53,11.908
	c-0.541,0.774-0.344,1.467-0.017,2.247c1.452,3.464,1.603,7.023-0.776,10.005c-1.435,1.798-1.436,3.387-1.156,5.378
	c1.064,7.596,2.246,15.185,2.964,22.816c0.853,9.065,1.277,18.172,1.874,27.262c0.089,1.354,0.047,2.72,0.171,4.069
	c0.171,1.862-0.275,3.526-1.156,5.164c-0.362,0.674-0.495,1.603-0.395,2.37c0.574,4.393,1.269,8.77,1.882,13.157
	c0.241,1.722,0.278,1.807,2,1.623c3.891-0.415,7.786-0.796,11.667-1.281c1.458-0.183,2.871-0.737,4.33-0.91
	c3.412-0.402,6.282,0.777,8.763,3.582c0.425-0.902,0.855-1.593,1.087-2.345c0.881-2.86,0.229-5.711-0.186-8.551
	c-1.12-7.668-2.304-15.328-3.38-23.003c-0.407-2.902-0.201-5.789,0.444-8.686c0.375-1.679,0.239-3.482,0.234-5.229
	c-0.003-1.17-0.712-1.862-1.884-1.921c-2.184-0.109-2.772-1.018-2.238-3.303c0.579-2.476,1.655-4.644,3.659-6.305
	c1.223-1.015,1.167-1.285-0.123-2.188c-2.415-1.691-3.666-3.966-3.819-6.962c-0.391-7.664-1.011-15.309-2.841-22.798
	c-0.045-0.185-0.042-0.381,0.192-0.677c0.171,0.38,0.372,0.749,0.51,1.141c1.875,5.309,2.756,10.821,3.343,16.394
	c0.038,0.355,0.117,0.709,0.198,1.059c0.84,3.634,3.332,4.928,6.855,3.494c2.737-1.113,5.437-2.318,8.163-3.46
	c0.494-0.207,1.036-0.301,1.654-0.203c-0.249,0.144-0.489,0.307-0.749,0.429c-2.818,1.326-5.629,2.668-8.462,3.963
	c-3.552,1.623-5.677,0.983-7.847-2.299c-0.078-0.118-0.192-0.213-0.43-0.472c0.125,3.641,0.565,6.912,3.348,9.4
	c1.704,1.523,1.7,2.471,0.203,4.122c-1.534,1.691-2.628,3.605-3.039,5.879c-0.254,1.408-0.021,1.749,1.359,1.881
	c1.986,0.191,2.632,0.854,2.818,2.859c0.238,2.574-0.155,5.075-0.627,7.606c-0.739,3.962,0.19,7.874,0.778,11.781
	c1.023,6.794,2.103,13.581,3.044,20.386c0.227,1.642,0.2,3.376-0.074,5.007c-0.185,1.101-0.813,2.277-1.586,3.095
	c-1.226,1.296-2.703,2.368-4.139,3.448c-2.436,1.831-5.284,2.4-8.253,2.421c-2.076,0.014-4.153-0.101-6.229-0.169
	c-0.706-0.023-1.143,0.101-1.023,1.002c0.395,2.97,0.752,5.946,1.071,8.926c0.14,1.303,0.858,1.799,2.045,2.279
	c2.202,0.891,3.954,0.22,5.818-0.85c2.071-1.188,3.222-0.805,4.516,1.201c0.412,0.638,0.813,1.284,1.259,1.897
	c2.151,2.952,5.04,4.367,8.716,4.433c4.457,0.08,8.825,0.678,12.882,2.773c1.416,0.73,2.108,1.798,2.524,3.272
	c0.291,1.031,0.787,2.064,1.424,2.925c0.696,0.94,0.757,1.669,0.001,2.548c-1.43,1.663-3.327,2.412-5.387,2.899
	c-6.947,1.642-14.03,1.569-21.099,1.745c-1.819,0.045-3.687,0.229-5.431,0.715c-4.562,1.268-9.153,2.243-13.9,2.388
	c-0.182,0.005-0.361,0.123-0.541,0.188c-3.6,0-7.2,0-10.8,0c-2.17-0.237-4.339-0.485-6.511-0.711
	c-4.88-0.506-9.635-1.439-13.975-3.897c-0.617-0.35-1.314-0.586-2.002-0.772c-2.77-0.752-5.44-0.28-7.554,1.542
	c-1.271,1.095-2.404,1.382-3.896,1.093c-4.391-0.851-8.782-1.699-13.177-2.524c-2.749-0.516-3.531-1.408-3.764-4.241
	c-0.154-1.869-0.245-3.765-0.642-5.589c-0.761-3.499,0.168-6.453,2.399-9.134c1.025-1.23,2.254-1.762,3.868-1.741
	c7.002,0.093,13.971,0.514,20.886,1.688c2.366,0.401,2.992-0.011,3.773-2.309c0.253-0.745,0.451-1.56,0.434-2.337
	c-0.06-2.675-0.199-5.35-0.387-8.019c-0.023-0.322-0.48-0.797-0.816-0.882c-1.198-0.301-2.474-0.329-3.643-0.703
	c-4.403-1.409-8.746-3.017-13.17-4.354c-3.713-1.122-6.314-3.543-8.738-6.405c-2.794-3.298-2.61-6.838-1.126-10.447
	c1.022-2.485,1.823-5.001,1.635-7.652c-0.237-3.337-0.76-6.657-1.247-9.973c-0.335-2.277-0.82-4.533-1.185-6.509
	c-1.439,0.072-2.75,0.369-3.971,0.156c-3.968-0.694-7.363-2.672-10.227-5.423c-4.67-4.487-9.072-9.231-12.787-14.569
	c-2.457-3.529-5.591-6.578-7.457-10.525c0-0.641,0-1.28,0-1.92c0.691-1.476,1.549-2.897,2.041-4.436
	c1.065-3.337,2.922-6.361,3.498-9.908c0.671-4.132,1.754-8.194,2.618-12.296c0.447-2.122,1.693-3.579,3.571-4.541
	c5.212-2.67,9.956-6.057,14.71-9.444c1.468-1.046,3.154-1.938,4.874-2.454c7.148-2.144,14.356-4.089,21.516-6.199
	c0.685-0.202,45.747,1.683,45.609,4.254c-0.029,0.548,0.227,1.203,0.556,1.664c1.667,2.333,3.822,4.026,6.576,4.971
	c3.281,1.125,6.544,2.31,9.777,3.566c0.982,0.382,1.937,0.974,2.734,1.665c2.475,2.148,5.334,2.966,8.542,2.746
	c2.393-0.164,4.782-0.367,7.175-0.518c0.416-0.026,0.935-0.011,1.249,0.209c1.476,1.039,2.93,0.77,4.434,0.114
	c2.378-1.037,4.779-2.021,7.151-3.073c3.379-1.5,6.898-2.204,10.601-2.135c3.44,0.064,4.523,0.909,5.266,4.273
	c0.481,2.183,0.776,4.45,1.592,6.504c1.114,2.805,2.574,5.481,4.016,8.143c1.483,2.737,2.651,5.535,2.798,8.696
	c0.038,0.817,0.298,1.625,0.457,2.437C175.701,121.263,175.701,122.543,175.701,123.822z M90.937,183.074
	c-0.55,0.253-0.909,0.397-1.25,0.578c-2.048,1.082-4.15,2.076-6.118,3.289c-1.539,0.948-2.752,0.737-4.154-0.259
	c-3.322-2.361-6.032-5.348-8.84-8.25c-1.028-1.063-1.212-2.079-0.796-3.459c1.129-3.744,2.423-7.47,3.153-11.297
	c2.947-15.457,5.717-30.947,8.498-46.436c0.115-0.642-0.125-1.545-0.539-2.049c-1.392-1.696-1.885-3.525-1.551-5.689
	c0.291-1.879,0.097-3.753-0.741-5.502c-1.069-2.233-2.147-4.461-3.25-6.678c-0.652-1.311-1.501-2.443-2.926-3.036
	c-2.59-1.076-3.173-3.186-1.552-5.532c0.263-0.381,0.533-0.757,0.844-1.199c-0.406-0.206-0.686-0.343-0.96-0.489
	c-3.772-2.003-7.526-4.043-11.326-5.992c-1.299-0.667-1.667-1.726-1.761-3.017c-0.019-0.257-0.002-0.517-0.002-0.918
	c-1.063,0.269-2.036,0.476-2.984,0.762c-3.631,1.094-7.197,2.5-10.896,3.255c-5.841,1.191-11.02,3.555-15.847,7.024
	c-3.429,2.464-7.125,4.582-10.823,6.634c-2.2,1.22-3.646,2.829-4.117,5.261c-0.909,4.699-1.742,9.413-2.654,14.111
	c-0.155,0.801-0.367,1.706-0.864,2.303c-1.278,1.531-1.95,3.259-2.32,5.18c-0.178,0.924-0.403,1.909-0.89,2.69
	c-1.41,2.263-1.532,2.641,0.038,4.824c5.104,7.104,10.089,14.284,16.394,20.464c2.781,2.726,5.653,5.131,9.116,6.883
	c3.159,1.599,6.061,0.776,8.719-0.484c-1.092-0.139-2.383-0.252-3.654-0.478c-0.979-0.175-1.921-0.614-2.902-0.717
	c-2.338-0.242-4.274-1.261-5.953-2.824c-1.813-1.688-3.732-3.294-5.35-5.157c-4.532-5.221-8.956-10.535-13.36-15.865
	c-0.723-0.874-1.204-1.978-1.662-3.034c-0.611-1.408-0.173-2.601,1.112-3.402c2.018-1.259,3.945-1.18,6.102-0.073
	c2.642,1.354,5.475,2.339,8.223,3.486c0.477,0.199,0.98,0.36,1.413,0.632c6.117,3.832,11.423,8.591,16.076,14.096
	c2.473,2.926,4.16,6.078,3.02,10.12c0.273-0.55,0.5-1.096,0.533-1.652c0.211-3.626,0.396-7.254,0.545-10.883
	c0.017-0.405-0.192-0.844-0.373-1.231c-2.147-4.621-4.837-8.913-7.89-12.985c-0.388-0.518-0.741-1.063-1.11-1.595
	c4.616,3.992,9.482,7.821,9.586,14.771c0.26-1.091,0.393-2.142,0.235-3.146c-0.506-3.227-1.244-6.42-1.661-9.656
	c-0.521-4.036-1.317-7.894-4.424-10.854c-0.36-0.343-0.61-0.8-0.978-1.294c1.601-0.257,2.418,0.654,3.089,1.646
	c0.678,1.003,1.193,2.116,1.674,2.991c0.867-0.559,1.644-1.317,2.564-1.589c1.305-0.384,2.097-1.104,2.475-2.337
	c0.328-1.068,0.518-2.182,0.899-3.229c0.42-1.152,0.991-2.251,1.493-3.374c0.38-0.849,0.89-1.667,1.105-2.557
	c0.465-1.922,0.778-3.881,1.153-5.824c0.117,0.019,0.233,0.037,0.35,0.056c0.52,3.02,0.181,5.928-1.187,8.745
	c-0.726,1.496-1.338,3.048-1.961,4.592c-0.417,1.031-0.59,2.206-1.191,3.104c-0.508,0.76-1.392,1.442-2.255,1.754
	c-1.712,0.616-2.227,0.963-2.107,2.801c0.186,2.867,0.529,5.725,0.846,8.581c0.225,2.026,0.595,3.99,1.667,5.817
	c0.732,1.246,0.493,2.671,0.021,4.066c-0.377,1.114-0.616,2.31-0.695,3.483c-0.139,2.071-0.077,4.156-0.157,6.232
	c-0.153,3.948-1.78,6.912-5.684,8.31c-0.176,0.063-0.332,0.179-0.221,0.117c0.61,4.563,1.228,8.944,1.769,13.335
	c0.239,1.94,0.441,3.899,0.442,5.85c0,2.078-0.857,3.942-1.875,5.743c-1.211,2.144-0.663,3.812,1.573,4.757
	c1.392,0.589,2.85,1.037,4.303,1.467c2.043,0.604,3.787,1.585,5.182,3.263c1.812,2.178,4.229,3.127,7.065,3.258
	c5.627,0.26,11.255,0.555,16.872,0.98c3.915,0.296,7.618,1.377,10.824,3.792c2.297,1.73,3.101,1.434,3.832-1.4
	c0.06-0.23,0.096-0.471,0.111-0.709c0.249-3.826,0.497-7.652,0.735-11.479C90.846,185.45,90.879,184.353,90.937,183.074z
	 M73.246,86.957c-0.292,0.572-0.551,1.099-0.826,1.616c-1.957,3.687-1.405,4.944,2.764,5.489c3.221,0.42,5.939,1.568,7.873,4.223
	c0.96,1.318,1.77,2.746,2.65,4.123c0.17,0.267,0.351,0.527,0.526,0.79c0.114-0.048,0.228-0.096,0.342-0.144
	c-0.349-1.588-0.586-3.209-1.063-4.757c-3.087-10.026-25.345-23.735-26.387-20.386c-0.378,1.213,0.068,2.196,1.229,2.808
	c0.989,0.521,1.952,1.094,2.96,1.574C66.588,83.852,69.878,85.379,73.246,86.957z M76.029,212.679
	c6.228,0.627,12.498,1.272,18.772,1.877c1.301,0.126,1.811-0.381,1.806-1.76c-0.008-2.354-0.086-4.707-0.149-7.061
	c-0.022-0.817-0.087-1.634-0.138-2.547c-6.815,0.568-13.475,1.124-20.291,1.692C76.029,207.496,76.029,209.998,76.029,212.679z
	 M73.89,222.692c1.911-0.789,3.716-1.535,5.836-2.41c-0.809-0.307-1.27-0.518-1.751-0.657c-1.986-0.58-2.478-1.062-2.564-3.059
	c-0.134-3.11-0.17-6.226-0.219-9.338c-0.013-0.781,0.083-1.564,0.136-2.437c-2.501-0.152-4.872-0.297-7.399-0.451
	c0.137,2.987,0.212,5.85,0.415,8.702c0.188,2.657-0.419,4.883-2.425,6.826c-1.332,1.29-2.245,3.015-3.488,4.744
	c4.926,0.591,9.475,1.137,14.265,1.712C75.699,225.034,74.835,223.915,73.89,222.692z M97.46,203.466
	c0,2.388-0.125,4.628,0.034,6.848c0.168,2.351-0.487,4.253-2.059,6.015c-1.282,1.437-2.289,3.118-3.599,4.944
	c4.939,0.589,9.463,1.128,14.274,1.701c-1.099-1.23-1.995-2.233-2.975-3.331c1.948-0.824,3.796-1.606,5.897-2.495
	c-0.732-0.332-1.174-0.65-1.655-0.73c-1.75-0.294-2.325-1.45-2.481-3.042c-0.291-2.982-0.657-5.957-0.943-8.939
	c-0.069-0.724-0.385-0.978-1.06-0.974C101.139,203.473,99.384,203.466,97.46,203.466z M88.561,99.594
	c0.077,0.006,0.154,0.013,0.231,0.019c0.081-0.335,0.198-0.666,0.235-1.007c0.335-3.018,0.636-6.041,0.995-9.056
	c0.094-0.785,0.236-1.605,0.568-2.31c0.58-1.229,1.639-1.236,2.317-0.069c0.32,0.55,0.533,1.162,0.892,1.964
	c0.49-2.2,0.928-4.163,1.403-6.295c2.252,1.107,2.453,3.431,3.848,4.986c0.533-1.481,1.055-2.885,1.542-4.301
	c0.337-0.981,0.826-1.968,0.884-2.973c0.071-1.234-13.713,8.679-13.601,10.624C88.039,93.986,88.327,96.788,88.561,99.594z
	 M81.013,97.36c-0.095,0.047-0.19,0.095-0.285,0.142c0.05,0.241,0.066,0.495,0.156,0.721c0.514,1.298,1.032,2.595,1.573,3.882
	c0.5,1.191,1.007,1.377,2.498,0.855C83.624,101.069,82.318,99.215,81.013,97.36z M91.175,93.228
	c0.262-1.929,0.525-3.858,0.788-5.788c-0.117-0.014-0.235-0.028-0.352-0.042C90.561,89.235,90.852,91.229,91.175,93.228z"/>
<g>
	<path fill="none" stroke="#000000" stroke-miterlimit="10" d="M89.687,183.652c-2.048,1.082-4.15,2.076-6.118,3.289
		c-1.539,0.948-2.752,0.737-4.154-0.259c-3.322-2.361-6.032-5.348-8.84-8.25c-1.028-1.063-1.212-2.079-0.796-3.459
		c1.129-3.744,2.423-7.47,3.153-11.297c2.947-15.457,5.717-30.947,8.498-46.436c0.115-0.642-0.125-1.545-0.539-2.049
		c-1.392-1.696-1.885-3.525-1.551-5.689c0.291-1.879,0.097-3.753-0.741-5.502c-1.069-2.233-2.147-4.461-3.25-6.678
		c-0.652-1.311-1.501-2.443-2.926-3.036c-2.59-1.076-3.173-3.186-1.552-5.532c0.263-0.381,0.533-0.757,0.844-1.199
		c-0.406-0.206-0.686-0.343-0.96-0.489c-3.772-2.003-7.526-4.043-11.326-5.992c-1.299-0.667-1.667-1.726-1.761-3.017
		c-0.019-0.257-0.002-0.517-0.002-0.918c-1.063,0.269-2.036,0.476-2.984,0.762c-3.631,1.094-7.197,2.5-10.896,3.255
		c-5.841,1.191-11.02,3.555-15.847,7.024c-3.429,2.464-7.125,4.582-10.823,6.634c-2.2,1.22-3.646,2.829-4.117,5.261
		c-0.909,4.699-1.742,9.413-2.654,14.111c-0.155,0.801-0.367,1.706-0.864,2.303c-1.278,1.531-1.95,3.259-2.32,5.18
		c-0.178,0.924-0.403,1.909-0.89,2.69c-1.41,2.263-1.532,2.641,0.038,4.824c5.104,7.104,10.089,14.284,16.394,20.464
		c2.781,2.726,5.653,5.131,9.116,6.883c3.159,1.599,6.061,0.776,8.719-0.484c-1.092-0.139-2.383-0.252-3.654-0.478
		c-0.979-0.175-1.921-0.614-2.902-0.717c-2.338-0.242-4.274-1.261-5.953-2.824c-1.813-1.688-3.732-3.294-5.35-5.157
		c-4.532-5.221-8.956-10.535-13.36-15.865c-0.723-0.874-1.204-1.978-1.662-3.034c-0.611-1.408-0.173-2.601,1.112-3.402
		c2.018-1.259,3.945-1.18,6.102-0.073c2.642,1.354,5.475,2.339,8.223,3.486c0.477,0.199,0.98,0.36,1.413,0.632
		c6.117,3.832,11.423,8.591,16.076,14.096c2.473,2.926,4.16,6.078,3.02,10.12c0.273-0.55,0.5-1.096,0.533-1.652
		c0.211-3.626,0.396-7.254,0.545-10.883c0.017-0.405-0.192-0.844-0.373-1.231c-2.147-4.621-4.837-8.913-7.89-12.985
		c-0.388-0.518-0.741-1.063-1.11-1.595c4.616,3.992,9.482,7.821,9.586,14.771c0.26-1.091,0.393-2.142,0.235-3.146
		c-0.506-3.227-1.244-6.42-1.661-9.656c-0.521-4.036-1.317-7.894-4.424-10.854c-0.36-0.343-0.61-0.8-0.978-1.294
		c1.601-0.257,2.418,0.654,3.089,1.646c0.678,1.003,1.193,2.116,1.674,2.991c0.867-0.559,1.644-1.317,2.564-1.589
		c1.305-0.384,2.097-1.104,2.475-2.337c0.328-1.068,0.518-2.182,0.899-3.229c0.42-1.152,0.991-2.251,1.493-3.374
		c0.38-0.849,0.89-1.667,1.105-2.557c0.465-1.922,0.778-3.881,1.153-5.824c0.117,0.019,0.233,0.037,0.35,0.056
		c0.52,3.02,0.181,5.928-1.187,8.745c-0.726,1.496-1.338,3.048-1.961,4.592c-0.417,1.031-0.59,2.206-1.191,3.104
		c-0.508,0.76-1.392,1.442-2.255,1.754c-1.712,0.616-2.227,0.963-2.107,2.801c0.186,2.867,0.529,5.725,0.846,8.581
		c0.225,2.026,0.595,3.99,1.667,5.817c0.732,1.246,0.493,2.671,0.021,4.066c-0.377,1.114-0.616,2.31-0.695,3.483
		c-0.139,2.071-0.077,4.156-0.157,6.232c-0.153,3.948-1.78,6.912-5.684,8.31c-0.176,0.063-0.332,0.179-0.221,0.117
		c0.3,2.241,0.601,4.438,0.895,6.614c0.633,0.196,1.296,0.584,1.973,1.212c-0.425-2.929,1.558-4.409,3.854-4.409
		c2.32,0,4.385,1.328,4.015,4.333c2.466-2.307,4.948-1.351,6.166,0.758c1.209,2.095,1.021,4.669-2.128,5.784
		c3.012,1.037,3.375,3.586,2.189,5.642c-1.26,2.183-3.729,3.324-6.394,0.769c0.902,3.426-1.211,5.161-3.696,5.162
		c-2.517-0.001-4.737-1.563-3.868-5.135c-0.398,0.396-0.797,0.707-1.192,0.938c-0.346,1.129-0.882,2.206-1.478,3.261
		c-1.211,2.144-0.663,3.812,1.573,4.757c1.392,0.589,2.85,1.037,4.303,1.467c2.043,0.604,3.787,1.585,5.182,3.263
		c1.812,2.178,4.229,3.127,7.065,3.258c5.627,0.26,11.255,0.555,16.872,0.98c3.915,0.296,7.618,1.377,10.824,3.792
		c2.297,1.73,3.101,1.434,3.832-1.4c0.06-0.23,0.096-0.471,0.111-0.709c0.249-3.826,0.497-7.652,0.735-11.479
		c0.068-1.096,0.101-2.193,0.158-3.472C90.387,183.327,90.028,183.472,89.687,183.652z"/>
	<path fill="#FF3333" stroke="#000000" stroke-miterlimit="10" d="M45.363,169.05c0.401-0.172,0.842-0.269,1.306-0.269
		c0.54,0,1.042,0.142,1.493,0.37c0.803-1.698,1.661-2.905,2.522-3.711c0.37-3.005-1.695-4.333-4.015-4.333
		c-2.296,0-4.28,1.48-3.854,4.409C43.654,166.296,44.514,167.454,45.363,169.05z"/>
	<path fill="#FF3333" stroke="#000000" stroke-miterlimit="10" d="M43.416,171.477c0.208-1.095,0.95-1.998,1.948-2.427
		c-0.849-1.596-1.709-2.754-2.549-3.533c-0.677-0.628-1.34-1.016-1.973-1.212c0.304,2.255,0.599,4.486,0.874,6.721
		c0.019,0.153,0.036,0.309,0.054,0.462C42.28,171.462,42.825,171.455,43.416,171.477z"/>
	<path fill="#FF3333" stroke="#000000" stroke-miterlimit="10" d="M44.628,174.692c-0.771-0.606-1.275-1.537-1.275-2.595
		c0-0.213,0.024-0.42,0.063-0.621c-0.591-0.021-1.135-0.015-1.646,0.011c0.214,1.789,0.388,3.592,0.388,5.388
		c0,0.861-0.153,1.685-0.397,2.482c0.395-0.23,0.794-0.542,1.192-0.938C43.209,177.361,43.753,176.117,44.628,174.692z"/>
	<path fill="#FF3333" stroke="#000000" stroke-miterlimit="10" d="M46.669,175.413c-0.774,0-1.477-0.276-2.041-0.721
		c-0.875,1.425-1.418,2.669-1.676,3.728c-0.869,3.572,1.352,5.134,3.868,5.135c2.485-0.001,4.598-1.736,3.696-5.162
		c-0.789-0.757-1.595-1.854-2.392-3.329C47.684,175.28,47.194,175.413,46.669,175.413z"/>
	<path fill="#FF3333" stroke="#000000" stroke-miterlimit="10" d="M49.942,172.522c-0.145,1.121-0.842,2.061-1.818,2.541
		c0.797,1.476,1.603,2.572,2.392,3.329c2.665,2.556,5.134,1.414,6.394-0.769c1.186-2.056,0.822-4.604-2.189-5.642
		C53.558,172.395,51.998,172.609,49.942,172.522z"/>
	<path fill="#FF3333" stroke="#000000" stroke-miterlimit="10" d="M48.162,169.151c1.078,0.547,1.824,1.654,1.824,2.946
		c0,0.146-0.025,0.284-0.043,0.425c2.055,0.087,3.616-0.128,4.779-0.54c3.149-1.115,3.338-3.689,2.128-5.784
		c-1.217-2.108-3.699-3.064-6.166-0.758C49.822,166.246,48.964,167.453,48.162,169.151z"/>
	<path stroke="#000000" stroke-miterlimit="10" d="M46.669,175.413c0.525,0,1.015-0.133,1.456-0.35
		c0.976-0.48,1.673-1.42,1.818-2.541c0.018-0.141,0.043-0.279,0.043-0.425c0-1.292-0.746-2.399-1.824-2.946
		c-0.451-0.229-0.953-0.37-1.493-0.37c-0.464,0-0.905,0.097-1.306,0.269c-0.998,0.429-1.74,1.332-1.948,2.427
		c-0.038,0.201-0.063,0.408-0.063,0.621c0,1.058,0.504,1.988,1.275,2.595C45.192,175.137,45.895,175.413,46.669,175.413z"/>
</g>
<g id="Layer_2">
	<g>
		<radialGradient id="SVGID_1_" cx="48.6909" cy="50.8496" r="14.9304" gradientUnits="userSpaceOnUse">
			<stop  offset="0.6398" style="stop-color:#BC5EAF"/>
			<stop  offset="0.7825" style="stop-color:#BA5DAD"/>
			<stop  offset="0.8339" style="stop-color:#B35AA7"/>
			<stop  offset="0.8705" style="stop-color:#A8549C"/>
			<stop  offset="0.9002" style="stop-color:#974B8C"/>
			<stop  offset="0.9256" style="stop-color:#814078"/>
			<stop  offset="0.9481" style="stop-color:#65335E"/>
			<stop  offset="0.9684" style="stop-color:#452240"/>
			<stop  offset="0.9865" style="stop-color:#21101E"/>
			<stop  offset="1" style="stop-color:#000000"/>
		</radialGradient>
		<radialGradient id="SVGID_2_" cx="48.6909" cy="50.8496" r="15.0554" gradientUnits="userSpaceOnUse">
			<stop  offset="0" style="stop-color:#660066"/>
			<stop  offset="0.2081" style="stop-color:#560056"/>
			<stop  offset="0.6114" style="stop-color:#2D002D"/>
			<stop  offset="1" style="stop-color:#000000"/>
		</radialGradient>
		<path fill="url(#SVGID_1_)" stroke="url(#SVGID_2_)" stroke-width="0.25" stroke-miterlimit="10" d="M63.216,50.474
			c-1.915,1.126-3.69,4.636-6.71,3.149c-3.021-1.487-6.553-2.658-8.235-4.2c-1.682-1.541-3.858-5.244-3.858-5.244
			s0.202-1.653,0.054-2.195c-0.148-0.542-0.595-1.976-1.802-3.377c-1.208-1.401-1.371-2.761-3.715-1.88
			c-2.343,0.881-4.4,2.609-4.849,3.72c-0.449,1.111-1.078,3.475-0.769,4.714c0.309,1.239-0.164,3.094,1.724,4.538
			c1.887,1.445,2.661,2.148,3.652,1.731c0.992-0.416,1.684-0.7,3.394-0.07c1.709,0.629,2.299,0.803,3.921,2.157
			c1.623,1.353,2.29,2.599,4.159,4.207c1.869,1.608,3.419,4.248,4.909,4.472c1.489,0.223,3.178-0.458,3.712,0.465
			c0.534,0.923,2.018,2.579,2.518,2.589c0.501,0.009,2.872-3.356,2.81-5.657C64.07,57.292,63.216,50.474,63.216,50.474z"/>
		
			<radialGradient id="SVGID_3_" cx="41.6172" cy="50.8418" r="4.6869" gradientTransform="matrix(1.1647 0.1777 -0.5379 2.7367 17.2897 -103.1137)" gradientUnits="userSpaceOnUse">
			<stop  offset="0" style="stop-color:#660066;stop-opacity:0"/>
			<stop  offset="0.5" style="stop-color:#660066"/>
			<stop  offset="1" style="stop-color:#660066;stop-opacity:0"/>
		</radialGradient>
		<path fill="url(#SVGID_3_)" d="M43.065,44.852c-1.171,3.814-4.204,6.268-6.775,5.478c-2.57-0.789-3.705-4.521-2.533-8.336
			c1.171-3.815,4.204-6.267,6.775-5.478C43.102,37.304,44.236,41.036,43.065,44.852z"/>
		
			<radialGradient id="SVGID_4_" cx="37.8179" cy="42.8887" r="4.6871" gradientTransform="matrix(0.9848 0.1736 -0.3473 1.9696 15.4696 -48.1525)" gradientUnits="userSpaceOnUse">
			<stop  offset="0" style="stop-color:#FFFFA1"/>
			<stop  offset="0.2951" style="stop-color:#FDFDA0"/>
			<stop  offset="0.4327" style="stop-color:#F5F59B"/>
			<stop  offset="0.5376" style="stop-color:#E9E993"/>
			<stop  offset="0.626" style="stop-color:#D6D687"/>
			<stop  offset="0.704" style="stop-color:#BEBE78"/>
			<stop  offset="0.7747" style="stop-color:#A1A166"/>
			<stop  offset="0.8398" style="stop-color:#7E7E50"/>
			<stop  offset="0.9007" style="stop-color:#565636"/>
			<stop  offset="0.9559" style="stop-color:#29291A"/>
			<stop  offset="1" style="stop-color:#000000"/>
		</radialGradient>
		<path fill="url(#SVGID_4_)" stroke="#000000" stroke-width="0.25" stroke-miterlimit="10" d="M41.781,44.105
			c-0.838,2.729-3.292,4.397-5.481,3.726c-2.188-0.672-3.283-3.43-2.446-6.159c0.839-2.729,3.292-4.397,5.481-3.725
			C41.524,38.619,42.619,41.376,41.781,44.105z"/>
		
			<radialGradient id="SVGID_5_" cx="43.6445" cy="36.0664" r="1.7388" gradientTransform="matrix(0.9868 -0.1621 0.1621 0.9868 -11.8554 13.6138)" gradientUnits="userSpaceOnUse">
			<stop  offset="0" style="stop-color:#66CC99"/>
			<stop  offset="0.3792" style="stop-color:#65CA98"/>
			<stop  offset="0.5159" style="stop-color:#62C392"/>
			<stop  offset="0.6133" style="stop-color:#5CB88A"/>
			<stop  offset="0.6921" style="stop-color:#53A77D"/>
			<stop  offset="0.7595" style="stop-color:#48916C"/>
			<stop  offset="0.8193" style="stop-color:#3B7558"/>
			<stop  offset="0.8733" style="stop-color:#2A5540"/>
			<stop  offset="0.9229" style="stop-color:#182F23"/>
			<stop  offset="0.9672" style="stop-color:#030605"/>
			<stop  offset="0.9731" style="stop-color:#000000"/>
		</radialGradient>
		<path fill="url(#SVGID_5_)" stroke="#000000" stroke-width="0.25" stroke-miterlimit="10" d="M38.583,42.336
			c-0.143,1.05-0.941,1.807-1.782,1.693c-0.842-0.114-1.409-1.058-1.266-2.107s0.94-1.808,1.783-1.693
			C38.158,40.343,38.725,41.286,38.583,42.336z"/>
		
			<ellipse transform="matrix(0.9909 0.1346 -0.1346 0.9909 5.9899 -4.5773)" stroke="#000000" stroke-width="0.25" stroke-miterlimit="10" cx="36.853" cy="42.019" rx="0.789" ry="0.984"/>
	</g>
	<g>
		<radialGradient id="SVGID_6_" cx="68.8159" cy="34.7407" r="12.2882" gradientUnits="userSpaceOnUse">
			<stop  offset="0.6398" style="stop-color:#BC5EAF"/>
			<stop  offset="0.7825" style="stop-color:#BA5DAD"/>
			<stop  offset="0.8339" style="stop-color:#B35AA7"/>
			<stop  offset="0.8705" style="stop-color:#A8549C"/>
			<stop  offset="0.9002" style="stop-color:#974B8C"/>
			<stop  offset="0.9256" style="stop-color:#814078"/>
			<stop  offset="0.9481" style="stop-color:#65335E"/>
			<stop  offset="0.9684" style="stop-color:#452240"/>
			<stop  offset="0.9865" style="stop-color:#21101E"/>
			<stop  offset="1" style="stop-color:#000000"/>
		</radialGradient>
		<radialGradient id="SVGID_7_" cx="68.8159" cy="34.7407" r="12.413" gradientUnits="userSpaceOnUse">
			<stop  offset="0" style="stop-color:#660066"/>
			<stop  offset="0.2081" style="stop-color:#560056"/>
			<stop  offset="0.6114" style="stop-color:#2D002D"/>
			<stop  offset="1" style="stop-color:#000000"/>
		</radialGradient>
		<path fill="url(#SVGID_6_)" stroke="url(#SVGID_7_)" stroke-width="0.25" stroke-miterlimit="10" d="M66.332,47.648
			c-1.89-0.752-3.228-0.541-4.121-2.885c-0.892-2.346-1.119-4.816-2.249-8.291c-1.13-3.475-2.711-6.643-2.614-9.709
			c0.098-3.066,0.407-4.913,1.22-4.9c0.812,0.012,1.623-0.667,2.752,0.569c1.129,1.235,1.379,2.479,2.99,4.968
			c1.61,2.489,2.107,4.574,3.79,4.724c1.684,0.149,3.613,0.524,5.445,0.247c1.834-0.278,2.477,0.136,3.812,0.493
			c1.335,0.356,4.663-0.047,1.8,3.955c-2.861,4.003-7.635,9.526-9.118,10.403c-1.481,0.876-3.452,0.49-3.452,0.49"/>
		<radialGradient id="SVGID_8_" cx="54.5015" cy="30.8086" r="9.0771" gradientUnits="userSpaceOnUse">
			<stop  offset="0.6398" style="stop-color:#BC5EAF"/>
			<stop  offset="0.7825" style="stop-color:#BA5DAD"/>
			<stop  offset="0.8339" style="stop-color:#B35AA7"/>
			<stop  offset="0.8705" style="stop-color:#A8549C"/>
			<stop  offset="0.9002" style="stop-color:#974B8C"/>
			<stop  offset="0.9256" style="stop-color:#814078"/>
			<stop  offset="0.9481" style="stop-color:#65335E"/>
			<stop  offset="0.9684" style="stop-color:#452240"/>
			<stop  offset="0.9865" style="stop-color:#21101E"/>
			<stop  offset="1" style="stop-color:#000000"/>
		</radialGradient>
		<radialGradient id="SVGID_9_" cx="54.4995" cy="30.8086" r="9.203" gradientUnits="userSpaceOnUse">
			<stop  offset="0" style="stop-color:#660066"/>
			<stop  offset="0.2081" style="stop-color:#560056"/>
			<stop  offset="0.6114" style="stop-color:#2D002D"/>
			<stop  offset="1" style="stop-color:#000000"/>
		</radialGradient>
		<path fill="url(#SVGID_8_)" stroke="url(#SVGID_9_)" stroke-width="0.25" stroke-miterlimit="10" d="M45.77,28.36
			c0.548-1.288,0.523-2.444,1.64-3.565c1.118-1.122,0.569-2.183,2.488-1.99c1.92,0.192,4.437,0.429,5.144,0.168
			c0.706-0.261,0.647-0.426,1.191-1.023c0.544-0.597,0.941-0.356,2.128-0.529c1.187-0.174,3.182,0.701,3.764,1.646
			c0.582,0.943,1.575,2.352,0.859,3.335c-1.477,2.028-1.674,2.945-3.018,5.529c-1.344,2.583-0.591,3.309-2.005,6.154
			c-0.984,1.979-1.874,2.516-4.28,1.879c-2.406-0.636-2.039-0.52-3.5-1.651c-1.611-1.247-2.661-3.294-3.282-4.939
			C46.278,31.727,45.77,28.36,45.77,28.36z"/>
		
			<radialGradient id="SVGID_10_" cx="59.9917" cy="34.582" r="5.4509" gradientTransform="matrix(1.0867 -0.4587 1.113 2.6404 -51.4853 -31.5274)" gradientUnits="userSpaceOnUse">
			<stop  offset="0" style="stop-color:#660066;stop-opacity:0"/>
			<stop  offset="0.5" style="stop-color:#660066"/>
			<stop  offset="1" style="stop-color:#660066;stop-opacity:0"/>
		</radialGradient>
		<path fill="url(#SVGID_10_)" d="M57.069,30.219c1.906,4.535,1.271,9.127-1.419,10.258c-2.69,1.13-6.417-1.629-8.322-6.163
			c-1.906-4.536-1.27-9.128,1.419-10.259C51.438,22.925,55.164,25.685,57.069,30.219z"/>
		
			<radialGradient id="SVGID_11_" cx="51.436" cy="32.4731" r="5.4511" gradientTransform="matrix(0.9397 -0.342 0.684 1.8794 -19.111 -10.9642)" gradientUnits="userSpaceOnUse">
			<stop  offset="0" style="stop-color:#FFFFA1"/>
			<stop  offset="0.2951" style="stop-color:#FDFDA0"/>
			<stop  offset="0.4327" style="stop-color:#F5F59B"/>
			<stop  offset="0.5376" style="stop-color:#E9E993"/>
			<stop  offset="0.626" style="stop-color:#D6D687"/>
			<stop  offset="0.704" style="stop-color:#BEBE78"/>
			<stop  offset="0.7747" style="stop-color:#A1A166"/>
			<stop  offset="0.8398" style="stop-color:#7E7E50"/>
			<stop  offset="0.9007" style="stop-color:#565636"/>
			<stop  offset="0.9559" style="stop-color:#29291A"/>
			<stop  offset="1" style="stop-color:#000000"/>
		</radialGradient>
		<path fill="url(#SVGID_11_)" stroke="#000000" stroke-width="0.25" stroke-miterlimit="10" d="M55.647,30.946
			c1.18,3.257,0.252,6.58-2.074,7.423c-2.325,0.843-5.169-1.113-6.349-4.37c-1.18-3.257-0.251-6.58,2.074-7.423
			C51.624,25.734,54.466,27.689,55.647,30.946z"/>
		<radialGradient id="SVGID_12_" cx="50.1704" cy="33.4858" r="2.3789" gradientUnits="userSpaceOnUse">
			<stop  offset="0" style="stop-color:#66CC99"/>
			<stop  offset="0.3792" style="stop-color:#65CA98"/>
			<stop  offset="0.5159" style="stop-color:#62C392"/>
			<stop  offset="0.6133" style="stop-color:#5CB88A"/>
			<stop  offset="0.6921" style="stop-color:#53A77D"/>
			<stop  offset="0.7595" style="stop-color:#48916C"/>
			<stop  offset="0.8193" style="stop-color:#3B7558"/>
			<stop  offset="0.8733" style="stop-color:#2A5540"/>
			<stop  offset="0.9229" style="stop-color:#182F23"/>
			<stop  offset="0.9672" style="stop-color:#030605"/>
			<stop  offset="0.9731" style="stop-color:#000000"/>
		</radialGradient>
		<path fill="url(#SVGID_12_)" stroke="#000000" stroke-width="0.25" stroke-miterlimit="10" d="M52.008,32.82
			c0.515,1.421,0.11,2.871-0.905,3.239c-1.015,0.368-2.255-0.486-2.77-1.907c-0.516-1.421-0.111-2.872,0.904-3.239
			C50.252,30.544,51.493,31.398,52.008,32.82z"/>
		
			<ellipse transform="matrix(0.9403 -0.3403 0.3403 0.9403 -8.4157 18.9844)" stroke="#000000" stroke-width="0.25" stroke-miterlimit="10" cx="49.917" cy="33.486" rx="0.928" ry="1.299"/>
	</g>
	<g>
		<g>
			<radialGradient id="SVGID_13_" cx="80.2734" cy="24.3667" r="14.0645" gradientUnits="userSpaceOnUse">
				<stop  offset="0.6398" style="stop-color:#BC5EAF"/>
				<stop  offset="0.7825" style="stop-color:#BA5DAD"/>
				<stop  offset="0.8339" style="stop-color:#B35AA7"/>
				<stop  offset="0.8705" style="stop-color:#A8549C"/>
				<stop  offset="0.9002" style="stop-color:#974B8C"/>
				<stop  offset="0.9256" style="stop-color:#814078"/>
				<stop  offset="0.9481" style="stop-color:#65335E"/>
				<stop  offset="0.9684" style="stop-color:#452240"/>
				<stop  offset="0.9865" style="stop-color:#21101E"/>
				<stop  offset="1" style="stop-color:#000000"/>
			</radialGradient>
			<radialGradient id="SVGID_14_" cx="80.2764" cy="24.3667" r="14.1783" gradientUnits="userSpaceOnUse">
				<stop  offset="0" style="stop-color:#660066"/>
				<stop  offset="0.2081" style="stop-color:#560056"/>
				<stop  offset="0.6114" style="stop-color:#2D002D"/>
				<stop  offset="1" style="stop-color:#000000"/>
			</radialGradient>
			<path fill="url(#SVGID_13_)" stroke="url(#SVGID_14_)" stroke-width="0.25" stroke-miterlimit="10" d="M73.051,38.887
				c4.427-2.892,6.792-3.989,7.616-7.226c0.824-3.236,1.659-8.577,1.185-9.492c-0.474-0.914,0.414-1.554-0.714-1.096
				c-1.128,0.458-0.91,1.047-2.451,0.992c-1.54-0.056-2.716-0.619-3.844-1.832c-1.128-1.213-1.501-3.909-1.446-5.58
				c0.057-1.671,1.401-5.259,2.68-6.274c1.279-1.014,2.674-2.605,3.744-2.544c1.07,0.06,1.919,0.713,2.807,1.961
				c0.889,1.249,2.034,3.304,2.337,4.726c0.302,1.423-0.187,3.782-0.315,4.914c-0.128,1.131,0.753,1.523,0.868,2.997
				s2.278,5.856,1.943,7.588c-0.334,1.732,0.79-0.687-1.489,4.913c-2.28,5.599-6.561,10.669-9.277,9.884
				c-2.716-0.785-3.643-3.755-3.643-3.755"/>
			
				<radialGradient id="SVGID_15_" cx="95.1597" cy="-4.7192" r="5.6664" gradientTransform="matrix(1.0057 0.3772 -0.8548 2.41 -21.1268 -10.5961)" gradientUnits="userSpaceOnUse">
				<stop  offset="0" style="stop-color:#660066;stop-opacity:0"/>
				<stop  offset="0.5" style="stop-color:#660066"/>
				<stop  offset="1" style="stop-color:#660066;stop-opacity:0"/>
			</radialGradient>
			<path fill="url(#SVGID_15_)" d="M83.531,15.438c-1.33,4.333-4.612,7.171-7.33,6.336s-3.843-5.025-2.513-9.359
				c1.331-4.333,4.613-7.17,7.331-6.335S84.862,11.104,83.531,15.438z"/>
			
				<radialGradient id="SVGID_16_" cx="78.6626" cy="13.6328" r="4.9652" gradientTransform="matrix(0.9397 0.342 -0.684 1.8794 14.0693 -38.8927)" gradientUnits="userSpaceOnUse">
				<stop  offset="0" style="stop-color:#FFFFA1"/>
				<stop  offset="0.2951" style="stop-color:#FDFDA0"/>
				<stop  offset="0.4327" style="stop-color:#F5F59B"/>
				<stop  offset="0.5376" style="stop-color:#E9E993"/>
				<stop  offset="0.626" style="stop-color:#D6D687"/>
				<stop  offset="0.704" style="stop-color:#BEBE78"/>
				<stop  offset="0.7747" style="stop-color:#A1A166"/>
				<stop  offset="0.8398" style="stop-color:#7E7E50"/>
				<stop  offset="0.9007" style="stop-color:#565636"/>
				<stop  offset="0.9559" style="stop-color:#29291A"/>
				<stop  offset="1" style="stop-color:#000000"/>
			</radialGradient>
			<path fill="url(#SVGID_16_)" stroke="#000000" stroke-width="0.25" stroke-miterlimit="10" d="M82.68,14.866
				c-0.912,2.969-3.45,4.824-5.668,4.143c-2.219-0.681-3.277-3.64-2.367-6.609c0.912-2.969,3.45-4.824,5.668-4.143
				C82.532,8.938,83.591,11.897,82.68,14.866z"/>
			<radialGradient id="SVGID_17_" cx="77.9028" cy="13.127" r="1.7336" gradientUnits="userSpaceOnUse">
				<stop  offset="0" style="stop-color:#66CC99"/>
				<stop  offset="0.3792" style="stop-color:#65CA98"/>
				<stop  offset="0.5159" style="stop-color:#62C392"/>
				<stop  offset="0.6133" style="stop-color:#5CB88A"/>
				<stop  offset="0.6921" style="stop-color:#53A77D"/>
				<stop  offset="0.7595" style="stop-color:#48916C"/>
				<stop  offset="0.8193" style="stop-color:#3B7558"/>
				<stop  offset="0.8733" style="stop-color:#2A5540"/>
				<stop  offset="0.9229" style="stop-color:#182F23"/>
				<stop  offset="0.9672" style="stop-color:#030605"/>
				<stop  offset="0.9731" style="stop-color:#000000"/>
			</radialGradient>
			<path fill="url(#SVGID_17_)" stroke="#000000" stroke-width="0.25" stroke-miterlimit="10" d="M79.305,13.557
				c-0.317,1.038-1.204,1.685-1.978,1.447c-0.774-0.238-1.145-1.271-0.827-2.309c0.318-1.037,1.205-1.684,1.979-1.446
				C79.254,11.487,79.624,12.521,79.305,13.557z"/>
		</g>
		
			<ellipse transform="matrix(0.956 0.2933 -0.2933 0.956 7.2744 -22.268)" stroke="#000000" stroke-width="0.25" stroke-miterlimit="10" cx="77.903" cy="13.127" rx="0.637" ry="0.852"/>
	</g>
	<radialGradient id="SVGID_18_" cx="90.5913" cy="63.8369" r="31.8615" gradientUnits="userSpaceOnUse">
		<stop  offset="0.6398" style="stop-color:#BC5EAF"/>
		<stop  offset="0.7825" style="stop-color:#BA5DAD"/>
		<stop  offset="0.8339" style="stop-color:#B35AA7"/>
		<stop  offset="0.8705" style="stop-color:#A8549C"/>
		<stop  offset="0.9002" style="stop-color:#974B8C"/>
		<stop  offset="0.9256" style="stop-color:#814078"/>
		<stop  offset="0.9481" style="stop-color:#65335E"/>
		<stop  offset="0.9684" style="stop-color:#452240"/>
		<stop  offset="0.9865" style="stop-color:#21101E"/>
		<stop  offset="1" style="stop-color:#000000"/>
	</radialGradient>
	<radialGradient id="SVGID_19_" cx="90.5913" cy="63.8545" r="31.9952" gradientUnits="userSpaceOnUse">
		<stop  offset="0" style="stop-color:#660066"/>
		<stop  offset="0.2081" style="stop-color:#560056"/>
		<stop  offset="0.6114" style="stop-color:#2D002D"/>
		<stop  offset="1" style="stop-color:#000000"/>
	</radialGradient>
	<path fill="url(#SVGID_18_)" stroke="url(#SVGID_19_)" stroke-width="0.25" stroke-miterlimit="10" d="M120.881,59.594
		c-0.512-0.734-2.529-2.08-3.485-2.937c-0.955-0.856-1.374-1.903-2.275-3.587c-0.901-1.685-3.221-2.352-4.106-3.119
		c-0.886-0.767-2.579,0.437-3.832,0.898s-2.973,0.912-5.939,0.655c-0.767-0.066-1.259-0.133-1.588-0.216
		c-1.055-3.934-2.349-6.914-3.006-7.601c-0.876-0.915-4.466-8.449-9.209-10.091c-4.742-1.641-7.369-1.452-7.369-1.452
		c-6.365,0.179-12.416,4.285-14.758,9.58c-2.341,5.297-4.368,10.784-5.229,15.884c-0.86,5.099-2.072,11.98-1.232,15.659
		c0.763,3.337-0.289,2.97,1.272,5.648c0.267,0.498,0.58,1.038,0.905,1.617c0.978,1.743,13.655,7.742,14.531,9.579
		c0.876,1.838,0.175,3.851-0.862,5.426c0,0,16.831-0.081,17.878-0.01c-0.419-0.197-1.795-3.556-1.883-5.065
		c-0.092-1.575,9.037-8.239,10.943-9.121c1.907-0.882,0.523-3.568,0.851-4.857c0.028-0.114,0.003-0.228-0.064-0.343
		c-0.047-2.976-0.387-8.393-0.876-13.313c0.296-1.132,0.051-0.86,0.798-1.62c0.86-0.875,1.65-0.552,3.112-1.814
		c1.462-1.263,2.221-1.923,3.769-2.941c1.546-1.017,2.525-0.115,2.496,1.599c-0.03,1.777-0.53,2.507-0.516,3.907
		c0.014,1.4-0.301,1.972-0.301,3.057c0,1.06,0.354,0.944,1.081,2.971c0.726,2.027,0.499,1.736,1.974,1.629
		c1.476-0.105,0.242-0.279,1.173-0.238c0.929,0.04,5.099-1.566,5.489-2.53c0.392-0.965,0.879-1.282,1.76-2.904
		C123.262,62.32,121.391,60.327,120.881,59.594z"/>
	<radialGradient id="SVGID_20_" cx="92.604" cy="95.5317" r="0.0194" gradientUnits="userSpaceOnUse">
		<stop  offset="0" style="stop-color:#BC5EAF"/>
		<stop  offset="0.3962" style="stop-color:#BA5DAD"/>
		<stop  offset="0.5389" style="stop-color:#B35AA7"/>
		<stop  offset="0.6406" style="stop-color:#A8549C"/>
		<stop  offset="0.7229" style="stop-color:#974B8C"/>
		<stop  offset="0.7934" style="stop-color:#814078"/>
		<stop  offset="0.8558" style="stop-color:#65335E"/>
		<stop  offset="0.9122" style="stop-color:#452240"/>
		<stop  offset="0.9624" style="stop-color:#21101E"/>
		<stop  offset="1" style="stop-color:#000000"/>
	</radialGradient>
	<radialGradient id="SVGID_21_" cx="92.3418" cy="95.5098" r="0.312" gradientUnits="userSpaceOnUse">
		<stop  offset="0" style="stop-color:#660066"/>
		<stop  offset="0.2081" style="stop-color:#560056"/>
		<stop  offset="0.6114" style="stop-color:#2D002D"/>
		<stop  offset="1" style="stop-color:#000000"/>
	</radialGradient>
	<path fill="url(#SVGID_20_)" stroke="url(#SVGID_21_)" stroke-width="0.25" stroke-miterlimit="10" d="M92.577,95.526
		c0.018,0.008,0.035,0.014,0.049,0.01C92.64,95.532,92.621,95.529,92.577,95.526z"/>
	
		<radialGradient id="SVGID_22_" cx="136.0376" cy="51.2397" r="4.7707" gradientTransform="matrix(-0.4875 -0.8749 2.004 -1.1923 80.8073 244.6793)" gradientUnits="userSpaceOnUse">
		<stop  offset="0" style="stop-color:#660066;stop-opacity:0"/>
		<stop  offset="0.5" style="stop-color:#660066"/>
		<stop  offset="1" style="stop-color:#660066;stop-opacity:0"/>
	</radialGradient>
	<path fill="url(#SVGID_22_)" d="M114.791,61.198c2.806-1.984,6.15-2.081,7.467-0.217c1.318,1.864,0.111,4.983-2.696,6.968
		c-2.806,1.983-6.149,2.079-7.468,0.217C110.777,66.301,111.984,63.182,114.791,61.198z"/>
	
		<radialGradient id="SVGID_23_" cx="117.2983" cy="64.9619" r="3.9353" gradientTransform="matrix(-0.5 -0.866 1.7321 -1 63.4302 231.5071)" gradientUnits="userSpaceOnUse">
		<stop  offset="0" style="stop-color:#FFFFA1"/>
		<stop  offset="0.2951" style="stop-color:#FDFDA0"/>
		<stop  offset="0.4327" style="stop-color:#F5F59B"/>
		<stop  offset="0.5376" style="stop-color:#E9E993"/>
		<stop  offset="0.626" style="stop-color:#D6D687"/>
		<stop  offset="0.704" style="stop-color:#BEBE78"/>
		<stop  offset="0.7747" style="stop-color:#A1A166"/>
		<stop  offset="0.8398" style="stop-color:#7E7E50"/>
		<stop  offset="0.9007" style="stop-color:#565636"/>
		<stop  offset="0.9559" style="stop-color:#29291A"/>
		<stop  offset="1" style="stop-color:#000000"/>
	</radialGradient>
	<path fill="url(#SVGID_23_)" stroke="#000000" stroke-width="0.25" stroke-miterlimit="10" d="M115.33,62.177
		c1.983-1.402,4.473-1.292,5.56,0.246c1.087,1.537,0.36,3.92-1.624,5.323c-1.983,1.401-4.474,1.291-5.56-0.245
		C112.62,65.963,113.346,63.58,115.33,62.177z"/>
	<radialGradient id="SVGID_24_" cx="117.8042" cy="65.4678" r="1.8329" gradientUnits="userSpaceOnUse">
		<stop  offset="0" style="stop-color:#66CC99"/>
		<stop  offset="0.3792" style="stop-color:#65CA98"/>
		<stop  offset="0.5159" style="stop-color:#62C392"/>
		<stop  offset="0.6133" style="stop-color:#5CB88A"/>
		<stop  offset="0.6921" style="stop-color:#53A77D"/>
		<stop  offset="0.7595" style="stop-color:#48916C"/>
		<stop  offset="0.8193" style="stop-color:#3B7558"/>
		<stop  offset="0.8733" style="stop-color:#2A5540"/>
		<stop  offset="0.9229" style="stop-color:#182F23"/>
		<stop  offset="0.9672" style="stop-color:#030605"/>
		<stop  offset="0.9731" style="stop-color:#000000"/>
	</radialGradient>
	<path fill="url(#SVGID_24_)" stroke="#000000" stroke-width="0.25" stroke-miterlimit="10" d="M116.887,64.17
		c0.925-0.652,2.083-0.601,2.59,0.115c0.507,0.717,0.168,1.826-0.756,2.479c-0.923,0.653-2.083,0.601-2.59-0.114
		C115.625,65.934,115.963,64.824,116.887,64.17z"/>
	<g>
		<radialGradient id="SVGID_25_" cx="97.7383" cy="26.292" r="15.0031" gradientUnits="userSpaceOnUse">
			<stop  offset="0.6398" style="stop-color:#BC5EAF"/>
			<stop  offset="0.7825" style="stop-color:#BA5DAD"/>
			<stop  offset="0.8339" style="stop-color:#B35AA7"/>
			<stop  offset="0.8705" style="stop-color:#A8549C"/>
			<stop  offset="0.9002" style="stop-color:#974B8C"/>
			<stop  offset="0.9256" style="stop-color:#814078"/>
			<stop  offset="0.9481" style="stop-color:#65335E"/>
			<stop  offset="0.9684" style="stop-color:#452240"/>
			<stop  offset="0.9865" style="stop-color:#21101E"/>
			<stop  offset="1" style="stop-color:#000000"/>
		</radialGradient>
		<radialGradient id="SVGID_26_" cx="97.7383" cy="26.292" r="15.124" gradientUnits="userSpaceOnUse">
			<stop  offset="0" style="stop-color:#660066"/>
			<stop  offset="0.2081" style="stop-color:#560056"/>
			<stop  offset="0.6114" style="stop-color:#2D002D"/>
			<stop  offset="1" style="stop-color:#000000"/>
		</radialGradient>
		<path fill="url(#SVGID_25_)" stroke="url(#SVGID_26_)" stroke-width="0.25" stroke-miterlimit="10" d="M97.99,28.402
			c0.084,1.352,0.258,1.857-2.231,2.605c-2.488,0.747-4.748,0.925-5.593,1.613s-1.431,0.587-2.429,1.821
			c-0.999,1.233-0.945,1.581,0.239,2.376c1.183,0.796,3.497,2.754,4.014,3.774c0.518,1.022,0.504,1.588,1.877,3.046
			c1.374,1.457,1.681,1.042,2.094,0.291c0.413-0.751,4.4-4.201,4.891-5.223c0.492-1.022,2.638-3.21,3.239-4.719
			c0.6-1.507,1.204-3.399,1.115-4.972c-0.089-1.574-0.264-1.382,0.112-1.876c0.376-0.495,1.389-1.375,1.866-3.166
			c0.478-1.791,1.61-5.169,1.154-7.518c-0.456-2.35-0.34-4.316-2.879-6.657c-2.561-2.363-4.993-1.941-6.595-1.415
			c-1.603,0.525-3.086,2.261-3.876,3.231c-0.79,0.969-1.637,3.595-1.687,4.841c-0.051,1.245-0.318,3.922,0.247,5.407
			c0.563,1.485,0.931,4.336,1.635,4.807C95.885,27.141,97.99,28.402,97.99,28.402z"/>
		<radialGradient id="SVGID_27_" cx="97.6138" cy="26.4009" r="15.1137" gradientUnits="userSpaceOnUse">
			<stop  offset="0.6398" style="stop-color:#BC5EAF"/>
			<stop  offset="0.7825" style="stop-color:#BA5DAD"/>
			<stop  offset="0.8339" style="stop-color:#B35AA7"/>
			<stop  offset="0.8705" style="stop-color:#A8549C"/>
			<stop  offset="0.9002" style="stop-color:#974B8C"/>
			<stop  offset="0.9256" style="stop-color:#814078"/>
			<stop  offset="0.9481" style="stop-color:#65335E"/>
			<stop  offset="0.9684" style="stop-color:#452240"/>
			<stop  offset="0.9865" style="stop-color:#21101E"/>
			<stop  offset="1" style="stop-color:#000000"/>
		</radialGradient>
		<path fill="url(#SVGID_27_)" d="M97.99,28.402c0.084,1.352,0.258,1.857-2.231,2.605c-2.488,0.747-4.748,0.925-5.593,1.613
			s-1.494,0.508-2.492,1.742c-0.999,1.234-1.308,1.875-0.125,2.671s3.627,2.866,4.145,3.887c0.518,1.021,0.454,1.603,1.828,3.061
			c1.375,1.457,2.079,0.75,2.492,0s4.075-4.409,4.837-5.274c0.751-0.851,2.638-3.21,3.239-4.719c0.6-1.507,1.204-3.399,1.115-4.972
			c-0.089-1.574-0.264-1.382,0.112-1.876c0.376-0.495,1.389-1.375,1.866-3.166c0.478-1.791,1.61-5.169,1.154-7.518
			c-0.456-2.35-0.34-4.316-2.879-6.657c-2.561-2.363-4.993-1.941-6.595-1.415c-1.603,0.525-3.086,2.261-3.876,3.231
			c-0.79,0.969-1.637,3.595-1.687,4.841c-0.051,1.245-0.318,3.922,0.247,5.407c0.563,1.485,0.931,4.336,1.635,4.807
			C95.885,27.141,97.99,28.402,97.99,28.402z"/>
		<linearGradient id="SVGID_28_" gradientUnits="userSpaceOnUse" x1="86.4146" y1="36.8789" x2="109.4828" y2="13.8107">
			<stop  offset="0" style="stop-color:#000000"/>
			<stop  offset="0.5269" style="stop-color:#000000;stop-opacity:0"/>
		</linearGradient>
		<path opacity="0.5" fill="url(#SVGID_28_)" d="M97.99,28.402c0.084,1.352,0.258,1.857-2.231,2.605
			c-2.488,0.747-4.748,0.925-5.593,1.613s-1.609,0.687-2.607,1.92c-0.999,1.234-1.069,1.902,0.115,2.697
			c1.183,0.795,3.334,2.457,3.851,3.478c0.518,1.021,0.693,1.879,2.067,3.336c1.374,1.458,2.058,0.599,2.47-0.152
			c0.414-0.75,4.298-4.172,4.789-5.194c0.492-1.022,2.638-3.21,3.239-4.719c0.6-1.507,1.204-3.399,1.115-4.972
			c-0.089-1.574-0.264-1.382,0.112-1.876c0.376-0.495,1.389-1.375,1.866-3.166c0.478-1.791,1.61-5.169,1.154-7.518
			c-0.456-2.35-0.34-4.316-2.879-6.657c-2.561-2.363-4.993-1.941-6.595-1.415c-1.603,0.525-3.086,2.261-3.876,3.231
			c-0.79,0.969-1.637,3.595-1.687,4.841c-0.051,1.245-0.318,3.922,0.247,5.407c0.563,1.485,0.931,4.336,1.635,4.807
			C95.885,27.141,97.99,28.402,97.99,28.402z"/>
		
			<radialGradient id="SVGID_29_" cx="100.6167" cy="18.3848" r="9.2173" gradientTransform="matrix(0.9848 0.1736 -0.3473 1.9696 7.9136 -35.298)" gradientUnits="userSpaceOnUse">
			<stop  offset="0" style="stop-color:#660066;stop-opacity:0"/>
			<stop  offset="0.5" style="stop-color:#660066"/>
			<stop  offset="1" style="stop-color:#660066;stop-opacity:0"/>
		</radialGradient>
		<radialGradient id="SVGID_30_" cx="100.6167" cy="18.3848" r="9.3412" gradientUnits="userSpaceOnUse">
			<stop  offset="0" style="stop-color:#660066;stop-opacity:0"/>
			<stop  offset="0.5" style="stop-color:#660066"/>
			<stop  offset="1" style="stop-color:#660066;stop-opacity:0"/>
		</radialGradient>
		<path fill="url(#SVGID_29_)" stroke="url(#SVGID_30_)" stroke-width="0.25" stroke-miterlimit="10" d="M102.826,8.169
			c-4.196-0.926-8.587,2.812-9.807,8.345c-1.024,4.646,0.512,9.083,3.516,10.934c0.524,0.404,1.044,0.744,1.454,0.951
			c1.34,0.678,4.261,0.198,6.146-0.138c1.887-0.336,2.483-2.867,3.797-6.399c0,0-0.12,0.013-0.337,0.037
			c0.253-0.644,0.463-1.324,0.62-2.034C109.434,14.331,107.021,9.094,102.826,8.169z"/>
		
			<radialGradient id="SVGID_31_" cx="100.1929" cy="18.6611" r="6.6336" gradientTransform="matrix(0.9848 0.1736 -0.5209 2.9544 11.2436 -53.8701)" gradientUnits="userSpaceOnUse">
			<stop  offset="0" style="stop-color:#FFFFA1"/>
			<stop  offset="0.2632" style="stop-color:#FDFDA0"/>
			<stop  offset="0.4007" style="stop-color:#F5F59B"/>
			<stop  offset="0.5092" style="stop-color:#E7E792"/>
			<stop  offset="0.6025" style="stop-color:#D4D486"/>
			<stop  offset="0.686" style="stop-color:#BCBC76"/>
			<stop  offset="0.7626" style="stop-color:#9D9D63"/>
			<stop  offset="0.8339" style="stop-color:#79794C"/>
			<stop  offset="0.9009" style="stop-color:#4F4F32"/>
			<stop  offset="0.9624" style="stop-color:#202014"/>
			<stop  offset="1" style="stop-color:#000000"/>
		</radialGradient>
		<path fill="url(#SVGID_31_)" stroke="#000000" stroke-width="0.25" stroke-miterlimit="10" d="M105.632,19.861
			c-0.898,4.07-4.061,6.833-7.065,6.17c-3.004-0.662-4.711-4.499-3.813-8.569c0.897-4.07,4.061-6.833,7.064-6.171
			C104.822,11.954,106.529,15.791,105.632,19.861z"/>
		
			<radialGradient id="SVGID_32_" cx="99.687" cy="18.6616" r="2.9984" gradientTransform="matrix(0.1736 -0.9848 0.8863 0.1563 65.8363 113.9177)" gradientUnits="userSpaceOnUse">
			<stop  offset="0" style="stop-color:#66CC99"/>
			<stop  offset="0.3792" style="stop-color:#65CA98"/>
			<stop  offset="0.5159" style="stop-color:#62C392"/>
			<stop  offset="0.6133" style="stop-color:#5CB88A"/>
			<stop  offset="0.6921" style="stop-color:#53A77D"/>
			<stop  offset="0.7595" style="stop-color:#48916C"/>
			<stop  offset="0.8193" style="stop-color:#3B7558"/>
			<stop  offset="0.8733" style="stop-color:#2A5540"/>
			<stop  offset="0.9229" style="stop-color:#182F23"/>
			<stop  offset="0.9672" style="stop-color:#030605"/>
			<stop  offset="0.9731" style="stop-color:#000000"/>
		</radialGradient>
		<path fill="url(#SVGID_32_)" stroke="#000000" stroke-width="0.25" stroke-miterlimit="10" d="M102.146,19.204
			c-0.406,1.84-1.835,3.088-3.194,2.789c-1.357-0.299-2.129-2.034-1.723-3.874s1.834-3.089,3.192-2.789
			C101.778,15.629,102.551,17.364,102.146,19.204z"/>
		
			<ellipse transform="matrix(0.9765 0.2154 -0.2154 0.9765 6.3588 -21.0324)" stroke="#000000" stroke-width="0.25" stroke-miterlimit="10" cx="99.687" cy="18.661" rx="0.9" ry="1.22"/>
	</g>
	
		<ellipse transform="matrix(-0.5776 -0.8163 0.8163 -0.5776 132.558 199.8977)" stroke="#000000" stroke-width="0.25" stroke-miterlimit="10" cx="117.995" cy="65.655" rx="0.538" ry="0.695"/>
	<g display="none">
		<radialGradient id="SVGID_33_" cx="72.8853" cy="27.9741" r="10.3411" gradientUnits="userSpaceOnUse">
			<stop  offset="0.6398" style="stop-color:#BC5EAF"/>
			<stop  offset="0.7825" style="stop-color:#BA5DAD"/>
			<stop  offset="0.8339" style="stop-color:#B35AA7"/>
			<stop  offset="0.8705" style="stop-color:#A8549C"/>
			<stop  offset="0.9002" style="stop-color:#974B8C"/>
			<stop  offset="0.9256" style="stop-color:#814078"/>
			<stop  offset="0.9481" style="stop-color:#65335E"/>
			<stop  offset="0.9684" style="stop-color:#452240"/>
			<stop  offset="0.9865" style="stop-color:#21101E"/>
			<stop  offset="1" style="stop-color:#000000"/>
		</radialGradient>
		<radialGradient id="SVGID_34_" cx="73.0171" cy="27.9741" r="10.5199" gradientUnits="userSpaceOnUse">
			<stop  offset="0" style="stop-color:#660066"/>
			<stop  offset="0.2081" style="stop-color:#560056"/>
			<stop  offset="0.6114" style="stop-color:#2D002D"/>
			<stop  offset="1" style="stop-color:#000000"/>
		</radialGradient>
		<path display="inline" fill="url(#SVGID_33_)" stroke="url(#SVGID_34_)" stroke-width="0.25" stroke-miterlimit="10" d="
			M81.514,33.495c-7.968-1.125-8.2,0.881-9.118-1.251c-0.918-2.133-1.546-1.971-0.519-1.96c1.028,0.009,2.317-0.278,3.607-0.808
			c1.291-0.53,1.815-1.953,1.901-4.313c0.087-2.359,0.789-4.575-0.398-5.843c-1.186-1.269-2.135-3.204-4.567-3.06
			c-2.434,0.145-3.113-0.917-4.126,1.696c-1.015,2.612-1.018,4.628-1.135,6.63c-0.117,2.001-0.108,3.008-0.602,4.436
			c-0.494,1.429-3.039,2.252-2.094,4.463c0.946,2.212,1.858,5.339,3.036,6.22C68.677,40.586,81.514,33.495,81.514,33.495z"/>
		
			<radialGradient id="SVGID_35_" cx="72.3286" cy="22.4312" r="5.6292" gradientTransform="matrix(0.9848 -0.1736 0.3473 1.9696 -6.6914 -9.1898)" gradientUnits="userSpaceOnUse">
			<stop  offset="0" style="stop-color:#660066;stop-opacity:0"/>
			<stop  offset="0.5" style="stop-color:#660066"/>
			<stop  offset="1" style="stop-color:#660066;stop-opacity:0"/>
		</radialGradient>
		<path display="inline" fill="url(#SVGID_35_)" d="M77.498,21.384c0.653,3.227-1.131,6.312-3.986,6.89
			c-2.854,0.579-5.7-1.568-6.353-4.795s1.131-6.312,3.986-6.89C74,16.01,76.844,18.157,77.498,21.384z"/>
		
			<radialGradient id="SVGID_36_" cx="72.3286" cy="22.4312" r="4.3291" gradientTransform="matrix(0.9848 -0.1736 0.3473 1.9696 -6.6914 -9.1898)" gradientUnits="userSpaceOnUse">
			<stop  offset="0" style="stop-color:#FFFFA1"/>
			<stop  offset="0.2951" style="stop-color:#FDFDA0"/>
			<stop  offset="0.4327" style="stop-color:#F5F59B"/>
			<stop  offset="0.5376" style="stop-color:#E9E993"/>
			<stop  offset="0.626" style="stop-color:#D6D687"/>
			<stop  offset="0.704" style="stop-color:#BEBE78"/>
			<stop  offset="0.7747" style="stop-color:#A1A166"/>
			<stop  offset="0.8398" style="stop-color:#7E7E50"/>
			<stop  offset="0.9007" style="stop-color:#565636"/>
			<stop  offset="0.9559" style="stop-color:#29291A"/>
			<stop  offset="1" style="stop-color:#000000"/>
		</radialGradient>
		<path display="inline" fill="url(#SVGID_36_)" stroke="#000000" stroke-width="0.25" stroke-miterlimit="10" d="M76.304,21.626
			c0.502,2.481-0.87,4.854-3.065,5.298c-2.195,0.445-4.383-1.207-4.886-3.688s0.87-4.854,3.065-5.298
			C73.613,17.494,75.801,19.144,76.304,21.626z"/>
		<radialGradient id="SVGID_37_" cx="72.3286" cy="22.1782" r="1.7154" gradientUnits="userSpaceOnUse">
			<stop  offset="0" style="stop-color:#66CC99"/>
			<stop  offset="0.3792" style="stop-color:#65CA98"/>
			<stop  offset="0.5159" style="stop-color:#62C392"/>
			<stop  offset="0.6133" style="stop-color:#5CB88A"/>
			<stop  offset="0.6921" style="stop-color:#53A77D"/>
			<stop  offset="0.7595" style="stop-color:#48916C"/>
			<stop  offset="0.8193" style="stop-color:#3B7558"/>
			<stop  offset="0.8733" style="stop-color:#2A5540"/>
			<stop  offset="0.9229" style="stop-color:#182F23"/>
			<stop  offset="0.9672" style="stop-color:#030605"/>
			<stop  offset="0.9731" style="stop-color:#000000"/>
		</radialGradient>
		<path display="inline" fill="url(#SVGID_37_)" stroke="#000000" stroke-width="0.25" stroke-miterlimit="10" d="M73.904,21.859
			c0.199,0.983-0.344,1.923-1.214,2.1s-1.738-0.478-1.937-1.461c-0.198-0.984,0.345-1.924,1.214-2.099
			C72.838,20.221,73.706,20.875,73.904,21.859z"/>
		
			<ellipse transform="matrix(0.98 -0.1989 0.1989 0.98 -2.9657 14.8259)" display="inline" stroke="#000000" stroke-width="0.25" stroke-miterlimit="10" cx="72.329" cy="22.178" rx="0.754" ry="0.852"/>
	</g>
	<radialGradient id="SVGID_38_" cx="78.7456" cy="46.8662" r="8.5988" gradientUnits="userSpaceOnUse">
		<stop  offset="0" style="stop-color:#FFFFA1"/>
		<stop  offset="0.3726" style="stop-color:#FDFDA0;stop-opacity:0.8137"/>
		<stop  offset="0.5069" style="stop-color:#F6F69C;stop-opacity:0.7466"/>
		<stop  offset="0.6026" style="stop-color:#EBEB94;stop-opacity:0.6987"/>
		<stop  offset="0.68" style="stop-color:#DADA89;stop-opacity:0.66"/>
		<stop  offset="0.7463" style="stop-color:#C4C47B;stop-opacity:0.6269"/>
		<stop  offset="0.805" style="stop-color:#A8A86A;stop-opacity:0.5975"/>
		<stop  offset="0.8581" style="stop-color:#888856;stop-opacity:0.5709"/>
		<stop  offset="0.9069" style="stop-color:#62623E;stop-opacity:0.5465"/>
		<stop  offset="0.9523" style="stop-color:#373723;stop-opacity:0.5238"/>
		<stop  offset="0.9926" style="stop-color:#090906;stop-opacity:0.5037"/>
		<stop  offset="1" style="stop-color:#000000;stop-opacity:0.5"/>
	</radialGradient>
	<path fill="url(#SVGID_38_)" stroke="#000000" stroke-width="0.25" stroke-miterlimit="10" d="M68.658,51.162
		c0.096-2.517,1.186-7.73,4.577-9.367c3.392-1.637,6.838-2.488,10.243-0.799c3.405,1.69,5.768,7.348,5.294,8.447
		c-0.474,1.099-1.551,2.208-3.913,3.101c-2.361,0.893-9.824,1.487-11.826,0.845C71.032,52.747,68.658,51.162,68.658,51.162z"/>
	<radialGradient id="SVGID_39_" cx="78.6821" cy="47.3789" r="6.0622" gradientUnits="userSpaceOnUse">
		<stop  offset="0" style="stop-color:#66CC99"/>
		<stop  offset="0.3792" style="stop-color:#65CA98"/>
		<stop  offset="0.5159" style="stop-color:#62C392"/>
		<stop  offset="0.6133" style="stop-color:#5CB88A"/>
		<stop  offset="0.6921" style="stop-color:#53A77D"/>
		<stop  offset="0.7595" style="stop-color:#48916C"/>
		<stop  offset="0.8193" style="stop-color:#3B7558"/>
		<stop  offset="0.8733" style="stop-color:#2A5540"/>
		<stop  offset="0.9229" style="stop-color:#182F23"/>
		<stop  offset="0.9672" style="stop-color:#030605"/>
		<stop  offset="0.9731" style="stop-color:#000000"/>
	</radialGradient>
	<path fill="url(#SVGID_39_)" stroke="#000000" stroke-width="0.25" stroke-miterlimit="10" d="M75.064,53.313
		c-1.723-0.993-1.639-2.626-1.989-4.902c-0.35-2.276,0.558-4.738,1.854-6.132c1.296-1.395,4.015-1.453,4.975-1.205
		c0.959,0.248,2.812,2.219,3.416,3.464c0.606,1.247,1.272,4.773,0.971,5.901c-0.356,1.336-0.166,1.398-0.788,2.346
		C83.053,53.472,76.896,54.368,75.064,53.313z"/>
	<linearGradient id="SVGID_40_" gradientUnits="userSpaceOnUse" x1="79.5742" y1="49.165" x2="79.5742" y2="64.1113">
		<stop  offset="0.2473" style="stop-color:#000000;stop-opacity:0"/>
		<stop  offset="1" style="stop-color:#000000"/>
	</linearGradient>
	<path fill="url(#SVGID_40_)" d="M68.161,51.496c3.679,5.342,20.489,1.494,21.872-2.331c0,0,1.438,7.148,0.783,8.289
		c-3.665,6.382-9.751,6.56-10.549,6.61c-7.506,0.478-10.418-2.795-11.129-4.758C68.425,57.342,68.161,51.496,68.161,51.496z"/>
	<path stroke="#000000" stroke-width="0.25" stroke-miterlimit="10" d="M76.401,51.118c-1.085-0.625-1.032-1.654-1.253-3.089
		c-0.22-1.435,0.352-2.986,1.169-3.865s2.53-0.916,3.135-0.759c0.605,0.156,1.773,1.398,2.154,2.184
		c0.381,0.784,0.801,3.007,0.612,3.718c-0.225,0.842-0.104,0.882-0.497,1.479C81.437,51.219,77.556,51.784,76.401,51.118z"/>
</g>
<path fill="#FFFF99" stroke="#000000" stroke-miterlimit="10" d="M67.6,86.957c-4.998-1.578-9.882-3.105-14.744-4.664
	c-1.497-0.48-2.927-1.053-4.395-1.574c-1.723-0.611-2.385-1.595-1.825-2.808c1.547-3.349,3.097-6.702,4.872-9.998
	c0.948-1.762,2.29-1.918,4.501-0.828c0.526,0.259,0.977,0.591,1.52,0.83c1.004,0.443,1.313,0.962,1.058,1.803
	c-0.45,1.48,0.637,2.582,2.265,3.545c11.591,6.86,20.372,15.008,24.955,25.034c0.708,1.548,1.061,3.169,1.578,4.757
	c-0.168,0.048-0.338,0.096-0.507,0.144c-0.261-0.263-0.529-0.523-0.782-0.79c-1.307-1.377-2.509-2.805-3.934-4.123
	c-2.87-2.655-6.905-3.803-11.686-4.223c-6.188-0.544-7.007-1.802-4.103-5.489C66.781,88.056,67.167,87.529,67.6,86.957z"/>
<linearGradient id="SVGID_41_" gradientUnits="userSpaceOnUse" x1="79.7261" y1="215.333" x2="62.4307" y2="215.333">
	<stop  offset="0" style="stop-color:#000000"/>
	<stop  offset="0.1711" style="stop-color:#4B2546"/>
	<stop  offset="0.3268" style="stop-color:#88447E"/>
	<stop  offset="0.4403" style="stop-color:#AE57A2"/>
	<stop  offset="0.5" style="stop-color:#BC5EAF"/>
	<stop  offset="0.7541" style="stop-color:#5A2D54"/>
	<stop  offset="1" style="stop-color:#000000"/>
</linearGradient>
<radialGradient id="SVGID_42_" cx="71.1357" cy="215.3457" r="10.095" gradientUnits="userSpaceOnUse">
	<stop  offset="0" style="stop-color:#660066"/>
	<stop  offset="0.2081" style="stop-color:#560056"/>
	<stop  offset="0.6114" style="stop-color:#2D002D"/>
	<stop  offset="1" style="stop-color:#000000"/>
</radialGradient>
<path fill-rule="evenodd" clip-rule="evenodd" fill="url(#SVGID_41_)" stroke="url(#SVGID_42_)" stroke-width="0.25" stroke-miterlimit="10" d="
	M73.89,222.692c0.945,1.223,1.809,2.342,2.806,3.633c-4.791-0.575-9.339-1.121-14.265-1.712c1.243-1.729,2.156-3.454,3.488-4.744
	c2.005-1.943,2.613-4.169,2.425-6.826c-0.203-2.853-0.278-5.715-0.415-8.702c2.527,0.154,4.898,0.299,7.399,0.451
	c-0.052,0.872-0.148,1.655-0.136,2.437c0.049,3.112,0.084,6.228,0.219,9.338c0.086,1.997,0.579,2.479,2.564,3.059
	c0.481,0.14,0.943,0.351,1.751,0.657C77.606,221.157,75.801,221.903,73.89,222.692z"/>
<linearGradient id="SVGID_43_" gradientUnits="userSpaceOnUse" x1="109.0332" y1="213.2178" x2="91.8369" y2="213.2178">
	<stop  offset="0" style="stop-color:#000000"/>
	<stop  offset="0.1711" style="stop-color:#4B2546"/>
	<stop  offset="0.3268" style="stop-color:#88447E"/>
	<stop  offset="0.4403" style="stop-color:#AE57A2"/>
	<stop  offset="0.5" style="stop-color:#BC5EAF"/>
	<stop  offset="0.7541" style="stop-color:#5A2D54"/>
	<stop  offset="1" style="stop-color:#000000"/>
</linearGradient>
<radialGradient id="SVGID_44_" cx="100.478" cy="213.2363" r="9.3978" gradientUnits="userSpaceOnUse">
	<stop  offset="0" style="stop-color:#660066"/>
	<stop  offset="0.2081" style="stop-color:#560056"/>
	<stop  offset="0.6114" style="stop-color:#2D002D"/>
	<stop  offset="1" style="stop-color:#000000"/>
</radialGradient>
<path fill-rule="evenodd" clip-rule="evenodd" fill="url(#SVGID_43_)" stroke="url(#SVGID_44_)" stroke-width="0.25" stroke-miterlimit="10" d="
	M97.46,203.466c1.923,0,3.679,0.007,5.435-0.004c0.674-0.004,0.99,0.25,1.06,0.974c0.286,2.982,0.652,5.957,0.943,8.939
	c0.156,1.592,0.731,2.748,2.481,3.042c0.481,0.08,0.922,0.398,1.655,0.73c-2.102,0.889-3.949,1.671-5.897,2.495
	c0.98,1.098,1.876,2.101,2.975,3.331c-4.811-0.573-9.335-1.112-14.274-1.701c1.31-1.826,2.317-3.508,3.599-4.944
	c1.572-1.762,2.227-3.664,2.059-6.015C97.336,208.094,97.46,205.854,97.46,203.466z"/>
<path fill="#FFFF99" stroke="#000000" stroke-miterlimit="10" d="M86.002,105.593c0.43-3.148,0.78-6.313,1.314-9.439
	c0.37-2.165,0.827-4.327,1.546-6.399c0.68-1.963,2.44-3.349,4.502-4.479c2.784-1.528,5.562-3.066,8.329-4.614
	c2.223-1.241,2.302-1.943,0.514-3.974c-0.487-0.555,2.64-2.118,3.82,0.02c1.548,2.809,3.085,5.649,4.145,8.537
	c0.49,1.333,0.07,2.882-0.369,4.204c-0.359,1.077-1.332,1.978-2.085,2.928c-1.088,1.371-2.223,2.717-3.396,4.143
	c-1.584-2.201-1.239-4.812-4.18-6.832c-1.266,2.157-2.432,4.145-3.739,6.37c-0.299-1.005-0.438-1.75-0.749-2.465
	c-0.659-1.519-1.063-2.115-2.232-0.98c-0.671,0.649-0.814,2.103-1.164,2.926c-1.341,3.165-4.008,5.969-5.315,9.145
	c-0.147,0.359-0.406,0.679-0.614,1.016C86.221,105.663,86.112,105.627,86.002,105.593z"/>
<path fill-rule="evenodd" clip-rule="evenodd" fill="#FFFF99" d="M81.013,97.36c1.305,1.854,2.61,3.709,3.941,5.6
	c-1.491,0.521-1.998,0.336-2.498-0.855c-0.541-1.287-1.059-2.584-1.573-3.882c-0.089-0.226-0.106-0.479-0.156-0.721
	C80.823,97.455,80.918,97.407,81.013,97.36z"/>
<g>
	<path fill="#FF3333" stroke="#000000" stroke-miterlimit="10" d="M109.51,112.197c-6.06-4.545-4.445-8.33-1.262-9.332
		c3.183-1.002,6.7,0.764,4.639,8.27L109.51,112.197z"/>
	<path fill="#FF3333" stroke="#000000" stroke-miterlimit="10" d="M108.859,114.516c-6.966,2.975-9.437-0.316-8.714-3.572
		c0.724-3.258,4.011-5.422,9.481,0.115L108.859,114.516z"/>
	<path fill="#FF3333" stroke="#000000" stroke-miterlimit="10" d="M111.139,116.045c-0.907,7.521-4.992,8.015-7.451,5.761
		c-2.459-2.256-2.688-6.184,4.842-8.153L111.139,116.045z"/>
	<path fill="#FF3333" stroke="#000000" stroke-miterlimit="10" d="M113.872,114.897c6.06,4.545,4.445,8.33,1.262,9.333
		c-3.183,1.001-6.699-0.764-4.639-8.27L113.872,114.897z"/>
	<path fill="#FF3333" stroke="#000000" stroke-miterlimit="10" d="M114.264,111.969c6.966-2.975,9.436,0.316,8.713,3.574
		c-0.724,3.256-4.011,5.42-9.48-0.118L114.264,111.969z"/>
	<path fill="#FF3333" stroke="#000000" stroke-miterlimit="10" d="M112.036,110.422c0.906-7.52,4.992-8.014,7.452-5.759
		c2.458,2.255,2.688,6.185-4.842,8.152L112.036,110.422z"/>
	<circle cx="111.549" cy="113.348" r="3.316"/>
</g>
<g>
	<path fill="#FF3333" stroke="#000000" stroke-miterlimit="10" d="M38.454,93.762c-6.06-4.545-4.445-8.33-1.262-9.332
		c3.183-1.002,6.7,0.763,4.639,8.269L38.454,93.762z"/>
	<path fill="#FF3333" stroke="#000000" stroke-miterlimit="10" d="M37.803,96.08c-6.966,2.975-9.437-0.316-8.714-3.573
		c0.724-3.258,4.011-5.421,9.481,0.116L37.803,96.08z"/>
	<path fill="#FF3333" stroke="#000000" stroke-miterlimit="10" d="M40.083,97.609c-0.907,7.521-4.992,8.015-7.451,5.761
		c-2.459-2.256-2.688-6.184,4.842-8.153L40.083,97.609z"/>
	<path fill="#FF3333" stroke="#000000" stroke-miterlimit="10" d="M42.816,96.462c6.06,4.545,4.445,8.33,1.262,9.333
		c-3.183,1.001-6.699-0.764-4.639-8.27L42.816,96.462z"/>
	<path fill="#FF3333" stroke="#000000" stroke-miterlimit="10" d="M43.208,93.533c6.966-2.975,9.436,0.316,8.713,3.574
		c-0.724,3.256-4.011,5.42-9.48-0.118L43.208,93.533z"/>
	<path fill="#FF3333" stroke="#000000" stroke-miterlimit="10" d="M40.98,91.987c0.906-7.52,4.992-8.014,7.452-5.759
		c2.458,2.255,2.688,6.184-4.842,8.152L40.98,91.987z"/>
	<circle cx="40.493" cy="94.913" r="3.316"/>
</g>
<g>
	<path fill="#FF3333" stroke="#000000" stroke-miterlimit="10" d="M108.824,177.086c-6.969-2.967-6.306-7.028-3.454-8.761
		c2.851-1.733,6.688-0.858,6.479,6.923L108.824,177.086z"/>
	<path fill="#FF3333" stroke="#000000" stroke-miterlimit="10" d="M108.746,179.492c-6.055,4.552-9.239,1.946-9.314-1.389
		c-0.075-3.336,2.6-6.223,9.234-2.151L108.746,179.492z"/>
	<path fill="#FF3333" stroke="#000000" stroke-miterlimit="10" d="M111.325,180.433c0.916,7.521-2.934,8.975-5.86,7.373
		c-2.926-1.604-4.087-5.362,2.755-9.073L111.325,180.433z"/>
	<path fill="#FF3333" stroke="#000000" stroke-miterlimit="10" d="M113.705,178.666c6.97,2.967,6.305,7.028,3.454,8.762
		c-2.852,1.732-6.688,0.858-6.479-6.923L113.705,178.666z"/>
	<path fill="#FF3333" stroke="#000000" stroke-miterlimit="10" d="M113.387,175.729c6.054-4.552,9.239-1.945,9.314,1.391
		c0.075,3.334-2.601,6.221-9.234,2.148L113.387,175.729z"/>
	<path fill="#FF3333" stroke="#000000" stroke-miterlimit="10" d="M110.853,174.759c-0.915-7.519,2.934-8.974,5.861-7.372
		c2.926,1.603,4.087,5.364-2.756,9.073L110.853,174.759z"/>
	<circle cx="111.079" cy="177.716" r="3.316"/>
</g>
<g id="Layer_3">
</g>
</svg>
